0
SECTION
2
HEADER
9
$ACADVER
1
AC1009
9
$DWGCODEPAGE
3
ANSI_949
9
$INSBASE
10
0.000000
20
0.000000
30
0.000000
9
$EXTMIN
10
0.000000
20
0.000000
30
0.000000
9
$EXTMAX
10
300.000000
20
300.000000
30
0.000000
9
$LUNITS
70
2
9
$INSUNITS
70
4
9
$LIMMIN
10
0.000000
20
0.000000
9
$LIMMAX
10
300.000000
20
300.000000
0
ENDSEC
0
SECTION
2
TABLES
0
TABLE
2
LTYPE
70
3
0
LTYPE
2
CONTINUOUS
70
64
3
Solid line
72
65
73
0
40
0.000000
0
LTYPE
2
DASHED
70
64
3
Dashed __ __ __ __
72
65
73
2
40
6.000000
49
4.000000
49
-2.000000
0
LTYPE
2
CENTER
70
64
3
Center ____ _ ____
72
65
73
4
40
12.000000
49
8.000000
49
-1.500000
49
1.000000
49
-1.500000
0
ENDTAB
0
TABLE
2
LAYER
70
10
0
LAYER
2
CUT
70
0
62
7
6
CONTINUOUS
0
LAYER
2
HOLE
70
0
62
7
6
CONTINUOUS
0
LAYER
2
BEND
70
0
62
6
6
DASHED
0
LAYER
2
MARK
70
0
62
4
6
CONTINUOUS
0
LAYER
2
CENTER
70
0
62
2
6
CENTER
0
LAYER
2
HIDDEN
70
0
62
8
6
DASHED
0
LAYER
2
DIM
70
0
62
3
6
CONTINUOUS
0
LAYER
2
TEXT
70
0
62
3
6
CONTINUOUS
0
LAYER
2
FRAME
70
0
62
7
6
CONTINUOUS
0
LAYER
2
NOTE
70
0
62
8
6
CONTINUOUS
0
ENDTAB
0
TABLE
2
STYLE
70
1
0
STYLE
2
STANDARD
70
0
40
0.000000
41
1.000000
50
0.000000
71
0
42
2.500000
3
txt
4

0
ENDTAB
0
ENDSEC
0
SECTION
2
BLOCKS
0
ENDSEC
0
SECTION
2
ENTITIES
0
POLYLINE
8
CUT
66
1
10
0.000000
20
0.000000
30
0.000000
70
1
0
VERTEX
8
CUT
10
0.000000
20
150.000000
30
0.000000
42
1.000000
0
VERTEX
8
CUT
10
300.000000
20
150.000000
30
0.000000
42
1.000000
0
SEQEND
8
CUT
0
POLYLINE
8
HOLE
66
1
10
0.000000
20
0.000000
30
0.000000
70
1
0
VERTEX
8
HOLE
10
143.750000
20
104.533666
30
0.000000
42
-1.000000
0
VERTEX
8
HOLE
10
145.750000
20
104.533666
30
0.000000
42
-1.000000
0
SEQEND
8
HOLE
0
POLYLINE
8
HOLE
66
1
10
0.000000
20
0.000000
30
0.000000
70
1
0
VERTEX
8
HOLE
10
147.250000
20
104.533666
30
0.000000
42
-1.000000
0
VERTEX
8
HOLE
10
149.250000
20
104.533666
30
0.000000
42
-1.000000
0
SEQEND
8
HOLE
0
POLYLINE
8
HOLE
66
1
10
0.000000
20
0.000000
30
0.000000
70
1
0
VERTEX
8
HOLE
10
150.750000
20
104.533666
30
0.000000
42
-1.000000
0
VERTEX
8
HOLE
10
152.750000
20
104.533666
30
0.000000
42
-1.000000
0
SEQEND
8
HOLE
0
POLYLINE
8
HOLE
66
1
10
0.000000
20
0.000000
30
0.000000
70
1
0
VERTEX
8
HOLE
10
154.250000
20
104.533666
30
0.000000
42
-1.000000
0
VERTEX
8
HOLE
10
156.250000
20
104.533666
30
0.000000
42
-1.000000
0
SEQEND
8
HOLE
0
POLYLINE
8
HOLE
66
1
10
0.000000
20
0.000000
30
0.000000
70
1
0
VERTEX
8
HOLE
10
131.500000
20
107.564755
30
0.000000
42
-1.000000
0
VERTEX
8
HOLE
10
133.500000
20
107.564755
30
0.000000
42
-1.000000
0
SEQEND
8
HOLE
0
POLYLINE
8
HOLE
66
1
10
0.000000
20
0.000000
30
0.000000
70
1
0
VERTEX
8
HOLE
10
135.000000
20
107.564755
30
0.000000
42
-1.000000
0
VERTEX
8
HOLE
10
137.000000
20
107.564755
30
0.000000
42
-1.000000
0
SEQEND
8
HOLE
0
POLYLINE
8
HOLE
66
1
10
0.000000
20
0.000000
30
0.000000
70
1
0
VERTEX
8
HOLE
10
138.500000
20
107.564755
30
0.000000
42
-1.000000
0
VERTEX
8
HOLE
10
140.500000
20
107.564755
30
0.000000
42
-1.000000
0
SEQEND
8
HOLE
0
POLYLINE
8
HOLE
66
1
10
0.000000
20
0.000000
30
0.000000
70
1
0
VERTEX
8
HOLE
10
142.000000
20
107.564755
30
0.000000
42
-1.000000
0
VERTEX
8
HOLE
10
144.000000
20
107.564755
30
0.000000
42
-1.000000
0
SEQEND
8
HOLE
0
POLYLINE
8
HOLE
66
1
10
0.000000
20
0.000000
30
0.000000
70
1
0
VERTEX
8
HOLE
10
145.500000
20
107.564755
30
0.000000
42
-1.000000
0
VERTEX
8
HOLE
10
147.500000
20
107.564755
30
0.000000
42
-1.000000
0
SEQEND
8
HOLE
0
POLYLINE
8
HOLE
66
1
10
0.000000
20
0.000000
30
0.000000
70
1
0
VERTEX
8
HOLE
10
149.000000
20
107.564755
30
0.000000
42
-1.000000
0
VERTEX
8
HOLE
10
151.000000
20
107.564755
30
0.000000
42
-1.000000
0
SEQEND
8
HOLE
0
POLYLINE
8
HOLE
66
1
10
0.000000
20
0.000000
30
0.000000
70
1
0
VERTEX
8
HOLE
10
152.500000
20
107.564755
30
0.000000
42
-1.000000
0
VERTEX
8
HOLE
10
154.500000
20
107.564755
30
0.000000
42
-1.000000
0
SEQEND
8
HOLE
0
POLYLINE
8
HOLE
66
1
10
0.000000
20
0.000000
30
0.000000
70
1
0
VERTEX
8
HOLE
10
156.000000
20
107.564755
30
0.000000
42
-1.000000
0
VERTEX
8
HOLE
10
158.000000
20
107.564755
30
0.000000
42
-1.000000
0
SEQEND
8
HOLE
0
POLYLINE
8
HOLE
66
1
10
0.000000
20
0.000000
30
0.000000
70
1
0
VERTEX
8
HOLE
10
159.500000
20
107.564755
30
0.000000
42
-1.000000
0
VERTEX
8
HOLE
10
161.500000
20
107.564755
30
0.000000
42
-1.000000
0
SEQEND
8
HOLE
0
POLYLINE
8
HOLE
66
1
10
0.000000
20
0.000000
30
0.000000
70
1
0
VERTEX
8
HOLE
10
163.000000
20
107.564755
30
0.000000
42
-1.000000
0
VERTEX
8
HOLE
10
165.000000
20
107.564755
30
0.000000
42
-1.000000
0
SEQEND
8
HOLE
0
POLYLINE
8
HOLE
66
1
10
0.000000
20
0.000000
30
0.000000
70
1
0
VERTEX
8
HOLE
10
166.500000
20
107.564755
30
0.000000
42
-1.000000
0
VERTEX
8
HOLE
10
168.500000
20
107.564755
30
0.000000
42
-1.000000
0
SEQEND
8
HOLE
0
POLYLINE
8
HOLE
66
1
10
0.000000
20
0.000000
30
0.000000
70
1
0
VERTEX
8
HOLE
10
126.250000
20
110.595844
30
0.000000
42
-1.000000
0
VERTEX
8
HOLE
10
128.250000
20
110.595844
30
0.000000
42
-1.000000
0
SEQEND
8
HOLE
0
POLYLINE
8
HOLE
66
1
10
0.000000
20
0.000000
30
0.000000
70
1
0
VERTEX
8
HOLE
10
129.750000
20
110.595844
30
0.000000
42
-1.000000
0
VERTEX
8
HOLE
10
131.750000
20
110.595844
30
0.000000
42
-1.000000
0
SEQEND
8
HOLE
0
POLYLINE
8
HOLE
66
1
10
0.000000
20
0.000000
30
0.000000
70
1
0
VERTEX
8
HOLE
10
133.250000
20
110.595844
30
0.000000
42
-1.000000
0
VERTEX
8
HOLE
10
135.250000
20
110.595844
30
0.000000
42
-1.000000
0
SEQEND
8
HOLE
0
POLYLINE
8
HOLE
66
1
10
0.000000
20
0.000000
30
0.000000
70
1
0
VERTEX
8
HOLE
10
136.750000
20
110.595844
30
0.000000
42
-1.000000
0
VERTEX
8
HOLE
10
138.750000
20
110.595844
30
0.000000
42
-1.000000
0
SEQEND
8
HOLE
0
POLYLINE
8
HOLE
66
1
10
0.000000
20
0.000000
30
0.000000
70
1
0
VERTEX
8
HOLE
10
140.250000
20
110.595844
30
0.000000
42
-1.000000
0
VERTEX
8
HOLE
10
142.250000
20
110.595844
30
0.000000
42
-1.000000
0
SEQEND
8
HOLE
0
POLYLINE
8
HOLE
66
1
10
0.000000
20
0.000000
30
0.000000
70
1
0
VERTEX
8
HOLE
10
143.750000
20
110.595844
30
0.000000
42
-1.000000
0
VERTEX
8
HOLE
10
145.750000
20
110.595844
30
0.000000
42
-1.000000
0
SEQEND
8
HOLE
0
POLYLINE
8
HOLE
66
1
10
0.000000
20
0.000000
30
0.000000
70
1
0
VERTEX
8
HOLE
10
147.250000
20
110.595844
30
0.000000
42
-1.000000
0
VERTEX
8
HOLE
10
149.250000
20
110.595844
30
0.000000
42
-1.000000
0
SEQEND
8
HOLE
0
POLYLINE
8
HOLE
66
1
10
0.000000
20
0.000000
30
0.000000
70
1
0
VERTEX
8
HOLE
10
150.750000
20
110.595844
30
0.000000
42
-1.000000
0
VERTEX
8
HOLE
10
152.750000
20
110.595844
30
0.000000
42
-1.000000
0
SEQEND
8
HOLE
0
POLYLINE
8
HOLE
66
1
10
0.000000
20
0.000000
30
0.000000
70
1
0
VERTEX
8
HOLE
10
154.250000
20
110.595844
30
0.000000
42
-1.000000
0
VERTEX
8
HOLE
10
156.250000
20
110.595844
30
0.000000
42
-1.000000
0
SEQEND
8
HOLE
0
POLYLINE
8
HOLE
66
1
10
0.000000
20
0.000000
30
0.000000
70
1
0
VERTEX
8
HOLE
10
157.750000
20
110.595844
30
0.000000
42
-1.000000
0
VERTEX
8
HOLE
10
159.750000
20
110.595844
30
0.000000
42
-1.000000
0
SEQEND
8
HOLE
0
POLYLINE
8
HOLE
66
1
10
0.000000
20
0.000000
30
0.000000
70
1
0
VERTEX
8
HOLE
10
161.250000
20
110.595844
30
0.000000
42
-1.000000
0
VERTEX
8
HOLE
10
163.250000
20
110.595844
30
0.000000
42
-1.000000
0
SEQEND
8
HOLE
0
POLYLINE
8
HOLE
66
1
10
0.000000
20
0.000000
30
0.000000
70
1
0
VERTEX
8
HOLE
10
164.750000
20
110.595844
30
0.000000
42
-1.000000
0
VERTEX
8
HOLE
10
166.750000
20
110.595844
30
0.000000
42
-1.000000
0
SEQEND
8
HOLE
0
POLYLINE
8
HOLE
66
1
10
0.000000
20
0.000000
30
0.000000
70
1
0
VERTEX
8
HOLE
10
168.250000
20
110.595844
30
0.000000
42
-1.000000
0
VERTEX
8
HOLE
10
170.250000
20
110.595844
30
0.000000
42
-1.000000
0
SEQEND
8
HOLE
0
POLYLINE
8
HOLE
66
1
10
0.000000
20
0.000000
30
0.000000
70
1
0
VERTEX
8
HOLE
10
171.750000
20
110.595844
30
0.000000
42
-1.000000
0
VERTEX
8
HOLE
10
173.750000
20
110.595844
30
0.000000
42
-1.000000
0
SEQEND
8
HOLE
0
POLYLINE
8
HOLE
66
1
10
0.000000
20
0.000000
30
0.000000
70
1
0
VERTEX
8
HOLE
10
121.000000
20
113.626933
30
0.000000
42
-1.000000
0
VERTEX
8
HOLE
10
123.000000
20
113.626933
30
0.000000
42
-1.000000
0
SEQEND
8
HOLE
0
POLYLINE
8
HOLE
66
1
10
0.000000
20
0.000000
30
0.000000
70
1
0
VERTEX
8
HOLE
10
124.500000
20
113.626933
30
0.000000
42
-1.000000
0
VERTEX
8
HOLE
10
126.500000
20
113.626933
30
0.000000
42
-1.000000
0
SEQEND
8
HOLE
0
POLYLINE
8
HOLE
66
1
10
0.000000
20
0.000000
30
0.000000
70
1
0
VERTEX
8
HOLE
10
128.000000
20
113.626933
30
0.000000
42
-1.000000
0
VERTEX
8
HOLE
10
130.000000
20
113.626933
30
0.000000
42
-1.000000
0
SEQEND
8
HOLE
0
POLYLINE
8
HOLE
66
1
10
0.000000
20
0.000000
30
0.000000
70
1
0
VERTEX
8
HOLE
10
131.500000
20
113.626933
30
0.000000
42
-1.000000
0
VERTEX
8
HOLE
10
133.500000
20
113.626933
30
0.000000
42
-1.000000
0
SEQEND
8
HOLE
0
POLYLINE
8
HOLE
66
1
10
0.000000
20
0.000000
30
0.000000
70
1
0
VERTEX
8
HOLE
10
135.000000
20
113.626933
30
0.000000
42
-1.000000
0
VERTEX
8
HOLE
10
137.000000
20
113.626933
30
0.000000
42
-1.000000
0
SEQEND
8
HOLE
0
POLYLINE
8
HOLE
66
1
10
0.000000
20
0.000000
30
0.000000
70
1
0
VERTEX
8
HOLE
10
138.500000
20
113.626933
30
0.000000
42
-1.000000
0
VERTEX
8
HOLE
10
140.500000
20
113.626933
30
0.000000
42
-1.000000
0
SEQEND
8
HOLE
0
POLYLINE
8
HOLE
66
1
10
0.000000
20
0.000000
30
0.000000
70
1
0
VERTEX
8
HOLE
10
142.000000
20
113.626933
30
0.000000
42
-1.000000
0
VERTEX
8
HOLE
10
144.000000
20
113.626933
30
0.000000
42
-1.000000
0
SEQEND
8
HOLE
0
POLYLINE
8
HOLE
66
1
10
0.000000
20
0.000000
30
0.000000
70
1
0
VERTEX
8
HOLE
10
145.500000
20
113.626933
30
0.000000
42
-1.000000
0
VERTEX
8
HOLE
10
147.500000
20
113.626933
30
0.000000
42
-1.000000
0
SEQEND
8
HOLE
0
POLYLINE
8
HOLE
66
1
10
0.000000
20
0.000000
30
0.000000
70
1
0
VERTEX
8
HOLE
10
149.000000
20
113.626933
30
0.000000
42
-1.000000
0
VERTEX
8
HOLE
10
151.000000
20
113.626933
30
0.000000
42
-1.000000
0
SEQEND
8
HOLE
0
POLYLINE
8
HOLE
66
1
10
0.000000
20
0.000000
30
0.000000
70
1
0
VERTEX
8
HOLE
10
152.500000
20
113.626933
30
0.000000
42
-1.000000
0
VERTEX
8
HOLE
10
154.500000
20
113.626933
30
0.000000
42
-1.000000
0
SEQEND
8
HOLE
0
POLYLINE
8
HOLE
66
1
10
0.000000
20
0.000000
30
0.000000
70
1
0
VERTEX
8
HOLE
10
156.000000
20
113.626933
30
0.000000
42
-1.000000
0
VERTEX
8
HOLE
10
158.000000
20
113.626933
30
0.000000
42
-1.000000
0
SEQEND
8
HOLE
0
POLYLINE
8
HOLE
66
1
10
0.000000
20
0.000000
30
0.000000
70
1
0
VERTEX
8
HOLE
10
159.500000
20
113.626933
30
0.000000
42
-1.000000
0
VERTEX
8
HOLE
10
161.500000
20
113.626933
30
0.000000
42
-1.000000
0
SEQEND
8
HOLE
0
POLYLINE
8
HOLE
66
1
10
0.000000
20
0.000000
30
0.000000
70
1
0
VERTEX
8
HOLE
10
163.000000
20
113.626933
30
0.000000
42
-1.000000
0
VERTEX
8
HOLE
10
165.000000
20
113.626933
30
0.000000
42
-1.000000
0
SEQEND
8
HOLE
0
POLYLINE
8
HOLE
66
1
10
0.000000
20
0.000000
30
0.000000
70
1
0
VERTEX
8
HOLE
10
166.500000
20
113.626933
30
0.000000
42
-1.000000
0
VERTEX
8
HOLE
10
168.500000
20
113.626933
30
0.000000
42
-1.000000
0
SEQEND
8
HOLE
0
POLYLINE
8
HOLE
66
1
10
0.000000
20
0.000000
30
0.000000
70
1
0
VERTEX
8
HOLE
10
170.000000
20
113.626933
30
0.000000
42
-1.000000
0
VERTEX
8
HOLE
10
172.000000
20
113.626933
30
0.000000
42
-1.000000
0
SEQEND
8
HOLE
0
POLYLINE
8
HOLE
66
1
10
0.000000
20
0.000000
30
0.000000
70
1
0
VERTEX
8
HOLE
10
173.500000
20
113.626933
30
0.000000
42
-1.000000
0
VERTEX
8
HOLE
10
175.500000
20
113.626933
30
0.000000
42
-1.000000
0
SEQEND
8
HOLE
0
POLYLINE
8
HOLE
66
1
10
0.000000
20
0.000000
30
0.000000
70
1
0
VERTEX
8
HOLE
10
177.000000
20
113.626933
30
0.000000
42
-1.000000
0
VERTEX
8
HOLE
10
179.000000
20
113.626933
30
0.000000
42
-1.000000
0
SEQEND
8
HOLE
0
POLYLINE
8
HOLE
66
1
10
0.000000
20
0.000000
30
0.000000
70
1
0
VERTEX
8
HOLE
10
119.250000
20
116.658022
30
0.000000
42
-1.000000
0
VERTEX
8
HOLE
10
121.250000
20
116.658022
30
0.000000
42
-1.000000
0
SEQEND
8
HOLE
0
POLYLINE
8
HOLE
66
1
10
0.000000
20
0.000000
30
0.000000
70
1
0
VERTEX
8
HOLE
10
122.750000
20
116.658022
30
0.000000
42
-1.000000
0
VERTEX
8
HOLE
10
124.750000
20
116.658022
30
0.000000
42
-1.000000
0
SEQEND
8
HOLE
0
POLYLINE
8
HOLE
66
1
10
0.000000
20
0.000000
30
0.000000
70
1
0
VERTEX
8
HOLE
10
126.250000
20
116.658022
30
0.000000
42
-1.000000
0
VERTEX
8
HOLE
10
128.250000
20
116.658022
30
0.000000
42
-1.000000
0
SEQEND
8
HOLE
0
POLYLINE
8
HOLE
66
1
10
0.000000
20
0.000000
30
0.000000
70
1
0
VERTEX
8
HOLE
10
129.750000
20
116.658022
30
0.000000
42
-1.000000
0
VERTEX
8
HOLE
10
131.750000
20
116.658022
30
0.000000
42
-1.000000
0
SEQEND
8
HOLE
0
POLYLINE
8
HOLE
66
1
10
0.000000
20
0.000000
30
0.000000
70
1
0
VERTEX
8
HOLE
10
133.250000
20
116.658022
30
0.000000
42
-1.000000
0
VERTEX
8
HOLE
10
135.250000
20
116.658022
30
0.000000
42
-1.000000
0
SEQEND
8
HOLE
0
POLYLINE
8
HOLE
66
1
10
0.000000
20
0.000000
30
0.000000
70
1
0
VERTEX
8
HOLE
10
136.750000
20
116.658022
30
0.000000
42
-1.000000
0
VERTEX
8
HOLE
10
138.750000
20
116.658022
30
0.000000
42
-1.000000
0
SEQEND
8
HOLE
0
POLYLINE
8
HOLE
66
1
10
0.000000
20
0.000000
30
0.000000
70
1
0
VERTEX
8
HOLE
10
140.250000
20
116.658022
30
0.000000
42
-1.000000
0
VERTEX
8
HOLE
10
142.250000
20
116.658022
30
0.000000
42
-1.000000
0
SEQEND
8
HOLE
0
POLYLINE
8
HOLE
66
1
10
0.000000
20
0.000000
30
0.000000
70
1
0
VERTEX
8
HOLE
10
143.750000
20
116.658022
30
0.000000
42
-1.000000
0
VERTEX
8
HOLE
10
145.750000
20
116.658022
30
0.000000
42
-1.000000
0
SEQEND
8
HOLE
0
POLYLINE
8
HOLE
66
1
10
0.000000
20
0.000000
30
0.000000
70
1
0
VERTEX
8
HOLE
10
147.250000
20
116.658022
30
0.000000
42
-1.000000
0
VERTEX
8
HOLE
10
149.250000
20
116.658022
30
0.000000
42
-1.000000
0
SEQEND
8
HOLE
0
POLYLINE
8
HOLE
66
1
10
0.000000
20
0.000000
30
0.000000
70
1
0
VERTEX
8
HOLE
10
150.750000
20
116.658022
30
0.000000
42
-1.000000
0
VERTEX
8
HOLE
10
152.750000
20
116.658022
30
0.000000
42
-1.000000
0
SEQEND
8
HOLE
0
POLYLINE
8
HOLE
66
1
10
0.000000
20
0.000000
30
0.000000
70
1
0
VERTEX
8
HOLE
10
154.250000
20
116.658022
30
0.000000
42
-1.000000
0
VERTEX
8
HOLE
10
156.250000
20
116.658022
30
0.000000
42
-1.000000
0
SEQEND
8
HOLE
0
POLYLINE
8
HOLE
66
1
10
0.000000
20
0.000000
30
0.000000
70
1
0
VERTEX
8
HOLE
10
157.750000
20
116.658022
30
0.000000
42
-1.000000
0
VERTEX
8
HOLE
10
159.750000
20
116.658022
30
0.000000
42
-1.000000
0
SEQEND
8
HOLE
0
POLYLINE
8
HOLE
66
1
10
0.000000
20
0.000000
30
0.000000
70
1
0
VERTEX
8
HOLE
10
161.250000
20
116.658022
30
0.000000
42
-1.000000
0
VERTEX
8
HOLE
10
163.250000
20
116.658022
30
0.000000
42
-1.000000
0
SEQEND
8
HOLE
0
POLYLINE
8
HOLE
66
1
10
0.000000
20
0.000000
30
0.000000
70
1
0
VERTEX
8
HOLE
10
164.750000
20
116.658022
30
0.000000
42
-1.000000
0
VERTEX
8
HOLE
10
166.750000
20
116.658022
30
0.000000
42
-1.000000
0
SEQEND
8
HOLE
0
POLYLINE
8
HOLE
66
1
10
0.000000
20
0.000000
30
0.000000
70
1
0
VERTEX
8
HOLE
10
168.250000
20
116.658022
30
0.000000
42
-1.000000
0
VERTEX
8
HOLE
10
170.250000
20
116.658022
30
0.000000
42
-1.000000
0
SEQEND
8
HOLE
0
POLYLINE
8
HOLE
66
1
10
0.000000
20
0.000000
30
0.000000
70
1
0
VERTEX
8
HOLE
10
171.750000
20
116.658022
30
0.000000
42
-1.000000
0
VERTEX
8
HOLE
10
173.750000
20
116.658022
30
0.000000
42
-1.000000
0
SEQEND
8
HOLE
0
POLYLINE
8
HOLE
66
1
10
0.000000
20
0.000000
30
0.000000
70
1
0
VERTEX
8
HOLE
10
175.250000
20
116.658022
30
0.000000
42
-1.000000
0
VERTEX
8
HOLE
10
177.250000
20
116.658022
30
0.000000
42
-1.000000
0
SEQEND
8
HOLE
0
POLYLINE
8
HOLE
66
1
10
0.000000
20
0.000000
30
0.000000
70
1
0
VERTEX
8
HOLE
10
178.750000
20
116.658022
30
0.000000
42
-1.000000
0
VERTEX
8
HOLE
10
180.750000
20
116.658022
30
0.000000
42
-1.000000
0
SEQEND
8
HOLE
0
POLYLINE
8
HOLE
66
1
10
0.000000
20
0.000000
30
0.000000
70
1
0
VERTEX
8
HOLE
10
117.500000
20
119.689111
30
0.000000
42
-1.000000
0
VERTEX
8
HOLE
10
119.500000
20
119.689111
30
0.000000
42
-1.000000
0
SEQEND
8
HOLE
0
POLYLINE
8
HOLE
66
1
10
0.000000
20
0.000000
30
0.000000
70
1
0
VERTEX
8
HOLE
10
121.000000
20
119.689111
30
0.000000
42
-1.000000
0
VERTEX
8
HOLE
10
123.000000
20
119.689111
30
0.000000
42
-1.000000
0
SEQEND
8
HOLE
0
POLYLINE
8
HOLE
66
1
10
0.000000
20
0.000000
30
0.000000
70
1
0
VERTEX
8
HOLE
10
124.500000
20
119.689111
30
0.000000
42
-1.000000
0
VERTEX
8
HOLE
10
126.500000
20
119.689111
30
0.000000
42
-1.000000
0
SEQEND
8
HOLE
0
POLYLINE
8
HOLE
66
1
10
0.000000
20
0.000000
30
0.000000
70
1
0
VERTEX
8
HOLE
10
128.000000
20
119.689111
30
0.000000
42
-1.000000
0
VERTEX
8
HOLE
10
130.000000
20
119.689111
30
0.000000
42
-1.000000
0
SEQEND
8
HOLE
0
POLYLINE
8
HOLE
66
1
10
0.000000
20
0.000000
30
0.000000
70
1
0
VERTEX
8
HOLE
10
131.500000
20
119.689111
30
0.000000
42
-1.000000
0
VERTEX
8
HOLE
10
133.500000
20
119.689111
30
0.000000
42
-1.000000
0
SEQEND
8
HOLE
0
POLYLINE
8
HOLE
66
1
10
0.000000
20
0.000000
30
0.000000
70
1
0
VERTEX
8
HOLE
10
135.000000
20
119.689111
30
0.000000
42
-1.000000
0
VERTEX
8
HOLE
10
137.000000
20
119.689111
30
0.000000
42
-1.000000
0
SEQEND
8
HOLE
0
POLYLINE
8
HOLE
66
1
10
0.000000
20
0.000000
30
0.000000
70
1
0
VERTEX
8
HOLE
10
138.500000
20
119.689111
30
0.000000
42
-1.000000
0
VERTEX
8
HOLE
10
140.500000
20
119.689111
30
0.000000
42
-1.000000
0
SEQEND
8
HOLE
0
POLYLINE
8
HOLE
66
1
10
0.000000
20
0.000000
30
0.000000
70
1
0
VERTEX
8
HOLE
10
142.000000
20
119.689111
30
0.000000
42
-1.000000
0
VERTEX
8
HOLE
10
144.000000
20
119.689111
30
0.000000
42
-1.000000
0
SEQEND
8
HOLE
0
POLYLINE
8
HOLE
66
1
10
0.000000
20
0.000000
30
0.000000
70
1
0
VERTEX
8
HOLE
10
145.500000
20
119.689111
30
0.000000
42
-1.000000
0
VERTEX
8
HOLE
10
147.500000
20
119.689111
30
0.000000
42
-1.000000
0
SEQEND
8
HOLE
0
POLYLINE
8
HOLE
66
1
10
0.000000
20
0.000000
30
0.000000
70
1
0
VERTEX
8
HOLE
10
149.000000
20
119.689111
30
0.000000
42
-1.000000
0
VERTEX
8
HOLE
10
151.000000
20
119.689111
30
0.000000
42
-1.000000
0
SEQEND
8
HOLE
0
POLYLINE
8
HOLE
66
1
10
0.000000
20
0.000000
30
0.000000
70
1
0
VERTEX
8
HOLE
10
152.500000
20
119.689111
30
0.000000
42
-1.000000
0
VERTEX
8
HOLE
10
154.500000
20
119.689111
30
0.000000
42
-1.000000
0
SEQEND
8
HOLE
0
POLYLINE
8
HOLE
66
1
10
0.000000
20
0.000000
30
0.000000
70
1
0
VERTEX
8
HOLE
10
156.000000
20
119.689111
30
0.000000
42
-1.000000
0
VERTEX
8
HOLE
10
158.000000
20
119.689111
30
0.000000
42
-1.000000
0
SEQEND
8
HOLE
0
POLYLINE
8
HOLE
66
1
10
0.000000
20
0.000000
30
0.000000
70
1
0
VERTEX
8
HOLE
10
159.500000
20
119.689111
30
0.000000
42
-1.000000
0
VERTEX
8
HOLE
10
161.500000
20
119.689111
30
0.000000
42
-1.000000
0
SEQEND
8
HOLE
0
POLYLINE
8
HOLE
66
1
10
0.000000
20
0.000000
30
0.000000
70
1
0
VERTEX
8
HOLE
10
163.000000
20
119.689111
30
0.000000
42
-1.000000
0
VERTEX
8
HOLE
10
165.000000
20
119.689111
30
0.000000
42
-1.000000
0
SEQEND
8
HOLE
0
POLYLINE
8
HOLE
66
1
10
0.000000
20
0.000000
30
0.000000
70
1
0
VERTEX
8
HOLE
10
166.500000
20
119.689111
30
0.000000
42
-1.000000
0
VERTEX
8
HOLE
10
168.500000
20
119.689111
30
0.000000
42
-1.000000
0
SEQEND
8
HOLE
0
POLYLINE
8
HOLE
66
1
10
0.000000
20
0.000000
30
0.000000
70
1
0
VERTEX
8
HOLE
10
170.000000
20
119.689111
30
0.000000
42
-1.000000
0
VERTEX
8
HOLE
10
172.000000
20
119.689111
30
0.000000
42
-1.000000
0
SEQEND
8
HOLE
0
POLYLINE
8
HOLE
66
1
10
0.000000
20
0.000000
30
0.000000
70
1
0
VERTEX
8
HOLE
10
173.500000
20
119.689111
30
0.000000
42
-1.000000
0
VERTEX
8
HOLE
10
175.500000
20
119.689111
30
0.000000
42
-1.000000
0
SEQEND
8
HOLE
0
POLYLINE
8
HOLE
66
1
10
0.000000
20
0.000000
30
0.000000
70
1
0
VERTEX
8
HOLE
10
177.000000
20
119.689111
30
0.000000
42
-1.000000
0
VERTEX
8
HOLE
10
179.000000
20
119.689111
30
0.000000
42
-1.000000
0
SEQEND
8
HOLE
0
POLYLINE
8
HOLE
66
1
10
0.000000
20
0.000000
30
0.000000
70
1
0
VERTEX
8
HOLE
10
180.500000
20
119.689111
30
0.000000
42
-1.000000
0
VERTEX
8
HOLE
10
182.500000
20
119.689111
30
0.000000
42
-1.000000
0
SEQEND
8
HOLE
0
POLYLINE
8
HOLE
66
1
10
0.000000
20
0.000000
30
0.000000
70
1
0
VERTEX
8
HOLE
10
119.250000
20
122.720200
30
0.000000
42
-1.000000
0
VERTEX
8
HOLE
10
121.250000
20
122.720200
30
0.000000
42
-1.000000
0
SEQEND
8
HOLE
0
POLYLINE
8
HOLE
66
1
10
0.000000
20
0.000000
30
0.000000
70
1
0
VERTEX
8
HOLE
10
122.750000
20
122.720200
30
0.000000
42
-1.000000
0
VERTEX
8
HOLE
10
124.750000
20
122.720200
30
0.000000
42
-1.000000
0
SEQEND
8
HOLE
0
POLYLINE
8
HOLE
66
1
10
0.000000
20
0.000000
30
0.000000
70
1
0
VERTEX
8
HOLE
10
126.250000
20
122.720200
30
0.000000
42
-1.000000
0
VERTEX
8
HOLE
10
128.250000
20
122.720200
30
0.000000
42
-1.000000
0
SEQEND
8
HOLE
0
POLYLINE
8
HOLE
66
1
10
0.000000
20
0.000000
30
0.000000
70
1
0
VERTEX
8
HOLE
10
129.750000
20
122.720200
30
0.000000
42
-1.000000
0
VERTEX
8
HOLE
10
131.750000
20
122.720200
30
0.000000
42
-1.000000
0
SEQEND
8
HOLE
0
POLYLINE
8
HOLE
66
1
10
0.000000
20
0.000000
30
0.000000
70
1
0
VERTEX
8
HOLE
10
133.250000
20
122.720200
30
0.000000
42
-1.000000
0
VERTEX
8
HOLE
10
135.250000
20
122.720200
30
0.000000
42
-1.000000
0
SEQEND
8
HOLE
0
POLYLINE
8
HOLE
66
1
10
0.000000
20
0.000000
30
0.000000
70
1
0
VERTEX
8
HOLE
10
136.750000
20
122.720200
30
0.000000
42
-1.000000
0
VERTEX
8
HOLE
10
138.750000
20
122.720200
30
0.000000
42
-1.000000
0
SEQEND
8
HOLE
0
POLYLINE
8
HOLE
66
1
10
0.000000
20
0.000000
30
0.000000
70
1
0
VERTEX
8
HOLE
10
140.250000
20
122.720200
30
0.000000
42
-1.000000
0
VERTEX
8
HOLE
10
142.250000
20
122.720200
30
0.000000
42
-1.000000
0
SEQEND
8
HOLE
0
POLYLINE
8
HOLE
66
1
10
0.000000
20
0.000000
30
0.000000
70
1
0
VERTEX
8
HOLE
10
143.750000
20
122.720200
30
0.000000
42
-1.000000
0
VERTEX
8
HOLE
10
145.750000
20
122.720200
30
0.000000
42
-1.000000
0
SEQEND
8
HOLE
0
POLYLINE
8
HOLE
66
1
10
0.000000
20
0.000000
30
0.000000
70
1
0
VERTEX
8
HOLE
10
147.250000
20
122.720200
30
0.000000
42
-1.000000
0
VERTEX
8
HOLE
10
149.250000
20
122.720200
30
0.000000
42
-1.000000
0
SEQEND
8
HOLE
0
POLYLINE
8
HOLE
66
1
10
0.000000
20
0.000000
30
0.000000
70
1
0
VERTEX
8
HOLE
10
150.750000
20
122.720200
30
0.000000
42
-1.000000
0
VERTEX
8
HOLE
10
152.750000
20
122.720200
30
0.000000
42
-1.000000
0
SEQEND
8
HOLE
0
POLYLINE
8
HOLE
66
1
10
0.000000
20
0.000000
30
0.000000
70
1
0
VERTEX
8
HOLE
10
154.250000
20
122.720200
30
0.000000
42
-1.000000
0
VERTEX
8
HOLE
10
156.250000
20
122.720200
30
0.000000
42
-1.000000
0
SEQEND
8
HOLE
0
POLYLINE
8
HOLE
66
1
10
0.000000
20
0.000000
30
0.000000
70
1
0
VERTEX
8
HOLE
10
157.750000
20
122.720200
30
0.000000
42
-1.000000
0
VERTEX
8
HOLE
10
159.750000
20
122.720200
30
0.000000
42
-1.000000
0
SEQEND
8
HOLE
0
POLYLINE
8
HOLE
66
1
10
0.000000
20
0.000000
30
0.000000
70
1
0
VERTEX
8
HOLE
10
161.250000
20
122.720200
30
0.000000
42
-1.000000
0
VERTEX
8
HOLE
10
163.250000
20
122.720200
30
0.000000
42
-1.000000
0
SEQEND
8
HOLE
0
POLYLINE
8
HOLE
66
1
10
0.000000
20
0.000000
30
0.000000
70
1
0
VERTEX
8
HOLE
10
164.750000
20
122.720200
30
0.000000
42
-1.000000
0
VERTEX
8
HOLE
10
166.750000
20
122.720200
30
0.000000
42
-1.000000
0
SEQEND
8
HOLE
0
POLYLINE
8
HOLE
66
1
10
0.000000
20
0.000000
30
0.000000
70
1
0
VERTEX
8
HOLE
10
168.250000
20
122.720200
30
0.000000
42
-1.000000
0
VERTEX
8
HOLE
10
170.250000
20
122.720200
30
0.000000
42
-1.000000
0
SEQEND
8
HOLE
0
POLYLINE
8
HOLE
66
1
10
0.000000
20
0.000000
30
0.000000
70
1
0
VERTEX
8
HOLE
10
171.750000
20
122.720200
30
0.000000
42
-1.000000
0
VERTEX
8
HOLE
10
173.750000
20
122.720200
30
0.000000
42
-1.000000
0
SEQEND
8
HOLE
0
POLYLINE
8
HOLE
66
1
10
0.000000
20
0.000000
30
0.000000
70
1
0
VERTEX
8
HOLE
10
175.250000
20
122.720200
30
0.000000
42
-1.000000
0
VERTEX
8
HOLE
10
177.250000
20
122.720200
30
0.000000
42
-1.000000
0
SEQEND
8
HOLE
0
POLYLINE
8
HOLE
66
1
10
0.000000
20
0.000000
30
0.000000
70
1
0
VERTEX
8
HOLE
10
178.750000
20
122.720200
30
0.000000
42
-1.000000
0
VERTEX
8
HOLE
10
180.750000
20
122.720200
30
0.000000
42
-1.000000
0
SEQEND
8
HOLE
0
POLYLINE
8
HOLE
66
1
10
0.000000
20
0.000000
30
0.000000
70
1
0
VERTEX
8
HOLE
10
182.250000
20
122.720200
30
0.000000
42
-1.000000
0
VERTEX
8
HOLE
10
184.250000
20
122.720200
30
0.000000
42
-1.000000
0
SEQEND
8
HOLE
0
POLYLINE
8
HOLE
66
1
10
0.000000
20
0.000000
30
0.000000
70
1
0
VERTEX
8
HOLE
10
117.500000
20
125.751289
30
0.000000
42
-1.000000
0
VERTEX
8
HOLE
10
119.500000
20
125.751289
30
0.000000
42
-1.000000
0
SEQEND
8
HOLE
0
POLYLINE
8
HOLE
66
1
10
0.000000
20
0.000000
30
0.000000
70
1
0
VERTEX
8
HOLE
10
121.000000
20
125.751289
30
0.000000
42
-1.000000
0
VERTEX
8
HOLE
10
123.000000
20
125.751289
30
0.000000
42
-1.000000
0
SEQEND
8
HOLE
0
POLYLINE
8
HOLE
66
1
10
0.000000
20
0.000000
30
0.000000
70
1
0
VERTEX
8
HOLE
10
124.500000
20
125.751289
30
0.000000
42
-1.000000
0
VERTEX
8
HOLE
10
126.500000
20
125.751289
30
0.000000
42
-1.000000
0
SEQEND
8
HOLE
0
POLYLINE
8
HOLE
66
1
10
0.000000
20
0.000000
30
0.000000
70
1
0
VERTEX
8
HOLE
10
128.000000
20
125.751289
30
0.000000
42
-1.000000
0
VERTEX
8
HOLE
10
130.000000
20
125.751289
30
0.000000
42
-1.000000
0
SEQEND
8
HOLE
0
POLYLINE
8
HOLE
66
1
10
0.000000
20
0.000000
30
0.000000
70
1
0
VERTEX
8
HOLE
10
131.500000
20
125.751289
30
0.000000
42
-1.000000
0
VERTEX
8
HOLE
10
133.500000
20
125.751289
30
0.000000
42
-1.000000
0
SEQEND
8
HOLE
0
POLYLINE
8
HOLE
66
1
10
0.000000
20
0.000000
30
0.000000
70
1
0
VERTEX
8
HOLE
10
135.000000
20
125.751289
30
0.000000
42
-1.000000
0
VERTEX
8
HOLE
10
137.000000
20
125.751289
30
0.000000
42
-1.000000
0
SEQEND
8
HOLE
0
POLYLINE
8
HOLE
66
1
10
0.000000
20
0.000000
30
0.000000
70
1
0
VERTEX
8
HOLE
10
138.500000
20
125.751289
30
0.000000
42
-1.000000
0
VERTEX
8
HOLE
10
140.500000
20
125.751289
30
0.000000
42
-1.000000
0
SEQEND
8
HOLE
0
POLYLINE
8
HOLE
66
1
10
0.000000
20
0.000000
30
0.000000
70
1
0
VERTEX
8
HOLE
10
142.000000
20
125.751289
30
0.000000
42
-1.000000
0
VERTEX
8
HOLE
10
144.000000
20
125.751289
30
0.000000
42
-1.000000
0
SEQEND
8
HOLE
0
POLYLINE
8
HOLE
66
1
10
0.000000
20
0.000000
30
0.000000
70
1
0
VERTEX
8
HOLE
10
145.500000
20
125.751289
30
0.000000
42
-1.000000
0
VERTEX
8
HOLE
10
147.500000
20
125.751289
30
0.000000
42
-1.000000
0
SEQEND
8
HOLE
0
POLYLINE
8
HOLE
66
1
10
0.000000
20
0.000000
30
0.000000
70
1
0
VERTEX
8
HOLE
10
149.000000
20
125.751289
30
0.000000
42
-1.000000
0
VERTEX
8
HOLE
10
151.000000
20
125.751289
30
0.000000
42
-1.000000
0
SEQEND
8
HOLE
0
POLYLINE
8
HOLE
66
1
10
0.000000
20
0.000000
30
0.000000
70
1
0
VERTEX
8
HOLE
10
152.500000
20
125.751289
30
0.000000
42
-1.000000
0
VERTEX
8
HOLE
10
154.500000
20
125.751289
30
0.000000
42
-1.000000
0
SEQEND
8
HOLE
0
POLYLINE
8
HOLE
66
1
10
0.000000
20
0.000000
30
0.000000
70
1
0
VERTEX
8
HOLE
10
156.000000
20
125.751289
30
0.000000
42
-1.000000
0
VERTEX
8
HOLE
10
158.000000
20
125.751289
30
0.000000
42
-1.000000
0
SEQEND
8
HOLE
0
POLYLINE
8
HOLE
66
1
10
0.000000
20
0.000000
30
0.000000
70
1
0
VERTEX
8
HOLE
10
159.500000
20
125.751289
30
0.000000
42
-1.000000
0
VERTEX
8
HOLE
10
161.500000
20
125.751289
30
0.000000
42
-1.000000
0
SEQEND
8
HOLE
0
POLYLINE
8
HOLE
66
1
10
0.000000
20
0.000000
30
0.000000
70
1
0
VERTEX
8
HOLE
10
163.000000
20
125.751289
30
0.000000
42
-1.000000
0
VERTEX
8
HOLE
10
165.000000
20
125.751289
30
0.000000
42
-1.000000
0
SEQEND
8
HOLE
0
POLYLINE
8
HOLE
66
1
10
0.000000
20
0.000000
30
0.000000
70
1
0
VERTEX
8
HOLE
10
166.500000
20
125.751289
30
0.000000
42
-1.000000
0
VERTEX
8
HOLE
10
168.500000
20
125.751289
30
0.000000
42
-1.000000
0
SEQEND
8
HOLE
0
POLYLINE
8
HOLE
66
1
10
0.000000
20
0.000000
30
0.000000
70
1
0
VERTEX
8
HOLE
10
170.000000
20
125.751289
30
0.000000
42
-1.000000
0
VERTEX
8
HOLE
10
172.000000
20
125.751289
30
0.000000
42
-1.000000
0
SEQEND
8
HOLE
0
POLYLINE
8
HOLE
66
1
10
0.000000
20
0.000000
30
0.000000
70
1
0
VERTEX
8
HOLE
10
173.500000
20
125.751289
30
0.000000
42
-1.000000
0
VERTEX
8
HOLE
10
175.500000
20
125.751289
30
0.000000
42
-1.000000
0
SEQEND
8
HOLE
0
POLYLINE
8
HOLE
66
1
10
0.000000
20
0.000000
30
0.000000
70
1
0
VERTEX
8
HOLE
10
177.000000
20
125.751289
30
0.000000
42
-1.000000
0
VERTEX
8
HOLE
10
179.000000
20
125.751289
30
0.000000
42
-1.000000
0
SEQEND
8
HOLE
0
POLYLINE
8
HOLE
66
1
10
0.000000
20
0.000000
30
0.000000
70
1
0
VERTEX
8
HOLE
10
180.500000
20
125.751289
30
0.000000
42
-1.000000
0
VERTEX
8
HOLE
10
182.500000
20
125.751289
30
0.000000
42
-1.000000
0
SEQEND
8
HOLE
0
POLYLINE
8
HOLE
66
1
10
0.000000
20
0.000000
30
0.000000
70
1
0
VERTEX
8
HOLE
10
119.250000
20
128.782378
30
0.000000
42
-1.000000
0
VERTEX
8
HOLE
10
121.250000
20
128.782378
30
0.000000
42
-1.000000
0
SEQEND
8
HOLE
0
POLYLINE
8
HOLE
66
1
10
0.000000
20
0.000000
30
0.000000
70
1
0
VERTEX
8
HOLE
10
122.750000
20
128.782378
30
0.000000
42
-1.000000
0
VERTEX
8
HOLE
10
124.750000
20
128.782378
30
0.000000
42
-1.000000
0
SEQEND
8
HOLE
0
POLYLINE
8
HOLE
66
1
10
0.000000
20
0.000000
30
0.000000
70
1
0
VERTEX
8
HOLE
10
126.250000
20
128.782378
30
0.000000
42
-1.000000
0
VERTEX
8
HOLE
10
128.250000
20
128.782378
30
0.000000
42
-1.000000
0
SEQEND
8
HOLE
0
POLYLINE
8
HOLE
66
1
10
0.000000
20
0.000000
30
0.000000
70
1
0
VERTEX
8
HOLE
10
129.750000
20
128.782378
30
0.000000
42
-1.000000
0
VERTEX
8
HOLE
10
131.750000
20
128.782378
30
0.000000
42
-1.000000
0
SEQEND
8
HOLE
0
POLYLINE
8
HOLE
66
1
10
0.000000
20
0.000000
30
0.000000
70
1
0
VERTEX
8
HOLE
10
133.250000
20
128.782378
30
0.000000
42
-1.000000
0
VERTEX
8
HOLE
10
135.250000
20
128.782378
30
0.000000
42
-1.000000
0
SEQEND
8
HOLE
0
POLYLINE
8
HOLE
66
1
10
0.000000
20
0.000000
30
0.000000
70
1
0
VERTEX
8
HOLE
10
136.750000
20
128.782378
30
0.000000
42
-1.000000
0
VERTEX
8
HOLE
10
138.750000
20
128.782378
30
0.000000
42
-1.000000
0
SEQEND
8
HOLE
0
POLYLINE
8
HOLE
66
1
10
0.000000
20
0.000000
30
0.000000
70
1
0
VERTEX
8
HOLE
10
140.250000
20
128.782378
30
0.000000
42
-1.000000
0
VERTEX
8
HOLE
10
142.250000
20
128.782378
30
0.000000
42
-1.000000
0
SEQEND
8
HOLE
0
POLYLINE
8
HOLE
66
1
10
0.000000
20
0.000000
30
0.000000
70
1
0
VERTEX
8
HOLE
10
143.750000
20
128.782378
30
0.000000
42
-1.000000
0
VERTEX
8
HOLE
10
145.750000
20
128.782378
30
0.000000
42
-1.000000
0
SEQEND
8
HOLE
0
POLYLINE
8
HOLE
66
1
10
0.000000
20
0.000000
30
0.000000
70
1
0
VERTEX
8
HOLE
10
147.250000
20
128.782378
30
0.000000
42
-1.000000
0
VERTEX
8
HOLE
10
149.250000
20
128.782378
30
0.000000
42
-1.000000
0
SEQEND
8
HOLE
0
POLYLINE
8
HOLE
66
1
10
0.000000
20
0.000000
30
0.000000
70
1
0
VERTEX
8
HOLE
10
150.750000
20
128.782378
30
0.000000
42
-1.000000
0
VERTEX
8
HOLE
10
152.750000
20
128.782378
30
0.000000
42
-1.000000
0
SEQEND
8
HOLE
0
POLYLINE
8
HOLE
66
1
10
0.000000
20
0.000000
30
0.000000
70
1
0
VERTEX
8
HOLE
10
154.250000
20
128.782378
30
0.000000
42
-1.000000
0
VERTEX
8
HOLE
10
156.250000
20
128.782378
30
0.000000
42
-1.000000
0
SEQEND
8
HOLE
0
POLYLINE
8
HOLE
66
1
10
0.000000
20
0.000000
30
0.000000
70
1
0
VERTEX
8
HOLE
10
157.750000
20
128.782378
30
0.000000
42
-1.000000
0
VERTEX
8
HOLE
10
159.750000
20
128.782378
30
0.000000
42
-1.000000
0
SEQEND
8
HOLE
0
POLYLINE
8
HOLE
66
1
10
0.000000
20
0.000000
30
0.000000
70
1
0
VERTEX
8
HOLE
10
161.250000
20
128.782378
30
0.000000
42
-1.000000
0
VERTEX
8
HOLE
10
163.250000
20
128.782378
30
0.000000
42
-1.000000
0
SEQEND
8
HOLE
0
POLYLINE
8
HOLE
66
1
10
0.000000
20
0.000000
30
0.000000
70
1
0
VERTEX
8
HOLE
10
164.750000
20
128.782378
30
0.000000
42
-1.000000
0
VERTEX
8
HOLE
10
166.750000
20
128.782378
30
0.000000
42
-1.000000
0
SEQEND
8
HOLE
0
POLYLINE
8
HOLE
66
1
10
0.000000
20
0.000000
30
0.000000
70
1
0
VERTEX
8
HOLE
10
168.250000
20
128.782378
30
0.000000
42
-1.000000
0
VERTEX
8
HOLE
10
170.250000
20
128.782378
30
0.000000
42
-1.000000
0
SEQEND
8
HOLE
0
POLYLINE
8
HOLE
66
1
10
0.000000
20
0.000000
30
0.000000
70
1
0
VERTEX
8
HOLE
10
171.750000
20
128.782378
30
0.000000
42
-1.000000
0
VERTEX
8
HOLE
10
173.750000
20
128.782378
30
0.000000
42
-1.000000
0
SEQEND
8
HOLE
0
POLYLINE
8
HOLE
66
1
10
0.000000
20
0.000000
30
0.000000
70
1
0
VERTEX
8
HOLE
10
175.250000
20
128.782378
30
0.000000
42
-1.000000
0
VERTEX
8
HOLE
10
177.250000
20
128.782378
30
0.000000
42
-1.000000
0
SEQEND
8
HOLE
0
POLYLINE
8
HOLE
66
1
10
0.000000
20
0.000000
30
0.000000
70
1
0
VERTEX
8
HOLE
10
178.750000
20
128.782378
30
0.000000
42
-1.000000
0
VERTEX
8
HOLE
10
180.750000
20
128.782378
30
0.000000
42
-1.000000
0
SEQEND
8
HOLE
0
POLYLINE
8
HOLE
66
1
10
0.000000
20
0.000000
30
0.000000
70
1
0
VERTEX
8
HOLE
10
182.250000
20
128.782378
30
0.000000
42
-1.000000
0
VERTEX
8
HOLE
10
184.250000
20
128.782378
30
0.000000
42
-1.000000
0
SEQEND
8
HOLE
0
POLYLINE
8
HOLE
66
1
10
0.000000
20
0.000000
30
0.000000
70
1
0
VERTEX
8
HOLE
10
117.500000
20
131.813467
30
0.000000
42
-1.000000
0
VERTEX
8
HOLE
10
119.500000
20
131.813467
30
0.000000
42
-1.000000
0
SEQEND
8
HOLE
0
POLYLINE
8
HOLE
66
1
10
0.000000
20
0.000000
30
0.000000
70
1
0
VERTEX
8
HOLE
10
121.000000
20
131.813467
30
0.000000
42
-1.000000
0
VERTEX
8
HOLE
10
123.000000
20
131.813467
30
0.000000
42
-1.000000
0
SEQEND
8
HOLE
0
POLYLINE
8
HOLE
66
1
10
0.000000
20
0.000000
30
0.000000
70
1
0
VERTEX
8
HOLE
10
124.500000
20
131.813467
30
0.000000
42
-1.000000
0
VERTEX
8
HOLE
10
126.500000
20
131.813467
30
0.000000
42
-1.000000
0
SEQEND
8
HOLE
0
POLYLINE
8
HOLE
66
1
10
0.000000
20
0.000000
30
0.000000
70
1
0
VERTEX
8
HOLE
10
128.000000
20
131.813467
30
0.000000
42
-1.000000
0
VERTEX
8
HOLE
10
130.000000
20
131.813467
30
0.000000
42
-1.000000
0
SEQEND
8
HOLE
0
POLYLINE
8
HOLE
66
1
10
0.000000
20
0.000000
30
0.000000
70
1
0
VERTEX
8
HOLE
10
131.500000
20
131.813467
30
0.000000
42
-1.000000
0
VERTEX
8
HOLE
10
133.500000
20
131.813467
30
0.000000
42
-1.000000
0
SEQEND
8
HOLE
0
POLYLINE
8
HOLE
66
1
10
0.000000
20
0.000000
30
0.000000
70
1
0
VERTEX
8
HOLE
10
135.000000
20
131.813467
30
0.000000
42
-1.000000
0
VERTEX
8
HOLE
10
137.000000
20
131.813467
30
0.000000
42
-1.000000
0
SEQEND
8
HOLE
0
POLYLINE
8
HOLE
66
1
10
0.000000
20
0.000000
30
0.000000
70
1
0
VERTEX
8
HOLE
10
138.500000
20
131.813467
30
0.000000
42
-1.000000
0
VERTEX
8
HOLE
10
140.500000
20
131.813467
30
0.000000
42
-1.000000
0
SEQEND
8
HOLE
0
POLYLINE
8
HOLE
66
1
10
0.000000
20
0.000000
30
0.000000
70
1
0
VERTEX
8
HOLE
10
142.000000
20
131.813467
30
0.000000
42
-1.000000
0
VERTEX
8
HOLE
10
144.000000
20
131.813467
30
0.000000
42
-1.000000
0
SEQEND
8
HOLE
0
POLYLINE
8
HOLE
66
1
10
0.000000
20
0.000000
30
0.000000
70
1
0
VERTEX
8
HOLE
10
145.500000
20
131.813467
30
0.000000
42
-1.000000
0
VERTEX
8
HOLE
10
147.500000
20
131.813467
30
0.000000
42
-1.000000
0
SEQEND
8
HOLE
0
POLYLINE
8
HOLE
66
1
10
0.000000
20
0.000000
30
0.000000
70
1
0
VERTEX
8
HOLE
10
149.000000
20
131.813467
30
0.000000
42
-1.000000
0
VERTEX
8
HOLE
10
151.000000
20
131.813467
30
0.000000
42
-1.000000
0
SEQEND
8
HOLE
0
POLYLINE
8
HOLE
66
1
10
0.000000
20
0.000000
30
0.000000
70
1
0
VERTEX
8
HOLE
10
152.500000
20
131.813467
30
0.000000
42
-1.000000
0
VERTEX
8
HOLE
10
154.500000
20
131.813467
30
0.000000
42
-1.000000
0
SEQEND
8
HOLE
0
POLYLINE
8
HOLE
66
1
10
0.000000
20
0.000000
30
0.000000
70
1
0
VERTEX
8
HOLE
10
156.000000
20
131.813467
30
0.000000
42
-1.000000
0
VERTEX
8
HOLE
10
158.000000
20
131.813467
30
0.000000
42
-1.000000
0
SEQEND
8
HOLE
0
POLYLINE
8
HOLE
66
1
10
0.000000
20
0.000000
30
0.000000
70
1
0
VERTEX
8
HOLE
10
159.500000
20
131.813467
30
0.000000
42
-1.000000
0
VERTEX
8
HOLE
10
161.500000
20
131.813467
30
0.000000
42
-1.000000
0
SEQEND
8
HOLE
0
POLYLINE
8
HOLE
66
1
10
0.000000
20
0.000000
30
0.000000
70
1
0
VERTEX
8
HOLE
10
163.000000
20
131.813467
30
0.000000
42
-1.000000
0
VERTEX
8
HOLE
10
165.000000
20
131.813467
30
0.000000
42
-1.000000
0
SEQEND
8
HOLE
0
POLYLINE
8
HOLE
66
1
10
0.000000
20
0.000000
30
0.000000
70
1
0
VERTEX
8
HOLE
10
166.500000
20
131.813467
30
0.000000
42
-1.000000
0
VERTEX
8
HOLE
10
168.500000
20
131.813467
30
0.000000
42
-1.000000
0
SEQEND
8
HOLE
0
POLYLINE
8
HOLE
66
1
10
0.000000
20
0.000000
30
0.000000
70
1
0
VERTEX
8
HOLE
10
170.000000
20
131.813467
30
0.000000
42
-1.000000
0
VERTEX
8
HOLE
10
172.000000
20
131.813467
30
0.000000
42
-1.000000
0
SEQEND
8
HOLE
0
POLYLINE
8
HOLE
66
1
10
0.000000
20
0.000000
30
0.000000
70
1
0
VERTEX
8
HOLE
10
173.500000
20
131.813467
30
0.000000
42
-1.000000
0
VERTEX
8
HOLE
10
175.500000
20
131.813467
30
0.000000
42
-1.000000
0
SEQEND
8
HOLE
0
POLYLINE
8
HOLE
66
1
10
0.000000
20
0.000000
30
0.000000
70
1
0
VERTEX
8
HOLE
10
177.000000
20
131.813467
30
0.000000
42
-1.000000
0
VERTEX
8
HOLE
10
179.000000
20
131.813467
30
0.000000
42
-1.000000
0
SEQEND
8
HOLE
0
POLYLINE
8
HOLE
66
1
10
0.000000
20
0.000000
30
0.000000
70
1
0
VERTEX
8
HOLE
10
180.500000
20
131.813467
30
0.000000
42
-1.000000
0
VERTEX
8
HOLE
10
182.500000
20
131.813467
30
0.000000
42
-1.000000
0
SEQEND
8
HOLE
0
POLYLINE
8
HOLE
66
1
10
0.000000
20
0.000000
30
0.000000
70
1
0
VERTEX
8
HOLE
10
119.250000
20
134.844555
30
0.000000
42
-1.000000
0
VERTEX
8
HOLE
10
121.250000
20
134.844555
30
0.000000
42
-1.000000
0
SEQEND
8
HOLE
0
POLYLINE
8
HOLE
66
1
10
0.000000
20
0.000000
30
0.000000
70
1
0
VERTEX
8
HOLE
10
122.750000
20
134.844555
30
0.000000
42
-1.000000
0
VERTEX
8
HOLE
10
124.750000
20
134.844555
30
0.000000
42
-1.000000
0
SEQEND
8
HOLE
0
POLYLINE
8
HOLE
66
1
10
0.000000
20
0.000000
30
0.000000
70
1
0
VERTEX
8
HOLE
10
126.250000
20
134.844555
30
0.000000
42
-1.000000
0
VERTEX
8
HOLE
10
128.250000
20
134.844555
30
0.000000
42
-1.000000
0
SEQEND
8
HOLE
0
POLYLINE
8
HOLE
66
1
10
0.000000
20
0.000000
30
0.000000
70
1
0
VERTEX
8
HOLE
10
129.750000
20
134.844555
30
0.000000
42
-1.000000
0
VERTEX
8
HOLE
10
131.750000
20
134.844555
30
0.000000
42
-1.000000
0
SEQEND
8
HOLE
0
POLYLINE
8
HOLE
66
1
10
0.000000
20
0.000000
30
0.000000
70
1
0
VERTEX
8
HOLE
10
133.250000
20
134.844555
30
0.000000
42
-1.000000
0
VERTEX
8
HOLE
10
135.250000
20
134.844555
30
0.000000
42
-1.000000
0
SEQEND
8
HOLE
0
POLYLINE
8
HOLE
66
1
10
0.000000
20
0.000000
30
0.000000
70
1
0
VERTEX
8
HOLE
10
136.750000
20
134.844555
30
0.000000
42
-1.000000
0
VERTEX
8
HOLE
10
138.750000
20
134.844555
30
0.000000
42
-1.000000
0
SEQEND
8
HOLE
0
POLYLINE
8
HOLE
66
1
10
0.000000
20
0.000000
30
0.000000
70
1
0
VERTEX
8
HOLE
10
140.250000
20
134.844555
30
0.000000
42
-1.000000
0
VERTEX
8
HOLE
10
142.250000
20
134.844555
30
0.000000
42
-1.000000
0
SEQEND
8
HOLE
0
POLYLINE
8
HOLE
66
1
10
0.000000
20
0.000000
30
0.000000
70
1
0
VERTEX
8
HOLE
10
143.750000
20
134.844555
30
0.000000
42
-1.000000
0
VERTEX
8
HOLE
10
145.750000
20
134.844555
30
0.000000
42
-1.000000
0
SEQEND
8
HOLE
0
POLYLINE
8
HOLE
66
1
10
0.000000
20
0.000000
30
0.000000
70
1
0
VERTEX
8
HOLE
10
147.250000
20
134.844555
30
0.000000
42
-1.000000
0
VERTEX
8
HOLE
10
149.250000
20
134.844555
30
0.000000
42
-1.000000
0
SEQEND
8
HOLE
0
POLYLINE
8
HOLE
66
1
10
0.000000
20
0.000000
30
0.000000
70
1
0
VERTEX
8
HOLE
10
150.750000
20
134.844555
30
0.000000
42
-1.000000
0
VERTEX
8
HOLE
10
152.750000
20
134.844555
30
0.000000
42
-1.000000
0
SEQEND
8
HOLE
0
POLYLINE
8
HOLE
66
1
10
0.000000
20
0.000000
30
0.000000
70
1
0
VERTEX
8
HOLE
10
154.250000
20
134.844555
30
0.000000
42
-1.000000
0
VERTEX
8
HOLE
10
156.250000
20
134.844555
30
0.000000
42
-1.000000
0
SEQEND
8
HOLE
0
POLYLINE
8
HOLE
66
1
10
0.000000
20
0.000000
30
0.000000
70
1
0
VERTEX
8
HOLE
10
157.750000
20
134.844555
30
0.000000
42
-1.000000
0
VERTEX
8
HOLE
10
159.750000
20
134.844555
30
0.000000
42
-1.000000
0
SEQEND
8
HOLE
0
POLYLINE
8
HOLE
66
1
10
0.000000
20
0.000000
30
0.000000
70
1
0
VERTEX
8
HOLE
10
161.250000
20
134.844555
30
0.000000
42
-1.000000
0
VERTEX
8
HOLE
10
163.250000
20
134.844555
30
0.000000
42
-1.000000
0
SEQEND
8
HOLE
0
POLYLINE
8
HOLE
66
1
10
0.000000
20
0.000000
30
0.000000
70
1
0
VERTEX
8
HOLE
10
164.750000
20
134.844555
30
0.000000
42
-1.000000
0
VERTEX
8
HOLE
10
166.750000
20
134.844555
30
0.000000
42
-1.000000
0
SEQEND
8
HOLE
0
POLYLINE
8
HOLE
66
1
10
0.000000
20
0.000000
30
0.000000
70
1
0
VERTEX
8
HOLE
10
168.250000
20
134.844555
30
0.000000
42
-1.000000
0
VERTEX
8
HOLE
10
170.250000
20
134.844555
30
0.000000
42
-1.000000
0
SEQEND
8
HOLE
0
POLYLINE
8
HOLE
66
1
10
0.000000
20
0.000000
30
0.000000
70
1
0
VERTEX
8
HOLE
10
171.750000
20
134.844555
30
0.000000
42
-1.000000
0
VERTEX
8
HOLE
10
173.750000
20
134.844555
30
0.000000
42
-1.000000
0
SEQEND
8
HOLE
0
POLYLINE
8
HOLE
66
1
10
0.000000
20
0.000000
30
0.000000
70
1
0
VERTEX
8
HOLE
10
175.250000
20
134.844555
30
0.000000
42
-1.000000
0
VERTEX
8
HOLE
10
177.250000
20
134.844555
30
0.000000
42
-1.000000
0
SEQEND
8
HOLE
0
POLYLINE
8
HOLE
66
1
10
0.000000
20
0.000000
30
0.000000
70
1
0
VERTEX
8
HOLE
10
178.750000
20
134.844555
30
0.000000
42
-1.000000
0
VERTEX
8
HOLE
10
180.750000
20
134.844555
30
0.000000
42
-1.000000
0
SEQEND
8
HOLE
0
POLYLINE
8
HOLE
66
1
10
0.000000
20
0.000000
30
0.000000
70
1
0
VERTEX
8
HOLE
10
182.250000
20
134.844555
30
0.000000
42
-1.000000
0
VERTEX
8
HOLE
10
184.250000
20
134.844555
30
0.000000
42
-1.000000
0
SEQEND
8
HOLE
0
POLYLINE
8
HOLE
66
1
10
0.000000
20
0.000000
30
0.000000
70
1
0
VERTEX
8
HOLE
10
117.500000
20
137.875644
30
0.000000
42
-1.000000
0
VERTEX
8
HOLE
10
119.500000
20
137.875644
30
0.000000
42
-1.000000
0
SEQEND
8
HOLE
0
POLYLINE
8
HOLE
66
1
10
0.000000
20
0.000000
30
0.000000
70
1
0
VERTEX
8
HOLE
10
121.000000
20
137.875644
30
0.000000
42
-1.000000
0
VERTEX
8
HOLE
10
123.000000
20
137.875644
30
0.000000
42
-1.000000
0
SEQEND
8
HOLE
0
POLYLINE
8
HOLE
66
1
10
0.000000
20
0.000000
30
0.000000
70
1
0
VERTEX
8
HOLE
10
124.500000
20
137.875644
30
0.000000
42
-1.000000
0
VERTEX
8
HOLE
10
126.500000
20
137.875644
30
0.000000
42
-1.000000
0
SEQEND
8
HOLE
0
POLYLINE
8
HOLE
66
1
10
0.000000
20
0.000000
30
0.000000
70
1
0
VERTEX
8
HOLE
10
128.000000
20
137.875644
30
0.000000
42
-1.000000
0
VERTEX
8
HOLE
10
130.000000
20
137.875644
30
0.000000
42
-1.000000
0
SEQEND
8
HOLE
0
POLYLINE
8
HOLE
66
1
10
0.000000
20
0.000000
30
0.000000
70
1
0
VERTEX
8
HOLE
10
131.500000
20
137.875644
30
0.000000
42
-1.000000
0
VERTEX
8
HOLE
10
133.500000
20
137.875644
30
0.000000
42
-1.000000
0
SEQEND
8
HOLE
0
POLYLINE
8
HOLE
66
1
10
0.000000
20
0.000000
30
0.000000
70
1
0
VERTEX
8
HOLE
10
135.000000
20
137.875644
30
0.000000
42
-1.000000
0
VERTEX
8
HOLE
10
137.000000
20
137.875644
30
0.000000
42
-1.000000
0
SEQEND
8
HOLE
0
POLYLINE
8
HOLE
66
1
10
0.000000
20
0.000000
30
0.000000
70
1
0
VERTEX
8
HOLE
10
138.500000
20
137.875644
30
0.000000
42
-1.000000
0
VERTEX
8
HOLE
10
140.500000
20
137.875644
30
0.000000
42
-1.000000
0
SEQEND
8
HOLE
0
POLYLINE
8
HOLE
66
1
10
0.000000
20
0.000000
30
0.000000
70
1
0
VERTEX
8
HOLE
10
142.000000
20
137.875644
30
0.000000
42
-1.000000
0
VERTEX
8
HOLE
10
144.000000
20
137.875644
30
0.000000
42
-1.000000
0
SEQEND
8
HOLE
0
POLYLINE
8
HOLE
66
1
10
0.000000
20
0.000000
30
0.000000
70
1
0
VERTEX
8
HOLE
10
145.500000
20
137.875644
30
0.000000
42
-1.000000
0
VERTEX
8
HOLE
10
147.500000
20
137.875644
30
0.000000
42
-1.000000
0
SEQEND
8
HOLE
0
POLYLINE
8
HOLE
66
1
10
0.000000
20
0.000000
30
0.000000
70
1
0
VERTEX
8
HOLE
10
149.000000
20
137.875644
30
0.000000
42
-1.000000
0
VERTEX
8
HOLE
10
151.000000
20
137.875644
30
0.000000
42
-1.000000
0
SEQEND
8
HOLE
0
POLYLINE
8
HOLE
66
1
10
0.000000
20
0.000000
30
0.000000
70
1
0
VERTEX
8
HOLE
10
152.500000
20
137.875644
30
0.000000
42
-1.000000
0
VERTEX
8
HOLE
10
154.500000
20
137.875644
30
0.000000
42
-1.000000
0
SEQEND
8
HOLE
0
POLYLINE
8
HOLE
66
1
10
0.000000
20
0.000000
30
0.000000
70
1
0
VERTEX
8
HOLE
10
156.000000
20
137.875644
30
0.000000
42
-1.000000
0
VERTEX
8
HOLE
10
158.000000
20
137.875644
30
0.000000
42
-1.000000
0
SEQEND
8
HOLE
0
POLYLINE
8
HOLE
66
1
10
0.000000
20
0.000000
30
0.000000
70
1
0
VERTEX
8
HOLE
10
159.500000
20
137.875644
30
0.000000
42
-1.000000
0
VERTEX
8
HOLE
10
161.500000
20
137.875644
30
0.000000
42
-1.000000
0
SEQEND
8
HOLE
0
POLYLINE
8
HOLE
66
1
10
0.000000
20
0.000000
30
0.000000
70
1
0
VERTEX
8
HOLE
10
163.000000
20
137.875644
30
0.000000
42
-1.000000
0
VERTEX
8
HOLE
10
165.000000
20
137.875644
30
0.000000
42
-1.000000
0
SEQEND
8
HOLE
0
POLYLINE
8
HOLE
66
1
10
0.000000
20
0.000000
30
0.000000
70
1
0
VERTEX
8
HOLE
10
166.500000
20
137.875644
30
0.000000
42
-1.000000
0
VERTEX
8
HOLE
10
168.500000
20
137.875644
30
0.000000
42
-1.000000
0
SEQEND
8
HOLE
0
POLYLINE
8
HOLE
66
1
10
0.000000
20
0.000000
30
0.000000
70
1
0
VERTEX
8
HOLE
10
170.000000
20
137.875644
30
0.000000
42
-1.000000
0
VERTEX
8
HOLE
10
172.000000
20
137.875644
30
0.000000
42
-1.000000
0
SEQEND
8
HOLE
0
POLYLINE
8
HOLE
66
1
10
0.000000
20
0.000000
30
0.000000
70
1
0
VERTEX
8
HOLE
10
173.500000
20
137.875644
30
0.000000
42
-1.000000
0
VERTEX
8
HOLE
10
175.500000
20
137.875644
30
0.000000
42
-1.000000
0
SEQEND
8
HOLE
0
POLYLINE
8
HOLE
66
1
10
0.000000
20
0.000000
30
0.000000
70
1
0
VERTEX
8
HOLE
10
177.000000
20
137.875644
30
0.000000
42
-1.000000
0
VERTEX
8
HOLE
10
179.000000
20
137.875644
30
0.000000
42
-1.000000
0
SEQEND
8
HOLE
0
POLYLINE
8
HOLE
66
1
10
0.000000
20
0.000000
30
0.000000
70
1
0
VERTEX
8
HOLE
10
180.500000
20
137.875644
30
0.000000
42
-1.000000
0
VERTEX
8
HOLE
10
182.500000
20
137.875644
30
0.000000
42
-1.000000
0
SEQEND
8
HOLE
0
POLYLINE
8
HOLE
66
1
10
0.000000
20
0.000000
30
0.000000
70
1
0
VERTEX
8
HOLE
10
119.250000
20
140.906733
30
0.000000
42
-1.000000
0
VERTEX
8
HOLE
10
121.250000
20
140.906733
30
0.000000
42
-1.000000
0
SEQEND
8
HOLE
0
POLYLINE
8
HOLE
66
1
10
0.000000
20
0.000000
30
0.000000
70
1
0
VERTEX
8
HOLE
10
122.750000
20
140.906733
30
0.000000
42
-1.000000
0
VERTEX
8
HOLE
10
124.750000
20
140.906733
30
0.000000
42
-1.000000
0
SEQEND
8
HOLE
0
POLYLINE
8
HOLE
66
1
10
0.000000
20
0.000000
30
0.000000
70
1
0
VERTEX
8
HOLE
10
126.250000
20
140.906733
30
0.000000
42
-1.000000
0
VERTEX
8
HOLE
10
128.250000
20
140.906733
30
0.000000
42
-1.000000
0
SEQEND
8
HOLE
0
POLYLINE
8
HOLE
66
1
10
0.000000
20
0.000000
30
0.000000
70
1
0
VERTEX
8
HOLE
10
129.750000
20
140.906733
30
0.000000
42
-1.000000
0
VERTEX
8
HOLE
10
131.750000
20
140.906733
30
0.000000
42
-1.000000
0
SEQEND
8
HOLE
0
POLYLINE
8
HOLE
66
1
10
0.000000
20
0.000000
30
0.000000
70
1
0
VERTEX
8
HOLE
10
133.250000
20
140.906733
30
0.000000
42
-1.000000
0
VERTEX
8
HOLE
10
135.250000
20
140.906733
30
0.000000
42
-1.000000
0
SEQEND
8
HOLE
0
POLYLINE
8
HOLE
66
1
10
0.000000
20
0.000000
30
0.000000
70
1
0
VERTEX
8
HOLE
10
136.750000
20
140.906733
30
0.000000
42
-1.000000
0
VERTEX
8
HOLE
10
138.750000
20
140.906733
30
0.000000
42
-1.000000
0
SEQEND
8
HOLE
0
POLYLINE
8
HOLE
66
1
10
0.000000
20
0.000000
30
0.000000
70
1
0
VERTEX
8
HOLE
10
140.250000
20
140.906733
30
0.000000
42
-1.000000
0
VERTEX
8
HOLE
10
142.250000
20
140.906733
30
0.000000
42
-1.000000
0
SEQEND
8
HOLE
0
POLYLINE
8
HOLE
66
1
10
0.000000
20
0.000000
30
0.000000
70
1
0
VERTEX
8
HOLE
10
143.750000
20
140.906733
30
0.000000
42
-1.000000
0
VERTEX
8
HOLE
10
145.750000
20
140.906733
30
0.000000
42
-1.000000
0
SEQEND
8
HOLE
0
POLYLINE
8
HOLE
66
1
10
0.000000
20
0.000000
30
0.000000
70
1
0
VERTEX
8
HOLE
10
147.250000
20
140.906733
30
0.000000
42
-1.000000
0
VERTEX
8
HOLE
10
149.250000
20
140.906733
30
0.000000
42
-1.000000
0
SEQEND
8
HOLE
0
POLYLINE
8
HOLE
66
1
10
0.000000
20
0.000000
30
0.000000
70
1
0
VERTEX
8
HOLE
10
150.750000
20
140.906733
30
0.000000
42
-1.000000
0
VERTEX
8
HOLE
10
152.750000
20
140.906733
30
0.000000
42
-1.000000
0
SEQEND
8
HOLE
0
POLYLINE
8
HOLE
66
1
10
0.000000
20
0.000000
30
0.000000
70
1
0
VERTEX
8
HOLE
10
154.250000
20
140.906733
30
0.000000
42
-1.000000
0
VERTEX
8
HOLE
10
156.250000
20
140.906733
30
0.000000
42
-1.000000
0
SEQEND
8
HOLE
0
POLYLINE
8
HOLE
66
1
10
0.000000
20
0.000000
30
0.000000
70
1
0
VERTEX
8
HOLE
10
157.750000
20
140.906733
30
0.000000
42
-1.000000
0
VERTEX
8
HOLE
10
159.750000
20
140.906733
30
0.000000
42
-1.000000
0
SEQEND
8
HOLE
0
POLYLINE
8
HOLE
66
1
10
0.000000
20
0.000000
30
0.000000
70
1
0
VERTEX
8
HOLE
10
161.250000
20
140.906733
30
0.000000
42
-1.000000
0
VERTEX
8
HOLE
10
163.250000
20
140.906733
30
0.000000
42
-1.000000
0
SEQEND
8
HOLE
0
POLYLINE
8
HOLE
66
1
10
0.000000
20
0.000000
30
0.000000
70
1
0
VERTEX
8
HOLE
10
164.750000
20
140.906733
30
0.000000
42
-1.000000
0
VERTEX
8
HOLE
10
166.750000
20
140.906733
30
0.000000
42
-1.000000
0
SEQEND
8
HOLE
0
POLYLINE
8
HOLE
66
1
10
0.000000
20
0.000000
30
0.000000
70
1
0
VERTEX
8
HOLE
10
168.250000
20
140.906733
30
0.000000
42
-1.000000
0
VERTEX
8
HOLE
10
170.250000
20
140.906733
30
0.000000
42
-1.000000
0
SEQEND
8
HOLE
0
POLYLINE
8
HOLE
66
1
10
0.000000
20
0.000000
30
0.000000
70
1
0
VERTEX
8
HOLE
10
171.750000
20
140.906733
30
0.000000
42
-1.000000
0
VERTEX
8
HOLE
10
173.750000
20
140.906733
30
0.000000
42
-1.000000
0
SEQEND
8
HOLE
0
POLYLINE
8
HOLE
66
1
10
0.000000
20
0.000000
30
0.000000
70
1
0
VERTEX
8
HOLE
10
175.250000
20
140.906733
30
0.000000
42
-1.000000
0
VERTEX
8
HOLE
10
177.250000
20
140.906733
30
0.000000
42
-1.000000
0
SEQEND
8
HOLE
0
POLYLINE
8
HOLE
66
1
10
0.000000
20
0.000000
30
0.000000
70
1
0
VERTEX
8
HOLE
10
178.750000
20
140.906733
30
0.000000
42
-1.000000
0
VERTEX
8
HOLE
10
180.750000
20
140.906733
30
0.000000
42
-1.000000
0
SEQEND
8
HOLE
0
POLYLINE
8
HOLE
66
1
10
0.000000
20
0.000000
30
0.000000
70
1
0
VERTEX
8
HOLE
10
182.250000
20
140.906733
30
0.000000
42
-1.000000
0
VERTEX
8
HOLE
10
184.250000
20
140.906733
30
0.000000
42
-1.000000
0
SEQEND
8
HOLE
0
POLYLINE
8
HOLE
66
1
10
0.000000
20
0.000000
30
0.000000
70
1
0
VERTEX
8
HOLE
10
117.500000
20
143.937822
30
0.000000
42
-1.000000
0
VERTEX
8
HOLE
10
119.500000
20
143.937822
30
0.000000
42
-1.000000
0
SEQEND
8
HOLE
0
POLYLINE
8
HOLE
66
1
10
0.000000
20
0.000000
30
0.000000
70
1
0
VERTEX
8
HOLE
10
121.000000
20
143.937822
30
0.000000
42
-1.000000
0
VERTEX
8
HOLE
10
123.000000
20
143.937822
30
0.000000
42
-1.000000
0
SEQEND
8
HOLE
0
POLYLINE
8
HOLE
66
1
10
0.000000
20
0.000000
30
0.000000
70
1
0
VERTEX
8
HOLE
10
124.500000
20
143.937822
30
0.000000
42
-1.000000
0
VERTEX
8
HOLE
10
126.500000
20
143.937822
30
0.000000
42
-1.000000
0
SEQEND
8
HOLE
0
POLYLINE
8
HOLE
66
1
10
0.000000
20
0.000000
30
0.000000
70
1
0
VERTEX
8
HOLE
10
128.000000
20
143.937822
30
0.000000
42
-1.000000
0
VERTEX
8
HOLE
10
130.000000
20
143.937822
30
0.000000
42
-1.000000
0
SEQEND
8
HOLE
0
POLYLINE
8
HOLE
66
1
10
0.000000
20
0.000000
30
0.000000
70
1
0
VERTEX
8
HOLE
10
131.500000
20
143.937822
30
0.000000
42
-1.000000
0
VERTEX
8
HOLE
10
133.500000
20
143.937822
30
0.000000
42
-1.000000
0
SEQEND
8
HOLE
0
POLYLINE
8
HOLE
66
1
10
0.000000
20
0.000000
30
0.000000
70
1
0
VERTEX
8
HOLE
10
135.000000
20
143.937822
30
0.000000
42
-1.000000
0
VERTEX
8
HOLE
10
137.000000
20
143.937822
30
0.000000
42
-1.000000
0
SEQEND
8
HOLE
0
POLYLINE
8
HOLE
66
1
10
0.000000
20
0.000000
30
0.000000
70
1
0
VERTEX
8
HOLE
10
138.500000
20
143.937822
30
0.000000
42
-1.000000
0
VERTEX
8
HOLE
10
140.500000
20
143.937822
30
0.000000
42
-1.000000
0
SEQEND
8
HOLE
0
POLYLINE
8
HOLE
66
1
10
0.000000
20
0.000000
30
0.000000
70
1
0
VERTEX
8
HOLE
10
142.000000
20
143.937822
30
0.000000
42
-1.000000
0
VERTEX
8
HOLE
10
144.000000
20
143.937822
30
0.000000
42
-1.000000
0
SEQEND
8
HOLE
0
POLYLINE
8
HOLE
66
1
10
0.000000
20
0.000000
30
0.000000
70
1
0
VERTEX
8
HOLE
10
145.500000
20
143.937822
30
0.000000
42
-1.000000
0
VERTEX
8
HOLE
10
147.500000
20
143.937822
30
0.000000
42
-1.000000
0
SEQEND
8
HOLE
0
POLYLINE
8
HOLE
66
1
10
0.000000
20
0.000000
30
0.000000
70
1
0
VERTEX
8
HOLE
10
149.000000
20
143.937822
30
0.000000
42
-1.000000
0
VERTEX
8
HOLE
10
151.000000
20
143.937822
30
0.000000
42
-1.000000
0
SEQEND
8
HOLE
0
POLYLINE
8
HOLE
66
1
10
0.000000
20
0.000000
30
0.000000
70
1
0
VERTEX
8
HOLE
10
152.500000
20
143.937822
30
0.000000
42
-1.000000
0
VERTEX
8
HOLE
10
154.500000
20
143.937822
30
0.000000
42
-1.000000
0
SEQEND
8
HOLE
0
POLYLINE
8
HOLE
66
1
10
0.000000
20
0.000000
30
0.000000
70
1
0
VERTEX
8
HOLE
10
156.000000
20
143.937822
30
0.000000
42
-1.000000
0
VERTEX
8
HOLE
10
158.000000
20
143.937822
30
0.000000
42
-1.000000
0
SEQEND
8
HOLE
0
POLYLINE
8
HOLE
66
1
10
0.000000
20
0.000000
30
0.000000
70
1
0
VERTEX
8
HOLE
10
159.500000
20
143.937822
30
0.000000
42
-1.000000
0
VERTEX
8
HOLE
10
161.500000
20
143.937822
30
0.000000
42
-1.000000
0
SEQEND
8
HOLE
0
POLYLINE
8
HOLE
66
1
10
0.000000
20
0.000000
30
0.000000
70
1
0
VERTEX
8
HOLE
10
163.000000
20
143.937822
30
0.000000
42
-1.000000
0
VERTEX
8
HOLE
10
165.000000
20
143.937822
30
0.000000
42
-1.000000
0
SEQEND
8
HOLE
0
POLYLINE
8
HOLE
66
1
10
0.000000
20
0.000000
30
0.000000
70
1
0
VERTEX
8
HOLE
10
166.500000
20
143.937822
30
0.000000
42
-1.000000
0
VERTEX
8
HOLE
10
168.500000
20
143.937822
30
0.000000
42
-1.000000
0
SEQEND
8
HOLE
0
POLYLINE
8
HOLE
66
1
10
0.000000
20
0.000000
30
0.000000
70
1
0
VERTEX
8
HOLE
10
170.000000
20
143.937822
30
0.000000
42
-1.000000
0
VERTEX
8
HOLE
10
172.000000
20
143.937822
30
0.000000
42
-1.000000
0
SEQEND
8
HOLE
0
POLYLINE
8
HOLE
66
1
10
0.000000
20
0.000000
30
0.000000
70
1
0
VERTEX
8
HOLE
10
173.500000
20
143.937822
30
0.000000
42
-1.000000
0
VERTEX
8
HOLE
10
175.500000
20
143.937822
30
0.000000
42
-1.000000
0
SEQEND
8
HOLE
0
POLYLINE
8
HOLE
66
1
10
0.000000
20
0.000000
30
0.000000
70
1
0
VERTEX
8
HOLE
10
177.000000
20
143.937822
30
0.000000
42
-1.000000
0
VERTEX
8
HOLE
10
179.000000
20
143.937822
30
0.000000
42
-1.000000
0
SEQEND
8
HOLE
0
POLYLINE
8
HOLE
66
1
10
0.000000
20
0.000000
30
0.000000
70
1
0
VERTEX
8
HOLE
10
180.500000
20
143.937822
30
0.000000
42
-1.000000
0
VERTEX
8
HOLE
10
182.500000
20
143.937822
30
0.000000
42
-1.000000
0
SEQEND
8
HOLE
0
POLYLINE
8
HOLE
66
1
10
0.000000
20
0.000000
30
0.000000
70
1
0
VERTEX
8
HOLE
10
119.250000
20
146.968911
30
0.000000
42
-1.000000
0
VERTEX
8
HOLE
10
121.250000
20
146.968911
30
0.000000
42
-1.000000
0
SEQEND
8
HOLE
0
POLYLINE
8
HOLE
66
1
10
0.000000
20
0.000000
30
0.000000
70
1
0
VERTEX
8
HOLE
10
122.750000
20
146.968911
30
0.000000
42
-1.000000
0
VERTEX
8
HOLE
10
124.750000
20
146.968911
30
0.000000
42
-1.000000
0
SEQEND
8
HOLE
0
POLYLINE
8
HOLE
66
1
10
0.000000
20
0.000000
30
0.000000
70
1
0
VERTEX
8
HOLE
10
126.250000
20
146.968911
30
0.000000
42
-1.000000
0
VERTEX
8
HOLE
10
128.250000
20
146.968911
30
0.000000
42
-1.000000
0
SEQEND
8
HOLE
0
POLYLINE
8
HOLE
66
1
10
0.000000
20
0.000000
30
0.000000
70
1
0
VERTEX
8
HOLE
10
129.750000
20
146.968911
30
0.000000
42
-1.000000
0
VERTEX
8
HOLE
10
131.750000
20
146.968911
30
0.000000
42
-1.000000
0
SEQEND
8
HOLE
0
POLYLINE
8
HOLE
66
1
10
0.000000
20
0.000000
30
0.000000
70
1
0
VERTEX
8
HOLE
10
133.250000
20
146.968911
30
0.000000
42
-1.000000
0
VERTEX
8
HOLE
10
135.250000
20
146.968911
30
0.000000
42
-1.000000
0
SEQEND
8
HOLE
0
POLYLINE
8
HOLE
66
1
10
0.000000
20
0.000000
30
0.000000
70
1
0
VERTEX
8
HOLE
10
136.750000
20
146.968911
30
0.000000
42
-1.000000
0
VERTEX
8
HOLE
10
138.750000
20
146.968911
30
0.000000
42
-1.000000
0
SEQEND
8
HOLE
0
POLYLINE
8
HOLE
66
1
10
0.000000
20
0.000000
30
0.000000
70
1
0
VERTEX
8
HOLE
10
140.250000
20
146.968911
30
0.000000
42
-1.000000
0
VERTEX
8
HOLE
10
142.250000
20
146.968911
30
0.000000
42
-1.000000
0
SEQEND
8
HOLE
0
POLYLINE
8
HOLE
66
1
10
0.000000
20
0.000000
30
0.000000
70
1
0
VERTEX
8
HOLE
10
143.750000
20
146.968911
30
0.000000
42
-1.000000
0
VERTEX
8
HOLE
10
145.750000
20
146.968911
30
0.000000
42
-1.000000
0
SEQEND
8
HOLE
0
POLYLINE
8
HOLE
66
1
10
0.000000
20
0.000000
30
0.000000
70
1
0
VERTEX
8
HOLE
10
147.250000
20
146.968911
30
0.000000
42
-1.000000
0
VERTEX
8
HOLE
10
149.250000
20
146.968911
30
0.000000
42
-1.000000
0
SEQEND
8
HOLE
0
POLYLINE
8
HOLE
66
1
10
0.000000
20
0.000000
30
0.000000
70
1
0
VERTEX
8
HOLE
10
150.750000
20
146.968911
30
0.000000
42
-1.000000
0
VERTEX
8
HOLE
10
152.750000
20
146.968911
30
0.000000
42
-1.000000
0
SEQEND
8
HOLE
0
POLYLINE
8
HOLE
66
1
10
0.000000
20
0.000000
30
0.000000
70
1
0
VERTEX
8
HOLE
10
154.250000
20
146.968911
30
0.000000
42
-1.000000
0
VERTEX
8
HOLE
10
156.250000
20
146.968911
30
0.000000
42
-1.000000
0
SEQEND
8
HOLE
0
POLYLINE
8
HOLE
66
1
10
0.000000
20
0.000000
30
0.000000
70
1
0
VERTEX
8
HOLE
10
157.750000
20
146.968911
30
0.000000
42
-1.000000
0
VERTEX
8
HOLE
10
159.750000
20
146.968911
30
0.000000
42
-1.000000
0
SEQEND
8
HOLE
0
POLYLINE
8
HOLE
66
1
10
0.000000
20
0.000000
30
0.000000
70
1
0
VERTEX
8
HOLE
10
161.250000
20
146.968911
30
0.000000
42
-1.000000
0
VERTEX
8
HOLE
10
163.250000
20
146.968911
30
0.000000
42
-1.000000
0
SEQEND
8
HOLE
0
POLYLINE
8
HOLE
66
1
10
0.000000
20
0.000000
30
0.000000
70
1
0
VERTEX
8
HOLE
10
164.750000
20
146.968911
30
0.000000
42
-1.000000
0
VERTEX
8
HOLE
10
166.750000
20
146.968911
30
0.000000
42
-1.000000
0
SEQEND
8
HOLE
0
POLYLINE
8
HOLE
66
1
10
0.000000
20
0.000000
30
0.000000
70
1
0
VERTEX
8
HOLE
10
168.250000
20
146.968911
30
0.000000
42
-1.000000
0
VERTEX
8
HOLE
10
170.250000
20
146.968911
30
0.000000
42
-1.000000
0
SEQEND
8
HOLE
0
POLYLINE
8
HOLE
66
1
10
0.000000
20
0.000000
30
0.000000
70
1
0
VERTEX
8
HOLE
10
171.750000
20
146.968911
30
0.000000
42
-1.000000
0
VERTEX
8
HOLE
10
173.750000
20
146.968911
30
0.000000
42
-1.000000
0
SEQEND
8
HOLE
0
POLYLINE
8
HOLE
66
1
10
0.000000
20
0.000000
30
0.000000
70
1
0
VERTEX
8
HOLE
10
175.250000
20
146.968911
30
0.000000
42
-1.000000
0
VERTEX
8
HOLE
10
177.250000
20
146.968911
30
0.000000
42
-1.000000
0
SEQEND
8
HOLE
0
POLYLINE
8
HOLE
66
1
10
0.000000
20
0.000000
30
0.000000
70
1
0
VERTEX
8
HOLE
10
178.750000
20
146.968911
30
0.000000
42
-1.000000
0
VERTEX
8
HOLE
10
180.750000
20
146.968911
30
0.000000
42
-1.000000
0
SEQEND
8
HOLE
0
POLYLINE
8
HOLE
66
1
10
0.000000
20
0.000000
30
0.000000
70
1
0
VERTEX
8
HOLE
10
182.250000
20
146.968911
30
0.000000
42
-1.000000
0
VERTEX
8
HOLE
10
184.250000
20
146.968911
30
0.000000
42
-1.000000
0
SEQEND
8
HOLE
0
POLYLINE
8
HOLE
66
1
10
0.000000
20
0.000000
30
0.000000
70
1
0
VERTEX
8
HOLE
10
117.500000
20
150.000000
30
0.000000
42
-1.000000
0
VERTEX
8
HOLE
10
119.500000
20
150.000000
30
0.000000
42
-1.000000
0
SEQEND
8
HOLE
0
POLYLINE
8
HOLE
66
1
10
0.000000
20
0.000000
30
0.000000
70
1
0
VERTEX
8
HOLE
10
121.000000
20
150.000000
30
0.000000
42
-1.000000
0
VERTEX
8
HOLE
10
123.000000
20
150.000000
30
0.000000
42
-1.000000
0
SEQEND
8
HOLE
0
POLYLINE
8
HOLE
66
1
10
0.000000
20
0.000000
30
0.000000
70
1
0
VERTEX
8
HOLE
10
124.500000
20
150.000000
30
0.000000
42
-1.000000
0
VERTEX
8
HOLE
10
126.500000
20
150.000000
30
0.000000
42
-1.000000
0
SEQEND
8
HOLE
0
POLYLINE
8
HOLE
66
1
10
0.000000
20
0.000000
30
0.000000
70
1
0
VERTEX
8
HOLE
10
128.000000
20
150.000000
30
0.000000
42
-1.000000
0
VERTEX
8
HOLE
10
130.000000
20
150.000000
30
0.000000
42
-1.000000
0
SEQEND
8
HOLE
0
POLYLINE
8
HOLE
66
1
10
0.000000
20
0.000000
30
0.000000
70
1
0
VERTEX
8
HOLE
10
131.500000
20
150.000000
30
0.000000
42
-1.000000
0
VERTEX
8
HOLE
10
133.500000
20
150.000000
30
0.000000
42
-1.000000
0
SEQEND
8
HOLE
0
POLYLINE
8
HOLE
66
1
10
0.000000
20
0.000000
30
0.000000
70
1
0
VERTEX
8
HOLE
10
135.000000
20
150.000000
30
0.000000
42
-1.000000
0
VERTEX
8
HOLE
10
137.000000
20
150.000000
30
0.000000
42
-1.000000
0
SEQEND
8
HOLE
0
POLYLINE
8
HOLE
66
1
10
0.000000
20
0.000000
30
0.000000
70
1
0
VERTEX
8
HOLE
10
138.500000
20
150.000000
30
0.000000
42
-1.000000
0
VERTEX
8
HOLE
10
140.500000
20
150.000000
30
0.000000
42
-1.000000
0
SEQEND
8
HOLE
0
POLYLINE
8
HOLE
66
1
10
0.000000
20
0.000000
30
0.000000
70
1
0
VERTEX
8
HOLE
10
142.000000
20
150.000000
30
0.000000
42
-1.000000
0
VERTEX
8
HOLE
10
144.000000
20
150.000000
30
0.000000
42
-1.000000
0
SEQEND
8
HOLE
0
POLYLINE
8
HOLE
66
1
10
0.000000
20
0.000000
30
0.000000
70
1
0
VERTEX
8
HOLE
10
145.500000
20
150.000000
30
0.000000
42
-1.000000
0
VERTEX
8
HOLE
10
147.500000
20
150.000000
30
0.000000
42
-1.000000
0
SEQEND
8
HOLE
0
POLYLINE
8
HOLE
66
1
10
0.000000
20
0.000000
30
0.000000
70
1
0
VERTEX
8
HOLE
10
149.000000
20
150.000000
30
0.000000
42
-1.000000
0
VERTEX
8
HOLE
10
151.000000
20
150.000000
30
0.000000
42
-1.000000
0
SEQEND
8
HOLE
0
POLYLINE
8
HOLE
66
1
10
0.000000
20
0.000000
30
0.000000
70
1
0
VERTEX
8
HOLE
10
152.500000
20
150.000000
30
0.000000
42
-1.000000
0
VERTEX
8
HOLE
10
154.500000
20
150.000000
30
0.000000
42
-1.000000
0
SEQEND
8
HOLE
0
POLYLINE
8
HOLE
66
1
10
0.000000
20
0.000000
30
0.000000
70
1
0
VERTEX
8
HOLE
10
156.000000
20
150.000000
30
0.000000
42
-1.000000
0
VERTEX
8
HOLE
10
158.000000
20
150.000000
30
0.000000
42
-1.000000
0
SEQEND
8
HOLE
0
POLYLINE
8
HOLE
66
1
10
0.000000
20
0.000000
30
0.000000
70
1
0
VERTEX
8
HOLE
10
159.500000
20
150.000000
30
0.000000
42
-1.000000
0
VERTEX
8
HOLE
10
161.500000
20
150.000000
30
0.000000
42
-1.000000
0
SEQEND
8
HOLE
0
POLYLINE
8
HOLE
66
1
10
0.000000
20
0.000000
30
0.000000
70
1
0
VERTEX
8
HOLE
10
163.000000
20
150.000000
30
0.000000
42
-1.000000
0
VERTEX
8
HOLE
10
165.000000
20
150.000000
30
0.000000
42
-1.000000
0
SEQEND
8
HOLE
0
POLYLINE
8
HOLE
66
1
10
0.000000
20
0.000000
30
0.000000
70
1
0
VERTEX
8
HOLE
10
166.500000
20
150.000000
30
0.000000
42
-1.000000
0
VERTEX
8
HOLE
10
168.500000
20
150.000000
30
0.000000
42
-1.000000
0
SEQEND
8
HOLE
0
POLYLINE
8
HOLE
66
1
10
0.000000
20
0.000000
30
0.000000
70
1
0
VERTEX
8
HOLE
10
170.000000
20
150.000000
30
0.000000
42
-1.000000
0
VERTEX
8
HOLE
10
172.000000
20
150.000000
30
0.000000
42
-1.000000
0
SEQEND
8
HOLE
0
POLYLINE
8
HOLE
66
1
10
0.000000
20
0.000000
30
0.000000
70
1
0
VERTEX
8
HOLE
10
173.500000
20
150.000000
30
0.000000
42
-1.000000
0
VERTEX
8
HOLE
10
175.500000
20
150.000000
30
0.000000
42
-1.000000
0
SEQEND
8
HOLE
0
POLYLINE
8
HOLE
66
1
10
0.000000
20
0.000000
30
0.000000
70
1
0
VERTEX
8
HOLE
10
177.000000
20
150.000000
30
0.000000
42
-1.000000
0
VERTEX
8
HOLE
10
179.000000
20
150.000000
30
0.000000
42
-1.000000
0
SEQEND
8
HOLE
0
POLYLINE
8
HOLE
66
1
10
0.000000
20
0.000000
30
0.000000
70
1
0
VERTEX
8
HOLE
10
180.500000
20
150.000000
30
0.000000
42
-1.000000
0
VERTEX
8
HOLE
10
182.500000
20
150.000000
30
0.000000
42
-1.000000
0
SEQEND
8
HOLE
0
POLYLINE
8
HOLE
66
1
10
0.000000
20
0.000000
30
0.000000
70
1
0
VERTEX
8
HOLE
10
119.250000
20
153.031089
30
0.000000
42
-1.000000
0
VERTEX
8
HOLE
10
121.250000
20
153.031089
30
0.000000
42
-1.000000
0
SEQEND
8
HOLE
0
POLYLINE
8
HOLE
66
1
10
0.000000
20
0.000000
30
0.000000
70
1
0
VERTEX
8
HOLE
10
122.750000
20
153.031089
30
0.000000
42
-1.000000
0
VERTEX
8
HOLE
10
124.750000
20
153.031089
30
0.000000
42
-1.000000
0
SEQEND
8
HOLE
0
POLYLINE
8
HOLE
66
1
10
0.000000
20
0.000000
30
0.000000
70
1
0
VERTEX
8
HOLE
10
126.250000
20
153.031089
30
0.000000
42
-1.000000
0
VERTEX
8
HOLE
10
128.250000
20
153.031089
30
0.000000
42
-1.000000
0
SEQEND
8
HOLE
0
POLYLINE
8
HOLE
66
1
10
0.000000
20
0.000000
30
0.000000
70
1
0
VERTEX
8
HOLE
10
129.750000
20
153.031089
30
0.000000
42
-1.000000
0
VERTEX
8
HOLE
10
131.750000
20
153.031089
30
0.000000
42
-1.000000
0
SEQEND
8
HOLE
0
POLYLINE
8
HOLE
66
1
10
0.000000
20
0.000000
30
0.000000
70
1
0
VERTEX
8
HOLE
10
133.250000
20
153.031089
30
0.000000
42
-1.000000
0
VERTEX
8
HOLE
10
135.250000
20
153.031089
30
0.000000
42
-1.000000
0
SEQEND
8
HOLE
0
POLYLINE
8
HOLE
66
1
10
0.000000
20
0.000000
30
0.000000
70
1
0
VERTEX
8
HOLE
10
136.750000
20
153.031089
30
0.000000
42
-1.000000
0
VERTEX
8
HOLE
10
138.750000
20
153.031089
30
0.000000
42
-1.000000
0
SEQEND
8
HOLE
0
POLYLINE
8
HOLE
66
1
10
0.000000
20
0.000000
30
0.000000
70
1
0
VERTEX
8
HOLE
10
140.250000
20
153.031089
30
0.000000
42
-1.000000
0
VERTEX
8
HOLE
10
142.250000
20
153.031089
30
0.000000
42
-1.000000
0
SEQEND
8
HOLE
0
POLYLINE
8
HOLE
66
1
10
0.000000
20
0.000000
30
0.000000
70
1
0
VERTEX
8
HOLE
10
143.750000
20
153.031089
30
0.000000
42
-1.000000
0
VERTEX
8
HOLE
10
145.750000
20
153.031089
30
0.000000
42
-1.000000
0
SEQEND
8
HOLE
0
POLYLINE
8
HOLE
66
1
10
0.000000
20
0.000000
30
0.000000
70
1
0
VERTEX
8
HOLE
10
147.250000
20
153.031089
30
0.000000
42
-1.000000
0
VERTEX
8
HOLE
10
149.250000
20
153.031089
30
0.000000
42
-1.000000
0
SEQEND
8
HOLE
0
POLYLINE
8
HOLE
66
1
10
0.000000
20
0.000000
30
0.000000
70
1
0
VERTEX
8
HOLE
10
150.750000
20
153.031089
30
0.000000
42
-1.000000
0
VERTEX
8
HOLE
10
152.750000
20
153.031089
30
0.000000
42
-1.000000
0
SEQEND
8
HOLE
0
POLYLINE
8
HOLE
66
1
10
0.000000
20
0.000000
30
0.000000
70
1
0
VERTEX
8
HOLE
10
154.250000
20
153.031089
30
0.000000
42
-1.000000
0
VERTEX
8
HOLE
10
156.250000
20
153.031089
30
0.000000
42
-1.000000
0
SEQEND
8
HOLE
0
POLYLINE
8
HOLE
66
1
10
0.000000
20
0.000000
30
0.000000
70
1
0
VERTEX
8
HOLE
10
157.750000
20
153.031089
30
0.000000
42
-1.000000
0
VERTEX
8
HOLE
10
159.750000
20
153.031089
30
0.000000
42
-1.000000
0
SEQEND
8
HOLE
0
POLYLINE
8
HOLE
66
1
10
0.000000
20
0.000000
30
0.000000
70
1
0
VERTEX
8
HOLE
10
161.250000
20
153.031089
30
0.000000
42
-1.000000
0
VERTEX
8
HOLE
10
163.250000
20
153.031089
30
0.000000
42
-1.000000
0
SEQEND
8
HOLE
0
POLYLINE
8
HOLE
66
1
10
0.000000
20
0.000000
30
0.000000
70
1
0
VERTEX
8
HOLE
10
164.750000
20
153.031089
30
0.000000
42
-1.000000
0
VERTEX
8
HOLE
10
166.750000
20
153.031089
30
0.000000
42
-1.000000
0
SEQEND
8
HOLE
0
POLYLINE
8
HOLE
66
1
10
0.000000
20
0.000000
30
0.000000
70
1
0
VERTEX
8
HOLE
10
168.250000
20
153.031089
30
0.000000
42
-1.000000
0
VERTEX
8
HOLE
10
170.250000
20
153.031089
30
0.000000
42
-1.000000
0
SEQEND
8
HOLE
0
POLYLINE
8
HOLE
66
1
10
0.000000
20
0.000000
30
0.000000
70
1
0
VERTEX
8
HOLE
10
171.750000
20
153.031089
30
0.000000
42
-1.000000
0
VERTEX
8
HOLE
10
173.750000
20
153.031089
30
0.000000
42
-1.000000
0
SEQEND
8
HOLE
0
POLYLINE
8
HOLE
66
1
10
0.000000
20
0.000000
30
0.000000
70
1
0
VERTEX
8
HOLE
10
175.250000
20
153.031089
30
0.000000
42
-1.000000
0
VERTEX
8
HOLE
10
177.250000
20
153.031089
30
0.000000
42
-1.000000
0
SEQEND
8
HOLE
0
POLYLINE
8
HOLE
66
1
10
0.000000
20
0.000000
30
0.000000
70
1
0
VERTEX
8
HOLE
10
178.750000
20
153.031089
30
0.000000
42
-1.000000
0
VERTEX
8
HOLE
10
180.750000
20
153.031089
30
0.000000
42
-1.000000
0
SEQEND
8
HOLE
0
POLYLINE
8
HOLE
66
1
10
0.000000
20
0.000000
30
0.000000
70
1
0
VERTEX
8
HOLE
10
182.250000
20
153.031089
30
0.000000
42
-1.000000
0
VERTEX
8
HOLE
10
184.250000
20
153.031089
30
0.000000
42
-1.000000
0
SEQEND
8
HOLE
0
POLYLINE
8
HOLE
66
1
10
0.000000
20
0.000000
30
0.000000
70
1
0
VERTEX
8
HOLE
10
117.500000
20
156.062178
30
0.000000
42
-1.000000
0
VERTEX
8
HOLE
10
119.500000
20
156.062178
30
0.000000
42
-1.000000
0
SEQEND
8
HOLE
0
POLYLINE
8
HOLE
66
1
10
0.000000
20
0.000000
30
0.000000
70
1
0
VERTEX
8
HOLE
10
121.000000
20
156.062178
30
0.000000
42
-1.000000
0
VERTEX
8
HOLE
10
123.000000
20
156.062178
30
0.000000
42
-1.000000
0
SEQEND
8
HOLE
0
POLYLINE
8
HOLE
66
1
10
0.000000
20
0.000000
30
0.000000
70
1
0
VERTEX
8
HOLE
10
124.500000
20
156.062178
30
0.000000
42
-1.000000
0
VERTEX
8
HOLE
10
126.500000
20
156.062178
30
0.000000
42
-1.000000
0
SEQEND
8
HOLE
0
POLYLINE
8
HOLE
66
1
10
0.000000
20
0.000000
30
0.000000
70
1
0
VERTEX
8
HOLE
10
128.000000
20
156.062178
30
0.000000
42
-1.000000
0
VERTEX
8
HOLE
10
130.000000
20
156.062178
30
0.000000
42
-1.000000
0
SEQEND
8
HOLE
0
POLYLINE
8
HOLE
66
1
10
0.000000
20
0.000000
30
0.000000
70
1
0
VERTEX
8
HOLE
10
131.500000
20
156.062178
30
0.000000
42
-1.000000
0
VERTEX
8
HOLE
10
133.500000
20
156.062178
30
0.000000
42
-1.000000
0
SEQEND
8
HOLE
0
POLYLINE
8
HOLE
66
1
10
0.000000
20
0.000000
30
0.000000
70
1
0
VERTEX
8
HOLE
10
135.000000
20
156.062178
30
0.000000
42
-1.000000
0
VERTEX
8
HOLE
10
137.000000
20
156.062178
30
0.000000
42
-1.000000
0
SEQEND
8
HOLE
0
POLYLINE
8
HOLE
66
1
10
0.000000
20
0.000000
30
0.000000
70
1
0
VERTEX
8
HOLE
10
138.500000
20
156.062178
30
0.000000
42
-1.000000
0
VERTEX
8
HOLE
10
140.500000
20
156.062178
30
0.000000
42
-1.000000
0
SEQEND
8
HOLE
0
POLYLINE
8
HOLE
66
1
10
0.000000
20
0.000000
30
0.000000
70
1
0
VERTEX
8
HOLE
10
142.000000
20
156.062178
30
0.000000
42
-1.000000
0
VERTEX
8
HOLE
10
144.000000
20
156.062178
30
0.000000
42
-1.000000
0
SEQEND
8
HOLE
0
POLYLINE
8
HOLE
66
1
10
0.000000
20
0.000000
30
0.000000
70
1
0
VERTEX
8
HOLE
10
145.500000
20
156.062178
30
0.000000
42
-1.000000
0
VERTEX
8
HOLE
10
147.500000
20
156.062178
30
0.000000
42
-1.000000
0
SEQEND
8
HOLE
0
POLYLINE
8
HOLE
66
1
10
0.000000
20
0.000000
30
0.000000
70
1
0
VERTEX
8
HOLE
10
149.000000
20
156.062178
30
0.000000
42
-1.000000
0
VERTEX
8
HOLE
10
151.000000
20
156.062178
30
0.000000
42
-1.000000
0
SEQEND
8
HOLE
0
POLYLINE
8
HOLE
66
1
10
0.000000
20
0.000000
30
0.000000
70
1
0
VERTEX
8
HOLE
10
152.500000
20
156.062178
30
0.000000
42
-1.000000
0
VERTEX
8
HOLE
10
154.500000
20
156.062178
30
0.000000
42
-1.000000
0
SEQEND
8
HOLE
0
POLYLINE
8
HOLE
66
1
10
0.000000
20
0.000000
30
0.000000
70
1
0
VERTEX
8
HOLE
10
156.000000
20
156.062178
30
0.000000
42
-1.000000
0
VERTEX
8
HOLE
10
158.000000
20
156.062178
30
0.000000
42
-1.000000
0
SEQEND
8
HOLE
0
POLYLINE
8
HOLE
66
1
10
0.000000
20
0.000000
30
0.000000
70
1
0
VERTEX
8
HOLE
10
159.500000
20
156.062178
30
0.000000
42
-1.000000
0
VERTEX
8
HOLE
10
161.500000
20
156.062178
30
0.000000
42
-1.000000
0
SEQEND
8
HOLE
0
POLYLINE
8
HOLE
66
1
10
0.000000
20
0.000000
30
0.000000
70
1
0
VERTEX
8
HOLE
10
163.000000
20
156.062178
30
0.000000
42
-1.000000
0
VERTEX
8
HOLE
10
165.000000
20
156.062178
30
0.000000
42
-1.000000
0
SEQEND
8
HOLE
0
POLYLINE
8
HOLE
66
1
10
0.000000
20
0.000000
30
0.000000
70
1
0
VERTEX
8
HOLE
10
166.500000
20
156.062178
30
0.000000
42
-1.000000
0
VERTEX
8
HOLE
10
168.500000
20
156.062178
30
0.000000
42
-1.000000
0
SEQEND
8
HOLE
0
POLYLINE
8
HOLE
66
1
10
0.000000
20
0.000000
30
0.000000
70
1
0
VERTEX
8
HOLE
10
170.000000
20
156.062178
30
0.000000
42
-1.000000
0
VERTEX
8
HOLE
10
172.000000
20
156.062178
30
0.000000
42
-1.000000
0
SEQEND
8
HOLE
0
POLYLINE
8
HOLE
66
1
10
0.000000
20
0.000000
30
0.000000
70
1
0
VERTEX
8
HOLE
10
173.500000
20
156.062178
30
0.000000
42
-1.000000
0
VERTEX
8
HOLE
10
175.500000
20
156.062178
30
0.000000
42
-1.000000
0
SEQEND
8
HOLE
0
POLYLINE
8
HOLE
66
1
10
0.000000
20
0.000000
30
0.000000
70
1
0
VERTEX
8
HOLE
10
177.000000
20
156.062178
30
0.000000
42
-1.000000
0
VERTEX
8
HOLE
10
179.000000
20
156.062178
30
0.000000
42
-1.000000
0
SEQEND
8
HOLE
0
POLYLINE
8
HOLE
66
1
10
0.000000
20
0.000000
30
0.000000
70
1
0
VERTEX
8
HOLE
10
180.500000
20
156.062178
30
0.000000
42
-1.000000
0
VERTEX
8
HOLE
10
182.500000
20
156.062178
30
0.000000
42
-1.000000
0
SEQEND
8
HOLE
0
POLYLINE
8
HOLE
66
1
10
0.000000
20
0.000000
30
0.000000
70
1
0
VERTEX
8
HOLE
10
119.250000
20
159.093267
30
0.000000
42
-1.000000
0
VERTEX
8
HOLE
10
121.250000
20
159.093267
30
0.000000
42
-1.000000
0
SEQEND
8
HOLE
0
POLYLINE
8
HOLE
66
1
10
0.000000
20
0.000000
30
0.000000
70
1
0
VERTEX
8
HOLE
10
122.750000
20
159.093267
30
0.000000
42
-1.000000
0
VERTEX
8
HOLE
10
124.750000
20
159.093267
30
0.000000
42
-1.000000
0
SEQEND
8
HOLE
0
POLYLINE
8
HOLE
66
1
10
0.000000
20
0.000000
30
0.000000
70
1
0
VERTEX
8
HOLE
10
126.250000
20
159.093267
30
0.000000
42
-1.000000
0
VERTEX
8
HOLE
10
128.250000
20
159.093267
30
0.000000
42
-1.000000
0
SEQEND
8
HOLE
0
POLYLINE
8
HOLE
66
1
10
0.000000
20
0.000000
30
0.000000
70
1
0
VERTEX
8
HOLE
10
129.750000
20
159.093267
30
0.000000
42
-1.000000
0
VERTEX
8
HOLE
10
131.750000
20
159.093267
30
0.000000
42
-1.000000
0
SEQEND
8
HOLE
0
POLYLINE
8
HOLE
66
1
10
0.000000
20
0.000000
30
0.000000
70
1
0
VERTEX
8
HOLE
10
133.250000
20
159.093267
30
0.000000
42
-1.000000
0
VERTEX
8
HOLE
10
135.250000
20
159.093267
30
0.000000
42
-1.000000
0
SEQEND
8
HOLE
0
POLYLINE
8
HOLE
66
1
10
0.000000
20
0.000000
30
0.000000
70
1
0
VERTEX
8
HOLE
10
136.750000
20
159.093267
30
0.000000
42
-1.000000
0
VERTEX
8
HOLE
10
138.750000
20
159.093267
30
0.000000
42
-1.000000
0
SEQEND
8
HOLE
0
POLYLINE
8
HOLE
66
1
10
0.000000
20
0.000000
30
0.000000
70
1
0
VERTEX
8
HOLE
10
140.250000
20
159.093267
30
0.000000
42
-1.000000
0
VERTEX
8
HOLE
10
142.250000
20
159.093267
30
0.000000
42
-1.000000
0
SEQEND
8
HOLE
0
POLYLINE
8
HOLE
66
1
10
0.000000
20
0.000000
30
0.000000
70
1
0
VERTEX
8
HOLE
10
143.750000
20
159.093267
30
0.000000
42
-1.000000
0
VERTEX
8
HOLE
10
145.750000
20
159.093267
30
0.000000
42
-1.000000
0
SEQEND
8
HOLE
0
POLYLINE
8
HOLE
66
1
10
0.000000
20
0.000000
30
0.000000
70
1
0
VERTEX
8
HOLE
10
147.250000
20
159.093267
30
0.000000
42
-1.000000
0
VERTEX
8
HOLE
10
149.250000
20
159.093267
30
0.000000
42
-1.000000
0
SEQEND
8
HOLE
0
POLYLINE
8
HOLE
66
1
10
0.000000
20
0.000000
30
0.000000
70
1
0
VERTEX
8
HOLE
10
150.750000
20
159.093267
30
0.000000
42
-1.000000
0
VERTEX
8
HOLE
10
152.750000
20
159.093267
30
0.000000
42
-1.000000
0
SEQEND
8
HOLE
0
POLYLINE
8
HOLE
66
1
10
0.000000
20
0.000000
30
0.000000
70
1
0
VERTEX
8
HOLE
10
154.250000
20
159.093267
30
0.000000
42
-1.000000
0
VERTEX
8
HOLE
10
156.250000
20
159.093267
30
0.000000
42
-1.000000
0
SEQEND
8
HOLE
0
POLYLINE
8
HOLE
66
1
10
0.000000
20
0.000000
30
0.000000
70
1
0
VERTEX
8
HOLE
10
157.750000
20
159.093267
30
0.000000
42
-1.000000
0
VERTEX
8
HOLE
10
159.750000
20
159.093267
30
0.000000
42
-1.000000
0
SEQEND
8
HOLE
0
POLYLINE
8
HOLE
66
1
10
0.000000
20
0.000000
30
0.000000
70
1
0
VERTEX
8
HOLE
10
161.250000
20
159.093267
30
0.000000
42
-1.000000
0
VERTEX
8
HOLE
10
163.250000
20
159.093267
30
0.000000
42
-1.000000
0
SEQEND
8
HOLE
0
POLYLINE
8
HOLE
66
1
10
0.000000
20
0.000000
30
0.000000
70
1
0
VERTEX
8
HOLE
10
164.750000
20
159.093267
30
0.000000
42
-1.000000
0
VERTEX
8
HOLE
10
166.750000
20
159.093267
30
0.000000
42
-1.000000
0
SEQEND
8
HOLE
0
POLYLINE
8
HOLE
66
1
10
0.000000
20
0.000000
30
0.000000
70
1
0
VERTEX
8
HOLE
10
168.250000
20
159.093267
30
0.000000
42
-1.000000
0
VERTEX
8
HOLE
10
170.250000
20
159.093267
30
0.000000
42
-1.000000
0
SEQEND
8
HOLE
0
POLYLINE
8
HOLE
66
1
10
0.000000
20
0.000000
30
0.000000
70
1
0
VERTEX
8
HOLE
10
171.750000
20
159.093267
30
0.000000
42
-1.000000
0
VERTEX
8
HOLE
10
173.750000
20
159.093267
30
0.000000
42
-1.000000
0
SEQEND
8
HOLE
0
POLYLINE
8
HOLE
66
1
10
0.000000
20
0.000000
30
0.000000
70
1
0
VERTEX
8
HOLE
10
175.250000
20
159.093267
30
0.000000
42
-1.000000
0
VERTEX
8
HOLE
10
177.250000
20
159.093267
30
0.000000
42
-1.000000
0
SEQEND
8
HOLE
0
POLYLINE
8
HOLE
66
1
10
0.000000
20
0.000000
30
0.000000
70
1
0
VERTEX
8
HOLE
10
178.750000
20
159.093267
30
0.000000
42
-1.000000
0
VERTEX
8
HOLE
10
180.750000
20
159.093267
30
0.000000
42
-1.000000
0
SEQEND
8
HOLE
0
POLYLINE
8
HOLE
66
1
10
0.000000
20
0.000000
30
0.000000
70
1
0
VERTEX
8
HOLE
10
182.250000
20
159.093267
30
0.000000
42
-1.000000
0
VERTEX
8
HOLE
10
184.250000
20
159.093267
30
0.000000
42
-1.000000
0
SEQEND
8
HOLE
0
POLYLINE
8
HOLE
66
1
10
0.000000
20
0.000000
30
0.000000
70
1
0
VERTEX
8
HOLE
10
117.500000
20
162.124356
30
0.000000
42
-1.000000
0
VERTEX
8
HOLE
10
119.500000
20
162.124356
30
0.000000
42
-1.000000
0
SEQEND
8
HOLE
0
POLYLINE
8
HOLE
66
1
10
0.000000
20
0.000000
30
0.000000
70
1
0
VERTEX
8
HOLE
10
121.000000
20
162.124356
30
0.000000
42
-1.000000
0
VERTEX
8
HOLE
10
123.000000
20
162.124356
30
0.000000
42
-1.000000
0
SEQEND
8
HOLE
0
POLYLINE
8
HOLE
66
1
10
0.000000
20
0.000000
30
0.000000
70
1
0
VERTEX
8
HOLE
10
124.500000
20
162.124356
30
0.000000
42
-1.000000
0
VERTEX
8
HOLE
10
126.500000
20
162.124356
30
0.000000
42
-1.000000
0
SEQEND
8
HOLE
0
POLYLINE
8
HOLE
66
1
10
0.000000
20
0.000000
30
0.000000
70
1
0
VERTEX
8
HOLE
10
128.000000
20
162.124356
30
0.000000
42
-1.000000
0
VERTEX
8
HOLE
10
130.000000
20
162.124356
30
0.000000
42
-1.000000
0
SEQEND
8
HOLE
0
POLYLINE
8
HOLE
66
1
10
0.000000
20
0.000000
30
0.000000
70
1
0
VERTEX
8
HOLE
10
131.500000
20
162.124356
30
0.000000
42
-1.000000
0
VERTEX
8
HOLE
10
133.500000
20
162.124356
30
0.000000
42
-1.000000
0
SEQEND
8
HOLE
0
POLYLINE
8
HOLE
66
1
10
0.000000
20
0.000000
30
0.000000
70
1
0
VERTEX
8
HOLE
10
135.000000
20
162.124356
30
0.000000
42
-1.000000
0
VERTEX
8
HOLE
10
137.000000
20
162.124356
30
0.000000
42
-1.000000
0
SEQEND
8
HOLE
0
POLYLINE
8
HOLE
66
1
10
0.000000
20
0.000000
30
0.000000
70
1
0
VERTEX
8
HOLE
10
138.500000
20
162.124356
30
0.000000
42
-1.000000
0
VERTEX
8
HOLE
10
140.500000
20
162.124356
30
0.000000
42
-1.000000
0
SEQEND
8
HOLE
0
POLYLINE
8
HOLE
66
1
10
0.000000
20
0.000000
30
0.000000
70
1
0
VERTEX
8
HOLE
10
142.000000
20
162.124356
30
0.000000
42
-1.000000
0
VERTEX
8
HOLE
10
144.000000
20
162.124356
30
0.000000
42
-1.000000
0
SEQEND
8
HOLE
0
POLYLINE
8
HOLE
66
1
10
0.000000
20
0.000000
30
0.000000
70
1
0
VERTEX
8
HOLE
10
145.500000
20
162.124356
30
0.000000
42
-1.000000
0
VERTEX
8
HOLE
10
147.500000
20
162.124356
30
0.000000
42
-1.000000
0
SEQEND
8
HOLE
0
POLYLINE
8
HOLE
66
1
10
0.000000
20
0.000000
30
0.000000
70
1
0
VERTEX
8
HOLE
10
149.000000
20
162.124356
30
0.000000
42
-1.000000
0
VERTEX
8
HOLE
10
151.000000
20
162.124356
30
0.000000
42
-1.000000
0
SEQEND
8
HOLE
0
POLYLINE
8
HOLE
66
1
10
0.000000
20
0.000000
30
0.000000
70
1
0
VERTEX
8
HOLE
10
152.500000
20
162.124356
30
0.000000
42
-1.000000
0
VERTEX
8
HOLE
10
154.500000
20
162.124356
30
0.000000
42
-1.000000
0
SEQEND
8
HOLE
0
POLYLINE
8
HOLE
66
1
10
0.000000
20
0.000000
30
0.000000
70
1
0
VERTEX
8
HOLE
10
156.000000
20
162.124356
30
0.000000
42
-1.000000
0
VERTEX
8
HOLE
10
158.000000
20
162.124356
30
0.000000
42
-1.000000
0
SEQEND
8
HOLE
0
POLYLINE
8
HOLE
66
1
10
0.000000
20
0.000000
30
0.000000
70
1
0
VERTEX
8
HOLE
10
159.500000
20
162.124356
30
0.000000
42
-1.000000
0
VERTEX
8
HOLE
10
161.500000
20
162.124356
30
0.000000
42
-1.000000
0
SEQEND
8
HOLE
0
POLYLINE
8
HOLE
66
1
10
0.000000
20
0.000000
30
0.000000
70
1
0
VERTEX
8
HOLE
10
163.000000
20
162.124356
30
0.000000
42
-1.000000
0
VERTEX
8
HOLE
10
165.000000
20
162.124356
30
0.000000
42
-1.000000
0
SEQEND
8
HOLE
0
POLYLINE
8
HOLE
66
1
10
0.000000
20
0.000000
30
0.000000
70
1
0
VERTEX
8
HOLE
10
166.500000
20
162.124356
30
0.000000
42
-1.000000
0
VERTEX
8
HOLE
10
168.500000
20
162.124356
30
0.000000
42
-1.000000
0
SEQEND
8
HOLE
0
POLYLINE
8
HOLE
66
1
10
0.000000
20
0.000000
30
0.000000
70
1
0
VERTEX
8
HOLE
10
170.000000
20
162.124356
30
0.000000
42
-1.000000
0
VERTEX
8
HOLE
10
172.000000
20
162.124356
30
0.000000
42
-1.000000
0
SEQEND
8
HOLE
0
POLYLINE
8
HOLE
66
1
10
0.000000
20
0.000000
30
0.000000
70
1
0
VERTEX
8
HOLE
10
173.500000
20
162.124356
30
0.000000
42
-1.000000
0
VERTEX
8
HOLE
10
175.500000
20
162.124356
30
0.000000
42
-1.000000
0
SEQEND
8
HOLE
0
POLYLINE
8
HOLE
66
1
10
0.000000
20
0.000000
30
0.000000
70
1
0
VERTEX
8
HOLE
10
177.000000
20
162.124356
30
0.000000
42
-1.000000
0
VERTEX
8
HOLE
10
179.000000
20
162.124356
30
0.000000
42
-1.000000
0
SEQEND
8
HOLE
0
POLYLINE
8
HOLE
66
1
10
0.000000
20
0.000000
30
0.000000
70
1
0
VERTEX
8
HOLE
10
180.500000
20
162.124356
30
0.000000
42
-1.000000
0
VERTEX
8
HOLE
10
182.500000
20
162.124356
30
0.000000
42
-1.000000
0
SEQEND
8
HOLE
0
POLYLINE
8
HOLE
66
1
10
0.000000
20
0.000000
30
0.000000
70
1
0
VERTEX
8
HOLE
10
119.250000
20
165.155445
30
0.000000
42
-1.000000
0
VERTEX
8
HOLE
10
121.250000
20
165.155445
30
0.000000
42
-1.000000
0
SEQEND
8
HOLE
0
POLYLINE
8
HOLE
66
1
10
0.000000
20
0.000000
30
0.000000
70
1
0
VERTEX
8
HOLE
10
122.750000
20
165.155445
30
0.000000
42
-1.000000
0
VERTEX
8
HOLE
10
124.750000
20
165.155445
30
0.000000
42
-1.000000
0
SEQEND
8
HOLE
0
POLYLINE
8
HOLE
66
1
10
0.000000
20
0.000000
30
0.000000
70
1
0
VERTEX
8
HOLE
10
126.250000
20
165.155445
30
0.000000
42
-1.000000
0
VERTEX
8
HOLE
10
128.250000
20
165.155445
30
0.000000
42
-1.000000
0
SEQEND
8
HOLE
0
POLYLINE
8
HOLE
66
1
10
0.000000
20
0.000000
30
0.000000
70
1
0
VERTEX
8
HOLE
10
129.750000
20
165.155445
30
0.000000
42
-1.000000
0
VERTEX
8
HOLE
10
131.750000
20
165.155445
30
0.000000
42
-1.000000
0
SEQEND
8
HOLE
0
POLYLINE
8
HOLE
66
1
10
0.000000
20
0.000000
30
0.000000
70
1
0
VERTEX
8
HOLE
10
133.250000
20
165.155445
30
0.000000
42
-1.000000
0
VERTEX
8
HOLE
10
135.250000
20
165.155445
30
0.000000
42
-1.000000
0
SEQEND
8
HOLE
0
POLYLINE
8
HOLE
66
1
10
0.000000
20
0.000000
30
0.000000
70
1
0
VERTEX
8
HOLE
10
136.750000
20
165.155445
30
0.000000
42
-1.000000
0
VERTEX
8
HOLE
10
138.750000
20
165.155445
30
0.000000
42
-1.000000
0
SEQEND
8
HOLE
0
POLYLINE
8
HOLE
66
1
10
0.000000
20
0.000000
30
0.000000
70
1
0
VERTEX
8
HOLE
10
140.250000
20
165.155445
30
0.000000
42
-1.000000
0
VERTEX
8
HOLE
10
142.250000
20
165.155445
30
0.000000
42
-1.000000
0
SEQEND
8
HOLE
0
POLYLINE
8
HOLE
66
1
10
0.000000
20
0.000000
30
0.000000
70
1
0
VERTEX
8
HOLE
10
143.750000
20
165.155445
30
0.000000
42
-1.000000
0
VERTEX
8
HOLE
10
145.750000
20
165.155445
30
0.000000
42
-1.000000
0
SEQEND
8
HOLE
0
POLYLINE
8
HOLE
66
1
10
0.000000
20
0.000000
30
0.000000
70
1
0
VERTEX
8
HOLE
10
147.250000
20
165.155445
30
0.000000
42
-1.000000
0
VERTEX
8
HOLE
10
149.250000
20
165.155445
30
0.000000
42
-1.000000
0
SEQEND
8
HOLE
0
POLYLINE
8
HOLE
66
1
10
0.000000
20
0.000000
30
0.000000
70
1
0
VERTEX
8
HOLE
10
150.750000
20
165.155445
30
0.000000
42
-1.000000
0
VERTEX
8
HOLE
10
152.750000
20
165.155445
30
0.000000
42
-1.000000
0
SEQEND
8
HOLE
0
POLYLINE
8
HOLE
66
1
10
0.000000
20
0.000000
30
0.000000
70
1
0
VERTEX
8
HOLE
10
154.250000
20
165.155445
30
0.000000
42
-1.000000
0
VERTEX
8
HOLE
10
156.250000
20
165.155445
30
0.000000
42
-1.000000
0
SEQEND
8
HOLE
0
POLYLINE
8
HOLE
66
1
10
0.000000
20
0.000000
30
0.000000
70
1
0
VERTEX
8
HOLE
10
157.750000
20
165.155445
30
0.000000
42
-1.000000
0
VERTEX
8
HOLE
10
159.750000
20
165.155445
30
0.000000
42
-1.000000
0
SEQEND
8
HOLE
0
POLYLINE
8
HOLE
66
1
10
0.000000
20
0.000000
30
0.000000
70
1
0
VERTEX
8
HOLE
10
161.250000
20
165.155445
30
0.000000
42
-1.000000
0
VERTEX
8
HOLE
10
163.250000
20
165.155445
30
0.000000
42
-1.000000
0
SEQEND
8
HOLE
0
POLYLINE
8
HOLE
66
1
10
0.000000
20
0.000000
30
0.000000
70
1
0
VERTEX
8
HOLE
10
164.750000
20
165.155445
30
0.000000
42
-1.000000
0
VERTEX
8
HOLE
10
166.750000
20
165.155445
30
0.000000
42
-1.000000
0
SEQEND
8
HOLE
0
POLYLINE
8
HOLE
66
1
10
0.000000
20
0.000000
30
0.000000
70
1
0
VERTEX
8
HOLE
10
168.250000
20
165.155445
30
0.000000
42
-1.000000
0
VERTEX
8
HOLE
10
170.250000
20
165.155445
30
0.000000
42
-1.000000
0
SEQEND
8
HOLE
0
POLYLINE
8
HOLE
66
1
10
0.000000
20
0.000000
30
0.000000
70
1
0
VERTEX
8
HOLE
10
171.750000
20
165.155445
30
0.000000
42
-1.000000
0
VERTEX
8
HOLE
10
173.750000
20
165.155445
30
0.000000
42
-1.000000
0
SEQEND
8
HOLE
0
POLYLINE
8
HOLE
66
1
10
0.000000
20
0.000000
30
0.000000
70
1
0
VERTEX
8
HOLE
10
175.250000
20
165.155445
30
0.000000
42
-1.000000
0
VERTEX
8
HOLE
10
177.250000
20
165.155445
30
0.000000
42
-1.000000
0
SEQEND
8
HOLE
0
POLYLINE
8
HOLE
66
1
10
0.000000
20
0.000000
30
0.000000
70
1
0
VERTEX
8
HOLE
10
178.750000
20
165.155445
30
0.000000
42
-1.000000
0
VERTEX
8
HOLE
10
180.750000
20
165.155445
30
0.000000
42
-1.000000
0
SEQEND
8
HOLE
0
POLYLINE
8
HOLE
66
1
10
0.000000
20
0.000000
30
0.000000
70
1
0
VERTEX
8
HOLE
10
182.250000
20
165.155445
30
0.000000
42
-1.000000
0
VERTEX
8
HOLE
10
184.250000
20
165.155445
30
0.000000
42
-1.000000
0
SEQEND
8
HOLE
0
POLYLINE
8
HOLE
66
1
10
0.000000
20
0.000000
30
0.000000
70
1
0
VERTEX
8
HOLE
10
117.500000
20
168.186533
30
0.000000
42
-1.000000
0
VERTEX
8
HOLE
10
119.500000
20
168.186533
30
0.000000
42
-1.000000
0
SEQEND
8
HOLE
0
POLYLINE
8
HOLE
66
1
10
0.000000
20
0.000000
30
0.000000
70
1
0
VERTEX
8
HOLE
10
121.000000
20
168.186533
30
0.000000
42
-1.000000
0
VERTEX
8
HOLE
10
123.000000
20
168.186533
30
0.000000
42
-1.000000
0
SEQEND
8
HOLE
0
POLYLINE
8
HOLE
66
1
10
0.000000
20
0.000000
30
0.000000
70
1
0
VERTEX
8
HOLE
10
124.500000
20
168.186533
30
0.000000
42
-1.000000
0
VERTEX
8
HOLE
10
126.500000
20
168.186533
30
0.000000
42
-1.000000
0
SEQEND
8
HOLE
0
POLYLINE
8
HOLE
66
1
10
0.000000
20
0.000000
30
0.000000
70
1
0
VERTEX
8
HOLE
10
128.000000
20
168.186533
30
0.000000
42
-1.000000
0
VERTEX
8
HOLE
10
130.000000
20
168.186533
30
0.000000
42
-1.000000
0
SEQEND
8
HOLE
0
POLYLINE
8
HOLE
66
1
10
0.000000
20
0.000000
30
0.000000
70
1
0
VERTEX
8
HOLE
10
131.500000
20
168.186533
30
0.000000
42
-1.000000
0
VERTEX
8
HOLE
10
133.500000
20
168.186533
30
0.000000
42
-1.000000
0
SEQEND
8
HOLE
0
POLYLINE
8
HOLE
66
1
10
0.000000
20
0.000000
30
0.000000
70
1
0
VERTEX
8
HOLE
10
135.000000
20
168.186533
30
0.000000
42
-1.000000
0
VERTEX
8
HOLE
10
137.000000
20
168.186533
30
0.000000
42
-1.000000
0
SEQEND
8
HOLE
0
POLYLINE
8
HOLE
66
1
10
0.000000
20
0.000000
30
0.000000
70
1
0
VERTEX
8
HOLE
10
138.500000
20
168.186533
30
0.000000
42
-1.000000
0
VERTEX
8
HOLE
10
140.500000
20
168.186533
30
0.000000
42
-1.000000
0
SEQEND
8
HOLE
0
POLYLINE
8
HOLE
66
1
10
0.000000
20
0.000000
30
0.000000
70
1
0
VERTEX
8
HOLE
10
142.000000
20
168.186533
30
0.000000
42
-1.000000
0
VERTEX
8
HOLE
10
144.000000
20
168.186533
30
0.000000
42
-1.000000
0
SEQEND
8
HOLE
0
POLYLINE
8
HOLE
66
1
10
0.000000
20
0.000000
30
0.000000
70
1
0
VERTEX
8
HOLE
10
145.500000
20
168.186533
30
0.000000
42
-1.000000
0
VERTEX
8
HOLE
10
147.500000
20
168.186533
30
0.000000
42
-1.000000
0
SEQEND
8
HOLE
0
POLYLINE
8
HOLE
66
1
10
0.000000
20
0.000000
30
0.000000
70
1
0
VERTEX
8
HOLE
10
149.000000
20
168.186533
30
0.000000
42
-1.000000
0
VERTEX
8
HOLE
10
151.000000
20
168.186533
30
0.000000
42
-1.000000
0
SEQEND
8
HOLE
0
POLYLINE
8
HOLE
66
1
10
0.000000
20
0.000000
30
0.000000
70
1
0
VERTEX
8
HOLE
10
152.500000
20
168.186533
30
0.000000
42
-1.000000
0
VERTEX
8
HOLE
10
154.500000
20
168.186533
30
0.000000
42
-1.000000
0
SEQEND
8
HOLE
0
POLYLINE
8
HOLE
66
1
10
0.000000
20
0.000000
30
0.000000
70
1
0
VERTEX
8
HOLE
10
156.000000
20
168.186533
30
0.000000
42
-1.000000
0
VERTEX
8
HOLE
10
158.000000
20
168.186533
30
0.000000
42
-1.000000
0
SEQEND
8
HOLE
0
POLYLINE
8
HOLE
66
1
10
0.000000
20
0.000000
30
0.000000
70
1
0
VERTEX
8
HOLE
10
159.500000
20
168.186533
30
0.000000
42
-1.000000
0
VERTEX
8
HOLE
10
161.500000
20
168.186533
30
0.000000
42
-1.000000
0
SEQEND
8
HOLE
0
POLYLINE
8
HOLE
66
1
10
0.000000
20
0.000000
30
0.000000
70
1
0
VERTEX
8
HOLE
10
163.000000
20
168.186533
30
0.000000
42
-1.000000
0
VERTEX
8
HOLE
10
165.000000
20
168.186533
30
0.000000
42
-1.000000
0
SEQEND
8
HOLE
0
POLYLINE
8
HOLE
66
1
10
0.000000
20
0.000000
30
0.000000
70
1
0
VERTEX
8
HOLE
10
166.500000
20
168.186533
30
0.000000
42
-1.000000
0
VERTEX
8
HOLE
10
168.500000
20
168.186533
30
0.000000
42
-1.000000
0
SEQEND
8
HOLE
0
POLYLINE
8
HOLE
66
1
10
0.000000
20
0.000000
30
0.000000
70
1
0
VERTEX
8
HOLE
10
170.000000
20
168.186533
30
0.000000
42
-1.000000
0
VERTEX
8
HOLE
10
172.000000
20
168.186533
30
0.000000
42
-1.000000
0
SEQEND
8
HOLE
0
POLYLINE
8
HOLE
66
1
10
0.000000
20
0.000000
30
0.000000
70
1
0
VERTEX
8
HOLE
10
173.500000
20
168.186533
30
0.000000
42
-1.000000
0
VERTEX
8
HOLE
10
175.500000
20
168.186533
30
0.000000
42
-1.000000
0
SEQEND
8
HOLE
0
POLYLINE
8
HOLE
66
1
10
0.000000
20
0.000000
30
0.000000
70
1
0
VERTEX
8
HOLE
10
177.000000
20
168.186533
30
0.000000
42
-1.000000
0
VERTEX
8
HOLE
10
179.000000
20
168.186533
30
0.000000
42
-1.000000
0
SEQEND
8
HOLE
0
POLYLINE
8
HOLE
66
1
10
0.000000
20
0.000000
30
0.000000
70
1
0
VERTEX
8
HOLE
10
180.500000
20
168.186533
30
0.000000
42
-1.000000
0
VERTEX
8
HOLE
10
182.500000
20
168.186533
30
0.000000
42
-1.000000
0
SEQEND
8
HOLE
0
POLYLINE
8
HOLE
66
1
10
0.000000
20
0.000000
30
0.000000
70
1
0
VERTEX
8
HOLE
10
119.250000
20
171.217622
30
0.000000
42
-1.000000
0
VERTEX
8
HOLE
10
121.250000
20
171.217622
30
0.000000
42
-1.000000
0
SEQEND
8
HOLE
0
POLYLINE
8
HOLE
66
1
10
0.000000
20
0.000000
30
0.000000
70
1
0
VERTEX
8
HOLE
10
122.750000
20
171.217622
30
0.000000
42
-1.000000
0
VERTEX
8
HOLE
10
124.750000
20
171.217622
30
0.000000
42
-1.000000
0
SEQEND
8
HOLE
0
POLYLINE
8
HOLE
66
1
10
0.000000
20
0.000000
30
0.000000
70
1
0
VERTEX
8
HOLE
10
126.250000
20
171.217622
30
0.000000
42
-1.000000
0
VERTEX
8
HOLE
10
128.250000
20
171.217622
30
0.000000
42
-1.000000
0
SEQEND
8
HOLE
0
POLYLINE
8
HOLE
66
1
10
0.000000
20
0.000000
30
0.000000
70
1
0
VERTEX
8
HOLE
10
129.750000
20
171.217622
30
0.000000
42
-1.000000
0
VERTEX
8
HOLE
10
131.750000
20
171.217622
30
0.000000
42
-1.000000
0
SEQEND
8
HOLE
0
POLYLINE
8
HOLE
66
1
10
0.000000
20
0.000000
30
0.000000
70
1
0
VERTEX
8
HOLE
10
133.250000
20
171.217622
30
0.000000
42
-1.000000
0
VERTEX
8
HOLE
10
135.250000
20
171.217622
30
0.000000
42
-1.000000
0
SEQEND
8
HOLE
0
POLYLINE
8
HOLE
66
1
10
0.000000
20
0.000000
30
0.000000
70
1
0
VERTEX
8
HOLE
10
136.750000
20
171.217622
30
0.000000
42
-1.000000
0
VERTEX
8
HOLE
10
138.750000
20
171.217622
30
0.000000
42
-1.000000
0
SEQEND
8
HOLE
0
POLYLINE
8
HOLE
66
1
10
0.000000
20
0.000000
30
0.000000
70
1
0
VERTEX
8
HOLE
10
140.250000
20
171.217622
30
0.000000
42
-1.000000
0
VERTEX
8
HOLE
10
142.250000
20
171.217622
30
0.000000
42
-1.000000
0
SEQEND
8
HOLE
0
POLYLINE
8
HOLE
66
1
10
0.000000
20
0.000000
30
0.000000
70
1
0
VERTEX
8
HOLE
10
143.750000
20
171.217622
30
0.000000
42
-1.000000
0
VERTEX
8
HOLE
10
145.750000
20
171.217622
30
0.000000
42
-1.000000
0
SEQEND
8
HOLE
0
POLYLINE
8
HOLE
66
1
10
0.000000
20
0.000000
30
0.000000
70
1
0
VERTEX
8
HOLE
10
147.250000
20
171.217622
30
0.000000
42
-1.000000
0
VERTEX
8
HOLE
10
149.250000
20
171.217622
30
0.000000
42
-1.000000
0
SEQEND
8
HOLE
0
POLYLINE
8
HOLE
66
1
10
0.000000
20
0.000000
30
0.000000
70
1
0
VERTEX
8
HOLE
10
150.750000
20
171.217622
30
0.000000
42
-1.000000
0
VERTEX
8
HOLE
10
152.750000
20
171.217622
30
0.000000
42
-1.000000
0
SEQEND
8
HOLE
0
POLYLINE
8
HOLE
66
1
10
0.000000
20
0.000000
30
0.000000
70
1
0
VERTEX
8
HOLE
10
154.250000
20
171.217622
30
0.000000
42
-1.000000
0
VERTEX
8
HOLE
10
156.250000
20
171.217622
30
0.000000
42
-1.000000
0
SEQEND
8
HOLE
0
POLYLINE
8
HOLE
66
1
10
0.000000
20
0.000000
30
0.000000
70
1
0
VERTEX
8
HOLE
10
157.750000
20
171.217622
30
0.000000
42
-1.000000
0
VERTEX
8
HOLE
10
159.750000
20
171.217622
30
0.000000
42
-1.000000
0
SEQEND
8
HOLE
0
POLYLINE
8
HOLE
66
1
10
0.000000
20
0.000000
30
0.000000
70
1
0
VERTEX
8
HOLE
10
161.250000
20
171.217622
30
0.000000
42
-1.000000
0
VERTEX
8
HOLE
10
163.250000
20
171.217622
30
0.000000
42
-1.000000
0
SEQEND
8
HOLE
0
POLYLINE
8
HOLE
66
1
10
0.000000
20
0.000000
30
0.000000
70
1
0
VERTEX
8
HOLE
10
164.750000
20
171.217622
30
0.000000
42
-1.000000
0
VERTEX
8
HOLE
10
166.750000
20
171.217622
30
0.000000
42
-1.000000
0
SEQEND
8
HOLE
0
POLYLINE
8
HOLE
66
1
10
0.000000
20
0.000000
30
0.000000
70
1
0
VERTEX
8
HOLE
10
168.250000
20
171.217622
30
0.000000
42
-1.000000
0
VERTEX
8
HOLE
10
170.250000
20
171.217622
30
0.000000
42
-1.000000
0
SEQEND
8
HOLE
0
POLYLINE
8
HOLE
66
1
10
0.000000
20
0.000000
30
0.000000
70
1
0
VERTEX
8
HOLE
10
171.750000
20
171.217622
30
0.000000
42
-1.000000
0
VERTEX
8
HOLE
10
173.750000
20
171.217622
30
0.000000
42
-1.000000
0
SEQEND
8
HOLE
0
POLYLINE
8
HOLE
66
1
10
0.000000
20
0.000000
30
0.000000
70
1
0
VERTEX
8
HOLE
10
175.250000
20
171.217622
30
0.000000
42
-1.000000
0
VERTEX
8
HOLE
10
177.250000
20
171.217622
30
0.000000
42
-1.000000
0
SEQEND
8
HOLE
0
POLYLINE
8
HOLE
66
1
10
0.000000
20
0.000000
30
0.000000
70
1
0
VERTEX
8
HOLE
10
178.750000
20
171.217622
30
0.000000
42
-1.000000
0
VERTEX
8
HOLE
10
180.750000
20
171.217622
30
0.000000
42
-1.000000
0
SEQEND
8
HOLE
0
POLYLINE
8
HOLE
66
1
10
0.000000
20
0.000000
30
0.000000
70
1
0
VERTEX
8
HOLE
10
182.250000
20
171.217622
30
0.000000
42
-1.000000
0
VERTEX
8
HOLE
10
184.250000
20
171.217622
30
0.000000
42
-1.000000
0
SEQEND
8
HOLE
0
POLYLINE
8
HOLE
66
1
10
0.000000
20
0.000000
30
0.000000
70
1
0
VERTEX
8
HOLE
10
117.500000
20
174.248711
30
0.000000
42
-1.000000
0
VERTEX
8
HOLE
10
119.500000
20
174.248711
30
0.000000
42
-1.000000
0
SEQEND
8
HOLE
0
POLYLINE
8
HOLE
66
1
10
0.000000
20
0.000000
30
0.000000
70
1
0
VERTEX
8
HOLE
10
121.000000
20
174.248711
30
0.000000
42
-1.000000
0
VERTEX
8
HOLE
10
123.000000
20
174.248711
30
0.000000
42
-1.000000
0
SEQEND
8
HOLE
0
POLYLINE
8
HOLE
66
1
10
0.000000
20
0.000000
30
0.000000
70
1
0
VERTEX
8
HOLE
10
124.500000
20
174.248711
30
0.000000
42
-1.000000
0
VERTEX
8
HOLE
10
126.500000
20
174.248711
30
0.000000
42
-1.000000
0
SEQEND
8
HOLE
0
POLYLINE
8
HOLE
66
1
10
0.000000
20
0.000000
30
0.000000
70
1
0
VERTEX
8
HOLE
10
128.000000
20
174.248711
30
0.000000
42
-1.000000
0
VERTEX
8
HOLE
10
130.000000
20
174.248711
30
0.000000
42
-1.000000
0
SEQEND
8
HOLE
0
POLYLINE
8
HOLE
66
1
10
0.000000
20
0.000000
30
0.000000
70
1
0
VERTEX
8
HOLE
10
131.500000
20
174.248711
30
0.000000
42
-1.000000
0
VERTEX
8
HOLE
10
133.500000
20
174.248711
30
0.000000
42
-1.000000
0
SEQEND
8
HOLE
0
POLYLINE
8
HOLE
66
1
10
0.000000
20
0.000000
30
0.000000
70
1
0
VERTEX
8
HOLE
10
135.000000
20
174.248711
30
0.000000
42
-1.000000
0
VERTEX
8
HOLE
10
137.000000
20
174.248711
30
0.000000
42
-1.000000
0
SEQEND
8
HOLE
0
POLYLINE
8
HOLE
66
1
10
0.000000
20
0.000000
30
0.000000
70
1
0
VERTEX
8
HOLE
10
138.500000
20
174.248711
30
0.000000
42
-1.000000
0
VERTEX
8
HOLE
10
140.500000
20
174.248711
30
0.000000
42
-1.000000
0
SEQEND
8
HOLE
0
POLYLINE
8
HOLE
66
1
10
0.000000
20
0.000000
30
0.000000
70
1
0
VERTEX
8
HOLE
10
142.000000
20
174.248711
30
0.000000
42
-1.000000
0
VERTEX
8
HOLE
10
144.000000
20
174.248711
30
0.000000
42
-1.000000
0
SEQEND
8
HOLE
0
POLYLINE
8
HOLE
66
1
10
0.000000
20
0.000000
30
0.000000
70
1
0
VERTEX
8
HOLE
10
145.500000
20
174.248711
30
0.000000
42
-1.000000
0
VERTEX
8
HOLE
10
147.500000
20
174.248711
30
0.000000
42
-1.000000
0
SEQEND
8
HOLE
0
POLYLINE
8
HOLE
66
1
10
0.000000
20
0.000000
30
0.000000
70
1
0
VERTEX
8
HOLE
10
149.000000
20
174.248711
30
0.000000
42
-1.000000
0
VERTEX
8
HOLE
10
151.000000
20
174.248711
30
0.000000
42
-1.000000
0
SEQEND
8
HOLE
0
POLYLINE
8
HOLE
66
1
10
0.000000
20
0.000000
30
0.000000
70
1
0
VERTEX
8
HOLE
10
152.500000
20
174.248711
30
0.000000
42
-1.000000
0
VERTEX
8
HOLE
10
154.500000
20
174.248711
30
0.000000
42
-1.000000
0
SEQEND
8
HOLE
0
POLYLINE
8
HOLE
66
1
10
0.000000
20
0.000000
30
0.000000
70
1
0
VERTEX
8
HOLE
10
156.000000
20
174.248711
30
0.000000
42
-1.000000
0
VERTEX
8
HOLE
10
158.000000
20
174.248711
30
0.000000
42
-1.000000
0
SEQEND
8
HOLE
0
POLYLINE
8
HOLE
66
1
10
0.000000
20
0.000000
30
0.000000
70
1
0
VERTEX
8
HOLE
10
159.500000
20
174.248711
30
0.000000
42
-1.000000
0
VERTEX
8
HOLE
10
161.500000
20
174.248711
30
0.000000
42
-1.000000
0
SEQEND
8
HOLE
0
POLYLINE
8
HOLE
66
1
10
0.000000
20
0.000000
30
0.000000
70
1
0
VERTEX
8
HOLE
10
163.000000
20
174.248711
30
0.000000
42
-1.000000
0
VERTEX
8
HOLE
10
165.000000
20
174.248711
30
0.000000
42
-1.000000
0
SEQEND
8
HOLE
0
POLYLINE
8
HOLE
66
1
10
0.000000
20
0.000000
30
0.000000
70
1
0
VERTEX
8
HOLE
10
166.500000
20
174.248711
30
0.000000
42
-1.000000
0
VERTEX
8
HOLE
10
168.500000
20
174.248711
30
0.000000
42
-1.000000
0
SEQEND
8
HOLE
0
POLYLINE
8
HOLE
66
1
10
0.000000
20
0.000000
30
0.000000
70
1
0
VERTEX
8
HOLE
10
170.000000
20
174.248711
30
0.000000
42
-1.000000
0
VERTEX
8
HOLE
10
172.000000
20
174.248711
30
0.000000
42
-1.000000
0
SEQEND
8
HOLE
0
POLYLINE
8
HOLE
66
1
10
0.000000
20
0.000000
30
0.000000
70
1
0
VERTEX
8
HOLE
10
173.500000
20
174.248711
30
0.000000
42
-1.000000
0
VERTEX
8
HOLE
10
175.500000
20
174.248711
30
0.000000
42
-1.000000
0
SEQEND
8
HOLE
0
POLYLINE
8
HOLE
66
1
10
0.000000
20
0.000000
30
0.000000
70
1
0
VERTEX
8
HOLE
10
177.000000
20
174.248711
30
0.000000
42
-1.000000
0
VERTEX
8
HOLE
10
179.000000
20
174.248711
30
0.000000
42
-1.000000
0
SEQEND
8
HOLE
0
POLYLINE
8
HOLE
66
1
10
0.000000
20
0.000000
30
0.000000
70
1
0
VERTEX
8
HOLE
10
180.500000
20
174.248711
30
0.000000
42
-1.000000
0
VERTEX
8
HOLE
10
182.500000
20
174.248711
30
0.000000
42
-1.000000
0
SEQEND
8
HOLE
0
POLYLINE
8
HOLE
66
1
10
0.000000
20
0.000000
30
0.000000
70
1
0
VERTEX
8
HOLE
10
119.250000
20
177.279800
30
0.000000
42
-1.000000
0
VERTEX
8
HOLE
10
121.250000
20
177.279800
30
0.000000
42
-1.000000
0
SEQEND
8
HOLE
0
POLYLINE
8
HOLE
66
1
10
0.000000
20
0.000000
30
0.000000
70
1
0
VERTEX
8
HOLE
10
122.750000
20
177.279800
30
0.000000
42
-1.000000
0
VERTEX
8
HOLE
10
124.750000
20
177.279800
30
0.000000
42
-1.000000
0
SEQEND
8
HOLE
0
POLYLINE
8
HOLE
66
1
10
0.000000
20
0.000000
30
0.000000
70
1
0
VERTEX
8
HOLE
10
126.250000
20
177.279800
30
0.000000
42
-1.000000
0
VERTEX
8
HOLE
10
128.250000
20
177.279800
30
0.000000
42
-1.000000
0
SEQEND
8
HOLE
0
POLYLINE
8
HOLE
66
1
10
0.000000
20
0.000000
30
0.000000
70
1
0
VERTEX
8
HOLE
10
129.750000
20
177.279800
30
0.000000
42
-1.000000
0
VERTEX
8
HOLE
10
131.750000
20
177.279800
30
0.000000
42
-1.000000
0
SEQEND
8
HOLE
0
POLYLINE
8
HOLE
66
1
10
0.000000
20
0.000000
30
0.000000
70
1
0
VERTEX
8
HOLE
10
133.250000
20
177.279800
30
0.000000
42
-1.000000
0
VERTEX
8
HOLE
10
135.250000
20
177.279800
30
0.000000
42
-1.000000
0
SEQEND
8
HOLE
0
POLYLINE
8
HOLE
66
1
10
0.000000
20
0.000000
30
0.000000
70
1
0
VERTEX
8
HOLE
10
136.750000
20
177.279800
30
0.000000
42
-1.000000
0
VERTEX
8
HOLE
10
138.750000
20
177.279800
30
0.000000
42
-1.000000
0
SEQEND
8
HOLE
0
POLYLINE
8
HOLE
66
1
10
0.000000
20
0.000000
30
0.000000
70
1
0
VERTEX
8
HOLE
10
140.250000
20
177.279800
30
0.000000
42
-1.000000
0
VERTEX
8
HOLE
10
142.250000
20
177.279800
30
0.000000
42
-1.000000
0
SEQEND
8
HOLE
0
POLYLINE
8
HOLE
66
1
10
0.000000
20
0.000000
30
0.000000
70
1
0
VERTEX
8
HOLE
10
143.750000
20
177.279800
30
0.000000
42
-1.000000
0
VERTEX
8
HOLE
10
145.750000
20
177.279800
30
0.000000
42
-1.000000
0
SEQEND
8
HOLE
0
POLYLINE
8
HOLE
66
1
10
0.000000
20
0.000000
30
0.000000
70
1
0
VERTEX
8
HOLE
10
147.250000
20
177.279800
30
0.000000
42
-1.000000
0
VERTEX
8
HOLE
10
149.250000
20
177.279800
30
0.000000
42
-1.000000
0
SEQEND
8
HOLE
0
POLYLINE
8
HOLE
66
1
10
0.000000
20
0.000000
30
0.000000
70
1
0
VERTEX
8
HOLE
10
150.750000
20
177.279800
30
0.000000
42
-1.000000
0
VERTEX
8
HOLE
10
152.750000
20
177.279800
30
0.000000
42
-1.000000
0
SEQEND
8
HOLE
0
POLYLINE
8
HOLE
66
1
10
0.000000
20
0.000000
30
0.000000
70
1
0
VERTEX
8
HOLE
10
154.250000
20
177.279800
30
0.000000
42
-1.000000
0
VERTEX
8
HOLE
10
156.250000
20
177.279800
30
0.000000
42
-1.000000
0
SEQEND
8
HOLE
0
POLYLINE
8
HOLE
66
1
10
0.000000
20
0.000000
30
0.000000
70
1
0
VERTEX
8
HOLE
10
157.750000
20
177.279800
30
0.000000
42
-1.000000
0
VERTEX
8
HOLE
10
159.750000
20
177.279800
30
0.000000
42
-1.000000
0
SEQEND
8
HOLE
0
POLYLINE
8
HOLE
66
1
10
0.000000
20
0.000000
30
0.000000
70
1
0
VERTEX
8
HOLE
10
161.250000
20
177.279800
30
0.000000
42
-1.000000
0
VERTEX
8
HOLE
10
163.250000
20
177.279800
30
0.000000
42
-1.000000
0
SEQEND
8
HOLE
0
POLYLINE
8
HOLE
66
1
10
0.000000
20
0.000000
30
0.000000
70
1
0
VERTEX
8
HOLE
10
164.750000
20
177.279800
30
0.000000
42
-1.000000
0
VERTEX
8
HOLE
10
166.750000
20
177.279800
30
0.000000
42
-1.000000
0
SEQEND
8
HOLE
0
POLYLINE
8
HOLE
66
1
10
0.000000
20
0.000000
30
0.000000
70
1
0
VERTEX
8
HOLE
10
168.250000
20
177.279800
30
0.000000
42
-1.000000
0
VERTEX
8
HOLE
10
170.250000
20
177.279800
30
0.000000
42
-1.000000
0
SEQEND
8
HOLE
0
POLYLINE
8
HOLE
66
1
10
0.000000
20
0.000000
30
0.000000
70
1
0
VERTEX
8
HOLE
10
171.750000
20
177.279800
30
0.000000
42
-1.000000
0
VERTEX
8
HOLE
10
173.750000
20
177.279800
30
0.000000
42
-1.000000
0
SEQEND
8
HOLE
0
POLYLINE
8
HOLE
66
1
10
0.000000
20
0.000000
30
0.000000
70
1
0
VERTEX
8
HOLE
10
175.250000
20
177.279800
30
0.000000
42
-1.000000
0
VERTEX
8
HOLE
10
177.250000
20
177.279800
30
0.000000
42
-1.000000
0
SEQEND
8
HOLE
0
POLYLINE
8
HOLE
66
1
10
0.000000
20
0.000000
30
0.000000
70
1
0
VERTEX
8
HOLE
10
178.750000
20
177.279800
30
0.000000
42
-1.000000
0
VERTEX
8
HOLE
10
180.750000
20
177.279800
30
0.000000
42
-1.000000
0
SEQEND
8
HOLE
0
POLYLINE
8
HOLE
66
1
10
0.000000
20
0.000000
30
0.000000
70
1
0
VERTEX
8
HOLE
10
182.250000
20
177.279800
30
0.000000
42
-1.000000
0
VERTEX
8
HOLE
10
184.250000
20
177.279800
30
0.000000
42
-1.000000
0
SEQEND
8
HOLE
0
POLYLINE
8
HOLE
66
1
10
0.000000
20
0.000000
30
0.000000
70
1
0
VERTEX
8
HOLE
10
117.500000
20
180.310889
30
0.000000
42
-1.000000
0
VERTEX
8
HOLE
10
119.500000
20
180.310889
30
0.000000
42
-1.000000
0
SEQEND
8
HOLE
0
POLYLINE
8
HOLE
66
1
10
0.000000
20
0.000000
30
0.000000
70
1
0
VERTEX
8
HOLE
10
121.000000
20
180.310889
30
0.000000
42
-1.000000
0
VERTEX
8
HOLE
10
123.000000
20
180.310889
30
0.000000
42
-1.000000
0
SEQEND
8
HOLE
0
POLYLINE
8
HOLE
66
1
10
0.000000
20
0.000000
30
0.000000
70
1
0
VERTEX
8
HOLE
10
124.500000
20
180.310889
30
0.000000
42
-1.000000
0
VERTEX
8
HOLE
10
126.500000
20
180.310889
30
0.000000
42
-1.000000
0
SEQEND
8
HOLE
0
POLYLINE
8
HOLE
66
1
10
0.000000
20
0.000000
30
0.000000
70
1
0
VERTEX
8
HOLE
10
128.000000
20
180.310889
30
0.000000
42
-1.000000
0
VERTEX
8
HOLE
10
130.000000
20
180.310889
30
0.000000
42
-1.000000
0
SEQEND
8
HOLE
0
POLYLINE
8
HOLE
66
1
10
0.000000
20
0.000000
30
0.000000
70
1
0
VERTEX
8
HOLE
10
131.500000
20
180.310889
30
0.000000
42
-1.000000
0
VERTEX
8
HOLE
10
133.500000
20
180.310889
30
0.000000
42
-1.000000
0
SEQEND
8
HOLE
0
POLYLINE
8
HOLE
66
1
10
0.000000
20
0.000000
30
0.000000
70
1
0
VERTEX
8
HOLE
10
135.000000
20
180.310889
30
0.000000
42
-1.000000
0
VERTEX
8
HOLE
10
137.000000
20
180.310889
30
0.000000
42
-1.000000
0
SEQEND
8
HOLE
0
POLYLINE
8
HOLE
66
1
10
0.000000
20
0.000000
30
0.000000
70
1
0
VERTEX
8
HOLE
10
138.500000
20
180.310889
30
0.000000
42
-1.000000
0
VERTEX
8
HOLE
10
140.500000
20
180.310889
30
0.000000
42
-1.000000
0
SEQEND
8
HOLE
0
POLYLINE
8
HOLE
66
1
10
0.000000
20
0.000000
30
0.000000
70
1
0
VERTEX
8
HOLE
10
142.000000
20
180.310889
30
0.000000
42
-1.000000
0
VERTEX
8
HOLE
10
144.000000
20
180.310889
30
0.000000
42
-1.000000
0
SEQEND
8
HOLE
0
POLYLINE
8
HOLE
66
1
10
0.000000
20
0.000000
30
0.000000
70
1
0
VERTEX
8
HOLE
10
145.500000
20
180.310889
30
0.000000
42
-1.000000
0
VERTEX
8
HOLE
10
147.500000
20
180.310889
30
0.000000
42
-1.000000
0
SEQEND
8
HOLE
0
POLYLINE
8
HOLE
66
1
10
0.000000
20
0.000000
30
0.000000
70
1
0
VERTEX
8
HOLE
10
149.000000
20
180.310889
30
0.000000
42
-1.000000
0
VERTEX
8
HOLE
10
151.000000
20
180.310889
30
0.000000
42
-1.000000
0
SEQEND
8
HOLE
0
POLYLINE
8
HOLE
66
1
10
0.000000
20
0.000000
30
0.000000
70
1
0
VERTEX
8
HOLE
10
152.500000
20
180.310889
30
0.000000
42
-1.000000
0
VERTEX
8
HOLE
10
154.500000
20
180.310889
30
0.000000
42
-1.000000
0
SEQEND
8
HOLE
0
POLYLINE
8
HOLE
66
1
10
0.000000
20
0.000000
30
0.000000
70
1
0
VERTEX
8
HOLE
10
156.000000
20
180.310889
30
0.000000
42
-1.000000
0
VERTEX
8
HOLE
10
158.000000
20
180.310889
30
0.000000
42
-1.000000
0
SEQEND
8
HOLE
0
POLYLINE
8
HOLE
66
1
10
0.000000
20
0.000000
30
0.000000
70
1
0
VERTEX
8
HOLE
10
159.500000
20
180.310889
30
0.000000
42
-1.000000
0
VERTEX
8
HOLE
10
161.500000
20
180.310889
30
0.000000
42
-1.000000
0
SEQEND
8
HOLE
0
POLYLINE
8
HOLE
66
1
10
0.000000
20
0.000000
30
0.000000
70
1
0
VERTEX
8
HOLE
10
163.000000
20
180.310889
30
0.000000
42
-1.000000
0
VERTEX
8
HOLE
10
165.000000
20
180.310889
30
0.000000
42
-1.000000
0
SEQEND
8
HOLE
0
POLYLINE
8
HOLE
66
1
10
0.000000
20
0.000000
30
0.000000
70
1
0
VERTEX
8
HOLE
10
166.500000
20
180.310889
30
0.000000
42
-1.000000
0
VERTEX
8
HOLE
10
168.500000
20
180.310889
30
0.000000
42
-1.000000
0
SEQEND
8
HOLE
0
POLYLINE
8
HOLE
66
1
10
0.000000
20
0.000000
30
0.000000
70
1
0
VERTEX
8
HOLE
10
170.000000
20
180.310889
30
0.000000
42
-1.000000
0
VERTEX
8
HOLE
10
172.000000
20
180.310889
30
0.000000
42
-1.000000
0
SEQEND
8
HOLE
0
POLYLINE
8
HOLE
66
1
10
0.000000
20
0.000000
30
0.000000
70
1
0
VERTEX
8
HOLE
10
173.500000
20
180.310889
30
0.000000
42
-1.000000
0
VERTEX
8
HOLE
10
175.500000
20
180.310889
30
0.000000
42
-1.000000
0
SEQEND
8
HOLE
0
POLYLINE
8
HOLE
66
1
10
0.000000
20
0.000000
30
0.000000
70
1
0
VERTEX
8
HOLE
10
177.000000
20
180.310889
30
0.000000
42
-1.000000
0
VERTEX
8
HOLE
10
179.000000
20
180.310889
30
0.000000
42
-1.000000
0
SEQEND
8
HOLE
0
POLYLINE
8
HOLE
66
1
10
0.000000
20
0.000000
30
0.000000
70
1
0
VERTEX
8
HOLE
10
180.500000
20
180.310889
30
0.000000
42
-1.000000
0
VERTEX
8
HOLE
10
182.500000
20
180.310889
30
0.000000
42
-1.000000
0
SEQEND
8
HOLE
0
POLYLINE
8
HOLE
66
1
10
0.000000
20
0.000000
30
0.000000
70
1
0
VERTEX
8
HOLE
10
119.250000
20
183.341978
30
0.000000
42
-1.000000
0
VERTEX
8
HOLE
10
121.250000
20
183.341978
30
0.000000
42
-1.000000
0
SEQEND
8
HOLE
0
POLYLINE
8
HOLE
66
1
10
0.000000
20
0.000000
30
0.000000
70
1
0
VERTEX
8
HOLE
10
122.750000
20
183.341978
30
0.000000
42
-1.000000
0
VERTEX
8
HOLE
10
124.750000
20
183.341978
30
0.000000
42
-1.000000
0
SEQEND
8
HOLE
0
POLYLINE
8
HOLE
66
1
10
0.000000
20
0.000000
30
0.000000
70
1
0
VERTEX
8
HOLE
10
126.250000
20
183.341978
30
0.000000
42
-1.000000
0
VERTEX
8
HOLE
10
128.250000
20
183.341978
30
0.000000
42
-1.000000
0
SEQEND
8
HOLE
0
POLYLINE
8
HOLE
66
1
10
0.000000
20
0.000000
30
0.000000
70
1
0
VERTEX
8
HOLE
10
129.750000
20
183.341978
30
0.000000
42
-1.000000
0
VERTEX
8
HOLE
10
131.750000
20
183.341978
30
0.000000
42
-1.000000
0
SEQEND
8
HOLE
0
POLYLINE
8
HOLE
66
1
10
0.000000
20
0.000000
30
0.000000
70
1
0
VERTEX
8
HOLE
10
133.250000
20
183.341978
30
0.000000
42
-1.000000
0
VERTEX
8
HOLE
10
135.250000
20
183.341978
30
0.000000
42
-1.000000
0
SEQEND
8
HOLE
0
POLYLINE
8
HOLE
66
1
10
0.000000
20
0.000000
30
0.000000
70
1
0
VERTEX
8
HOLE
10
136.750000
20
183.341978
30
0.000000
42
-1.000000
0
VERTEX
8
HOLE
10
138.750000
20
183.341978
30
0.000000
42
-1.000000
0
SEQEND
8
HOLE
0
POLYLINE
8
HOLE
66
1
10
0.000000
20
0.000000
30
0.000000
70
1
0
VERTEX
8
HOLE
10
140.250000
20
183.341978
30
0.000000
42
-1.000000
0
VERTEX
8
HOLE
10
142.250000
20
183.341978
30
0.000000
42
-1.000000
0
SEQEND
8
HOLE
0
POLYLINE
8
HOLE
66
1
10
0.000000
20
0.000000
30
0.000000
70
1
0
VERTEX
8
HOLE
10
143.750000
20
183.341978
30
0.000000
42
-1.000000
0
VERTEX
8
HOLE
10
145.750000
20
183.341978
30
0.000000
42
-1.000000
0
SEQEND
8
HOLE
0
POLYLINE
8
HOLE
66
1
10
0.000000
20
0.000000
30
0.000000
70
1
0
VERTEX
8
HOLE
10
147.250000
20
183.341978
30
0.000000
42
-1.000000
0
VERTEX
8
HOLE
10
149.250000
20
183.341978
30
0.000000
42
-1.000000
0
SEQEND
8
HOLE
0
POLYLINE
8
HOLE
66
1
10
0.000000
20
0.000000
30
0.000000
70
1
0
VERTEX
8
HOLE
10
150.750000
20
183.341978
30
0.000000
42
-1.000000
0
VERTEX
8
HOLE
10
152.750000
20
183.341978
30
0.000000
42
-1.000000
0
SEQEND
8
HOLE
0
POLYLINE
8
HOLE
66
1
10
0.000000
20
0.000000
30
0.000000
70
1
0
VERTEX
8
HOLE
10
154.250000
20
183.341978
30
0.000000
42
-1.000000
0
VERTEX
8
HOLE
10
156.250000
20
183.341978
30
0.000000
42
-1.000000
0
SEQEND
8
HOLE
0
POLYLINE
8
HOLE
66
1
10
0.000000
20
0.000000
30
0.000000
70
1
0
VERTEX
8
HOLE
10
157.750000
20
183.341978
30
0.000000
42
-1.000000
0
VERTEX
8
HOLE
10
159.750000
20
183.341978
30
0.000000
42
-1.000000
0
SEQEND
8
HOLE
0
POLYLINE
8
HOLE
66
1
10
0.000000
20
0.000000
30
0.000000
70
1
0
VERTEX
8
HOLE
10
161.250000
20
183.341978
30
0.000000
42
-1.000000
0
VERTEX
8
HOLE
10
163.250000
20
183.341978
30
0.000000
42
-1.000000
0
SEQEND
8
HOLE
0
POLYLINE
8
HOLE
66
1
10
0.000000
20
0.000000
30
0.000000
70
1
0
VERTEX
8
HOLE
10
164.750000
20
183.341978
30
0.000000
42
-1.000000
0
VERTEX
8
HOLE
10
166.750000
20
183.341978
30
0.000000
42
-1.000000
0
SEQEND
8
HOLE
0
POLYLINE
8
HOLE
66
1
10
0.000000
20
0.000000
30
0.000000
70
1
0
VERTEX
8
HOLE
10
168.250000
20
183.341978
30
0.000000
42
-1.000000
0
VERTEX
8
HOLE
10
170.250000
20
183.341978
30
0.000000
42
-1.000000
0
SEQEND
8
HOLE
0
POLYLINE
8
HOLE
66
1
10
0.000000
20
0.000000
30
0.000000
70
1
0
VERTEX
8
HOLE
10
171.750000
20
183.341978
30
0.000000
42
-1.000000
0
VERTEX
8
HOLE
10
173.750000
20
183.341978
30
0.000000
42
-1.000000
0
SEQEND
8
HOLE
0
POLYLINE
8
HOLE
66
1
10
0.000000
20
0.000000
30
0.000000
70
1
0
VERTEX
8
HOLE
10
175.250000
20
183.341978
30
0.000000
42
-1.000000
0
VERTEX
8
HOLE
10
177.250000
20
183.341978
30
0.000000
42
-1.000000
0
SEQEND
8
HOLE
0
POLYLINE
8
HOLE
66
1
10
0.000000
20
0.000000
30
0.000000
70
1
0
VERTEX
8
HOLE
10
178.750000
20
183.341978
30
0.000000
42
-1.000000
0
VERTEX
8
HOLE
10
180.750000
20
183.341978
30
0.000000
42
-1.000000
0
SEQEND
8
HOLE
0
POLYLINE
8
HOLE
66
1
10
0.000000
20
0.000000
30
0.000000
70
1
0
VERTEX
8
HOLE
10
121.000000
20
186.373067
30
0.000000
42
-1.000000
0
VERTEX
8
HOLE
10
123.000000
20
186.373067
30
0.000000
42
-1.000000
0
SEQEND
8
HOLE
0
POLYLINE
8
HOLE
66
1
10
0.000000
20
0.000000
30
0.000000
70
1
0
VERTEX
8
HOLE
10
124.500000
20
186.373067
30
0.000000
42
-1.000000
0
VERTEX
8
HOLE
10
126.500000
20
186.373067
30
0.000000
42
-1.000000
0
SEQEND
8
HOLE
0
POLYLINE
8
HOLE
66
1
10
0.000000
20
0.000000
30
0.000000
70
1
0
VERTEX
8
HOLE
10
128.000000
20
186.373067
30
0.000000
42
-1.000000
0
VERTEX
8
HOLE
10
130.000000
20
186.373067
30
0.000000
42
-1.000000
0
SEQEND
8
HOLE
0
POLYLINE
8
HOLE
66
1
10
0.000000
20
0.000000
30
0.000000
70
1
0
VERTEX
8
HOLE
10
131.500000
20
186.373067
30
0.000000
42
-1.000000
0
VERTEX
8
HOLE
10
133.500000
20
186.373067
30
0.000000
42
-1.000000
0
SEQEND
8
HOLE
0
POLYLINE
8
HOLE
66
1
10
0.000000
20
0.000000
30
0.000000
70
1
0
VERTEX
8
HOLE
10
135.000000
20
186.373067
30
0.000000
42
-1.000000
0
VERTEX
8
HOLE
10
137.000000
20
186.373067
30
0.000000
42
-1.000000
0
SEQEND
8
HOLE
0
POLYLINE
8
HOLE
66
1
10
0.000000
20
0.000000
30
0.000000
70
1
0
VERTEX
8
HOLE
10
138.500000
20
186.373067
30
0.000000
42
-1.000000
0
VERTEX
8
HOLE
10
140.500000
20
186.373067
30
0.000000
42
-1.000000
0
SEQEND
8
HOLE
0
POLYLINE
8
HOLE
66
1
10
0.000000
20
0.000000
30
0.000000
70
1
0
VERTEX
8
HOLE
10
142.000000
20
186.373067
30
0.000000
42
-1.000000
0
VERTEX
8
HOLE
10
144.000000
20
186.373067
30
0.000000
42
-1.000000
0
SEQEND
8
HOLE
0
POLYLINE
8
HOLE
66
1
10
0.000000
20
0.000000
30
0.000000
70
1
0
VERTEX
8
HOLE
10
145.500000
20
186.373067
30
0.000000
42
-1.000000
0
VERTEX
8
HOLE
10
147.500000
20
186.373067
30
0.000000
42
-1.000000
0
SEQEND
8
HOLE
0
POLYLINE
8
HOLE
66
1
10
0.000000
20
0.000000
30
0.000000
70
1
0
VERTEX
8
HOLE
10
149.000000
20
186.373067
30
0.000000
42
-1.000000
0
VERTEX
8
HOLE
10
151.000000
20
186.373067
30
0.000000
42
-1.000000
0
SEQEND
8
HOLE
0
POLYLINE
8
HOLE
66
1
10
0.000000
20
0.000000
30
0.000000
70
1
0
VERTEX
8
HOLE
10
152.500000
20
186.373067
30
0.000000
42
-1.000000
0
VERTEX
8
HOLE
10
154.500000
20
186.373067
30
0.000000
42
-1.000000
0
SEQEND
8
HOLE
0
POLYLINE
8
HOLE
66
1
10
0.000000
20
0.000000
30
0.000000
70
1
0
VERTEX
8
HOLE
10
156.000000
20
186.373067
30
0.000000
42
-1.000000
0
VERTEX
8
HOLE
10
158.000000
20
186.373067
30
0.000000
42
-1.000000
0
SEQEND
8
HOLE
0
POLYLINE
8
HOLE
66
1
10
0.000000
20
0.000000
30
0.000000
70
1
0
VERTEX
8
HOLE
10
159.500000
20
186.373067
30
0.000000
42
-1.000000
0
VERTEX
8
HOLE
10
161.500000
20
186.373067
30
0.000000
42
-1.000000
0
SEQEND
8
HOLE
0
POLYLINE
8
HOLE
66
1
10
0.000000
20
0.000000
30
0.000000
70
1
0
VERTEX
8
HOLE
10
163.000000
20
186.373067
30
0.000000
42
-1.000000
0
VERTEX
8
HOLE
10
165.000000
20
186.373067
30
0.000000
42
-1.000000
0
SEQEND
8
HOLE
0
POLYLINE
8
HOLE
66
1
10
0.000000
20
0.000000
30
0.000000
70
1
0
VERTEX
8
HOLE
10
166.500000
20
186.373067
30
0.000000
42
-1.000000
0
VERTEX
8
HOLE
10
168.500000
20
186.373067
30
0.000000
42
-1.000000
0
SEQEND
8
HOLE
0
POLYLINE
8
HOLE
66
1
10
0.000000
20
0.000000
30
0.000000
70
1
0
VERTEX
8
HOLE
10
170.000000
20
186.373067
30
0.000000
42
-1.000000
0
VERTEX
8
HOLE
10
172.000000
20
186.373067
30
0.000000
42
-1.000000
0
SEQEND
8
HOLE
0
POLYLINE
8
HOLE
66
1
10
0.000000
20
0.000000
30
0.000000
70
1
0
VERTEX
8
HOLE
10
173.500000
20
186.373067
30
0.000000
42
-1.000000
0
VERTEX
8
HOLE
10
175.500000
20
186.373067
30
0.000000
42
-1.000000
0
SEQEND
8
HOLE
0
POLYLINE
8
HOLE
66
1
10
0.000000
20
0.000000
30
0.000000
70
1
0
VERTEX
8
HOLE
10
177.000000
20
186.373067
30
0.000000
42
-1.000000
0
VERTEX
8
HOLE
10
179.000000
20
186.373067
30
0.000000
42
-1.000000
0
SEQEND
8
HOLE
0
POLYLINE
8
HOLE
66
1
10
0.000000
20
0.000000
30
0.000000
70
1
0
VERTEX
8
HOLE
10
126.250000
20
189.404156
30
0.000000
42
-1.000000
0
VERTEX
8
HOLE
10
128.250000
20
189.404156
30
0.000000
42
-1.000000
0
SEQEND
8
HOLE
0
POLYLINE
8
HOLE
66
1
10
0.000000
20
0.000000
30
0.000000
70
1
0
VERTEX
8
HOLE
10
129.750000
20
189.404156
30
0.000000
42
-1.000000
0
VERTEX
8
HOLE
10
131.750000
20
189.404156
30
0.000000
42
-1.000000
0
SEQEND
8
HOLE
0
POLYLINE
8
HOLE
66
1
10
0.000000
20
0.000000
30
0.000000
70
1
0
VERTEX
8
HOLE
10
133.250000
20
189.404156
30
0.000000
42
-1.000000
0
VERTEX
8
HOLE
10
135.250000
20
189.404156
30
0.000000
42
-1.000000
0
SEQEND
8
HOLE
0
POLYLINE
8
HOLE
66
1
10
0.000000
20
0.000000
30
0.000000
70
1
0
VERTEX
8
HOLE
10
136.750000
20
189.404156
30
0.000000
42
-1.000000
0
VERTEX
8
HOLE
10
138.750000
20
189.404156
30
0.000000
42
-1.000000
0
SEQEND
8
HOLE
0
POLYLINE
8
HOLE
66
1
10
0.000000
20
0.000000
30
0.000000
70
1
0
VERTEX
8
HOLE
10
140.250000
20
189.404156
30
0.000000
42
-1.000000
0
VERTEX
8
HOLE
10
142.250000
20
189.404156
30
0.000000
42
-1.000000
0
SEQEND
8
HOLE
0
POLYLINE
8
HOLE
66
1
10
0.000000
20
0.000000
30
0.000000
70
1
0
VERTEX
8
HOLE
10
143.750000
20
189.404156
30
0.000000
42
-1.000000
0
VERTEX
8
HOLE
10
145.750000
20
189.404156
30
0.000000
42
-1.000000
0
SEQEND
8
HOLE
0
POLYLINE
8
HOLE
66
1
10
0.000000
20
0.000000
30
0.000000
70
1
0
VERTEX
8
HOLE
10
147.250000
20
189.404156
30
0.000000
42
-1.000000
0
VERTEX
8
HOLE
10
149.250000
20
189.404156
30
0.000000
42
-1.000000
0
SEQEND
8
HOLE
0
POLYLINE
8
HOLE
66
1
10
0.000000
20
0.000000
30
0.000000
70
1
0
VERTEX
8
HOLE
10
150.750000
20
189.404156
30
0.000000
42
-1.000000
0
VERTEX
8
HOLE
10
152.750000
20
189.404156
30
0.000000
42
-1.000000
0
SEQEND
8
HOLE
0
POLYLINE
8
HOLE
66
1
10
0.000000
20
0.000000
30
0.000000
70
1
0
VERTEX
8
HOLE
10
154.250000
20
189.404156
30
0.000000
42
-1.000000
0
VERTEX
8
HOLE
10
156.250000
20
189.404156
30
0.000000
42
-1.000000
0
SEQEND
8
HOLE
0
POLYLINE
8
HOLE
66
1
10
0.000000
20
0.000000
30
0.000000
70
1
0
VERTEX
8
HOLE
10
157.750000
20
189.404156
30
0.000000
42
-1.000000
0
VERTEX
8
HOLE
10
159.750000
20
189.404156
30
0.000000
42
-1.000000
0
SEQEND
8
HOLE
0
POLYLINE
8
HOLE
66
1
10
0.000000
20
0.000000
30
0.000000
70
1
0
VERTEX
8
HOLE
10
161.250000
20
189.404156
30
0.000000
42
-1.000000
0
VERTEX
8
HOLE
10
163.250000
20
189.404156
30
0.000000
42
-1.000000
0
SEQEND
8
HOLE
0
POLYLINE
8
HOLE
66
1
10
0.000000
20
0.000000
30
0.000000
70
1
0
VERTEX
8
HOLE
10
164.750000
20
189.404156
30
0.000000
42
-1.000000
0
VERTEX
8
HOLE
10
166.750000
20
189.404156
30
0.000000
42
-1.000000
0
SEQEND
8
HOLE
0
POLYLINE
8
HOLE
66
1
10
0.000000
20
0.000000
30
0.000000
70
1
0
VERTEX
8
HOLE
10
168.250000
20
189.404156
30
0.000000
42
-1.000000
0
VERTEX
8
HOLE
10
170.250000
20
189.404156
30
0.000000
42
-1.000000
0
SEQEND
8
HOLE
0
POLYLINE
8
HOLE
66
1
10
0.000000
20
0.000000
30
0.000000
70
1
0
VERTEX
8
HOLE
10
171.750000
20
189.404156
30
0.000000
42
-1.000000
0
VERTEX
8
HOLE
10
173.750000
20
189.404156
30
0.000000
42
-1.000000
0
SEQEND
8
HOLE
0
POLYLINE
8
HOLE
66
1
10
0.000000
20
0.000000
30
0.000000
70
1
0
VERTEX
8
HOLE
10
131.500000
20
192.435245
30
0.000000
42
-1.000000
0
VERTEX
8
HOLE
10
133.500000
20
192.435245
30
0.000000
42
-1.000000
0
SEQEND
8
HOLE
0
POLYLINE
8
HOLE
66
1
10
0.000000
20
0.000000
30
0.000000
70
1
0
VERTEX
8
HOLE
10
135.000000
20
192.435245
30
0.000000
42
-1.000000
0
VERTEX
8
HOLE
10
137.000000
20
192.435245
30
0.000000
42
-1.000000
0
SEQEND
8
HOLE
0
POLYLINE
8
HOLE
66
1
10
0.000000
20
0.000000
30
0.000000
70
1
0
VERTEX
8
HOLE
10
138.500000
20
192.435245
30
0.000000
42
-1.000000
0
VERTEX
8
HOLE
10
140.500000
20
192.435245
30
0.000000
42
-1.000000
0
SEQEND
8
HOLE
0
POLYLINE
8
HOLE
66
1
10
0.000000
20
0.000000
30
0.000000
70
1
0
VERTEX
8
HOLE
10
142.000000
20
192.435245
30
0.000000
42
-1.000000
0
VERTEX
8
HOLE
10
144.000000
20
192.435245
30
0.000000
42
-1.000000
0
SEQEND
8
HOLE
0
POLYLINE
8
HOLE
66
1
10
0.000000
20
0.000000
30
0.000000
70
1
0
VERTEX
8
HOLE
10
145.500000
20
192.435245
30
0.000000
42
-1.000000
0
VERTEX
8
HOLE
10
147.500000
20
192.435245
30
0.000000
42
-1.000000
0
SEQEND
8
HOLE
0
POLYLINE
8
HOLE
66
1
10
0.000000
20
0.000000
30
0.000000
70
1
0
VERTEX
8
HOLE
10
149.000000
20
192.435245
30
0.000000
42
-1.000000
0
VERTEX
8
HOLE
10
151.000000
20
192.435245
30
0.000000
42
-1.000000
0
SEQEND
8
HOLE
0
POLYLINE
8
HOLE
66
1
10
0.000000
20
0.000000
30
0.000000
70
1
0
VERTEX
8
HOLE
10
152.500000
20
192.435245
30
0.000000
42
-1.000000
0
VERTEX
8
HOLE
10
154.500000
20
192.435245
30
0.000000
42
-1.000000
0
SEQEND
8
HOLE
0
POLYLINE
8
HOLE
66
1
10
0.000000
20
0.000000
30
0.000000
70
1
0
VERTEX
8
HOLE
10
156.000000
20
192.435245
30
0.000000
42
-1.000000
0
VERTEX
8
HOLE
10
158.000000
20
192.435245
30
0.000000
42
-1.000000
0
SEQEND
8
HOLE
0
POLYLINE
8
HOLE
66
1
10
0.000000
20
0.000000
30
0.000000
70
1
0
VERTEX
8
HOLE
10
159.500000
20
192.435245
30
0.000000
42
-1.000000
0
VERTEX
8
HOLE
10
161.500000
20
192.435245
30
0.000000
42
-1.000000
0
SEQEND
8
HOLE
0
POLYLINE
8
HOLE
66
1
10
0.000000
20
0.000000
30
0.000000
70
1
0
VERTEX
8
HOLE
10
163.000000
20
192.435245
30
0.000000
42
-1.000000
0
VERTEX
8
HOLE
10
165.000000
20
192.435245
30
0.000000
42
-1.000000
0
SEQEND
8
HOLE
0
POLYLINE
8
HOLE
66
1
10
0.000000
20
0.000000
30
0.000000
70
1
0
VERTEX
8
HOLE
10
166.500000
20
192.435245
30
0.000000
42
-1.000000
0
VERTEX
8
HOLE
10
168.500000
20
192.435245
30
0.000000
42
-1.000000
0
SEQEND
8
HOLE
0
POLYLINE
8
HOLE
66
1
10
0.000000
20
0.000000
30
0.000000
70
1
0
VERTEX
8
HOLE
10
143.750000
20
195.466334
30
0.000000
42
-1.000000
0
VERTEX
8
HOLE
10
145.750000
20
195.466334
30
0.000000
42
-1.000000
0
SEQEND
8
HOLE
0
POLYLINE
8
HOLE
66
1
10
0.000000
20
0.000000
30
0.000000
70
1
0
VERTEX
8
HOLE
10
147.250000
20
195.466334
30
0.000000
42
-1.000000
0
VERTEX
8
HOLE
10
149.250000
20
195.466334
30
0.000000
42
-1.000000
0
SEQEND
8
HOLE
0
POLYLINE
8
HOLE
66
1
10
0.000000
20
0.000000
30
0.000000
70
1
0
VERTEX
8
HOLE
10
150.750000
20
195.466334
30
0.000000
42
-1.000000
0
VERTEX
8
HOLE
10
152.750000
20
195.466334
30
0.000000
42
-1.000000
0
SEQEND
8
HOLE
0
POLYLINE
8
HOLE
66
1
10
0.000000
20
0.000000
30
0.000000
70
1
0
VERTEX
8
HOLE
10
154.250000
20
195.466334
30
0.000000
42
-1.000000
0
VERTEX
8
HOLE
10
156.250000
20
195.466334
30
0.000000
42
-1.000000
0
SEQEND
8
HOLE
0
ENDSEC
0
EOF
