0
SECTION
2
HEADER
9
$ACADVER
1
AC1009
9
$DWGCODEPAGE
3
ANSI_949
9
$INSBASE
10
0.000000
20
0.000000
30
0.000000
9
$EXTMIN
10
0.000000
20
0.000000
30
0.000000
9
$EXTMAX
10
1266.061839
20
600.000000
30
0.000000
9
$LUNITS
70
2
9
$INSUNITS
70
4
9
$LIMMIN
10
0.000000
20
0.000000
9
$LIMMAX
10
1266.061839
20
600.000000
0
ENDSEC
0
SECTION
2
TABLES
0
TABLE
2
LTYPE
70
3
0
LTYPE
2
CONTINUOUS
70
64
3
Solid line
72
65
73
0
40
0.000000
0
LTYPE
2
DASHED
70
64
3
Dashed __ __ __ __
72
65
73
2
40
6.000000
49
4.000000
49
-2.000000
0
LTYPE
2
CENTER
70
64
3
Center ____ _ ____
72
65
73
4
40
12.000000
49
8.000000
49
-1.500000
49
1.000000
49
-1.500000
0
ENDTAB
0
TABLE
2
LAYER
70
10
0
LAYER
2
CUT
70
0
62
7
6
CONTINUOUS
0
LAYER
2
HOLE
70
0
62
7
6
CONTINUOUS
0
LAYER
2
BEND
70
0
62
6
6
DASHED
0
LAYER
2
MARK
70
0
62
4
6
CONTINUOUS
0
LAYER
2
CENTER
70
0
62
2
6
CENTER
0
LAYER
2
HIDDEN
70
0
62
8
6
DASHED
0
LAYER
2
DIM
70
0
62
3
6
CONTINUOUS
0
LAYER
2
TEXT
70
0
62
3
6
CONTINUOUS
0
LAYER
2
FRAME
70
0
62
7
6
CONTINUOUS
0
LAYER
2
NOTE
70
0
62
8
6
CONTINUOUS
0
ENDTAB
0
TABLE
2
STYLE
70
1
0
STYLE
2
STANDARD
70
0
40
0.000000
41
1.000000
50
0.000000
71
0
42
2.500000
3
txt
4

0
ENDTAB
0
ENDSEC
0
SECTION
2
BLOCKS
0
ENDSEC
0
SECTION
2
ENTITIES
0
POLYLINE
8
CUT
66
1
10
0.000000
20
0.000000
30
0.000000
70
1
0
VERTEX
8
CUT
10
0.000000
20
0.000000
30
0.000000
0
VERTEX
8
CUT
10
1266.061839
20
0.000000
30
0.000000
0
VERTEX
8
CUT
10
1266.061839
20
600.000000
30
0.000000
0
VERTEX
8
CUT
10
0.000000
20
600.000000
30
0.000000
0
SEQEND
8
CUT
0
POLYLINE
8
HOLE
66
1
10
0.000000
20
0.000000
30
0.000000
70
1
0
VERTEX
8
HOLE
10
778.088650
20
413.589838
30
0.000000
42
-1.000000
0
VERTEX
8
HOLE
10
804.488650
20
413.589838
30
0.000000
42
-1.000000
0
SEQEND
8
HOLE
0
POLYLINE
8
HOLE
66
1
10
0.000000
20
0.000000
30
0.000000
70
1
0
VERTEX
8
HOLE
10
1088.254109
20
388.589838
30
0.000000
42
-1.000000
0
VERTEX
8
HOLE
10
1127.354109
20
388.589838
30
0.000000
42
-1.000000
0
SEQEND
8
HOLE
0
POLYLINE
8
HOLE
66
1
10
0.000000
20
0.000000
30
0.000000
70
1
0
VERTEX
8
HOLE
10
151.407730
20
173.589838
30
0.000000
42
-1.000000
0
VERTEX
8
HOLE
10
165.107730
20
173.589838
30
0.000000
42
-1.000000
0
SEQEND
8
HOLE
0
POLYLINE
8
HOLE
66
1
10
0.000000
20
0.000000
30
0.000000
70
1
0
VERTEX
8
HOLE
10
467.923190
20
213.589838
30
0.000000
42
-1.000000
0
VERTEX
8
HOLE
10
481.623190
20
213.589838
30
0.000000
42
-1.000000
0
SEQEND
8
HOLE
0
POLYLINE
8
HOLE
66
1
10
0.000000
20
0.000000
30
0.000000
70
1
0
VERTEX
8
HOLE
10
467.923190
20
53.589838
30
0.000000
42
-1.000000
0
VERTEX
8
HOLE
10
481.623190
20
53.589838
30
0.000000
42
-1.000000
0
SEQEND
8
HOLE
0
POLYLINE
8
HOLE
66
1
10
0.000000
20
0.000000
30
0.000000
70
1
0
VERTEX
8
HOLE
10
467.923190
20
133.589838
30
0.000000
42
-1.000000
0
VERTEX
8
HOLE
10
481.623190
20
133.589838
30
0.000000
42
-1.000000
0
SEQEND
8
HOLE
0
POLYLINE
8
HOLE
66
1
10
0.000000
20
0.000000
30
0.000000
70
1
0
VERTEX
8
HOLE
10
467.923190
20
293.589838
30
0.000000
42
-1.000000
0
VERTEX
8
HOLE
10
481.623190
20
293.589838
30
0.000000
42
-1.000000
0
SEQEND
8
HOLE
0
POLYLINE
8
HOLE
66
1
10
0.000000
20
0.000000
30
0.000000
70
1
0
VERTEX
8
HOLE
10
467.923190
20
373.589838
30
0.000000
42
-1.000000
0
VERTEX
8
HOLE
10
481.623190
20
373.589838
30
0.000000
42
-1.000000
0
SEQEND
8
HOLE
0
POLYLINE
8
HOLE
66
1
10
0.000000
20
0.000000
30
0.000000
70
1
0
VERTEX
8
HOLE
10
580.530920
20
343.589838
30
0.000000
42
-1.000000
0
VERTEX
8
HOLE
10
685.530920
20
343.589838
30
0.000000
42
-1.000000
0
SEQEND
8
HOLE
0
ENDSEC
0
EOF
