<svg viewBox="0 0 1440 1080" role="img" aria-label="SV-01 원형 시브 분해도와 부품표">
<defs>
<marker id="ar" viewBox="0 0 10 10" refX="5" refY="5" markerWidth="6"
  markerHeight="6" orient="auto"><path d="M0,2 L6,5 L0,8 z" fill="currentColor"/></marker>
<pattern id="hatch" width="7" height="7" patternTransform="rotate(45)"
  patternUnits="userSpaceOnUse">
  <line x1="0" y1="0" x2="0" y2="7" style="stroke:currentColor;stroke-width:1;opacity:.35"/>
</pattern>
</defs>
<style>
.ln{fill:none;stroke:currentColor;stroke-width:1.6}
.ln2{fill:none;stroke:currentColor;stroke-width:1.1}
.thin{fill:none;stroke:currentColor;stroke-width:.8;opacity:.55}
.hid{fill:none;stroke:currentColor;stroke-width:.9;stroke-dasharray:6 4;opacity:.5}
.ctr{fill:none;stroke:currentColor;stroke-width:.8;stroke-dasharray:14 3 3 3;opacity:.55}
.dim{fill:none;stroke:currentColor;stroke-width:.9;opacity:.75}
.lead{fill:none;stroke:currentColor;stroke-width:.8;opacity:.6}
.fillA{fill:var(--c1-wash,rgba(180,101,42,.12));stroke:currentColor;stroke-width:1.4}
.fillB{fill:var(--c2-wash,rgba(176,53,122,.12));stroke:currentColor;stroke-width:1.4}
.fillC{fill:var(--c3-wash,rgba(0,113,176,.12));stroke:currentColor;stroke-width:1.4}
.fillG{fill:currentColor;fill-opacity:.07;stroke:currentColor;stroke-width:1.4}
.hatchf{fill:url(#hatch);stroke:currentColor;stroke-width:1.4}
.bal{fill:var(--surface,#fff);stroke:currentColor;stroke-width:1.2}
.t{font-family:var(--ff-body,system-ui);font-size:12px;fill:currentColor}
.ts{font-family:var(--ff-body,system-ui);font-size:10.5px;fill:currentColor;opacity:.8}
.td{font-family:var(--ff-mono,monospace);font-size:10.5px;fill:currentColor;opacity:.85}
.tb{font-family:var(--ff-mono,monospace);font-size:11px;font-weight:700;fill:currentColor}
.th{font-family:var(--ff-body,system-ui);font-size:13px;font-weight:700;fill:currentColor}
</style>
<text x="40.0" y="36.0" class="th" text-anchor="start">SHEET 3 — 분해도 (EXPLODED VIEW) 및 부품표</text>
<text x="40.0" y="56.0" class="ts" text-anchor="start">분해·조립은 반드시 전원 차단 · 잠금표지(LOTO) 후 시행한다</text>
<line x1="430.0" y1="110.0" x2="430.0" y2="1010.0" class="ctr"/>
<path d="M406.2,130.0 L240.0,173.3 A190.0,32.3 0 0 0 620.0,173.3 L453.8,130.0 A23.8,4.0 0 0 1 406.2,130.0 Z" class="fillG"/>
<path d="M406.2,104.0 L406.2,130.0 A23.8,4.0 0 0 0 453.8,130.0 L453.8,104.0 A23.8,4.0 0 0 1 406.2,104.0 Z" class="fillG"/>
<ellipse cx="430.0" cy="104.0" rx="23.8" ry="4.0" class="fillG"/>
<line x1="240.0" y1="151.7" x2="170.0" y2="151.7" class="lead"/>
<circle cx="170.0" cy="151.7" r="11.0" class="bal"/>
<text x="170.0" y="155.7" class="tb" text-anchor="middle">1</text>
<text x="152.0" y="155.7" class="ts" text-anchor="end">피드 호퍼 · 상부 커버</text>
<ellipse cx="430.0" cy="213.3" rx="190.0" ry="32.3" class="fillB"/>
<ellipse cx="430.0" cy="213.3" rx="167.2" ry="28.4" class="ln2"/>
<line x1="240.0" y1="218.3" x2="170.0" y2="218.3" class="lead"/>
<circle cx="170.0" cy="218.3" r="11.0" class="bal"/>
<text x="170.0" y="222.3" class="tb" text-anchor="middle">7</text>
<text x="152.0" y="222.3" class="ts" text-anchor="end">실리콘 개스킷</text>
<path d="M240.0,263.3 L240.0,303.0 A190.0,32.3 0 0 0 620.0,303.0 L620.0,263.3 A190.0,32.3 0 0 1 240.0,263.3 Z" class="fillG"/>
<ellipse cx="430.0" cy="265.3" rx="171.0" ry="29.1" class="fillC"/>
<line x1="285.3" y1="249.8" x2="285.3" y2="280.8" class="thin"/>
<line x1="338.9" y1="240.7" x2="521.1" y2="240.7" class="thin"/>
<line x1="311.6" y1="244.3" x2="311.6" y2="286.3" class="thin"/>
<line x1="306.6" y1="245.2" x2="553.4" y2="245.2" class="thin"/>
<line x1="337.9" y1="240.8" x2="337.9" y2="289.8" class="thin"/>
<line x1="285.9" y1="249.7" x2="574.1" y2="249.7" class="thin"/>
<line x1="364.2" y1="238.5" x2="364.2" y2="292.2" class="thin"/>
<line x1="272.2" y1="254.1" x2="587.8" y2="254.1" class="thin"/>
<line x1="390.5" y1="237.0" x2="390.5" y2="293.6" class="thin"/>
<line x1="263.6" y1="258.6" x2="596.4" y2="258.6" class="thin"/>
<line x1="416.8" y1="236.3" x2="416.8" y2="294.3" class="thin"/>
<line x1="259.5" y1="263.1" x2="600.5" y2="263.1" class="thin"/>
<line x1="443.2" y1="236.3" x2="443.2" y2="294.3" class="thin"/>
<line x1="259.5" y1="267.6" x2="600.5" y2="267.6" class="thin"/>
<line x1="469.5" y1="237.0" x2="469.5" y2="293.6" class="thin"/>
<line x1="263.6" y1="272.0" x2="596.4" y2="272.0" class="thin"/>
<line x1="495.8" y1="238.5" x2="495.8" y2="292.2" class="thin"/>
<line x1="272.2" y1="276.5" x2="587.8" y2="276.5" class="thin"/>
<line x1="522.1" y1="240.8" x2="522.1" y2="289.8" class="thin"/>
<line x1="285.9" y1="281.0" x2="574.1" y2="281.0" class="thin"/>
<line x1="548.4" y1="244.3" x2="548.4" y2="286.3" class="thin"/>
<line x1="306.6" y1="285.4" x2="553.4" y2="285.4" class="thin"/>
<line x1="574.7" y1="249.8" x2="574.7" y2="280.8" class="thin"/>
<line x1="338.9" y1="289.9" x2="521.1" y2="289.9" class="thin"/>
<line x1="240.0" y1="283.2" x2="170.0" y2="283.2" class="lead"/>
<circle cx="170.0" cy="283.2" r="11.0" class="bal"/>
<text x="170.0" y="287.2" class="tb" text-anchor="middle">2</text>
<text x="152.0" y="287.2" class="ts" text-anchor="end">스크린 프레임 280 µm</text>
<ellipse cx="430.0" cy="343.0" rx="190.0" ry="32.3" class="fillB"/>
<ellipse cx="430.0" cy="343.0" rx="167.2" ry="28.4" class="ln2"/>
<line x1="240.0" y1="348.0" x2="170.0" y2="348.0" class="lead"/>
<circle cx="170.0" cy="348.0" r="11.0" class="bal"/>
<text x="170.0" y="352.0" class="tb" text-anchor="middle">7</text>
<text x="152.0" y="352.0" class="ts" text-anchor="end">실리콘 개스킷</text>
<path d="M240.0,393.0 L240.0,432.7 A190.0,32.3 0 0 0 620.0,432.7 L620.0,393.0 A190.0,32.3 0 0 1 240.0,393.0 Z" class="fillG"/>
<ellipse cx="430.0" cy="395.0" rx="171.0" ry="29.1" class="fillC"/>
<line x1="285.3" y1="379.5" x2="285.3" y2="410.5" class="thin"/>
<line x1="338.9" y1="370.4" x2="521.1" y2="370.4" class="thin"/>
<line x1="311.6" y1="374.1" x2="311.6" y2="416.0" class="thin"/>
<line x1="306.6" y1="374.9" x2="553.4" y2="374.9" class="thin"/>
<line x1="337.9" y1="370.5" x2="337.9" y2="419.5" class="thin"/>
<line x1="285.9" y1="379.4" x2="574.1" y2="379.4" class="thin"/>
<line x1="364.2" y1="368.2" x2="364.2" y2="421.9" class="thin"/>
<line x1="272.2" y1="383.8" x2="587.8" y2="383.8" class="thin"/>
<line x1="390.5" y1="366.7" x2="390.5" y2="423.3" class="thin"/>
<line x1="263.6" y1="388.3" x2="596.4" y2="388.3" class="thin"/>
<line x1="416.8" y1="366.0" x2="416.8" y2="424.0" class="thin"/>
<line x1="259.5" y1="392.8" x2="600.5" y2="392.8" class="thin"/>
<line x1="443.2" y1="366.0" x2="443.2" y2="424.0" class="thin"/>
<line x1="259.5" y1="397.3" x2="600.5" y2="397.3" class="thin"/>
<line x1="469.5" y1="366.7" x2="469.5" y2="423.3" class="thin"/>
<line x1="263.6" y1="401.7" x2="596.4" y2="401.7" class="thin"/>
<line x1="495.8" y1="368.2" x2="495.8" y2="421.9" class="thin"/>
<line x1="272.2" y1="406.2" x2="587.8" y2="406.2" class="thin"/>
<line x1="522.1" y1="370.5" x2="522.1" y2="419.5" class="thin"/>
<line x1="285.9" y1="410.7" x2="574.1" y2="410.7" class="thin"/>
<line x1="548.4" y1="374.1" x2="548.4" y2="416.0" class="thin"/>
<line x1="306.6" y1="415.2" x2="553.4" y2="415.2" class="thin"/>
<line x1="574.7" y1="379.5" x2="574.7" y2="410.5" class="thin"/>
<line x1="338.9" y1="419.6" x2="521.1" y2="419.6" class="thin"/>
<line x1="240.0" y1="412.9" x2="170.0" y2="412.9" class="lead"/>
<circle cx="170.0" cy="412.9" r="11.0" class="bal"/>
<text x="170.0" y="416.9" class="tb" text-anchor="middle">3</text>
<text x="152.0" y="416.9" class="ts" text-anchor="end">스크린 프레임 106 µm</text>
<ellipse cx="430.0" cy="472.7" rx="190.0" ry="32.3" class="fillB"/>
<ellipse cx="430.0" cy="472.7" rx="167.2" ry="28.4" class="ln2"/>
<line x1="240.0" y1="477.7" x2="170.0" y2="477.7" class="lead"/>
<circle cx="170.0" cy="477.7" r="11.0" class="bal"/>
<text x="170.0" y="481.7" class="tb" text-anchor="middle">7</text>
<text x="152.0" y="481.7" class="ts" text-anchor="end">실리콘 개스킷</text>
<path d="M240.0,522.7 L240.0,562.5 A190.0,32.3 0 0 0 620.0,562.5 L620.0,522.7 A190.0,32.3 0 0 1 240.0,522.7 Z" class="fillG"/>
<ellipse cx="430.0" cy="524.7" rx="171.0" ry="29.1" class="fillC"/>
<line x1="285.3" y1="509.2" x2="285.3" y2="540.2" class="thin"/>
<line x1="338.9" y1="500.1" x2="521.1" y2="500.1" class="thin"/>
<line x1="311.6" y1="503.8" x2="311.6" y2="545.7" class="thin"/>
<line x1="306.6" y1="504.6" x2="553.4" y2="504.6" class="thin"/>
<line x1="337.9" y1="500.2" x2="337.9" y2="549.2" class="thin"/>
<line x1="285.9" y1="509.1" x2="574.1" y2="509.1" class="thin"/>
<line x1="364.2" y1="497.9" x2="364.2" y2="551.6" class="thin"/>
<line x1="272.2" y1="513.6" x2="587.8" y2="513.6" class="thin"/>
<line x1="390.5" y1="496.5" x2="390.5" y2="553.0" class="thin"/>
<line x1="263.6" y1="518.0" x2="596.4" y2="518.0" class="thin"/>
<line x1="416.8" y1="495.8" x2="416.8" y2="553.7" class="thin"/>
<line x1="259.5" y1="522.5" x2="600.5" y2="522.5" class="thin"/>
<line x1="443.2" y1="495.8" x2="443.2" y2="553.7" class="thin"/>
<line x1="259.5" y1="527.0" x2="600.5" y2="527.0" class="thin"/>
<line x1="469.5" y1="496.5" x2="469.5" y2="553.0" class="thin"/>
<line x1="263.6" y1="531.4" x2="596.4" y2="531.4" class="thin"/>
<line x1="495.8" y1="497.9" x2="495.8" y2="551.6" class="thin"/>
<line x1="272.2" y1="535.9" x2="587.8" y2="535.9" class="thin"/>
<line x1="522.1" y1="500.2" x2="522.1" y2="549.2" class="thin"/>
<line x1="285.9" y1="540.4" x2="574.1" y2="540.4" class="thin"/>
<line x1="548.4" y1="503.8" x2="548.4" y2="545.7" class="thin"/>
<line x1="306.6" y1="544.9" x2="553.4" y2="544.9" class="thin"/>
<line x1="574.7" y1="509.2" x2="574.7" y2="540.2" class="thin"/>
<line x1="338.9" y1="549.3" x2="521.1" y2="549.3" class="thin"/>
<line x1="240.0" y1="542.6" x2="170.0" y2="542.6" class="lead"/>
<circle cx="170.0" cy="542.6" r="11.0" class="bal"/>
<text x="170.0" y="546.6" class="tb" text-anchor="middle">4</text>
<text x="152.0" y="546.6" class="ts" text-anchor="end">스크린 프레임 75 µm</text>
<ellipse cx="430.0" cy="602.5" rx="190.0" ry="32.3" class="fillB"/>
<ellipse cx="430.0" cy="602.5" rx="167.2" ry="28.4" class="ln2"/>
<line x1="240.0" y1="607.5" x2="170.0" y2="607.5" class="lead"/>
<circle cx="170.0" cy="607.5" r="11.0" class="bal"/>
<text x="170.0" y="611.5" class="tb" text-anchor="middle">7</text>
<text x="152.0" y="611.5" class="ts" text-anchor="end">실리콘 개스킷</text>
<path d="M240.0,652.5 L240.0,692.2 A190.0,32.3 0 0 0 620.0,692.2 L620.0,652.5 A190.0,32.3 0 0 1 240.0,652.5 Z" class="fillG"/>
<ellipse cx="430.0" cy="654.5" rx="171.0" ry="29.1" class="fillB"/>
<line x1="240.0" y1="672.3" x2="170.0" y2="672.3" class="lead"/>
<circle cx="170.0" cy="672.3" r="11.0" class="bal"/>
<text x="170.0" y="676.3" class="tb" text-anchor="middle">6</text>
<text x="152.0" y="676.3" class="ts" text-anchor="end">팬 (하부 배출반)</text>
<path d="M294.6,732.2 L314.6,734.9 L294.6,737.6 L314.6,740.3 L294.6,743.0 L314.6,745.7 L294.6,748.4 L314.6,751.1 L294.6,753.8 L314.6,756.5 L294.6,759.2 L314.6,761.9 L294.6,764.7" class="ln2"/>
<path d="M545.4,732.2 L565.4,734.9 L545.4,737.6 L565.4,740.3 L545.4,743.0 L565.4,745.7 L545.4,748.4 L565.4,751.1 L545.4,753.8 L565.4,756.5 L545.4,759.2 L565.4,761.9 L545.4,764.7" class="ln2"/>
<line x1="240.0" y1="748.4" x2="170.0" y2="748.4" class="lead"/>
<circle cx="170.0" cy="748.4" r="11.0" class="bal"/>
<text x="170.0" y="752.4" class="tb" text-anchor="middle">12</text>
<text x="152.0" y="752.4" class="ts" text-anchor="end">코일스프링 6 EA</text>
<path d="M287.5,804.7 L287.5,869.6 A142.5,24.2 0 0 0 572.5,869.6 L572.5,804.7 A142.5,24.2 0 0 1 287.5,804.7 Z" class="fillG"/>
<ellipse cx="430.0" cy="804.7" rx="142.5" ry="24.2" class="fillG"/>
<rect x="404.0" y="820.9" width="52.0" height="32.5" class="hatchf" />
<text x="430.0" y="840.4" class="tb" text-anchor="middle">M</text>
<line x1="240.0" y1="837.1" x2="170.0" y2="837.1" class="lead"/>
<circle cx="170.0" cy="837.1" r="11.0" class="bal"/>
<text x="170.0" y="841.1" class="tb" text-anchor="middle">11</text>
<text x="152.0" y="841.1" class="ts" text-anchor="end">베이스 프레임 · 진동모터</text>
<line x1="620.0" y1="300.0" x2="690.0" y2="300.0" class="lead"/>
<circle cx="690.0" cy="300.0" r="11.0" class="bal"/>
<text x="690.0" y="304.0" class="tb" text-anchor="middle">8</text>
<text x="706.0" y="304.0" class="ts" text-anchor="start">토글 클램프 8 EA — 데크 간 체결</text>
<line x1="620.0" y1="430.0" x2="690.0" y2="430.0" class="lead"/>
<circle cx="690.0" cy="430.0" r="11.0" class="bal"/>
<text x="690.0" y="434.0" class="tb" text-anchor="middle">9</text>
<text x="706.0" y="434.0" class="ts" text-anchor="start">초음파 트랜스듀서 3 EA — 프레임 외주 볼트 고정</text>
<line x1="620.0" y1="560.0" x2="690.0" y2="560.0" class="lead"/>
<circle cx="690.0" cy="560.0" r="11.0" class="bal"/>
<text x="690.0" y="564.0" class="tb" text-anchor="middle">5</text>
<text x="706.0" y="564.0" class="ts" text-anchor="start">볼 데크 (백업) — 초음파 정지 시 임시 운전용</text>
<text x="760.0" y="626.0" class="th" text-anchor="start">부품표 (BOM)</text>
<rect x="760.0" y="640.0" width="640.0" height="325.0" class="ln2" />
<line x1="760.0" y1="666.0" x2="1400.0" y2="666.0" class="ln2"/>
<line x1="804.0" y1="640.0" x2="804.0" y2="965.0" class="thin"/>
<line x1="1120.0" y1="640.0" x2="1120.0" y2="965.0" class="thin"/>
<line x1="1330.0" y1="640.0" x2="1330.0" y2="965.0" class="thin"/>
<text x="770.0" y="658.0" class="td" text-anchor="start">No</text>
<text x="814.0" y="658.0" class="td" text-anchor="start">품명</text>
<text x="1130.0" y="658.0" class="td" text-anchor="start">재질 · 사양</text>
<text x="1340.0" y="658.0" class="td" text-anchor="start">수량</text>
<text x="770.0" y="683.0" class="td" text-anchor="start">1</text>
<text x="814.0" y="683.0" class="ts" text-anchor="start">피드 호퍼 · 상부 커버</text>
<text x="1130.0" y="683.0" class="ts" text-anchor="start">STS304 t3</text>
<text x="1340.0" y="683.0" class="td" text-anchor="start">1</text>
<text x="770.0" y="700.0" class="td" text-anchor="start">2</text>
<text x="814.0" y="700.0" class="ts" text-anchor="start">스크린 프레임 (280 µm)</text>
<text x="1130.0" y="700.0" class="ts" text-anchor="start">STS304 / 메쉬 STS316</text>
<text x="1340.0" y="700.0" class="td" text-anchor="start">1</text>
<text x="770.0" y="717.0" class="td" text-anchor="start">3</text>
<text x="814.0" y="717.0" class="ts" text-anchor="start">스크린 프레임 (106 µm)</text>
<text x="1130.0" y="717.0" class="ts" text-anchor="start">STS304 / 메쉬 STS316</text>
<text x="1340.0" y="717.0" class="td" text-anchor="start">1</text>
<text x="770.0" y="734.0" class="td" text-anchor="start">4</text>
<text x="814.0" y="734.0" class="ts" text-anchor="start">스크린 프레임 (75 µm)</text>
<text x="1130.0" y="734.0" class="ts" text-anchor="start">STS304 / 메쉬 STS316</text>
<text x="1340.0" y="734.0" class="td" text-anchor="start">1</text>
<text x="770.0" y="751.0" class="td" text-anchor="start">5</text>
<text x="814.0" y="751.0" class="ts" text-anchor="start">볼 데크 (백업)</text>
<text x="1130.0" y="751.0" class="ts" text-anchor="start">STS304 + 실리콘 볼</text>
<text x="1340.0" y="751.0" class="td" text-anchor="start">3</text>
<text x="770.0" y="768.0" class="td" text-anchor="start">6</text>
<text x="814.0" y="768.0" class="ts" text-anchor="start">팬 (하부 배출반)</text>
<text x="1130.0" y="768.0" class="ts" text-anchor="start">STS304 t3</text>
<text x="1340.0" y="768.0" class="td" text-anchor="start">1</text>
<text x="770.0" y="785.0" class="td" text-anchor="start">7</text>
<text x="814.0" y="785.0" class="ts" text-anchor="start">실리콘 개스킷</text>
<text x="1130.0" y="785.0" class="ts" text-anchor="start">백색 실리콘 FDA</text>
<text x="1340.0" y="785.0" class="td" text-anchor="start">4</text>
<text x="770.0" y="802.0" class="td" text-anchor="start">8</text>
<text x="814.0" y="802.0" class="ts" text-anchor="start">토글 클램프 링</text>
<text x="1130.0" y="802.0" class="ts" text-anchor="start">STS304</text>
<text x="1340.0" y="802.0" class="td" text-anchor="start">8</text>
<text x="770.0" y="819.0" class="td" text-anchor="start">9</text>
<text x="814.0" y="819.0" class="ts" text-anchor="start">초음파 트랜스듀서</text>
<text x="1130.0" y="819.0" class="ts" text-anchor="start">35 kHz · 200 W</text>
<text x="1340.0" y="819.0" class="td" text-anchor="start">3</text>
<text x="770.0" y="836.0" class="td" text-anchor="start">10</text>
<text x="814.0" y="836.0" class="ts" text-anchor="start">초음파 제너레이터</text>
<text x="1130.0" y="836.0" class="ts" text-anchor="start">3 ch · 600 W</text>
<text x="1340.0" y="836.0" class="td" text-anchor="start">1</text>
<text x="770.0" y="853.0" class="td" text-anchor="start">11</text>
<text x="814.0" y="853.0" class="ts" text-anchor="start">베이스 링 (앵커)</text>
<text x="1130.0" y="853.0" class="ts" text-anchor="start">SS400 도장</text>
<text x="1340.0" y="853.0" class="td" text-anchor="start">1</text>
<text x="770.0" y="870.0" class="td" text-anchor="start">17</text>
<text x="814.0" y="870.0" class="ts" text-anchor="start">진동 테이블 (모터 캐리어)</text>
<text x="1130.0" y="870.0" class="ts" text-anchor="start">SS400 / STS304 클래드</text>
<text x="1340.0" y="870.0" class="td" text-anchor="start">1</text>
<text x="770.0" y="887.0" class="td" text-anchor="start">12</text>
<text x="814.0" y="887.0" class="ts" text-anchor="start">코일 스프링</text>
<text x="1130.0" y="887.0" class="ts" text-anchor="start">SUP9 Ø60×120</text>
<text x="1340.0" y="887.0" class="td" text-anchor="start">6</text>
<text x="770.0" y="904.0" class="td" text-anchor="start">13</text>
<text x="814.0" y="904.0" class="ts" text-anchor="start">수직축 진동모터</text>
<text x="1130.0" y="904.0" class="ts" text-anchor="start">2.2 kW · 960 rpm</text>
<text x="1340.0" y="904.0" class="td" text-anchor="start">1</text>
<text x="770.0" y="921.0" class="td" text-anchor="start">14</text>
<text x="814.0" y="921.0" class="ts" text-anchor="start">상·하 불평형추</text>
<text x="1130.0" y="921.0" class="ts" text-anchor="start">주조강</text>
<text x="1340.0" y="921.0" class="td" text-anchor="start">2</text>
<text x="770.0" y="938.0" class="td" text-anchor="start">15</text>
<text x="814.0" y="938.0" class="ts" text-anchor="start">배출 슈트</text>
<text x="1130.0" y="938.0" class="ts" text-anchor="start">STS304</text>
<text x="1340.0" y="938.0" class="td" text-anchor="start">4</text>
<text x="770.0" y="955.0" class="td" text-anchor="start">16</text>
<text x="814.0" y="955.0" class="ts" text-anchor="start">접지 본딩 스트랩</text>
<text x="1130.0" y="955.0" class="ts" text-anchor="start">동편조선 · 방폭</text>
<text x="1340.0" y="955.0" class="td" text-anchor="start">6</text>
<text x="760.0" y="985.0" class="ts" text-anchor="start">※ 개스킷(7)은 분해 시마다 신품 교체. 재사용하면 데크 간 누설로 분획이 섞인다.</text>
</svg>