0
SECTION
2
HEADER
9
$ACADVER
1
AC1009
9
$DWGCODEPAGE
3
ANSI_949
9
$INSBASE
10
0.000000
20
0.000000
30
0.000000
9
$EXTMIN
10
10.000000
20
5.000000
30
0.000000
9
$EXTMAX
10
415.000000
20
292.000000
30
0.000000
9
$LUNITS
70
2
9
$INSUNITS
70
4
9
$LIMMIN
10
10.000000
20
5.000000
9
$LIMMAX
10
415.000000
20
292.000000
0
ENDSEC
0
SECTION
2
TABLES
0
TABLE
2
LTYPE
70
3
0
LTYPE
2
CONTINUOUS
70
64
3
Solid line
72
65
73
0
40
0.000000
0
LTYPE
2
DASHED
70
64
3
Dashed __ __ __ __
72
65
73
2
40
6.000000
49
4.000000
49
-2.000000
0
LTYPE
2
CENTER
70
64
3
Center ____ _ ____
72
65
73
4
40
12.000000
49
8.000000
49
-1.500000
49
1.000000
49
-1.500000
0
ENDTAB
0
TABLE
2
LAYER
70
10
0
LAYER
2
CUT
70
0
62
7
6
CONTINUOUS
0
LAYER
2
HOLE
70
0
62
7
6
CONTINUOUS
0
LAYER
2
BEND
70
0
62
6
6
DASHED
0
LAYER
2
MARK
70
0
62
4
6
CONTINUOUS
0
LAYER
2
CENTER
70
0
62
2
6
CENTER
0
LAYER
2
HIDDEN
70
0
62
8
6
DASHED
0
LAYER
2
DIM
70
0
62
3
6
CONTINUOUS
0
LAYER
2
TEXT
70
0
62
3
6
CONTINUOUS
0
LAYER
2
FRAME
70
0
62
7
6
CONTINUOUS
0
LAYER
2
NOTE
70
0
62
8
6
CONTINUOUS
0
ENDTAB
0
TABLE
2
STYLE
70
1
0
STYLE
2
STANDARD
70
0
40
0.000000
41
1.000000
50
0.000000
71
0
42
2.500000
3
txt
4

0
ENDTAB
0
ENDSEC
0
SECTION
2
BLOCKS
0
ENDSEC
0
SECTION
2
ENTITIES
0
POLYLINE
8
FRAME
66
1
10
0.000000
20
0.000000
30
0.000000
70
1
0
VERTEX
8
FRAME
10
12.000000
20
281.000000
30
0.000000
0
VERTEX
8
FRAME
10
28.275248
20
281.000000
30
0.000000
0
VERTEX
8
FRAME
10
28.275248
20
290.000000
30
0.000000
0
VERTEX
8
FRAME
10
12.000000
20
290.000000
30
0.000000
0
SEQEND
8
FRAME
0
TEXT
8
TEXT
10
14.000000
20
286.600000
30
0.000000
40
1.900000
1
재질
50
0.000000
7
STANDARD
0
TEXT
8
FRAME
10
14.000000
20
282.600000
30
0.000000
40
2.700000
1
SUS304
50
0.000000
7
STANDARD
0
POLYLINE
8
FRAME
66
1
10
0.000000
20
0.000000
30
0.000000
70
1
0
VERTEX
8
FRAME
10
29.875248
20
281.000000
30
0.000000
0
VERTEX
8
FRAME
10
39.860144
20
281.000000
30
0.000000
0
VERTEX
8
FRAME
10
39.860144
20
290.000000
30
0.000000
0
VERTEX
8
FRAME
10
29.875248
20
290.000000
30
0.000000
0
SEQEND
8
FRAME
0
TEXT
8
TEXT
10
31.875248
20
286.600000
30
0.000000
40
1.900000
1
수량
50
0.000000
7
STANDARD
0
TEXT
8
FRAME
10
31.875248
20
282.600000
30
0.000000
40
2.700000
1
1 개
50
0.000000
7
STANDARD
0
POLYLINE
8
FRAME
66
1
10
0.000000
20
0.000000
30
0.000000
70
1
0
VERTEX
8
FRAME
10
41.460144
20
281.000000
30
0.000000
0
VERTEX
8
FRAME
10
51.260144
20
281.000000
30
0.000000
0
VERTEX
8
FRAME
10
51.260144
20
290.000000
30
0.000000
0
VERTEX
8
FRAME
10
41.460144
20
290.000000
30
0.000000
0
SEQEND
8
FRAME
0
TEXT
8
TEXT
10
43.460144
20
286.600000
30
0.000000
40
1.900000
1
형상
50
0.000000
7
STANDARD
0
TEXT
8
FRAME
10
43.460144
20
282.600000
30
0.000000
40
2.700000
1
판재
50
0.000000
7
STANDARD
0
POLYLINE
8
FRAME
66
1
10
0.000000
20
0.000000
30
0.000000
70
1
0
VERTEX
8
FRAME
10
52.860144
20
281.000000
30
0.000000
0
VERTEX
8
FRAME
10
65.468144
20
281.000000
30
0.000000
0
VERTEX
8
FRAME
10
65.468144
20
290.000000
30
0.000000
0
VERTEX
8
FRAME
10
52.860144
20
290.000000
30
0.000000
0
SEQEND
8
FRAME
0
TEXT
8
TEXT
10
54.860144
20
286.600000
30
0.000000
40
1.900000
1
두께·길이
50
0.000000
7
STANDARD
0
TEXT
8
FRAME
10
54.860144
20
282.600000
30
0.000000
40
2.700000
1
8 mm
50
0.000000
7
STANDARD
0
POLYLINE
8
FRAME
66
1
10
0.000000
20
0.000000
30
0.000000
70
1
0
VERTEX
8
FRAME
10
67.068144
20
281.000000
30
0.000000
0
VERTEX
8
FRAME
10
91.051568
20
281.000000
30
0.000000
0
VERTEX
8
FRAME
10
91.051568
20
290.000000
30
0.000000
0
VERTEX
8
FRAME
10
67.068144
20
290.000000
30
0.000000
0
SEQEND
8
FRAME
0
TEXT
8
TEXT
10
69.068144
20
286.600000
30
0.000000
40
1.900000
1
일반공차
50
0.000000
7
STANDARD
0
TEXT
8
FRAME
10
69.068144
20
282.600000
30
0.000000
40
2.700000
1
ISO 2768-mK
50
0.000000
7
STANDARD
0
POLYLINE
8
FRAME
66
1
10
0.000000
20
0.000000
30
0.000000
70
1
0
VERTEX
8
FRAME
10
92.651568
20
281.000000
30
0.000000
0
VERTEX
8
FRAME
10
111.297632
20
281.000000
30
0.000000
0
VERTEX
8
FRAME
10
111.297632
20
290.000000
30
0.000000
0
VERTEX
8
FRAME
10
92.651568
20
290.000000
30
0.000000
0
SEQEND
8
FRAME
0
TEXT
8
TEXT
10
94.651568
20
286.600000
30
0.000000
40
1.900000
1
설계확정도
50
0.000000
7
STANDARD
0
TEXT
8
FRAME
10
94.651568
20
282.600000
30
0.000000
40
2.700000
1
RELEASE
50
0.000000
7
STANDARD
0
POLYLINE
8
CUT
66
1
10
0.000000
20
0.000000
30
0.000000
70
1
0
VERTEX
8
CUT
10
62.000000
20
182.000000
30
0.000000
42
1.000000
0
VERTEX
8
CUT
10
182.000000
20
182.000000
30
0.000000
42
1.000000
0
SEQEND
8
CUT
0
POLYLINE
8
HOLE
66
1
10
0.000000
20
0.000000
30
0.000000
70
1
0
VERTEX
8
HOLE
10
71.250000
20
182.000000
30
0.000000
42
-1.000000
0
VERTEX
8
HOLE
10
172.750000
20
182.000000
30
0.000000
42
-1.000000
0
SEQEND
8
HOLE
0
POLYLINE
8
HOLE
66
1
10
0.000000
20
0.000000
30
0.000000
70
1
0
VERTEX
8
HOLE
10
160.024756
20
221.774756
30
0.000000
42
-1.000000
0
VERTEX
8
HOLE
10
163.524756
20
221.774756
30
0.000000
42
-1.000000
0
SEQEND
8
HOLE
0
POLYLINE
8
HOLE
66
1
10
0.000000
20
0.000000
30
0.000000
70
1
0
VERTEX
8
HOLE
10
80.475244
20
221.774756
30
0.000000
42
-1.000000
0
VERTEX
8
HOLE
10
83.975244
20
221.774756
30
0.000000
42
-1.000000
0
SEQEND
8
HOLE
0
POLYLINE
8
HOLE
66
1
10
0.000000
20
0.000000
30
0.000000
70
1
0
VERTEX
8
HOLE
10
80.475244
20
142.225244
30
0.000000
42
-1.000000
0
VERTEX
8
HOLE
10
83.975244
20
142.225244
30
0.000000
42
-1.000000
0
SEQEND
8
HOLE
0
POLYLINE
8
HOLE
66
1
10
0.000000
20
0.000000
30
0.000000
70
1
0
VERTEX
8
HOLE
10
160.024756
20
142.225244
30
0.000000
42
-1.000000
0
VERTEX
8
HOLE
10
163.524756
20
142.225244
30
0.000000
42
-1.000000
0
SEQEND
8
HOLE
0
LINE
8
CENTER
10
68.750000
20
182.000000
30
0.000000
11
175.250000
21
182.000000
31
0.000000
0
LINE
8
CENTER
10
122.000000
20
128.750000
30
0.000000
11
122.000000
21
235.250000
31
0.000000
0
LINE
8
CENTER
10
157.524756
20
221.774756
30
0.000000
11
166.024756
21
221.774756
31
0.000000
0
LINE
8
CENTER
10
161.774756
20
217.524756
30
0.000000
11
161.774756
21
226.024756
31
0.000000
0
LINE
8
CENTER
10
77.975244
20
221.774756
30
0.000000
11
86.475244
21
221.774756
31
0.000000
0
LINE
8
CENTER
10
82.225244
20
217.524756
30
0.000000
11
82.225244
21
226.024756
31
0.000000
0
LINE
8
CENTER
10
77.975244
20
142.225244
30
0.000000
11
86.475244
21
142.225244
31
0.000000
0
LINE
8
CENTER
10
82.225244
20
137.975244
30
0.000000
11
82.225244
21
146.475244
31
0.000000
0
LINE
8
CENTER
10
157.524756
20
142.225244
30
0.000000
11
166.024756
21
142.225244
31
0.000000
0
LINE
8
CENTER
10
161.774756
20
137.975244
30
0.000000
11
161.774756
21
146.475244
31
0.000000
0
POLYLINE
8
FRAME
66
1
10
0.000000
20
0.000000
30
0.000000
70
1
0
VERTEX
8
FRAME
10
10.000000
20
5.000000
30
0.000000
0
VERTEX
8
FRAME
10
415.000000
20
5.000000
30
0.000000
0
VERTEX
8
FRAME
10
415.000000
20
292.000000
30
0.000000
0
VERTEX
8
FRAME
10
10.000000
20
292.000000
30
0.000000
0
SEQEND
8
FRAME
0
POLYLINE
8
FRAME
66
1
10
0.000000
20
0.000000
30
0.000000
70
1
0
VERTEX
8
FRAME
10
237.000000
20
5.000000
30
0.000000
0
VERTEX
8
FRAME
10
415.000000
20
5.000000
30
0.000000
0
VERTEX
8
FRAME
10
415.000000
20
35.000000
30
0.000000
0
VERTEX
8
FRAME
10
237.000000
20
35.000000
30
0.000000
0
SEQEND
8
FRAME
0
LINE
8
FRAME
10
237.000000
20
22.000000
30
0.000000
11
415.000000
21
22.000000
31
0.000000
0
LINE
8
FRAME
10
355.000000
20
5.000000
30
0.000000
11
355.000000
21
35.000000
31
0.000000
0
TEXT
8
FRAME
10
240.000000
20
28.000000
30
0.000000
40
6.000000
1
A-06 지지링
50
0.000000
7
STANDARD
0
TEXT
8
TEXT
10
240.000000
20
23.600000
30
0.000000
40
2.400000
1
OD Ø480 × ID Ø406 × t8
50
0.000000
7
STANDARD
0
TEXT
8
TEXT
10
240.000000
20
18.600000
30
0.000000
40
1.900000
1
도면번호
50
0.000000
7
STANDARD
0
TEXT
8
TEXT
10
240.000000
20
14.600000
30
0.000000
40
2.700000
1
MP50-C-A-06
50
0.000000
7
STANDARD
0
TEXT
8
TEXT
10
279.000000
20
18.600000
30
0.000000
40
1.900000
1
축척
50
0.000000
7
STANDARD
0
TEXT
8
TEXT
10
279.000000
20
14.600000
30
0.000000
40
2.700000
1
1:4
50
0.000000
7
STANDARD
0
TEXT
8
TEXT
10
318.000000
20
18.600000
30
0.000000
40
1.900000
1
단위
50
0.000000
7
STANDARD
0
TEXT
8
TEXT
10
318.000000
20
14.600000
30
0.000000
40
2.700000
1
mm
50
0.000000
7
STANDARD
0
TEXT
8
TEXT
10
240.000000
20
11.000000
30
0.000000
40
1.900000
1
Rev
50
0.000000
7
STANDARD
0
TEXT
8
TEXT
10
240.000000
20
7.000000
30
0.000000
40
2.700000
1
R1
50
0.000000
7
STANDARD
0
TEXT
8
TEXT
10
279.000000
20
11.000000
30
0.000000
40
1.900000
1
날짜
50
0.000000
7
STANDARD
0
TEXT
8
TEXT
10
279.000000
20
7.000000
30
0.000000
40
2.700000
1
2026-09-10
50
0.000000
7
STANDARD
0
TEXT
8
TEXT
10
318.000000
20
11.000000
30
0.000000
40
1.900000
1
시트
50
0.000000
7
STANDARD
0
TEXT
8
TEXT
10
318.000000
20
7.000000
30
0.000000
40
2.700000
1
6/33
50
0.000000
7
STANDARD
0
TEXT
8
FRAME
10
358.000000
20
29.000000
30
0.000000
40
2.700000
1
DYNAMIC INDUSTRY
50
0.000000
7
STANDARD
0
TEXT
8
TEXT
10
358.000000
20
24.600000
30
0.000000
40
2.000000
1
MP-50 염수 밀도분리 파일럿
50
0.000000
7
STANDARD
0
TEXT
8
TEXT
10
358.000000
20
15.000000
30
0.000000
40
2.000000
1
아세이 A · 탱크 아세이
50
0.000000
7
STANDARD
0
TEXT
8
TEXT
10
358.000000
20
10.400000
30
0.000000
40
2.000000
1
설계 계산 자동생성 · 제3각법
50
0.000000
7
STANDARD
0
TEXT
8
FRAME
10
14.000000
20
262.000000
30
0.000000
40
4.600000
1
평면
50
0.000000
7
STANDARD
0
TEXT
8
TEXT
10
40.000000
20
262.000000
30
0.000000
40
2.400000
1
척도 1:4
50
0.000000
7
STANDARD
0
LINE
8
DIM
10
62.000000
20
122.000000
30
0.000000
11
62.000000
21
111.400000
31
0.000000
0
LINE
8
DIM
10
182.000000
20
122.000000
30
0.000000
11
182.000000
21
111.400000
31
0.000000
0
LINE
8
DIM
10
62.000000
20
113.000000
30
0.000000
11
182.000000
21
113.000000
31
0.000000
0
SOLID
8
DIM
10
62.000000
20
113.000000
30
0.000000
11
64.500000
21
112.200000
31
0.000000
12
64.500000
22
113.800000
32
0.000000
13
64.500000
23
113.800000
33
0.000000
0
SOLID
8
DIM
10
182.000000
20
113.000000
30
0.000000
11
179.500000
21
113.800000
31
0.000000
12
179.500000
22
112.200000
32
0.000000
13
179.500000
23
112.200000
33
0.000000
0
TEXT
8
DIM
10
122.000000
20
114.750000
30
0.000000
40
3.500000
1
480
50
0.000000
7
STANDARD
72
1
11
122.000000
21
114.750000
31
0.000000
0
LINE
8
DIM
10
62.000000
20
122.000000
30
0.000000
11
51.400000
21
122.000000
31
0.000000
0
LINE
8
DIM
10
62.000000
20
242.000000
30
0.000000
11
51.400000
21
242.000000
31
0.000000
0
LINE
8
DIM
10
53.000000
20
122.000000
30
0.000000
11
53.000000
21
242.000000
31
0.000000
0
SOLID
8
DIM
10
53.000000
20
122.000000
30
0.000000
11
53.800000
21
124.500000
31
0.000000
12
52.200000
22
124.500000
32
0.000000
13
52.200000
23
124.500000
33
0.000000
0
SOLID
8
DIM
10
53.000000
20
242.000000
30
0.000000
11
52.200000
21
239.500000
31
0.000000
12
53.800000
22
239.500000
32
0.000000
13
53.800000
23
239.500000
33
0.000000
0
TEXT
8
DIM
10
51.250000
20
182.000000
30
0.000000
40
3.500000
1
480
50
90.000000
7
STANDARD
72
1
11
51.250000
21
182.000000
31
0.000000
0
LINE
8
DIM
10
177.809313
20
204.029992
30
0.000000
11
198.000000
21
212.000000
31
0.000000
0
SOLID
8
DIM
10
177.809313
20
204.029992
30
0.000000
11
180.428435
21
204.203784
31
0.000000
12
179.840968
22
205.692033
32
0.000000
13
179.840968
23
205.692033
33
0.000000
0
LINE
8
DIM
10
198.000000
20
212.000000
30
0.000000
11
204.000000
21
212.000000
31
0.000000
0
TEXT
8
DIM
10
205.200000
20
213.050000
30
0.000000
40
3.500000
1
Ø480
50
0.000000
7
STANDARD
0
POLYLINE
8
CUT
66
1
10
0.000000
20
0.000000
30
0.000000
70
1
0
VERTEX
8
CUT
10
62.000000
20
86.000000
30
0.000000
0
VERTEX
8
CUT
10
182.000000
20
86.000000
30
0.000000
0
VERTEX
8
CUT
10
182.000000
20
88.000000
30
0.000000
0
VERTEX
8
CUT
10
62.000000
20
88.000000
30
0.000000
0
SEQEND
8
CUT
0
TEXT
8
FRAME
10
14.000000
20
94.000000
30
0.000000
40
4.600000
1
두께
50
0.000000
7
STANDARD
0
LINE
8
DIM
10
182.000000
20
86.000000
30
0.000000
11
192.600000
21
86.000000
31
0.000000
0
LINE
8
DIM
10
182.000000
20
88.000000
30
0.000000
11
192.600000
21
88.000000
31
0.000000
0
LINE
8
DIM
10
191.000000
20
86.000000
30
0.000000
11
191.000000
21
88.000000
31
0.000000
0
SOLID
8
DIM
10
191.000000
20
86.000000
30
0.000000
11
191.800000
21
88.500000
31
0.000000
12
190.200000
22
88.500000
32
0.000000
13
190.200000
23
88.500000
33
0.000000
0
SOLID
8
DIM
10
191.000000
20
88.000000
30
0.000000
11
190.200000
21
85.500000
31
0.000000
12
191.800000
22
85.500000
32
0.000000
13
191.800000
23
85.500000
33
0.000000
0
TEXT
8
DIM
10
189.250000
20
87.000000
30
0.000000
40
3.500000
1
t8
50
90.000000
7
STANDARD
72
1
11
189.250000
21
87.000000
31
0.000000
0
TEXT
8
FRAME
10
240.000000
20
268.000000
30
0.000000
40
4.600000
1
소재 · 마감
50
0.000000
7
STANDARD
0
POLYLINE
8
FRAME
66
1
10
0.000000
20
0.000000
30
0.000000
70
1
0
VERTEX
8
FRAME
10
240.000000
20
259.600000
30
0.000000
0
VERTEX
8
FRAME
10
412.000000
20
259.600000
30
0.000000
0
VERTEX
8
FRAME
10
412.000000
20
265.000000
30
0.000000
0
VERTEX
8
FRAME
10
240.000000
20
265.000000
30
0.000000
0
SEQEND
8
FRAME
0
TEXT
8
FRAME
10
241.200000
20
261.495000
30
0.000000
40
2.300000
1
항목
50
0.000000
7
STANDARD
0
LINE
8
FRAME
10
264.000000
20
259.600000
30
0.000000
11
264.000000
21
265.000000
31
0.000000
0
TEXT
8
FRAME
10
265.200000
20
261.495000
30
0.000000
40
2.300000
1
값
50
0.000000
7
STANDARD
0
POLYLINE
8
FRAME
66
1
10
0.000000
20
0.000000
30
0.000000
70
1
0
VERTEX
8
FRAME
10
240.000000
20
254.200000
30
0.000000
0
VERTEX
8
FRAME
10
412.000000
20
254.200000
30
0.000000
0
VERTEX
8
FRAME
10
412.000000
20
259.600000
30
0.000000
0
VERTEX
8
FRAME
10
240.000000
20
259.600000
30
0.000000
0
SEQEND
8
FRAME
0
TEXT
8
TEXT
10
241.200000
20
256.095000
30
0.000000
40
2.300000
1
재질
50
0.000000
7
STANDARD
0
LINE
8
FRAME
10
264.000000
20
254.200000
30
0.000000
11
264.000000
21
259.600000
31
0.000000
0
TEXT
8
TEXT
10
265.200000
20
256.095000
30
0.000000
40
2.300000
1
SUS304
50
0.000000
7
STANDARD
0
POLYLINE
8
FRAME
66
1
10
0.000000
20
0.000000
30
0.000000
70
1
0
VERTEX
8
FRAME
10
240.000000
20
248.800000
30
0.000000
0
VERTEX
8
FRAME
10
412.000000
20
248.800000
30
0.000000
0
VERTEX
8
FRAME
10
412.000000
20
254.200000
30
0.000000
0
VERTEX
8
FRAME
10
240.000000
20
254.200000
30
0.000000
0
SEQEND
8
FRAME
0
TEXT
8
TEXT
10
241.200000
20
250.695000
30
0.000000
40
2.300000
1
소재
50
0.000000
7
STANDARD
0
LINE
8
FRAME
10
264.000000
20
248.800000
30
0.000000
11
264.000000
21
254.200000
31
0.000000
0
TEXT
8
TEXT
10
265.200000
20
250.695000
30
0.000000
40
2.300000
1
SUS304 t8 판재 Ø500
50
0.000000
7
STANDARD
0
POLYLINE
8
FRAME
66
1
10
0.000000
20
0.000000
30
0.000000
70
1
0
VERTEX
8
FRAME
10
240.000000
20
243.400000
30
0.000000
0
VERTEX
8
FRAME
10
412.000000
20
243.400000
30
0.000000
0
VERTEX
8
FRAME
10
412.000000
20
248.800000
30
0.000000
0
VERTEX
8
FRAME
10
240.000000
20
248.800000
30
0.000000
0
SEQEND
8
FRAME
0
TEXT
8
TEXT
10
241.200000
20
245.295000
30
0.000000
40
2.300000
1
형상
50
0.000000
7
STANDARD
0
LINE
8
FRAME
10
264.000000
20
243.400000
30
0.000000
11
264.000000
21
248.800000
31
0.000000
0
TEXT
8
TEXT
10
265.200000
20
245.295000
30
0.000000
40
2.300000
1
판재
50
0.000000
7
STANDARD
0
POLYLINE
8
FRAME
66
1
10
0.000000
20
0.000000
30
0.000000
70
1
0
VERTEX
8
FRAME
10
240.000000
20
238.000000
30
0.000000
0
VERTEX
8
FRAME
10
412.000000
20
238.000000
30
0.000000
0
VERTEX
8
FRAME
10
412.000000
20
243.400000
30
0.000000
0
VERTEX
8
FRAME
10
240.000000
20
243.400000
30
0.000000
0
SEQEND
8
FRAME
0
TEXT
8
TEXT
10
241.200000
20
239.895000
30
0.000000
40
2.300000
1
일반공차
50
0.000000
7
STANDARD
0
LINE
8
FRAME
10
264.000000
20
238.000000
30
0.000000
11
264.000000
21
243.400000
31
0.000000
0
TEXT
8
TEXT
10
265.200000
20
239.895000
30
0.000000
40
2.300000
1
ISO 2768-mK · 기입 치수 우선
50
0.000000
7
STANDARD
0
POLYLINE
8
FRAME
66
1
10
0.000000
20
0.000000
30
0.000000
70
1
0
VERTEX
8
FRAME
10
240.000000
20
232.600000
30
0.000000
0
VERTEX
8
FRAME
10
412.000000
20
232.600000
30
0.000000
0
VERTEX
8
FRAME
10
412.000000
20
238.000000
30
0.000000
0
VERTEX
8
FRAME
10
240.000000
20
238.000000
30
0.000000
0
SEQEND
8
FRAME
0
TEXT
8
TEXT
10
241.200000
20
234.495000
30
0.000000
40
2.300000
1
모서리
50
0.000000
7
STANDARD
0
LINE
8
FRAME
10
264.000000
20
232.600000
30
0.000000
11
264.000000
21
238.000000
31
0.000000
0
TEXT
8
TEXT
10
265.200000
20
234.495000
30
0.000000
40
2.300000
1
액체에 닿는 모서리 R2 이상
50
0.000000
7
STANDARD
0
POLYLINE
8
FRAME
66
1
10
0.000000
20
0.000000
30
0.000000
70
1
0
VERTEX
8
FRAME
10
240.000000
20
227.200000
30
0.000000
0
VERTEX
8
FRAME
10
412.000000
20
227.200000
30
0.000000
0
VERTEX
8
FRAME
10
412.000000
20
232.600000
30
0.000000
0
VERTEX
8
FRAME
10
240.000000
20
232.600000
30
0.000000
0
SEQEND
8
FRAME
0
TEXT
8
TEXT
10
241.200000
20
229.095000
30
0.000000
40
2.300000
1
내면
50
0.000000
7
STANDARD
0
LINE
8
FRAME
10
264.000000
20
227.200000
30
0.000000
11
264.000000
21
232.600000
31
0.000000
0
TEXT
8
TEXT
10
265.200000
20
229.095000
30
0.000000
40
2.300000
1
Ra ≤ 0.8 · 용접부 평활 연삭
50
0.000000
7
STANDARD
0
POLYLINE
8
FRAME
66
1
10
0.000000
20
0.000000
30
0.000000
70
1
0
VERTEX
8
FRAME
10
240.000000
20
221.800000
30
0.000000
0
VERTEX
8
FRAME
10
412.000000
20
221.800000
30
0.000000
0
VERTEX
8
FRAME
10
412.000000
20
227.200000
30
0.000000
0
VERTEX
8
FRAME
10
240.000000
20
227.200000
30
0.000000
0
SEQEND
8
FRAME
0
TEXT
8
TEXT
10
241.200000
20
223.695000
30
0.000000
40
2.300000
1
후처리
50
0.000000
7
STANDARD
0
LINE
8
FRAME
10
264.000000
20
221.800000
30
0.000000
11
264.000000
21
227.200000
31
0.000000
0
TEXT
8
TEXT
10
265.200000
20
223.695000
30
0.000000
40
2.300000
1
산세 · 부동태화 (페록실 청색 반응 없을 것)
50
0.000000
7
STANDARD
0
TEXT
8
FRAME
10
240.000000
20
212.800000
30
0.000000
40
4.600000
1
구멍표
50
0.000000
7
STANDARD
0
POLYLINE
8
FRAME
66
1
10
0.000000
20
0.000000
30
0.000000
70
1
0
VERTEX
8
FRAME
10
240.000000
20
204.800000
30
0.000000
0
VERTEX
8
FRAME
10
412.000000
20
204.800000
30
0.000000
0
VERTEX
8
FRAME
10
412.000000
20
209.800000
30
0.000000
0
VERTEX
8
FRAME
10
240.000000
20
209.800000
30
0.000000
0
SEQEND
8
FRAME
0
TEXT
8
FRAME
10
241.200000
20
206.530000
30
0.000000
40
2.200000
1
Ø
50
0.000000
7
STANDARD
0
LINE
8
FRAME
10
256.000000
20
204.800000
30
0.000000
11
256.000000
21
209.800000
31
0.000000
0
TEXT
8
FRAME
10
257.200000
20
206.530000
30
0.000000
40
2.200000
1
수
50
0.000000
7
STANDARD
0
LINE
8
FRAME
10
266.000000
20
204.800000
30
0.000000
11
266.000000
21
209.800000
31
0.000000
0
TEXT
8
FRAME
10
267.200000
20
206.530000
30
0.000000
40
2.200000
1
설명
50
0.000000
7
STANDARD
0
POLYLINE
8
FRAME
66
1
10
0.000000
20
0.000000
30
0.000000
70
1
0
VERTEX
8
FRAME
10
240.000000
20
199.800000
30
0.000000
0
VERTEX
8
FRAME
10
412.000000
20
199.800000
30
0.000000
0
VERTEX
8
FRAME
10
412.000000
20
204.800000
30
0.000000
0
VERTEX
8
FRAME
10
240.000000
20
204.800000
30
0.000000
0
SEQEND
8
FRAME
0
TEXT
8
TEXT
10
241.200000
20
201.530000
30
0.000000
40
2.200000
1
Ø14
50
0.000000
7
STANDARD
0
LINE
8
FRAME
10
256.000000
20
199.800000
30
0.000000
11
256.000000
21
204.800000
31
0.000000
0
TEXT
8
TEXT
10
257.200000
20
201.530000
30
0.000000
40
2.200000
1
4
50
0.000000
7
STANDARD
0
LINE
8
FRAME
10
266.000000
20
199.800000
30
0.000000
11
266.000000
21
204.800000
31
0.000000
0
TEXT
8
TEXT
10
267.200000
20
201.530000
30
0.000000
40
2.200000
1
지지 브래킷 H-07 · M12 · PCD Ø450
50
0.000000
7
STANDARD
0
TEXT
8
FRAME
10
240.000000
20
190.800000
30
0.000000
40
4.600000
1
구멍 좌표
50
0.000000
7
STANDARD
0
POLYLINE
8
FRAME
66
1
10
0.000000
20
0.000000
30
0.000000
70
1
0
VERTEX
8
FRAME
10
240.000000
20
182.800000
30
0.000000
0
VERTEX
8
FRAME
10
328.000000
20
182.800000
30
0.000000
0
VERTEX
8
FRAME
10
328.000000
20
187.800000
30
0.000000
0
VERTEX
8
FRAME
10
240.000000
20
187.800000
30
0.000000
0
SEQEND
8
FRAME
0
TEXT
8
FRAME
10
241.200000
20
184.530000
30
0.000000
40
2.200000
1
번호
50
0.000000
7
STANDARD
0
LINE
8
FRAME
10
256.000000
20
182.800000
30
0.000000
11
256.000000
21
187.800000
31
0.000000
0
TEXT
8
FRAME
10
257.200000
20
184.530000
30
0.000000
40
2.200000
1
X
50
0.000000
7
STANDARD
0
LINE
8
FRAME
10
282.000000
20
182.800000
30
0.000000
11
282.000000
21
187.800000
31
0.000000
0
TEXT
8
FRAME
10
283.200000
20
184.530000
30
0.000000
40
2.200000
1
Y
50
0.000000
7
STANDARD
0
LINE
8
FRAME
10
308.000000
20
182.800000
30
0.000000
11
308.000000
21
187.800000
31
0.000000
0
TEXT
8
FRAME
10
309.200000
20
184.530000
30
0.000000
40
2.200000
1
Ø
50
0.000000
7
STANDARD
0
POLYLINE
8
FRAME
66
1
10
0.000000
20
0.000000
30
0.000000
70
1
0
VERTEX
8
FRAME
10
240.000000
20
177.800000
30
0.000000
0
VERTEX
8
FRAME
10
328.000000
20
177.800000
30
0.000000
0
VERTEX
8
FRAME
10
328.000000
20
182.800000
30
0.000000
0
VERTEX
8
FRAME
10
240.000000
20
182.800000
30
0.000000
0
SEQEND
8
FRAME
0
TEXT
8
TEXT
10
241.200000
20
179.530000
30
0.000000
40
2.200000
1
H1
50
0.000000
7
STANDARD
0
LINE
8
FRAME
10
256.000000
20
177.800000
30
0.000000
11
256.000000
21
182.800000
31
0.000000
0
TEXT
8
TEXT
10
257.200000
20
179.530000
30
0.000000
40
2.200000
1
240.0
50
0.000000
7
STANDARD
0
LINE
8
FRAME
10
282.000000
20
177.800000
30
0.000000
11
282.000000
21
182.800000
31
0.000000
0
TEXT
8
TEXT
10
283.200000
20
179.530000
30
0.000000
40
2.200000
1
240.0
50
0.000000
7
STANDARD
0
LINE
8
FRAME
10
308.000000
20
177.800000
30
0.000000
11
308.000000
21
182.800000
31
0.000000
0
TEXT
8
TEXT
10
309.200000
20
179.530000
30
0.000000
40
2.200000
1
Ø406
50
0.000000
7
STANDARD
0
POLYLINE
8
FRAME
66
1
10
0.000000
20
0.000000
30
0.000000
70
1
0
VERTEX
8
FRAME
10
240.000000
20
172.800000
30
0.000000
0
VERTEX
8
FRAME
10
328.000000
20
172.800000
30
0.000000
0
VERTEX
8
FRAME
10
328.000000
20
177.800000
30
0.000000
0
VERTEX
8
FRAME
10
240.000000
20
177.800000
30
0.000000
0
SEQEND
8
FRAME
0
TEXT
8
TEXT
10
241.200000
20
174.530000
30
0.000000
40
2.200000
1
H2
50
0.000000
7
STANDARD
0
LINE
8
FRAME
10
256.000000
20
172.800000
30
0.000000
11
256.000000
21
177.800000
31
0.000000
0
TEXT
8
TEXT
10
257.200000
20
174.530000
30
0.000000
40
2.200000
1
399.1
50
0.000000
7
STANDARD
0
LINE
8
FRAME
10
282.000000
20
172.800000
30
0.000000
11
282.000000
21
177.800000
31
0.000000
0
TEXT
8
TEXT
10
283.200000
20
174.530000
30
0.000000
40
2.200000
1
399.1
50
0.000000
7
STANDARD
0
LINE
8
FRAME
10
308.000000
20
172.800000
30
0.000000
11
308.000000
21
177.800000
31
0.000000
0
TEXT
8
TEXT
10
309.200000
20
174.530000
30
0.000000
40
2.200000
1
Ø14
50
0.000000
7
STANDARD
0
POLYLINE
8
FRAME
66
1
10
0.000000
20
0.000000
30
0.000000
70
1
0
VERTEX
8
FRAME
10
240.000000
20
167.800000
30
0.000000
0
VERTEX
8
FRAME
10
328.000000
20
167.800000
30
0.000000
0
VERTEX
8
FRAME
10
328.000000
20
172.800000
30
0.000000
0
VERTEX
8
FRAME
10
240.000000
20
172.800000
30
0.000000
0
SEQEND
8
FRAME
0
TEXT
8
TEXT
10
241.200000
20
169.530000
30
0.000000
40
2.200000
1
H3
50
0.000000
7
STANDARD
0
LINE
8
FRAME
10
256.000000
20
167.800000
30
0.000000
11
256.000000
21
172.800000
31
0.000000
0
TEXT
8
TEXT
10
257.200000
20
169.530000
30
0.000000
40
2.200000
1
80.9
50
0.000000
7
STANDARD
0
LINE
8
FRAME
10
282.000000
20
167.800000
30
0.000000
11
282.000000
21
172.800000
31
0.000000
0
TEXT
8
TEXT
10
283.200000
20
169.530000
30
0.000000
40
2.200000
1
399.1
50
0.000000
7
STANDARD
0
LINE
8
FRAME
10
308.000000
20
167.800000
30
0.000000
11
308.000000
21
172.800000
31
0.000000
0
TEXT
8
TEXT
10
309.200000
20
169.530000
30
0.000000
40
2.200000
1
Ø14
50
0.000000
7
STANDARD
0
POLYLINE
8
FRAME
66
1
10
0.000000
20
0.000000
30
0.000000
70
1
0
VERTEX
8
FRAME
10
240.000000
20
162.800000
30
0.000000
0
VERTEX
8
FRAME
10
328.000000
20
162.800000
30
0.000000
0
VERTEX
8
FRAME
10
328.000000
20
167.800000
30
0.000000
0
VERTEX
8
FRAME
10
240.000000
20
167.800000
30
0.000000
0
SEQEND
8
FRAME
0
TEXT
8
TEXT
10
241.200000
20
164.530000
30
0.000000
40
2.200000
1
H4
50
0.000000
7
STANDARD
0
LINE
8
FRAME
10
256.000000
20
162.800000
30
0.000000
11
256.000000
21
167.800000
31
0.000000
0
TEXT
8
TEXT
10
257.200000
20
164.530000
30
0.000000
40
2.200000
1
80.9
50
0.000000
7
STANDARD
0
LINE
8
FRAME
10
282.000000
20
162.800000
30
0.000000
11
282.000000
21
167.800000
31
0.000000
0
TEXT
8
TEXT
10
283.200000
20
164.530000
30
0.000000
40
2.200000
1
80.9
50
0.000000
7
STANDARD
0
LINE
8
FRAME
10
308.000000
20
162.800000
30
0.000000
11
308.000000
21
167.800000
31
0.000000
0
TEXT
8
TEXT
10
309.200000
20
164.530000
30
0.000000
40
2.200000
1
Ø14
50
0.000000
7
STANDARD
0
POLYLINE
8
FRAME
66
1
10
0.000000
20
0.000000
30
0.000000
70
1
0
VERTEX
8
FRAME
10
240.000000
20
157.800000
30
0.000000
0
VERTEX
8
FRAME
10
328.000000
20
157.800000
30
0.000000
0
VERTEX
8
FRAME
10
328.000000
20
162.800000
30
0.000000
0
VERTEX
8
FRAME
10
240.000000
20
162.800000
30
0.000000
0
SEQEND
8
FRAME
0
TEXT
8
TEXT
10
241.200000
20
159.530000
30
0.000000
40
2.200000
1
H5
50
0.000000
7
STANDARD
0
LINE
8
FRAME
10
256.000000
20
157.800000
30
0.000000
11
256.000000
21
162.800000
31
0.000000
0
TEXT
8
TEXT
10
257.200000
20
159.530000
30
0.000000
40
2.200000
1
399.1
50
0.000000
7
STANDARD
0
LINE
8
FRAME
10
282.000000
20
157.800000
30
0.000000
11
282.000000
21
162.800000
31
0.000000
0
TEXT
8
TEXT
10
283.200000
20
159.530000
30
0.000000
40
2.200000
1
80.9
50
0.000000
7
STANDARD
0
LINE
8
FRAME
10
308.000000
20
157.800000
30
0.000000
11
308.000000
21
162.800000
31
0.000000
0
TEXT
8
TEXT
10
309.200000
20
159.530000
30
0.000000
40
2.200000
1
Ø14
50
0.000000
7
STANDARD
0
TEXT
8
NOTE
10
240.000000
20
153.800000
30
0.000000
40
2.100000
1
원점은 소재 왼쪽 아래 - 절단 DXF 의 원점과 같다
50
0.000000
7
STANDARD
0
TEXT
8
FRAME
10
240.000000
20
140.800000
30
0.000000
40
4.600000
1
주기
50
0.000000
7
STANDARD
0
TEXT
8
NOTE
10
240.000000
20
135.800000
30
0.000000
40
2.200000
1
· OD Ø480 × ID Ø406 × t8 - 프레임 크로스레일에 앉는다
50
0.000000
7
STANDARD
0
TEXT
8
NOTE
10
240.000000
20
131.000000
30
0.000000
40
2.200000
1
· Z400 - 동체/콘 용접선 위 54 mm 에 붙인다
50
0.000000
7
STANDARD
0
TEXT
8
NOTE
10
240.000000
20
126.200000
30
0.000000
40
2.200000
1
· 절단 길이 약 2959 mm · 실면적 50878 mm² · 질량 3.228 kg/개
50
0.000000
7
STANDARD
0
TEXT
8
NOTE
10
240.000000
20
121.400000
30
0.000000
40
2.200000
1
· 이 도면은 설계 계산에서 생성된다. 손으로 고치지 말 것 - 다시 생성하면 덮어쓴다.
50
0.000000
7
STANDARD
0
ENDSEC
0
EOF
