0
SECTION
2
HEADER
9
$ACADVER
1
AC1009
9
$DWGCODEPAGE
3
ANSI_949
9
$INSBASE
10
0.000000
20
0.000000
30
0.000000
9
$EXTMIN
10
10.000000
20
5.000000
30
0.000000
9
$EXTMAX
10
415.000000
20
292.000000
30
0.000000
9
$LUNITS
70
2
9
$INSUNITS
70
4
9
$LIMMIN
10
10.000000
20
5.000000
9
$LIMMAX
10
415.000000
20
292.000000
0
ENDSEC
0
SECTION
2
TABLES
0
TABLE
2
LTYPE
70
3
0
LTYPE
2
CONTINUOUS
70
64
3
Solid line
72
65
73
0
40
0.000000
0
LTYPE
2
DASHED
70
64
3
Dashed __ __ __ __
72
65
73
2
40
6.000000
49
4.000000
49
-2.000000
0
LTYPE
2
CENTER
70
64
3
Center ____ _ ____
72
65
73
4
40
12.000000
49
8.000000
49
-1.500000
49
1.000000
49
-1.500000
0
ENDTAB
0
TABLE
2
LAYER
70
10
0
LAYER
2
CUT
70
0
62
7
6
CONTINUOUS
0
LAYER
2
HOLE
70
0
62
7
6
CONTINUOUS
0
LAYER
2
BEND
70
0
62
6
6
DASHED
0
LAYER
2
MARK
70
0
62
4
6
CONTINUOUS
0
LAYER
2
CENTER
70
0
62
2
6
CENTER
0
LAYER
2
HIDDEN
70
0
62
8
6
DASHED
0
LAYER
2
DIM
70
0
62
3
6
CONTINUOUS
0
LAYER
2
TEXT
70
0
62
3
6
CONTINUOUS
0
LAYER
2
FRAME
70
0
62
7
6
CONTINUOUS
0
LAYER
2
NOTE
70
0
62
8
6
CONTINUOUS
0
ENDTAB
0
TABLE
2
STYLE
70
1
0
STYLE
2
STANDARD
70
0
40
0.000000
41
1.000000
50
0.000000
71
0
42
2.500000
3
txt
4

0
ENDTAB
0
ENDSEC
0
SECTION
2
BLOCKS
0
ENDSEC
0
SECTION
2
ENTITIES
0
POLYLINE
8
FRAME
66
1
10
0.000000
20
0.000000
30
0.000000
70
1
0
VERTEX
8
FRAME
10
12.000000
20
281.000000
30
0.000000
0
VERTEX
8
FRAME
10
28.275248
20
281.000000
30
0.000000
0
VERTEX
8
FRAME
10
28.275248
20
290.000000
30
0.000000
0
VERTEX
8
FRAME
10
12.000000
20
290.000000
30
0.000000
0
SEQEND
8
FRAME
0
TEXT
8
TEXT
10
14.000000
20
286.600000
30
0.000000
40
1.900000
1
재질
50
0.000000
7
STANDARD
0
TEXT
8
FRAME
10
14.000000
20
282.600000
30
0.000000
40
2.700000
1
SUS304
50
0.000000
7
STANDARD
0
POLYLINE
8
FRAME
66
1
10
0.000000
20
0.000000
30
0.000000
70
1
0
VERTEX
8
FRAME
10
29.875248
20
281.000000
30
0.000000
0
VERTEX
8
FRAME
10
39.860144
20
281.000000
30
0.000000
0
VERTEX
8
FRAME
10
39.860144
20
290.000000
30
0.000000
0
VERTEX
8
FRAME
10
29.875248
20
290.000000
30
0.000000
0
SEQEND
8
FRAME
0
TEXT
8
TEXT
10
31.875248
20
286.600000
30
0.000000
40
1.900000
1
수량
50
0.000000
7
STANDARD
0
TEXT
8
FRAME
10
31.875248
20
282.600000
30
0.000000
40
2.700000
1
1 개
50
0.000000
7
STANDARD
0
POLYLINE
8
FRAME
66
1
10
0.000000
20
0.000000
30
0.000000
70
1
0
VERTEX
8
FRAME
10
41.460144
20
281.000000
30
0.000000
0
VERTEX
8
FRAME
10
51.260144
20
281.000000
30
0.000000
0
VERTEX
8
FRAME
10
51.260144
20
290.000000
30
0.000000
0
VERTEX
8
FRAME
10
41.460144
20
290.000000
30
0.000000
0
SEQEND
8
FRAME
0
TEXT
8
TEXT
10
43.460144
20
286.600000
30
0.000000
40
1.900000
1
형상
50
0.000000
7
STANDARD
0
TEXT
8
FRAME
10
43.460144
20
282.600000
30
0.000000
40
2.700000
1
전개
50
0.000000
7
STANDARD
0
POLYLINE
8
FRAME
66
1
10
0.000000
20
0.000000
30
0.000000
70
1
0
VERTEX
8
FRAME
10
52.860144
20
281.000000
30
0.000000
0
VERTEX
8
FRAME
10
66.428912
20
281.000000
30
0.000000
0
VERTEX
8
FRAME
10
66.428912
20
290.000000
30
0.000000
0
VERTEX
8
FRAME
10
52.860144
20
290.000000
30
0.000000
0
SEQEND
8
FRAME
0
TEXT
8
TEXT
10
54.860144
20
286.600000
30
0.000000
40
1.900000
1
두께·길이
50
0.000000
7
STANDARD
0
TEXT
8
FRAME
10
54.860144
20
282.600000
30
0.000000
40
2.700000
1
1.5 mm
50
0.000000
7
STANDARD
0
POLYLINE
8
FRAME
66
1
10
0.000000
20
0.000000
30
0.000000
70
1
0
VERTEX
8
FRAME
10
68.028912
20
281.000000
30
0.000000
0
VERTEX
8
FRAME
10
92.012336
20
281.000000
30
0.000000
0
VERTEX
8
FRAME
10
92.012336
20
290.000000
30
0.000000
0
VERTEX
8
FRAME
10
68.028912
20
290.000000
30
0.000000
0
SEQEND
8
FRAME
0
TEXT
8
TEXT
10
70.028912
20
286.600000
30
0.000000
40
1.900000
1
일반공차
50
0.000000
7
STANDARD
0
TEXT
8
FRAME
10
70.028912
20
282.600000
30
0.000000
40
2.700000
1
ISO 2768-mK
50
0.000000
7
STANDARD
0
POLYLINE
8
FRAME
66
1
10
0.000000
20
0.000000
30
0.000000
70
1
0
VERTEX
8
FRAME
10
93.612336
20
281.000000
30
0.000000
0
VERTEX
8
FRAME
10
112.258400
20
281.000000
30
0.000000
0
VERTEX
8
FRAME
10
112.258400
20
290.000000
30
0.000000
0
VERTEX
8
FRAME
10
93.612336
20
290.000000
30
0.000000
0
SEQEND
8
FRAME
0
TEXT
8
TEXT
10
95.612336
20
286.600000
30
0.000000
40
1.900000
1
설계확정도
50
0.000000
7
STANDARD
0
TEXT
8
FRAME
10
95.612336
20
282.600000
30
0.000000
40
2.700000
1
RELEASE
50
0.000000
7
STANDARD
0
POLYLINE
8
CUT
66
1
10
0.000000
20
0.000000
30
0.000000
70
1
0
VERTEX
8
CUT
10
51.314165
20
202.000000
30
0.000000
0
VERTEX
8
CUT
10
192.685835
20
202.000000
30
0.000000
0
VERTEX
8
CUT
10
192.685835
20
242.000000
30
0.000000
0
VERTEX
8
CUT
10
51.314165
20
242.000000
30
0.000000
0
SEQEND
8
CUT
0
POLYLINE
8
FRAME
66
1
10
0.000000
20
0.000000
30
0.000000
70
1
0
VERTEX
8
FRAME
10
10.000000
20
5.000000
30
0.000000
0
VERTEX
8
FRAME
10
415.000000
20
5.000000
30
0.000000
0
VERTEX
8
FRAME
10
415.000000
20
292.000000
30
0.000000
0
VERTEX
8
FRAME
10
10.000000
20
292.000000
30
0.000000
0
SEQEND
8
FRAME
0
POLYLINE
8
FRAME
66
1
10
0.000000
20
0.000000
30
0.000000
70
1
0
VERTEX
8
FRAME
10
237.000000
20
5.000000
30
0.000000
0
VERTEX
8
FRAME
10
415.000000
20
5.000000
30
0.000000
0
VERTEX
8
FRAME
10
415.000000
20
35.000000
30
0.000000
0
VERTEX
8
FRAME
10
237.000000
20
35.000000
30
0.000000
0
SEQEND
8
FRAME
0
LINE
8
FRAME
10
237.000000
20
22.000000
30
0.000000
11
415.000000
21
22.000000
31
0.000000
0
LINE
8
FRAME
10
355.000000
20
5.000000
30
0.000000
11
355.000000
21
35.000000
31
0.000000
0
TEXT
8
FRAME
10
240.000000
20
28.000000
30
0.000000
40
6.000000
1
C-06 보호 커버
50
0.000000
7
STANDARD
0
TEXT
8
TEXT
10
240.000000
20
23.600000
30
0.000000
40
2.400000
1
커플링 노출부 차폐, t1.5 절곡
50
0.000000
7
STANDARD
0
TEXT
8
TEXT
10
240.000000
20
18.600000
30
0.000000
40
1.900000
1
도면번호
50
0.000000
7
STANDARD
0
TEXT
8
TEXT
10
240.000000
20
14.600000
30
0.000000
40
2.700000
1
MP50-C-C-06
50
0.000000
7
STANDARD
0
TEXT
8
TEXT
10
279.000000
20
18.600000
30
0.000000
40
1.900000
1
축척
50
0.000000
7
STANDARD
0
TEXT
8
TEXT
10
279.000000
20
14.600000
30
0.000000
40
2.700000
1
1:4
50
0.000000
7
STANDARD
0
TEXT
8
TEXT
10
318.000000
20
18.600000
30
0.000000
40
1.900000
1
단위
50
0.000000
7
STANDARD
0
TEXT
8
TEXT
10
318.000000
20
14.600000
30
0.000000
40
2.700000
1
mm
50
0.000000
7
STANDARD
0
TEXT
8
TEXT
10
240.000000
20
11.000000
30
0.000000
40
1.900000
1
Rev
50
0.000000
7
STANDARD
0
TEXT
8
TEXT
10
240.000000
20
7.000000
30
0.000000
40
2.700000
1
R1
50
0.000000
7
STANDARD
0
TEXT
8
TEXT
10
279.000000
20
11.000000
30
0.000000
40
1.900000
1
날짜
50
0.000000
7
STANDARD
0
TEXT
8
TEXT
10
279.000000
20
7.000000
30
0.000000
40
2.700000
1
2026-09-10
50
0.000000
7
STANDARD
0
TEXT
8
TEXT
10
318.000000
20
11.000000
30
0.000000
40
1.900000
1
시트
50
0.000000
7
STANDARD
0
TEXT
8
TEXT
10
318.000000
20
7.000000
30
0.000000
40
2.700000
1
15/33
50
0.000000
7
STANDARD
0
TEXT
8
FRAME
10
358.000000
20
29.000000
30
0.000000
40
2.700000
1
DYNAMIC INDUSTRY
50
0.000000
7
STANDARD
0
TEXT
8
TEXT
10
358.000000
20
24.600000
30
0.000000
40
2.000000
1
MP-50 염수 밀도분리 파일럿
50
0.000000
7
STANDARD
0
TEXT
8
TEXT
10
358.000000
20
15.000000
30
0.000000
40
2.000000
1
아세이 C · 구동부 아세이
50
0.000000
7
STANDARD
0
TEXT
8
TEXT
10
358.000000
20
10.400000
30
0.000000
40
2.000000
1
설계 계산 자동생성 · 제3각법
50
0.000000
7
STANDARD
0
TEXT
8
FRAME
10
14.000000
20
262.000000
30
0.000000
40
4.600000
1
전개 평면
50
0.000000
7
STANDARD
0
TEXT
8
TEXT
10
40.000000
20
262.000000
30
0.000000
40
2.400000
1
척도 1:4
50
0.000000
7
STANDARD
0
LINE
8
DIM
10
51.314165
20
202.000000
30
0.000000
11
51.314165
21
191.400000
31
0.000000
0
LINE
8
DIM
10
192.685835
20
202.000000
30
0.000000
11
192.685835
21
191.400000
31
0.000000
0
LINE
8
DIM
10
51.314165
20
193.000000
30
0.000000
11
192.685835
21
193.000000
31
0.000000
0
SOLID
8
DIM
10
51.314165
20
193.000000
30
0.000000
11
53.814165
21
192.200000
31
0.000000
12
53.814165
22
193.800000
32
0.000000
13
53.814165
23
193.800000
33
0.000000
0
SOLID
8
DIM
10
192.685835
20
193.000000
30
0.000000
11
190.185835
21
193.800000
31
0.000000
12
190.185835
22
192.200000
32
0.000000
13
190.185835
23
192.200000
33
0.000000
0
TEXT
8
DIM
10
122.000000
20
194.750000
30
0.000000
40
3.500000
1
565.5
50
0.000000
7
STANDARD
72
1
11
122.000000
21
194.750000
31
0.000000
0
LINE
8
DIM
10
51.314165
20
202.000000
30
0.000000
11
40.714165
21
202.000000
31
0.000000
0
LINE
8
DIM
10
51.314165
20
242.000000
30
0.000000
11
40.714165
21
242.000000
31
0.000000
0
LINE
8
DIM
10
42.314165
20
202.000000
30
0.000000
11
42.314165
21
242.000000
31
0.000000
0
SOLID
8
DIM
10
42.314165
20
202.000000
30
0.000000
11
43.114165
21
204.500000
31
0.000000
12
41.514165
22
204.500000
32
0.000000
13
41.514165
23
204.500000
33
0.000000
0
SOLID
8
DIM
10
42.314165
20
242.000000
30
0.000000
11
41.514165
21
239.500000
31
0.000000
12
43.114165
22
239.500000
32
0.000000
13
43.114165
23
239.500000
33
0.000000
0
TEXT
8
DIM
10
40.564165
20
222.000000
30
0.000000
40
3.500000
1
160
50
90.000000
7
STANDARD
72
1
11
40.564165
21
222.000000
31
0.000000
0
POLYLINE
8
CUT
66
1
10
0.000000
20
0.000000
30
0.000000
70
1
0
VERTEX
8
CUT
10
51.314165
20
166.800000
30
0.000000
0
VERTEX
8
CUT
10
171.314165
20
166.800000
30
0.000000
0
VERTEX
8
CUT
10
171.314165
20
168.000000
30
0.000000
0
VERTEX
8
CUT
10
51.314165
20
168.000000
30
0.000000
0
SEQEND
8
CUT
0
TEXT
8
FRAME
10
14.000000
20
174.000000
30
0.000000
40
4.600000
1
두께
50
0.000000
7
STANDARD
0
LINE
8
DIM
10
171.314165
20
166.800000
30
0.000000
11
181.914165
21
166.800000
31
0.000000
0
LINE
8
DIM
10
171.314165
20
168.000000
30
0.000000
11
181.914165
21
168.000000
31
0.000000
0
LINE
8
DIM
10
180.314165
20
166.800000
30
0.000000
11
180.314165
21
168.000000
31
0.000000
0
SOLID
8
DIM
10
180.314165
20
166.800000
30
0.000000
11
181.114165
21
169.300000
31
0.000000
12
179.514165
22
169.300000
32
0.000000
13
179.514165
23
169.300000
33
0.000000
0
SOLID
8
DIM
10
180.314165
20
168.000000
30
0.000000
11
179.514165
21
165.500000
31
0.000000
12
181.114165
22
165.500000
32
0.000000
13
181.114165
23
165.500000
33
0.000000
0
TEXT
8
DIM
10
178.564165
20
167.400000
30
0.000000
40
3.500000
1
t1.5
50
90.000000
7
STANDARD
72
1
11
178.564165
21
167.400000
31
0.000000
0
TEXT
8
FRAME
10
240.000000
20
268.000000
30
0.000000
40
4.600000
1
소재 · 마감
50
0.000000
7
STANDARD
0
POLYLINE
8
FRAME
66
1
10
0.000000
20
0.000000
30
0.000000
70
1
0
VERTEX
8
FRAME
10
240.000000
20
259.600000
30
0.000000
0
VERTEX
8
FRAME
10
412.000000
20
259.600000
30
0.000000
0
VERTEX
8
FRAME
10
412.000000
20
265.000000
30
0.000000
0
VERTEX
8
FRAME
10
240.000000
20
265.000000
30
0.000000
0
SEQEND
8
FRAME
0
TEXT
8
FRAME
10
241.200000
20
261.495000
30
0.000000
40
2.300000
1
항목
50
0.000000
7
STANDARD
0
LINE
8
FRAME
10
264.000000
20
259.600000
30
0.000000
11
264.000000
21
265.000000
31
0.000000
0
TEXT
8
FRAME
10
265.200000
20
261.495000
30
0.000000
40
2.300000
1
값
50
0.000000
7
STANDARD
0
POLYLINE
8
FRAME
66
1
10
0.000000
20
0.000000
30
0.000000
70
1
0
VERTEX
8
FRAME
10
240.000000
20
254.200000
30
0.000000
0
VERTEX
8
FRAME
10
412.000000
20
254.200000
30
0.000000
0
VERTEX
8
FRAME
10
412.000000
20
259.600000
30
0.000000
0
VERTEX
8
FRAME
10
240.000000
20
259.600000
30
0.000000
0
SEQEND
8
FRAME
0
TEXT
8
TEXT
10
241.200000
20
256.095000
30
0.000000
40
2.300000
1
재질
50
0.000000
7
STANDARD
0
LINE
8
FRAME
10
264.000000
20
254.200000
30
0.000000
11
264.000000
21
259.600000
31
0.000000
0
TEXT
8
TEXT
10
265.200000
20
256.095000
30
0.000000
40
2.300000
1
SUS304
50
0.000000
7
STANDARD
0
POLYLINE
8
FRAME
66
1
10
0.000000
20
0.000000
30
0.000000
70
1
0
VERTEX
8
FRAME
10
240.000000
20
248.800000
30
0.000000
0
VERTEX
8
FRAME
10
412.000000
20
248.800000
30
0.000000
0
VERTEX
8
FRAME
10
412.000000
20
254.200000
30
0.000000
0
VERTEX
8
FRAME
10
240.000000
20
254.200000
30
0.000000
0
SEQEND
8
FRAME
0
TEXT
8
TEXT
10
241.200000
20
250.695000
30
0.000000
40
2.300000
1
소재
50
0.000000
7
STANDARD
0
LINE
8
FRAME
10
264.000000
20
248.800000
30
0.000000
11
264.000000
21
254.200000
31
0.000000
0
TEXT
8
TEXT
10
265.200000
20
250.695000
30
0.000000
40
2.300000
1
SUS304 t1.5 판재 600 × 170
50
0.000000
7
STANDARD
0
POLYLINE
8
FRAME
66
1
10
0.000000
20
0.000000
30
0.000000
70
1
0
VERTEX
8
FRAME
10
240.000000
20
243.400000
30
0.000000
0
VERTEX
8
FRAME
10
412.000000
20
243.400000
30
0.000000
0
VERTEX
8
FRAME
10
412.000000
20
248.800000
30
0.000000
0
VERTEX
8
FRAME
10
240.000000
20
248.800000
30
0.000000
0
SEQEND
8
FRAME
0
TEXT
8
TEXT
10
241.200000
20
245.295000
30
0.000000
40
2.300000
1
형상
50
0.000000
7
STANDARD
0
LINE
8
FRAME
10
264.000000
20
243.400000
30
0.000000
11
264.000000
21
248.800000
31
0.000000
0
TEXT
8
TEXT
10
265.200000
20
245.295000
30
0.000000
40
2.300000
1
전개
50
0.000000
7
STANDARD
0
POLYLINE
8
FRAME
66
1
10
0.000000
20
0.000000
30
0.000000
70
1
0
VERTEX
8
FRAME
10
240.000000
20
238.000000
30
0.000000
0
VERTEX
8
FRAME
10
412.000000
20
238.000000
30
0.000000
0
VERTEX
8
FRAME
10
412.000000
20
243.400000
30
0.000000
0
VERTEX
8
FRAME
10
240.000000
20
243.400000
30
0.000000
0
SEQEND
8
FRAME
0
TEXT
8
TEXT
10
241.200000
20
239.895000
30
0.000000
40
2.300000
1
일반공차
50
0.000000
7
STANDARD
0
LINE
8
FRAME
10
264.000000
20
238.000000
30
0.000000
11
264.000000
21
243.400000
31
0.000000
0
TEXT
8
TEXT
10
265.200000
20
239.895000
30
0.000000
40
2.300000
1
ISO 2768-mK · 기입 치수 우선
50
0.000000
7
STANDARD
0
POLYLINE
8
FRAME
66
1
10
0.000000
20
0.000000
30
0.000000
70
1
0
VERTEX
8
FRAME
10
240.000000
20
232.600000
30
0.000000
0
VERTEX
8
FRAME
10
412.000000
20
232.600000
30
0.000000
0
VERTEX
8
FRAME
10
412.000000
20
238.000000
30
0.000000
0
VERTEX
8
FRAME
10
240.000000
20
238.000000
30
0.000000
0
SEQEND
8
FRAME
0
TEXT
8
TEXT
10
241.200000
20
234.495000
30
0.000000
40
2.300000
1
모서리
50
0.000000
7
STANDARD
0
LINE
8
FRAME
10
264.000000
20
232.600000
30
0.000000
11
264.000000
21
238.000000
31
0.000000
0
TEXT
8
TEXT
10
265.200000
20
234.495000
30
0.000000
40
2.300000
1
액체에 닿는 모서리 R2 이상
50
0.000000
7
STANDARD
0
POLYLINE
8
FRAME
66
1
10
0.000000
20
0.000000
30
0.000000
70
1
0
VERTEX
8
FRAME
10
240.000000
20
227.200000
30
0.000000
0
VERTEX
8
FRAME
10
412.000000
20
227.200000
30
0.000000
0
VERTEX
8
FRAME
10
412.000000
20
232.600000
30
0.000000
0
VERTEX
8
FRAME
10
240.000000
20
232.600000
30
0.000000
0
SEQEND
8
FRAME
0
TEXT
8
TEXT
10
241.200000
20
229.095000
30
0.000000
40
2.300000
1
내면
50
0.000000
7
STANDARD
0
LINE
8
FRAME
10
264.000000
20
227.200000
30
0.000000
11
264.000000
21
232.600000
31
0.000000
0
TEXT
8
TEXT
10
265.200000
20
229.095000
30
0.000000
40
2.300000
1
Ra ≤ 0.8 · 용접부 평활 연삭
50
0.000000
7
STANDARD
0
POLYLINE
8
FRAME
66
1
10
0.000000
20
0.000000
30
0.000000
70
1
0
VERTEX
8
FRAME
10
240.000000
20
221.800000
30
0.000000
0
VERTEX
8
FRAME
10
412.000000
20
221.800000
30
0.000000
0
VERTEX
8
FRAME
10
412.000000
20
227.200000
30
0.000000
0
VERTEX
8
FRAME
10
240.000000
20
227.200000
30
0.000000
0
SEQEND
8
FRAME
0
TEXT
8
TEXT
10
241.200000
20
223.695000
30
0.000000
40
2.300000
1
후처리
50
0.000000
7
STANDARD
0
LINE
8
FRAME
10
264.000000
20
221.800000
30
0.000000
11
264.000000
21
227.200000
31
0.000000
0
TEXT
8
TEXT
10
265.200000
20
223.695000
30
0.000000
40
2.300000
1
산세 · 부동태화 (페록실 청색 반응 없을 것)
50
0.000000
7
STANDARD
0
TEXT
8
FRAME
10
240.000000
20
212.800000
30
0.000000
40
4.600000
1
주기
50
0.000000
7
STANDARD
0
TEXT
8
NOTE
10
240.000000
20
207.800000
30
0.000000
40
2.200000
1
· Ø180 × H160 × t1.5 원통 가드 - 중립축 전개 565.5 × 160
50
0.000000
7
STANDARD
0
TEXT
8
NOTE
10
240.000000
20
203.000000
30
0.000000
40
2.200000
1
· 회전부 접촉방지 - 인터록 불요, 공구 개방식
50
0.000000
7
STANDARD
0
TEXT
8
NOTE
10
240.000000
20
198.200000
30
0.000000
40
2.200000
1
· 3D - 3D 는 말고 난 원통이다. 공구 없이 열리는 개방식이라 인터록은 걸지 않는다.
50
0.000000
7
STANDARD
0
TEXT
8
NOTE
10
240.000000
20
193.400000
30
0.000000
40
2.200000
1
· 절단 길이 약 1451 mm · 실면적 90478 mm² · 질량 1.076 kg/개
50
0.000000
7
STANDARD
0
TEXT
8
NOTE
10
240.000000
20
188.600000
30
0.000000
40
2.200000
1
· 이 도면은 설계 계산에서 생성된다. 손으로 고치지 말 것 - 다시 생성하면 덮어쓴다.
50
0.000000
7
STANDARD
0
ENDSEC
0
EOF
