0
SECTION
2
HEADER
9
$ACADVER
1
AC1009
9
$DWGCODEPAGE
3
ANSI_949
9
$INSBASE
10
0.000000
20
0.000000
30
0.000000
9
$EXTMIN
10
10.000000
20
5.000000
30
0.000000
9
$EXTMAX
10
415.000000
20
292.000000
30
0.000000
9
$LUNITS
70
2
9
$INSUNITS
70
4
9
$LIMMIN
10
10.000000
20
5.000000
9
$LIMMAX
10
415.000000
20
292.000000
0
ENDSEC
0
SECTION
2
TABLES
0
TABLE
2
LTYPE
70
3
0
LTYPE
2
CONTINUOUS
70
64
3
Solid line
72
65
73
0
40
0.000000
0
LTYPE
2
DASHED
70
64
3
Dashed __ __ __ __
72
65
73
2
40
6.000000
49
4.000000
49
-2.000000
0
LTYPE
2
CENTER
70
64
3
Center ____ _ ____
72
65
73
4
40
12.000000
49
8.000000
49
-1.500000
49
1.000000
49
-1.500000
0
ENDTAB
0
TABLE
2
LAYER
70
10
0
LAYER
2
CUT
70
0
62
7
6
CONTINUOUS
0
LAYER
2
HOLE
70
0
62
7
6
CONTINUOUS
0
LAYER
2
BEND
70
0
62
6
6
DASHED
0
LAYER
2
MARK
70
0
62
4
6
CONTINUOUS
0
LAYER
2
CENTER
70
0
62
2
6
CENTER
0
LAYER
2
HIDDEN
70
0
62
8
6
DASHED
0
LAYER
2
DIM
70
0
62
3
6
CONTINUOUS
0
LAYER
2
TEXT
70
0
62
3
6
CONTINUOUS
0
LAYER
2
FRAME
70
0
62
7
6
CONTINUOUS
0
LAYER
2
NOTE
70
0
62
8
6
CONTINUOUS
0
ENDTAB
0
TABLE
2
STYLE
70
1
0
STYLE
2
STANDARD
70
0
40
0.000000
41
1.000000
50
0.000000
71
0
42
2.500000
3
txt
4

0
ENDTAB
0
ENDSEC
0
SECTION
2
BLOCKS
0
ENDSEC
0
SECTION
2
ENTITIES
0
POLYLINE
8
FRAME
66
1
10
0.000000
20
0.000000
30
0.000000
70
1
0
VERTEX
8
FRAME
10
12.000000
20
281.000000
30
0.000000
0
VERTEX
8
FRAME
10
30.310400
20
281.000000
30
0.000000
0
VERTEX
8
FRAME
10
30.310400
20
290.000000
30
0.000000
0
VERTEX
8
FRAME
10
12.000000
20
290.000000
30
0.000000
0
SEQEND
8
FRAME
0
TEXT
8
TEXT
10
14.000000
20
286.600000
30
0.000000
40
1.900000
1
재질
50
0.000000
7
STANDARD
0
TEXT
8
FRAME
10
14.000000
20
282.600000
30
0.000000
40
2.700000
1
SUS316L
50
0.000000
7
STANDARD
0
POLYLINE
8
FRAME
66
1
10
0.000000
20
0.000000
30
0.000000
70
1
0
VERTEX
8
FRAME
10
31.910400
20
281.000000
30
0.000000
0
VERTEX
8
FRAME
10
41.895296
20
281.000000
30
0.000000
0
VERTEX
8
FRAME
10
41.895296
20
290.000000
30
0.000000
0
VERTEX
8
FRAME
10
31.910400
20
290.000000
30
0.000000
0
SEQEND
8
FRAME
0
TEXT
8
TEXT
10
33.910400
20
286.600000
30
0.000000
40
1.900000
1
수량
50
0.000000
7
STANDARD
0
TEXT
8
FRAME
10
33.910400
20
282.600000
30
0.000000
40
2.700000
1
1 개
50
0.000000
7
STANDARD
0
POLYLINE
8
FRAME
66
1
10
0.000000
20
0.000000
30
0.000000
70
1
0
VERTEX
8
FRAME
10
43.495296
20
281.000000
30
0.000000
0
VERTEX
8
FRAME
10
53.295296
20
281.000000
30
0.000000
0
VERTEX
8
FRAME
10
53.295296
20
290.000000
30
0.000000
0
VERTEX
8
FRAME
10
43.495296
20
290.000000
30
0.000000
0
SEQEND
8
FRAME
0
TEXT
8
TEXT
10
45.495296
20
286.600000
30
0.000000
40
1.900000
1
형상
50
0.000000
7
STANDARD
0
TEXT
8
FRAME
10
45.495296
20
282.600000
30
0.000000
40
2.700000
1
판재
50
0.000000
7
STANDARD
0
POLYLINE
8
FRAME
66
1
10
0.000000
20
0.000000
30
0.000000
70
1
0
VERTEX
8
FRAME
10
54.895296
20
281.000000
30
0.000000
0
VERTEX
8
FRAME
10
68.464064
20
281.000000
30
0.000000
0
VERTEX
8
FRAME
10
68.464064
20
290.000000
30
0.000000
0
VERTEX
8
FRAME
10
54.895296
20
290.000000
30
0.000000
0
SEQEND
8
FRAME
0
TEXT
8
TEXT
10
56.895296
20
286.600000
30
0.000000
40
1.900000
1
두께·길이
50
0.000000
7
STANDARD
0
TEXT
8
FRAME
10
56.895296
20
282.600000
30
0.000000
40
2.700000
1
1.5 mm
50
0.000000
7
STANDARD
0
POLYLINE
8
FRAME
66
1
10
0.000000
20
0.000000
30
0.000000
70
1
0
VERTEX
8
FRAME
10
70.064064
20
281.000000
30
0.000000
0
VERTEX
8
FRAME
10
94.047488
20
281.000000
30
0.000000
0
VERTEX
8
FRAME
10
94.047488
20
290.000000
30
0.000000
0
VERTEX
8
FRAME
10
70.064064
20
290.000000
30
0.000000
0
SEQEND
8
FRAME
0
TEXT
8
TEXT
10
72.064064
20
286.600000
30
0.000000
40
1.900000
1
일반공차
50
0.000000
7
STANDARD
0
TEXT
8
FRAME
10
72.064064
20
282.600000
30
0.000000
40
2.700000
1
ISO 2768-mK
50
0.000000
7
STANDARD
0
POLYLINE
8
FRAME
66
1
10
0.000000
20
0.000000
30
0.000000
70
1
0
VERTEX
8
FRAME
10
95.647488
20
281.000000
30
0.000000
0
VERTEX
8
FRAME
10
114.293552
20
281.000000
30
0.000000
0
VERTEX
8
FRAME
10
114.293552
20
290.000000
30
0.000000
0
VERTEX
8
FRAME
10
95.647488
20
290.000000
30
0.000000
0
SEQEND
8
FRAME
0
TEXT
8
TEXT
10
97.647488
20
286.600000
30
0.000000
40
1.900000
1
설계확정도
50
0.000000
7
STANDARD
0
TEXT
8
FRAME
10
97.647488
20
282.600000
30
0.000000
40
2.700000
1
RELEASE
50
0.000000
7
STANDARD
0
POLYLINE
8
CUT
66
1
10
0.000000
20
0.000000
30
0.000000
70
1
0
VERTEX
8
CUT
10
62.000000
20
182.000000
30
0.000000
42
1.000000
0
VERTEX
8
CUT
10
182.000000
20
182.000000
30
0.000000
42
1.000000
0
SEQEND
8
CUT
0
POLYLINE
8
HOLE
66
1
10
0.000000
20
0.000000
30
0.000000
70
1
0
VERTEX
8
HOLE
10
119.500000
20
163.813467
30
0.000000
42
-1.000000
0
VERTEX
8
HOLE
10
120.300000
20
163.813467
30
0.000000
42
-1.000000
0
SEQEND
8
HOLE
0
POLYLINE
8
HOLE
66
1
10
0.000000
20
0.000000
30
0.000000
70
1
0
VERTEX
8
HOLE
10
120.900000
20
163.813467
30
0.000000
42
-1.000000
0
VERTEX
8
HOLE
10
121.700000
20
163.813467
30
0.000000
42
-1.000000
0
SEQEND
8
HOLE
0
POLYLINE
8
HOLE
66
1
10
0.000000
20
0.000000
30
0.000000
70
1
0
VERTEX
8
HOLE
10
122.300000
20
163.813467
30
0.000000
42
-1.000000
0
VERTEX
8
HOLE
10
123.100000
20
163.813467
30
0.000000
42
-1.000000
0
SEQEND
8
HOLE
0
POLYLINE
8
HOLE
66
1
10
0.000000
20
0.000000
30
0.000000
70
1
0
VERTEX
8
HOLE
10
123.700000
20
163.813467
30
0.000000
42
-1.000000
0
VERTEX
8
HOLE
10
124.500000
20
163.813467
30
0.000000
42
-1.000000
0
SEQEND
8
HOLE
0
POLYLINE
8
HOLE
66
1
10
0.000000
20
0.000000
30
0.000000
70
1
0
VERTEX
8
HOLE
10
114.600000
20
165.025902
30
0.000000
42
-1.000000
0
VERTEX
8
HOLE
10
115.400000
20
165.025902
30
0.000000
42
-1.000000
0
SEQEND
8
HOLE
0
POLYLINE
8
HOLE
66
1
10
0.000000
20
0.000000
30
0.000000
70
1
0
VERTEX
8
HOLE
10
116.000000
20
165.025902
30
0.000000
42
-1.000000
0
VERTEX
8
HOLE
10
116.800000
20
165.025902
30
0.000000
42
-1.000000
0
SEQEND
8
HOLE
0
POLYLINE
8
HOLE
66
1
10
0.000000
20
0.000000
30
0.000000
70
1
0
VERTEX
8
HOLE
10
117.400000
20
165.025902
30
0.000000
42
-1.000000
0
VERTEX
8
HOLE
10
118.200000
20
165.025902
30
0.000000
42
-1.000000
0
SEQEND
8
HOLE
0
POLYLINE
8
HOLE
66
1
10
0.000000
20
0.000000
30
0.000000
70
1
0
VERTEX
8
HOLE
10
118.800000
20
165.025902
30
0.000000
42
-1.000000
0
VERTEX
8
HOLE
10
119.600000
20
165.025902
30
0.000000
42
-1.000000
0
SEQEND
8
HOLE
0
POLYLINE
8
HOLE
66
1
10
0.000000
20
0.000000
30
0.000000
70
1
0
VERTEX
8
HOLE
10
120.200000
20
165.025902
30
0.000000
42
-1.000000
0
VERTEX
8
HOLE
10
121.000000
20
165.025902
30
0.000000
42
-1.000000
0
SEQEND
8
HOLE
0
POLYLINE
8
HOLE
66
1
10
0.000000
20
0.000000
30
0.000000
70
1
0
VERTEX
8
HOLE
10
121.600000
20
165.025902
30
0.000000
42
-1.000000
0
VERTEX
8
HOLE
10
122.400000
20
165.025902
30
0.000000
42
-1.000000
0
SEQEND
8
HOLE
0
POLYLINE
8
HOLE
66
1
10
0.000000
20
0.000000
30
0.000000
70
1
0
VERTEX
8
HOLE
10
123.000000
20
165.025902
30
0.000000
42
-1.000000
0
VERTEX
8
HOLE
10
123.800000
20
165.025902
30
0.000000
42
-1.000000
0
SEQEND
8
HOLE
0
POLYLINE
8
HOLE
66
1
10
0.000000
20
0.000000
30
0.000000
70
1
0
VERTEX
8
HOLE
10
124.400000
20
165.025902
30
0.000000
42
-1.000000
0
VERTEX
8
HOLE
10
125.200000
20
165.025902
30
0.000000
42
-1.000000
0
SEQEND
8
HOLE
0
POLYLINE
8
HOLE
66
1
10
0.000000
20
0.000000
30
0.000000
70
1
0
VERTEX
8
HOLE
10
125.800000
20
165.025902
30
0.000000
42
-1.000000
0
VERTEX
8
HOLE
10
126.600000
20
165.025902
30
0.000000
42
-1.000000
0
SEQEND
8
HOLE
0
POLYLINE
8
HOLE
66
1
10
0.000000
20
0.000000
30
0.000000
70
1
0
VERTEX
8
HOLE
10
127.200000
20
165.025902
30
0.000000
42
-1.000000
0
VERTEX
8
HOLE
10
128.000000
20
165.025902
30
0.000000
42
-1.000000
0
SEQEND
8
HOLE
0
POLYLINE
8
HOLE
66
1
10
0.000000
20
0.000000
30
0.000000
70
1
0
VERTEX
8
HOLE
10
128.600000
20
165.025902
30
0.000000
42
-1.000000
0
VERTEX
8
HOLE
10
129.400000
20
165.025902
30
0.000000
42
-1.000000
0
SEQEND
8
HOLE
0
POLYLINE
8
HOLE
66
1
10
0.000000
20
0.000000
30
0.000000
70
1
0
VERTEX
8
HOLE
10
112.500000
20
166.238338
30
0.000000
42
-1.000000
0
VERTEX
8
HOLE
10
113.300000
20
166.238338
30
0.000000
42
-1.000000
0
SEQEND
8
HOLE
0
POLYLINE
8
HOLE
66
1
10
0.000000
20
0.000000
30
0.000000
70
1
0
VERTEX
8
HOLE
10
113.900000
20
166.238338
30
0.000000
42
-1.000000
0
VERTEX
8
HOLE
10
114.700000
20
166.238338
30
0.000000
42
-1.000000
0
SEQEND
8
HOLE
0
POLYLINE
8
HOLE
66
1
10
0.000000
20
0.000000
30
0.000000
70
1
0
VERTEX
8
HOLE
10
115.300000
20
166.238338
30
0.000000
42
-1.000000
0
VERTEX
8
HOLE
10
116.100000
20
166.238338
30
0.000000
42
-1.000000
0
SEQEND
8
HOLE
0
POLYLINE
8
HOLE
66
1
10
0.000000
20
0.000000
30
0.000000
70
1
0
VERTEX
8
HOLE
10
116.700000
20
166.238338
30
0.000000
42
-1.000000
0
VERTEX
8
HOLE
10
117.500000
20
166.238338
30
0.000000
42
-1.000000
0
SEQEND
8
HOLE
0
POLYLINE
8
HOLE
66
1
10
0.000000
20
0.000000
30
0.000000
70
1
0
VERTEX
8
HOLE
10
118.100000
20
166.238338
30
0.000000
42
-1.000000
0
VERTEX
8
HOLE
10
118.900000
20
166.238338
30
0.000000
42
-1.000000
0
SEQEND
8
HOLE
0
POLYLINE
8
HOLE
66
1
10
0.000000
20
0.000000
30
0.000000
70
1
0
VERTEX
8
HOLE
10
119.500000
20
166.238338
30
0.000000
42
-1.000000
0
VERTEX
8
HOLE
10
120.300000
20
166.238338
30
0.000000
42
-1.000000
0
SEQEND
8
HOLE
0
POLYLINE
8
HOLE
66
1
10
0.000000
20
0.000000
30
0.000000
70
1
0
VERTEX
8
HOLE
10
120.900000
20
166.238338
30
0.000000
42
-1.000000
0
VERTEX
8
HOLE
10
121.700000
20
166.238338
30
0.000000
42
-1.000000
0
SEQEND
8
HOLE
0
POLYLINE
8
HOLE
66
1
10
0.000000
20
0.000000
30
0.000000
70
1
0
VERTEX
8
HOLE
10
122.300000
20
166.238338
30
0.000000
42
-1.000000
0
VERTEX
8
HOLE
10
123.100000
20
166.238338
30
0.000000
42
-1.000000
0
SEQEND
8
HOLE
0
POLYLINE
8
HOLE
66
1
10
0.000000
20
0.000000
30
0.000000
70
1
0
VERTEX
8
HOLE
10
123.700000
20
166.238338
30
0.000000
42
-1.000000
0
VERTEX
8
HOLE
10
124.500000
20
166.238338
30
0.000000
42
-1.000000
0
SEQEND
8
HOLE
0
POLYLINE
8
HOLE
66
1
10
0.000000
20
0.000000
30
0.000000
70
1
0
VERTEX
8
HOLE
10
125.100000
20
166.238338
30
0.000000
42
-1.000000
0
VERTEX
8
HOLE
10
125.900000
20
166.238338
30
0.000000
42
-1.000000
0
SEQEND
8
HOLE
0
POLYLINE
8
HOLE
66
1
10
0.000000
20
0.000000
30
0.000000
70
1
0
VERTEX
8
HOLE
10
126.500000
20
166.238338
30
0.000000
42
-1.000000
0
VERTEX
8
HOLE
10
127.300000
20
166.238338
30
0.000000
42
-1.000000
0
SEQEND
8
HOLE
0
POLYLINE
8
HOLE
66
1
10
0.000000
20
0.000000
30
0.000000
70
1
0
VERTEX
8
HOLE
10
127.900000
20
166.238338
30
0.000000
42
-1.000000
0
VERTEX
8
HOLE
10
128.700000
20
166.238338
30
0.000000
42
-1.000000
0
SEQEND
8
HOLE
0
POLYLINE
8
HOLE
66
1
10
0.000000
20
0.000000
30
0.000000
70
1
0
VERTEX
8
HOLE
10
129.300000
20
166.238338
30
0.000000
42
-1.000000
0
VERTEX
8
HOLE
10
130.100000
20
166.238338
30
0.000000
42
-1.000000
0
SEQEND
8
HOLE
0
POLYLINE
8
HOLE
66
1
10
0.000000
20
0.000000
30
0.000000
70
1
0
VERTEX
8
HOLE
10
130.700000
20
166.238338
30
0.000000
42
-1.000000
0
VERTEX
8
HOLE
10
131.500000
20
166.238338
30
0.000000
42
-1.000000
0
SEQEND
8
HOLE
0
POLYLINE
8
HOLE
66
1
10
0.000000
20
0.000000
30
0.000000
70
1
0
VERTEX
8
HOLE
10
110.400000
20
167.450773
30
0.000000
42
-1.000000
0
VERTEX
8
HOLE
10
111.200000
20
167.450773
30
0.000000
42
-1.000000
0
SEQEND
8
HOLE
0
POLYLINE
8
HOLE
66
1
10
0.000000
20
0.000000
30
0.000000
70
1
0
VERTEX
8
HOLE
10
111.800000
20
167.450773
30
0.000000
42
-1.000000
0
VERTEX
8
HOLE
10
112.600000
20
167.450773
30
0.000000
42
-1.000000
0
SEQEND
8
HOLE
0
POLYLINE
8
HOLE
66
1
10
0.000000
20
0.000000
30
0.000000
70
1
0
VERTEX
8
HOLE
10
113.200000
20
167.450773
30
0.000000
42
-1.000000
0
VERTEX
8
HOLE
10
114.000000
20
167.450773
30
0.000000
42
-1.000000
0
SEQEND
8
HOLE
0
POLYLINE
8
HOLE
66
1
10
0.000000
20
0.000000
30
0.000000
70
1
0
VERTEX
8
HOLE
10
114.600000
20
167.450773
30
0.000000
42
-1.000000
0
VERTEX
8
HOLE
10
115.400000
20
167.450773
30
0.000000
42
-1.000000
0
SEQEND
8
HOLE
0
POLYLINE
8
HOLE
66
1
10
0.000000
20
0.000000
30
0.000000
70
1
0
VERTEX
8
HOLE
10
116.000000
20
167.450773
30
0.000000
42
-1.000000
0
VERTEX
8
HOLE
10
116.800000
20
167.450773
30
0.000000
42
-1.000000
0
SEQEND
8
HOLE
0
POLYLINE
8
HOLE
66
1
10
0.000000
20
0.000000
30
0.000000
70
1
0
VERTEX
8
HOLE
10
117.400000
20
167.450773
30
0.000000
42
-1.000000
0
VERTEX
8
HOLE
10
118.200000
20
167.450773
30
0.000000
42
-1.000000
0
SEQEND
8
HOLE
0
POLYLINE
8
HOLE
66
1
10
0.000000
20
0.000000
30
0.000000
70
1
0
VERTEX
8
HOLE
10
118.800000
20
167.450773
30
0.000000
42
-1.000000
0
VERTEX
8
HOLE
10
119.600000
20
167.450773
30
0.000000
42
-1.000000
0
SEQEND
8
HOLE
0
POLYLINE
8
HOLE
66
1
10
0.000000
20
0.000000
30
0.000000
70
1
0
VERTEX
8
HOLE
10
120.200000
20
167.450773
30
0.000000
42
-1.000000
0
VERTEX
8
HOLE
10
121.000000
20
167.450773
30
0.000000
42
-1.000000
0
SEQEND
8
HOLE
0
POLYLINE
8
HOLE
66
1
10
0.000000
20
0.000000
30
0.000000
70
1
0
VERTEX
8
HOLE
10
121.600000
20
167.450773
30
0.000000
42
-1.000000
0
VERTEX
8
HOLE
10
122.400000
20
167.450773
30
0.000000
42
-1.000000
0
SEQEND
8
HOLE
0
POLYLINE
8
HOLE
66
1
10
0.000000
20
0.000000
30
0.000000
70
1
0
VERTEX
8
HOLE
10
123.000000
20
167.450773
30
0.000000
42
-1.000000
0
VERTEX
8
HOLE
10
123.800000
20
167.450773
30
0.000000
42
-1.000000
0
SEQEND
8
HOLE
0
POLYLINE
8
HOLE
66
1
10
0.000000
20
0.000000
30
0.000000
70
1
0
VERTEX
8
HOLE
10
124.400000
20
167.450773
30
0.000000
42
-1.000000
0
VERTEX
8
HOLE
10
125.200000
20
167.450773
30
0.000000
42
-1.000000
0
SEQEND
8
HOLE
0
POLYLINE
8
HOLE
66
1
10
0.000000
20
0.000000
30
0.000000
70
1
0
VERTEX
8
HOLE
10
125.800000
20
167.450773
30
0.000000
42
-1.000000
0
VERTEX
8
HOLE
10
126.600000
20
167.450773
30
0.000000
42
-1.000000
0
SEQEND
8
HOLE
0
POLYLINE
8
HOLE
66
1
10
0.000000
20
0.000000
30
0.000000
70
1
0
VERTEX
8
HOLE
10
127.200000
20
167.450773
30
0.000000
42
-1.000000
0
VERTEX
8
HOLE
10
128.000000
20
167.450773
30
0.000000
42
-1.000000
0
SEQEND
8
HOLE
0
POLYLINE
8
HOLE
66
1
10
0.000000
20
0.000000
30
0.000000
70
1
0
VERTEX
8
HOLE
10
128.600000
20
167.450773
30
0.000000
42
-1.000000
0
VERTEX
8
HOLE
10
129.400000
20
167.450773
30
0.000000
42
-1.000000
0
SEQEND
8
HOLE
0
POLYLINE
8
HOLE
66
1
10
0.000000
20
0.000000
30
0.000000
70
1
0
VERTEX
8
HOLE
10
130.000000
20
167.450773
30
0.000000
42
-1.000000
0
VERTEX
8
HOLE
10
130.800000
20
167.450773
30
0.000000
42
-1.000000
0
SEQEND
8
HOLE
0
POLYLINE
8
HOLE
66
1
10
0.000000
20
0.000000
30
0.000000
70
1
0
VERTEX
8
HOLE
10
131.400000
20
167.450773
30
0.000000
42
-1.000000
0
VERTEX
8
HOLE
10
132.200000
20
167.450773
30
0.000000
42
-1.000000
0
SEQEND
8
HOLE
0
POLYLINE
8
HOLE
66
1
10
0.000000
20
0.000000
30
0.000000
70
1
0
VERTEX
8
HOLE
10
132.800000
20
167.450773
30
0.000000
42
-1.000000
0
VERTEX
8
HOLE
10
133.600000
20
167.450773
30
0.000000
42
-1.000000
0
SEQEND
8
HOLE
0
POLYLINE
8
HOLE
66
1
10
0.000000
20
0.000000
30
0.000000
70
1
0
VERTEX
8
HOLE
10
109.700000
20
168.663209
30
0.000000
42
-1.000000
0
VERTEX
8
HOLE
10
110.500000
20
168.663209
30
0.000000
42
-1.000000
0
SEQEND
8
HOLE
0
POLYLINE
8
HOLE
66
1
10
0.000000
20
0.000000
30
0.000000
70
1
0
VERTEX
8
HOLE
10
111.100000
20
168.663209
30
0.000000
42
-1.000000
0
VERTEX
8
HOLE
10
111.900000
20
168.663209
30
0.000000
42
-1.000000
0
SEQEND
8
HOLE
0
POLYLINE
8
HOLE
66
1
10
0.000000
20
0.000000
30
0.000000
70
1
0
VERTEX
8
HOLE
10
112.500000
20
168.663209
30
0.000000
42
-1.000000
0
VERTEX
8
HOLE
10
113.300000
20
168.663209
30
0.000000
42
-1.000000
0
SEQEND
8
HOLE
0
POLYLINE
8
HOLE
66
1
10
0.000000
20
0.000000
30
0.000000
70
1
0
VERTEX
8
HOLE
10
113.900000
20
168.663209
30
0.000000
42
-1.000000
0
VERTEX
8
HOLE
10
114.700000
20
168.663209
30
0.000000
42
-1.000000
0
SEQEND
8
HOLE
0
POLYLINE
8
HOLE
66
1
10
0.000000
20
0.000000
30
0.000000
70
1
0
VERTEX
8
HOLE
10
115.300000
20
168.663209
30
0.000000
42
-1.000000
0
VERTEX
8
HOLE
10
116.100000
20
168.663209
30
0.000000
42
-1.000000
0
SEQEND
8
HOLE
0
POLYLINE
8
HOLE
66
1
10
0.000000
20
0.000000
30
0.000000
70
1
0
VERTEX
8
HOLE
10
116.700000
20
168.663209
30
0.000000
42
-1.000000
0
VERTEX
8
HOLE
10
117.500000
20
168.663209
30
0.000000
42
-1.000000
0
SEQEND
8
HOLE
0
POLYLINE
8
HOLE
66
1
10
0.000000
20
0.000000
30
0.000000
70
1
0
VERTEX
8
HOLE
10
118.100000
20
168.663209
30
0.000000
42
-1.000000
0
VERTEX
8
HOLE
10
118.900000
20
168.663209
30
0.000000
42
-1.000000
0
SEQEND
8
HOLE
0
POLYLINE
8
HOLE
66
1
10
0.000000
20
0.000000
30
0.000000
70
1
0
VERTEX
8
HOLE
10
119.500000
20
168.663209
30
0.000000
42
-1.000000
0
VERTEX
8
HOLE
10
120.300000
20
168.663209
30
0.000000
42
-1.000000
0
SEQEND
8
HOLE
0
POLYLINE
8
HOLE
66
1
10
0.000000
20
0.000000
30
0.000000
70
1
0
VERTEX
8
HOLE
10
120.900000
20
168.663209
30
0.000000
42
-1.000000
0
VERTEX
8
HOLE
10
121.700000
20
168.663209
30
0.000000
42
-1.000000
0
SEQEND
8
HOLE
0
POLYLINE
8
HOLE
66
1
10
0.000000
20
0.000000
30
0.000000
70
1
0
VERTEX
8
HOLE
10
122.300000
20
168.663209
30
0.000000
42
-1.000000
0
VERTEX
8
HOLE
10
123.100000
20
168.663209
30
0.000000
42
-1.000000
0
SEQEND
8
HOLE
0
POLYLINE
8
HOLE
66
1
10
0.000000
20
0.000000
30
0.000000
70
1
0
VERTEX
8
HOLE
10
123.700000
20
168.663209
30
0.000000
42
-1.000000
0
VERTEX
8
HOLE
10
124.500000
20
168.663209
30
0.000000
42
-1.000000
0
SEQEND
8
HOLE
0
POLYLINE
8
HOLE
66
1
10
0.000000
20
0.000000
30
0.000000
70
1
0
VERTEX
8
HOLE
10
125.100000
20
168.663209
30
0.000000
42
-1.000000
0
VERTEX
8
HOLE
10
125.900000
20
168.663209
30
0.000000
42
-1.000000
0
SEQEND
8
HOLE
0
POLYLINE
8
HOLE
66
1
10
0.000000
20
0.000000
30
0.000000
70
1
0
VERTEX
8
HOLE
10
126.500000
20
168.663209
30
0.000000
42
-1.000000
0
VERTEX
8
HOLE
10
127.300000
20
168.663209
30
0.000000
42
-1.000000
0
SEQEND
8
HOLE
0
POLYLINE
8
HOLE
66
1
10
0.000000
20
0.000000
30
0.000000
70
1
0
VERTEX
8
HOLE
10
127.900000
20
168.663209
30
0.000000
42
-1.000000
0
VERTEX
8
HOLE
10
128.700000
20
168.663209
30
0.000000
42
-1.000000
0
SEQEND
8
HOLE
0
POLYLINE
8
HOLE
66
1
10
0.000000
20
0.000000
30
0.000000
70
1
0
VERTEX
8
HOLE
10
129.300000
20
168.663209
30
0.000000
42
-1.000000
0
VERTEX
8
HOLE
10
130.100000
20
168.663209
30
0.000000
42
-1.000000
0
SEQEND
8
HOLE
0
POLYLINE
8
HOLE
66
1
10
0.000000
20
0.000000
30
0.000000
70
1
0
VERTEX
8
HOLE
10
130.700000
20
168.663209
30
0.000000
42
-1.000000
0
VERTEX
8
HOLE
10
131.500000
20
168.663209
30
0.000000
42
-1.000000
0
SEQEND
8
HOLE
0
POLYLINE
8
HOLE
66
1
10
0.000000
20
0.000000
30
0.000000
70
1
0
VERTEX
8
HOLE
10
132.100000
20
168.663209
30
0.000000
42
-1.000000
0
VERTEX
8
HOLE
10
132.900000
20
168.663209
30
0.000000
42
-1.000000
0
SEQEND
8
HOLE
0
POLYLINE
8
HOLE
66
1
10
0.000000
20
0.000000
30
0.000000
70
1
0
VERTEX
8
HOLE
10
133.500000
20
168.663209
30
0.000000
42
-1.000000
0
VERTEX
8
HOLE
10
134.300000
20
168.663209
30
0.000000
42
-1.000000
0
SEQEND
8
HOLE
0
POLYLINE
8
HOLE
66
1
10
0.000000
20
0.000000
30
0.000000
70
1
0
VERTEX
8
HOLE
10
109.000000
20
169.875644
30
0.000000
42
-1.000000
0
VERTEX
8
HOLE
10
109.800000
20
169.875644
30
0.000000
42
-1.000000
0
SEQEND
8
HOLE
0
POLYLINE
8
HOLE
66
1
10
0.000000
20
0.000000
30
0.000000
70
1
0
VERTEX
8
HOLE
10
110.400000
20
169.875644
30
0.000000
42
-1.000000
0
VERTEX
8
HOLE
10
111.200000
20
169.875644
30
0.000000
42
-1.000000
0
SEQEND
8
HOLE
0
POLYLINE
8
HOLE
66
1
10
0.000000
20
0.000000
30
0.000000
70
1
0
VERTEX
8
HOLE
10
111.800000
20
169.875644
30
0.000000
42
-1.000000
0
VERTEX
8
HOLE
10
112.600000
20
169.875644
30
0.000000
42
-1.000000
0
SEQEND
8
HOLE
0
POLYLINE
8
HOLE
66
1
10
0.000000
20
0.000000
30
0.000000
70
1
0
VERTEX
8
HOLE
10
113.200000
20
169.875644
30
0.000000
42
-1.000000
0
VERTEX
8
HOLE
10
114.000000
20
169.875644
30
0.000000
42
-1.000000
0
SEQEND
8
HOLE
0
POLYLINE
8
HOLE
66
1
10
0.000000
20
0.000000
30
0.000000
70
1
0
VERTEX
8
HOLE
10
114.600000
20
169.875644
30
0.000000
42
-1.000000
0
VERTEX
8
HOLE
10
115.400000
20
169.875644
30
0.000000
42
-1.000000
0
SEQEND
8
HOLE
0
POLYLINE
8
HOLE
66
1
10
0.000000
20
0.000000
30
0.000000
70
1
0
VERTEX
8
HOLE
10
116.000000
20
169.875644
30
0.000000
42
-1.000000
0
VERTEX
8
HOLE
10
116.800000
20
169.875644
30
0.000000
42
-1.000000
0
SEQEND
8
HOLE
0
POLYLINE
8
HOLE
66
1
10
0.000000
20
0.000000
30
0.000000
70
1
0
VERTEX
8
HOLE
10
117.400000
20
169.875644
30
0.000000
42
-1.000000
0
VERTEX
8
HOLE
10
118.200000
20
169.875644
30
0.000000
42
-1.000000
0
SEQEND
8
HOLE
0
POLYLINE
8
HOLE
66
1
10
0.000000
20
0.000000
30
0.000000
70
1
0
VERTEX
8
HOLE
10
118.800000
20
169.875644
30
0.000000
42
-1.000000
0
VERTEX
8
HOLE
10
119.600000
20
169.875644
30
0.000000
42
-1.000000
0
SEQEND
8
HOLE
0
POLYLINE
8
HOLE
66
1
10
0.000000
20
0.000000
30
0.000000
70
1
0
VERTEX
8
HOLE
10
120.200000
20
169.875644
30
0.000000
42
-1.000000
0
VERTEX
8
HOLE
10
121.000000
20
169.875644
30
0.000000
42
-1.000000
0
SEQEND
8
HOLE
0
POLYLINE
8
HOLE
66
1
10
0.000000
20
0.000000
30
0.000000
70
1
0
VERTEX
8
HOLE
10
121.600000
20
169.875644
30
0.000000
42
-1.000000
0
VERTEX
8
HOLE
10
122.400000
20
169.875644
30
0.000000
42
-1.000000
0
SEQEND
8
HOLE
0
POLYLINE
8
HOLE
66
1
10
0.000000
20
0.000000
30
0.000000
70
1
0
VERTEX
8
HOLE
10
123.000000
20
169.875644
30
0.000000
42
-1.000000
0
VERTEX
8
HOLE
10
123.800000
20
169.875644
30
0.000000
42
-1.000000
0
SEQEND
8
HOLE
0
POLYLINE
8
HOLE
66
1
10
0.000000
20
0.000000
30
0.000000
70
1
0
VERTEX
8
HOLE
10
124.400000
20
169.875644
30
0.000000
42
-1.000000
0
VERTEX
8
HOLE
10
125.200000
20
169.875644
30
0.000000
42
-1.000000
0
SEQEND
8
HOLE
0
POLYLINE
8
HOLE
66
1
10
0.000000
20
0.000000
30
0.000000
70
1
0
VERTEX
8
HOLE
10
125.800000
20
169.875644
30
0.000000
42
-1.000000
0
VERTEX
8
HOLE
10
126.600000
20
169.875644
30
0.000000
42
-1.000000
0
SEQEND
8
HOLE
0
POLYLINE
8
HOLE
66
1
10
0.000000
20
0.000000
30
0.000000
70
1
0
VERTEX
8
HOLE
10
127.200000
20
169.875644
30
0.000000
42
-1.000000
0
VERTEX
8
HOLE
10
128.000000
20
169.875644
30
0.000000
42
-1.000000
0
SEQEND
8
HOLE
0
POLYLINE
8
HOLE
66
1
10
0.000000
20
0.000000
30
0.000000
70
1
0
VERTEX
8
HOLE
10
128.600000
20
169.875644
30
0.000000
42
-1.000000
0
VERTEX
8
HOLE
10
129.400000
20
169.875644
30
0.000000
42
-1.000000
0
SEQEND
8
HOLE
0
POLYLINE
8
HOLE
66
1
10
0.000000
20
0.000000
30
0.000000
70
1
0
VERTEX
8
HOLE
10
130.000000
20
169.875644
30
0.000000
42
-1.000000
0
VERTEX
8
HOLE
10
130.800000
20
169.875644
30
0.000000
42
-1.000000
0
SEQEND
8
HOLE
0
POLYLINE
8
HOLE
66
1
10
0.000000
20
0.000000
30
0.000000
70
1
0
VERTEX
8
HOLE
10
131.400000
20
169.875644
30
0.000000
42
-1.000000
0
VERTEX
8
HOLE
10
132.200000
20
169.875644
30
0.000000
42
-1.000000
0
SEQEND
8
HOLE
0
POLYLINE
8
HOLE
66
1
10
0.000000
20
0.000000
30
0.000000
70
1
0
VERTEX
8
HOLE
10
132.800000
20
169.875644
30
0.000000
42
-1.000000
0
VERTEX
8
HOLE
10
133.600000
20
169.875644
30
0.000000
42
-1.000000
0
SEQEND
8
HOLE
0
POLYLINE
8
HOLE
66
1
10
0.000000
20
0.000000
30
0.000000
70
1
0
VERTEX
8
HOLE
10
134.200000
20
169.875644
30
0.000000
42
-1.000000
0
VERTEX
8
HOLE
10
135.000000
20
169.875644
30
0.000000
42
-1.000000
0
SEQEND
8
HOLE
0
POLYLINE
8
HOLE
66
1
10
0.000000
20
0.000000
30
0.000000
70
1
0
VERTEX
8
HOLE
10
109.700000
20
171.088080
30
0.000000
42
-1.000000
0
VERTEX
8
HOLE
10
110.500000
20
171.088080
30
0.000000
42
-1.000000
0
SEQEND
8
HOLE
0
POLYLINE
8
HOLE
66
1
10
0.000000
20
0.000000
30
0.000000
70
1
0
VERTEX
8
HOLE
10
111.100000
20
171.088080
30
0.000000
42
-1.000000
0
VERTEX
8
HOLE
10
111.900000
20
171.088080
30
0.000000
42
-1.000000
0
SEQEND
8
HOLE
0
POLYLINE
8
HOLE
66
1
10
0.000000
20
0.000000
30
0.000000
70
1
0
VERTEX
8
HOLE
10
112.500000
20
171.088080
30
0.000000
42
-1.000000
0
VERTEX
8
HOLE
10
113.300000
20
171.088080
30
0.000000
42
-1.000000
0
SEQEND
8
HOLE
0
POLYLINE
8
HOLE
66
1
10
0.000000
20
0.000000
30
0.000000
70
1
0
VERTEX
8
HOLE
10
113.900000
20
171.088080
30
0.000000
42
-1.000000
0
VERTEX
8
HOLE
10
114.700000
20
171.088080
30
0.000000
42
-1.000000
0
SEQEND
8
HOLE
0
POLYLINE
8
HOLE
66
1
10
0.000000
20
0.000000
30
0.000000
70
1
0
VERTEX
8
HOLE
10
115.300000
20
171.088080
30
0.000000
42
-1.000000
0
VERTEX
8
HOLE
10
116.100000
20
171.088080
30
0.000000
42
-1.000000
0
SEQEND
8
HOLE
0
POLYLINE
8
HOLE
66
1
10
0.000000
20
0.000000
30
0.000000
70
1
0
VERTEX
8
HOLE
10
116.700000
20
171.088080
30
0.000000
42
-1.000000
0
VERTEX
8
HOLE
10
117.500000
20
171.088080
30
0.000000
42
-1.000000
0
SEQEND
8
HOLE
0
POLYLINE
8
HOLE
66
1
10
0.000000
20
0.000000
30
0.000000
70
1
0
VERTEX
8
HOLE
10
118.100000
20
171.088080
30
0.000000
42
-1.000000
0
VERTEX
8
HOLE
10
118.900000
20
171.088080
30
0.000000
42
-1.000000
0
SEQEND
8
HOLE
0
POLYLINE
8
HOLE
66
1
10
0.000000
20
0.000000
30
0.000000
70
1
0
VERTEX
8
HOLE
10
119.500000
20
171.088080
30
0.000000
42
-1.000000
0
VERTEX
8
HOLE
10
120.300000
20
171.088080
30
0.000000
42
-1.000000
0
SEQEND
8
HOLE
0
POLYLINE
8
HOLE
66
1
10
0.000000
20
0.000000
30
0.000000
70
1
0
VERTEX
8
HOLE
10
120.900000
20
171.088080
30
0.000000
42
-1.000000
0
VERTEX
8
HOLE
10
121.700000
20
171.088080
30
0.000000
42
-1.000000
0
SEQEND
8
HOLE
0
POLYLINE
8
HOLE
66
1
10
0.000000
20
0.000000
30
0.000000
70
1
0
VERTEX
8
HOLE
10
122.300000
20
171.088080
30
0.000000
42
-1.000000
0
VERTEX
8
HOLE
10
123.100000
20
171.088080
30
0.000000
42
-1.000000
0
SEQEND
8
HOLE
0
POLYLINE
8
HOLE
66
1
10
0.000000
20
0.000000
30
0.000000
70
1
0
VERTEX
8
HOLE
10
123.700000
20
171.088080
30
0.000000
42
-1.000000
0
VERTEX
8
HOLE
10
124.500000
20
171.088080
30
0.000000
42
-1.000000
0
SEQEND
8
HOLE
0
POLYLINE
8
HOLE
66
1
10
0.000000
20
0.000000
30
0.000000
70
1
0
VERTEX
8
HOLE
10
125.100000
20
171.088080
30
0.000000
42
-1.000000
0
VERTEX
8
HOLE
10
125.900000
20
171.088080
30
0.000000
42
-1.000000
0
SEQEND
8
HOLE
0
POLYLINE
8
HOLE
66
1
10
0.000000
20
0.000000
30
0.000000
70
1
0
VERTEX
8
HOLE
10
126.500000
20
171.088080
30
0.000000
42
-1.000000
0
VERTEX
8
HOLE
10
127.300000
20
171.088080
30
0.000000
42
-1.000000
0
SEQEND
8
HOLE
0
POLYLINE
8
HOLE
66
1
10
0.000000
20
0.000000
30
0.000000
70
1
0
VERTEX
8
HOLE
10
127.900000
20
171.088080
30
0.000000
42
-1.000000
0
VERTEX
8
HOLE
10
128.700000
20
171.088080
30
0.000000
42
-1.000000
0
SEQEND
8
HOLE
0
POLYLINE
8
HOLE
66
1
10
0.000000
20
0.000000
30
0.000000
70
1
0
VERTEX
8
HOLE
10
129.300000
20
171.088080
30
0.000000
42
-1.000000
0
VERTEX
8
HOLE
10
130.100000
20
171.088080
30
0.000000
42
-1.000000
0
SEQEND
8
HOLE
0
POLYLINE
8
HOLE
66
1
10
0.000000
20
0.000000
30
0.000000
70
1
0
VERTEX
8
HOLE
10
130.700000
20
171.088080
30
0.000000
42
-1.000000
0
VERTEX
8
HOLE
10
131.500000
20
171.088080
30
0.000000
42
-1.000000
0
SEQEND
8
HOLE
0
POLYLINE
8
HOLE
66
1
10
0.000000
20
0.000000
30
0.000000
70
1
0
VERTEX
8
HOLE
10
132.100000
20
171.088080
30
0.000000
42
-1.000000
0
VERTEX
8
HOLE
10
132.900000
20
171.088080
30
0.000000
42
-1.000000
0
SEQEND
8
HOLE
0
POLYLINE
8
HOLE
66
1
10
0.000000
20
0.000000
30
0.000000
70
1
0
VERTEX
8
HOLE
10
133.500000
20
171.088080
30
0.000000
42
-1.000000
0
VERTEX
8
HOLE
10
134.300000
20
171.088080
30
0.000000
42
-1.000000
0
SEQEND
8
HOLE
0
POLYLINE
8
HOLE
66
1
10
0.000000
20
0.000000
30
0.000000
70
1
0
VERTEX
8
HOLE
10
134.900000
20
171.088080
30
0.000000
42
-1.000000
0
VERTEX
8
HOLE
10
135.700000
20
171.088080
30
0.000000
42
-1.000000
0
SEQEND
8
HOLE
0
POLYLINE
8
HOLE
66
1
10
0.000000
20
0.000000
30
0.000000
70
1
0
VERTEX
8
HOLE
10
109.000000
20
172.300515
30
0.000000
42
-1.000000
0
VERTEX
8
HOLE
10
109.800000
20
172.300515
30
0.000000
42
-1.000000
0
SEQEND
8
HOLE
0
POLYLINE
8
HOLE
66
1
10
0.000000
20
0.000000
30
0.000000
70
1
0
VERTEX
8
HOLE
10
110.400000
20
172.300515
30
0.000000
42
-1.000000
0
VERTEX
8
HOLE
10
111.200000
20
172.300515
30
0.000000
42
-1.000000
0
SEQEND
8
HOLE
0
POLYLINE
8
HOLE
66
1
10
0.000000
20
0.000000
30
0.000000
70
1
0
VERTEX
8
HOLE
10
111.800000
20
172.300515
30
0.000000
42
-1.000000
0
VERTEX
8
HOLE
10
112.600000
20
172.300515
30
0.000000
42
-1.000000
0
SEQEND
8
HOLE
0
POLYLINE
8
HOLE
66
1
10
0.000000
20
0.000000
30
0.000000
70
1
0
VERTEX
8
HOLE
10
113.200000
20
172.300515
30
0.000000
42
-1.000000
0
VERTEX
8
HOLE
10
114.000000
20
172.300515
30
0.000000
42
-1.000000
0
SEQEND
8
HOLE
0
POLYLINE
8
HOLE
66
1
10
0.000000
20
0.000000
30
0.000000
70
1
0
VERTEX
8
HOLE
10
114.600000
20
172.300515
30
0.000000
42
-1.000000
0
VERTEX
8
HOLE
10
115.400000
20
172.300515
30
0.000000
42
-1.000000
0
SEQEND
8
HOLE
0
POLYLINE
8
HOLE
66
1
10
0.000000
20
0.000000
30
0.000000
70
1
0
VERTEX
8
HOLE
10
116.000000
20
172.300515
30
0.000000
42
-1.000000
0
VERTEX
8
HOLE
10
116.800000
20
172.300515
30
0.000000
42
-1.000000
0
SEQEND
8
HOLE
0
POLYLINE
8
HOLE
66
1
10
0.000000
20
0.000000
30
0.000000
70
1
0
VERTEX
8
HOLE
10
117.400000
20
172.300515
30
0.000000
42
-1.000000
0
VERTEX
8
HOLE
10
118.200000
20
172.300515
30
0.000000
42
-1.000000
0
SEQEND
8
HOLE
0
POLYLINE
8
HOLE
66
1
10
0.000000
20
0.000000
30
0.000000
70
1
0
VERTEX
8
HOLE
10
118.800000
20
172.300515
30
0.000000
42
-1.000000
0
VERTEX
8
HOLE
10
119.600000
20
172.300515
30
0.000000
42
-1.000000
0
SEQEND
8
HOLE
0
POLYLINE
8
HOLE
66
1
10
0.000000
20
0.000000
30
0.000000
70
1
0
VERTEX
8
HOLE
10
120.200000
20
172.300515
30
0.000000
42
-1.000000
0
VERTEX
8
HOLE
10
121.000000
20
172.300515
30
0.000000
42
-1.000000
0
SEQEND
8
HOLE
0
POLYLINE
8
HOLE
66
1
10
0.000000
20
0.000000
30
0.000000
70
1
0
VERTEX
8
HOLE
10
121.600000
20
172.300515
30
0.000000
42
-1.000000
0
VERTEX
8
HOLE
10
122.400000
20
172.300515
30
0.000000
42
-1.000000
0
SEQEND
8
HOLE
0
POLYLINE
8
HOLE
66
1
10
0.000000
20
0.000000
30
0.000000
70
1
0
VERTEX
8
HOLE
10
123.000000
20
172.300515
30
0.000000
42
-1.000000
0
VERTEX
8
HOLE
10
123.800000
20
172.300515
30
0.000000
42
-1.000000
0
SEQEND
8
HOLE
0
POLYLINE
8
HOLE
66
1
10
0.000000
20
0.000000
30
0.000000
70
1
0
VERTEX
8
HOLE
10
124.400000
20
172.300515
30
0.000000
42
-1.000000
0
VERTEX
8
HOLE
10
125.200000
20
172.300515
30
0.000000
42
-1.000000
0
SEQEND
8
HOLE
0
POLYLINE
8
HOLE
66
1
10
0.000000
20
0.000000
30
0.000000
70
1
0
VERTEX
8
HOLE
10
125.800000
20
172.300515
30
0.000000
42
-1.000000
0
VERTEX
8
HOLE
10
126.600000
20
172.300515
30
0.000000
42
-1.000000
0
SEQEND
8
HOLE
0
POLYLINE
8
HOLE
66
1
10
0.000000
20
0.000000
30
0.000000
70
1
0
VERTEX
8
HOLE
10
127.200000
20
172.300515
30
0.000000
42
-1.000000
0
VERTEX
8
HOLE
10
128.000000
20
172.300515
30
0.000000
42
-1.000000
0
SEQEND
8
HOLE
0
POLYLINE
8
HOLE
66
1
10
0.000000
20
0.000000
30
0.000000
70
1
0
VERTEX
8
HOLE
10
128.600000
20
172.300515
30
0.000000
42
-1.000000
0
VERTEX
8
HOLE
10
129.400000
20
172.300515
30
0.000000
42
-1.000000
0
SEQEND
8
HOLE
0
POLYLINE
8
HOLE
66
1
10
0.000000
20
0.000000
30
0.000000
70
1
0
VERTEX
8
HOLE
10
130.000000
20
172.300515
30
0.000000
42
-1.000000
0
VERTEX
8
HOLE
10
130.800000
20
172.300515
30
0.000000
42
-1.000000
0
SEQEND
8
HOLE
0
POLYLINE
8
HOLE
66
1
10
0.000000
20
0.000000
30
0.000000
70
1
0
VERTEX
8
HOLE
10
131.400000
20
172.300515
30
0.000000
42
-1.000000
0
VERTEX
8
HOLE
10
132.200000
20
172.300515
30
0.000000
42
-1.000000
0
SEQEND
8
HOLE
0
POLYLINE
8
HOLE
66
1
10
0.000000
20
0.000000
30
0.000000
70
1
0
VERTEX
8
HOLE
10
132.800000
20
172.300515
30
0.000000
42
-1.000000
0
VERTEX
8
HOLE
10
133.600000
20
172.300515
30
0.000000
42
-1.000000
0
SEQEND
8
HOLE
0
POLYLINE
8
HOLE
66
1
10
0.000000
20
0.000000
30
0.000000
70
1
0
VERTEX
8
HOLE
10
134.200000
20
172.300515
30
0.000000
42
-1.000000
0
VERTEX
8
HOLE
10
135.000000
20
172.300515
30
0.000000
42
-1.000000
0
SEQEND
8
HOLE
0
POLYLINE
8
HOLE
66
1
10
0.000000
20
0.000000
30
0.000000
70
1
0
VERTEX
8
HOLE
10
109.700000
20
173.512951
30
0.000000
42
-1.000000
0
VERTEX
8
HOLE
10
110.500000
20
173.512951
30
0.000000
42
-1.000000
0
SEQEND
8
HOLE
0
POLYLINE
8
HOLE
66
1
10
0.000000
20
0.000000
30
0.000000
70
1
0
VERTEX
8
HOLE
10
111.100000
20
173.512951
30
0.000000
42
-1.000000
0
VERTEX
8
HOLE
10
111.900000
20
173.512951
30
0.000000
42
-1.000000
0
SEQEND
8
HOLE
0
POLYLINE
8
HOLE
66
1
10
0.000000
20
0.000000
30
0.000000
70
1
0
VERTEX
8
HOLE
10
112.500000
20
173.512951
30
0.000000
42
-1.000000
0
VERTEX
8
HOLE
10
113.300000
20
173.512951
30
0.000000
42
-1.000000
0
SEQEND
8
HOLE
0
POLYLINE
8
HOLE
66
1
10
0.000000
20
0.000000
30
0.000000
70
1
0
VERTEX
8
HOLE
10
113.900000
20
173.512951
30
0.000000
42
-1.000000
0
VERTEX
8
HOLE
10
114.700000
20
173.512951
30
0.000000
42
-1.000000
0
SEQEND
8
HOLE
0
POLYLINE
8
HOLE
66
1
10
0.000000
20
0.000000
30
0.000000
70
1
0
VERTEX
8
HOLE
10
115.300000
20
173.512951
30
0.000000
42
-1.000000
0
VERTEX
8
HOLE
10
116.100000
20
173.512951
30
0.000000
42
-1.000000
0
SEQEND
8
HOLE
0
POLYLINE
8
HOLE
66
1
10
0.000000
20
0.000000
30
0.000000
70
1
0
VERTEX
8
HOLE
10
116.700000
20
173.512951
30
0.000000
42
-1.000000
0
VERTEX
8
HOLE
10
117.500000
20
173.512951
30
0.000000
42
-1.000000
0
SEQEND
8
HOLE
0
POLYLINE
8
HOLE
66
1
10
0.000000
20
0.000000
30
0.000000
70
1
0
VERTEX
8
HOLE
10
118.100000
20
173.512951
30
0.000000
42
-1.000000
0
VERTEX
8
HOLE
10
118.900000
20
173.512951
30
0.000000
42
-1.000000
0
SEQEND
8
HOLE
0
POLYLINE
8
HOLE
66
1
10
0.000000
20
0.000000
30
0.000000
70
1
0
VERTEX
8
HOLE
10
119.500000
20
173.512951
30
0.000000
42
-1.000000
0
VERTEX
8
HOLE
10
120.300000
20
173.512951
30
0.000000
42
-1.000000
0
SEQEND
8
HOLE
0
POLYLINE
8
HOLE
66
1
10
0.000000
20
0.000000
30
0.000000
70
1
0
VERTEX
8
HOLE
10
120.900000
20
173.512951
30
0.000000
42
-1.000000
0
VERTEX
8
HOLE
10
121.700000
20
173.512951
30
0.000000
42
-1.000000
0
SEQEND
8
HOLE
0
POLYLINE
8
HOLE
66
1
10
0.000000
20
0.000000
30
0.000000
70
1
0
VERTEX
8
HOLE
10
122.300000
20
173.512951
30
0.000000
42
-1.000000
0
VERTEX
8
HOLE
10
123.100000
20
173.512951
30
0.000000
42
-1.000000
0
SEQEND
8
HOLE
0
POLYLINE
8
HOLE
66
1
10
0.000000
20
0.000000
30
0.000000
70
1
0
VERTEX
8
HOLE
10
123.700000
20
173.512951
30
0.000000
42
-1.000000
0
VERTEX
8
HOLE
10
124.500000
20
173.512951
30
0.000000
42
-1.000000
0
SEQEND
8
HOLE
0
POLYLINE
8
HOLE
66
1
10
0.000000
20
0.000000
30
0.000000
70
1
0
VERTEX
8
HOLE
10
125.100000
20
173.512951
30
0.000000
42
-1.000000
0
VERTEX
8
HOLE
10
125.900000
20
173.512951
30
0.000000
42
-1.000000
0
SEQEND
8
HOLE
0
POLYLINE
8
HOLE
66
1
10
0.000000
20
0.000000
30
0.000000
70
1
0
VERTEX
8
HOLE
10
126.500000
20
173.512951
30
0.000000
42
-1.000000
0
VERTEX
8
HOLE
10
127.300000
20
173.512951
30
0.000000
42
-1.000000
0
SEQEND
8
HOLE
0
POLYLINE
8
HOLE
66
1
10
0.000000
20
0.000000
30
0.000000
70
1
0
VERTEX
8
HOLE
10
127.900000
20
173.512951
30
0.000000
42
-1.000000
0
VERTEX
8
HOLE
10
128.700000
20
173.512951
30
0.000000
42
-1.000000
0
SEQEND
8
HOLE
0
POLYLINE
8
HOLE
66
1
10
0.000000
20
0.000000
30
0.000000
70
1
0
VERTEX
8
HOLE
10
129.300000
20
173.512951
30
0.000000
42
-1.000000
0
VERTEX
8
HOLE
10
130.100000
20
173.512951
30
0.000000
42
-1.000000
0
SEQEND
8
HOLE
0
POLYLINE
8
HOLE
66
1
10
0.000000
20
0.000000
30
0.000000
70
1
0
VERTEX
8
HOLE
10
130.700000
20
173.512951
30
0.000000
42
-1.000000
0
VERTEX
8
HOLE
10
131.500000
20
173.512951
30
0.000000
42
-1.000000
0
SEQEND
8
HOLE
0
POLYLINE
8
HOLE
66
1
10
0.000000
20
0.000000
30
0.000000
70
1
0
VERTEX
8
HOLE
10
132.100000
20
173.512951
30
0.000000
42
-1.000000
0
VERTEX
8
HOLE
10
132.900000
20
173.512951
30
0.000000
42
-1.000000
0
SEQEND
8
HOLE
0
POLYLINE
8
HOLE
66
1
10
0.000000
20
0.000000
30
0.000000
70
1
0
VERTEX
8
HOLE
10
133.500000
20
173.512951
30
0.000000
42
-1.000000
0
VERTEX
8
HOLE
10
134.300000
20
173.512951
30
0.000000
42
-1.000000
0
SEQEND
8
HOLE
0
POLYLINE
8
HOLE
66
1
10
0.000000
20
0.000000
30
0.000000
70
1
0
VERTEX
8
HOLE
10
134.900000
20
173.512951
30
0.000000
42
-1.000000
0
VERTEX
8
HOLE
10
135.700000
20
173.512951
30
0.000000
42
-1.000000
0
SEQEND
8
HOLE
0
POLYLINE
8
HOLE
66
1
10
0.000000
20
0.000000
30
0.000000
70
1
0
VERTEX
8
HOLE
10
109.000000
20
174.725387
30
0.000000
42
-1.000000
0
VERTEX
8
HOLE
10
109.800000
20
174.725387
30
0.000000
42
-1.000000
0
SEQEND
8
HOLE
0
POLYLINE
8
HOLE
66
1
10
0.000000
20
0.000000
30
0.000000
70
1
0
VERTEX
8
HOLE
10
110.400000
20
174.725387
30
0.000000
42
-1.000000
0
VERTEX
8
HOLE
10
111.200000
20
174.725387
30
0.000000
42
-1.000000
0
SEQEND
8
HOLE
0
POLYLINE
8
HOLE
66
1
10
0.000000
20
0.000000
30
0.000000
70
1
0
VERTEX
8
HOLE
10
111.800000
20
174.725387
30
0.000000
42
-1.000000
0
VERTEX
8
HOLE
10
112.600000
20
174.725387
30
0.000000
42
-1.000000
0
SEQEND
8
HOLE
0
POLYLINE
8
HOLE
66
1
10
0.000000
20
0.000000
30
0.000000
70
1
0
VERTEX
8
HOLE
10
113.200000
20
174.725387
30
0.000000
42
-1.000000
0
VERTEX
8
HOLE
10
114.000000
20
174.725387
30
0.000000
42
-1.000000
0
SEQEND
8
HOLE
0
POLYLINE
8
HOLE
66
1
10
0.000000
20
0.000000
30
0.000000
70
1
0
VERTEX
8
HOLE
10
114.600000
20
174.725387
30
0.000000
42
-1.000000
0
VERTEX
8
HOLE
10
115.400000
20
174.725387
30
0.000000
42
-1.000000
0
SEQEND
8
HOLE
0
POLYLINE
8
HOLE
66
1
10
0.000000
20
0.000000
30
0.000000
70
1
0
VERTEX
8
HOLE
10
116.000000
20
174.725387
30
0.000000
42
-1.000000
0
VERTEX
8
HOLE
10
116.800000
20
174.725387
30
0.000000
42
-1.000000
0
SEQEND
8
HOLE
0
POLYLINE
8
HOLE
66
1
10
0.000000
20
0.000000
30
0.000000
70
1
0
VERTEX
8
HOLE
10
117.400000
20
174.725387
30
0.000000
42
-1.000000
0
VERTEX
8
HOLE
10
118.200000
20
174.725387
30
0.000000
42
-1.000000
0
SEQEND
8
HOLE
0
POLYLINE
8
HOLE
66
1
10
0.000000
20
0.000000
30
0.000000
70
1
0
VERTEX
8
HOLE
10
118.800000
20
174.725387
30
0.000000
42
-1.000000
0
VERTEX
8
HOLE
10
119.600000
20
174.725387
30
0.000000
42
-1.000000
0
SEQEND
8
HOLE
0
POLYLINE
8
HOLE
66
1
10
0.000000
20
0.000000
30
0.000000
70
1
0
VERTEX
8
HOLE
10
120.200000
20
174.725387
30
0.000000
42
-1.000000
0
VERTEX
8
HOLE
10
121.000000
20
174.725387
30
0.000000
42
-1.000000
0
SEQEND
8
HOLE
0
POLYLINE
8
HOLE
66
1
10
0.000000
20
0.000000
30
0.000000
70
1
0
VERTEX
8
HOLE
10
121.600000
20
174.725387
30
0.000000
42
-1.000000
0
VERTEX
8
HOLE
10
122.400000
20
174.725387
30
0.000000
42
-1.000000
0
SEQEND
8
HOLE
0
POLYLINE
8
HOLE
66
1
10
0.000000
20
0.000000
30
0.000000
70
1
0
VERTEX
8
HOLE
10
123.000000
20
174.725387
30
0.000000
42
-1.000000
0
VERTEX
8
HOLE
10
123.800000
20
174.725387
30
0.000000
42
-1.000000
0
SEQEND
8
HOLE
0
POLYLINE
8
HOLE
66
1
10
0.000000
20
0.000000
30
0.000000
70
1
0
VERTEX
8
HOLE
10
124.400000
20
174.725387
30
0.000000
42
-1.000000
0
VERTEX
8
HOLE
10
125.200000
20
174.725387
30
0.000000
42
-1.000000
0
SEQEND
8
HOLE
0
POLYLINE
8
HOLE
66
1
10
0.000000
20
0.000000
30
0.000000
70
1
0
VERTEX
8
HOLE
10
125.800000
20
174.725387
30
0.000000
42
-1.000000
0
VERTEX
8
HOLE
10
126.600000
20
174.725387
30
0.000000
42
-1.000000
0
SEQEND
8
HOLE
0
POLYLINE
8
HOLE
66
1
10
0.000000
20
0.000000
30
0.000000
70
1
0
VERTEX
8
HOLE
10
127.200000
20
174.725387
30
0.000000
42
-1.000000
0
VERTEX
8
HOLE
10
128.000000
20
174.725387
30
0.000000
42
-1.000000
0
SEQEND
8
HOLE
0
POLYLINE
8
HOLE
66
1
10
0.000000
20
0.000000
30
0.000000
70
1
0
VERTEX
8
HOLE
10
128.600000
20
174.725387
30
0.000000
42
-1.000000
0
VERTEX
8
HOLE
10
129.400000
20
174.725387
30
0.000000
42
-1.000000
0
SEQEND
8
HOLE
0
POLYLINE
8
HOLE
66
1
10
0.000000
20
0.000000
30
0.000000
70
1
0
VERTEX
8
HOLE
10
130.000000
20
174.725387
30
0.000000
42
-1.000000
0
VERTEX
8
HOLE
10
130.800000
20
174.725387
30
0.000000
42
-1.000000
0
SEQEND
8
HOLE
0
POLYLINE
8
HOLE
66
1
10
0.000000
20
0.000000
30
0.000000
70
1
0
VERTEX
8
HOLE
10
131.400000
20
174.725387
30
0.000000
42
-1.000000
0
VERTEX
8
HOLE
10
132.200000
20
174.725387
30
0.000000
42
-1.000000
0
SEQEND
8
HOLE
0
POLYLINE
8
HOLE
66
1
10
0.000000
20
0.000000
30
0.000000
70
1
0
VERTEX
8
HOLE
10
132.800000
20
174.725387
30
0.000000
42
-1.000000
0
VERTEX
8
HOLE
10
133.600000
20
174.725387
30
0.000000
42
-1.000000
0
SEQEND
8
HOLE
0
POLYLINE
8
HOLE
66
1
10
0.000000
20
0.000000
30
0.000000
70
1
0
VERTEX
8
HOLE
10
134.200000
20
174.725387
30
0.000000
42
-1.000000
0
VERTEX
8
HOLE
10
135.000000
20
174.725387
30
0.000000
42
-1.000000
0
SEQEND
8
HOLE
0
POLYLINE
8
HOLE
66
1
10
0.000000
20
0.000000
30
0.000000
70
1
0
VERTEX
8
HOLE
10
109.700000
20
175.937822
30
0.000000
42
-1.000000
0
VERTEX
8
HOLE
10
110.500000
20
175.937822
30
0.000000
42
-1.000000
0
SEQEND
8
HOLE
0
POLYLINE
8
HOLE
66
1
10
0.000000
20
0.000000
30
0.000000
70
1
0
VERTEX
8
HOLE
10
111.100000
20
175.937822
30
0.000000
42
-1.000000
0
VERTEX
8
HOLE
10
111.900000
20
175.937822
30
0.000000
42
-1.000000
0
SEQEND
8
HOLE
0
POLYLINE
8
HOLE
66
1
10
0.000000
20
0.000000
30
0.000000
70
1
0
VERTEX
8
HOLE
10
112.500000
20
175.937822
30
0.000000
42
-1.000000
0
VERTEX
8
HOLE
10
113.300000
20
175.937822
30
0.000000
42
-1.000000
0
SEQEND
8
HOLE
0
POLYLINE
8
HOLE
66
1
10
0.000000
20
0.000000
30
0.000000
70
1
0
VERTEX
8
HOLE
10
113.900000
20
175.937822
30
0.000000
42
-1.000000
0
VERTEX
8
HOLE
10
114.700000
20
175.937822
30
0.000000
42
-1.000000
0
SEQEND
8
HOLE
0
POLYLINE
8
HOLE
66
1
10
0.000000
20
0.000000
30
0.000000
70
1
0
VERTEX
8
HOLE
10
115.300000
20
175.937822
30
0.000000
42
-1.000000
0
VERTEX
8
HOLE
10
116.100000
20
175.937822
30
0.000000
42
-1.000000
0
SEQEND
8
HOLE
0
POLYLINE
8
HOLE
66
1
10
0.000000
20
0.000000
30
0.000000
70
1
0
VERTEX
8
HOLE
10
116.700000
20
175.937822
30
0.000000
42
-1.000000
0
VERTEX
8
HOLE
10
117.500000
20
175.937822
30
0.000000
42
-1.000000
0
SEQEND
8
HOLE
0
POLYLINE
8
HOLE
66
1
10
0.000000
20
0.000000
30
0.000000
70
1
0
VERTEX
8
HOLE
10
118.100000
20
175.937822
30
0.000000
42
-1.000000
0
VERTEX
8
HOLE
10
118.900000
20
175.937822
30
0.000000
42
-1.000000
0
SEQEND
8
HOLE
0
POLYLINE
8
HOLE
66
1
10
0.000000
20
0.000000
30
0.000000
70
1
0
VERTEX
8
HOLE
10
119.500000
20
175.937822
30
0.000000
42
-1.000000
0
VERTEX
8
HOLE
10
120.300000
20
175.937822
30
0.000000
42
-1.000000
0
SEQEND
8
HOLE
0
POLYLINE
8
HOLE
66
1
10
0.000000
20
0.000000
30
0.000000
70
1
0
VERTEX
8
HOLE
10
120.900000
20
175.937822
30
0.000000
42
-1.000000
0
VERTEX
8
HOLE
10
121.700000
20
175.937822
30
0.000000
42
-1.000000
0
SEQEND
8
HOLE
0
POLYLINE
8
HOLE
66
1
10
0.000000
20
0.000000
30
0.000000
70
1
0
VERTEX
8
HOLE
10
122.300000
20
175.937822
30
0.000000
42
-1.000000
0
VERTEX
8
HOLE
10
123.100000
20
175.937822
30
0.000000
42
-1.000000
0
SEQEND
8
HOLE
0
POLYLINE
8
HOLE
66
1
10
0.000000
20
0.000000
30
0.000000
70
1
0
VERTEX
8
HOLE
10
123.700000
20
175.937822
30
0.000000
42
-1.000000
0
VERTEX
8
HOLE
10
124.500000
20
175.937822
30
0.000000
42
-1.000000
0
SEQEND
8
HOLE
0
POLYLINE
8
HOLE
66
1
10
0.000000
20
0.000000
30
0.000000
70
1
0
VERTEX
8
HOLE
10
125.100000
20
175.937822
30
0.000000
42
-1.000000
0
VERTEX
8
HOLE
10
125.900000
20
175.937822
30
0.000000
42
-1.000000
0
SEQEND
8
HOLE
0
POLYLINE
8
HOLE
66
1
10
0.000000
20
0.000000
30
0.000000
70
1
0
VERTEX
8
HOLE
10
126.500000
20
175.937822
30
0.000000
42
-1.000000
0
VERTEX
8
HOLE
10
127.300000
20
175.937822
30
0.000000
42
-1.000000
0
SEQEND
8
HOLE
0
POLYLINE
8
HOLE
66
1
10
0.000000
20
0.000000
30
0.000000
70
1
0
VERTEX
8
HOLE
10
127.900000
20
175.937822
30
0.000000
42
-1.000000
0
VERTEX
8
HOLE
10
128.700000
20
175.937822
30
0.000000
42
-1.000000
0
SEQEND
8
HOLE
0
POLYLINE
8
HOLE
66
1
10
0.000000
20
0.000000
30
0.000000
70
1
0
VERTEX
8
HOLE
10
129.300000
20
175.937822
30
0.000000
42
-1.000000
0
VERTEX
8
HOLE
10
130.100000
20
175.937822
30
0.000000
42
-1.000000
0
SEQEND
8
HOLE
0
POLYLINE
8
HOLE
66
1
10
0.000000
20
0.000000
30
0.000000
70
1
0
VERTEX
8
HOLE
10
130.700000
20
175.937822
30
0.000000
42
-1.000000
0
VERTEX
8
HOLE
10
131.500000
20
175.937822
30
0.000000
42
-1.000000
0
SEQEND
8
HOLE
0
POLYLINE
8
HOLE
66
1
10
0.000000
20
0.000000
30
0.000000
70
1
0
VERTEX
8
HOLE
10
132.100000
20
175.937822
30
0.000000
42
-1.000000
0
VERTEX
8
HOLE
10
132.900000
20
175.937822
30
0.000000
42
-1.000000
0
SEQEND
8
HOLE
0
POLYLINE
8
HOLE
66
1
10
0.000000
20
0.000000
30
0.000000
70
1
0
VERTEX
8
HOLE
10
133.500000
20
175.937822
30
0.000000
42
-1.000000
0
VERTEX
8
HOLE
10
134.300000
20
175.937822
30
0.000000
42
-1.000000
0
SEQEND
8
HOLE
0
POLYLINE
8
HOLE
66
1
10
0.000000
20
0.000000
30
0.000000
70
1
0
VERTEX
8
HOLE
10
134.900000
20
175.937822
30
0.000000
42
-1.000000
0
VERTEX
8
HOLE
10
135.700000
20
175.937822
30
0.000000
42
-1.000000
0
SEQEND
8
HOLE
0
POLYLINE
8
HOLE
66
1
10
0.000000
20
0.000000
30
0.000000
70
1
0
VERTEX
8
HOLE
10
109.000000
20
177.150258
30
0.000000
42
-1.000000
0
VERTEX
8
HOLE
10
109.800000
20
177.150258
30
0.000000
42
-1.000000
0
SEQEND
8
HOLE
0
POLYLINE
8
HOLE
66
1
10
0.000000
20
0.000000
30
0.000000
70
1
0
VERTEX
8
HOLE
10
110.400000
20
177.150258
30
0.000000
42
-1.000000
0
VERTEX
8
HOLE
10
111.200000
20
177.150258
30
0.000000
42
-1.000000
0
SEQEND
8
HOLE
0
POLYLINE
8
HOLE
66
1
10
0.000000
20
0.000000
30
0.000000
70
1
0
VERTEX
8
HOLE
10
111.800000
20
177.150258
30
0.000000
42
-1.000000
0
VERTEX
8
HOLE
10
112.600000
20
177.150258
30
0.000000
42
-1.000000
0
SEQEND
8
HOLE
0
POLYLINE
8
HOLE
66
1
10
0.000000
20
0.000000
30
0.000000
70
1
0
VERTEX
8
HOLE
10
113.200000
20
177.150258
30
0.000000
42
-1.000000
0
VERTEX
8
HOLE
10
114.000000
20
177.150258
30
0.000000
42
-1.000000
0
SEQEND
8
HOLE
0
POLYLINE
8
HOLE
66
1
10
0.000000
20
0.000000
30
0.000000
70
1
0
VERTEX
8
HOLE
10
114.600000
20
177.150258
30
0.000000
42
-1.000000
0
VERTEX
8
HOLE
10
115.400000
20
177.150258
30
0.000000
42
-1.000000
0
SEQEND
8
HOLE
0
POLYLINE
8
HOLE
66
1
10
0.000000
20
0.000000
30
0.000000
70
1
0
VERTEX
8
HOLE
10
116.000000
20
177.150258
30
0.000000
42
-1.000000
0
VERTEX
8
HOLE
10
116.800000
20
177.150258
30
0.000000
42
-1.000000
0
SEQEND
8
HOLE
0
POLYLINE
8
HOLE
66
1
10
0.000000
20
0.000000
30
0.000000
70
1
0
VERTEX
8
HOLE
10
117.400000
20
177.150258
30
0.000000
42
-1.000000
0
VERTEX
8
HOLE
10
118.200000
20
177.150258
30
0.000000
42
-1.000000
0
SEQEND
8
HOLE
0
POLYLINE
8
HOLE
66
1
10
0.000000
20
0.000000
30
0.000000
70
1
0
VERTEX
8
HOLE
10
118.800000
20
177.150258
30
0.000000
42
-1.000000
0
VERTEX
8
HOLE
10
119.600000
20
177.150258
30
0.000000
42
-1.000000
0
SEQEND
8
HOLE
0
POLYLINE
8
HOLE
66
1
10
0.000000
20
0.000000
30
0.000000
70
1
0
VERTEX
8
HOLE
10
120.200000
20
177.150258
30
0.000000
42
-1.000000
0
VERTEX
8
HOLE
10
121.000000
20
177.150258
30
0.000000
42
-1.000000
0
SEQEND
8
HOLE
0
POLYLINE
8
HOLE
66
1
10
0.000000
20
0.000000
30
0.000000
70
1
0
VERTEX
8
HOLE
10
121.600000
20
177.150258
30
0.000000
42
-1.000000
0
VERTEX
8
HOLE
10
122.400000
20
177.150258
30
0.000000
42
-1.000000
0
SEQEND
8
HOLE
0
POLYLINE
8
HOLE
66
1
10
0.000000
20
0.000000
30
0.000000
70
1
0
VERTEX
8
HOLE
10
123.000000
20
177.150258
30
0.000000
42
-1.000000
0
VERTEX
8
HOLE
10
123.800000
20
177.150258
30
0.000000
42
-1.000000
0
SEQEND
8
HOLE
0
POLYLINE
8
HOLE
66
1
10
0.000000
20
0.000000
30
0.000000
70
1
0
VERTEX
8
HOLE
10
124.400000
20
177.150258
30
0.000000
42
-1.000000
0
VERTEX
8
HOLE
10
125.200000
20
177.150258
30
0.000000
42
-1.000000
0
SEQEND
8
HOLE
0
POLYLINE
8
HOLE
66
1
10
0.000000
20
0.000000
30
0.000000
70
1
0
VERTEX
8
HOLE
10
125.800000
20
177.150258
30
0.000000
42
-1.000000
0
VERTEX
8
HOLE
10
126.600000
20
177.150258
30
0.000000
42
-1.000000
0
SEQEND
8
HOLE
0
POLYLINE
8
HOLE
66
1
10
0.000000
20
0.000000
30
0.000000
70
1
0
VERTEX
8
HOLE
10
127.200000
20
177.150258
30
0.000000
42
-1.000000
0
VERTEX
8
HOLE
10
128.000000
20
177.150258
30
0.000000
42
-1.000000
0
SEQEND
8
HOLE
0
POLYLINE
8
HOLE
66
1
10
0.000000
20
0.000000
30
0.000000
70
1
0
VERTEX
8
HOLE
10
128.600000
20
177.150258
30
0.000000
42
-1.000000
0
VERTEX
8
HOLE
10
129.400000
20
177.150258
30
0.000000
42
-1.000000
0
SEQEND
8
HOLE
0
POLYLINE
8
HOLE
66
1
10
0.000000
20
0.000000
30
0.000000
70
1
0
VERTEX
8
HOLE
10
130.000000
20
177.150258
30
0.000000
42
-1.000000
0
VERTEX
8
HOLE
10
130.800000
20
177.150258
30
0.000000
42
-1.000000
0
SEQEND
8
HOLE
0
POLYLINE
8
HOLE
66
1
10
0.000000
20
0.000000
30
0.000000
70
1
0
VERTEX
8
HOLE
10
131.400000
20
177.150258
30
0.000000
42
-1.000000
0
VERTEX
8
HOLE
10
132.200000
20
177.150258
30
0.000000
42
-1.000000
0
SEQEND
8
HOLE
0
POLYLINE
8
HOLE
66
1
10
0.000000
20
0.000000
30
0.000000
70
1
0
VERTEX
8
HOLE
10
132.800000
20
177.150258
30
0.000000
42
-1.000000
0
VERTEX
8
HOLE
10
133.600000
20
177.150258
30
0.000000
42
-1.000000
0
SEQEND
8
HOLE
0
POLYLINE
8
HOLE
66
1
10
0.000000
20
0.000000
30
0.000000
70
1
0
VERTEX
8
HOLE
10
134.200000
20
177.150258
30
0.000000
42
-1.000000
0
VERTEX
8
HOLE
10
135.000000
20
177.150258
30
0.000000
42
-1.000000
0
SEQEND
8
HOLE
0
POLYLINE
8
HOLE
66
1
10
0.000000
20
0.000000
30
0.000000
70
1
0
VERTEX
8
HOLE
10
109.700000
20
178.362693
30
0.000000
42
-1.000000
0
VERTEX
8
HOLE
10
110.500000
20
178.362693
30
0.000000
42
-1.000000
0
SEQEND
8
HOLE
0
POLYLINE
8
HOLE
66
1
10
0.000000
20
0.000000
30
0.000000
70
1
0
VERTEX
8
HOLE
10
111.100000
20
178.362693
30
0.000000
42
-1.000000
0
VERTEX
8
HOLE
10
111.900000
20
178.362693
30
0.000000
42
-1.000000
0
SEQEND
8
HOLE
0
POLYLINE
8
HOLE
66
1
10
0.000000
20
0.000000
30
0.000000
70
1
0
VERTEX
8
HOLE
10
112.500000
20
178.362693
30
0.000000
42
-1.000000
0
VERTEX
8
HOLE
10
113.300000
20
178.362693
30
0.000000
42
-1.000000
0
SEQEND
8
HOLE
0
POLYLINE
8
HOLE
66
1
10
0.000000
20
0.000000
30
0.000000
70
1
0
VERTEX
8
HOLE
10
113.900000
20
178.362693
30
0.000000
42
-1.000000
0
VERTEX
8
HOLE
10
114.700000
20
178.362693
30
0.000000
42
-1.000000
0
SEQEND
8
HOLE
0
POLYLINE
8
HOLE
66
1
10
0.000000
20
0.000000
30
0.000000
70
1
0
VERTEX
8
HOLE
10
115.300000
20
178.362693
30
0.000000
42
-1.000000
0
VERTEX
8
HOLE
10
116.100000
20
178.362693
30
0.000000
42
-1.000000
0
SEQEND
8
HOLE
0
POLYLINE
8
HOLE
66
1
10
0.000000
20
0.000000
30
0.000000
70
1
0
VERTEX
8
HOLE
10
116.700000
20
178.362693
30
0.000000
42
-1.000000
0
VERTEX
8
HOLE
10
117.500000
20
178.362693
30
0.000000
42
-1.000000
0
SEQEND
8
HOLE
0
POLYLINE
8
HOLE
66
1
10
0.000000
20
0.000000
30
0.000000
70
1
0
VERTEX
8
HOLE
10
118.100000
20
178.362693
30
0.000000
42
-1.000000
0
VERTEX
8
HOLE
10
118.900000
20
178.362693
30
0.000000
42
-1.000000
0
SEQEND
8
HOLE
0
POLYLINE
8
HOLE
66
1
10
0.000000
20
0.000000
30
0.000000
70
1
0
VERTEX
8
HOLE
10
119.500000
20
178.362693
30
0.000000
42
-1.000000
0
VERTEX
8
HOLE
10
120.300000
20
178.362693
30
0.000000
42
-1.000000
0
SEQEND
8
HOLE
0
POLYLINE
8
HOLE
66
1
10
0.000000
20
0.000000
30
0.000000
70
1
0
VERTEX
8
HOLE
10
120.900000
20
178.362693
30
0.000000
42
-1.000000
0
VERTEX
8
HOLE
10
121.700000
20
178.362693
30
0.000000
42
-1.000000
0
SEQEND
8
HOLE
0
POLYLINE
8
HOLE
66
1
10
0.000000
20
0.000000
30
0.000000
70
1
0
VERTEX
8
HOLE
10
122.300000
20
178.362693
30
0.000000
42
-1.000000
0
VERTEX
8
HOLE
10
123.100000
20
178.362693
30
0.000000
42
-1.000000
0
SEQEND
8
HOLE
0
POLYLINE
8
HOLE
66
1
10
0.000000
20
0.000000
30
0.000000
70
1
0
VERTEX
8
HOLE
10
123.700000
20
178.362693
30
0.000000
42
-1.000000
0
VERTEX
8
HOLE
10
124.500000
20
178.362693
30
0.000000
42
-1.000000
0
SEQEND
8
HOLE
0
POLYLINE
8
HOLE
66
1
10
0.000000
20
0.000000
30
0.000000
70
1
0
VERTEX
8
HOLE
10
125.100000
20
178.362693
30
0.000000
42
-1.000000
0
VERTEX
8
HOLE
10
125.900000
20
178.362693
30
0.000000
42
-1.000000
0
SEQEND
8
HOLE
0
POLYLINE
8
HOLE
66
1
10
0.000000
20
0.000000
30
0.000000
70
1
0
VERTEX
8
HOLE
10
126.500000
20
178.362693
30
0.000000
42
-1.000000
0
VERTEX
8
HOLE
10
127.300000
20
178.362693
30
0.000000
42
-1.000000
0
SEQEND
8
HOLE
0
POLYLINE
8
HOLE
66
1
10
0.000000
20
0.000000
30
0.000000
70
1
0
VERTEX
8
HOLE
10
127.900000
20
178.362693
30
0.000000
42
-1.000000
0
VERTEX
8
HOLE
10
128.700000
20
178.362693
30
0.000000
42
-1.000000
0
SEQEND
8
HOLE
0
POLYLINE
8
HOLE
66
1
10
0.000000
20
0.000000
30
0.000000
70
1
0
VERTEX
8
HOLE
10
129.300000
20
178.362693
30
0.000000
42
-1.000000
0
VERTEX
8
HOLE
10
130.100000
20
178.362693
30
0.000000
42
-1.000000
0
SEQEND
8
HOLE
0
POLYLINE
8
HOLE
66
1
10
0.000000
20
0.000000
30
0.000000
70
1
0
VERTEX
8
HOLE
10
130.700000
20
178.362693
30
0.000000
42
-1.000000
0
VERTEX
8
HOLE
10
131.500000
20
178.362693
30
0.000000
42
-1.000000
0
SEQEND
8
HOLE
0
POLYLINE
8
HOLE
66
1
10
0.000000
20
0.000000
30
0.000000
70
1
0
VERTEX
8
HOLE
10
132.100000
20
178.362693
30
0.000000
42
-1.000000
0
VERTEX
8
HOLE
10
132.900000
20
178.362693
30
0.000000
42
-1.000000
0
SEQEND
8
HOLE
0
POLYLINE
8
HOLE
66
1
10
0.000000
20
0.000000
30
0.000000
70
1
0
VERTEX
8
HOLE
10
133.500000
20
178.362693
30
0.000000
42
-1.000000
0
VERTEX
8
HOLE
10
134.300000
20
178.362693
30
0.000000
42
-1.000000
0
SEQEND
8
HOLE
0
POLYLINE
8
HOLE
66
1
10
0.000000
20
0.000000
30
0.000000
70
1
0
VERTEX
8
HOLE
10
134.900000
20
178.362693
30
0.000000
42
-1.000000
0
VERTEX
8
HOLE
10
135.700000
20
178.362693
30
0.000000
42
-1.000000
0
SEQEND
8
HOLE
0
POLYLINE
8
HOLE
66
1
10
0.000000
20
0.000000
30
0.000000
70
1
0
VERTEX
8
HOLE
10
109.000000
20
179.575129
30
0.000000
42
-1.000000
0
VERTEX
8
HOLE
10
109.800000
20
179.575129
30
0.000000
42
-1.000000
0
SEQEND
8
HOLE
0
POLYLINE
8
HOLE
66
1
10
0.000000
20
0.000000
30
0.000000
70
1
0
VERTEX
8
HOLE
10
110.400000
20
179.575129
30
0.000000
42
-1.000000
0
VERTEX
8
HOLE
10
111.200000
20
179.575129
30
0.000000
42
-1.000000
0
SEQEND
8
HOLE
0
POLYLINE
8
HOLE
66
1
10
0.000000
20
0.000000
30
0.000000
70
1
0
VERTEX
8
HOLE
10
111.800000
20
179.575129
30
0.000000
42
-1.000000
0
VERTEX
8
HOLE
10
112.600000
20
179.575129
30
0.000000
42
-1.000000
0
SEQEND
8
HOLE
0
POLYLINE
8
HOLE
66
1
10
0.000000
20
0.000000
30
0.000000
70
1
0
VERTEX
8
HOLE
10
113.200000
20
179.575129
30
0.000000
42
-1.000000
0
VERTEX
8
HOLE
10
114.000000
20
179.575129
30
0.000000
42
-1.000000
0
SEQEND
8
HOLE
0
POLYLINE
8
HOLE
66
1
10
0.000000
20
0.000000
30
0.000000
70
1
0
VERTEX
8
HOLE
10
114.600000
20
179.575129
30
0.000000
42
-1.000000
0
VERTEX
8
HOLE
10
115.400000
20
179.575129
30
0.000000
42
-1.000000
0
SEQEND
8
HOLE
0
POLYLINE
8
HOLE
66
1
10
0.000000
20
0.000000
30
0.000000
70
1
0
VERTEX
8
HOLE
10
116.000000
20
179.575129
30
0.000000
42
-1.000000
0
VERTEX
8
HOLE
10
116.800000
20
179.575129
30
0.000000
42
-1.000000
0
SEQEND
8
HOLE
0
POLYLINE
8
HOLE
66
1
10
0.000000
20
0.000000
30
0.000000
70
1
0
VERTEX
8
HOLE
10
117.400000
20
179.575129
30
0.000000
42
-1.000000
0
VERTEX
8
HOLE
10
118.200000
20
179.575129
30
0.000000
42
-1.000000
0
SEQEND
8
HOLE
0
POLYLINE
8
HOLE
66
1
10
0.000000
20
0.000000
30
0.000000
70
1
0
VERTEX
8
HOLE
10
118.800000
20
179.575129
30
0.000000
42
-1.000000
0
VERTEX
8
HOLE
10
119.600000
20
179.575129
30
0.000000
42
-1.000000
0
SEQEND
8
HOLE
0
POLYLINE
8
HOLE
66
1
10
0.000000
20
0.000000
30
0.000000
70
1
0
VERTEX
8
HOLE
10
120.200000
20
179.575129
30
0.000000
42
-1.000000
0
VERTEX
8
HOLE
10
121.000000
20
179.575129
30
0.000000
42
-1.000000
0
SEQEND
8
HOLE
0
POLYLINE
8
HOLE
66
1
10
0.000000
20
0.000000
30
0.000000
70
1
0
VERTEX
8
HOLE
10
121.600000
20
179.575129
30
0.000000
42
-1.000000
0
VERTEX
8
HOLE
10
122.400000
20
179.575129
30
0.000000
42
-1.000000
0
SEQEND
8
HOLE
0
POLYLINE
8
HOLE
66
1
10
0.000000
20
0.000000
30
0.000000
70
1
0
VERTEX
8
HOLE
10
123.000000
20
179.575129
30
0.000000
42
-1.000000
0
VERTEX
8
HOLE
10
123.800000
20
179.575129
30
0.000000
42
-1.000000
0
SEQEND
8
HOLE
0
POLYLINE
8
HOLE
66
1
10
0.000000
20
0.000000
30
0.000000
70
1
0
VERTEX
8
HOLE
10
124.400000
20
179.575129
30
0.000000
42
-1.000000
0
VERTEX
8
HOLE
10
125.200000
20
179.575129
30
0.000000
42
-1.000000
0
SEQEND
8
HOLE
0
POLYLINE
8
HOLE
66
1
10
0.000000
20
0.000000
30
0.000000
70
1
0
VERTEX
8
HOLE
10
125.800000
20
179.575129
30
0.000000
42
-1.000000
0
VERTEX
8
HOLE
10
126.600000
20
179.575129
30
0.000000
42
-1.000000
0
SEQEND
8
HOLE
0
POLYLINE
8
HOLE
66
1
10
0.000000
20
0.000000
30
0.000000
70
1
0
VERTEX
8
HOLE
10
127.200000
20
179.575129
30
0.000000
42
-1.000000
0
VERTEX
8
HOLE
10
128.000000
20
179.575129
30
0.000000
42
-1.000000
0
SEQEND
8
HOLE
0
POLYLINE
8
HOLE
66
1
10
0.000000
20
0.000000
30
0.000000
70
1
0
VERTEX
8
HOLE
10
128.600000
20
179.575129
30
0.000000
42
-1.000000
0
VERTEX
8
HOLE
10
129.400000
20
179.575129
30
0.000000
42
-1.000000
0
SEQEND
8
HOLE
0
POLYLINE
8
HOLE
66
1
10
0.000000
20
0.000000
30
0.000000
70
1
0
VERTEX
8
HOLE
10
130.000000
20
179.575129
30
0.000000
42
-1.000000
0
VERTEX
8
HOLE
10
130.800000
20
179.575129
30
0.000000
42
-1.000000
0
SEQEND
8
HOLE
0
POLYLINE
8
HOLE
66
1
10
0.000000
20
0.000000
30
0.000000
70
1
0
VERTEX
8
HOLE
10
131.400000
20
179.575129
30
0.000000
42
-1.000000
0
VERTEX
8
HOLE
10
132.200000
20
179.575129
30
0.000000
42
-1.000000
0
SEQEND
8
HOLE
0
POLYLINE
8
HOLE
66
1
10
0.000000
20
0.000000
30
0.000000
70
1
0
VERTEX
8
HOLE
10
132.800000
20
179.575129
30
0.000000
42
-1.000000
0
VERTEX
8
HOLE
10
133.600000
20
179.575129
30
0.000000
42
-1.000000
0
SEQEND
8
HOLE
0
POLYLINE
8
HOLE
66
1
10
0.000000
20
0.000000
30
0.000000
70
1
0
VERTEX
8
HOLE
10
134.200000
20
179.575129
30
0.000000
42
-1.000000
0
VERTEX
8
HOLE
10
135.000000
20
179.575129
30
0.000000
42
-1.000000
0
SEQEND
8
HOLE
0
POLYLINE
8
HOLE
66
1
10
0.000000
20
0.000000
30
0.000000
70
1
0
VERTEX
8
HOLE
10
109.700000
20
180.787564
30
0.000000
42
-1.000000
0
VERTEX
8
HOLE
10
110.500000
20
180.787564
30
0.000000
42
-1.000000
0
SEQEND
8
HOLE
0
POLYLINE
8
HOLE
66
1
10
0.000000
20
0.000000
30
0.000000
70
1
0
VERTEX
8
HOLE
10
111.100000
20
180.787564
30
0.000000
42
-1.000000
0
VERTEX
8
HOLE
10
111.900000
20
180.787564
30
0.000000
42
-1.000000
0
SEQEND
8
HOLE
0
POLYLINE
8
HOLE
66
1
10
0.000000
20
0.000000
30
0.000000
70
1
0
VERTEX
8
HOLE
10
112.500000
20
180.787564
30
0.000000
42
-1.000000
0
VERTEX
8
HOLE
10
113.300000
20
180.787564
30
0.000000
42
-1.000000
0
SEQEND
8
HOLE
0
POLYLINE
8
HOLE
66
1
10
0.000000
20
0.000000
30
0.000000
70
1
0
VERTEX
8
HOLE
10
113.900000
20
180.787564
30
0.000000
42
-1.000000
0
VERTEX
8
HOLE
10
114.700000
20
180.787564
30
0.000000
42
-1.000000
0
SEQEND
8
HOLE
0
POLYLINE
8
HOLE
66
1
10
0.000000
20
0.000000
30
0.000000
70
1
0
VERTEX
8
HOLE
10
115.300000
20
180.787564
30
0.000000
42
-1.000000
0
VERTEX
8
HOLE
10
116.100000
20
180.787564
30
0.000000
42
-1.000000
0
SEQEND
8
HOLE
0
POLYLINE
8
HOLE
66
1
10
0.000000
20
0.000000
30
0.000000
70
1
0
VERTEX
8
HOLE
10
116.700000
20
180.787564
30
0.000000
42
-1.000000
0
VERTEX
8
HOLE
10
117.500000
20
180.787564
30
0.000000
42
-1.000000
0
SEQEND
8
HOLE
0
POLYLINE
8
HOLE
66
1
10
0.000000
20
0.000000
30
0.000000
70
1
0
VERTEX
8
HOLE
10
118.100000
20
180.787564
30
0.000000
42
-1.000000
0
VERTEX
8
HOLE
10
118.900000
20
180.787564
30
0.000000
42
-1.000000
0
SEQEND
8
HOLE
0
POLYLINE
8
HOLE
66
1
10
0.000000
20
0.000000
30
0.000000
70
1
0
VERTEX
8
HOLE
10
119.500000
20
180.787564
30
0.000000
42
-1.000000
0
VERTEX
8
HOLE
10
120.300000
20
180.787564
30
0.000000
42
-1.000000
0
SEQEND
8
HOLE
0
POLYLINE
8
HOLE
66
1
10
0.000000
20
0.000000
30
0.000000
70
1
0
VERTEX
8
HOLE
10
120.900000
20
180.787564
30
0.000000
42
-1.000000
0
VERTEX
8
HOLE
10
121.700000
20
180.787564
30
0.000000
42
-1.000000
0
SEQEND
8
HOLE
0
POLYLINE
8
HOLE
66
1
10
0.000000
20
0.000000
30
0.000000
70
1
0
VERTEX
8
HOLE
10
122.300000
20
180.787564
30
0.000000
42
-1.000000
0
VERTEX
8
HOLE
10
123.100000
20
180.787564
30
0.000000
42
-1.000000
0
SEQEND
8
HOLE
0
POLYLINE
8
HOLE
66
1
10
0.000000
20
0.000000
30
0.000000
70
1
0
VERTEX
8
HOLE
10
123.700000
20
180.787564
30
0.000000
42
-1.000000
0
VERTEX
8
HOLE
10
124.500000
20
180.787564
30
0.000000
42
-1.000000
0
SEQEND
8
HOLE
0
POLYLINE
8
HOLE
66
1
10
0.000000
20
0.000000
30
0.000000
70
1
0
VERTEX
8
HOLE
10
125.100000
20
180.787564
30
0.000000
42
-1.000000
0
VERTEX
8
HOLE
10
125.900000
20
180.787564
30
0.000000
42
-1.000000
0
SEQEND
8
HOLE
0
POLYLINE
8
HOLE
66
1
10
0.000000
20
0.000000
30
0.000000
70
1
0
VERTEX
8
HOLE
10
126.500000
20
180.787564
30
0.000000
42
-1.000000
0
VERTEX
8
HOLE
10
127.300000
20
180.787564
30
0.000000
42
-1.000000
0
SEQEND
8
HOLE
0
POLYLINE
8
HOLE
66
1
10
0.000000
20
0.000000
30
0.000000
70
1
0
VERTEX
8
HOLE
10
127.900000
20
180.787564
30
0.000000
42
-1.000000
0
VERTEX
8
HOLE
10
128.700000
20
180.787564
30
0.000000
42
-1.000000
0
SEQEND
8
HOLE
0
POLYLINE
8
HOLE
66
1
10
0.000000
20
0.000000
30
0.000000
70
1
0
VERTEX
8
HOLE
10
129.300000
20
180.787564
30
0.000000
42
-1.000000
0
VERTEX
8
HOLE
10
130.100000
20
180.787564
30
0.000000
42
-1.000000
0
SEQEND
8
HOLE
0
POLYLINE
8
HOLE
66
1
10
0.000000
20
0.000000
30
0.000000
70
1
0
VERTEX
8
HOLE
10
130.700000
20
180.787564
30
0.000000
42
-1.000000
0
VERTEX
8
HOLE
10
131.500000
20
180.787564
30
0.000000
42
-1.000000
0
SEQEND
8
HOLE
0
POLYLINE
8
HOLE
66
1
10
0.000000
20
0.000000
30
0.000000
70
1
0
VERTEX
8
HOLE
10
132.100000
20
180.787564
30
0.000000
42
-1.000000
0
VERTEX
8
HOLE
10
132.900000
20
180.787564
30
0.000000
42
-1.000000
0
SEQEND
8
HOLE
0
POLYLINE
8
HOLE
66
1
10
0.000000
20
0.000000
30
0.000000
70
1
0
VERTEX
8
HOLE
10
133.500000
20
180.787564
30
0.000000
42
-1.000000
0
VERTEX
8
HOLE
10
134.300000
20
180.787564
30
0.000000
42
-1.000000
0
SEQEND
8
HOLE
0
POLYLINE
8
HOLE
66
1
10
0.000000
20
0.000000
30
0.000000
70
1
0
VERTEX
8
HOLE
10
134.900000
20
180.787564
30
0.000000
42
-1.000000
0
VERTEX
8
HOLE
10
135.700000
20
180.787564
30
0.000000
42
-1.000000
0
SEQEND
8
HOLE
0
POLYLINE
8
HOLE
66
1
10
0.000000
20
0.000000
30
0.000000
70
1
0
VERTEX
8
HOLE
10
109.000000
20
182.000000
30
0.000000
42
-1.000000
0
VERTEX
8
HOLE
10
109.800000
20
182.000000
30
0.000000
42
-1.000000
0
SEQEND
8
HOLE
0
POLYLINE
8
HOLE
66
1
10
0.000000
20
0.000000
30
0.000000
70
1
0
VERTEX
8
HOLE
10
110.400000
20
182.000000
30
0.000000
42
-1.000000
0
VERTEX
8
HOLE
10
111.200000
20
182.000000
30
0.000000
42
-1.000000
0
SEQEND
8
HOLE
0
POLYLINE
8
HOLE
66
1
10
0.000000
20
0.000000
30
0.000000
70
1
0
VERTEX
8
HOLE
10
111.800000
20
182.000000
30
0.000000
42
-1.000000
0
VERTEX
8
HOLE
10
112.600000
20
182.000000
30
0.000000
42
-1.000000
0
SEQEND
8
HOLE
0
POLYLINE
8
HOLE
66
1
10
0.000000
20
0.000000
30
0.000000
70
1
0
VERTEX
8
HOLE
10
113.200000
20
182.000000
30
0.000000
42
-1.000000
0
VERTEX
8
HOLE
10
114.000000
20
182.000000
30
0.000000
42
-1.000000
0
SEQEND
8
HOLE
0
POLYLINE
8
HOLE
66
1
10
0.000000
20
0.000000
30
0.000000
70
1
0
VERTEX
8
HOLE
10
114.600000
20
182.000000
30
0.000000
42
-1.000000
0
VERTEX
8
HOLE
10
115.400000
20
182.000000
30
0.000000
42
-1.000000
0
SEQEND
8
HOLE
0
POLYLINE
8
HOLE
66
1
10
0.000000
20
0.000000
30
0.000000
70
1
0
VERTEX
8
HOLE
10
116.000000
20
182.000000
30
0.000000
42
-1.000000
0
VERTEX
8
HOLE
10
116.800000
20
182.000000
30
0.000000
42
-1.000000
0
SEQEND
8
HOLE
0
POLYLINE
8
HOLE
66
1
10
0.000000
20
0.000000
30
0.000000
70
1
0
VERTEX
8
HOLE
10
117.400000
20
182.000000
30
0.000000
42
-1.000000
0
VERTEX
8
HOLE
10
118.200000
20
182.000000
30
0.000000
42
-1.000000
0
SEQEND
8
HOLE
0
POLYLINE
8
HOLE
66
1
10
0.000000
20
0.000000
30
0.000000
70
1
0
VERTEX
8
HOLE
10
118.800000
20
182.000000
30
0.000000
42
-1.000000
0
VERTEX
8
HOLE
10
119.600000
20
182.000000
30
0.000000
42
-1.000000
0
SEQEND
8
HOLE
0
POLYLINE
8
HOLE
66
1
10
0.000000
20
0.000000
30
0.000000
70
1
0
VERTEX
8
HOLE
10
120.200000
20
182.000000
30
0.000000
42
-1.000000
0
VERTEX
8
HOLE
10
121.000000
20
182.000000
30
0.000000
42
-1.000000
0
SEQEND
8
HOLE
0
POLYLINE
8
HOLE
66
1
10
0.000000
20
0.000000
30
0.000000
70
1
0
VERTEX
8
HOLE
10
121.600000
20
182.000000
30
0.000000
42
-1.000000
0
VERTEX
8
HOLE
10
122.400000
20
182.000000
30
0.000000
42
-1.000000
0
SEQEND
8
HOLE
0
POLYLINE
8
HOLE
66
1
10
0.000000
20
0.000000
30
0.000000
70
1
0
VERTEX
8
HOLE
10
123.000000
20
182.000000
30
0.000000
42
-1.000000
0
VERTEX
8
HOLE
10
123.800000
20
182.000000
30
0.000000
42
-1.000000
0
SEQEND
8
HOLE
0
POLYLINE
8
HOLE
66
1
10
0.000000
20
0.000000
30
0.000000
70
1
0
VERTEX
8
HOLE
10
124.400000
20
182.000000
30
0.000000
42
-1.000000
0
VERTEX
8
HOLE
10
125.200000
20
182.000000
30
0.000000
42
-1.000000
0
SEQEND
8
HOLE
0
POLYLINE
8
HOLE
66
1
10
0.000000
20
0.000000
30
0.000000
70
1
0
VERTEX
8
HOLE
10
125.800000
20
182.000000
30
0.000000
42
-1.000000
0
VERTEX
8
HOLE
10
126.600000
20
182.000000
30
0.000000
42
-1.000000
0
SEQEND
8
HOLE
0
POLYLINE
8
HOLE
66
1
10
0.000000
20
0.000000
30
0.000000
70
1
0
VERTEX
8
HOLE
10
127.200000
20
182.000000
30
0.000000
42
-1.000000
0
VERTEX
8
HOLE
10
128.000000
20
182.000000
30
0.000000
42
-1.000000
0
SEQEND
8
HOLE
0
POLYLINE
8
HOLE
66
1
10
0.000000
20
0.000000
30
0.000000
70
1
0
VERTEX
8
HOLE
10
128.600000
20
182.000000
30
0.000000
42
-1.000000
0
VERTEX
8
HOLE
10
129.400000
20
182.000000
30
0.000000
42
-1.000000
0
SEQEND
8
HOLE
0
POLYLINE
8
HOLE
66
1
10
0.000000
20
0.000000
30
0.000000
70
1
0
VERTEX
8
HOLE
10
130.000000
20
182.000000
30
0.000000
42
-1.000000
0
VERTEX
8
HOLE
10
130.800000
20
182.000000
30
0.000000
42
-1.000000
0
SEQEND
8
HOLE
0
POLYLINE
8
HOLE
66
1
10
0.000000
20
0.000000
30
0.000000
70
1
0
VERTEX
8
HOLE
10
131.400000
20
182.000000
30
0.000000
42
-1.000000
0
VERTEX
8
HOLE
10
132.200000
20
182.000000
30
0.000000
42
-1.000000
0
SEQEND
8
HOLE
0
POLYLINE
8
HOLE
66
1
10
0.000000
20
0.000000
30
0.000000
70
1
0
VERTEX
8
HOLE
10
132.800000
20
182.000000
30
0.000000
42
-1.000000
0
VERTEX
8
HOLE
10
133.600000
20
182.000000
30
0.000000
42
-1.000000
0
SEQEND
8
HOLE
0
POLYLINE
8
HOLE
66
1
10
0.000000
20
0.000000
30
0.000000
70
1
0
VERTEX
8
HOLE
10
134.200000
20
182.000000
30
0.000000
42
-1.000000
0
VERTEX
8
HOLE
10
135.000000
20
182.000000
30
0.000000
42
-1.000000
0
SEQEND
8
HOLE
0
POLYLINE
8
HOLE
66
1
10
0.000000
20
0.000000
30
0.000000
70
1
0
VERTEX
8
HOLE
10
109.700000
20
183.212436
30
0.000000
42
-1.000000
0
VERTEX
8
HOLE
10
110.500000
20
183.212436
30
0.000000
42
-1.000000
0
SEQEND
8
HOLE
0
POLYLINE
8
HOLE
66
1
10
0.000000
20
0.000000
30
0.000000
70
1
0
VERTEX
8
HOLE
10
111.100000
20
183.212436
30
0.000000
42
-1.000000
0
VERTEX
8
HOLE
10
111.900000
20
183.212436
30
0.000000
42
-1.000000
0
SEQEND
8
HOLE
0
POLYLINE
8
HOLE
66
1
10
0.000000
20
0.000000
30
0.000000
70
1
0
VERTEX
8
HOLE
10
112.500000
20
183.212436
30
0.000000
42
-1.000000
0
VERTEX
8
HOLE
10
113.300000
20
183.212436
30
0.000000
42
-1.000000
0
SEQEND
8
HOLE
0
POLYLINE
8
HOLE
66
1
10
0.000000
20
0.000000
30
0.000000
70
1
0
VERTEX
8
HOLE
10
113.900000
20
183.212436
30
0.000000
42
-1.000000
0
VERTEX
8
HOLE
10
114.700000
20
183.212436
30
0.000000
42
-1.000000
0
SEQEND
8
HOLE
0
POLYLINE
8
HOLE
66
1
10
0.000000
20
0.000000
30
0.000000
70
1
0
VERTEX
8
HOLE
10
115.300000
20
183.212436
30
0.000000
42
-1.000000
0
VERTEX
8
HOLE
10
116.100000
20
183.212436
30
0.000000
42
-1.000000
0
SEQEND
8
HOLE
0
POLYLINE
8
HOLE
66
1
10
0.000000
20
0.000000
30
0.000000
70
1
0
VERTEX
8
HOLE
10
116.700000
20
183.212436
30
0.000000
42
-1.000000
0
VERTEX
8
HOLE
10
117.500000
20
183.212436
30
0.000000
42
-1.000000
0
SEQEND
8
HOLE
0
POLYLINE
8
HOLE
66
1
10
0.000000
20
0.000000
30
0.000000
70
1
0
VERTEX
8
HOLE
10
118.100000
20
183.212436
30
0.000000
42
-1.000000
0
VERTEX
8
HOLE
10
118.900000
20
183.212436
30
0.000000
42
-1.000000
0
SEQEND
8
HOLE
0
POLYLINE
8
HOLE
66
1
10
0.000000
20
0.000000
30
0.000000
70
1
0
VERTEX
8
HOLE
10
119.500000
20
183.212436
30
0.000000
42
-1.000000
0
VERTEX
8
HOLE
10
120.300000
20
183.212436
30
0.000000
42
-1.000000
0
SEQEND
8
HOLE
0
POLYLINE
8
HOLE
66
1
10
0.000000
20
0.000000
30
0.000000
70
1
0
VERTEX
8
HOLE
10
120.900000
20
183.212436
30
0.000000
42
-1.000000
0
VERTEX
8
HOLE
10
121.700000
20
183.212436
30
0.000000
42
-1.000000
0
SEQEND
8
HOLE
0
POLYLINE
8
HOLE
66
1
10
0.000000
20
0.000000
30
0.000000
70
1
0
VERTEX
8
HOLE
10
122.300000
20
183.212436
30
0.000000
42
-1.000000
0
VERTEX
8
HOLE
10
123.100000
20
183.212436
30
0.000000
42
-1.000000
0
SEQEND
8
HOLE
0
POLYLINE
8
HOLE
66
1
10
0.000000
20
0.000000
30
0.000000
70
1
0
VERTEX
8
HOLE
10
123.700000
20
183.212436
30
0.000000
42
-1.000000
0
VERTEX
8
HOLE
10
124.500000
20
183.212436
30
0.000000
42
-1.000000
0
SEQEND
8
HOLE
0
POLYLINE
8
HOLE
66
1
10
0.000000
20
0.000000
30
0.000000
70
1
0
VERTEX
8
HOLE
10
125.100000
20
183.212436
30
0.000000
42
-1.000000
0
VERTEX
8
HOLE
10
125.900000
20
183.212436
30
0.000000
42
-1.000000
0
SEQEND
8
HOLE
0
POLYLINE
8
HOLE
66
1
10
0.000000
20
0.000000
30
0.000000
70
1
0
VERTEX
8
HOLE
10
126.500000
20
183.212436
30
0.000000
42
-1.000000
0
VERTEX
8
HOLE
10
127.300000
20
183.212436
30
0.000000
42
-1.000000
0
SEQEND
8
HOLE
0
POLYLINE
8
HOLE
66
1
10
0.000000
20
0.000000
30
0.000000
70
1
0
VERTEX
8
HOLE
10
127.900000
20
183.212436
30
0.000000
42
-1.000000
0
VERTEX
8
HOLE
10
128.700000
20
183.212436
30
0.000000
42
-1.000000
0
SEQEND
8
HOLE
0
POLYLINE
8
HOLE
66
1
10
0.000000
20
0.000000
30
0.000000
70
1
0
VERTEX
8
HOLE
10
129.300000
20
183.212436
30
0.000000
42
-1.000000
0
VERTEX
8
HOLE
10
130.100000
20
183.212436
30
0.000000
42
-1.000000
0
SEQEND
8
HOLE
0
POLYLINE
8
HOLE
66
1
10
0.000000
20
0.000000
30
0.000000
70
1
0
VERTEX
8
HOLE
10
130.700000
20
183.212436
30
0.000000
42
-1.000000
0
VERTEX
8
HOLE
10
131.500000
20
183.212436
30
0.000000
42
-1.000000
0
SEQEND
8
HOLE
0
POLYLINE
8
HOLE
66
1
10
0.000000
20
0.000000
30
0.000000
70
1
0
VERTEX
8
HOLE
10
132.100000
20
183.212436
30
0.000000
42
-1.000000
0
VERTEX
8
HOLE
10
132.900000
20
183.212436
30
0.000000
42
-1.000000
0
SEQEND
8
HOLE
0
POLYLINE
8
HOLE
66
1
10
0.000000
20
0.000000
30
0.000000
70
1
0
VERTEX
8
HOLE
10
133.500000
20
183.212436
30
0.000000
42
-1.000000
0
VERTEX
8
HOLE
10
134.300000
20
183.212436
30
0.000000
42
-1.000000
0
SEQEND
8
HOLE
0
POLYLINE
8
HOLE
66
1
10
0.000000
20
0.000000
30
0.000000
70
1
0
VERTEX
8
HOLE
10
134.900000
20
183.212436
30
0.000000
42
-1.000000
0
VERTEX
8
HOLE
10
135.700000
20
183.212436
30
0.000000
42
-1.000000
0
SEQEND
8
HOLE
0
POLYLINE
8
HOLE
66
1
10
0.000000
20
0.000000
30
0.000000
70
1
0
VERTEX
8
HOLE
10
109.000000
20
184.424871
30
0.000000
42
-1.000000
0
VERTEX
8
HOLE
10
109.800000
20
184.424871
30
0.000000
42
-1.000000
0
SEQEND
8
HOLE
0
POLYLINE
8
HOLE
66
1
10
0.000000
20
0.000000
30
0.000000
70
1
0
VERTEX
8
HOLE
10
110.400000
20
184.424871
30
0.000000
42
-1.000000
0
VERTEX
8
HOLE
10
111.200000
20
184.424871
30
0.000000
42
-1.000000
0
SEQEND
8
HOLE
0
POLYLINE
8
HOLE
66
1
10
0.000000
20
0.000000
30
0.000000
70
1
0
VERTEX
8
HOLE
10
111.800000
20
184.424871
30
0.000000
42
-1.000000
0
VERTEX
8
HOLE
10
112.600000
20
184.424871
30
0.000000
42
-1.000000
0
SEQEND
8
HOLE
0
POLYLINE
8
HOLE
66
1
10
0.000000
20
0.000000
30
0.000000
70
1
0
VERTEX
8
HOLE
10
113.200000
20
184.424871
30
0.000000
42
-1.000000
0
VERTEX
8
HOLE
10
114.000000
20
184.424871
30
0.000000
42
-1.000000
0
SEQEND
8
HOLE
0
POLYLINE
8
HOLE
66
1
10
0.000000
20
0.000000
30
0.000000
70
1
0
VERTEX
8
HOLE
10
114.600000
20
184.424871
30
0.000000
42
-1.000000
0
VERTEX
8
HOLE
10
115.400000
20
184.424871
30
0.000000
42
-1.000000
0
SEQEND
8
HOLE
0
POLYLINE
8
HOLE
66
1
10
0.000000
20
0.000000
30
0.000000
70
1
0
VERTEX
8
HOLE
10
116.000000
20
184.424871
30
0.000000
42
-1.000000
0
VERTEX
8
HOLE
10
116.800000
20
184.424871
30
0.000000
42
-1.000000
0
SEQEND
8
HOLE
0
POLYLINE
8
HOLE
66
1
10
0.000000
20
0.000000
30
0.000000
70
1
0
VERTEX
8
HOLE
10
117.400000
20
184.424871
30
0.000000
42
-1.000000
0
VERTEX
8
HOLE
10
118.200000
20
184.424871
30
0.000000
42
-1.000000
0
SEQEND
8
HOLE
0
POLYLINE
8
HOLE
66
1
10
0.000000
20
0.000000
30
0.000000
70
1
0
VERTEX
8
HOLE
10
118.800000
20
184.424871
30
0.000000
42
-1.000000
0
VERTEX
8
HOLE
10
119.600000
20
184.424871
30
0.000000
42
-1.000000
0
SEQEND
8
HOLE
0
POLYLINE
8
HOLE
66
1
10
0.000000
20
0.000000
30
0.000000
70
1
0
VERTEX
8
HOLE
10
120.200000
20
184.424871
30
0.000000
42
-1.000000
0
VERTEX
8
HOLE
10
121.000000
20
184.424871
30
0.000000
42
-1.000000
0
SEQEND
8
HOLE
0
POLYLINE
8
HOLE
66
1
10
0.000000
20
0.000000
30
0.000000
70
1
0
VERTEX
8
HOLE
10
121.600000
20
184.424871
30
0.000000
42
-1.000000
0
VERTEX
8
HOLE
10
122.400000
20
184.424871
30
0.000000
42
-1.000000
0
SEQEND
8
HOLE
0
POLYLINE
8
HOLE
66
1
10
0.000000
20
0.000000
30
0.000000
70
1
0
VERTEX
8
HOLE
10
123.000000
20
184.424871
30
0.000000
42
-1.000000
0
VERTEX
8
HOLE
10
123.800000
20
184.424871
30
0.000000
42
-1.000000
0
SEQEND
8
HOLE
0
POLYLINE
8
HOLE
66
1
10
0.000000
20
0.000000
30
0.000000
70
1
0
VERTEX
8
HOLE
10
124.400000
20
184.424871
30
0.000000
42
-1.000000
0
VERTEX
8
HOLE
10
125.200000
20
184.424871
30
0.000000
42
-1.000000
0
SEQEND
8
HOLE
0
POLYLINE
8
HOLE
66
1
10
0.000000
20
0.000000
30
0.000000
70
1
0
VERTEX
8
HOLE
10
125.800000
20
184.424871
30
0.000000
42
-1.000000
0
VERTEX
8
HOLE
10
126.600000
20
184.424871
30
0.000000
42
-1.000000
0
SEQEND
8
HOLE
0
POLYLINE
8
HOLE
66
1
10
0.000000
20
0.000000
30
0.000000
70
1
0
VERTEX
8
HOLE
10
127.200000
20
184.424871
30
0.000000
42
-1.000000
0
VERTEX
8
HOLE
10
128.000000
20
184.424871
30
0.000000
42
-1.000000
0
SEQEND
8
HOLE
0
POLYLINE
8
HOLE
66
1
10
0.000000
20
0.000000
30
0.000000
70
1
0
VERTEX
8
HOLE
10
128.600000
20
184.424871
30
0.000000
42
-1.000000
0
VERTEX
8
HOLE
10
129.400000
20
184.424871
30
0.000000
42
-1.000000
0
SEQEND
8
HOLE
0
POLYLINE
8
HOLE
66
1
10
0.000000
20
0.000000
30
0.000000
70
1
0
VERTEX
8
HOLE
10
130.000000
20
184.424871
30
0.000000
42
-1.000000
0
VERTEX
8
HOLE
10
130.800000
20
184.424871
30
0.000000
42
-1.000000
0
SEQEND
8
HOLE
0
POLYLINE
8
HOLE
66
1
10
0.000000
20
0.000000
30
0.000000
70
1
0
VERTEX
8
HOLE
10
131.400000
20
184.424871
30
0.000000
42
-1.000000
0
VERTEX
8
HOLE
10
132.200000
20
184.424871
30
0.000000
42
-1.000000
0
SEQEND
8
HOLE
0
POLYLINE
8
HOLE
66
1
10
0.000000
20
0.000000
30
0.000000
70
1
0
VERTEX
8
HOLE
10
132.800000
20
184.424871
30
0.000000
42
-1.000000
0
VERTEX
8
HOLE
10
133.600000
20
184.424871
30
0.000000
42
-1.000000
0
SEQEND
8
HOLE
0
POLYLINE
8
HOLE
66
1
10
0.000000
20
0.000000
30
0.000000
70
1
0
VERTEX
8
HOLE
10
134.200000
20
184.424871
30
0.000000
42
-1.000000
0
VERTEX
8
HOLE
10
135.000000
20
184.424871
30
0.000000
42
-1.000000
0
SEQEND
8
HOLE
0
POLYLINE
8
HOLE
66
1
10
0.000000
20
0.000000
30
0.000000
70
1
0
VERTEX
8
HOLE
10
109.700000
20
185.637307
30
0.000000
42
-1.000000
0
VERTEX
8
HOLE
10
110.500000
20
185.637307
30
0.000000
42
-1.000000
0
SEQEND
8
HOLE
0
POLYLINE
8
HOLE
66
1
10
0.000000
20
0.000000
30
0.000000
70
1
0
VERTEX
8
HOLE
10
111.100000
20
185.637307
30
0.000000
42
-1.000000
0
VERTEX
8
HOLE
10
111.900000
20
185.637307
30
0.000000
42
-1.000000
0
SEQEND
8
HOLE
0
POLYLINE
8
HOLE
66
1
10
0.000000
20
0.000000
30
0.000000
70
1
0
VERTEX
8
HOLE
10
112.500000
20
185.637307
30
0.000000
42
-1.000000
0
VERTEX
8
HOLE
10
113.300000
20
185.637307
30
0.000000
42
-1.000000
0
SEQEND
8
HOLE
0
POLYLINE
8
HOLE
66
1
10
0.000000
20
0.000000
30
0.000000
70
1
0
VERTEX
8
HOLE
10
113.900000
20
185.637307
30
0.000000
42
-1.000000
0
VERTEX
8
HOLE
10
114.700000
20
185.637307
30
0.000000
42
-1.000000
0
SEQEND
8
HOLE
0
POLYLINE
8
HOLE
66
1
10
0.000000
20
0.000000
30
0.000000
70
1
0
VERTEX
8
HOLE
10
115.300000
20
185.637307
30
0.000000
42
-1.000000
0
VERTEX
8
HOLE
10
116.100000
20
185.637307
30
0.000000
42
-1.000000
0
SEQEND
8
HOLE
0
POLYLINE
8
HOLE
66
1
10
0.000000
20
0.000000
30
0.000000
70
1
0
VERTEX
8
HOLE
10
116.700000
20
185.637307
30
0.000000
42
-1.000000
0
VERTEX
8
HOLE
10
117.500000
20
185.637307
30
0.000000
42
-1.000000
0
SEQEND
8
HOLE
0
POLYLINE
8
HOLE
66
1
10
0.000000
20
0.000000
30
0.000000
70
1
0
VERTEX
8
HOLE
10
118.100000
20
185.637307
30
0.000000
42
-1.000000
0
VERTEX
8
HOLE
10
118.900000
20
185.637307
30
0.000000
42
-1.000000
0
SEQEND
8
HOLE
0
POLYLINE
8
HOLE
66
1
10
0.000000
20
0.000000
30
0.000000
70
1
0
VERTEX
8
HOLE
10
119.500000
20
185.637307
30
0.000000
42
-1.000000
0
VERTEX
8
HOLE
10
120.300000
20
185.637307
30
0.000000
42
-1.000000
0
SEQEND
8
HOLE
0
POLYLINE
8
HOLE
66
1
10
0.000000
20
0.000000
30
0.000000
70
1
0
VERTEX
8
HOLE
10
120.900000
20
185.637307
30
0.000000
42
-1.000000
0
VERTEX
8
HOLE
10
121.700000
20
185.637307
30
0.000000
42
-1.000000
0
SEQEND
8
HOLE
0
POLYLINE
8
HOLE
66
1
10
0.000000
20
0.000000
30
0.000000
70
1
0
VERTEX
8
HOLE
10
122.300000
20
185.637307
30
0.000000
42
-1.000000
0
VERTEX
8
HOLE
10
123.100000
20
185.637307
30
0.000000
42
-1.000000
0
SEQEND
8
HOLE
0
POLYLINE
8
HOLE
66
1
10
0.000000
20
0.000000
30
0.000000
70
1
0
VERTEX
8
HOLE
10
123.700000
20
185.637307
30
0.000000
42
-1.000000
0
VERTEX
8
HOLE
10
124.500000
20
185.637307
30
0.000000
42
-1.000000
0
SEQEND
8
HOLE
0
POLYLINE
8
HOLE
66
1
10
0.000000
20
0.000000
30
0.000000
70
1
0
VERTEX
8
HOLE
10
125.100000
20
185.637307
30
0.000000
42
-1.000000
0
VERTEX
8
HOLE
10
125.900000
20
185.637307
30
0.000000
42
-1.000000
0
SEQEND
8
HOLE
0
POLYLINE
8
HOLE
66
1
10
0.000000
20
0.000000
30
0.000000
70
1
0
VERTEX
8
HOLE
10
126.500000
20
185.637307
30
0.000000
42
-1.000000
0
VERTEX
8
HOLE
10
127.300000
20
185.637307
30
0.000000
42
-1.000000
0
SEQEND
8
HOLE
0
POLYLINE
8
HOLE
66
1
10
0.000000
20
0.000000
30
0.000000
70
1
0
VERTEX
8
HOLE
10
127.900000
20
185.637307
30
0.000000
42
-1.000000
0
VERTEX
8
HOLE
10
128.700000
20
185.637307
30
0.000000
42
-1.000000
0
SEQEND
8
HOLE
0
POLYLINE
8
HOLE
66
1
10
0.000000
20
0.000000
30
0.000000
70
1
0
VERTEX
8
HOLE
10
129.300000
20
185.637307
30
0.000000
42
-1.000000
0
VERTEX
8
HOLE
10
130.100000
20
185.637307
30
0.000000
42
-1.000000
0
SEQEND
8
HOLE
0
POLYLINE
8
HOLE
66
1
10
0.000000
20
0.000000
30
0.000000
70
1
0
VERTEX
8
HOLE
10
130.700000
20
185.637307
30
0.000000
42
-1.000000
0
VERTEX
8
HOLE
10
131.500000
20
185.637307
30
0.000000
42
-1.000000
0
SEQEND
8
HOLE
0
POLYLINE
8
HOLE
66
1
10
0.000000
20
0.000000
30
0.000000
70
1
0
VERTEX
8
HOLE
10
132.100000
20
185.637307
30
0.000000
42
-1.000000
0
VERTEX
8
HOLE
10
132.900000
20
185.637307
30
0.000000
42
-1.000000
0
SEQEND
8
HOLE
0
POLYLINE
8
HOLE
66
1
10
0.000000
20
0.000000
30
0.000000
70
1
0
VERTEX
8
HOLE
10
133.500000
20
185.637307
30
0.000000
42
-1.000000
0
VERTEX
8
HOLE
10
134.300000
20
185.637307
30
0.000000
42
-1.000000
0
SEQEND
8
HOLE
0
POLYLINE
8
HOLE
66
1
10
0.000000
20
0.000000
30
0.000000
70
1
0
VERTEX
8
HOLE
10
134.900000
20
185.637307
30
0.000000
42
-1.000000
0
VERTEX
8
HOLE
10
135.700000
20
185.637307
30
0.000000
42
-1.000000
0
SEQEND
8
HOLE
0
POLYLINE
8
HOLE
66
1
10
0.000000
20
0.000000
30
0.000000
70
1
0
VERTEX
8
HOLE
10
109.000000
20
186.849742
30
0.000000
42
-1.000000
0
VERTEX
8
HOLE
10
109.800000
20
186.849742
30
0.000000
42
-1.000000
0
SEQEND
8
HOLE
0
POLYLINE
8
HOLE
66
1
10
0.000000
20
0.000000
30
0.000000
70
1
0
VERTEX
8
HOLE
10
110.400000
20
186.849742
30
0.000000
42
-1.000000
0
VERTEX
8
HOLE
10
111.200000
20
186.849742
30
0.000000
42
-1.000000
0
SEQEND
8
HOLE
0
POLYLINE
8
HOLE
66
1
10
0.000000
20
0.000000
30
0.000000
70
1
0
VERTEX
8
HOLE
10
111.800000
20
186.849742
30
0.000000
42
-1.000000
0
VERTEX
8
HOLE
10
112.600000
20
186.849742
30
0.000000
42
-1.000000
0
SEQEND
8
HOLE
0
POLYLINE
8
HOLE
66
1
10
0.000000
20
0.000000
30
0.000000
70
1
0
VERTEX
8
HOLE
10
113.200000
20
186.849742
30
0.000000
42
-1.000000
0
VERTEX
8
HOLE
10
114.000000
20
186.849742
30
0.000000
42
-1.000000
0
SEQEND
8
HOLE
0
POLYLINE
8
HOLE
66
1
10
0.000000
20
0.000000
30
0.000000
70
1
0
VERTEX
8
HOLE
10
114.600000
20
186.849742
30
0.000000
42
-1.000000
0
VERTEX
8
HOLE
10
115.400000
20
186.849742
30
0.000000
42
-1.000000
0
SEQEND
8
HOLE
0
POLYLINE
8
HOLE
66
1
10
0.000000
20
0.000000
30
0.000000
70
1
0
VERTEX
8
HOLE
10
116.000000
20
186.849742
30
0.000000
42
-1.000000
0
VERTEX
8
HOLE
10
116.800000
20
186.849742
30
0.000000
42
-1.000000
0
SEQEND
8
HOLE
0
POLYLINE
8
HOLE
66
1
10
0.000000
20
0.000000
30
0.000000
70
1
0
VERTEX
8
HOLE
10
117.400000
20
186.849742
30
0.000000
42
-1.000000
0
VERTEX
8
HOLE
10
118.200000
20
186.849742
30
0.000000
42
-1.000000
0
SEQEND
8
HOLE
0
POLYLINE
8
HOLE
66
1
10
0.000000
20
0.000000
30
0.000000
70
1
0
VERTEX
8
HOLE
10
118.800000
20
186.849742
30
0.000000
42
-1.000000
0
VERTEX
8
HOLE
10
119.600000
20
186.849742
30
0.000000
42
-1.000000
0
SEQEND
8
HOLE
0
POLYLINE
8
HOLE
66
1
10
0.000000
20
0.000000
30
0.000000
70
1
0
VERTEX
8
HOLE
10
120.200000
20
186.849742
30
0.000000
42
-1.000000
0
VERTEX
8
HOLE
10
121.000000
20
186.849742
30
0.000000
42
-1.000000
0
SEQEND
8
HOLE
0
POLYLINE
8
HOLE
66
1
10
0.000000
20
0.000000
30
0.000000
70
1
0
VERTEX
8
HOLE
10
121.600000
20
186.849742
30
0.000000
42
-1.000000
0
VERTEX
8
HOLE
10
122.400000
20
186.849742
30
0.000000
42
-1.000000
0
SEQEND
8
HOLE
0
POLYLINE
8
HOLE
66
1
10
0.000000
20
0.000000
30
0.000000
70
1
0
VERTEX
8
HOLE
10
123.000000
20
186.849742
30
0.000000
42
-1.000000
0
VERTEX
8
HOLE
10
123.800000
20
186.849742
30
0.000000
42
-1.000000
0
SEQEND
8
HOLE
0
POLYLINE
8
HOLE
66
1
10
0.000000
20
0.000000
30
0.000000
70
1
0
VERTEX
8
HOLE
10
124.400000
20
186.849742
30
0.000000
42
-1.000000
0
VERTEX
8
HOLE
10
125.200000
20
186.849742
30
0.000000
42
-1.000000
0
SEQEND
8
HOLE
0
POLYLINE
8
HOLE
66
1
10
0.000000
20
0.000000
30
0.000000
70
1
0
VERTEX
8
HOLE
10
125.800000
20
186.849742
30
0.000000
42
-1.000000
0
VERTEX
8
HOLE
10
126.600000
20
186.849742
30
0.000000
42
-1.000000
0
SEQEND
8
HOLE
0
POLYLINE
8
HOLE
66
1
10
0.000000
20
0.000000
30
0.000000
70
1
0
VERTEX
8
HOLE
10
127.200000
20
186.849742
30
0.000000
42
-1.000000
0
VERTEX
8
HOLE
10
128.000000
20
186.849742
30
0.000000
42
-1.000000
0
SEQEND
8
HOLE
0
POLYLINE
8
HOLE
66
1
10
0.000000
20
0.000000
30
0.000000
70
1
0
VERTEX
8
HOLE
10
128.600000
20
186.849742
30
0.000000
42
-1.000000
0
VERTEX
8
HOLE
10
129.400000
20
186.849742
30
0.000000
42
-1.000000
0
SEQEND
8
HOLE
0
POLYLINE
8
HOLE
66
1
10
0.000000
20
0.000000
30
0.000000
70
1
0
VERTEX
8
HOLE
10
130.000000
20
186.849742
30
0.000000
42
-1.000000
0
VERTEX
8
HOLE
10
130.800000
20
186.849742
30
0.000000
42
-1.000000
0
SEQEND
8
HOLE
0
POLYLINE
8
HOLE
66
1
10
0.000000
20
0.000000
30
0.000000
70
1
0
VERTEX
8
HOLE
10
131.400000
20
186.849742
30
0.000000
42
-1.000000
0
VERTEX
8
HOLE
10
132.200000
20
186.849742
30
0.000000
42
-1.000000
0
SEQEND
8
HOLE
0
POLYLINE
8
HOLE
66
1
10
0.000000
20
0.000000
30
0.000000
70
1
0
VERTEX
8
HOLE
10
132.800000
20
186.849742
30
0.000000
42
-1.000000
0
VERTEX
8
HOLE
10
133.600000
20
186.849742
30
0.000000
42
-1.000000
0
SEQEND
8
HOLE
0
POLYLINE
8
HOLE
66
1
10
0.000000
20
0.000000
30
0.000000
70
1
0
VERTEX
8
HOLE
10
134.200000
20
186.849742
30
0.000000
42
-1.000000
0
VERTEX
8
HOLE
10
135.000000
20
186.849742
30
0.000000
42
-1.000000
0
SEQEND
8
HOLE
0
POLYLINE
8
HOLE
66
1
10
0.000000
20
0.000000
30
0.000000
70
1
0
VERTEX
8
HOLE
10
109.700000
20
188.062178
30
0.000000
42
-1.000000
0
VERTEX
8
HOLE
10
110.500000
20
188.062178
30
0.000000
42
-1.000000
0
SEQEND
8
HOLE
0
POLYLINE
8
HOLE
66
1
10
0.000000
20
0.000000
30
0.000000
70
1
0
VERTEX
8
HOLE
10
111.100000
20
188.062178
30
0.000000
42
-1.000000
0
VERTEX
8
HOLE
10
111.900000
20
188.062178
30
0.000000
42
-1.000000
0
SEQEND
8
HOLE
0
POLYLINE
8
HOLE
66
1
10
0.000000
20
0.000000
30
0.000000
70
1
0
VERTEX
8
HOLE
10
112.500000
20
188.062178
30
0.000000
42
-1.000000
0
VERTEX
8
HOLE
10
113.300000
20
188.062178
30
0.000000
42
-1.000000
0
SEQEND
8
HOLE
0
POLYLINE
8
HOLE
66
1
10
0.000000
20
0.000000
30
0.000000
70
1
0
VERTEX
8
HOLE
10
113.900000
20
188.062178
30
0.000000
42
-1.000000
0
VERTEX
8
HOLE
10
114.700000
20
188.062178
30
0.000000
42
-1.000000
0
SEQEND
8
HOLE
0
POLYLINE
8
HOLE
66
1
10
0.000000
20
0.000000
30
0.000000
70
1
0
VERTEX
8
HOLE
10
115.300000
20
188.062178
30
0.000000
42
-1.000000
0
VERTEX
8
HOLE
10
116.100000
20
188.062178
30
0.000000
42
-1.000000
0
SEQEND
8
HOLE
0
POLYLINE
8
HOLE
66
1
10
0.000000
20
0.000000
30
0.000000
70
1
0
VERTEX
8
HOLE
10
116.700000
20
188.062178
30
0.000000
42
-1.000000
0
VERTEX
8
HOLE
10
117.500000
20
188.062178
30
0.000000
42
-1.000000
0
SEQEND
8
HOLE
0
POLYLINE
8
HOLE
66
1
10
0.000000
20
0.000000
30
0.000000
70
1
0
VERTEX
8
HOLE
10
118.100000
20
188.062178
30
0.000000
42
-1.000000
0
VERTEX
8
HOLE
10
118.900000
20
188.062178
30
0.000000
42
-1.000000
0
SEQEND
8
HOLE
0
POLYLINE
8
HOLE
66
1
10
0.000000
20
0.000000
30
0.000000
70
1
0
VERTEX
8
HOLE
10
119.500000
20
188.062178
30
0.000000
42
-1.000000
0
VERTEX
8
HOLE
10
120.300000
20
188.062178
30
0.000000
42
-1.000000
0
SEQEND
8
HOLE
0
POLYLINE
8
HOLE
66
1
10
0.000000
20
0.000000
30
0.000000
70
1
0
VERTEX
8
HOLE
10
120.900000
20
188.062178
30
0.000000
42
-1.000000
0
VERTEX
8
HOLE
10
121.700000
20
188.062178
30
0.000000
42
-1.000000
0
SEQEND
8
HOLE
0
POLYLINE
8
HOLE
66
1
10
0.000000
20
0.000000
30
0.000000
70
1
0
VERTEX
8
HOLE
10
122.300000
20
188.062178
30
0.000000
42
-1.000000
0
VERTEX
8
HOLE
10
123.100000
20
188.062178
30
0.000000
42
-1.000000
0
SEQEND
8
HOLE
0
POLYLINE
8
HOLE
66
1
10
0.000000
20
0.000000
30
0.000000
70
1
0
VERTEX
8
HOLE
10
123.700000
20
188.062178
30
0.000000
42
-1.000000
0
VERTEX
8
HOLE
10
124.500000
20
188.062178
30
0.000000
42
-1.000000
0
SEQEND
8
HOLE
0
POLYLINE
8
HOLE
66
1
10
0.000000
20
0.000000
30
0.000000
70
1
0
VERTEX
8
HOLE
10
125.100000
20
188.062178
30
0.000000
42
-1.000000
0
VERTEX
8
HOLE
10
125.900000
20
188.062178
30
0.000000
42
-1.000000
0
SEQEND
8
HOLE
0
POLYLINE
8
HOLE
66
1
10
0.000000
20
0.000000
30
0.000000
70
1
0
VERTEX
8
HOLE
10
126.500000
20
188.062178
30
0.000000
42
-1.000000
0
VERTEX
8
HOLE
10
127.300000
20
188.062178
30
0.000000
42
-1.000000
0
SEQEND
8
HOLE
0
POLYLINE
8
HOLE
66
1
10
0.000000
20
0.000000
30
0.000000
70
1
0
VERTEX
8
HOLE
10
127.900000
20
188.062178
30
0.000000
42
-1.000000
0
VERTEX
8
HOLE
10
128.700000
20
188.062178
30
0.000000
42
-1.000000
0
SEQEND
8
HOLE
0
POLYLINE
8
HOLE
66
1
10
0.000000
20
0.000000
30
0.000000
70
1
0
VERTEX
8
HOLE
10
129.300000
20
188.062178
30
0.000000
42
-1.000000
0
VERTEX
8
HOLE
10
130.100000
20
188.062178
30
0.000000
42
-1.000000
0
SEQEND
8
HOLE
0
POLYLINE
8
HOLE
66
1
10
0.000000
20
0.000000
30
0.000000
70
1
0
VERTEX
8
HOLE
10
130.700000
20
188.062178
30
0.000000
42
-1.000000
0
VERTEX
8
HOLE
10
131.500000
20
188.062178
30
0.000000
42
-1.000000
0
SEQEND
8
HOLE
0
POLYLINE
8
HOLE
66
1
10
0.000000
20
0.000000
30
0.000000
70
1
0
VERTEX
8
HOLE
10
132.100000
20
188.062178
30
0.000000
42
-1.000000
0
VERTEX
8
HOLE
10
132.900000
20
188.062178
30
0.000000
42
-1.000000
0
SEQEND
8
HOLE
0
POLYLINE
8
HOLE
66
1
10
0.000000
20
0.000000
30
0.000000
70
1
0
VERTEX
8
HOLE
10
133.500000
20
188.062178
30
0.000000
42
-1.000000
0
VERTEX
8
HOLE
10
134.300000
20
188.062178
30
0.000000
42
-1.000000
0
SEQEND
8
HOLE
0
POLYLINE
8
HOLE
66
1
10
0.000000
20
0.000000
30
0.000000
70
1
0
VERTEX
8
HOLE
10
134.900000
20
188.062178
30
0.000000
42
-1.000000
0
VERTEX
8
HOLE
10
135.700000
20
188.062178
30
0.000000
42
-1.000000
0
SEQEND
8
HOLE
0
POLYLINE
8
HOLE
66
1
10
0.000000
20
0.000000
30
0.000000
70
1
0
VERTEX
8
HOLE
10
109.000000
20
189.274613
30
0.000000
42
-1.000000
0
VERTEX
8
HOLE
10
109.800000
20
189.274613
30
0.000000
42
-1.000000
0
SEQEND
8
HOLE
0
POLYLINE
8
HOLE
66
1
10
0.000000
20
0.000000
30
0.000000
70
1
0
VERTEX
8
HOLE
10
110.400000
20
189.274613
30
0.000000
42
-1.000000
0
VERTEX
8
HOLE
10
111.200000
20
189.274613
30
0.000000
42
-1.000000
0
SEQEND
8
HOLE
0
POLYLINE
8
HOLE
66
1
10
0.000000
20
0.000000
30
0.000000
70
1
0
VERTEX
8
HOLE
10
111.800000
20
189.274613
30
0.000000
42
-1.000000
0
VERTEX
8
HOLE
10
112.600000
20
189.274613
30
0.000000
42
-1.000000
0
SEQEND
8
HOLE
0
POLYLINE
8
HOLE
66
1
10
0.000000
20
0.000000
30
0.000000
70
1
0
VERTEX
8
HOLE
10
113.200000
20
189.274613
30
0.000000
42
-1.000000
0
VERTEX
8
HOLE
10
114.000000
20
189.274613
30
0.000000
42
-1.000000
0
SEQEND
8
HOLE
0
POLYLINE
8
HOLE
66
1
10
0.000000
20
0.000000
30
0.000000
70
1
0
VERTEX
8
HOLE
10
114.600000
20
189.274613
30
0.000000
42
-1.000000
0
VERTEX
8
HOLE
10
115.400000
20
189.274613
30
0.000000
42
-1.000000
0
SEQEND
8
HOLE
0
POLYLINE
8
HOLE
66
1
10
0.000000
20
0.000000
30
0.000000
70
1
0
VERTEX
8
HOLE
10
116.000000
20
189.274613
30
0.000000
42
-1.000000
0
VERTEX
8
HOLE
10
116.800000
20
189.274613
30
0.000000
42
-1.000000
0
SEQEND
8
HOLE
0
POLYLINE
8
HOLE
66
1
10
0.000000
20
0.000000
30
0.000000
70
1
0
VERTEX
8
HOLE
10
117.400000
20
189.274613
30
0.000000
42
-1.000000
0
VERTEX
8
HOLE
10
118.200000
20
189.274613
30
0.000000
42
-1.000000
0
SEQEND
8
HOLE
0
POLYLINE
8
HOLE
66
1
10
0.000000
20
0.000000
30
0.000000
70
1
0
VERTEX
8
HOLE
10
118.800000
20
189.274613
30
0.000000
42
-1.000000
0
VERTEX
8
HOLE
10
119.600000
20
189.274613
30
0.000000
42
-1.000000
0
SEQEND
8
HOLE
0
POLYLINE
8
HOLE
66
1
10
0.000000
20
0.000000
30
0.000000
70
1
0
VERTEX
8
HOLE
10
120.200000
20
189.274613
30
0.000000
42
-1.000000
0
VERTEX
8
HOLE
10
121.000000
20
189.274613
30
0.000000
42
-1.000000
0
SEQEND
8
HOLE
0
POLYLINE
8
HOLE
66
1
10
0.000000
20
0.000000
30
0.000000
70
1
0
VERTEX
8
HOLE
10
121.600000
20
189.274613
30
0.000000
42
-1.000000
0
VERTEX
8
HOLE
10
122.400000
20
189.274613
30
0.000000
42
-1.000000
0
SEQEND
8
HOLE
0
POLYLINE
8
HOLE
66
1
10
0.000000
20
0.000000
30
0.000000
70
1
0
VERTEX
8
HOLE
10
123.000000
20
189.274613
30
0.000000
42
-1.000000
0
VERTEX
8
HOLE
10
123.800000
20
189.274613
30
0.000000
42
-1.000000
0
SEQEND
8
HOLE
0
POLYLINE
8
HOLE
66
1
10
0.000000
20
0.000000
30
0.000000
70
1
0
VERTEX
8
HOLE
10
124.400000
20
189.274613
30
0.000000
42
-1.000000
0
VERTEX
8
HOLE
10
125.200000
20
189.274613
30
0.000000
42
-1.000000
0
SEQEND
8
HOLE
0
POLYLINE
8
HOLE
66
1
10
0.000000
20
0.000000
30
0.000000
70
1
0
VERTEX
8
HOLE
10
125.800000
20
189.274613
30
0.000000
42
-1.000000
0
VERTEX
8
HOLE
10
126.600000
20
189.274613
30
0.000000
42
-1.000000
0
SEQEND
8
HOLE
0
POLYLINE
8
HOLE
66
1
10
0.000000
20
0.000000
30
0.000000
70
1
0
VERTEX
8
HOLE
10
127.200000
20
189.274613
30
0.000000
42
-1.000000
0
VERTEX
8
HOLE
10
128.000000
20
189.274613
30
0.000000
42
-1.000000
0
SEQEND
8
HOLE
0
POLYLINE
8
HOLE
66
1
10
0.000000
20
0.000000
30
0.000000
70
1
0
VERTEX
8
HOLE
10
128.600000
20
189.274613
30
0.000000
42
-1.000000
0
VERTEX
8
HOLE
10
129.400000
20
189.274613
30
0.000000
42
-1.000000
0
SEQEND
8
HOLE
0
POLYLINE
8
HOLE
66
1
10
0.000000
20
0.000000
30
0.000000
70
1
0
VERTEX
8
HOLE
10
130.000000
20
189.274613
30
0.000000
42
-1.000000
0
VERTEX
8
HOLE
10
130.800000
20
189.274613
30
0.000000
42
-1.000000
0
SEQEND
8
HOLE
0
POLYLINE
8
HOLE
66
1
10
0.000000
20
0.000000
30
0.000000
70
1
0
VERTEX
8
HOLE
10
131.400000
20
189.274613
30
0.000000
42
-1.000000
0
VERTEX
8
HOLE
10
132.200000
20
189.274613
30
0.000000
42
-1.000000
0
SEQEND
8
HOLE
0
POLYLINE
8
HOLE
66
1
10
0.000000
20
0.000000
30
0.000000
70
1
0
VERTEX
8
HOLE
10
132.800000
20
189.274613
30
0.000000
42
-1.000000
0
VERTEX
8
HOLE
10
133.600000
20
189.274613
30
0.000000
42
-1.000000
0
SEQEND
8
HOLE
0
POLYLINE
8
HOLE
66
1
10
0.000000
20
0.000000
30
0.000000
70
1
0
VERTEX
8
HOLE
10
134.200000
20
189.274613
30
0.000000
42
-1.000000
0
VERTEX
8
HOLE
10
135.000000
20
189.274613
30
0.000000
42
-1.000000
0
SEQEND
8
HOLE
0
POLYLINE
8
HOLE
66
1
10
0.000000
20
0.000000
30
0.000000
70
1
0
VERTEX
8
HOLE
10
109.700000
20
190.487049
30
0.000000
42
-1.000000
0
VERTEX
8
HOLE
10
110.500000
20
190.487049
30
0.000000
42
-1.000000
0
SEQEND
8
HOLE
0
POLYLINE
8
HOLE
66
1
10
0.000000
20
0.000000
30
0.000000
70
1
0
VERTEX
8
HOLE
10
111.100000
20
190.487049
30
0.000000
42
-1.000000
0
VERTEX
8
HOLE
10
111.900000
20
190.487049
30
0.000000
42
-1.000000
0
SEQEND
8
HOLE
0
POLYLINE
8
HOLE
66
1
10
0.000000
20
0.000000
30
0.000000
70
1
0
VERTEX
8
HOLE
10
112.500000
20
190.487049
30
0.000000
42
-1.000000
0
VERTEX
8
HOLE
10
113.300000
20
190.487049
30
0.000000
42
-1.000000
0
SEQEND
8
HOLE
0
POLYLINE
8
HOLE
66
1
10
0.000000
20
0.000000
30
0.000000
70
1
0
VERTEX
8
HOLE
10
113.900000
20
190.487049
30
0.000000
42
-1.000000
0
VERTEX
8
HOLE
10
114.700000
20
190.487049
30
0.000000
42
-1.000000
0
SEQEND
8
HOLE
0
POLYLINE
8
HOLE
66
1
10
0.000000
20
0.000000
30
0.000000
70
1
0
VERTEX
8
HOLE
10
115.300000
20
190.487049
30
0.000000
42
-1.000000
0
VERTEX
8
HOLE
10
116.100000
20
190.487049
30
0.000000
42
-1.000000
0
SEQEND
8
HOLE
0
POLYLINE
8
HOLE
66
1
10
0.000000
20
0.000000
30
0.000000
70
1
0
VERTEX
8
HOLE
10
116.700000
20
190.487049
30
0.000000
42
-1.000000
0
VERTEX
8
HOLE
10
117.500000
20
190.487049
30
0.000000
42
-1.000000
0
SEQEND
8
HOLE
0
POLYLINE
8
HOLE
66
1
10
0.000000
20
0.000000
30
0.000000
70
1
0
VERTEX
8
HOLE
10
118.100000
20
190.487049
30
0.000000
42
-1.000000
0
VERTEX
8
HOLE
10
118.900000
20
190.487049
30
0.000000
42
-1.000000
0
SEQEND
8
HOLE
0
POLYLINE
8
HOLE
66
1
10
0.000000
20
0.000000
30
0.000000
70
1
0
VERTEX
8
HOLE
10
119.500000
20
190.487049
30
0.000000
42
-1.000000
0
VERTEX
8
HOLE
10
120.300000
20
190.487049
30
0.000000
42
-1.000000
0
SEQEND
8
HOLE
0
POLYLINE
8
HOLE
66
1
10
0.000000
20
0.000000
30
0.000000
70
1
0
VERTEX
8
HOLE
10
120.900000
20
190.487049
30
0.000000
42
-1.000000
0
VERTEX
8
HOLE
10
121.700000
20
190.487049
30
0.000000
42
-1.000000
0
SEQEND
8
HOLE
0
POLYLINE
8
HOLE
66
1
10
0.000000
20
0.000000
30
0.000000
70
1
0
VERTEX
8
HOLE
10
122.300000
20
190.487049
30
0.000000
42
-1.000000
0
VERTEX
8
HOLE
10
123.100000
20
190.487049
30
0.000000
42
-1.000000
0
SEQEND
8
HOLE
0
POLYLINE
8
HOLE
66
1
10
0.000000
20
0.000000
30
0.000000
70
1
0
VERTEX
8
HOLE
10
123.700000
20
190.487049
30
0.000000
42
-1.000000
0
VERTEX
8
HOLE
10
124.500000
20
190.487049
30
0.000000
42
-1.000000
0
SEQEND
8
HOLE
0
POLYLINE
8
HOLE
66
1
10
0.000000
20
0.000000
30
0.000000
70
1
0
VERTEX
8
HOLE
10
125.100000
20
190.487049
30
0.000000
42
-1.000000
0
VERTEX
8
HOLE
10
125.900000
20
190.487049
30
0.000000
42
-1.000000
0
SEQEND
8
HOLE
0
POLYLINE
8
HOLE
66
1
10
0.000000
20
0.000000
30
0.000000
70
1
0
VERTEX
8
HOLE
10
126.500000
20
190.487049
30
0.000000
42
-1.000000
0
VERTEX
8
HOLE
10
127.300000
20
190.487049
30
0.000000
42
-1.000000
0
SEQEND
8
HOLE
0
POLYLINE
8
HOLE
66
1
10
0.000000
20
0.000000
30
0.000000
70
1
0
VERTEX
8
HOLE
10
127.900000
20
190.487049
30
0.000000
42
-1.000000
0
VERTEX
8
HOLE
10
128.700000
20
190.487049
30
0.000000
42
-1.000000
0
SEQEND
8
HOLE
0
POLYLINE
8
HOLE
66
1
10
0.000000
20
0.000000
30
0.000000
70
1
0
VERTEX
8
HOLE
10
129.300000
20
190.487049
30
0.000000
42
-1.000000
0
VERTEX
8
HOLE
10
130.100000
20
190.487049
30
0.000000
42
-1.000000
0
SEQEND
8
HOLE
0
POLYLINE
8
HOLE
66
1
10
0.000000
20
0.000000
30
0.000000
70
1
0
VERTEX
8
HOLE
10
130.700000
20
190.487049
30
0.000000
42
-1.000000
0
VERTEX
8
HOLE
10
131.500000
20
190.487049
30
0.000000
42
-1.000000
0
SEQEND
8
HOLE
0
POLYLINE
8
HOLE
66
1
10
0.000000
20
0.000000
30
0.000000
70
1
0
VERTEX
8
HOLE
10
132.100000
20
190.487049
30
0.000000
42
-1.000000
0
VERTEX
8
HOLE
10
132.900000
20
190.487049
30
0.000000
42
-1.000000
0
SEQEND
8
HOLE
0
POLYLINE
8
HOLE
66
1
10
0.000000
20
0.000000
30
0.000000
70
1
0
VERTEX
8
HOLE
10
133.500000
20
190.487049
30
0.000000
42
-1.000000
0
VERTEX
8
HOLE
10
134.300000
20
190.487049
30
0.000000
42
-1.000000
0
SEQEND
8
HOLE
0
POLYLINE
8
HOLE
66
1
10
0.000000
20
0.000000
30
0.000000
70
1
0
VERTEX
8
HOLE
10
134.900000
20
190.487049
30
0.000000
42
-1.000000
0
VERTEX
8
HOLE
10
135.700000
20
190.487049
30
0.000000
42
-1.000000
0
SEQEND
8
HOLE
0
POLYLINE
8
HOLE
66
1
10
0.000000
20
0.000000
30
0.000000
70
1
0
VERTEX
8
HOLE
10
109.000000
20
191.699485
30
0.000000
42
-1.000000
0
VERTEX
8
HOLE
10
109.800000
20
191.699485
30
0.000000
42
-1.000000
0
SEQEND
8
HOLE
0
POLYLINE
8
HOLE
66
1
10
0.000000
20
0.000000
30
0.000000
70
1
0
VERTEX
8
HOLE
10
110.400000
20
191.699485
30
0.000000
42
-1.000000
0
VERTEX
8
HOLE
10
111.200000
20
191.699485
30
0.000000
42
-1.000000
0
SEQEND
8
HOLE
0
POLYLINE
8
HOLE
66
1
10
0.000000
20
0.000000
30
0.000000
70
1
0
VERTEX
8
HOLE
10
111.800000
20
191.699485
30
0.000000
42
-1.000000
0
VERTEX
8
HOLE
10
112.600000
20
191.699485
30
0.000000
42
-1.000000
0
SEQEND
8
HOLE
0
POLYLINE
8
HOLE
66
1
10
0.000000
20
0.000000
30
0.000000
70
1
0
VERTEX
8
HOLE
10
113.200000
20
191.699485
30
0.000000
42
-1.000000
0
VERTEX
8
HOLE
10
114.000000
20
191.699485
30
0.000000
42
-1.000000
0
SEQEND
8
HOLE
0
POLYLINE
8
HOLE
66
1
10
0.000000
20
0.000000
30
0.000000
70
1
0
VERTEX
8
HOLE
10
114.600000
20
191.699485
30
0.000000
42
-1.000000
0
VERTEX
8
HOLE
10
115.400000
20
191.699485
30
0.000000
42
-1.000000
0
SEQEND
8
HOLE
0
POLYLINE
8
HOLE
66
1
10
0.000000
20
0.000000
30
0.000000
70
1
0
VERTEX
8
HOLE
10
116.000000
20
191.699485
30
0.000000
42
-1.000000
0
VERTEX
8
HOLE
10
116.800000
20
191.699485
30
0.000000
42
-1.000000
0
SEQEND
8
HOLE
0
POLYLINE
8
HOLE
66
1
10
0.000000
20
0.000000
30
0.000000
70
1
0
VERTEX
8
HOLE
10
117.400000
20
191.699485
30
0.000000
42
-1.000000
0
VERTEX
8
HOLE
10
118.200000
20
191.699485
30
0.000000
42
-1.000000
0
SEQEND
8
HOLE
0
POLYLINE
8
HOLE
66
1
10
0.000000
20
0.000000
30
0.000000
70
1
0
VERTEX
8
HOLE
10
118.800000
20
191.699485
30
0.000000
42
-1.000000
0
VERTEX
8
HOLE
10
119.600000
20
191.699485
30
0.000000
42
-1.000000
0
SEQEND
8
HOLE
0
POLYLINE
8
HOLE
66
1
10
0.000000
20
0.000000
30
0.000000
70
1
0
VERTEX
8
HOLE
10
120.200000
20
191.699485
30
0.000000
42
-1.000000
0
VERTEX
8
HOLE
10
121.000000
20
191.699485
30
0.000000
42
-1.000000
0
SEQEND
8
HOLE
0
POLYLINE
8
HOLE
66
1
10
0.000000
20
0.000000
30
0.000000
70
1
0
VERTEX
8
HOLE
10
121.600000
20
191.699485
30
0.000000
42
-1.000000
0
VERTEX
8
HOLE
10
122.400000
20
191.699485
30
0.000000
42
-1.000000
0
SEQEND
8
HOLE
0
POLYLINE
8
HOLE
66
1
10
0.000000
20
0.000000
30
0.000000
70
1
0
VERTEX
8
HOLE
10
123.000000
20
191.699485
30
0.000000
42
-1.000000
0
VERTEX
8
HOLE
10
123.800000
20
191.699485
30
0.000000
42
-1.000000
0
SEQEND
8
HOLE
0
POLYLINE
8
HOLE
66
1
10
0.000000
20
0.000000
30
0.000000
70
1
0
VERTEX
8
HOLE
10
124.400000
20
191.699485
30
0.000000
42
-1.000000
0
VERTEX
8
HOLE
10
125.200000
20
191.699485
30
0.000000
42
-1.000000
0
SEQEND
8
HOLE
0
POLYLINE
8
HOLE
66
1
10
0.000000
20
0.000000
30
0.000000
70
1
0
VERTEX
8
HOLE
10
125.800000
20
191.699485
30
0.000000
42
-1.000000
0
VERTEX
8
HOLE
10
126.600000
20
191.699485
30
0.000000
42
-1.000000
0
SEQEND
8
HOLE
0
POLYLINE
8
HOLE
66
1
10
0.000000
20
0.000000
30
0.000000
70
1
0
VERTEX
8
HOLE
10
127.200000
20
191.699485
30
0.000000
42
-1.000000
0
VERTEX
8
HOLE
10
128.000000
20
191.699485
30
0.000000
42
-1.000000
0
SEQEND
8
HOLE
0
POLYLINE
8
HOLE
66
1
10
0.000000
20
0.000000
30
0.000000
70
1
0
VERTEX
8
HOLE
10
128.600000
20
191.699485
30
0.000000
42
-1.000000
0
VERTEX
8
HOLE
10
129.400000
20
191.699485
30
0.000000
42
-1.000000
0
SEQEND
8
HOLE
0
POLYLINE
8
HOLE
66
1
10
0.000000
20
0.000000
30
0.000000
70
1
0
VERTEX
8
HOLE
10
130.000000
20
191.699485
30
0.000000
42
-1.000000
0
VERTEX
8
HOLE
10
130.800000
20
191.699485
30
0.000000
42
-1.000000
0
SEQEND
8
HOLE
0
POLYLINE
8
HOLE
66
1
10
0.000000
20
0.000000
30
0.000000
70
1
0
VERTEX
8
HOLE
10
131.400000
20
191.699485
30
0.000000
42
-1.000000
0
VERTEX
8
HOLE
10
132.200000
20
191.699485
30
0.000000
42
-1.000000
0
SEQEND
8
HOLE
0
POLYLINE
8
HOLE
66
1
10
0.000000
20
0.000000
30
0.000000
70
1
0
VERTEX
8
HOLE
10
132.800000
20
191.699485
30
0.000000
42
-1.000000
0
VERTEX
8
HOLE
10
133.600000
20
191.699485
30
0.000000
42
-1.000000
0
SEQEND
8
HOLE
0
POLYLINE
8
HOLE
66
1
10
0.000000
20
0.000000
30
0.000000
70
1
0
VERTEX
8
HOLE
10
134.200000
20
191.699485
30
0.000000
42
-1.000000
0
VERTEX
8
HOLE
10
135.000000
20
191.699485
30
0.000000
42
-1.000000
0
SEQEND
8
HOLE
0
POLYLINE
8
HOLE
66
1
10
0.000000
20
0.000000
30
0.000000
70
1
0
VERTEX
8
HOLE
10
109.700000
20
192.911920
30
0.000000
42
-1.000000
0
VERTEX
8
HOLE
10
110.500000
20
192.911920
30
0.000000
42
-1.000000
0
SEQEND
8
HOLE
0
POLYLINE
8
HOLE
66
1
10
0.000000
20
0.000000
30
0.000000
70
1
0
VERTEX
8
HOLE
10
111.100000
20
192.911920
30
0.000000
42
-1.000000
0
VERTEX
8
HOLE
10
111.900000
20
192.911920
30
0.000000
42
-1.000000
0
SEQEND
8
HOLE
0
POLYLINE
8
HOLE
66
1
10
0.000000
20
0.000000
30
0.000000
70
1
0
VERTEX
8
HOLE
10
112.500000
20
192.911920
30
0.000000
42
-1.000000
0
VERTEX
8
HOLE
10
113.300000
20
192.911920
30
0.000000
42
-1.000000
0
SEQEND
8
HOLE
0
POLYLINE
8
HOLE
66
1
10
0.000000
20
0.000000
30
0.000000
70
1
0
VERTEX
8
HOLE
10
113.900000
20
192.911920
30
0.000000
42
-1.000000
0
VERTEX
8
HOLE
10
114.700000
20
192.911920
30
0.000000
42
-1.000000
0
SEQEND
8
HOLE
0
POLYLINE
8
HOLE
66
1
10
0.000000
20
0.000000
30
0.000000
70
1
0
VERTEX
8
HOLE
10
115.300000
20
192.911920
30
0.000000
42
-1.000000
0
VERTEX
8
HOLE
10
116.100000
20
192.911920
30
0.000000
42
-1.000000
0
SEQEND
8
HOLE
0
POLYLINE
8
HOLE
66
1
10
0.000000
20
0.000000
30
0.000000
70
1
0
VERTEX
8
HOLE
10
116.700000
20
192.911920
30
0.000000
42
-1.000000
0
VERTEX
8
HOLE
10
117.500000
20
192.911920
30
0.000000
42
-1.000000
0
SEQEND
8
HOLE
0
POLYLINE
8
HOLE
66
1
10
0.000000
20
0.000000
30
0.000000
70
1
0
VERTEX
8
HOLE
10
118.100000
20
192.911920
30
0.000000
42
-1.000000
0
VERTEX
8
HOLE
10
118.900000
20
192.911920
30
0.000000
42
-1.000000
0
SEQEND
8
HOLE
0
POLYLINE
8
HOLE
66
1
10
0.000000
20
0.000000
30
0.000000
70
1
0
VERTEX
8
HOLE
10
119.500000
20
192.911920
30
0.000000
42
-1.000000
0
VERTEX
8
HOLE
10
120.300000
20
192.911920
30
0.000000
42
-1.000000
0
SEQEND
8
HOLE
0
POLYLINE
8
HOLE
66
1
10
0.000000
20
0.000000
30
0.000000
70
1
0
VERTEX
8
HOLE
10
120.900000
20
192.911920
30
0.000000
42
-1.000000
0
VERTEX
8
HOLE
10
121.700000
20
192.911920
30
0.000000
42
-1.000000
0
SEQEND
8
HOLE
0
POLYLINE
8
HOLE
66
1
10
0.000000
20
0.000000
30
0.000000
70
1
0
VERTEX
8
HOLE
10
122.300000
20
192.911920
30
0.000000
42
-1.000000
0
VERTEX
8
HOLE
10
123.100000
20
192.911920
30
0.000000
42
-1.000000
0
SEQEND
8
HOLE
0
POLYLINE
8
HOLE
66
1
10
0.000000
20
0.000000
30
0.000000
70
1
0
VERTEX
8
HOLE
10
123.700000
20
192.911920
30
0.000000
42
-1.000000
0
VERTEX
8
HOLE
10
124.500000
20
192.911920
30
0.000000
42
-1.000000
0
SEQEND
8
HOLE
0
POLYLINE
8
HOLE
66
1
10
0.000000
20
0.000000
30
0.000000
70
1
0
VERTEX
8
HOLE
10
125.100000
20
192.911920
30
0.000000
42
-1.000000
0
VERTEX
8
HOLE
10
125.900000
20
192.911920
30
0.000000
42
-1.000000
0
SEQEND
8
HOLE
0
POLYLINE
8
HOLE
66
1
10
0.000000
20
0.000000
30
0.000000
70
1
0
VERTEX
8
HOLE
10
126.500000
20
192.911920
30
0.000000
42
-1.000000
0
VERTEX
8
HOLE
10
127.300000
20
192.911920
30
0.000000
42
-1.000000
0
SEQEND
8
HOLE
0
POLYLINE
8
HOLE
66
1
10
0.000000
20
0.000000
30
0.000000
70
1
0
VERTEX
8
HOLE
10
127.900000
20
192.911920
30
0.000000
42
-1.000000
0
VERTEX
8
HOLE
10
128.700000
20
192.911920
30
0.000000
42
-1.000000
0
SEQEND
8
HOLE
0
POLYLINE
8
HOLE
66
1
10
0.000000
20
0.000000
30
0.000000
70
1
0
VERTEX
8
HOLE
10
129.300000
20
192.911920
30
0.000000
42
-1.000000
0
VERTEX
8
HOLE
10
130.100000
20
192.911920
30
0.000000
42
-1.000000
0
SEQEND
8
HOLE
0
POLYLINE
8
HOLE
66
1
10
0.000000
20
0.000000
30
0.000000
70
1
0
VERTEX
8
HOLE
10
130.700000
20
192.911920
30
0.000000
42
-1.000000
0
VERTEX
8
HOLE
10
131.500000
20
192.911920
30
0.000000
42
-1.000000
0
SEQEND
8
HOLE
0
POLYLINE
8
HOLE
66
1
10
0.000000
20
0.000000
30
0.000000
70
1
0
VERTEX
8
HOLE
10
132.100000
20
192.911920
30
0.000000
42
-1.000000
0
VERTEX
8
HOLE
10
132.900000
20
192.911920
30
0.000000
42
-1.000000
0
SEQEND
8
HOLE
0
POLYLINE
8
HOLE
66
1
10
0.000000
20
0.000000
30
0.000000
70
1
0
VERTEX
8
HOLE
10
133.500000
20
192.911920
30
0.000000
42
-1.000000
0
VERTEX
8
HOLE
10
134.300000
20
192.911920
30
0.000000
42
-1.000000
0
SEQEND
8
HOLE
0
POLYLINE
8
HOLE
66
1
10
0.000000
20
0.000000
30
0.000000
70
1
0
VERTEX
8
HOLE
10
134.900000
20
192.911920
30
0.000000
42
-1.000000
0
VERTEX
8
HOLE
10
135.700000
20
192.911920
30
0.000000
42
-1.000000
0
SEQEND
8
HOLE
0
POLYLINE
8
HOLE
66
1
10
0.000000
20
0.000000
30
0.000000
70
1
0
VERTEX
8
HOLE
10
109.000000
20
194.124356
30
0.000000
42
-1.000000
0
VERTEX
8
HOLE
10
109.800000
20
194.124356
30
0.000000
42
-1.000000
0
SEQEND
8
HOLE
0
POLYLINE
8
HOLE
66
1
10
0.000000
20
0.000000
30
0.000000
70
1
0
VERTEX
8
HOLE
10
110.400000
20
194.124356
30
0.000000
42
-1.000000
0
VERTEX
8
HOLE
10
111.200000
20
194.124356
30
0.000000
42
-1.000000
0
SEQEND
8
HOLE
0
POLYLINE
8
HOLE
66
1
10
0.000000
20
0.000000
30
0.000000
70
1
0
VERTEX
8
HOLE
10
111.800000
20
194.124356
30
0.000000
42
-1.000000
0
VERTEX
8
HOLE
10
112.600000
20
194.124356
30
0.000000
42
-1.000000
0
SEQEND
8
HOLE
0
POLYLINE
8
HOLE
66
1
10
0.000000
20
0.000000
30
0.000000
70
1
0
VERTEX
8
HOLE
10
113.200000
20
194.124356
30
0.000000
42
-1.000000
0
VERTEX
8
HOLE
10
114.000000
20
194.124356
30
0.000000
42
-1.000000
0
SEQEND
8
HOLE
0
POLYLINE
8
HOLE
66
1
10
0.000000
20
0.000000
30
0.000000
70
1
0
VERTEX
8
HOLE
10
114.600000
20
194.124356
30
0.000000
42
-1.000000
0
VERTEX
8
HOLE
10
115.400000
20
194.124356
30
0.000000
42
-1.000000
0
SEQEND
8
HOLE
0
POLYLINE
8
HOLE
66
1
10
0.000000
20
0.000000
30
0.000000
70
1
0
VERTEX
8
HOLE
10
116.000000
20
194.124356
30
0.000000
42
-1.000000
0
VERTEX
8
HOLE
10
116.800000
20
194.124356
30
0.000000
42
-1.000000
0
SEQEND
8
HOLE
0
POLYLINE
8
HOLE
66
1
10
0.000000
20
0.000000
30
0.000000
70
1
0
VERTEX
8
HOLE
10
117.400000
20
194.124356
30
0.000000
42
-1.000000
0
VERTEX
8
HOLE
10
118.200000
20
194.124356
30
0.000000
42
-1.000000
0
SEQEND
8
HOLE
0
POLYLINE
8
HOLE
66
1
10
0.000000
20
0.000000
30
0.000000
70
1
0
VERTEX
8
HOLE
10
118.800000
20
194.124356
30
0.000000
42
-1.000000
0
VERTEX
8
HOLE
10
119.600000
20
194.124356
30
0.000000
42
-1.000000
0
SEQEND
8
HOLE
0
POLYLINE
8
HOLE
66
1
10
0.000000
20
0.000000
30
0.000000
70
1
0
VERTEX
8
HOLE
10
120.200000
20
194.124356
30
0.000000
42
-1.000000
0
VERTEX
8
HOLE
10
121.000000
20
194.124356
30
0.000000
42
-1.000000
0
SEQEND
8
HOLE
0
POLYLINE
8
HOLE
66
1
10
0.000000
20
0.000000
30
0.000000
70
1
0
VERTEX
8
HOLE
10
121.600000
20
194.124356
30
0.000000
42
-1.000000
0
VERTEX
8
HOLE
10
122.400000
20
194.124356
30
0.000000
42
-1.000000
0
SEQEND
8
HOLE
0
POLYLINE
8
HOLE
66
1
10
0.000000
20
0.000000
30
0.000000
70
1
0
VERTEX
8
HOLE
10
123.000000
20
194.124356
30
0.000000
42
-1.000000
0
VERTEX
8
HOLE
10
123.800000
20
194.124356
30
0.000000
42
-1.000000
0
SEQEND
8
HOLE
0
POLYLINE
8
HOLE
66
1
10
0.000000
20
0.000000
30
0.000000
70
1
0
VERTEX
8
HOLE
10
124.400000
20
194.124356
30
0.000000
42
-1.000000
0
VERTEX
8
HOLE
10
125.200000
20
194.124356
30
0.000000
42
-1.000000
0
SEQEND
8
HOLE
0
POLYLINE
8
HOLE
66
1
10
0.000000
20
0.000000
30
0.000000
70
1
0
VERTEX
8
HOLE
10
125.800000
20
194.124356
30
0.000000
42
-1.000000
0
VERTEX
8
HOLE
10
126.600000
20
194.124356
30
0.000000
42
-1.000000
0
SEQEND
8
HOLE
0
POLYLINE
8
HOLE
66
1
10
0.000000
20
0.000000
30
0.000000
70
1
0
VERTEX
8
HOLE
10
127.200000
20
194.124356
30
0.000000
42
-1.000000
0
VERTEX
8
HOLE
10
128.000000
20
194.124356
30
0.000000
42
-1.000000
0
SEQEND
8
HOLE
0
POLYLINE
8
HOLE
66
1
10
0.000000
20
0.000000
30
0.000000
70
1
0
VERTEX
8
HOLE
10
128.600000
20
194.124356
30
0.000000
42
-1.000000
0
VERTEX
8
HOLE
10
129.400000
20
194.124356
30
0.000000
42
-1.000000
0
SEQEND
8
HOLE
0
POLYLINE
8
HOLE
66
1
10
0.000000
20
0.000000
30
0.000000
70
1
0
VERTEX
8
HOLE
10
130.000000
20
194.124356
30
0.000000
42
-1.000000
0
VERTEX
8
HOLE
10
130.800000
20
194.124356
30
0.000000
42
-1.000000
0
SEQEND
8
HOLE
0
POLYLINE
8
HOLE
66
1
10
0.000000
20
0.000000
30
0.000000
70
1
0
VERTEX
8
HOLE
10
131.400000
20
194.124356
30
0.000000
42
-1.000000
0
VERTEX
8
HOLE
10
132.200000
20
194.124356
30
0.000000
42
-1.000000
0
SEQEND
8
HOLE
0
POLYLINE
8
HOLE
66
1
10
0.000000
20
0.000000
30
0.000000
70
1
0
VERTEX
8
HOLE
10
132.800000
20
194.124356
30
0.000000
42
-1.000000
0
VERTEX
8
HOLE
10
133.600000
20
194.124356
30
0.000000
42
-1.000000
0
SEQEND
8
HOLE
0
POLYLINE
8
HOLE
66
1
10
0.000000
20
0.000000
30
0.000000
70
1
0
VERTEX
8
HOLE
10
134.200000
20
194.124356
30
0.000000
42
-1.000000
0
VERTEX
8
HOLE
10
135.000000
20
194.124356
30
0.000000
42
-1.000000
0
SEQEND
8
HOLE
0
POLYLINE
8
HOLE
66
1
10
0.000000
20
0.000000
30
0.000000
70
1
0
VERTEX
8
HOLE
10
109.700000
20
195.336791
30
0.000000
42
-1.000000
0
VERTEX
8
HOLE
10
110.500000
20
195.336791
30
0.000000
42
-1.000000
0
SEQEND
8
HOLE
0
POLYLINE
8
HOLE
66
1
10
0.000000
20
0.000000
30
0.000000
70
1
0
VERTEX
8
HOLE
10
111.100000
20
195.336791
30
0.000000
42
-1.000000
0
VERTEX
8
HOLE
10
111.900000
20
195.336791
30
0.000000
42
-1.000000
0
SEQEND
8
HOLE
0
POLYLINE
8
HOLE
66
1
10
0.000000
20
0.000000
30
0.000000
70
1
0
VERTEX
8
HOLE
10
112.500000
20
195.336791
30
0.000000
42
-1.000000
0
VERTEX
8
HOLE
10
113.300000
20
195.336791
30
0.000000
42
-1.000000
0
SEQEND
8
HOLE
0
POLYLINE
8
HOLE
66
1
10
0.000000
20
0.000000
30
0.000000
70
1
0
VERTEX
8
HOLE
10
113.900000
20
195.336791
30
0.000000
42
-1.000000
0
VERTEX
8
HOLE
10
114.700000
20
195.336791
30
0.000000
42
-1.000000
0
SEQEND
8
HOLE
0
POLYLINE
8
HOLE
66
1
10
0.000000
20
0.000000
30
0.000000
70
1
0
VERTEX
8
HOLE
10
115.300000
20
195.336791
30
0.000000
42
-1.000000
0
VERTEX
8
HOLE
10
116.100000
20
195.336791
30
0.000000
42
-1.000000
0
SEQEND
8
HOLE
0
POLYLINE
8
HOLE
66
1
10
0.000000
20
0.000000
30
0.000000
70
1
0
VERTEX
8
HOLE
10
116.700000
20
195.336791
30
0.000000
42
-1.000000
0
VERTEX
8
HOLE
10
117.500000
20
195.336791
30
0.000000
42
-1.000000
0
SEQEND
8
HOLE
0
POLYLINE
8
HOLE
66
1
10
0.000000
20
0.000000
30
0.000000
70
1
0
VERTEX
8
HOLE
10
118.100000
20
195.336791
30
0.000000
42
-1.000000
0
VERTEX
8
HOLE
10
118.900000
20
195.336791
30
0.000000
42
-1.000000
0
SEQEND
8
HOLE
0
POLYLINE
8
HOLE
66
1
10
0.000000
20
0.000000
30
0.000000
70
1
0
VERTEX
8
HOLE
10
119.500000
20
195.336791
30
0.000000
42
-1.000000
0
VERTEX
8
HOLE
10
120.300000
20
195.336791
30
0.000000
42
-1.000000
0
SEQEND
8
HOLE
0
POLYLINE
8
HOLE
66
1
10
0.000000
20
0.000000
30
0.000000
70
1
0
VERTEX
8
HOLE
10
120.900000
20
195.336791
30
0.000000
42
-1.000000
0
VERTEX
8
HOLE
10
121.700000
20
195.336791
30
0.000000
42
-1.000000
0
SEQEND
8
HOLE
0
POLYLINE
8
HOLE
66
1
10
0.000000
20
0.000000
30
0.000000
70
1
0
VERTEX
8
HOLE
10
122.300000
20
195.336791
30
0.000000
42
-1.000000
0
VERTEX
8
HOLE
10
123.100000
20
195.336791
30
0.000000
42
-1.000000
0
SEQEND
8
HOLE
0
POLYLINE
8
HOLE
66
1
10
0.000000
20
0.000000
30
0.000000
70
1
0
VERTEX
8
HOLE
10
123.700000
20
195.336791
30
0.000000
42
-1.000000
0
VERTEX
8
HOLE
10
124.500000
20
195.336791
30
0.000000
42
-1.000000
0
SEQEND
8
HOLE
0
POLYLINE
8
HOLE
66
1
10
0.000000
20
0.000000
30
0.000000
70
1
0
VERTEX
8
HOLE
10
125.100000
20
195.336791
30
0.000000
42
-1.000000
0
VERTEX
8
HOLE
10
125.900000
20
195.336791
30
0.000000
42
-1.000000
0
SEQEND
8
HOLE
0
POLYLINE
8
HOLE
66
1
10
0.000000
20
0.000000
30
0.000000
70
1
0
VERTEX
8
HOLE
10
126.500000
20
195.336791
30
0.000000
42
-1.000000
0
VERTEX
8
HOLE
10
127.300000
20
195.336791
30
0.000000
42
-1.000000
0
SEQEND
8
HOLE
0
POLYLINE
8
HOLE
66
1
10
0.000000
20
0.000000
30
0.000000
70
1
0
VERTEX
8
HOLE
10
127.900000
20
195.336791
30
0.000000
42
-1.000000
0
VERTEX
8
HOLE
10
128.700000
20
195.336791
30
0.000000
42
-1.000000
0
SEQEND
8
HOLE
0
POLYLINE
8
HOLE
66
1
10
0.000000
20
0.000000
30
0.000000
70
1
0
VERTEX
8
HOLE
10
129.300000
20
195.336791
30
0.000000
42
-1.000000
0
VERTEX
8
HOLE
10
130.100000
20
195.336791
30
0.000000
42
-1.000000
0
SEQEND
8
HOLE
0
POLYLINE
8
HOLE
66
1
10
0.000000
20
0.000000
30
0.000000
70
1
0
VERTEX
8
HOLE
10
130.700000
20
195.336791
30
0.000000
42
-1.000000
0
VERTEX
8
HOLE
10
131.500000
20
195.336791
30
0.000000
42
-1.000000
0
SEQEND
8
HOLE
0
POLYLINE
8
HOLE
66
1
10
0.000000
20
0.000000
30
0.000000
70
1
0
VERTEX
8
HOLE
10
132.100000
20
195.336791
30
0.000000
42
-1.000000
0
VERTEX
8
HOLE
10
132.900000
20
195.336791
30
0.000000
42
-1.000000
0
SEQEND
8
HOLE
0
POLYLINE
8
HOLE
66
1
10
0.000000
20
0.000000
30
0.000000
70
1
0
VERTEX
8
HOLE
10
133.500000
20
195.336791
30
0.000000
42
-1.000000
0
VERTEX
8
HOLE
10
134.300000
20
195.336791
30
0.000000
42
-1.000000
0
SEQEND
8
HOLE
0
POLYLINE
8
HOLE
66
1
10
0.000000
20
0.000000
30
0.000000
70
1
0
VERTEX
8
HOLE
10
110.400000
20
196.549227
30
0.000000
42
-1.000000
0
VERTEX
8
HOLE
10
111.200000
20
196.549227
30
0.000000
42
-1.000000
0
SEQEND
8
HOLE
0
POLYLINE
8
HOLE
66
1
10
0.000000
20
0.000000
30
0.000000
70
1
0
VERTEX
8
HOLE
10
111.800000
20
196.549227
30
0.000000
42
-1.000000
0
VERTEX
8
HOLE
10
112.600000
20
196.549227
30
0.000000
42
-1.000000
0
SEQEND
8
HOLE
0
POLYLINE
8
HOLE
66
1
10
0.000000
20
0.000000
30
0.000000
70
1
0
VERTEX
8
HOLE
10
113.200000
20
196.549227
30
0.000000
42
-1.000000
0
VERTEX
8
HOLE
10
114.000000
20
196.549227
30
0.000000
42
-1.000000
0
SEQEND
8
HOLE
0
POLYLINE
8
HOLE
66
1
10
0.000000
20
0.000000
30
0.000000
70
1
0
VERTEX
8
HOLE
10
114.600000
20
196.549227
30
0.000000
42
-1.000000
0
VERTEX
8
HOLE
10
115.400000
20
196.549227
30
0.000000
42
-1.000000
0
SEQEND
8
HOLE
0
POLYLINE
8
HOLE
66
1
10
0.000000
20
0.000000
30
0.000000
70
1
0
VERTEX
8
HOLE
10
116.000000
20
196.549227
30
0.000000
42
-1.000000
0
VERTEX
8
HOLE
10
116.800000
20
196.549227
30
0.000000
42
-1.000000
0
SEQEND
8
HOLE
0
POLYLINE
8
HOLE
66
1
10
0.000000
20
0.000000
30
0.000000
70
1
0
VERTEX
8
HOLE
10
117.400000
20
196.549227
30
0.000000
42
-1.000000
0
VERTEX
8
HOLE
10
118.200000
20
196.549227
30
0.000000
42
-1.000000
0
SEQEND
8
HOLE
0
POLYLINE
8
HOLE
66
1
10
0.000000
20
0.000000
30
0.000000
70
1
0
VERTEX
8
HOLE
10
118.800000
20
196.549227
30
0.000000
42
-1.000000
0
VERTEX
8
HOLE
10
119.600000
20
196.549227
30
0.000000
42
-1.000000
0
SEQEND
8
HOLE
0
POLYLINE
8
HOLE
66
1
10
0.000000
20
0.000000
30
0.000000
70
1
0
VERTEX
8
HOLE
10
120.200000
20
196.549227
30
0.000000
42
-1.000000
0
VERTEX
8
HOLE
10
121.000000
20
196.549227
30
0.000000
42
-1.000000
0
SEQEND
8
HOLE
0
POLYLINE
8
HOLE
66
1
10
0.000000
20
0.000000
30
0.000000
70
1
0
VERTEX
8
HOLE
10
121.600000
20
196.549227
30
0.000000
42
-1.000000
0
VERTEX
8
HOLE
10
122.400000
20
196.549227
30
0.000000
42
-1.000000
0
SEQEND
8
HOLE
0
POLYLINE
8
HOLE
66
1
10
0.000000
20
0.000000
30
0.000000
70
1
0
VERTEX
8
HOLE
10
123.000000
20
196.549227
30
0.000000
42
-1.000000
0
VERTEX
8
HOLE
10
123.800000
20
196.549227
30
0.000000
42
-1.000000
0
SEQEND
8
HOLE
0
POLYLINE
8
HOLE
66
1
10
0.000000
20
0.000000
30
0.000000
70
1
0
VERTEX
8
HOLE
10
124.400000
20
196.549227
30
0.000000
42
-1.000000
0
VERTEX
8
HOLE
10
125.200000
20
196.549227
30
0.000000
42
-1.000000
0
SEQEND
8
HOLE
0
POLYLINE
8
HOLE
66
1
10
0.000000
20
0.000000
30
0.000000
70
1
0
VERTEX
8
HOLE
10
125.800000
20
196.549227
30
0.000000
42
-1.000000
0
VERTEX
8
HOLE
10
126.600000
20
196.549227
30
0.000000
42
-1.000000
0
SEQEND
8
HOLE
0
POLYLINE
8
HOLE
66
1
10
0.000000
20
0.000000
30
0.000000
70
1
0
VERTEX
8
HOLE
10
127.200000
20
196.549227
30
0.000000
42
-1.000000
0
VERTEX
8
HOLE
10
128.000000
20
196.549227
30
0.000000
42
-1.000000
0
SEQEND
8
HOLE
0
POLYLINE
8
HOLE
66
1
10
0.000000
20
0.000000
30
0.000000
70
1
0
VERTEX
8
HOLE
10
128.600000
20
196.549227
30
0.000000
42
-1.000000
0
VERTEX
8
HOLE
10
129.400000
20
196.549227
30
0.000000
42
-1.000000
0
SEQEND
8
HOLE
0
POLYLINE
8
HOLE
66
1
10
0.000000
20
0.000000
30
0.000000
70
1
0
VERTEX
8
HOLE
10
130.000000
20
196.549227
30
0.000000
42
-1.000000
0
VERTEX
8
HOLE
10
130.800000
20
196.549227
30
0.000000
42
-1.000000
0
SEQEND
8
HOLE
0
POLYLINE
8
HOLE
66
1
10
0.000000
20
0.000000
30
0.000000
70
1
0
VERTEX
8
HOLE
10
131.400000
20
196.549227
30
0.000000
42
-1.000000
0
VERTEX
8
HOLE
10
132.200000
20
196.549227
30
0.000000
42
-1.000000
0
SEQEND
8
HOLE
0
POLYLINE
8
HOLE
66
1
10
0.000000
20
0.000000
30
0.000000
70
1
0
VERTEX
8
HOLE
10
132.800000
20
196.549227
30
0.000000
42
-1.000000
0
VERTEX
8
HOLE
10
133.600000
20
196.549227
30
0.000000
42
-1.000000
0
SEQEND
8
HOLE
0
POLYLINE
8
HOLE
66
1
10
0.000000
20
0.000000
30
0.000000
70
1
0
VERTEX
8
HOLE
10
112.500000
20
197.761662
30
0.000000
42
-1.000000
0
VERTEX
8
HOLE
10
113.300000
20
197.761662
30
0.000000
42
-1.000000
0
SEQEND
8
HOLE
0
POLYLINE
8
HOLE
66
1
10
0.000000
20
0.000000
30
0.000000
70
1
0
VERTEX
8
HOLE
10
113.900000
20
197.761662
30
0.000000
42
-1.000000
0
VERTEX
8
HOLE
10
114.700000
20
197.761662
30
0.000000
42
-1.000000
0
SEQEND
8
HOLE
0
POLYLINE
8
HOLE
66
1
10
0.000000
20
0.000000
30
0.000000
70
1
0
VERTEX
8
HOLE
10
115.300000
20
197.761662
30
0.000000
42
-1.000000
0
VERTEX
8
HOLE
10
116.100000
20
197.761662
30
0.000000
42
-1.000000
0
SEQEND
8
HOLE
0
POLYLINE
8
HOLE
66
1
10
0.000000
20
0.000000
30
0.000000
70
1
0
VERTEX
8
HOLE
10
116.700000
20
197.761662
30
0.000000
42
-1.000000
0
VERTEX
8
HOLE
10
117.500000
20
197.761662
30
0.000000
42
-1.000000
0
SEQEND
8
HOLE
0
POLYLINE
8
HOLE
66
1
10
0.000000
20
0.000000
30
0.000000
70
1
0
VERTEX
8
HOLE
10
118.100000
20
197.761662
30
0.000000
42
-1.000000
0
VERTEX
8
HOLE
10
118.900000
20
197.761662
30
0.000000
42
-1.000000
0
SEQEND
8
HOLE
0
POLYLINE
8
HOLE
66
1
10
0.000000
20
0.000000
30
0.000000
70
1
0
VERTEX
8
HOLE
10
119.500000
20
197.761662
30
0.000000
42
-1.000000
0
VERTEX
8
HOLE
10
120.300000
20
197.761662
30
0.000000
42
-1.000000
0
SEQEND
8
HOLE
0
POLYLINE
8
HOLE
66
1
10
0.000000
20
0.000000
30
0.000000
70
1
0
VERTEX
8
HOLE
10
120.900000
20
197.761662
30
0.000000
42
-1.000000
0
VERTEX
8
HOLE
10
121.700000
20
197.761662
30
0.000000
42
-1.000000
0
SEQEND
8
HOLE
0
POLYLINE
8
HOLE
66
1
10
0.000000
20
0.000000
30
0.000000
70
1
0
VERTEX
8
HOLE
10
122.300000
20
197.761662
30
0.000000
42
-1.000000
0
VERTEX
8
HOLE
10
123.100000
20
197.761662
30
0.000000
42
-1.000000
0
SEQEND
8
HOLE
0
POLYLINE
8
HOLE
66
1
10
0.000000
20
0.000000
30
0.000000
70
1
0
VERTEX
8
HOLE
10
123.700000
20
197.761662
30
0.000000
42
-1.000000
0
VERTEX
8
HOLE
10
124.500000
20
197.761662
30
0.000000
42
-1.000000
0
SEQEND
8
HOLE
0
POLYLINE
8
HOLE
66
1
10
0.000000
20
0.000000
30
0.000000
70
1
0
VERTEX
8
HOLE
10
125.100000
20
197.761662
30
0.000000
42
-1.000000
0
VERTEX
8
HOLE
10
125.900000
20
197.761662
30
0.000000
42
-1.000000
0
SEQEND
8
HOLE
0
POLYLINE
8
HOLE
66
1
10
0.000000
20
0.000000
30
0.000000
70
1
0
VERTEX
8
HOLE
10
126.500000
20
197.761662
30
0.000000
42
-1.000000
0
VERTEX
8
HOLE
10
127.300000
20
197.761662
30
0.000000
42
-1.000000
0
SEQEND
8
HOLE
0
POLYLINE
8
HOLE
66
1
10
0.000000
20
0.000000
30
0.000000
70
1
0
VERTEX
8
HOLE
10
127.900000
20
197.761662
30
0.000000
42
-1.000000
0
VERTEX
8
HOLE
10
128.700000
20
197.761662
30
0.000000
42
-1.000000
0
SEQEND
8
HOLE
0
POLYLINE
8
HOLE
66
1
10
0.000000
20
0.000000
30
0.000000
70
1
0
VERTEX
8
HOLE
10
129.300000
20
197.761662
30
0.000000
42
-1.000000
0
VERTEX
8
HOLE
10
130.100000
20
197.761662
30
0.000000
42
-1.000000
0
SEQEND
8
HOLE
0
POLYLINE
8
HOLE
66
1
10
0.000000
20
0.000000
30
0.000000
70
1
0
VERTEX
8
HOLE
10
130.700000
20
197.761662
30
0.000000
42
-1.000000
0
VERTEX
8
HOLE
10
131.500000
20
197.761662
30
0.000000
42
-1.000000
0
SEQEND
8
HOLE
0
POLYLINE
8
HOLE
66
1
10
0.000000
20
0.000000
30
0.000000
70
1
0
VERTEX
8
HOLE
10
114.600000
20
198.974098
30
0.000000
42
-1.000000
0
VERTEX
8
HOLE
10
115.400000
20
198.974098
30
0.000000
42
-1.000000
0
SEQEND
8
HOLE
0
POLYLINE
8
HOLE
66
1
10
0.000000
20
0.000000
30
0.000000
70
1
0
VERTEX
8
HOLE
10
116.000000
20
198.974098
30
0.000000
42
-1.000000
0
VERTEX
8
HOLE
10
116.800000
20
198.974098
30
0.000000
42
-1.000000
0
SEQEND
8
HOLE
0
POLYLINE
8
HOLE
66
1
10
0.000000
20
0.000000
30
0.000000
70
1
0
VERTEX
8
HOLE
10
117.400000
20
198.974098
30
0.000000
42
-1.000000
0
VERTEX
8
HOLE
10
118.200000
20
198.974098
30
0.000000
42
-1.000000
0
SEQEND
8
HOLE
0
POLYLINE
8
HOLE
66
1
10
0.000000
20
0.000000
30
0.000000
70
1
0
VERTEX
8
HOLE
10
118.800000
20
198.974098
30
0.000000
42
-1.000000
0
VERTEX
8
HOLE
10
119.600000
20
198.974098
30
0.000000
42
-1.000000
0
SEQEND
8
HOLE
0
POLYLINE
8
HOLE
66
1
10
0.000000
20
0.000000
30
0.000000
70
1
0
VERTEX
8
HOLE
10
120.200000
20
198.974098
30
0.000000
42
-1.000000
0
VERTEX
8
HOLE
10
121.000000
20
198.974098
30
0.000000
42
-1.000000
0
SEQEND
8
HOLE
0
POLYLINE
8
HOLE
66
1
10
0.000000
20
0.000000
30
0.000000
70
1
0
VERTEX
8
HOLE
10
121.600000
20
198.974098
30
0.000000
42
-1.000000
0
VERTEX
8
HOLE
10
122.400000
20
198.974098
30
0.000000
42
-1.000000
0
SEQEND
8
HOLE
0
POLYLINE
8
HOLE
66
1
10
0.000000
20
0.000000
30
0.000000
70
1
0
VERTEX
8
HOLE
10
123.000000
20
198.974098
30
0.000000
42
-1.000000
0
VERTEX
8
HOLE
10
123.800000
20
198.974098
30
0.000000
42
-1.000000
0
SEQEND
8
HOLE
0
POLYLINE
8
HOLE
66
1
10
0.000000
20
0.000000
30
0.000000
70
1
0
VERTEX
8
HOLE
10
124.400000
20
198.974098
30
0.000000
42
-1.000000
0
VERTEX
8
HOLE
10
125.200000
20
198.974098
30
0.000000
42
-1.000000
0
SEQEND
8
HOLE
0
POLYLINE
8
HOLE
66
1
10
0.000000
20
0.000000
30
0.000000
70
1
0
VERTEX
8
HOLE
10
125.800000
20
198.974098
30
0.000000
42
-1.000000
0
VERTEX
8
HOLE
10
126.600000
20
198.974098
30
0.000000
42
-1.000000
0
SEQEND
8
HOLE
0
POLYLINE
8
HOLE
66
1
10
0.000000
20
0.000000
30
0.000000
70
1
0
VERTEX
8
HOLE
10
127.200000
20
198.974098
30
0.000000
42
-1.000000
0
VERTEX
8
HOLE
10
128.000000
20
198.974098
30
0.000000
42
-1.000000
0
SEQEND
8
HOLE
0
POLYLINE
8
HOLE
66
1
10
0.000000
20
0.000000
30
0.000000
70
1
0
VERTEX
8
HOLE
10
128.600000
20
198.974098
30
0.000000
42
-1.000000
0
VERTEX
8
HOLE
10
129.400000
20
198.974098
30
0.000000
42
-1.000000
0
SEQEND
8
HOLE
0
POLYLINE
8
HOLE
66
1
10
0.000000
20
0.000000
30
0.000000
70
1
0
VERTEX
8
HOLE
10
119.500000
20
200.186533
30
0.000000
42
-1.000000
0
VERTEX
8
HOLE
10
120.300000
20
200.186533
30
0.000000
42
-1.000000
0
SEQEND
8
HOLE
0
POLYLINE
8
HOLE
66
1
10
0.000000
20
0.000000
30
0.000000
70
1
0
VERTEX
8
HOLE
10
120.900000
20
200.186533
30
0.000000
42
-1.000000
0
VERTEX
8
HOLE
10
121.700000
20
200.186533
30
0.000000
42
-1.000000
0
SEQEND
8
HOLE
0
POLYLINE
8
HOLE
66
1
10
0.000000
20
0.000000
30
0.000000
70
1
0
VERTEX
8
HOLE
10
122.300000
20
200.186533
30
0.000000
42
-1.000000
0
VERTEX
8
HOLE
10
123.100000
20
200.186533
30
0.000000
42
-1.000000
0
SEQEND
8
HOLE
0
POLYLINE
8
HOLE
66
1
10
0.000000
20
0.000000
30
0.000000
70
1
0
VERTEX
8
HOLE
10
123.700000
20
200.186533
30
0.000000
42
-1.000000
0
VERTEX
8
HOLE
10
124.500000
20
200.186533
30
0.000000
42
-1.000000
0
SEQEND
8
HOLE
0
POLYLINE
8
FRAME
66
1
10
0.000000
20
0.000000
30
0.000000
70
1
0
VERTEX
8
FRAME
10
10.000000
20
5.000000
30
0.000000
0
VERTEX
8
FRAME
10
415.000000
20
5.000000
30
0.000000
0
VERTEX
8
FRAME
10
415.000000
20
292.000000
30
0.000000
0
VERTEX
8
FRAME
10
10.000000
20
292.000000
30
0.000000
0
SEQEND
8
FRAME
0
POLYLINE
8
FRAME
66
1
10
0.000000
20
0.000000
30
0.000000
70
1
0
VERTEX
8
FRAME
10
237.000000
20
5.000000
30
0.000000
0
VERTEX
8
FRAME
10
415.000000
20
5.000000
30
0.000000
0
VERTEX
8
FRAME
10
415.000000
20
35.000000
30
0.000000
0
VERTEX
8
FRAME
10
237.000000
20
35.000000
30
0.000000
0
SEQEND
8
FRAME
0
LINE
8
FRAME
10
237.000000
20
22.000000
30
0.000000
11
415.000000
21
22.000000
31
0.000000
0
LINE
8
FRAME
10
355.000000
20
5.000000
30
0.000000
11
355.000000
21
35.000000
31
0.000000
0
TEXT
8
FRAME
10
240.000000
20
28.000000
30
0.000000
40
6.000000
1
G-02 타공 바닥판
50
0.000000
7
STANDARD
0
TEXT
8
TEXT
10
240.000000
20
23.600000
30
0.000000
40
2.400000
1
Ø300 × t1.5, Ø2 천공 개공률 30 %
50
0.000000
7
STANDARD
0
TEXT
8
TEXT
10
240.000000
20
18.600000
30
0.000000
40
1.900000
1
도면번호
50
0.000000
7
STANDARD
0
TEXT
8
TEXT
10
240.000000
20
14.600000
30
0.000000
40
2.700000
1
MP50-C-G-02
50
0.000000
7
STANDARD
0
TEXT
8
TEXT
10
279.000000
20
18.600000
30
0.000000
40
1.900000
1
축척
50
0.000000
7
STANDARD
0
TEXT
8
TEXT
10
279.000000
20
14.600000
30
0.000000
40
2.700000
1
1:2.5
50
0.000000
7
STANDARD
0
TEXT
8
TEXT
10
318.000000
20
18.600000
30
0.000000
40
1.900000
1
단위
50
0.000000
7
STANDARD
0
TEXT
8
TEXT
10
318.000000
20
14.600000
30
0.000000
40
2.700000
1
mm
50
0.000000
7
STANDARD
0
TEXT
8
TEXT
10
240.000000
20
11.000000
30
0.000000
40
1.900000
1
Rev
50
0.000000
7
STANDARD
0
TEXT
8
TEXT
10
240.000000
20
7.000000
30
0.000000
40
2.700000
1
R1
50
0.000000
7
STANDARD
0
TEXT
8
TEXT
10
279.000000
20
11.000000
30
0.000000
40
1.900000
1
날짜
50
0.000000
7
STANDARD
0
TEXT
8
TEXT
10
279.000000
20
7.000000
30
0.000000
40
2.700000
1
2026-09-10
50
0.000000
7
STANDARD
0
TEXT
8
TEXT
10
318.000000
20
11.000000
30
0.000000
40
1.900000
1
시트
50
0.000000
7
STANDARD
0
TEXT
8
TEXT
10
318.000000
20
7.000000
30
0.000000
40
2.700000
1
26/33
50
0.000000
7
STANDARD
0
TEXT
8
FRAME
10
358.000000
20
29.000000
30
0.000000
40
2.700000
1
DYNAMIC INDUSTRY
50
0.000000
7
STANDARD
0
TEXT
8
TEXT
10
358.000000
20
24.600000
30
0.000000
40
2.000000
1
MP-50 염수 밀도분리 파일럿
50
0.000000
7
STANDARD
0
TEXT
8
TEXT
10
358.000000
20
15.000000
30
0.000000
40
2.000000
1
아세이 G · 스키머 아세이
50
0.000000
7
STANDARD
0
TEXT
8
TEXT
10
358.000000
20
10.400000
30
0.000000
40
2.000000
1
설계 계산 자동생성 · 제3각법
50
0.000000
7
STANDARD
0
TEXT
8
FRAME
10
14.000000
20
262.000000
30
0.000000
40
4.600000
1
평면
50
0.000000
7
STANDARD
0
TEXT
8
TEXT
10
40.000000
20
262.000000
30
0.000000
40
2.400000
1
척도 1:2.5
50
0.000000
7
STANDARD
0
LINE
8
DIM
10
62.000000
20
122.000000
30
0.000000
11
62.000000
21
111.400000
31
0.000000
0
LINE
8
DIM
10
182.000000
20
122.000000
30
0.000000
11
182.000000
21
111.400000
31
0.000000
0
LINE
8
DIM
10
62.000000
20
113.000000
30
0.000000
11
182.000000
21
113.000000
31
0.000000
0
SOLID
8
DIM
10
62.000000
20
113.000000
30
0.000000
11
64.500000
21
112.200000
31
0.000000
12
64.500000
22
113.800000
32
0.000000
13
64.500000
23
113.800000
33
0.000000
0
SOLID
8
DIM
10
182.000000
20
113.000000
30
0.000000
11
179.500000
21
113.800000
31
0.000000
12
179.500000
22
112.200000
32
0.000000
13
179.500000
23
112.200000
33
0.000000
0
TEXT
8
DIM
10
122.000000
20
114.750000
30
0.000000
40
3.500000
1
300
50
0.000000
7
STANDARD
72
1
11
122.000000
21
114.750000
31
0.000000
0
LINE
8
DIM
10
62.000000
20
122.000000
30
0.000000
11
51.400000
21
122.000000
31
0.000000
0
LINE
8
DIM
10
62.000000
20
242.000000
30
0.000000
11
51.400000
21
242.000000
31
0.000000
0
LINE
8
DIM
10
53.000000
20
122.000000
30
0.000000
11
53.000000
21
242.000000
31
0.000000
0
SOLID
8
DIM
10
53.000000
20
122.000000
30
0.000000
11
53.800000
21
124.500000
31
0.000000
12
52.200000
22
124.500000
32
0.000000
13
52.200000
23
124.500000
33
0.000000
0
SOLID
8
DIM
10
53.000000
20
242.000000
30
0.000000
11
52.200000
21
239.500000
31
0.000000
12
53.800000
22
239.500000
32
0.000000
13
53.800000
23
239.500000
33
0.000000
0
TEXT
8
DIM
10
51.250000
20
182.000000
30
0.000000
40
3.500000
1
300
50
90.000000
7
STANDARD
72
1
11
51.250000
21
182.000000
31
0.000000
0
LINE
8
DIM
10
177.809313
20
204.029992
30
0.000000
11
198.000000
21
212.000000
31
0.000000
0
SOLID
8
DIM
10
177.809313
20
204.029992
30
0.000000
11
180.428435
21
204.203784
31
0.000000
12
179.840968
22
205.692033
32
0.000000
13
179.840968
23
205.692033
33
0.000000
0
LINE
8
DIM
10
198.000000
20
212.000000
30
0.000000
11
204.000000
21
212.000000
31
0.000000
0
TEXT
8
DIM
10
205.200000
20
213.050000
30
0.000000
40
3.500000
1
Ø300
50
0.000000
7
STANDARD
0
POLYLINE
8
CUT
66
1
10
0.000000
20
0.000000
30
0.000000
70
1
0
VERTEX
8
CUT
10
62.000000
20
86.800000
30
0.000000
0
VERTEX
8
CUT
10
182.000000
20
86.800000
30
0.000000
0
VERTEX
8
CUT
10
182.000000
20
88.000000
30
0.000000
0
VERTEX
8
CUT
10
62.000000
20
88.000000
30
0.000000
0
SEQEND
8
CUT
0
TEXT
8
FRAME
10
14.000000
20
94.000000
30
0.000000
40
4.600000
1
두께
50
0.000000
7
STANDARD
0
LINE
8
DIM
10
182.000000
20
86.800000
30
0.000000
11
192.600000
21
86.800000
31
0.000000
0
LINE
8
DIM
10
182.000000
20
88.000000
30
0.000000
11
192.600000
21
88.000000
31
0.000000
0
LINE
8
DIM
10
191.000000
20
86.800000
30
0.000000
11
191.000000
21
88.000000
31
0.000000
0
SOLID
8
DIM
10
191.000000
20
86.800000
30
0.000000
11
191.800000
21
89.300000
31
0.000000
12
190.200000
22
89.300000
32
0.000000
13
190.200000
23
89.300000
33
0.000000
0
SOLID
8
DIM
10
191.000000
20
88.000000
30
0.000000
11
190.200000
21
85.500000
31
0.000000
12
191.800000
22
85.500000
32
0.000000
13
191.800000
23
85.500000
33
0.000000
0
TEXT
8
DIM
10
189.250000
20
87.400000
30
0.000000
40
3.500000
1
t1.5
50
90.000000
7
STANDARD
72
1
11
189.250000
21
87.400000
31
0.000000
0
TEXT
8
FRAME
10
240.000000
20
268.000000
30
0.000000
40
4.600000
1
소재 · 마감
50
0.000000
7
STANDARD
0
POLYLINE
8
FRAME
66
1
10
0.000000
20
0.000000
30
0.000000
70
1
0
VERTEX
8
FRAME
10
240.000000
20
259.600000
30
0.000000
0
VERTEX
8
FRAME
10
412.000000
20
259.600000
30
0.000000
0
VERTEX
8
FRAME
10
412.000000
20
265.000000
30
0.000000
0
VERTEX
8
FRAME
10
240.000000
20
265.000000
30
0.000000
0
SEQEND
8
FRAME
0
TEXT
8
FRAME
10
241.200000
20
261.495000
30
0.000000
40
2.300000
1
항목
50
0.000000
7
STANDARD
0
LINE
8
FRAME
10
264.000000
20
259.600000
30
0.000000
11
264.000000
21
265.000000
31
0.000000
0
TEXT
8
FRAME
10
265.200000
20
261.495000
30
0.000000
40
2.300000
1
값
50
0.000000
7
STANDARD
0
POLYLINE
8
FRAME
66
1
10
0.000000
20
0.000000
30
0.000000
70
1
0
VERTEX
8
FRAME
10
240.000000
20
254.200000
30
0.000000
0
VERTEX
8
FRAME
10
412.000000
20
254.200000
30
0.000000
0
VERTEX
8
FRAME
10
412.000000
20
259.600000
30
0.000000
0
VERTEX
8
FRAME
10
240.000000
20
259.600000
30
0.000000
0
SEQEND
8
FRAME
0
TEXT
8
TEXT
10
241.200000
20
256.095000
30
0.000000
40
2.300000
1
재질
50
0.000000
7
STANDARD
0
LINE
8
FRAME
10
264.000000
20
254.200000
30
0.000000
11
264.000000
21
259.600000
31
0.000000
0
TEXT
8
TEXT
10
265.200000
20
256.095000
30
0.000000
40
2.300000
1
SUS316L
50
0.000000
7
STANDARD
0
POLYLINE
8
FRAME
66
1
10
0.000000
20
0.000000
30
0.000000
70
1
0
VERTEX
8
FRAME
10
240.000000
20
248.800000
30
0.000000
0
VERTEX
8
FRAME
10
412.000000
20
248.800000
30
0.000000
0
VERTEX
8
FRAME
10
412.000000
20
254.200000
30
0.000000
0
VERTEX
8
FRAME
10
240.000000
20
254.200000
30
0.000000
0
SEQEND
8
FRAME
0
TEXT
8
TEXT
10
241.200000
20
250.695000
30
0.000000
40
2.300000
1
소재
50
0.000000
7
STANDARD
0
LINE
8
FRAME
10
264.000000
20
248.800000
30
0.000000
11
264.000000
21
254.200000
31
0.000000
0
TEXT
8
TEXT
10
265.200000
20
250.695000
30
0.000000
40
2.300000
1
SUS316L t1.5 타공판 Ø310 (Ø2 · 개공률 30 %)
50
0.000000
7
STANDARD
0
POLYLINE
8
FRAME
66
1
10
0.000000
20
0.000000
30
0.000000
70
1
0
VERTEX
8
FRAME
10
240.000000
20
243.400000
30
0.000000
0
VERTEX
8
FRAME
10
412.000000
20
243.400000
30
0.000000
0
VERTEX
8
FRAME
10
412.000000
20
248.800000
30
0.000000
0
VERTEX
8
FRAME
10
240.000000
20
248.800000
30
0.000000
0
SEQEND
8
FRAME
0
TEXT
8
TEXT
10
241.200000
20
245.295000
30
0.000000
40
2.300000
1
형상
50
0.000000
7
STANDARD
0
LINE
8
FRAME
10
264.000000
20
243.400000
30
0.000000
11
264.000000
21
248.800000
31
0.000000
0
TEXT
8
TEXT
10
265.200000
20
245.295000
30
0.000000
40
2.300000
1
판재
50
0.000000
7
STANDARD
0
POLYLINE
8
FRAME
66
1
10
0.000000
20
0.000000
30
0.000000
70
1
0
VERTEX
8
FRAME
10
240.000000
20
238.000000
30
0.000000
0
VERTEX
8
FRAME
10
412.000000
20
238.000000
30
0.000000
0
VERTEX
8
FRAME
10
412.000000
20
243.400000
30
0.000000
0
VERTEX
8
FRAME
10
240.000000
20
243.400000
30
0.000000
0
SEQEND
8
FRAME
0
TEXT
8
TEXT
10
241.200000
20
239.895000
30
0.000000
40
2.300000
1
일반공차
50
0.000000
7
STANDARD
0
LINE
8
FRAME
10
264.000000
20
238.000000
30
0.000000
11
264.000000
21
243.400000
31
0.000000
0
TEXT
8
TEXT
10
265.200000
20
239.895000
30
0.000000
40
2.300000
1
ISO 2768-mK · 기입 치수 우선
50
0.000000
7
STANDARD
0
POLYLINE
8
FRAME
66
1
10
0.000000
20
0.000000
30
0.000000
70
1
0
VERTEX
8
FRAME
10
240.000000
20
232.600000
30
0.000000
0
VERTEX
8
FRAME
10
412.000000
20
232.600000
30
0.000000
0
VERTEX
8
FRAME
10
412.000000
20
238.000000
30
0.000000
0
VERTEX
8
FRAME
10
240.000000
20
238.000000
30
0.000000
0
SEQEND
8
FRAME
0
TEXT
8
TEXT
10
241.200000
20
234.495000
30
0.000000
40
2.300000
1
모서리
50
0.000000
7
STANDARD
0
LINE
8
FRAME
10
264.000000
20
232.600000
30
0.000000
11
264.000000
21
238.000000
31
0.000000
0
TEXT
8
TEXT
10
265.200000
20
234.495000
30
0.000000
40
2.300000
1
액체에 닿는 모서리 R2 이상
50
0.000000
7
STANDARD
0
POLYLINE
8
FRAME
66
1
10
0.000000
20
0.000000
30
0.000000
70
1
0
VERTEX
8
FRAME
10
240.000000
20
227.200000
30
0.000000
0
VERTEX
8
FRAME
10
412.000000
20
227.200000
30
0.000000
0
VERTEX
8
FRAME
10
412.000000
20
232.600000
30
0.000000
0
VERTEX
8
FRAME
10
240.000000
20
232.600000
30
0.000000
0
SEQEND
8
FRAME
0
TEXT
8
TEXT
10
241.200000
20
229.095000
30
0.000000
40
2.300000
1
내면
50
0.000000
7
STANDARD
0
LINE
8
FRAME
10
264.000000
20
227.200000
30
0.000000
11
264.000000
21
232.600000
31
0.000000
0
TEXT
8
TEXT
10
265.200000
20
229.095000
30
0.000000
40
2.300000
1
Ra ≤ 0.8 · 용접부 평활 연삭
50
0.000000
7
STANDARD
0
POLYLINE
8
FRAME
66
1
10
0.000000
20
0.000000
30
0.000000
70
1
0
VERTEX
8
FRAME
10
240.000000
20
221.800000
30
0.000000
0
VERTEX
8
FRAME
10
412.000000
20
221.800000
30
0.000000
0
VERTEX
8
FRAME
10
412.000000
20
227.200000
30
0.000000
0
VERTEX
8
FRAME
10
240.000000
20
227.200000
30
0.000000
0
SEQEND
8
FRAME
0
TEXT
8
TEXT
10
241.200000
20
223.695000
30
0.000000
40
2.300000
1
후처리
50
0.000000
7
STANDARD
0
LINE
8
FRAME
10
264.000000
20
221.800000
30
0.000000
11
264.000000
21
227.200000
31
0.000000
0
TEXT
8
TEXT
10
265.200000
20
223.695000
30
0.000000
40
2.300000
1
산세 · 부동태화 (페록실 청색 반응 없을 것)
50
0.000000
7
STANDARD
0
TEXT
8
FRAME
10
240.000000
20
212.800000
30
0.000000
40
4.600000
1
구멍표
50
0.000000
7
STANDARD
0
POLYLINE
8
FRAME
66
1
10
0.000000
20
0.000000
30
0.000000
70
1
0
VERTEX
8
FRAME
10
240.000000
20
204.800000
30
0.000000
0
VERTEX
8
FRAME
10
412.000000
20
204.800000
30
0.000000
0
VERTEX
8
FRAME
10
412.000000
20
209.800000
30
0.000000
0
VERTEX
8
FRAME
10
240.000000
20
209.800000
30
0.000000
0
SEQEND
8
FRAME
0
TEXT
8
FRAME
10
241.200000
20
206.530000
30
0.000000
40
2.200000
1
Ø
50
0.000000
7
STANDARD
0
LINE
8
FRAME
10
256.000000
20
204.800000
30
0.000000
11
256.000000
21
209.800000
31
0.000000
0
TEXT
8
FRAME
10
257.200000
20
206.530000
30
0.000000
40
2.200000
1
수
50
0.000000
7
STANDARD
0
LINE
8
FRAME
10
266.000000
20
204.800000
30
0.000000
11
266.000000
21
209.800000
31
0.000000
0
TEXT
8
FRAME
10
267.200000
20
206.530000
30
0.000000
40
2.200000
1
설명
50
0.000000
7
STANDARD
0
POLYLINE
8
FRAME
66
1
10
0.000000
20
0.000000
30
0.000000
70
1
0
VERTEX
8
FRAME
10
240.000000
20
199.800000
30
0.000000
0
VERTEX
8
FRAME
10
412.000000
20
199.800000
30
0.000000
0
VERTEX
8
FRAME
10
412.000000
20
204.800000
30
0.000000
0
VERTEX
8
FRAME
10
240.000000
20
204.800000
30
0.000000
0
SEQEND
8
FRAME
0
TEXT
8
TEXT
10
241.200000
20
201.530000
30
0.000000
40
2.200000
1
Ø2
50
0.000000
7
STANDARD
0
LINE
8
FRAME
10
256.000000
20
199.800000
30
0.000000
11
256.000000
21
204.800000
31
0.000000
0
TEXT
8
TEXT
10
257.200000
20
201.530000
30
0.000000
40
2.200000
1
6000
50
0.000000
7
STANDARD
0
LINE
8
FRAME
10
266.000000
20
199.800000
30
0.000000
11
266.000000
21
204.800000
31
0.000000
0
TEXT
8
TEXT
10
267.200000
20
201.530000
30
0.000000
40
2.200000
1
완제 타공판을 사 와 원형으로 딴다 - 도면의 구멍은 대표 구간만
50
0.000000
7
STANDARD
0
TEXT
8
FRAME
10
240.000000
20
190.800000
30
0.000000
40
4.600000
1
주기
50
0.000000
7
STANDARD
0
TEXT
8
NOTE
10
240.000000
20
185.800000
30
0.000000
40
2.200000
1
· Ø300 × t1.5 · Ø2 피치 3.5 60° 엇갈림 · 개공률 30 %
50
0.000000
7
STANDARD
0
TEXT
8
NOTE
10
240.000000
20
181.000000
30
0.000000
40
2.200000
1
· 염수는 빠지고 폴리머는 남는다 - 걸러낸 채로 들어올린다
50
0.000000
7
STANDARD
0
TEXT
8
NOTE
10
240.000000
20
176.200000
30
0.000000
40
2.200000
1
· 3D - 구멍은 대표 구간만 담았다. 실제는 전면 타공이라 6 천 개를 솔리드로 담으면 열리지 않는다.
50
0.000000
7
STANDARD
0
TEXT
8
NOTE
10
240.000000
20
171.400000
30
0.000000
40
2.200000
1
· 절단 길이 약 4254 mm · 실면적 69030 mm² · 질량 0.594 kg/개
50
0.000000
7
STANDARD
0
TEXT
8
NOTE
10
240.000000
20
166.600000
30
0.000000
40
2.200000
1
· 이 도면은 설계 계산에서 생성된다. 손으로 고치지 말 것 - 다시 생성하면 덮어쓴다.
50
0.000000
7
STANDARD
0
ENDSEC
0
EOF
