0
SECTION
2
HEADER
9
$ACADVER
1
AC1009
9
$DWGCODEPAGE
3
ANSI_949
9
$INSBASE
10
0.000000
20
0.000000
30
0.000000
9
$EXTMIN
10
10.000000
20
5.000000
30
0.000000
9
$EXTMAX
10
415.000000
20
292.000000
30
0.000000
9
$LUNITS
70
2
9
$INSUNITS
70
4
9
$LIMMIN
10
10.000000
20
5.000000
9
$LIMMAX
10
415.000000
20
292.000000
0
ENDSEC
0
SECTION
2
TABLES
0
TABLE
2
LTYPE
70
3
0
LTYPE
2
CONTINUOUS
70
64
3
Solid line
72
65
73
0
40
0.000000
0
LTYPE
2
DASHED
70
64
3
Dashed __ __ __ __
72
65
73
2
40
6.000000
49
4.000000
49
-2.000000
0
LTYPE
2
CENTER
70
64
3
Center ____ _ ____
72
65
73
4
40
12.000000
49
8.000000
49
-1.500000
49
1.000000
49
-1.500000
0
ENDTAB
0
TABLE
2
LAYER
70
10
0
LAYER
2
CUT
70
0
62
7
6
CONTINUOUS
0
LAYER
2
HOLE
70
0
62
7
6
CONTINUOUS
0
LAYER
2
BEND
70
0
62
6
6
DASHED
0
LAYER
2
MARK
70
0
62
4
6
CONTINUOUS
0
LAYER
2
CENTER
70
0
62
2
6
CENTER
0
LAYER
2
HIDDEN
70
0
62
8
6
DASHED
0
LAYER
2
DIM
70
0
62
3
6
CONTINUOUS
0
LAYER
2
TEXT
70
0
62
3
6
CONTINUOUS
0
LAYER
2
FRAME
70
0
62
7
6
CONTINUOUS
0
LAYER
2
NOTE
70
0
62
8
6
CONTINUOUS
0
ENDTAB
0
TABLE
2
STYLE
70
1
0
STYLE
2
STANDARD
70
0
40
0.000000
41
1.000000
50
0.000000
71
0
42
2.500000
3
txt
4

0
ENDTAB
0
ENDSEC
0
SECTION
2
BLOCKS
0
ENDSEC
0
SECTION
2
ENTITIES
0
POLYLINE
8
FRAME
66
1
10
0.000000
20
0.000000
30
0.000000
70
1
0
VERTEX
8
FRAME
10
12.000000
20
281.000000
30
0.000000
0
VERTEX
8
FRAME
10
28.275248
20
281.000000
30
0.000000
0
VERTEX
8
FRAME
10
28.275248
20
290.000000
30
0.000000
0
VERTEX
8
FRAME
10
12.000000
20
290.000000
30
0.000000
0
SEQEND
8
FRAME
0
TEXT
8
TEXT
10
14.000000
20
286.600000
30
0.000000
40
1.900000
1
재질
50
0.000000
7
STANDARD
0
TEXT
8
FRAME
10
14.000000
20
282.600000
30
0.000000
40
2.700000
1
SUS304
50
0.000000
7
STANDARD
0
POLYLINE
8
FRAME
66
1
10
0.000000
20
0.000000
30
0.000000
70
1
0
VERTEX
8
FRAME
10
29.875248
20
281.000000
30
0.000000
0
VERTEX
8
FRAME
10
39.860144
20
281.000000
30
0.000000
0
VERTEX
8
FRAME
10
39.860144
20
290.000000
30
0.000000
0
VERTEX
8
FRAME
10
29.875248
20
290.000000
30
0.000000
0
SEQEND
8
FRAME
0
TEXT
8
TEXT
10
31.875248
20
286.600000
30
0.000000
40
1.900000
1
수량
50
0.000000
7
STANDARD
0
TEXT
8
FRAME
10
31.875248
20
282.600000
30
0.000000
40
2.700000
1
1 개
50
0.000000
7
STANDARD
0
POLYLINE
8
FRAME
66
1
10
0.000000
20
0.000000
30
0.000000
70
1
0
VERTEX
8
FRAME
10
41.460144
20
281.000000
30
0.000000
0
VERTEX
8
FRAME
10
51.260144
20
281.000000
30
0.000000
0
VERTEX
8
FRAME
10
51.260144
20
290.000000
30
0.000000
0
VERTEX
8
FRAME
10
41.460144
20
290.000000
30
0.000000
0
SEQEND
8
FRAME
0
TEXT
8
TEXT
10
43.460144
20
286.600000
30
0.000000
40
1.900000
1
형상
50
0.000000
7
STANDARD
0
TEXT
8
FRAME
10
43.460144
20
282.600000
30
0.000000
40
2.700000
1
판재
50
0.000000
7
STANDARD
0
POLYLINE
8
FRAME
66
1
10
0.000000
20
0.000000
30
0.000000
70
1
0
VERTEX
8
FRAME
10
52.860144
20
281.000000
30
0.000000
0
VERTEX
8
FRAME
10
65.468144
20
281.000000
30
0.000000
0
VERTEX
8
FRAME
10
65.468144
20
290.000000
30
0.000000
0
VERTEX
8
FRAME
10
52.860144
20
290.000000
30
0.000000
0
SEQEND
8
FRAME
0
TEXT
8
TEXT
10
54.860144
20
286.600000
30
0.000000
40
1.900000
1
두께·길이
50
0.000000
7
STANDARD
0
TEXT
8
FRAME
10
54.860144
20
282.600000
30
0.000000
40
2.700000
1
5 mm
50
0.000000
7
STANDARD
0
POLYLINE
8
FRAME
66
1
10
0.000000
20
0.000000
30
0.000000
70
1
0
VERTEX
8
FRAME
10
67.068144
20
281.000000
30
0.000000
0
VERTEX
8
FRAME
10
91.051568
20
281.000000
30
0.000000
0
VERTEX
8
FRAME
10
91.051568
20
290.000000
30
0.000000
0
VERTEX
8
FRAME
10
67.068144
20
290.000000
30
0.000000
0
SEQEND
8
FRAME
0
TEXT
8
TEXT
10
69.068144
20
286.600000
30
0.000000
40
1.900000
1
일반공차
50
0.000000
7
STANDARD
0
TEXT
8
FRAME
10
69.068144
20
282.600000
30
0.000000
40
2.700000
1
ISO 2768-mK
50
0.000000
7
STANDARD
0
POLYLINE
8
FRAME
66
1
10
0.000000
20
0.000000
30
0.000000
70
1
0
VERTEX
8
FRAME
10
92.651568
20
281.000000
30
0.000000
0
VERTEX
8
FRAME
10
113.332784
20
281.000000
30
0.000000
0
VERTEX
8
FRAME
10
113.332784
20
290.000000
30
0.000000
0
VERTEX
8
FRAME
10
92.651568
20
290.000000
30
0.000000
0
SEQEND
8
FRAME
0
TEXT
8
TEXT
10
94.651568
20
286.600000
30
0.000000
40
1.900000
1
설계확정도
50
0.000000
7
STANDARD
0
TEXT
8
FRAME
10
94.651568
20
282.600000
30
0.000000
40
2.700000
1
PROPOSED
50
0.000000
7
STANDARD
0
POLYLINE
8
CUT
66
1
10
0.000000
20
0.000000
30
0.000000
70
1
0
VERTEX
8
CUT
10
62.000000
20
182.000000
30
0.000000
42
1.000000
0
VERTEX
8
CUT
10
182.000000
20
182.000000
30
0.000000
42
1.000000
0
SEQEND
8
CUT
0
POLYLINE
8
HOLE
66
1
10
0.000000
20
0.000000
30
0.000000
70
1
0
VERTEX
8
HOLE
10
114.500000
20
182.000000
30
0.000000
42
-1.000000
0
VERTEX
8
HOLE
10
129.500000
20
182.000000
30
0.000000
42
-1.000000
0
SEQEND
8
HOLE
0
POLYLINE
8
HOLE
66
1
10
0.000000
20
0.000000
30
0.000000
70
1
0
VERTEX
8
HOLE
10
174.583328
20
196.558571
30
0.000000
42
-1.000000
0
VERTEX
8
HOLE
10
178.083328
20
196.558571
30
0.000000
42
-1.000000
0
SEQEND
8
HOLE
0
POLYLINE
8
HOLE
66
1
10
0.000000
20
0.000000
30
0.000000
70
1
0
VERTEX
8
HOLE
10
160.024756
20
221.774756
30
0.000000
42
-1.000000
0
VERTEX
8
HOLE
10
163.524756
20
221.774756
30
0.000000
42
-1.000000
0
SEQEND
8
HOLE
0
POLYLINE
8
HOLE
66
1
10
0.000000
20
0.000000
30
0.000000
70
1
0
VERTEX
8
HOLE
10
134.808571
20
236.333328
30
0.000000
42
-1.000000
0
VERTEX
8
HOLE
10
138.308571
20
236.333328
30
0.000000
42
-1.000000
0
SEQEND
8
HOLE
0
POLYLINE
8
HOLE
66
1
10
0.000000
20
0.000000
30
0.000000
70
1
0
VERTEX
8
HOLE
10
105.691429
20
236.333328
30
0.000000
42
-1.000000
0
VERTEX
8
HOLE
10
109.191429
20
236.333328
30
0.000000
42
-1.000000
0
SEQEND
8
HOLE
0
POLYLINE
8
HOLE
66
1
10
0.000000
20
0.000000
30
0.000000
70
1
0
VERTEX
8
HOLE
10
80.475244
20
221.774756
30
0.000000
42
-1.000000
0
VERTEX
8
HOLE
10
83.975244
20
221.774756
30
0.000000
42
-1.000000
0
SEQEND
8
HOLE
0
POLYLINE
8
HOLE
66
1
10
0.000000
20
0.000000
30
0.000000
70
1
0
VERTEX
8
HOLE
10
65.916672
20
196.558571
30
0.000000
42
-1.000000
0
VERTEX
8
HOLE
10
69.416672
20
196.558571
30
0.000000
42
-1.000000
0
SEQEND
8
HOLE
0
POLYLINE
8
HOLE
66
1
10
0.000000
20
0.000000
30
0.000000
70
1
0
VERTEX
8
HOLE
10
65.916672
20
167.441429
30
0.000000
42
-1.000000
0
VERTEX
8
HOLE
10
69.416672
20
167.441429
30
0.000000
42
-1.000000
0
SEQEND
8
HOLE
0
POLYLINE
8
HOLE
66
1
10
0.000000
20
0.000000
30
0.000000
70
1
0
VERTEX
8
HOLE
10
80.475244
20
142.225244
30
0.000000
42
-1.000000
0
VERTEX
8
HOLE
10
83.975244
20
142.225244
30
0.000000
42
-1.000000
0
SEQEND
8
HOLE
0
POLYLINE
8
HOLE
66
1
10
0.000000
20
0.000000
30
0.000000
70
1
0
VERTEX
8
HOLE
10
105.691429
20
127.666672
30
0.000000
42
-1.000000
0
VERTEX
8
HOLE
10
109.191429
20
127.666672
30
0.000000
42
-1.000000
0
SEQEND
8
HOLE
0
POLYLINE
8
HOLE
66
1
10
0.000000
20
0.000000
30
0.000000
70
1
0
VERTEX
8
HOLE
10
134.808571
20
127.666672
30
0.000000
42
-1.000000
0
VERTEX
8
HOLE
10
138.308571
20
127.666672
30
0.000000
42
-1.000000
0
SEQEND
8
HOLE
0
POLYLINE
8
HOLE
66
1
10
0.000000
20
0.000000
30
0.000000
70
1
0
VERTEX
8
HOLE
10
160.024756
20
142.225244
30
0.000000
42
-1.000000
0
VERTEX
8
HOLE
10
163.524756
20
142.225244
30
0.000000
42
-1.000000
0
SEQEND
8
HOLE
0
POLYLINE
8
HOLE
66
1
10
0.000000
20
0.000000
30
0.000000
70
1
0
VERTEX
8
HOLE
10
174.583328
20
167.441429
30
0.000000
42
-1.000000
0
VERTEX
8
HOLE
10
178.083328
20
167.441429
30
0.000000
42
-1.000000
0
SEQEND
8
HOLE
0
POLYLINE
8
HOLE
66
1
10
0.000000
20
0.000000
30
0.000000
70
1
0
VERTEX
8
HOLE
10
140.537500
20
217.723548
30
0.000000
42
-1.000000
0
VERTEX
8
HOLE
10
144.712500
20
217.723548
30
0.000000
42
-1.000000
0
SEQEND
8
HOLE
0
POLYLINE
8
HOLE
66
1
10
0.000000
20
0.000000
30
0.000000
70
1
0
VERTEX
8
HOLE
10
78.662500
20
182.000000
30
0.000000
42
-1.000000
0
VERTEX
8
HOLE
10
82.837500
20
182.000000
30
0.000000
42
-1.000000
0
SEQEND
8
HOLE
0
POLYLINE
8
HOLE
66
1
10
0.000000
20
0.000000
30
0.000000
70
1
0
VERTEX
8
HOLE
10
140.537500
20
146.276452
30
0.000000
42
-1.000000
0
VERTEX
8
HOLE
10
144.712500
20
146.276452
30
0.000000
42
-1.000000
0
SEQEND
8
HOLE
0
POLYLINE
8
HOLE
66
1
10
0.000000
20
0.000000
30
0.000000
70
1
0
VERTEX
8
HOLE
10
160.750000
20
182.000000
30
0.000000
42
-1.000000
0
VERTEX
8
HOLE
10
165.750000
20
182.000000
30
0.000000
42
-1.000000
0
SEQEND
8
HOLE
0
POLYLINE
8
HOLE
66
1
10
0.000000
20
0.000000
30
0.000000
70
1
0
VERTEX
8
HOLE
10
98.875000
20
217.723548
30
0.000000
42
-1.000000
0
VERTEX
8
HOLE
10
103.875000
20
217.723548
30
0.000000
42
-1.000000
0
SEQEND
8
HOLE
0
POLYLINE
8
HOLE
66
1
10
0.000000
20
0.000000
30
0.000000
70
1
0
VERTEX
8
HOLE
10
98.875000
20
146.276452
30
0.000000
42
-1.000000
0
VERTEX
8
HOLE
10
103.875000
20
146.276452
30
0.000000
42
-1.000000
0
SEQEND
8
HOLE
0
LINE
8
CENTER
10
112.000000
20
182.000000
30
0.000000
11
132.000000
21
182.000000
31
0.000000
0
LINE
8
CENTER
10
122.000000
20
172.000000
30
0.000000
11
122.000000
21
192.000000
31
0.000000
0
LINE
8
CENTER
10
172.083328
20
196.558571
30
0.000000
11
180.583328
21
196.558571
31
0.000000
0
LINE
8
CENTER
10
176.333328
20
192.308571
30
0.000000
11
176.333328
21
200.808571
31
0.000000
0
LINE
8
CENTER
10
157.524756
20
221.774756
30
0.000000
11
166.024756
21
221.774756
31
0.000000
0
LINE
8
CENTER
10
161.774756
20
217.524756
30
0.000000
11
161.774756
21
226.024756
31
0.000000
0
LINE
8
CENTER
10
132.308571
20
236.333328
30
0.000000
11
140.808571
21
236.333328
31
0.000000
0
LINE
8
CENTER
10
136.558571
20
232.083328
30
0.000000
11
136.558571
21
240.583328
31
0.000000
0
LINE
8
CENTER
10
103.191429
20
236.333328
30
0.000000
11
111.691429
21
236.333328
31
0.000000
0
LINE
8
CENTER
10
107.441429
20
232.083328
30
0.000000
11
107.441429
21
240.583328
31
0.000000
0
LINE
8
CENTER
10
77.975244
20
221.774756
30
0.000000
11
86.475244
21
221.774756
31
0.000000
0
LINE
8
CENTER
10
82.225244
20
217.524756
30
0.000000
11
82.225244
21
226.024756
31
0.000000
0
LINE
8
CENTER
10
63.416672
20
196.558571
30
0.000000
11
71.916672
21
196.558571
31
0.000000
0
LINE
8
CENTER
10
67.666672
20
192.308571
30
0.000000
11
67.666672
21
200.808571
31
0.000000
0
LINE
8
CENTER
10
63.416672
20
167.441429
30
0.000000
11
71.916672
21
167.441429
31
0.000000
0
LINE
8
CENTER
10
67.666672
20
163.191429
30
0.000000
11
67.666672
21
171.691429
31
0.000000
0
LINE
8
CENTER
10
77.975244
20
142.225244
30
0.000000
11
86.475244
21
142.225244
31
0.000000
0
LINE
8
CENTER
10
82.225244
20
137.975244
30
0.000000
11
82.225244
21
146.475244
31
0.000000
0
LINE
8
CENTER
10
103.191429
20
127.666672
30
0.000000
11
111.691429
21
127.666672
31
0.000000
0
LINE
8
CENTER
10
107.441429
20
123.416672
30
0.000000
11
107.441429
21
131.916672
31
0.000000
0
LINE
8
CENTER
10
132.308571
20
127.666672
30
0.000000
11
140.808571
21
127.666672
31
0.000000
0
LINE
8
CENTER
10
136.558571
20
123.416672
30
0.000000
11
136.558571
21
131.916672
31
0.000000
0
LINE
8
CENTER
10
157.524756
20
142.225244
30
0.000000
11
166.024756
21
142.225244
31
0.000000
0
LINE
8
CENTER
10
161.774756
20
137.975244
30
0.000000
11
161.774756
21
146.475244
31
0.000000
0
LINE
8
CENTER
10
172.083328
20
167.441429
30
0.000000
11
180.583328
21
167.441429
31
0.000000
0
LINE
8
CENTER
10
176.333328
20
163.191429
30
0.000000
11
176.333328
21
171.691429
31
0.000000
0
LINE
8
CENTER
10
138.037500
20
217.723548
30
0.000000
11
147.212500
21
217.723548
31
0.000000
0
LINE
8
CENTER
10
142.625000
20
213.136048
30
0.000000
11
142.625000
21
222.311048
31
0.000000
0
LINE
8
CENTER
10
76.162500
20
182.000000
30
0.000000
11
85.337500
21
182.000000
31
0.000000
0
LINE
8
CENTER
10
80.750000
20
177.412500
30
0.000000
11
80.750000
21
186.587500
31
0.000000
0
LINE
8
CENTER
10
138.037500
20
146.276452
30
0.000000
11
147.212500
21
146.276452
31
0.000000
0
LINE
8
CENTER
10
142.625000
20
141.688952
30
0.000000
11
142.625000
21
150.863952
31
0.000000
0
LINE
8
CENTER
10
158.250000
20
182.000000
30
0.000000
11
168.250000
21
182.000000
31
0.000000
0
LINE
8
CENTER
10
163.250000
20
177.000000
30
0.000000
11
163.250000
21
187.000000
31
0.000000
0
LINE
8
CENTER
10
96.375000
20
217.723548
30
0.000000
11
106.375000
21
217.723548
31
0.000000
0
LINE
8
CENTER
10
101.375000
20
212.723548
30
0.000000
11
101.375000
21
222.723548
31
0.000000
0
LINE
8
CENTER
10
96.375000
20
146.276452
30
0.000000
11
106.375000
21
146.276452
31
0.000000
0
LINE
8
CENTER
10
101.375000
20
141.276452
30
0.000000
11
101.375000
21
151.276452
31
0.000000
0
POLYLINE
8
FRAME
66
1
10
0.000000
20
0.000000
30
0.000000
70
1
0
VERTEX
8
FRAME
10
10.000000
20
5.000000
30
0.000000
0
VERTEX
8
FRAME
10
415.000000
20
5.000000
30
0.000000
0
VERTEX
8
FRAME
10
415.000000
20
292.000000
30
0.000000
0
VERTEX
8
FRAME
10
10.000000
20
292.000000
30
0.000000
0
SEQEND
8
FRAME
0
POLYLINE
8
FRAME
66
1
10
0.000000
20
0.000000
30
0.000000
70
1
0
VERTEX
8
FRAME
10
237.000000
20
5.000000
30
0.000000
0
VERTEX
8
FRAME
10
415.000000
20
5.000000
30
0.000000
0
VERTEX
8
FRAME
10
415.000000
20
35.000000
30
0.000000
0
VERTEX
8
FRAME
10
237.000000
20
35.000000
30
0.000000
0
SEQEND
8
FRAME
0
LINE
8
FRAME
10
237.000000
20
22.000000
30
0.000000
11
415.000000
21
22.000000
31
0.000000
0
LINE
8
FRAME
10
355.000000
20
5.000000
30
0.000000
11
355.000000
21
35.000000
31
0.000000
0
TEXT
8
FRAME
10
240.000000
20
28.000000
30
0.000000
40
6.000000
1
B-01 커버판
50
0.000000
7
STANDARD
0
TEXT
8
TEXT
10
240.000000
20
23.600000
30
0.000000
40
2.400000
1
Ø480 × t5
50
0.000000
7
STANDARD
0
TEXT
8
TEXT
10
240.000000
20
18.600000
30
0.000000
40
1.900000
1
도면번호
50
0.000000
7
STANDARD
0
TEXT
8
TEXT
10
240.000000
20
14.600000
30
0.000000
40
2.700000
1
MP50-C-B-01
50
0.000000
7
STANDARD
0
TEXT
8
TEXT
10
279.000000
20
18.600000
30
0.000000
40
1.900000
1
축척
50
0.000000
7
STANDARD
0
TEXT
8
TEXT
10
279.000000
20
14.600000
30
0.000000
40
2.700000
1
1:4
50
0.000000
7
STANDARD
0
TEXT
8
TEXT
10
318.000000
20
18.600000
30
0.000000
40
1.900000
1
단위
50
0.000000
7
STANDARD
0
TEXT
8
TEXT
10
318.000000
20
14.600000
30
0.000000
40
2.700000
1
mm
50
0.000000
7
STANDARD
0
TEXT
8
TEXT
10
240.000000
20
11.000000
30
0.000000
40
1.900000
1
Rev
50
0.000000
7
STANDARD
0
TEXT
8
TEXT
10
240.000000
20
7.000000
30
0.000000
40
2.700000
1
R1
50
0.000000
7
STANDARD
0
TEXT
8
TEXT
10
279.000000
20
11.000000
30
0.000000
40
1.900000
1
날짜
50
0.000000
7
STANDARD
0
TEXT
8
TEXT
10
279.000000
20
7.000000
30
0.000000
40
2.700000
1
2026-09-10
50
0.000000
7
STANDARD
0
TEXT
8
TEXT
10
318.000000
20
11.000000
30
0.000000
40
1.900000
1
시트
50
0.000000
7
STANDARD
0
TEXT
8
TEXT
10
318.000000
20
7.000000
30
0.000000
40
2.700000
1
9/33
50
0.000000
7
STANDARD
0
TEXT
8
FRAME
10
358.000000
20
29.000000
30
0.000000
40
2.700000
1
DYNAMIC INDUSTRY
50
0.000000
7
STANDARD
0
TEXT
8
TEXT
10
358.000000
20
24.600000
30
0.000000
40
2.000000
1
MP-50 염수 밀도분리 파일럿
50
0.000000
7
STANDARD
0
TEXT
8
TEXT
10
358.000000
20
15.000000
30
0.000000
40
2.000000
1
아세이 B · 상부 커버 아세이
50
0.000000
7
STANDARD
0
TEXT
8
TEXT
10
358.000000
20
10.400000
30
0.000000
40
2.000000
1
설계 계산 자동생성 · 제3각법
50
0.000000
7
STANDARD
0
TEXT
8
FRAME
10
14.000000
20
262.000000
30
0.000000
40
4.600000
1
평면
50
0.000000
7
STANDARD
0
TEXT
8
TEXT
10
40.000000
20
262.000000
30
0.000000
40
2.400000
1
척도 1:4
50
0.000000
7
STANDARD
0
LINE
8
DIM
10
62.000000
20
122.000000
30
0.000000
11
62.000000
21
111.400000
31
0.000000
0
LINE
8
DIM
10
182.000000
20
122.000000
30
0.000000
11
182.000000
21
111.400000
31
0.000000
0
LINE
8
DIM
10
62.000000
20
113.000000
30
0.000000
11
182.000000
21
113.000000
31
0.000000
0
SOLID
8
DIM
10
62.000000
20
113.000000
30
0.000000
11
64.500000
21
112.200000
31
0.000000
12
64.500000
22
113.800000
32
0.000000
13
64.500000
23
113.800000
33
0.000000
0
SOLID
8
DIM
10
182.000000
20
113.000000
30
0.000000
11
179.500000
21
113.800000
31
0.000000
12
179.500000
22
112.200000
32
0.000000
13
179.500000
23
112.200000
33
0.000000
0
TEXT
8
DIM
10
122.000000
20
114.750000
30
0.000000
40
3.500000
1
480
50
0.000000
7
STANDARD
72
1
11
122.000000
21
114.750000
31
0.000000
0
LINE
8
DIM
10
62.000000
20
122.000000
30
0.000000
11
51.400000
21
122.000000
31
0.000000
0
LINE
8
DIM
10
62.000000
20
242.000000
30
0.000000
11
51.400000
21
242.000000
31
0.000000
0
LINE
8
DIM
10
53.000000
20
122.000000
30
0.000000
11
53.000000
21
242.000000
31
0.000000
0
SOLID
8
DIM
10
53.000000
20
122.000000
30
0.000000
11
53.800000
21
124.500000
31
0.000000
12
52.200000
22
124.500000
32
0.000000
13
52.200000
23
124.500000
33
0.000000
0
SOLID
8
DIM
10
53.000000
20
242.000000
30
0.000000
11
52.200000
21
239.500000
31
0.000000
12
53.800000
22
239.500000
32
0.000000
13
53.800000
23
239.500000
33
0.000000
0
TEXT
8
DIM
10
51.250000
20
182.000000
30
0.000000
40
3.500000
1
480
50
90.000000
7
STANDARD
72
1
11
51.250000
21
182.000000
31
0.000000
0
LINE
8
DIM
10
177.809313
20
204.029992
30
0.000000
11
198.000000
21
212.000000
31
0.000000
0
SOLID
8
DIM
10
177.809313
20
204.029992
30
0.000000
11
180.428435
21
204.203784
31
0.000000
12
179.840968
22
205.692033
32
0.000000
13
179.840968
23
205.692033
33
0.000000
0
LINE
8
DIM
10
198.000000
20
212.000000
30
0.000000
11
204.000000
21
212.000000
31
0.000000
0
TEXT
8
DIM
10
205.200000
20
213.050000
30
0.000000
40
3.500000
1
Ø480
50
0.000000
7
STANDARD
0
POLYLINE
8
CUT
66
1
10
0.000000
20
0.000000
30
0.000000
70
1
0
VERTEX
8
CUT
10
62.000000
20
86.750000
30
0.000000
0
VERTEX
8
CUT
10
182.000000
20
86.750000
30
0.000000
0
VERTEX
8
CUT
10
182.000000
20
88.000000
30
0.000000
0
VERTEX
8
CUT
10
62.000000
20
88.000000
30
0.000000
0
SEQEND
8
CUT
0
TEXT
8
FRAME
10
14.000000
20
94.000000
30
0.000000
40
4.600000
1
두께
50
0.000000
7
STANDARD
0
LINE
8
DIM
10
182.000000
20
86.750000
30
0.000000
11
192.600000
21
86.750000
31
0.000000
0
LINE
8
DIM
10
182.000000
20
88.000000
30
0.000000
11
192.600000
21
88.000000
31
0.000000
0
LINE
8
DIM
10
191.000000
20
86.750000
30
0.000000
11
191.000000
21
88.000000
31
0.000000
0
SOLID
8
DIM
10
191.000000
20
86.750000
30
0.000000
11
191.800000
21
89.250000
31
0.000000
12
190.200000
22
89.250000
32
0.000000
13
190.200000
23
89.250000
33
0.000000
0
SOLID
8
DIM
10
191.000000
20
88.000000
30
0.000000
11
190.200000
21
85.500000
31
0.000000
12
191.800000
22
85.500000
32
0.000000
13
191.800000
23
85.500000
33
0.000000
0
TEXT
8
DIM
10
189.250000
20
87.375000
30
0.000000
40
3.500000
1
t5
50
90.000000
7
STANDARD
72
1
11
189.250000
21
87.375000
31
0.000000
0
TEXT
8
FRAME
10
240.000000
20
268.000000
30
0.000000
40
4.600000
1
소재 · 마감
50
0.000000
7
STANDARD
0
POLYLINE
8
FRAME
66
1
10
0.000000
20
0.000000
30
0.000000
70
1
0
VERTEX
8
FRAME
10
240.000000
20
259.600000
30
0.000000
0
VERTEX
8
FRAME
10
412.000000
20
259.600000
30
0.000000
0
VERTEX
8
FRAME
10
412.000000
20
265.000000
30
0.000000
0
VERTEX
8
FRAME
10
240.000000
20
265.000000
30
0.000000
0
SEQEND
8
FRAME
0
TEXT
8
FRAME
10
241.200000
20
261.495000
30
0.000000
40
2.300000
1
항목
50
0.000000
7
STANDARD
0
LINE
8
FRAME
10
264.000000
20
259.600000
30
0.000000
11
264.000000
21
265.000000
31
0.000000
0
TEXT
8
FRAME
10
265.200000
20
261.495000
30
0.000000
40
2.300000
1
값
50
0.000000
7
STANDARD
0
POLYLINE
8
FRAME
66
1
10
0.000000
20
0.000000
30
0.000000
70
1
0
VERTEX
8
FRAME
10
240.000000
20
254.200000
30
0.000000
0
VERTEX
8
FRAME
10
412.000000
20
254.200000
30
0.000000
0
VERTEX
8
FRAME
10
412.000000
20
259.600000
30
0.000000
0
VERTEX
8
FRAME
10
240.000000
20
259.600000
30
0.000000
0
SEQEND
8
FRAME
0
TEXT
8
TEXT
10
241.200000
20
256.095000
30
0.000000
40
2.300000
1
재질
50
0.000000
7
STANDARD
0
LINE
8
FRAME
10
264.000000
20
254.200000
30
0.000000
11
264.000000
21
259.600000
31
0.000000
0
TEXT
8
TEXT
10
265.200000
20
256.095000
30
0.000000
40
2.300000
1
SUS304
50
0.000000
7
STANDARD
0
POLYLINE
8
FRAME
66
1
10
0.000000
20
0.000000
30
0.000000
70
1
0
VERTEX
8
FRAME
10
240.000000
20
248.800000
30
0.000000
0
VERTEX
8
FRAME
10
412.000000
20
248.800000
30
0.000000
0
VERTEX
8
FRAME
10
412.000000
20
254.200000
30
0.000000
0
VERTEX
8
FRAME
10
240.000000
20
254.200000
30
0.000000
0
SEQEND
8
FRAME
0
TEXT
8
TEXT
10
241.200000
20
250.695000
30
0.000000
40
2.300000
1
소재
50
0.000000
7
STANDARD
0
LINE
8
FRAME
10
264.000000
20
248.800000
30
0.000000
11
264.000000
21
254.200000
31
0.000000
0
TEXT
8
TEXT
10
265.200000
20
250.695000
30
0.000000
40
2.300000
1
SUS304 t5 판재 Ø500
50
0.000000
7
STANDARD
0
POLYLINE
8
FRAME
66
1
10
0.000000
20
0.000000
30
0.000000
70
1
0
VERTEX
8
FRAME
10
240.000000
20
243.400000
30
0.000000
0
VERTEX
8
FRAME
10
412.000000
20
243.400000
30
0.000000
0
VERTEX
8
FRAME
10
412.000000
20
248.800000
30
0.000000
0
VERTEX
8
FRAME
10
240.000000
20
248.800000
30
0.000000
0
SEQEND
8
FRAME
0
TEXT
8
TEXT
10
241.200000
20
245.295000
30
0.000000
40
2.300000
1
형상
50
0.000000
7
STANDARD
0
LINE
8
FRAME
10
264.000000
20
243.400000
30
0.000000
11
264.000000
21
248.800000
31
0.000000
0
TEXT
8
TEXT
10
265.200000
20
245.295000
30
0.000000
40
2.300000
1
판재
50
0.000000
7
STANDARD
0
POLYLINE
8
FRAME
66
1
10
0.000000
20
0.000000
30
0.000000
70
1
0
VERTEX
8
FRAME
10
240.000000
20
238.000000
30
0.000000
0
VERTEX
8
FRAME
10
412.000000
20
238.000000
30
0.000000
0
VERTEX
8
FRAME
10
412.000000
20
243.400000
30
0.000000
0
VERTEX
8
FRAME
10
240.000000
20
243.400000
30
0.000000
0
SEQEND
8
FRAME
0
TEXT
8
TEXT
10
241.200000
20
239.895000
30
0.000000
40
2.300000
1
일반공차
50
0.000000
7
STANDARD
0
LINE
8
FRAME
10
264.000000
20
238.000000
30
0.000000
11
264.000000
21
243.400000
31
0.000000
0
TEXT
8
TEXT
10
265.200000
20
239.895000
30
0.000000
40
2.300000
1
ISO 2768-mK · 기입 치수 우선
50
0.000000
7
STANDARD
0
POLYLINE
8
FRAME
66
1
10
0.000000
20
0.000000
30
0.000000
70
1
0
VERTEX
8
FRAME
10
240.000000
20
232.600000
30
0.000000
0
VERTEX
8
FRAME
10
412.000000
20
232.600000
30
0.000000
0
VERTEX
8
FRAME
10
412.000000
20
238.000000
30
0.000000
0
VERTEX
8
FRAME
10
240.000000
20
238.000000
30
0.000000
0
SEQEND
8
FRAME
0
TEXT
8
TEXT
10
241.200000
20
234.495000
30
0.000000
40
2.300000
1
모서리
50
0.000000
7
STANDARD
0
LINE
8
FRAME
10
264.000000
20
232.600000
30
0.000000
11
264.000000
21
238.000000
31
0.000000
0
TEXT
8
TEXT
10
265.200000
20
234.495000
30
0.000000
40
2.300000
1
액체에 닿는 모서리 R2 이상
50
0.000000
7
STANDARD
0
POLYLINE
8
FRAME
66
1
10
0.000000
20
0.000000
30
0.000000
70
1
0
VERTEX
8
FRAME
10
240.000000
20
227.200000
30
0.000000
0
VERTEX
8
FRAME
10
412.000000
20
227.200000
30
0.000000
0
VERTEX
8
FRAME
10
412.000000
20
232.600000
30
0.000000
0
VERTEX
8
FRAME
10
240.000000
20
232.600000
30
0.000000
0
SEQEND
8
FRAME
0
TEXT
8
TEXT
10
241.200000
20
229.095000
30
0.000000
40
2.300000
1
내면
50
0.000000
7
STANDARD
0
LINE
8
FRAME
10
264.000000
20
227.200000
30
0.000000
11
264.000000
21
232.600000
31
0.000000
0
TEXT
8
TEXT
10
265.200000
20
229.095000
30
0.000000
40
2.300000
1
Ra ≤ 0.8 · 용접부 평활 연삭
50
0.000000
7
STANDARD
0
POLYLINE
8
FRAME
66
1
10
0.000000
20
0.000000
30
0.000000
70
1
0
VERTEX
8
FRAME
10
240.000000
20
221.800000
30
0.000000
0
VERTEX
8
FRAME
10
412.000000
20
221.800000
30
0.000000
0
VERTEX
8
FRAME
10
412.000000
20
227.200000
30
0.000000
0
VERTEX
8
FRAME
10
240.000000
20
227.200000
30
0.000000
0
SEQEND
8
FRAME
0
TEXT
8
TEXT
10
241.200000
20
223.695000
30
0.000000
40
2.300000
1
후처리
50
0.000000
7
STANDARD
0
LINE
8
FRAME
10
264.000000
20
221.800000
30
0.000000
11
264.000000
21
227.200000
31
0.000000
0
TEXT
8
TEXT
10
265.200000
20
223.695000
30
0.000000
40
2.300000
1
산세 · 부동태화 (페록실 청색 반응 없을 것)
50
0.000000
7
STANDARD
0
TEXT
8
FRAME
10
240.000000
20
212.800000
30
0.000000
40
4.600000
1
구멍표
50
0.000000
7
STANDARD
0
POLYLINE
8
FRAME
66
1
10
0.000000
20
0.000000
30
0.000000
70
1
0
VERTEX
8
FRAME
10
240.000000
20
204.800000
30
0.000000
0
VERTEX
8
FRAME
10
412.000000
20
204.800000
30
0.000000
0
VERTEX
8
FRAME
10
412.000000
20
209.800000
30
0.000000
0
VERTEX
8
FRAME
10
240.000000
20
209.800000
30
0.000000
0
SEQEND
8
FRAME
0
TEXT
8
FRAME
10
241.200000
20
206.530000
30
0.000000
40
2.200000
1
Ø
50
0.000000
7
STANDARD
0
LINE
8
FRAME
10
256.000000
20
204.800000
30
0.000000
11
256.000000
21
209.800000
31
0.000000
0
TEXT
8
FRAME
10
257.200000
20
206.530000
30
0.000000
40
2.200000
1
수
50
0.000000
7
STANDARD
0
LINE
8
FRAME
10
266.000000
20
204.800000
30
0.000000
11
266.000000
21
209.800000
31
0.000000
0
TEXT
8
FRAME
10
267.200000
20
206.530000
30
0.000000
40
2.200000
1
설명
50
0.000000
7
STANDARD
0
POLYLINE
8
FRAME
66
1
10
0.000000
20
0.000000
30
0.000000
70
1
0
VERTEX
8
FRAME
10
240.000000
20
199.800000
30
0.000000
0
VERTEX
8
FRAME
10
412.000000
20
199.800000
30
0.000000
0
VERTEX
8
FRAME
10
412.000000
20
204.800000
30
0.000000
0
VERTEX
8
FRAME
10
240.000000
20
204.800000
30
0.000000
0
SEQEND
8
FRAME
0
TEXT
8
TEXT
10
241.200000
20
201.530000
30
0.000000
40
2.200000
1
Ø60
50
0.000000
7
STANDARD
0
LINE
8
FRAME
10
256.000000
20
199.800000
30
0.000000
11
256.000000
21
204.800000
31
0.000000
0
TEXT
8
TEXT
10
257.200000
20
201.530000
30
0.000000
40
2.200000
1
1
50
0.000000
7
STANDARD
0
LINE
8
FRAME
10
266.000000
20
199.800000
30
0.000000
11
266.000000
21
204.800000
31
0.000000
0
TEXT
8
TEXT
10
267.200000
20
201.530000
30
0.000000
40
2.200000
1
중앙 보어 - HOLD. 씰 슬리브 확정 전 가공 금지 (B1)
50
0.000000
7
STANDARD
0
POLYLINE
8
FRAME
66
1
10
0.000000
20
0.000000
30
0.000000
70
1
0
VERTEX
8
FRAME
10
240.000000
20
194.800000
30
0.000000
0
VERTEX
8
FRAME
10
412.000000
20
194.800000
30
0.000000
0
VERTEX
8
FRAME
10
412.000000
20
199.800000
30
0.000000
0
VERTEX
8
FRAME
10
240.000000
20
199.800000
30
0.000000
0
SEQEND
8
FRAME
0
TEXT
8
TEXT
10
241.200000
20
196.530000
30
0.000000
40
2.200000
1
Ø14
50
0.000000
7
STANDARD
0
LINE
8
FRAME
10
256.000000
20
194.800000
30
0.000000
11
256.000000
21
199.800000
31
0.000000
0
TEXT
8
TEXT
10
257.200000
20
196.530000
30
0.000000
40
2.200000
1
12
50
0.000000
7
STANDARD
0
LINE
8
FRAME
10
266.000000
20
194.800000
30
0.000000
11
266.000000
21
199.800000
31
0.000000
0
TEXT
8
TEXT
10
267.200000
20
196.530000
30
0.000000
40
2.200000
1
M12 · PCD Ø450 - A-05 와 같은 지그로 뚫는다
50
0.000000
7
STANDARD
0
POLYLINE
8
FRAME
66
1
10
0.000000
20
0.000000
30
0.000000
70
1
0
VERTEX
8
FRAME
10
240.000000
20
189.800000
30
0.000000
0
VERTEX
8
FRAME
10
412.000000
20
189.800000
30
0.000000
0
VERTEX
8
FRAME
10
412.000000
20
194.800000
30
0.000000
0
VERTEX
8
FRAME
10
240.000000
20
194.800000
30
0.000000
0
SEQEND
8
FRAME
0
TEXT
8
TEXT
10
241.200000
20
191.530000
30
0.000000
40
2.200000
1
Ø16.7
50
0.000000
7
STANDARD
0
LINE
8
FRAME
10
256.000000
20
189.800000
30
0.000000
11
256.000000
21
194.800000
31
0.000000
0
TEXT
8
TEXT
10
257.200000
20
191.530000
30
0.000000
40
2.200000
1
3
50
0.000000
7
STANDARD
0
LINE
8
FRAME
10
266.000000
20
189.800000
30
0.000000
11
266.000000
21
194.800000
31
0.000000
0
TEXT
8
TEXT
10
267.200000
20
191.530000
30
0.000000
40
2.200000
1
계측 노즐 B2·B3·B4 · PCD Ø330 · θ 60/180/300
50
0.000000
7
STANDARD
0
POLYLINE
8
FRAME
66
1
10
0.000000
20
0.000000
30
0.000000
70
1
0
VERTEX
8
FRAME
10
240.000000
20
184.800000
30
0.000000
0
VERTEX
8
FRAME
10
412.000000
20
184.800000
30
0.000000
0
VERTEX
8
FRAME
10
412.000000
20
189.800000
30
0.000000
0
VERTEX
8
FRAME
10
240.000000
20
189.800000
30
0.000000
0
SEQEND
8
FRAME
0
TEXT
8
TEXT
10
241.200000
20
186.530000
30
0.000000
40
2.200000
1
Ø20
50
0.000000
7
STANDARD
0
LINE
8
FRAME
10
256.000000
20
184.800000
30
0.000000
11
256.000000
21
189.800000
31
0.000000
0
TEXT
8
TEXT
10
257.200000
20
186.530000
30
0.000000
40
2.200000
1
3
50
0.000000
7
STANDARD
0
LINE
8
FRAME
10
266.000000
20
184.800000
30
0.000000
11
266.000000
21
189.800000
31
0.000000
0
TEXT
8
TEXT
10
267.200000
20
186.530000
30
0.000000
40
2.200000
1
B-07 조절봉 부싱 · PCD Ø330 · θ 0/120/240
50
0.000000
7
STANDARD
0
TEXT
8
FRAME
10
240.000000
20
175.800000
30
0.000000
40
4.600000
1
주기
50
0.000000
7
STANDARD
0
TEXT
8
NOTE
10
240.000000
20
170.800000
30
0.000000
40
2.200000
1
· Ø480 × t5
50
0.000000
7
STANDARD
0
TEXT
8
NOTE
10
240.000000
20
166.000000
30
0.000000
40
2.200000
1
· PCD Ø450 · 12-Ø14 · 평면도 0.5
50
0.000000
7
STANDARD
0
TEXT
8
NOTE
10
240.000000
20
161.200000
30
0.000000
40
2.200000
1
· 절단 길이 약 2570 mm · 실면적 174681 mm² · 질량 6.926 kg/개
50
0.000000
7
STANDARD
0
TEXT
8
NOTE
10
240.000000
20
156.400000
30
0.000000
40
2.200000
1
· 이 도면은 설계 계산에서 생성된다. 손으로 고치지 말 것 - 다시 생성하면 덮어쓴다.
50
0.000000
7
STANDARD
0
ENDSEC
0
EOF
