0
SECTION
2
HEADER
9
$ACADVER
1
AC1009
9
$DWGCODEPAGE
3
ANSI_949
9
$INSBASE
10
0.000000
20
0.000000
30
0.000000
9
$EXTMIN
10
10.000000
20
5.000000
30
0.000000
9
$EXTMAX
10
415.000000
20
292.000000
30
0.000000
9
$LUNITS
70
2
9
$INSUNITS
70
4
9
$LIMMIN
10
10.000000
20
5.000000
9
$LIMMAX
10
415.000000
20
292.000000
0
ENDSEC
0
SECTION
2
TABLES
0
TABLE
2
LTYPE
70
3
0
LTYPE
2
CONTINUOUS
70
64
3
Solid line
72
65
73
0
40
0.000000
0
LTYPE
2
DASHED
70
64
3
Dashed __ __ __ __
72
65
73
2
40
6.000000
49
4.000000
49
-2.000000
0
LTYPE
2
CENTER
70
64
3
Center ____ _ ____
72
65
73
4
40
12.000000
49
8.000000
49
-1.500000
49
1.000000
49
-1.500000
0
ENDTAB
0
TABLE
2
LAYER
70
10
0
LAYER
2
CUT
70
0
62
7
6
CONTINUOUS
0
LAYER
2
HOLE
70
0
62
7
6
CONTINUOUS
0
LAYER
2
BEND
70
0
62
6
6
DASHED
0
LAYER
2
MARK
70
0
62
4
6
CONTINUOUS
0
LAYER
2
CENTER
70
0
62
2
6
CENTER
0
LAYER
2
HIDDEN
70
0
62
8
6
DASHED
0
LAYER
2
DIM
70
0
62
3
6
CONTINUOUS
0
LAYER
2
TEXT
70
0
62
3
6
CONTINUOUS
0
LAYER
2
FRAME
70
0
62
7
6
CONTINUOUS
0
LAYER
2
NOTE
70
0
62
8
6
CONTINUOUS
0
ENDTAB
0
TABLE
2
STYLE
70
1
0
STYLE
2
STANDARD
70
0
40
0.000000
41
1.000000
50
0.000000
71
0
42
2.500000
3
txt
4

0
ENDTAB
0
ENDSEC
0
SECTION
2
BLOCKS
0
ENDSEC
0
SECTION
2
ENTITIES
0
POLYLINE
8
FRAME
66
1
10
0.000000
20
0.000000
30
0.000000
70
1
0
VERTEX
8
FRAME
10
12.000000
20
281.000000
30
0.000000
0
VERTEX
8
FRAME
10
28.275248
20
281.000000
30
0.000000
0
VERTEX
8
FRAME
10
28.275248
20
290.000000
30
0.000000
0
VERTEX
8
FRAME
10
12.000000
20
290.000000
30
0.000000
0
SEQEND
8
FRAME
0
TEXT
8
TEXT
10
14.000000
20
286.600000
30
0.000000
40
1.900000
1
재질
50
0.000000
7
STANDARD
0
TEXT
8
FRAME
10
14.000000
20
282.600000
30
0.000000
40
2.700000
1
SUS304
50
0.000000
7
STANDARD
0
POLYLINE
8
FRAME
66
1
10
0.000000
20
0.000000
30
0.000000
70
1
0
VERTEX
8
FRAME
10
29.875248
20
281.000000
30
0.000000
0
VERTEX
8
FRAME
10
39.860144
20
281.000000
30
0.000000
0
VERTEX
8
FRAME
10
39.860144
20
290.000000
30
0.000000
0
VERTEX
8
FRAME
10
29.875248
20
290.000000
30
0.000000
0
SEQEND
8
FRAME
0
TEXT
8
TEXT
10
31.875248
20
286.600000
30
0.000000
40
1.900000
1
수량
50
0.000000
7
STANDARD
0
TEXT
8
FRAME
10
31.875248
20
282.600000
30
0.000000
40
2.700000
1
4 개
50
0.000000
7
STANDARD
0
POLYLINE
8
FRAME
66
1
10
0.000000
20
0.000000
30
0.000000
70
1
0
VERTEX
8
FRAME
10
41.460144
20
281.000000
30
0.000000
0
VERTEX
8
FRAME
10
51.260144
20
281.000000
30
0.000000
0
VERTEX
8
FRAME
10
51.260144
20
290.000000
30
0.000000
0
VERTEX
8
FRAME
10
41.460144
20
290.000000
30
0.000000
0
SEQEND
8
FRAME
0
TEXT
8
TEXT
10
43.460144
20
286.600000
30
0.000000
40
1.900000
1
형상
50
0.000000
7
STANDARD
0
TEXT
8
FRAME
10
43.460144
20
282.600000
30
0.000000
40
2.700000
1
관재
50
0.000000
7
STANDARD
0
POLYLINE
8
FRAME
66
1
10
0.000000
20
0.000000
30
0.000000
70
1
0
VERTEX
8
FRAME
10
52.860144
20
281.000000
30
0.000000
0
VERTEX
8
FRAME
10
67.390544
20
281.000000
30
0.000000
0
VERTEX
8
FRAME
10
67.390544
20
290.000000
30
0.000000
0
VERTEX
8
FRAME
10
52.860144
20
290.000000
30
0.000000
0
SEQEND
8
FRAME
0
TEXT
8
TEXT
10
54.860144
20
286.600000
30
0.000000
40
1.900000
1
길이
50
0.000000
7
STANDARD
0
TEXT
8
FRAME
10
54.860144
20
282.600000
30
0.000000
40
2.700000
1
510 mm
50
0.000000
7
STANDARD
0
POLYLINE
8
FRAME
66
1
10
0.000000
20
0.000000
30
0.000000
70
1
0
VERTEX
8
FRAME
10
68.990544
20
281.000000
30
0.000000
0
VERTEX
8
FRAME
10
92.973968
20
281.000000
30
0.000000
0
VERTEX
8
FRAME
10
92.973968
20
290.000000
30
0.000000
0
VERTEX
8
FRAME
10
68.990544
20
290.000000
30
0.000000
0
SEQEND
8
FRAME
0
TEXT
8
TEXT
10
70.990544
20
286.600000
30
0.000000
40
1.900000
1
일반공차
50
0.000000
7
STANDARD
0
TEXT
8
FRAME
10
70.990544
20
282.600000
30
0.000000
40
2.700000
1
ISO 2768-mK
50
0.000000
7
STANDARD
0
POLYLINE
8
FRAME
66
1
10
0.000000
20
0.000000
30
0.000000
70
1
0
VERTEX
8
FRAME
10
94.573968
20
281.000000
30
0.000000
0
VERTEX
8
FRAME
10
113.220032
20
281.000000
30
0.000000
0
VERTEX
8
FRAME
10
113.220032
20
290.000000
30
0.000000
0
VERTEX
8
FRAME
10
94.573968
20
290.000000
30
0.000000
0
SEQEND
8
FRAME
0
TEXT
8
TEXT
10
96.573968
20
286.600000
30
0.000000
40
1.900000
1
설계확정도
50
0.000000
7
STANDARD
0
TEXT
8
FRAME
10
96.573968
20
282.600000
30
0.000000
40
2.700000
1
RELEASE
50
0.000000
7
STANDARD
0
POLYLINE
8
CUT
66
1
10
0.000000
20
0.000000
30
0.000000
70
1
0
VERTEX
8
CUT
10
79.500000
20
142.000000
30
0.000000
0
VERTEX
8
CUT
10
164.500000
20
142.000000
30
0.000000
42
0.414214
0
VERTEX
8
CUT
10
172.000000
20
149.500000
30
0.000000
0
VERTEX
8
CUT
10
172.000000
20
234.500000
30
0.000000
42
0.414214
0
VERTEX
8
CUT
10
164.500000
20
242.000000
30
0.000000
0
VERTEX
8
CUT
10
79.500000
20
242.000000
30
0.000000
42
0.414214
0
VERTEX
8
CUT
10
72.000000
20
234.500000
30
0.000000
0
VERTEX
8
CUT
10
72.000000
20
149.500000
30
0.000000
42
0.414214
0
SEQEND
8
CUT
0
POLYLINE
8
HOLE
66
1
10
0.000000
20
0.000000
30
0.000000
70
1
0
VERTEX
8
HOLE
10
77.000000
20
149.500000
30
0.000000
0
VERTEX
8
HOLE
10
77.000000
20
234.500000
30
0.000000
42
-0.414214
0
VERTEX
8
HOLE
10
79.500000
20
237.000000
30
0.000000
0
VERTEX
8
HOLE
10
164.500000
20
237.000000
30
0.000000
42
-0.414214
0
VERTEX
8
HOLE
10
167.000000
20
234.500000
30
0.000000
0
VERTEX
8
HOLE
10
167.000000
20
149.500000
30
0.000000
42
-0.414214
0
VERTEX
8
HOLE
10
164.500000
20
147.000000
30
0.000000
0
VERTEX
8
HOLE
10
79.500000
20
147.000000
30
0.000000
42
-0.414214
0
SEQEND
8
HOLE
0
LINE
8
CENTER
10
57.602908
20
192.000000
30
0.000000
11
186.397092
21
192.000000
31
0.000000
0
LINE
8
CENTER
10
122.000000
20
127.602908
30
0.000000
11
122.000000
21
256.397092
31
0.000000
0
POLYLINE
8
FRAME
66
1
10
0.000000
20
0.000000
30
0.000000
70
1
0
VERTEX
8
FRAME
10
10.000000
20
5.000000
30
0.000000
0
VERTEX
8
FRAME
10
415.000000
20
5.000000
30
0.000000
0
VERTEX
8
FRAME
10
415.000000
20
292.000000
30
0.000000
0
VERTEX
8
FRAME
10
10.000000
20
292.000000
30
0.000000
0
SEQEND
8
FRAME
0
POLYLINE
8
FRAME
66
1
10
0.000000
20
0.000000
30
0.000000
70
1
0
VERTEX
8
FRAME
10
237.000000
20
5.000000
30
0.000000
0
VERTEX
8
FRAME
10
415.000000
20
5.000000
30
0.000000
0
VERTEX
8
FRAME
10
415.000000
20
35.000000
30
0.000000
0
VERTEX
8
FRAME
10
237.000000
20
35.000000
30
0.000000
0
SEQEND
8
FRAME
0
LINE
8
FRAME
10
237.000000
20
22.000000
30
0.000000
11
415.000000
21
22.000000
31
0.000000
0
LINE
8
FRAME
10
355.000000
20
5.000000
30
0.000000
11
355.000000
21
35.000000
31
0.000000
0
TEXT
8
FRAME
10
240.000000
20
28.000000
30
0.000000
40
6.000000
1
H-04 중간 보강재
50
0.000000
7
STANDARD
0
TEXT
8
TEXT
10
240.000000
20
23.600000
30
0.000000
40
2.400000
1
□40 × t2 × L510
50
0.000000
7
STANDARD
0
TEXT
8
TEXT
10
240.000000
20
18.600000
30
0.000000
40
1.900000
1
도면번호
50
0.000000
7
STANDARD
0
TEXT
8
TEXT
10
240.000000
20
14.600000
30
0.000000
40
2.700000
1
MP50-C-H-04
50
0.000000
7
STANDARD
0
TEXT
8
TEXT
10
279.000000
20
18.600000
30
0.000000
40
1.900000
1
축척
50
0.000000
7
STANDARD
0
TEXT
8
TEXT
10
279.000000
20
14.600000
30
0.000000
40
2.700000
1
2.5:1
50
0.000000
7
STANDARD
0
TEXT
8
TEXT
10
318.000000
20
18.600000
30
0.000000
40
1.900000
1
단위
50
0.000000
7
STANDARD
0
TEXT
8
TEXT
10
318.000000
20
14.600000
30
0.000000
40
2.700000
1
mm
50
0.000000
7
STANDARD
0
TEXT
8
TEXT
10
240.000000
20
11.000000
30
0.000000
40
1.900000
1
Rev
50
0.000000
7
STANDARD
0
TEXT
8
TEXT
10
240.000000
20
7.000000
30
0.000000
40
2.700000
1
R1
50
0.000000
7
STANDARD
0
TEXT
8
TEXT
10
279.000000
20
11.000000
30
0.000000
40
1.900000
1
날짜
50
0.000000
7
STANDARD
0
TEXT
8
TEXT
10
279.000000
20
7.000000
30
0.000000
40
2.700000
1
2026-09-10
50
0.000000
7
STANDARD
0
TEXT
8
TEXT
10
318.000000
20
11.000000
30
0.000000
40
1.900000
1
시트
50
0.000000
7
STANDARD
0
TEXT
8
TEXT
10
318.000000
20
7.000000
30
0.000000
40
2.700000
1
31/33
50
0.000000
7
STANDARD
0
TEXT
8
FRAME
10
358.000000
20
29.000000
30
0.000000
40
2.700000
1
DYNAMIC INDUSTRY
50
0.000000
7
STANDARD
0
TEXT
8
TEXT
10
358.000000
20
24.600000
30
0.000000
40
2.000000
1
MP-50 염수 밀도분리 파일럿
50
0.000000
7
STANDARD
0
TEXT
8
TEXT
10
358.000000
20
15.000000
30
0.000000
40
2.000000
1
아세이 H · 프레임 아세이
50
0.000000
7
STANDARD
0
TEXT
8
TEXT
10
358.000000
20
10.400000
30
0.000000
40
2.000000
1
설계 계산 자동생성 · 제3각법
50
0.000000
7
STANDARD
0
TEXT
8
FRAME
10
14.000000
20
262.000000
30
0.000000
40
4.600000
1
평면
50
0.000000
7
STANDARD
0
TEXT
8
TEXT
10
40.000000
20
262.000000
30
0.000000
40
2.400000
1
척도 2.5:1
50
0.000000
7
STANDARD
0
LINE
8
DIM
10
72.000000
20
142.000000
30
0.000000
11
72.000000
21
131.400000
31
0.000000
0
LINE
8
DIM
10
172.000000
20
142.000000
30
0.000000
11
172.000000
21
131.400000
31
0.000000
0
LINE
8
DIM
10
72.000000
20
133.000000
30
0.000000
11
172.000000
21
133.000000
31
0.000000
0
SOLID
8
DIM
10
72.000000
20
133.000000
30
0.000000
11
74.500000
21
132.200000
31
0.000000
12
74.500000
22
133.800000
32
0.000000
13
74.500000
23
133.800000
33
0.000000
0
SOLID
8
DIM
10
172.000000
20
133.000000
30
0.000000
11
169.500000
21
133.800000
31
0.000000
12
169.500000
22
132.200000
32
0.000000
13
169.500000
23
132.200000
33
0.000000
0
TEXT
8
DIM
10
122.000000
20
134.750000
30
0.000000
40
3.500000
1
40
50
0.000000
7
STANDARD
72
1
11
122.000000
21
134.750000
31
0.000000
0
LINE
8
DIM
10
72.000000
20
142.000000
30
0.000000
11
61.400000
21
142.000000
31
0.000000
0
LINE
8
DIM
10
72.000000
20
242.000000
30
0.000000
11
61.400000
21
242.000000
31
0.000000
0
LINE
8
DIM
10
63.000000
20
142.000000
30
0.000000
11
63.000000
21
242.000000
31
0.000000
0
SOLID
8
DIM
10
63.000000
20
142.000000
30
0.000000
11
63.800000
21
144.500000
31
0.000000
12
62.200000
22
144.500000
32
0.000000
13
62.200000
23
144.500000
33
0.000000
0
SOLID
8
DIM
10
63.000000
20
242.000000
30
0.000000
11
62.200000
21
239.500000
31
0.000000
12
63.800000
22
239.500000
32
0.000000
13
63.800000
23
239.500000
33
0.000000
0
TEXT
8
DIM
10
61.250000
20
192.000000
30
0.000000
40
3.500000
1
40
50
90.000000
7
STANDARD
72
1
11
61.250000
21
192.000000
31
0.000000
0
LINE
8
DIM
10
169.803301
20
144.196699
30
0.000000
11
183.803301
21
130.196699
31
0.000000
0
LINE
8
DIM
10
183.803301
20
130.196699
30
0.000000
11
191.803301
21
130.196699
31
0.000000
0
SOLID
8
DIM
10
169.803301
20
144.196699
30
0.000000
11
171.005382
21
141.863247
31
0.000000
12
172.136753
22
142.994618
32
0.000000
13
172.136753
23
142.994618
33
0.000000
0
TEXT
8
DIM
10
193.203301
20
131.096699
30
0.000000
40
3.000000
1
R3
50
0.000000
7
STANDARD
0
POLYLINE
8
CUT
66
1
10
0.000000
20
0.000000
30
0.000000
70
1
0
VERTEX
8
CUT
10
72.000000
20
102.000000
30
0.000000
0
VERTEX
8
CUT
10
172.000000
20
102.000000
30
0.000000
0
VERTEX
8
CUT
10
172.000000
20
108.000000
30
0.000000
0
VERTEX
8
CUT
10
72.000000
20
108.000000
30
0.000000
0
SEQEND
8
CUT
0
TEXT
8
FRAME
10
14.000000
20
114.000000
30
0.000000
40
4.600000
1
길이
50
0.000000
7
STANDARD
0
LINE
8
DIM
10
172.000000
20
102.000000
30
0.000000
11
182.600000
21
102.000000
31
0.000000
0
LINE
8
DIM
10
172.000000
20
108.000000
30
0.000000
11
182.600000
21
108.000000
31
0.000000
0
LINE
8
DIM
10
181.000000
20
102.000000
30
0.000000
11
181.000000
21
108.000000
31
0.000000
0
SOLID
8
DIM
10
181.000000
20
102.000000
30
0.000000
11
181.800000
21
104.500000
31
0.000000
12
180.200000
22
104.500000
32
0.000000
13
180.200000
23
104.500000
33
0.000000
0
SOLID
8
DIM
10
181.000000
20
108.000000
30
0.000000
11
180.200000
21
105.500000
31
0.000000
12
181.800000
22
105.500000
32
0.000000
13
181.800000
23
105.500000
33
0.000000
0
TEXT
8
DIM
10
179.250000
20
105.000000
30
0.000000
40
3.500000
1
L510
50
90.000000
7
STANDARD
72
1
11
179.250000
21
105.000000
31
0.000000
0
TEXT
8
FRAME
10
240.000000
20
268.000000
30
0.000000
40
4.600000
1
소재 · 마감
50
0.000000
7
STANDARD
0
POLYLINE
8
FRAME
66
1
10
0.000000
20
0.000000
30
0.000000
70
1
0
VERTEX
8
FRAME
10
240.000000
20
259.600000
30
0.000000
0
VERTEX
8
FRAME
10
412.000000
20
259.600000
30
0.000000
0
VERTEX
8
FRAME
10
412.000000
20
265.000000
30
0.000000
0
VERTEX
8
FRAME
10
240.000000
20
265.000000
30
0.000000
0
SEQEND
8
FRAME
0
TEXT
8
FRAME
10
241.200000
20
261.495000
30
0.000000
40
2.300000
1
항목
50
0.000000
7
STANDARD
0
LINE
8
FRAME
10
264.000000
20
259.600000
30
0.000000
11
264.000000
21
265.000000
31
0.000000
0
TEXT
8
FRAME
10
265.200000
20
261.495000
30
0.000000
40
2.300000
1
값
50
0.000000
7
STANDARD
0
POLYLINE
8
FRAME
66
1
10
0.000000
20
0.000000
30
0.000000
70
1
0
VERTEX
8
FRAME
10
240.000000
20
254.200000
30
0.000000
0
VERTEX
8
FRAME
10
412.000000
20
254.200000
30
0.000000
0
VERTEX
8
FRAME
10
412.000000
20
259.600000
30
0.000000
0
VERTEX
8
FRAME
10
240.000000
20
259.600000
30
0.000000
0
SEQEND
8
FRAME
0
TEXT
8
TEXT
10
241.200000
20
256.095000
30
0.000000
40
2.300000
1
재질
50
0.000000
7
STANDARD
0
LINE
8
FRAME
10
264.000000
20
254.200000
30
0.000000
11
264.000000
21
259.600000
31
0.000000
0
TEXT
8
TEXT
10
265.200000
20
256.095000
30
0.000000
40
2.300000
1
SUS304
50
0.000000
7
STANDARD
0
POLYLINE
8
FRAME
66
1
10
0.000000
20
0.000000
30
0.000000
70
1
0
VERTEX
8
FRAME
10
240.000000
20
248.800000
30
0.000000
0
VERTEX
8
FRAME
10
412.000000
20
248.800000
30
0.000000
0
VERTEX
8
FRAME
10
412.000000
20
254.200000
30
0.000000
0
VERTEX
8
FRAME
10
240.000000
20
254.200000
30
0.000000
0
SEQEND
8
FRAME
0
TEXT
8
TEXT
10
241.200000
20
250.695000
30
0.000000
40
2.300000
1
소재
50
0.000000
7
STANDARD
0
LINE
8
FRAME
10
264.000000
20
248.800000
30
0.000000
11
264.000000
21
254.200000
31
0.000000
0
TEXT
8
TEXT
10
265.200000
20
250.695000
30
0.000000
40
2.300000
1
SUS304 □40 × 40 × t2 각관
50
0.000000
7
STANDARD
0
POLYLINE
8
FRAME
66
1
10
0.000000
20
0.000000
30
0.000000
70
1
0
VERTEX
8
FRAME
10
240.000000
20
243.400000
30
0.000000
0
VERTEX
8
FRAME
10
412.000000
20
243.400000
30
0.000000
0
VERTEX
8
FRAME
10
412.000000
20
248.800000
30
0.000000
0
VERTEX
8
FRAME
10
240.000000
20
248.800000
30
0.000000
0
SEQEND
8
FRAME
0
TEXT
8
TEXT
10
241.200000
20
245.295000
30
0.000000
40
2.300000
1
형상
50
0.000000
7
STANDARD
0
LINE
8
FRAME
10
264.000000
20
243.400000
30
0.000000
11
264.000000
21
248.800000
31
0.000000
0
TEXT
8
TEXT
10
265.200000
20
245.295000
30
0.000000
40
2.300000
1
관재
50
0.000000
7
STANDARD
0
POLYLINE
8
FRAME
66
1
10
0.000000
20
0.000000
30
0.000000
70
1
0
VERTEX
8
FRAME
10
240.000000
20
238.000000
30
0.000000
0
VERTEX
8
FRAME
10
412.000000
20
238.000000
30
0.000000
0
VERTEX
8
FRAME
10
412.000000
20
243.400000
30
0.000000
0
VERTEX
8
FRAME
10
240.000000
20
243.400000
30
0.000000
0
SEQEND
8
FRAME
0
TEXT
8
TEXT
10
241.200000
20
239.895000
30
0.000000
40
2.300000
1
일반공차
50
0.000000
7
STANDARD
0
LINE
8
FRAME
10
264.000000
20
238.000000
30
0.000000
11
264.000000
21
243.400000
31
0.000000
0
TEXT
8
TEXT
10
265.200000
20
239.895000
30
0.000000
40
2.300000
1
ISO 2768-mK · 기입 치수 우선
50
0.000000
7
STANDARD
0
POLYLINE
8
FRAME
66
1
10
0.000000
20
0.000000
30
0.000000
70
1
0
VERTEX
8
FRAME
10
240.000000
20
232.600000
30
0.000000
0
VERTEX
8
FRAME
10
412.000000
20
232.600000
30
0.000000
0
VERTEX
8
FRAME
10
412.000000
20
238.000000
30
0.000000
0
VERTEX
8
FRAME
10
240.000000
20
238.000000
30
0.000000
0
SEQEND
8
FRAME
0
TEXT
8
TEXT
10
241.200000
20
234.495000
30
0.000000
40
2.300000
1
모서리
50
0.000000
7
STANDARD
0
LINE
8
FRAME
10
264.000000
20
232.600000
30
0.000000
11
264.000000
21
238.000000
31
0.000000
0
TEXT
8
TEXT
10
265.200000
20
234.495000
30
0.000000
40
2.300000
1
액체에 닿는 모서리 R2 이상
50
0.000000
7
STANDARD
0
POLYLINE
8
FRAME
66
1
10
0.000000
20
0.000000
30
0.000000
70
1
0
VERTEX
8
FRAME
10
240.000000
20
227.200000
30
0.000000
0
VERTEX
8
FRAME
10
412.000000
20
227.200000
30
0.000000
0
VERTEX
8
FRAME
10
412.000000
20
232.600000
30
0.000000
0
VERTEX
8
FRAME
10
240.000000
20
232.600000
30
0.000000
0
SEQEND
8
FRAME
0
TEXT
8
TEXT
10
241.200000
20
229.095000
30
0.000000
40
2.300000
1
내면
50
0.000000
7
STANDARD
0
LINE
8
FRAME
10
264.000000
20
227.200000
30
0.000000
11
264.000000
21
232.600000
31
0.000000
0
TEXT
8
TEXT
10
265.200000
20
229.095000
30
0.000000
40
2.300000
1
Ra ≤ 0.8 · 용접부 평활 연삭
50
0.000000
7
STANDARD
0
POLYLINE
8
FRAME
66
1
10
0.000000
20
0.000000
30
0.000000
70
1
0
VERTEX
8
FRAME
10
240.000000
20
221.800000
30
0.000000
0
VERTEX
8
FRAME
10
412.000000
20
221.800000
30
0.000000
0
VERTEX
8
FRAME
10
412.000000
20
227.200000
30
0.000000
0
VERTEX
8
FRAME
10
240.000000
20
227.200000
30
0.000000
0
SEQEND
8
FRAME
0
TEXT
8
TEXT
10
241.200000
20
223.695000
30
0.000000
40
2.300000
1
후처리
50
0.000000
7
STANDARD
0
LINE
8
FRAME
10
264.000000
20
221.800000
30
0.000000
11
264.000000
21
227.200000
31
0.000000
0
TEXT
8
TEXT
10
265.200000
20
223.695000
30
0.000000
40
2.300000
1
산세 · 부동태화 (페록실 청색 반응 없을 것)
50
0.000000
7
STANDARD
0
TEXT
8
FRAME
10
240.000000
20
212.800000
30
0.000000
40
4.600000
1
구멍 좌표
50
0.000000
7
STANDARD
0
POLYLINE
8
FRAME
66
1
10
0.000000
20
0.000000
30
0.000000
70
1
0
VERTEX
8
FRAME
10
240.000000
20
204.800000
30
0.000000
0
VERTEX
8
FRAME
10
328.000000
20
204.800000
30
0.000000
0
VERTEX
8
FRAME
10
328.000000
20
209.800000
30
0.000000
0
VERTEX
8
FRAME
10
240.000000
20
209.800000
30
0.000000
0
SEQEND
8
FRAME
0
TEXT
8
FRAME
10
241.200000
20
206.530000
30
0.000000
40
2.200000
1
번호
50
0.000000
7
STANDARD
0
LINE
8
FRAME
10
256.000000
20
204.800000
30
0.000000
11
256.000000
21
209.800000
31
0.000000
0
TEXT
8
FRAME
10
257.200000
20
206.530000
30
0.000000
40
2.200000
1
X
50
0.000000
7
STANDARD
0
LINE
8
FRAME
10
282.000000
20
204.800000
30
0.000000
11
282.000000
21
209.800000
31
0.000000
0
TEXT
8
FRAME
10
283.200000
20
206.530000
30
0.000000
40
2.200000
1
Y
50
0.000000
7
STANDARD
0
LINE
8
FRAME
10
308.000000
20
204.800000
30
0.000000
11
308.000000
21
209.800000
31
0.000000
0
TEXT
8
FRAME
10
309.200000
20
206.530000
30
0.000000
40
2.200000
1
Ø
50
0.000000
7
STANDARD
0
POLYLINE
8
FRAME
66
1
10
0.000000
20
0.000000
30
0.000000
70
1
0
VERTEX
8
FRAME
10
240.000000
20
199.800000
30
0.000000
0
VERTEX
8
FRAME
10
328.000000
20
199.800000
30
0.000000
0
VERTEX
8
FRAME
10
328.000000
20
204.800000
30
0.000000
0
VERTEX
8
FRAME
10
240.000000
20
204.800000
30
0.000000
0
SEQEND
8
FRAME
0
TEXT
8
TEXT
10
241.200000
20
201.530000
30
0.000000
40
2.200000
1
H1
50
0.000000
7
STANDARD
0
LINE
8
FRAME
10
256.000000
20
199.800000
30
0.000000
11
256.000000
21
204.800000
31
0.000000
0
TEXT
8
TEXT
10
257.200000
20
201.530000
30
0.000000
40
2.200000
1
20.0
50
0.000000
7
STANDARD
0
LINE
8
FRAME
10
282.000000
20
199.800000
30
0.000000
11
282.000000
21
204.800000
31
0.000000
0
TEXT
8
TEXT
10
283.200000
20
201.530000
30
0.000000
40
2.200000
1
20.0
50
0.000000
7
STANDARD
0
LINE
8
FRAME
10
308.000000
20
199.800000
30
0.000000
11
308.000000
21
204.800000
31
0.000000
0
TEXT
8
TEXT
10
309.200000
20
201.530000
30
0.000000
40
2.200000
1
Ø49.52
50
0.000000
7
STANDARD
0
TEXT
8
NOTE
10
240.000000
20
195.800000
30
0.000000
40
2.100000
1
원점은 소재 왼쪽 아래 - 절단 DXF 의 원점과 같다
50
0.000000
7
STANDARD
0
TEXT
8
FRAME
10
240.000000
20
182.800000
30
0.000000
40
4.600000
1
주기
50
0.000000
7
STANDARD
0
TEXT
8
NOTE
10
240.000000
20
177.800000
30
0.000000
40
2.200000
1
· □40 × 40 × t2 × L510 - 중간 보강재 4 본
50
0.000000
7
STANDARD
0
TEXT
8
NOTE
10
240.000000
20
173.000000
30
0.000000
40
2.200000
1
· Z 중단 - 좌굴·비틀림 억제
50
0.000000
7
STANDARD
0
TEXT
8
NOTE
10
240.000000
20
168.200000
30
0.000000
40
2.200000
1
· 절단 길이 약 297 mm · 실면적 297 mm² · 질량 1.202 kg/개
50
0.000000
7
STANDARD
0
TEXT
8
NOTE
10
240.000000
20
163.400000
30
0.000000
40
2.200000
1
· 이 도면은 설계 계산에서 생성된다. 손으로 고치지 말 것 - 다시 생성하면 덮어쓴다.
50
0.000000
7
STANDARD
0
ENDSEC
0
EOF
