0
SECTION
2
HEADER
9
$ACADVER
1
AC1009
9
$DWGCODEPAGE
3
ANSI_949
9
$INSBASE
10
0.000000
20
0.000000
30
0.000000
9
$EXTMIN
10
10.000000
20
5.000000
30
0.000000
9
$EXTMAX
10
415.000000
20
292.000000
30
0.000000
9
$LUNITS
70
2
9
$INSUNITS
70
4
9
$LIMMIN
10
10.000000
20
5.000000
9
$LIMMAX
10
415.000000
20
292.000000
0
ENDSEC
0
SECTION
2
TABLES
0
TABLE
2
LTYPE
70
3
0
LTYPE
2
CONTINUOUS
70
64
3
Solid line
72
65
73
0
40
0.000000
0
LTYPE
2
DASHED
70
64
3
Dashed __ __ __ __
72
65
73
2
40
6.000000
49
4.000000
49
-2.000000
0
LTYPE
2
CENTER
70
64
3
Center ____ _ ____
72
65
73
4
40
12.000000
49
8.000000
49
-1.500000
49
1.000000
49
-1.500000
0
ENDTAB
0
TABLE
2
LAYER
70
10
0
LAYER
2
CUT
70
0
62
7
6
CONTINUOUS
0
LAYER
2
HOLE
70
0
62
7
6
CONTINUOUS
0
LAYER
2
BEND
70
0
62
6
6
DASHED
0
LAYER
2
MARK
70
0
62
4
6
CONTINUOUS
0
LAYER
2
CENTER
70
0
62
2
6
CENTER
0
LAYER
2
HIDDEN
70
0
62
8
6
DASHED
0
LAYER
2
DIM
70
0
62
3
6
CONTINUOUS
0
LAYER
2
TEXT
70
0
62
3
6
CONTINUOUS
0
LAYER
2
FRAME
70
0
62
7
6
CONTINUOUS
0
LAYER
2
NOTE
70
0
62
8
6
CONTINUOUS
0
ENDTAB
0
TABLE
2
STYLE
70
1
0
STYLE
2
STANDARD
70
0
40
0.000000
41
1.000000
50
0.000000
71
0
42
2.500000
3
txt
4

0
ENDTAB
0
ENDSEC
0
SECTION
2
BLOCKS
0
ENDSEC
0
SECTION
2
ENTITIES
0
POLYLINE
8
FRAME
66
1
10
0.000000
20
0.000000
30
0.000000
70
1
0
VERTEX
8
FRAME
10
12.000000
20
281.000000
30
0.000000
0
VERTEX
8
FRAME
10
30.310400
20
281.000000
30
0.000000
0
VERTEX
8
FRAME
10
30.310400
20
290.000000
30
0.000000
0
VERTEX
8
FRAME
10
12.000000
20
290.000000
30
0.000000
0
SEQEND
8
FRAME
0
TEXT
8
TEXT
10
14.000000
20
286.600000
30
0.000000
40
1.900000
1
재질
50
0.000000
7
STANDARD
0
TEXT
8
FRAME
10
14.000000
20
282.600000
30
0.000000
40
2.700000
1
SUS316L
50
0.000000
7
STANDARD
0
POLYLINE
8
FRAME
66
1
10
0.000000
20
0.000000
30
0.000000
70
1
0
VERTEX
8
FRAME
10
31.910400
20
281.000000
30
0.000000
0
VERTEX
8
FRAME
10
41.895296
20
281.000000
30
0.000000
0
VERTEX
8
FRAME
10
41.895296
20
290.000000
30
0.000000
0
VERTEX
8
FRAME
10
31.910400
20
290.000000
30
0.000000
0
SEQEND
8
FRAME
0
TEXT
8
TEXT
10
33.910400
20
286.600000
30
0.000000
40
1.900000
1
수량
50
0.000000
7
STANDARD
0
TEXT
8
FRAME
10
33.910400
20
282.600000
30
0.000000
40
2.700000
1
3 개
50
0.000000
7
STANDARD
0
POLYLINE
8
FRAME
66
1
10
0.000000
20
0.000000
30
0.000000
70
1
0
VERTEX
8
FRAME
10
43.495296
20
281.000000
30
0.000000
0
VERTEX
8
FRAME
10
53.295296
20
281.000000
30
0.000000
0
VERTEX
8
FRAME
10
53.295296
20
290.000000
30
0.000000
0
VERTEX
8
FRAME
10
43.495296
20
290.000000
30
0.000000
0
SEQEND
8
FRAME
0
TEXT
8
TEXT
10
45.495296
20
286.600000
30
0.000000
40
1.900000
1
형상
50
0.000000
7
STANDARD
0
TEXT
8
FRAME
10
45.495296
20
282.600000
30
0.000000
40
2.700000
1
절곡
50
0.000000
7
STANDARD
0
POLYLINE
8
FRAME
66
1
10
0.000000
20
0.000000
30
0.000000
70
1
0
VERTEX
8
FRAME
10
54.895296
20
281.000000
30
0.000000
0
VERTEX
8
FRAME
10
67.503296
20
281.000000
30
0.000000
0
VERTEX
8
FRAME
10
67.503296
20
290.000000
30
0.000000
0
VERTEX
8
FRAME
10
54.895296
20
290.000000
30
0.000000
0
SEQEND
8
FRAME
0
TEXT
8
TEXT
10
56.895296
20
286.600000
30
0.000000
40
1.900000
1
두께·길이
50
0.000000
7
STANDARD
0
TEXT
8
FRAME
10
56.895296
20
282.600000
30
0.000000
40
2.700000
1
3 mm
50
0.000000
7
STANDARD
0
POLYLINE
8
FRAME
66
1
10
0.000000
20
0.000000
30
0.000000
70
1
0
VERTEX
8
FRAME
10
69.103296
20
281.000000
30
0.000000
0
VERTEX
8
FRAME
10
93.086720
20
281.000000
30
0.000000
0
VERTEX
8
FRAME
10
93.086720
20
290.000000
30
0.000000
0
VERTEX
8
FRAME
10
69.103296
20
290.000000
30
0.000000
0
SEQEND
8
FRAME
0
TEXT
8
TEXT
10
71.103296
20
286.600000
30
0.000000
40
1.900000
1
일반공차
50
0.000000
7
STANDARD
0
TEXT
8
FRAME
10
71.103296
20
282.600000
30
0.000000
40
2.700000
1
ISO 2768-mK
50
0.000000
7
STANDARD
0
POLYLINE
8
FRAME
66
1
10
0.000000
20
0.000000
30
0.000000
70
1
0
VERTEX
8
FRAME
10
94.686720
20
281.000000
30
0.000000
0
VERTEX
8
FRAME
10
113.332784
20
281.000000
30
0.000000
0
VERTEX
8
FRAME
10
113.332784
20
290.000000
30
0.000000
0
VERTEX
8
FRAME
10
94.686720
20
290.000000
30
0.000000
0
SEQEND
8
FRAME
0
TEXT
8
TEXT
10
96.686720
20
286.600000
30
0.000000
40
1.900000
1
설계확정도
50
0.000000
7
STANDARD
0
TEXT
8
FRAME
10
96.686720
20
282.600000
30
0.000000
40
2.700000
1
RELEASE
50
0.000000
7
STANDARD
0
POLYLINE
8
CUT
66
1
10
0.000000
20
0.000000
30
0.000000
70
1
0
VERTEX
8
CUT
10
52.000000
20
167.000000
30
0.000000
0
VERTEX
8
CUT
10
192.000000
20
167.000000
30
0.000000
42
0.414214
0
VERTEX
8
CUT
10
197.000000
20
172.000000
30
0.000000
0
VERTEX
8
CUT
10
197.000000
20
237.000000
30
0.000000
42
0.414214
0
VERTEX
8
CUT
10
192.000000
20
242.000000
30
0.000000
0
VERTEX
8
CUT
10
52.000000
20
242.000000
30
0.000000
42
0.414214
0
VERTEX
8
CUT
10
47.000000
20
237.000000
30
0.000000
0
VERTEX
8
CUT
10
47.000000
20
172.000000
30
0.000000
42
0.414214
0
SEQEND
8
CUT
0
POLYLINE
8
HOLE
66
1
10
0.000000
20
0.000000
30
0.000000
70
1
0
VERTEX
8
HOLE
10
138.250000
20
204.500000
30
0.000000
42
-1.000000
0
VERTEX
8
HOLE
10
170.750000
20
204.500000
30
0.000000
42
-1.000000
0
SEQEND
8
HOLE
0
LINE
8
BEND
10
112.000000
20
167.000000
30
0.000000
11
112.000000
21
242.000000
31
0.000000
0
LINE
8
CENTER
10
135.750000
20
204.500000
30
0.000000
11
173.250000
21
204.500000
31
0.000000
0
LINE
8
CENTER
10
154.500000
20
185.750000
30
0.000000
11
154.500000
21
223.250000
31
0.000000
0
POLYLINE
8
FRAME
66
1
10
0.000000
20
0.000000
30
0.000000
70
1
0
VERTEX
8
FRAME
10
10.000000
20
5.000000
30
0.000000
0
VERTEX
8
FRAME
10
415.000000
20
5.000000
30
0.000000
0
VERTEX
8
FRAME
10
415.000000
20
292.000000
30
0.000000
0
VERTEX
8
FRAME
10
10.000000
20
292.000000
30
0.000000
0
SEQEND
8
FRAME
0
POLYLINE
8
FRAME
66
1
10
0.000000
20
0.000000
30
0.000000
70
1
0
VERTEX
8
FRAME
10
237.000000
20
5.000000
30
0.000000
0
VERTEX
8
FRAME
10
415.000000
20
5.000000
30
0.000000
0
VERTEX
8
FRAME
10
415.000000
20
35.000000
30
0.000000
0
VERTEX
8
FRAME
10
237.000000
20
35.000000
30
0.000000
0
SEQEND
8
FRAME
0
LINE
8
FRAME
10
237.000000
20
22.000000
30
0.000000
11
415.000000
21
22.000000
31
0.000000
0
LINE
8
FRAME
10
355.000000
20
5.000000
30
0.000000
11
355.000000
21
35.000000
31
0.000000
0
TEXT
8
FRAME
10
240.000000
20
28.000000
30
0.000000
40
6.000000
1
F-04 고정 브래킷
50
0.000000
7
STANDARD
0
TEXT
8
TEXT
10
240.000000
20
23.600000
30
0.000000
40
2.400000
1
t3 절곡, 콘 내면 용접
50
0.000000
7
STANDARD
0
TEXT
8
TEXT
10
240.000000
20
18.600000
30
0.000000
40
1.900000
1
도면번호
50
0.000000
7
STANDARD
0
TEXT
8
TEXT
10
240.000000
20
14.600000
30
0.000000
40
2.700000
1
MP50-C-F-04
50
0.000000
7
STANDARD
0
TEXT
8
TEXT
10
279.000000
20
18.600000
30
0.000000
40
1.900000
1
축척
50
0.000000
7
STANDARD
0
TEXT
8
TEXT
10
279.000000
20
14.600000
30
0.000000
40
2.700000
1
2.5:1
50
0.000000
7
STANDARD
0
TEXT
8
TEXT
10
318.000000
20
18.600000
30
0.000000
40
1.900000
1
단위
50
0.000000
7
STANDARD
0
TEXT
8
TEXT
10
318.000000
20
14.600000
30
0.000000
40
2.700000
1
mm
50
0.000000
7
STANDARD
0
TEXT
8
TEXT
10
240.000000
20
11.000000
30
0.000000
40
1.900000
1
Rev
50
0.000000
7
STANDARD
0
TEXT
8
TEXT
10
240.000000
20
7.000000
30
0.000000
40
2.700000
1
R1
50
0.000000
7
STANDARD
0
TEXT
8
TEXT
10
279.000000
20
11.000000
30
0.000000
40
1.900000
1
날짜
50
0.000000
7
STANDARD
0
TEXT
8
TEXT
10
279.000000
20
7.000000
30
0.000000
40
2.700000
1
2026-09-10
50
0.000000
7
STANDARD
0
TEXT
8
TEXT
10
318.000000
20
11.000000
30
0.000000
40
1.900000
1
시트
50
0.000000
7
STANDARD
0
TEXT
8
TEXT
10
318.000000
20
7.000000
30
0.000000
40
2.700000
1
24/33
50
0.000000
7
STANDARD
0
TEXT
8
FRAME
10
358.000000
20
29.000000
30
0.000000
40
2.700000
1
DYNAMIC INDUSTRY
50
0.000000
7
STANDARD
0
TEXT
8
TEXT
10
358.000000
20
24.600000
30
0.000000
40
2.000000
1
MP-50 염수 밀도분리 파일럿
50
0.000000
7
STANDARD
0
TEXT
8
TEXT
10
358.000000
20
15.000000
30
0.000000
40
2.000000
1
아세이 F · 급기 분산링 아세이
50
0.000000
7
STANDARD
0
TEXT
8
TEXT
10
358.000000
20
10.400000
30
0.000000
40
2.000000
1
설계 계산 자동생성 · 제3각법
50
0.000000
7
STANDARD
0
TEXT
8
FRAME
10
14.000000
20
262.000000
30
0.000000
40
4.600000
1
평면
50
0.000000
7
STANDARD
0
TEXT
8
TEXT
10
40.000000
20
262.000000
30
0.000000
40
2.400000
1
척도 2.5:1
50
0.000000
7
STANDARD
0
LINE
8
DIM
10
47.000000
20
167.000000
30
0.000000
11
47.000000
21
156.400000
31
0.000000
0
LINE
8
DIM
10
197.000000
20
167.000000
30
0.000000
11
197.000000
21
156.400000
31
0.000000
0
LINE
8
DIM
10
47.000000
20
158.000000
30
0.000000
11
197.000000
21
158.000000
31
0.000000
0
SOLID
8
DIM
10
47.000000
20
158.000000
30
0.000000
11
49.500000
21
157.200000
31
0.000000
12
49.500000
22
158.800000
32
0.000000
13
49.500000
23
158.800000
33
0.000000
0
SOLID
8
DIM
10
197.000000
20
158.000000
30
0.000000
11
194.500000
21
158.800000
31
0.000000
12
194.500000
22
157.200000
32
0.000000
13
194.500000
23
157.200000
33
0.000000
0
TEXT
8
DIM
10
122.000000
20
159.750000
30
0.000000
40
3.500000
1
60
50
0.000000
7
STANDARD
72
1
11
122.000000
21
159.750000
31
0.000000
0
LINE
8
DIM
10
47.000000
20
167.000000
30
0.000000
11
36.400000
21
167.000000
31
0.000000
0
LINE
8
DIM
10
47.000000
20
242.000000
30
0.000000
11
36.400000
21
242.000000
31
0.000000
0
LINE
8
DIM
10
38.000000
20
167.000000
30
0.000000
11
38.000000
21
242.000000
31
0.000000
0
SOLID
8
DIM
10
38.000000
20
167.000000
30
0.000000
11
38.800000
21
169.500000
31
0.000000
12
37.200000
22
169.500000
32
0.000000
13
37.200000
23
169.500000
33
0.000000
0
SOLID
8
DIM
10
38.000000
20
242.000000
30
0.000000
11
37.200000
21
239.500000
31
0.000000
12
38.800000
22
239.500000
32
0.000000
13
38.800000
23
239.500000
33
0.000000
0
TEXT
8
DIM
10
36.250000
20
204.500000
30
0.000000
40
3.500000
1
30
50
90.000000
7
STANDARD
72
1
11
36.250000
21
204.500000
31
0.000000
0
POLYLINE
8
CUT
66
1
10
0.000000
20
0.000000
30
0.000000
70
1
0
VERTEX
8
CUT
10
47.000000
20
127.000000
30
0.000000
0
VERTEX
8
CUT
10
167.000000
20
127.000000
30
0.000000
0
VERTEX
8
CUT
10
167.000000
20
133.000000
30
0.000000
0
VERTEX
8
CUT
10
47.000000
20
133.000000
30
0.000000
0
SEQEND
8
CUT
0
TEXT
8
FRAME
10
14.000000
20
139.000000
30
0.000000
40
4.600000
1
두께
50
0.000000
7
STANDARD
0
LINE
8
DIM
10
167.000000
20
127.000000
30
0.000000
11
177.600000
21
127.000000
31
0.000000
0
LINE
8
DIM
10
167.000000
20
133.000000
30
0.000000
11
177.600000
21
133.000000
31
0.000000
0
LINE
8
DIM
10
176.000000
20
127.000000
30
0.000000
11
176.000000
21
133.000000
31
0.000000
0
SOLID
8
DIM
10
176.000000
20
127.000000
30
0.000000
11
176.800000
21
129.500000
31
0.000000
12
175.200000
22
129.500000
32
0.000000
13
175.200000
23
129.500000
33
0.000000
0
SOLID
8
DIM
10
176.000000
20
133.000000
30
0.000000
11
175.200000
21
130.500000
31
0.000000
12
176.800000
22
130.500000
32
0.000000
13
176.800000
23
130.500000
33
0.000000
0
TEXT
8
DIM
10
174.250000
20
130.000000
30
0.000000
40
3.500000
1
t3
50
90.000000
7
STANDARD
72
1
11
174.250000
21
130.000000
31
0.000000
0
TEXT
8
FRAME
10
240.000000
20
268.000000
30
0.000000
40
4.600000
1
소재 · 마감
50
0.000000
7
STANDARD
0
POLYLINE
8
FRAME
66
1
10
0.000000
20
0.000000
30
0.000000
70
1
0
VERTEX
8
FRAME
10
240.000000
20
259.600000
30
0.000000
0
VERTEX
8
FRAME
10
412.000000
20
259.600000
30
0.000000
0
VERTEX
8
FRAME
10
412.000000
20
265.000000
30
0.000000
0
VERTEX
8
FRAME
10
240.000000
20
265.000000
30
0.000000
0
SEQEND
8
FRAME
0
TEXT
8
FRAME
10
241.200000
20
261.495000
30
0.000000
40
2.300000
1
항목
50
0.000000
7
STANDARD
0
LINE
8
FRAME
10
264.000000
20
259.600000
30
0.000000
11
264.000000
21
265.000000
31
0.000000
0
TEXT
8
FRAME
10
265.200000
20
261.495000
30
0.000000
40
2.300000
1
값
50
0.000000
7
STANDARD
0
POLYLINE
8
FRAME
66
1
10
0.000000
20
0.000000
30
0.000000
70
1
0
VERTEX
8
FRAME
10
240.000000
20
254.200000
30
0.000000
0
VERTEX
8
FRAME
10
412.000000
20
254.200000
30
0.000000
0
VERTEX
8
FRAME
10
412.000000
20
259.600000
30
0.000000
0
VERTEX
8
FRAME
10
240.000000
20
259.600000
30
0.000000
0
SEQEND
8
FRAME
0
TEXT
8
TEXT
10
241.200000
20
256.095000
30
0.000000
40
2.300000
1
재질
50
0.000000
7
STANDARD
0
LINE
8
FRAME
10
264.000000
20
254.200000
30
0.000000
11
264.000000
21
259.600000
31
0.000000
0
TEXT
8
TEXT
10
265.200000
20
256.095000
30
0.000000
40
2.300000
1
SUS316L
50
0.000000
7
STANDARD
0
POLYLINE
8
FRAME
66
1
10
0.000000
20
0.000000
30
0.000000
70
1
0
VERTEX
8
FRAME
10
240.000000
20
248.800000
30
0.000000
0
VERTEX
8
FRAME
10
412.000000
20
248.800000
30
0.000000
0
VERTEX
8
FRAME
10
412.000000
20
254.200000
30
0.000000
0
VERTEX
8
FRAME
10
240.000000
20
254.200000
30
0.000000
0
SEQEND
8
FRAME
0
TEXT
8
TEXT
10
241.200000
20
250.695000
30
0.000000
40
2.300000
1
소재
50
0.000000
7
STANDARD
0
LINE
8
FRAME
10
264.000000
20
248.800000
30
0.000000
11
264.000000
21
254.200000
31
0.000000
0
TEXT
8
TEXT
10
265.200000
20
250.695000
30
0.000000
40
2.300000
1
SUS316L t3 판재 70 × 40
50
0.000000
7
STANDARD
0
POLYLINE
8
FRAME
66
1
10
0.000000
20
0.000000
30
0.000000
70
1
0
VERTEX
8
FRAME
10
240.000000
20
243.400000
30
0.000000
0
VERTEX
8
FRAME
10
412.000000
20
243.400000
30
0.000000
0
VERTEX
8
FRAME
10
412.000000
20
248.800000
30
0.000000
0
VERTEX
8
FRAME
10
240.000000
20
248.800000
30
0.000000
0
SEQEND
8
FRAME
0
TEXT
8
TEXT
10
241.200000
20
245.295000
30
0.000000
40
2.300000
1
형상
50
0.000000
7
STANDARD
0
LINE
8
FRAME
10
264.000000
20
243.400000
30
0.000000
11
264.000000
21
248.800000
31
0.000000
0
TEXT
8
TEXT
10
265.200000
20
245.295000
30
0.000000
40
2.300000
1
절곡
50
0.000000
7
STANDARD
0
POLYLINE
8
FRAME
66
1
10
0.000000
20
0.000000
30
0.000000
70
1
0
VERTEX
8
FRAME
10
240.000000
20
238.000000
30
0.000000
0
VERTEX
8
FRAME
10
412.000000
20
238.000000
30
0.000000
0
VERTEX
8
FRAME
10
412.000000
20
243.400000
30
0.000000
0
VERTEX
8
FRAME
10
240.000000
20
243.400000
30
0.000000
0
SEQEND
8
FRAME
0
TEXT
8
TEXT
10
241.200000
20
239.895000
30
0.000000
40
2.300000
1
일반공차
50
0.000000
7
STANDARD
0
LINE
8
FRAME
10
264.000000
20
238.000000
30
0.000000
11
264.000000
21
243.400000
31
0.000000
0
TEXT
8
TEXT
10
265.200000
20
239.895000
30
0.000000
40
2.300000
1
ISO 2768-mK · 기입 치수 우선
50
0.000000
7
STANDARD
0
POLYLINE
8
FRAME
66
1
10
0.000000
20
0.000000
30
0.000000
70
1
0
VERTEX
8
FRAME
10
240.000000
20
232.600000
30
0.000000
0
VERTEX
8
FRAME
10
412.000000
20
232.600000
30
0.000000
0
VERTEX
8
FRAME
10
412.000000
20
238.000000
30
0.000000
0
VERTEX
8
FRAME
10
240.000000
20
238.000000
30
0.000000
0
SEQEND
8
FRAME
0
TEXT
8
TEXT
10
241.200000
20
234.495000
30
0.000000
40
2.300000
1
모서리
50
0.000000
7
STANDARD
0
LINE
8
FRAME
10
264.000000
20
232.600000
30
0.000000
11
264.000000
21
238.000000
31
0.000000
0
TEXT
8
TEXT
10
265.200000
20
234.495000
30
0.000000
40
2.300000
1
액체에 닿는 모서리 R2 이상
50
0.000000
7
STANDARD
0
POLYLINE
8
FRAME
66
1
10
0.000000
20
0.000000
30
0.000000
70
1
0
VERTEX
8
FRAME
10
240.000000
20
227.200000
30
0.000000
0
VERTEX
8
FRAME
10
412.000000
20
227.200000
30
0.000000
0
VERTEX
8
FRAME
10
412.000000
20
232.600000
30
0.000000
0
VERTEX
8
FRAME
10
240.000000
20
232.600000
30
0.000000
0
SEQEND
8
FRAME
0
TEXT
8
TEXT
10
241.200000
20
229.095000
30
0.000000
40
2.300000
1
내면
50
0.000000
7
STANDARD
0
LINE
8
FRAME
10
264.000000
20
227.200000
30
0.000000
11
264.000000
21
232.600000
31
0.000000
0
TEXT
8
TEXT
10
265.200000
20
229.095000
30
0.000000
40
2.300000
1
Ra ≤ 0.8 · 용접부 평활 연삭
50
0.000000
7
STANDARD
0
POLYLINE
8
FRAME
66
1
10
0.000000
20
0.000000
30
0.000000
70
1
0
VERTEX
8
FRAME
10
240.000000
20
221.800000
30
0.000000
0
VERTEX
8
FRAME
10
412.000000
20
221.800000
30
0.000000
0
VERTEX
8
FRAME
10
412.000000
20
227.200000
30
0.000000
0
VERTEX
8
FRAME
10
240.000000
20
227.200000
30
0.000000
0
SEQEND
8
FRAME
0
TEXT
8
TEXT
10
241.200000
20
223.695000
30
0.000000
40
2.300000
1
후처리
50
0.000000
7
STANDARD
0
LINE
8
FRAME
10
264.000000
20
221.800000
30
0.000000
11
264.000000
21
227.200000
31
0.000000
0
TEXT
8
TEXT
10
265.200000
20
223.695000
30
0.000000
40
2.300000
1
산세 · 부동태화 (페록실 청색 반응 없을 것)
50
0.000000
7
STANDARD
0
TEXT
8
FRAME
10
240.000000
20
212.800000
30
0.000000
40
4.600000
1
구멍표
50
0.000000
7
STANDARD
0
POLYLINE
8
FRAME
66
1
10
0.000000
20
0.000000
30
0.000000
70
1
0
VERTEX
8
FRAME
10
240.000000
20
204.800000
30
0.000000
0
VERTEX
8
FRAME
10
412.000000
20
204.800000
30
0.000000
0
VERTEX
8
FRAME
10
412.000000
20
209.800000
30
0.000000
0
VERTEX
8
FRAME
10
240.000000
20
209.800000
30
0.000000
0
SEQEND
8
FRAME
0
TEXT
8
FRAME
10
241.200000
20
206.530000
30
0.000000
40
2.200000
1
Ø
50
0.000000
7
STANDARD
0
LINE
8
FRAME
10
256.000000
20
204.800000
30
0.000000
11
256.000000
21
209.800000
31
0.000000
0
TEXT
8
FRAME
10
257.200000
20
206.530000
30
0.000000
40
2.200000
1
수
50
0.000000
7
STANDARD
0
LINE
8
FRAME
10
266.000000
20
204.800000
30
0.000000
11
266.000000
21
209.800000
31
0.000000
0
TEXT
8
FRAME
10
267.200000
20
206.530000
30
0.000000
40
2.200000
1
설명
50
0.000000
7
STANDARD
0
POLYLINE
8
FRAME
66
1
10
0.000000
20
0.000000
30
0.000000
70
1
0
VERTEX
8
FRAME
10
240.000000
20
199.800000
30
0.000000
0
VERTEX
8
FRAME
10
412.000000
20
199.800000
30
0.000000
0
VERTEX
8
FRAME
10
412.000000
20
204.800000
30
0.000000
0
VERTEX
8
FRAME
10
240.000000
20
204.800000
30
0.000000
0
SEQEND
8
FRAME
0
TEXT
8
TEXT
10
241.200000
20
201.530000
30
0.000000
40
2.200000
1
Ø13
50
0.000000
7
STANDARD
0
LINE
8
FRAME
10
256.000000
20
199.800000
30
0.000000
11
256.000000
21
204.800000
31
0.000000
0
TEXT
8
TEXT
10
257.200000
20
201.530000
30
0.000000
40
2.200000
1
1
50
0.000000
7
STANDARD
0
LINE
8
FRAME
10
266.000000
20
199.800000
30
0.000000
11
266.000000
21
204.800000
31
0.000000
0
TEXT
8
TEXT
10
267.200000
20
201.530000
30
0.000000
40
2.200000
1
Ø12 관 자리 - 끼우고 필릿 용접
50
0.000000
7
STANDARD
0
TEXT
8
FRAME
10
240.000000
20
190.800000
30
0.000000
40
4.600000
1
구멍 좌표
50
0.000000
7
STANDARD
0
POLYLINE
8
FRAME
66
1
10
0.000000
20
0.000000
30
0.000000
70
1
0
VERTEX
8
FRAME
10
240.000000
20
182.800000
30
0.000000
0
VERTEX
8
FRAME
10
328.000000
20
182.800000
30
0.000000
0
VERTEX
8
FRAME
10
328.000000
20
187.800000
30
0.000000
0
VERTEX
8
FRAME
10
240.000000
20
187.800000
30
0.000000
0
SEQEND
8
FRAME
0
TEXT
8
FRAME
10
241.200000
20
184.530000
30
0.000000
40
2.200000
1
번호
50
0.000000
7
STANDARD
0
LINE
8
FRAME
10
256.000000
20
182.800000
30
0.000000
11
256.000000
21
187.800000
31
0.000000
0
TEXT
8
FRAME
10
257.200000
20
184.530000
30
0.000000
40
2.200000
1
X
50
0.000000
7
STANDARD
0
LINE
8
FRAME
10
282.000000
20
182.800000
30
0.000000
11
282.000000
21
187.800000
31
0.000000
0
TEXT
8
FRAME
10
283.200000
20
184.530000
30
0.000000
40
2.200000
1
Y
50
0.000000
7
STANDARD
0
LINE
8
FRAME
10
308.000000
20
182.800000
30
0.000000
11
308.000000
21
187.800000
31
0.000000
0
TEXT
8
FRAME
10
309.200000
20
184.530000
30
0.000000
40
2.200000
1
Ø
50
0.000000
7
STANDARD
0
POLYLINE
8
FRAME
66
1
10
0.000000
20
0.000000
30
0.000000
70
1
0
VERTEX
8
FRAME
10
240.000000
20
177.800000
30
0.000000
0
VERTEX
8
FRAME
10
328.000000
20
177.800000
30
0.000000
0
VERTEX
8
FRAME
10
328.000000
20
182.800000
30
0.000000
0
VERTEX
8
FRAME
10
240.000000
20
182.800000
30
0.000000
0
SEQEND
8
FRAME
0
TEXT
8
TEXT
10
241.200000
20
179.530000
30
0.000000
40
2.200000
1
H1
50
0.000000
7
STANDARD
0
LINE
8
FRAME
10
256.000000
20
177.800000
30
0.000000
11
256.000000
21
182.800000
31
0.000000
0
TEXT
8
TEXT
10
257.200000
20
179.530000
30
0.000000
40
2.200000
1
43.0
50
0.000000
7
STANDARD
0
LINE
8
FRAME
10
282.000000
20
177.800000
30
0.000000
11
282.000000
21
182.800000
31
0.000000
0
TEXT
8
TEXT
10
283.200000
20
179.530000
30
0.000000
40
2.200000
1
15.0
50
0.000000
7
STANDARD
0
LINE
8
FRAME
10
308.000000
20
177.800000
30
0.000000
11
308.000000
21
182.800000
31
0.000000
0
TEXT
8
TEXT
10
309.200000
20
179.530000
30
0.000000
40
2.200000
1
Ø13
50
0.000000
7
STANDARD
0
TEXT
8
NOTE
10
240.000000
20
173.800000
30
0.000000
40
2.100000
1
원점은 소재 왼쪽 아래 - 절단 DXF 의 원점과 같다
50
0.000000
7
STANDARD
0
TEXT
8
FRAME
10
240.000000
20
160.800000
30
0.000000
40
4.600000
1
절곡표
50
0.000000
7
STANDARD
0
POLYLINE
8
FRAME
66
1
10
0.000000
20
0.000000
30
0.000000
70
1
0
VERTEX
8
FRAME
10
240.000000
20
152.800000
30
0.000000
0
VERTEX
8
FRAME
10
412.000000
20
152.800000
30
0.000000
0
VERTEX
8
FRAME
10
412.000000
20
157.800000
30
0.000000
0
VERTEX
8
FRAME
10
240.000000
20
157.800000
30
0.000000
0
SEQEND
8
FRAME
0
TEXT
8
FRAME
10
241.200000
20
154.565000
30
0.000000
40
2.100000
1
각도
50
0.000000
7
STANDARD
0
LINE
8
FRAME
10
254.000000
20
152.800000
30
0.000000
11
254.000000
21
157.800000
31
0.000000
0
TEXT
8
FRAME
10
255.200000
20
154.565000
30
0.000000
40
2.100000
1
방향
50
0.000000
7
STANDARD
0
LINE
8
FRAME
10
270.000000
20
152.800000
30
0.000000
11
270.000000
21
157.800000
31
0.000000
0
TEXT
8
FRAME
10
271.200000
20
154.565000
30
0.000000
40
2.100000
1
안쪽 R
50
0.000000
7
STANDARD
0
LINE
8
FRAME
10
284.000000
20
152.800000
30
0.000000
11
284.000000
21
157.800000
31
0.000000
0
TEXT
8
FRAME
10
285.200000
20
154.565000
30
0.000000
40
2.100000
1
설명
50
0.000000
7
STANDARD
0
POLYLINE
8
FRAME
66
1
10
0.000000
20
0.000000
30
0.000000
70
1
0
VERTEX
8
FRAME
10
240.000000
20
147.800000
30
0.000000
0
VERTEX
8
FRAME
10
412.000000
20
147.800000
30
0.000000
0
VERTEX
8
FRAME
10
412.000000
20
152.800000
30
0.000000
0
VERTEX
8
FRAME
10
240.000000
20
152.800000
30
0.000000
0
SEQEND
8
FRAME
0
TEXT
8
TEXT
10
241.200000
20
149.565000
30
0.000000
40
2.100000
1
60°
50
0.000000
7
STANDARD
0
LINE
8
FRAME
10
254.000000
20
147.800000
30
0.000000
11
254.000000
21
152.800000
31
0.000000
0
TEXT
8
TEXT
10
255.200000
20
149.565000
30
0.000000
40
2.100000
1
위로
50
0.000000
7
STANDARD
0
LINE
8
FRAME
10
270.000000
20
147.800000
30
0.000000
11
270.000000
21
152.800000
31
0.000000
0
TEXT
8
TEXT
10
271.200000
20
149.565000
30
0.000000
40
2.100000
1
R1.5
50
0.000000
7
STANDARD
0
LINE
8
FRAME
10
284.000000
20
147.800000
30
0.000000
11
284.000000
21
152.800000
31
0.000000
0
TEXT
8
TEXT
10
285.200000
20
149.565000
30
0.000000
40
2.100000
1
콘 반각 30° 의 보각 · 안쪽 R1.5
50
0.000000
7
STANDARD
0
TEXT
8
FRAME
10
240.000000
20
138.800000
30
0.000000
40
4.600000
1
주기
50
0.000000
7
STANDARD
0
TEXT
8
NOTE
10
240.000000
20
133.800000
30
0.000000
40
2.200000
1
· t3 · 1 회 굽힘 · 콘 내면 60° 에 맞춘다 · 3 개소
50
0.000000
7
STANDARD
0
TEXT
8
NOTE
10
240.000000
20
129.000000
30
0.000000
40
2.200000
1
· 120° 등분 · 링 편심 ≤3
50
0.000000
7
STANDARD
0
TEXT
8
NOTE
10
240.000000
20
124.200000
30
0.000000
40
2.200000
1
· 3D - 3D 는 굽히기 전 평판이다.
50
0.000000
7
STANDARD
0
TEXT
8
NOTE
10
240.000000
20
119.400000
30
0.000000
40
2.200000
1
· 절단 길이 약 217 mm · 실면적 1664 mm² · 질량 0.040 kg/개
50
0.000000
7
STANDARD
0
TEXT
8
NOTE
10
240.000000
20
114.600000
30
0.000000
40
2.200000
1
· 이 도면은 설계 계산에서 생성된다. 손으로 고치지 말 것 - 다시 생성하면 덮어쓴다.
50
0.000000
7
STANDARD
0
ENDSEC
0
EOF
