0
SECTION
2
HEADER
9
$ACADVER
1
AC1009
9
$DWGCODEPAGE
3
ANSI_949
9
$INSBASE
10
0.000000
20
0.000000
30
0.000000
9
$EXTMIN
10
10.000000
20
5.000000
30
0.000000
9
$EXTMAX
10
415.000000
20
292.000000
30
0.000000
9
$LUNITS
70
2
9
$INSUNITS
70
4
9
$LIMMIN
10
10.000000
20
5.000000
9
$LIMMAX
10
415.000000
20
292.000000
0
ENDSEC
0
SECTION
2
TABLES
0
TABLE
2
LTYPE
70
3
0
LTYPE
2
CONTINUOUS
70
64
3
Solid line
72
65
73
0
40
0.000000
0
LTYPE
2
DASHED
70
64
3
Dashed __ __ __ __
72
65
73
2
40
6.000000
49
4.000000
49
-2.000000
0
LTYPE
2
CENTER
70
64
3
Center ____ _ ____
72
65
73
4
40
12.000000
49
8.000000
49
-1.500000
49
1.000000
49
-1.500000
0
ENDTAB
0
TABLE
2
LAYER
70
10
0
LAYER
2
CUT
70
0
62
7
6
CONTINUOUS
0
LAYER
2
HOLE
70
0
62
7
6
CONTINUOUS
0
LAYER
2
BEND
70
0
62
6
6
DASHED
0
LAYER
2
MARK
70
0
62
4
6
CONTINUOUS
0
LAYER
2
CENTER
70
0
62
2
6
CENTER
0
LAYER
2
HIDDEN
70
0
62
8
6
DASHED
0
LAYER
2
DIM
70
0
62
3
6
CONTINUOUS
0
LAYER
2
TEXT
70
0
62
3
6
CONTINUOUS
0
LAYER
2
FRAME
70
0
62
7
6
CONTINUOUS
0
LAYER
2
NOTE
70
0
62
8
6
CONTINUOUS
0
ENDTAB
0
TABLE
2
STYLE
70
1
0
STYLE
2
STANDARD
70
0
40
0.000000
41
1.000000
50
0.000000
71
0
42
2.500000
3
txt
4

0
ENDTAB
0
ENDSEC
0
SECTION
2
BLOCKS
0
ENDSEC
0
SECTION
2
ENTITIES
0
POLYLINE
8
FRAME
66
1
10
0.000000
20
0.000000
30
0.000000
70
1
0
VERTEX
8
FRAME
10
12.000000
20
281.000000
30
0.000000
0
VERTEX
8
FRAME
10
28.275248
20
281.000000
30
0.000000
0
VERTEX
8
FRAME
10
28.275248
20
290.000000
30
0.000000
0
VERTEX
8
FRAME
10
12.000000
20
290.000000
30
0.000000
0
SEQEND
8
FRAME
0
TEXT
8
TEXT
10
14.000000
20
286.600000
30
0.000000
40
1.900000
1
재질
50
0.000000
7
STANDARD
0
TEXT
8
FRAME
10
14.000000
20
282.600000
30
0.000000
40
2.700000
1
SUS304
50
0.000000
7
STANDARD
0
POLYLINE
8
FRAME
66
1
10
0.000000
20
0.000000
30
0.000000
70
1
0
VERTEX
8
FRAME
10
29.875248
20
281.000000
30
0.000000
0
VERTEX
8
FRAME
10
39.860144
20
281.000000
30
0.000000
0
VERTEX
8
FRAME
10
39.860144
20
290.000000
30
0.000000
0
VERTEX
8
FRAME
10
29.875248
20
290.000000
30
0.000000
0
SEQEND
8
FRAME
0
TEXT
8
TEXT
10
31.875248
20
286.600000
30
0.000000
40
1.900000
1
수량
50
0.000000
7
STANDARD
0
TEXT
8
FRAME
10
31.875248
20
282.600000
30
0.000000
40
2.700000
1
1 개
50
0.000000
7
STANDARD
0
POLYLINE
8
FRAME
66
1
10
0.000000
20
0.000000
30
0.000000
70
1
0
VERTEX
8
FRAME
10
41.460144
20
281.000000
30
0.000000
0
VERTEX
8
FRAME
10
51.260144
20
281.000000
30
0.000000
0
VERTEX
8
FRAME
10
51.260144
20
290.000000
30
0.000000
0
VERTEX
8
FRAME
10
41.460144
20
290.000000
30
0.000000
0
SEQEND
8
FRAME
0
TEXT
8
TEXT
10
43.460144
20
286.600000
30
0.000000
40
1.900000
1
형상
50
0.000000
7
STANDARD
0
TEXT
8
FRAME
10
43.460144
20
282.600000
30
0.000000
40
2.700000
1
전개
50
0.000000
7
STANDARD
0
POLYLINE
8
FRAME
66
1
10
0.000000
20
0.000000
30
0.000000
70
1
0
VERTEX
8
FRAME
10
52.860144
20
281.000000
30
0.000000
0
VERTEX
8
FRAME
10
65.468144
20
281.000000
30
0.000000
0
VERTEX
8
FRAME
10
65.468144
20
290.000000
30
0.000000
0
VERTEX
8
FRAME
10
52.860144
20
290.000000
30
0.000000
0
SEQEND
8
FRAME
0
TEXT
8
TEXT
10
54.860144
20
286.600000
30
0.000000
40
1.900000
1
두께·길이
50
0.000000
7
STANDARD
0
TEXT
8
FRAME
10
54.860144
20
282.600000
30
0.000000
40
2.700000
1
3 mm
50
0.000000
7
STANDARD
0
POLYLINE
8
FRAME
66
1
10
0.000000
20
0.000000
30
0.000000
70
1
0
VERTEX
8
FRAME
10
67.068144
20
281.000000
30
0.000000
0
VERTEX
8
FRAME
10
91.051568
20
281.000000
30
0.000000
0
VERTEX
8
FRAME
10
91.051568
20
290.000000
30
0.000000
0
VERTEX
8
FRAME
10
67.068144
20
290.000000
30
0.000000
0
SEQEND
8
FRAME
0
TEXT
8
TEXT
10
69.068144
20
286.600000
30
0.000000
40
1.900000
1
일반공차
50
0.000000
7
STANDARD
0
TEXT
8
FRAME
10
69.068144
20
282.600000
30
0.000000
40
2.700000
1
ISO 2768-mK
50
0.000000
7
STANDARD
0
POLYLINE
8
FRAME
66
1
10
0.000000
20
0.000000
30
0.000000
70
1
0
VERTEX
8
FRAME
10
92.651568
20
281.000000
30
0.000000
0
VERTEX
8
FRAME
10
111.297632
20
281.000000
30
0.000000
0
VERTEX
8
FRAME
10
111.297632
20
290.000000
30
0.000000
0
VERTEX
8
FRAME
10
92.651568
20
290.000000
30
0.000000
0
SEQEND
8
FRAME
0
TEXT
8
TEXT
10
94.651568
20
286.600000
30
0.000000
40
1.900000
1
설계확정도
50
0.000000
7
STANDARD
0
TEXT
8
FRAME
10
94.651568
20
282.600000
30
0.000000
40
2.700000
1
RELEASE
50
0.000000
7
STANDARD
0
POLYLINE
8
CUT
66
1
10
0.000000
20
0.000000
30
0.000000
70
1
0
VERTEX
8
CUT
10
58.696908
20
182.000000
30
0.000000
0
VERTEX
8
CUT
10
185.303092
20
182.000000
30
0.000000
0
VERTEX
8
CUT
10
185.303092
20
242.000000
30
0.000000
0
VERTEX
8
CUT
10
58.696908
20
242.000000
30
0.000000
0
SEQEND
8
CUT
0
POLYLINE
8
HOLE
66
1
10
0.000000
20
0.000000
30
0.000000
70
1
0
VERTEX
8
HOLE
10
136.505773
20
223.358984
30
0.000000
42
-1.000000
0
VERTEX
8
HOLE
10
139.145773
20
223.358984
30
0.000000
42
-1.000000
0
SEQEND
8
HOLE
0
POLYLINE
8
HOLE
66
1
10
0.000000
20
0.000000
30
0.000000
70
1
0
VERTEX
8
HOLE
10
167.522319
20
220.858984
30
0.000000
42
-1.000000
0
VERTEX
8
HOLE
10
171.432319
20
220.858984
30
0.000000
42
-1.000000
0
SEQEND
8
HOLE
0
POLYLINE
8
HOLE
66
1
10
0.000000
20
0.000000
30
0.000000
70
1
0
VERTEX
8
HOLE
10
73.837681
20
199.358984
30
0.000000
42
-1.000000
0
VERTEX
8
HOLE
10
75.207681
20
199.358984
30
0.000000
42
-1.000000
0
SEQEND
8
HOLE
0
POLYLINE
8
HOLE
66
1
10
0.000000
20
0.000000
30
0.000000
70
1
0
VERTEX
8
HOLE
10
105.489227
20
203.358984
30
0.000000
42
-1.000000
0
VERTEX
8
HOLE
10
106.859227
20
203.358984
30
0.000000
42
-1.000000
0
SEQEND
8
HOLE
0
POLYLINE
8
HOLE
66
1
10
0.000000
20
0.000000
30
0.000000
70
1
0
VERTEX
8
HOLE
10
105.489227
20
187.358984
30
0.000000
42
-1.000000
0
VERTEX
8
HOLE
10
106.859227
20
187.358984
30
0.000000
42
-1.000000
0
SEQEND
8
HOLE
0
POLYLINE
8
HOLE
66
1
10
0.000000
20
0.000000
30
0.000000
70
1
0
VERTEX
8
HOLE
10
105.489227
20
195.358984
30
0.000000
42
-1.000000
0
VERTEX
8
HOLE
10
106.859227
20
195.358984
30
0.000000
42
-1.000000
0
SEQEND
8
HOLE
0
POLYLINE
8
HOLE
66
1
10
0.000000
20
0.000000
30
0.000000
70
1
0
VERTEX
8
HOLE
10
105.489227
20
211.358984
30
0.000000
42
-1.000000
0
VERTEX
8
HOLE
10
106.859227
20
211.358984
30
0.000000
42
-1.000000
0
SEQEND
8
HOLE
0
POLYLINE
8
HOLE
66
1
10
0.000000
20
0.000000
30
0.000000
70
1
0
VERTEX
8
HOLE
10
105.489227
20
219.358984
30
0.000000
42
-1.000000
0
VERTEX
8
HOLE
10
106.859227
20
219.358984
30
0.000000
42
-1.000000
0
SEQEND
8
HOLE
0
POLYLINE
8
HOLE
66
1
10
0.000000
20
0.000000
30
0.000000
70
1
0
VERTEX
8
HOLE
10
116.750000
20
216.358984
30
0.000000
42
-1.000000
0
VERTEX
8
HOLE
10
127.250000
20
216.358984
30
0.000000
42
-1.000000
0
SEQEND
8
HOLE
0
LINE
8
CENTER
10
165.022319
20
220.858984
30
0.000000
11
173.932319
21
220.858984
31
0.000000
0
LINE
8
CENTER
10
169.477319
20
216.403984
30
0.000000
11
169.477319
21
225.313984
31
0.000000
0
LINE
8
CENTER
10
114.250000
20
216.358984
30
0.000000
11
129.750000
21
216.358984
31
0.000000
0
LINE
8
CENTER
10
122.000000
20
208.608984
30
0.000000
11
122.000000
21
224.108984
31
0.000000
0
POLYLINE
8
FRAME
66
1
10
0.000000
20
0.000000
30
0.000000
70
1
0
VERTEX
8
FRAME
10
10.000000
20
5.000000
30
0.000000
0
VERTEX
8
FRAME
10
415.000000
20
5.000000
30
0.000000
0
VERTEX
8
FRAME
10
415.000000
20
292.000000
30
0.000000
0
VERTEX
8
FRAME
10
10.000000
20
292.000000
30
0.000000
0
SEQEND
8
FRAME
0
POLYLINE
8
FRAME
66
1
10
0.000000
20
0.000000
30
0.000000
70
1
0
VERTEX
8
FRAME
10
237.000000
20
5.000000
30
0.000000
0
VERTEX
8
FRAME
10
415.000000
20
5.000000
30
0.000000
0
VERTEX
8
FRAME
10
415.000000
20
35.000000
30
0.000000
0
VERTEX
8
FRAME
10
237.000000
20
35.000000
30
0.000000
0
SEQEND
8
FRAME
0
LINE
8
FRAME
10
237.000000
20
22.000000
30
0.000000
11
415.000000
21
22.000000
31
0.000000
0
LINE
8
FRAME
10
355.000000
20
5.000000
30
0.000000
11
355.000000
21
35.000000
31
0.000000
0
TEXT
8
FRAME
10
240.000000
20
28.000000
30
0.000000
40
6.000000
1
A-01 동체 (Shell)
50
0.000000
7
STANDARD
0
TEXT
8
TEXT
10
240.000000
20
23.600000
30
0.000000
40
2.400000
1
Ø400 ID × H600 × t3
50
0.000000
7
STANDARD
0
TEXT
8
TEXT
10
240.000000
20
18.600000
30
0.000000
40
1.900000
1
도면번호
50
0.000000
7
STANDARD
0
TEXT
8
TEXT
10
240.000000
20
14.600000
30
0.000000
40
2.700000
1
MP50-C-A-01
50
0.000000
7
STANDARD
0
TEXT
8
TEXT
10
279.000000
20
18.600000
30
0.000000
40
1.900000
1
축척
50
0.000000
7
STANDARD
0
TEXT
8
TEXT
10
279.000000
20
14.600000
30
0.000000
40
2.700000
1
1:10
50
0.000000
7
STANDARD
0
TEXT
8
TEXT
10
318.000000
20
18.600000
30
0.000000
40
1.900000
1
단위
50
0.000000
7
STANDARD
0
TEXT
8
TEXT
10
318.000000
20
14.600000
30
0.000000
40
2.700000
1
mm
50
0.000000
7
STANDARD
0
TEXT
8
TEXT
10
240.000000
20
11.000000
30
0.000000
40
1.900000
1
Rev
50
0.000000
7
STANDARD
0
TEXT
8
TEXT
10
240.000000
20
7.000000
30
0.000000
40
2.700000
1
R1
50
0.000000
7
STANDARD
0
TEXT
8
TEXT
10
279.000000
20
11.000000
30
0.000000
40
1.900000
1
날짜
50
0.000000
7
STANDARD
0
TEXT
8
TEXT
10
279.000000
20
7.000000
30
0.000000
40
2.700000
1
2026-09-10
50
0.000000
7
STANDARD
0
TEXT
8
TEXT
10
318.000000
20
11.000000
30
0.000000
40
1.900000
1
시트
50
0.000000
7
STANDARD
0
TEXT
8
TEXT
10
318.000000
20
7.000000
30
0.000000
40
2.700000
1
1/33
50
0.000000
7
STANDARD
0
TEXT
8
FRAME
10
358.000000
20
29.000000
30
0.000000
40
2.700000
1
DYNAMIC INDUSTRY
50
0.000000
7
STANDARD
0
TEXT
8
TEXT
10
358.000000
20
24.600000
30
0.000000
40
2.000000
1
MP-50 염수 밀도분리 파일럿
50
0.000000
7
STANDARD
0
TEXT
8
TEXT
10
358.000000
20
15.000000
30
0.000000
40
2.000000
1
아세이 A · 탱크 아세이
50
0.000000
7
STANDARD
0
TEXT
8
TEXT
10
358.000000
20
10.400000
30
0.000000
40
2.000000
1
설계 계산 자동생성 · 제3각법
50
0.000000
7
STANDARD
0
TEXT
8
FRAME
10
14.000000
20
262.000000
30
0.000000
40
4.600000
1
전개 평면
50
0.000000
7
STANDARD
0
TEXT
8
TEXT
10
40.000000
20
262.000000
30
0.000000
40
2.400000
1
척도 1:10
50
0.000000
7
STANDARD
0
LINE
8
DIM
10
58.696908
20
182.000000
30
0.000000
11
58.696908
21
171.400000
31
0.000000
0
LINE
8
DIM
10
185.303092
20
182.000000
30
0.000000
11
185.303092
21
171.400000
31
0.000000
0
LINE
8
DIM
10
58.696908
20
173.000000
30
0.000000
11
185.303092
21
173.000000
31
0.000000
0
SOLID
8
DIM
10
58.696908
20
173.000000
30
0.000000
11
61.196908
21
172.200000
31
0.000000
12
61.196908
22
173.800000
32
0.000000
13
61.196908
23
173.800000
33
0.000000
0
SOLID
8
DIM
10
185.303092
20
173.000000
30
0.000000
11
182.803092
21
173.800000
31
0.000000
12
182.803092
22
172.200000
32
0.000000
13
182.803092
23
172.200000
33
0.000000
0
TEXT
8
DIM
10
122.000000
20
174.750000
30
0.000000
40
3.500000
1
1266.1
50
0.000000
7
STANDARD
72
1
11
122.000000
21
174.750000
31
0.000000
0
LINE
8
DIM
10
58.696908
20
182.000000
30
0.000000
11
48.096908
21
182.000000
31
0.000000
0
LINE
8
DIM
10
58.696908
20
242.000000
30
0.000000
11
48.096908
21
242.000000
31
0.000000
0
LINE
8
DIM
10
49.696908
20
182.000000
30
0.000000
11
49.696908
21
242.000000
31
0.000000
0
SOLID
8
DIM
10
49.696908
20
182.000000
30
0.000000
11
50.496908
21
184.500000
31
0.000000
12
48.896908
22
184.500000
32
0.000000
13
48.896908
23
184.500000
33
0.000000
0
SOLID
8
DIM
10
49.696908
20
242.000000
30
0.000000
11
48.896908
21
239.500000
31
0.000000
12
50.496908
22
239.500000
32
0.000000
13
50.496908
23
239.500000
33
0.000000
0
TEXT
8
DIM
10
47.946908
20
212.000000
30
0.000000
40
3.500000
1
600
50
90.000000
7
STANDARD
72
1
11
47.946908
21
212.000000
31
0.000000
0
POLYLINE
8
CUT
66
1
10
0.000000
20
0.000000
30
0.000000
70
1
0
VERTEX
8
CUT
10
58.696908
20
146.800000
30
0.000000
0
VERTEX
8
CUT
10
178.696908
20
146.800000
30
0.000000
0
VERTEX
8
CUT
10
178.696908
20
148.000000
30
0.000000
0
VERTEX
8
CUT
10
58.696908
20
148.000000
30
0.000000
0
SEQEND
8
CUT
0
TEXT
8
FRAME
10
14.000000
20
154.000000
30
0.000000
40
4.600000
1
두께
50
0.000000
7
STANDARD
0
LINE
8
DIM
10
178.696908
20
146.800000
30
0.000000
11
189.296908
21
146.800000
31
0.000000
0
LINE
8
DIM
10
178.696908
20
148.000000
30
0.000000
11
189.296908
21
148.000000
31
0.000000
0
LINE
8
DIM
10
187.696908
20
146.800000
30
0.000000
11
187.696908
21
148.000000
31
0.000000
0
SOLID
8
DIM
10
187.696908
20
146.800000
30
0.000000
11
188.496908
21
149.300000
31
0.000000
12
186.896908
22
149.300000
32
0.000000
13
186.896908
23
149.300000
33
0.000000
0
SOLID
8
DIM
10
187.696908
20
148.000000
30
0.000000
11
186.896908
21
145.500000
31
0.000000
12
188.496908
22
145.500000
32
0.000000
13
188.496908
23
145.500000
33
0.000000
0
TEXT
8
DIM
10
185.946908
20
147.400000
30
0.000000
40
3.500000
1
t3
50
90.000000
7
STANDARD
72
1
11
185.946908
21
147.400000
31
0.000000
0
TEXT
8
FRAME
10
240.000000
20
268.000000
30
0.000000
40
4.600000
1
소재 · 마감
50
0.000000
7
STANDARD
0
POLYLINE
8
FRAME
66
1
10
0.000000
20
0.000000
30
0.000000
70
1
0
VERTEX
8
FRAME
10
240.000000
20
259.600000
30
0.000000
0
VERTEX
8
FRAME
10
412.000000
20
259.600000
30
0.000000
0
VERTEX
8
FRAME
10
412.000000
20
265.000000
30
0.000000
0
VERTEX
8
FRAME
10
240.000000
20
265.000000
30
0.000000
0
SEQEND
8
FRAME
0
TEXT
8
FRAME
10
241.200000
20
261.495000
30
0.000000
40
2.300000
1
항목
50
0.000000
7
STANDARD
0
LINE
8
FRAME
10
264.000000
20
259.600000
30
0.000000
11
264.000000
21
265.000000
31
0.000000
0
TEXT
8
FRAME
10
265.200000
20
261.495000
30
0.000000
40
2.300000
1
값
50
0.000000
7
STANDARD
0
POLYLINE
8
FRAME
66
1
10
0.000000
20
0.000000
30
0.000000
70
1
0
VERTEX
8
FRAME
10
240.000000
20
254.200000
30
0.000000
0
VERTEX
8
FRAME
10
412.000000
20
254.200000
30
0.000000
0
VERTEX
8
FRAME
10
412.000000
20
259.600000
30
0.000000
0
VERTEX
8
FRAME
10
240.000000
20
259.600000
30
0.000000
0
SEQEND
8
FRAME
0
TEXT
8
TEXT
10
241.200000
20
256.095000
30
0.000000
40
2.300000
1
재질
50
0.000000
7
STANDARD
0
LINE
8
FRAME
10
264.000000
20
254.200000
30
0.000000
11
264.000000
21
259.600000
31
0.000000
0
TEXT
8
TEXT
10
265.200000
20
256.095000
30
0.000000
40
2.300000
1
SUS304
50
0.000000
7
STANDARD
0
POLYLINE
8
FRAME
66
1
10
0.000000
20
0.000000
30
0.000000
70
1
0
VERTEX
8
FRAME
10
240.000000
20
248.800000
30
0.000000
0
VERTEX
8
FRAME
10
412.000000
20
248.800000
30
0.000000
0
VERTEX
8
FRAME
10
412.000000
20
254.200000
30
0.000000
0
VERTEX
8
FRAME
10
240.000000
20
254.200000
30
0.000000
0
SEQEND
8
FRAME
0
TEXT
8
TEXT
10
241.200000
20
250.695000
30
0.000000
40
2.300000
1
소재
50
0.000000
7
STANDARD
0
LINE
8
FRAME
10
264.000000
20
248.800000
30
0.000000
11
264.000000
21
254.200000
31
0.000000
0
TEXT
8
TEXT
10
265.200000
20
250.695000
30
0.000000
40
2.300000
1
SUS304 2B t3 판재 1300 × 620
50
0.000000
7
STANDARD
0
POLYLINE
8
FRAME
66
1
10
0.000000
20
0.000000
30
0.000000
70
1
0
VERTEX
8
FRAME
10
240.000000
20
243.400000
30
0.000000
0
VERTEX
8
FRAME
10
412.000000
20
243.400000
30
0.000000
0
VERTEX
8
FRAME
10
412.000000
20
248.800000
30
0.000000
0
VERTEX
8
FRAME
10
240.000000
20
248.800000
30
0.000000
0
SEQEND
8
FRAME
0
TEXT
8
TEXT
10
241.200000
20
245.295000
30
0.000000
40
2.300000
1
형상
50
0.000000
7
STANDARD
0
LINE
8
FRAME
10
264.000000
20
243.400000
30
0.000000
11
264.000000
21
248.800000
31
0.000000
0
TEXT
8
TEXT
10
265.200000
20
245.295000
30
0.000000
40
2.300000
1
전개
50
0.000000
7
STANDARD
0
POLYLINE
8
FRAME
66
1
10
0.000000
20
0.000000
30
0.000000
70
1
0
VERTEX
8
FRAME
10
240.000000
20
238.000000
30
0.000000
0
VERTEX
8
FRAME
10
412.000000
20
238.000000
30
0.000000
0
VERTEX
8
FRAME
10
412.000000
20
243.400000
30
0.000000
0
VERTEX
8
FRAME
10
240.000000
20
243.400000
30
0.000000
0
SEQEND
8
FRAME
0
TEXT
8
TEXT
10
241.200000
20
239.895000
30
0.000000
40
2.300000
1
일반공차
50
0.000000
7
STANDARD
0
LINE
8
FRAME
10
264.000000
20
238.000000
30
0.000000
11
264.000000
21
243.400000
31
0.000000
0
TEXT
8
TEXT
10
265.200000
20
239.895000
30
0.000000
40
2.300000
1
ISO 2768-mK · 기입 치수 우선
50
0.000000
7
STANDARD
0
POLYLINE
8
FRAME
66
1
10
0.000000
20
0.000000
30
0.000000
70
1
0
VERTEX
8
FRAME
10
240.000000
20
232.600000
30
0.000000
0
VERTEX
8
FRAME
10
412.000000
20
232.600000
30
0.000000
0
VERTEX
8
FRAME
10
412.000000
20
238.000000
30
0.000000
0
VERTEX
8
FRAME
10
240.000000
20
238.000000
30
0.000000
0
SEQEND
8
FRAME
0
TEXT
8
TEXT
10
241.200000
20
234.495000
30
0.000000
40
2.300000
1
모서리
50
0.000000
7
STANDARD
0
LINE
8
FRAME
10
264.000000
20
232.600000
30
0.000000
11
264.000000
21
238.000000
31
0.000000
0
TEXT
8
TEXT
10
265.200000
20
234.495000
30
0.000000
40
2.300000
1
액체에 닿는 모서리 R2 이상
50
0.000000
7
STANDARD
0
POLYLINE
8
FRAME
66
1
10
0.000000
20
0.000000
30
0.000000
70
1
0
VERTEX
8
FRAME
10
240.000000
20
227.200000
30
0.000000
0
VERTEX
8
FRAME
10
412.000000
20
227.200000
30
0.000000
0
VERTEX
8
FRAME
10
412.000000
20
232.600000
30
0.000000
0
VERTEX
8
FRAME
10
240.000000
20
232.600000
30
0.000000
0
SEQEND
8
FRAME
0
TEXT
8
TEXT
10
241.200000
20
229.095000
30
0.000000
40
2.300000
1
내면
50
0.000000
7
STANDARD
0
LINE
8
FRAME
10
264.000000
20
227.200000
30
0.000000
11
264.000000
21
232.600000
31
0.000000
0
TEXT
8
TEXT
10
265.200000
20
229.095000
30
0.000000
40
2.300000
1
Ra ≤ 0.8 · 용접부 평활 연삭
50
0.000000
7
STANDARD
0
POLYLINE
8
FRAME
66
1
10
0.000000
20
0.000000
30
0.000000
70
1
0
VERTEX
8
FRAME
10
240.000000
20
221.800000
30
0.000000
0
VERTEX
8
FRAME
10
412.000000
20
221.800000
30
0.000000
0
VERTEX
8
FRAME
10
412.000000
20
227.200000
30
0.000000
0
VERTEX
8
FRAME
10
240.000000
20
227.200000
30
0.000000
0
SEQEND
8
FRAME
0
TEXT
8
TEXT
10
241.200000
20
223.695000
30
0.000000
40
2.300000
1
후처리
50
0.000000
7
STANDARD
0
LINE
8
FRAME
10
264.000000
20
221.800000
30
0.000000
11
264.000000
21
227.200000
31
0.000000
0
TEXT
8
TEXT
10
265.200000
20
223.695000
30
0.000000
40
2.300000
1
산세 · 부동태화 (페록실 청색 반응 없을 것)
50
0.000000
7
STANDARD
0
TEXT
8
FRAME
10
240.000000
20
212.800000
30
0.000000
40
4.600000
1
구멍표
50
0.000000
7
STANDARD
0
POLYLINE
8
FRAME
66
1
10
0.000000
20
0.000000
30
0.000000
70
1
0
VERTEX
8
FRAME
10
240.000000
20
204.800000
30
0.000000
0
VERTEX
8
FRAME
10
412.000000
20
204.800000
30
0.000000
0
VERTEX
8
FRAME
10
412.000000
20
209.800000
30
0.000000
0
VERTEX
8
FRAME
10
240.000000
20
209.800000
30
0.000000
0
SEQEND
8
FRAME
0
TEXT
8
FRAME
10
241.200000
20
206.530000
30
0.000000
40
2.200000
1
Ø
50
0.000000
7
STANDARD
0
LINE
8
FRAME
10
256.000000
20
204.800000
30
0.000000
11
256.000000
21
209.800000
31
0.000000
0
TEXT
8
FRAME
10
257.200000
20
206.530000
30
0.000000
40
2.200000
1
수
50
0.000000
7
STANDARD
0
LINE
8
FRAME
10
266.000000
20
204.800000
30
0.000000
11
266.000000
21
209.800000
31
0.000000
0
TEXT
8
FRAME
10
267.200000
20
206.530000
30
0.000000
40
2.200000
1
설명
50
0.000000
7
STANDARD
0
POLYLINE
8
FRAME
66
1
10
0.000000
20
0.000000
30
0.000000
70
1
0
VERTEX
8
FRAME
10
240.000000
20
199.800000
30
0.000000
0
VERTEX
8
FRAME
10
412.000000
20
199.800000
30
0.000000
0
VERTEX
8
FRAME
10
412.000000
20
204.800000
30
0.000000
0
VERTEX
8
FRAME
10
240.000000
20
204.800000
30
0.000000
0
SEQEND
8
FRAME
0
TEXT
8
TEXT
10
241.200000
20
201.530000
30
0.000000
40
2.200000
1
Ø26.4
50
0.000000
7
STANDARD
0
LINE
8
FRAME
10
256.000000
20
199.800000
30
0.000000
11
256.000000
21
204.800000
31
0.000000
0
TEXT
8
TEXT
10
257.200000
20
201.530000
30
0.000000
40
2.200000
1
1
50
0.000000
7
STANDARD
0
LINE
8
FRAME
10
266.000000
20
199.800000
30
0.000000
11
266.000000
21
204.800000
31
0.000000
0
TEXT
8
TEXT
10
267.200000
20
201.530000
30
0.000000
40
2.200000
1
N1 급광 투입 · θ0° Z760
50
0.000000
7
STANDARD
0
POLYLINE
8
FRAME
66
1
10
0.000000
20
0.000000
30
0.000000
70
1
0
VERTEX
8
FRAME
10
240.000000
20
194.800000
30
0.000000
0
VERTEX
8
FRAME
10
412.000000
20
194.800000
30
0.000000
0
VERTEX
8
FRAME
10
412.000000
20
199.800000
30
0.000000
0
VERTEX
8
FRAME
10
240.000000
20
199.800000
30
0.000000
0
SEQEND
8
FRAME
0
TEXT
8
TEXT
10
241.200000
20
196.530000
30
0.000000
40
2.200000
1
Ø39.1
50
0.000000
7
STANDARD
0
LINE
8
FRAME
10
256.000000
20
194.800000
30
0.000000
11
256.000000
21
199.800000
31
0.000000
0
TEXT
8
TEXT
10
257.200000
20
196.530000
30
0.000000
40
2.200000
1
1
50
0.000000
7
STANDARD
0
LINE
8
FRAME
10
266.000000
20
194.800000
30
0.000000
11
266.000000
21
199.800000
31
0.000000
0
TEXT
8
TEXT
10
267.200000
20
196.530000
30
0.000000
40
2.200000
1
N2 부상물 배출 · θ90° Z735
50
0.000000
7
STANDARD
0
POLYLINE
8
FRAME
66
1
10
0.000000
20
0.000000
30
0.000000
70
1
0
VERTEX
8
FRAME
10
240.000000
20
189.800000
30
0.000000
0
VERTEX
8
FRAME
10
412.000000
20
189.800000
30
0.000000
0
VERTEX
8
FRAME
10
412.000000
20
194.800000
30
0.000000
0
VERTEX
8
FRAME
10
240.000000
20
194.800000
30
0.000000
0
SEQEND
8
FRAME
0
TEXT
8
TEXT
10
241.200000
20
191.530000
30
0.000000
40
2.200000
1
Ø13.7
50
0.000000
7
STANDARD
0
LINE
8
FRAME
10
256.000000
20
189.800000
30
0.000000
11
256.000000
21
194.800000
31
0.000000
0
TEXT
8
TEXT
10
257.200000
20
191.530000
30
0.000000
40
2.200000
1
1
50
0.000000
7
STANDARD
0
LINE
8
FRAME
10
266.000000
20
189.800000
30
0.000000
11
266.000000
21
194.800000
31
0.000000
0
TEXT
8
TEXT
10
267.200000
20
191.530000
30
0.000000
40
2.200000
1
N3 급기 · θ180° Z520
50
0.000000
7
STANDARD
0
POLYLINE
8
FRAME
66
1
10
0.000000
20
0.000000
30
0.000000
70
1
0
VERTEX
8
FRAME
10
240.000000
20
184.800000
30
0.000000
0
VERTEX
8
FRAME
10
412.000000
20
184.800000
30
0.000000
0
VERTEX
8
FRAME
10
412.000000
20
189.800000
30
0.000000
0
VERTEX
8
FRAME
10
240.000000
20
189.800000
30
0.000000
0
SEQEND
8
FRAME
0
TEXT
8
TEXT
10
241.200000
20
186.530000
30
0.000000
40
2.200000
1
Ø13.7
50
0.000000
7
STANDARD
0
LINE
8
FRAME
10
256.000000
20
184.800000
30
0.000000
11
256.000000
21
189.800000
31
0.000000
0
TEXT
8
TEXT
10
257.200000
20
186.530000
30
0.000000
40
2.200000
1
1
50
0.000000
7
STANDARD
0
LINE
8
FRAME
10
266.000000
20
184.800000
30
0.000000
11
266.000000
21
189.800000
31
0.000000
0
TEXT
8
TEXT
10
267.200000
20
186.530000
30
0.000000
40
2.200000
1
N4C 시료 채취 (중단) · θ270° Z560
50
0.000000
7
STANDARD
0
POLYLINE
8
FRAME
66
1
10
0.000000
20
0.000000
30
0.000000
70
1
0
VERTEX
8
FRAME
10
240.000000
20
179.800000
30
0.000000
0
VERTEX
8
FRAME
10
412.000000
20
179.800000
30
0.000000
0
VERTEX
8
FRAME
10
412.000000
20
184.800000
30
0.000000
0
VERTEX
8
FRAME
10
240.000000
20
184.800000
30
0.000000
0
SEQEND
8
FRAME
0
TEXT
8
TEXT
10
241.200000
20
181.530000
30
0.000000
40
2.200000
1
Ø13.7
50
0.000000
7
STANDARD
0
LINE
8
FRAME
10
256.000000
20
179.800000
30
0.000000
11
256.000000
21
184.800000
31
0.000000
0
TEXT
8
TEXT
10
257.200000
20
181.530000
30
0.000000
40
2.200000
1
1
50
0.000000
7
STANDARD
0
LINE
8
FRAME
10
266.000000
20
179.800000
30
0.000000
11
266.000000
21
184.800000
31
0.000000
0
TEXT
8
TEXT
10
267.200000
20
181.530000
30
0.000000
40
2.200000
1
N4A 시료 채취 (최하단) · θ270° Z400
50
0.000000
7
STANDARD
0
POLYLINE
8
FRAME
66
1
10
0.000000
20
0.000000
30
0.000000
70
1
0
VERTEX
8
FRAME
10
240.000000
20
174.800000
30
0.000000
0
VERTEX
8
FRAME
10
412.000000
20
174.800000
30
0.000000
0
VERTEX
8
FRAME
10
412.000000
20
179.800000
30
0.000000
0
VERTEX
8
FRAME
10
240.000000
20
179.800000
30
0.000000
0
SEQEND
8
FRAME
0
TEXT
8
TEXT
10
241.200000
20
176.530000
30
0.000000
40
2.200000
1
Ø13.7
50
0.000000
7
STANDARD
0
LINE
8
FRAME
10
256.000000
20
174.800000
30
0.000000
11
256.000000
21
179.800000
31
0.000000
0
TEXT
8
TEXT
10
257.200000
20
176.530000
30
0.000000
40
2.200000
1
1
50
0.000000
7
STANDARD
0
LINE
8
FRAME
10
266.000000
20
174.800000
30
0.000000
11
266.000000
21
179.800000
31
0.000000
0
TEXT
8
TEXT
10
267.200000
20
176.530000
30
0.000000
40
2.200000
1
N4B 시료 채취 (하단) · θ270° Z480
50
0.000000
7
STANDARD
0
POLYLINE
8
FRAME
66
1
10
0.000000
20
0.000000
30
0.000000
70
1
0
VERTEX
8
FRAME
10
240.000000
20
169.800000
30
0.000000
0
VERTEX
8
FRAME
10
412.000000
20
169.800000
30
0.000000
0
VERTEX
8
FRAME
10
412.000000
20
174.800000
30
0.000000
0
VERTEX
8
FRAME
10
240.000000
20
174.800000
30
0.000000
0
SEQEND
8
FRAME
0
TEXT
8
TEXT
10
241.200000
20
171.530000
30
0.000000
40
2.200000
1
Ø13.7
50
0.000000
7
STANDARD
0
LINE
8
FRAME
10
256.000000
20
169.800000
30
0.000000
11
256.000000
21
174.800000
31
0.000000
0
TEXT
8
TEXT
10
257.200000
20
171.530000
30
0.000000
40
2.200000
1
1
50
0.000000
7
STANDARD
0
LINE
8
FRAME
10
266.000000
20
169.800000
30
0.000000
11
266.000000
21
174.800000
31
0.000000
0
TEXT
8
TEXT
10
267.200000
20
171.530000
30
0.000000
40
2.200000
1
N4D 시료 채취 (상단) · θ270° Z640
50
0.000000
7
STANDARD
0
POLYLINE
8
FRAME
66
1
10
0.000000
20
0.000000
30
0.000000
70
1
0
VERTEX
8
FRAME
10
240.000000
20
164.800000
30
0.000000
0
VERTEX
8
FRAME
10
412.000000
20
164.800000
30
0.000000
0
VERTEX
8
FRAME
10
412.000000
20
169.800000
30
0.000000
0
VERTEX
8
FRAME
10
240.000000
20
169.800000
30
0.000000
0
SEQEND
8
FRAME
0
TEXT
8
TEXT
10
241.200000
20
166.530000
30
0.000000
40
2.200000
1
Ø13.7
50
0.000000
7
STANDARD
0
LINE
8
FRAME
10
256.000000
20
164.800000
30
0.000000
11
256.000000
21
169.800000
31
0.000000
0
TEXT
8
TEXT
10
257.200000
20
166.530000
30
0.000000
40
2.200000
1
1
50
0.000000
7
STANDARD
0
LINE
8
FRAME
10
266.000000
20
164.800000
30
0.000000
11
266.000000
21
169.800000
31
0.000000
0
TEXT
8
TEXT
10
267.200000
20
166.530000
30
0.000000
40
2.200000
1
N4E 시료 채취 (최상단) · θ270° Z720
50
0.000000
7
STANDARD
0
POLYLINE
8
FRAME
66
1
10
0.000000
20
0.000000
30
0.000000
70
1
0
VERTEX
8
FRAME
10
240.000000
20
159.800000
30
0.000000
0
VERTEX
8
FRAME
10
412.000000
20
159.800000
30
0.000000
0
VERTEX
8
FRAME
10
412.000000
20
164.800000
30
0.000000
0
VERTEX
8
FRAME
10
240.000000
20
164.800000
30
0.000000
0
SEQEND
8
FRAME
0
TEXT
8
TEXT
10
241.200000
20
161.530000
30
0.000000
40
2.200000
1
Ø105
50
0.000000
7
STANDARD
0
LINE
8
FRAME
10
256.000000
20
159.800000
30
0.000000
11
256.000000
21
164.800000
31
0.000000
0
TEXT
8
TEXT
10
257.200000
20
161.530000
30
0.000000
40
2.200000
1
1
50
0.000000
7
STANDARD
0
LINE
8
FRAME
10
266.000000
20
159.800000
30
0.000000
11
266.000000
21
164.800000
31
0.000000
0
TEXT
8
TEXT
10
267.200000
20
161.530000
30
0.000000
40
2.200000
1
N5 사이트글라스 · θ315° Z690
50
0.000000
7
STANDARD
0
TEXT
8
FRAME
10
240.000000
20
150.800000
30
0.000000
40
4.600000
1
구멍 좌표
50
0.000000
7
STANDARD
0
POLYLINE
8
FRAME
66
1
10
0.000000
20
0.000000
30
0.000000
70
1
0
VERTEX
8
FRAME
10
240.000000
20
142.800000
30
0.000000
0
VERTEX
8
FRAME
10
328.000000
20
142.800000
30
0.000000
0
VERTEX
8
FRAME
10
328.000000
20
147.800000
30
0.000000
0
VERTEX
8
FRAME
10
240.000000
20
147.800000
30
0.000000
0
SEQEND
8
FRAME
0
TEXT
8
FRAME
10
241.200000
20
144.530000
30
0.000000
40
2.200000
1
번호
50
0.000000
7
STANDARD
0
LINE
8
FRAME
10
256.000000
20
142.800000
30
0.000000
11
256.000000
21
147.800000
31
0.000000
0
TEXT
8
FRAME
10
257.200000
20
144.530000
30
0.000000
40
2.200000
1
X
50
0.000000
7
STANDARD
0
LINE
8
FRAME
10
282.000000
20
142.800000
30
0.000000
11
282.000000
21
147.800000
31
0.000000
0
TEXT
8
FRAME
10
283.200000
20
144.530000
30
0.000000
40
2.200000
1
Y
50
0.000000
7
STANDARD
0
LINE
8
FRAME
10
308.000000
20
142.800000
30
0.000000
11
308.000000
21
147.800000
31
0.000000
0
TEXT
8
FRAME
10
309.200000
20
144.530000
30
0.000000
40
2.200000
1
Ø
50
0.000000
7
STANDARD
0
POLYLINE
8
FRAME
66
1
10
0.000000
20
0.000000
30
0.000000
70
1
0
VERTEX
8
FRAME
10
240.000000
20
137.800000
30
0.000000
0
VERTEX
8
FRAME
10
328.000000
20
137.800000
30
0.000000
0
VERTEX
8
FRAME
10
328.000000
20
142.800000
30
0.000000
0
VERTEX
8
FRAME
10
240.000000
20
142.800000
30
0.000000
0
SEQEND
8
FRAME
0
TEXT
8
TEXT
10
241.200000
20
139.530000
30
0.000000
40
2.200000
1
H1
50
0.000000
7
STANDARD
0
LINE
8
FRAME
10
256.000000
20
137.800000
30
0.000000
11
256.000000
21
142.800000
31
0.000000
0
TEXT
8
TEXT
10
257.200000
20
139.530000
30
0.000000
40
2.200000
1
791.3
50
0.000000
7
STANDARD
0
LINE
8
FRAME
10
282.000000
20
137.800000
30
0.000000
11
282.000000
21
142.800000
31
0.000000
0
TEXT
8
TEXT
10
283.200000
20
139.530000
30
0.000000
40
2.200000
1
413.6
50
0.000000
7
STANDARD
0
LINE
8
FRAME
10
308.000000
20
137.800000
30
0.000000
11
308.000000
21
142.800000
31
0.000000
0
TEXT
8
TEXT
10
309.200000
20
139.530000
30
0.000000
40
2.200000
1
Ø26.4
50
0.000000
7
STANDARD
0
POLYLINE
8
FRAME
66
1
10
0.000000
20
0.000000
30
0.000000
70
1
0
VERTEX
8
FRAME
10
240.000000
20
132.800000
30
0.000000
0
VERTEX
8
FRAME
10
328.000000
20
132.800000
30
0.000000
0
VERTEX
8
FRAME
10
328.000000
20
137.800000
30
0.000000
0
VERTEX
8
FRAME
10
240.000000
20
137.800000
30
0.000000
0
SEQEND
8
FRAME
0
TEXT
8
TEXT
10
241.200000
20
134.530000
30
0.000000
40
2.200000
1
H2
50
0.000000
7
STANDARD
0
LINE
8
FRAME
10
256.000000
20
132.800000
30
0.000000
11
256.000000
21
137.800000
31
0.000000
0
TEXT
8
TEXT
10
257.200000
20
134.530000
30
0.000000
40
2.200000
1
1107.8
50
0.000000
7
STANDARD
0
LINE
8
FRAME
10
282.000000
20
132.800000
30
0.000000
11
282.000000
21
137.800000
31
0.000000
0
TEXT
8
TEXT
10
283.200000
20
134.530000
30
0.000000
40
2.200000
1
388.6
50
0.000000
7
STANDARD
0
LINE
8
FRAME
10
308.000000
20
132.800000
30
0.000000
11
308.000000
21
137.800000
31
0.000000
0
TEXT
8
TEXT
10
309.200000
20
134.530000
30
0.000000
40
2.200000
1
Ø39.1
50
0.000000
7
STANDARD
0
POLYLINE
8
FRAME
66
1
10
0.000000
20
0.000000
30
0.000000
70
1
0
VERTEX
8
FRAME
10
240.000000
20
127.800000
30
0.000000
0
VERTEX
8
FRAME
10
328.000000
20
127.800000
30
0.000000
0
VERTEX
8
FRAME
10
328.000000
20
132.800000
30
0.000000
0
VERTEX
8
FRAME
10
240.000000
20
132.800000
30
0.000000
0
SEQEND
8
FRAME
0
TEXT
8
TEXT
10
241.200000
20
129.530000
30
0.000000
40
2.200000
1
H3
50
0.000000
7
STANDARD
0
LINE
8
FRAME
10
256.000000
20
127.800000
30
0.000000
11
256.000000
21
132.800000
31
0.000000
0
TEXT
8
TEXT
10
257.200000
20
129.530000
30
0.000000
40
2.200000
1
158.3
50
0.000000
7
STANDARD
0
LINE
8
FRAME
10
282.000000
20
127.800000
30
0.000000
11
282.000000
21
132.800000
31
0.000000
0
TEXT
8
TEXT
10
283.200000
20
129.530000
30
0.000000
40
2.200000
1
173.6
50
0.000000
7
STANDARD
0
LINE
8
FRAME
10
308.000000
20
127.800000
30
0.000000
11
308.000000
21
132.800000
31
0.000000
0
TEXT
8
TEXT
10
309.200000
20
129.530000
30
0.000000
40
2.200000
1
Ø13.7
50
0.000000
7
STANDARD
0
POLYLINE
8
FRAME
66
1
10
0.000000
20
0.000000
30
0.000000
70
1
0
VERTEX
8
FRAME
10
240.000000
20
122.800000
30
0.000000
0
VERTEX
8
FRAME
10
328.000000
20
122.800000
30
0.000000
0
VERTEX
8
FRAME
10
328.000000
20
127.800000
30
0.000000
0
VERTEX
8
FRAME
10
240.000000
20
127.800000
30
0.000000
0
SEQEND
8
FRAME
0
TEXT
8
TEXT
10
241.200000
20
124.530000
30
0.000000
40
2.200000
1
H4
50
0.000000
7
STANDARD
0
LINE
8
FRAME
10
256.000000
20
122.800000
30
0.000000
11
256.000000
21
127.800000
31
0.000000
0
TEXT
8
TEXT
10
257.200000
20
124.530000
30
0.000000
40
2.200000
1
474.8
50
0.000000
7
STANDARD
0
LINE
8
FRAME
10
282.000000
20
122.800000
30
0.000000
11
282.000000
21
127.800000
31
0.000000
0
TEXT
8
TEXT
10
283.200000
20
124.530000
30
0.000000
40
2.200000
1
213.6
50
0.000000
7
STANDARD
0
LINE
8
FRAME
10
308.000000
20
122.800000
30
0.000000
11
308.000000
21
127.800000
31
0.000000
0
TEXT
8
TEXT
10
309.200000
20
124.530000
30
0.000000
40
2.200000
1
Ø13.7
50
0.000000
7
STANDARD
0
POLYLINE
8
FRAME
66
1
10
0.000000
20
0.000000
30
0.000000
70
1
0
VERTEX
8
FRAME
10
240.000000
20
117.800000
30
0.000000
0
VERTEX
8
FRAME
10
328.000000
20
117.800000
30
0.000000
0
VERTEX
8
FRAME
10
328.000000
20
122.800000
30
0.000000
0
VERTEX
8
FRAME
10
240.000000
20
122.800000
30
0.000000
0
SEQEND
8
FRAME
0
TEXT
8
TEXT
10
241.200000
20
119.530000
30
0.000000
40
2.200000
1
H5
50
0.000000
7
STANDARD
0
LINE
8
FRAME
10
256.000000
20
117.800000
30
0.000000
11
256.000000
21
122.800000
31
0.000000
0
TEXT
8
TEXT
10
257.200000
20
119.530000
30
0.000000
40
2.200000
1
474.8
50
0.000000
7
STANDARD
0
LINE
8
FRAME
10
282.000000
20
117.800000
30
0.000000
11
282.000000
21
122.800000
31
0.000000
0
TEXT
8
TEXT
10
283.200000
20
119.530000
30
0.000000
40
2.200000
1
53.6
50
0.000000
7
STANDARD
0
LINE
8
FRAME
10
308.000000
20
117.800000
30
0.000000
11
308.000000
21
122.800000
31
0.000000
0
TEXT
8
TEXT
10
309.200000
20
119.530000
30
0.000000
40
2.200000
1
Ø13.7
50
0.000000
7
STANDARD
0
POLYLINE
8
FRAME
66
1
10
0.000000
20
0.000000
30
0.000000
70
1
0
VERTEX
8
FRAME
10
240.000000
20
112.800000
30
0.000000
0
VERTEX
8
FRAME
10
328.000000
20
112.800000
30
0.000000
0
VERTEX
8
FRAME
10
328.000000
20
117.800000
30
0.000000
0
VERTEX
8
FRAME
10
240.000000
20
117.800000
30
0.000000
0
SEQEND
8
FRAME
0
TEXT
8
TEXT
10
241.200000
20
114.530000
30
0.000000
40
2.200000
1
H6
50
0.000000
7
STANDARD
0
LINE
8
FRAME
10
256.000000
20
112.800000
30
0.000000
11
256.000000
21
117.800000
31
0.000000
0
TEXT
8
TEXT
10
257.200000
20
114.530000
30
0.000000
40
2.200000
1
474.8
50
0.000000
7
STANDARD
0
LINE
8
FRAME
10
282.000000
20
112.800000
30
0.000000
11
282.000000
21
117.800000
31
0.000000
0
TEXT
8
TEXT
10
283.200000
20
114.530000
30
0.000000
40
2.200000
1
133.6
50
0.000000
7
STANDARD
0
LINE
8
FRAME
10
308.000000
20
112.800000
30
0.000000
11
308.000000
21
117.800000
31
0.000000
0
TEXT
8
TEXT
10
309.200000
20
114.530000
30
0.000000
40
2.200000
1
Ø13.7
50
0.000000
7
STANDARD
0
POLYLINE
8
FRAME
66
1
10
0.000000
20
0.000000
30
0.000000
70
1
0
VERTEX
8
FRAME
10
240.000000
20
107.800000
30
0.000000
0
VERTEX
8
FRAME
10
328.000000
20
107.800000
30
0.000000
0
VERTEX
8
FRAME
10
328.000000
20
112.800000
30
0.000000
0
VERTEX
8
FRAME
10
240.000000
20
112.800000
30
0.000000
0
SEQEND
8
FRAME
0
TEXT
8
TEXT
10
241.200000
20
109.530000
30
0.000000
40
2.200000
1
H7
50
0.000000
7
STANDARD
0
LINE
8
FRAME
10
256.000000
20
107.800000
30
0.000000
11
256.000000
21
112.800000
31
0.000000
0
TEXT
8
TEXT
10
257.200000
20
109.530000
30
0.000000
40
2.200000
1
474.8
50
0.000000
7
STANDARD
0
LINE
8
FRAME
10
282.000000
20
107.800000
30
0.000000
11
282.000000
21
112.800000
31
0.000000
0
TEXT
8
TEXT
10
283.200000
20
109.530000
30
0.000000
40
2.200000
1
293.6
50
0.000000
7
STANDARD
0
LINE
8
FRAME
10
308.000000
20
107.800000
30
0.000000
11
308.000000
21
112.800000
31
0.000000
0
TEXT
8
TEXT
10
309.200000
20
109.530000
30
0.000000
40
2.200000
1
Ø13.7
50
0.000000
7
STANDARD
0
POLYLINE
8
FRAME
66
1
10
0.000000
20
0.000000
30
0.000000
70
1
0
VERTEX
8
FRAME
10
240.000000
20
102.800000
30
0.000000
0
VERTEX
8
FRAME
10
328.000000
20
102.800000
30
0.000000
0
VERTEX
8
FRAME
10
328.000000
20
107.800000
30
0.000000
0
VERTEX
8
FRAME
10
240.000000
20
107.800000
30
0.000000
0
SEQEND
8
FRAME
0
TEXT
8
TEXT
10
241.200000
20
104.530000
30
0.000000
40
2.200000
1
H8
50
0.000000
7
STANDARD
0
LINE
8
FRAME
10
256.000000
20
102.800000
30
0.000000
11
256.000000
21
107.800000
31
0.000000
0
TEXT
8
TEXT
10
257.200000
20
104.530000
30
0.000000
40
2.200000
1
474.8
50
0.000000
7
STANDARD
0
LINE
8
FRAME
10
282.000000
20
102.800000
30
0.000000
11
282.000000
21
107.800000
31
0.000000
0
TEXT
8
TEXT
10
283.200000
20
104.530000
30
0.000000
40
2.200000
1
373.6
50
0.000000
7
STANDARD
0
LINE
8
FRAME
10
308.000000
20
102.800000
30
0.000000
11
308.000000
21
107.800000
31
0.000000
0
TEXT
8
TEXT
10
309.200000
20
104.530000
30
0.000000
40
2.200000
1
Ø13.7
50
0.000000
7
STANDARD
0
POLYLINE
8
FRAME
66
1
10
0.000000
20
0.000000
30
0.000000
70
1
0
VERTEX
8
FRAME
10
240.000000
20
97.800000
30
0.000000
0
VERTEX
8
FRAME
10
328.000000
20
97.800000
30
0.000000
0
VERTEX
8
FRAME
10
328.000000
20
102.800000
30
0.000000
0
VERTEX
8
FRAME
10
240.000000
20
102.800000
30
0.000000
0
SEQEND
8
FRAME
0
TEXT
8
TEXT
10
241.200000
20
99.530000
30
0.000000
40
2.200000
1
H9
50
0.000000
7
STANDARD
0
LINE
8
FRAME
10
256.000000
20
97.800000
30
0.000000
11
256.000000
21
102.800000
31
0.000000
0
TEXT
8
TEXT
10
257.200000
20
99.530000
30
0.000000
40
2.200000
1
633.0
50
0.000000
7
STANDARD
0
LINE
8
FRAME
10
282.000000
20
97.800000
30
0.000000
11
282.000000
21
102.800000
31
0.000000
0
TEXT
8
TEXT
10
283.200000
20
99.530000
30
0.000000
40
2.200000
1
343.6
50
0.000000
7
STANDARD
0
LINE
8
FRAME
10
308.000000
20
97.800000
30
0.000000
11
308.000000
21
102.800000
31
0.000000
0
TEXT
8
TEXT
10
309.200000
20
99.530000
30
0.000000
40
2.200000
1
Ø105
50
0.000000
7
STANDARD
0
TEXT
8
NOTE
10
240.000000
20
93.800000
30
0.000000
40
2.100000
1
원점은 소재 왼쪽 아래 - 절단 DXF 의 원점과 같다
50
0.000000
7
STANDARD
0
TEXT
8
FRAME
10
240.000000
20
80.800000
30
0.000000
40
4.600000
1
주기
50
0.000000
7
STANDARD
0
TEXT
8
NOTE
10
240.000000
20
75.800000
30
0.000000
40
2.200000
1
· Ø400 ID × H600 롤링 전 평판 - 중립축 전개 1266.1 · 좌우 끝이 세로이음 (원주 θ135°)
50
0.000000
7
STANDARD
0
TEXT
8
NOTE
10
240.000000
20
71.000000
30
0.000000
40
2.200000
1
· 전개 1266.1 × 600 · 세로이음 맞대기 전용입 · 내면 평활 연삭
50
0.000000
7
STANDARD
0
TEXT
8
NOTE
10
240.000000
20
66.200000
30
0.000000
40
2.200000
1
· 3D - 3D 는 말고 난 원통이다. 노즐 구멍은 평판에서 뚫으므로 DXF 전개도에만 있다.
50
0.000000
7
STANDARD
0
TEXT
8
NOTE
10
240.000000
20
61.400000
30
0.000000
40
2.200000
1
· 절단 길이 약 4526 mm · 실면적 748346 mm² · 질량 18.072 kg/개
50
0.000000
7
STANDARD
0
TEXT
8
NOTE
10
240.000000
20
56.600000
30
0.000000
40
2.200000
1
· 이 도면은 설계 계산에서 생성된다. 손으로 고치지 말 것 - 다시 생성하면 덮어쓴다.
50
0.000000
7
STANDARD
0
ENDSEC
0
EOF
