ISO-10303-21;
HEADER;
FILE_DESCRIPTION(('F-01'),'2;1');
FILE_NAME('F-01','2026-09-10T00:00:00',('Dynamic Industry'),('Dynamic Industry'),'mp50_cad','MP-50','');
FILE_SCHEMA(('AUTOMOTIVE_DESIGN { 1 0 10303 214 1 1 1 1 }'));
ENDSEC;
DATA;
#1 = ( LENGTH_UNIT() NAMED_UNIT(*) SI_UNIT(.MILLI.,.METRE.) );
#2 = ( NAMED_UNIT(*) PLANE_ANGLE_UNIT() SI_UNIT($,.RADIAN.) );
#3 = ( NAMED_UNIT(*) SI_UNIT($,.STERADIAN.) SOLID_ANGLE_UNIT() );
#4 = UNCERTAINTY_MEASURE_WITH_UNIT(LENGTH_MEASURE(1.E-06),#1,'distance_accuracy_value','confusion accuracy');
#5 = ( GEOMETRIC_REPRESENTATION_CONTEXT(3) GLOBAL_UNCERTAINTY_ASSIGNED_CONTEXT((#4)) GLOBAL_UNIT_ASSIGNED_CONTEXT((#1,#2,#3)) REPRESENTATION_CONTEXT('','3D') );
#6 = APPLICATION_CONTEXT('automotive design');
#7 = APPLICATION_PROTOCOL_DEFINITION('international standard','automotive_design',2000,#6);
#8 = PRODUCT_CONTEXT('',#6,'mechanical');
#9 = PRODUCT_DEFINITION_CONTEXT('part definition',#6,'design');
#10 = PRODUCT('F-01','F-01','',(#8));
#11 = PRODUCT_DEFINITION_FORMATION('','',#10);
#12 = PRODUCT_DEFINITION('design','',#11,#9);
#13 = PRODUCT_DEFINITION_SHAPE('','',#12);
#14 = CARTESIAN_POINT('',(-6.0,-0.0,0.));
#15 = VERTEX_POINT('',#14);
#16 = CARTESIAN_POINT('',(6.0,0.0,0.));
#17 = VERTEX_POINT('',#16);
#18 = CARTESIAN_POINT('',(0.,0.0,0.));
#19 = DIRECTION('',(0.,0.,1.0));
#20 = DIRECTION('',(1.0,0.,0.));
#21 = AXIS2_PLACEMENT_3D('',#18,#19,#20);
#22 = CIRCLE('',#21,6.0);
#23 = EDGE_CURVE('',#15,#17,#22,.T.);
#24 = CARTESIAN_POINT('',(-6.0,-0.0,785.398163397));
#25 = VERTEX_POINT('',#24);
#26 = CARTESIAN_POINT('',(6.0,0.0,785.398163397));
#27 = VERTEX_POINT('',#26);
#28 = CARTESIAN_POINT('',(0.,0.0,785.398163397));
#29 = DIRECTION('',(0.,0.,1.0));
#30 = DIRECTION('',(1.0,0.,0.));
#31 = AXIS2_PLACEMENT_3D('',#28,#29,#30);
#32 = CIRCLE('',#31,6.0);
#33 = EDGE_CURVE('',#25,#27,#32,.T.);
#34 = CARTESIAN_POINT('',(0.,0.0,0.));
#35 = DIRECTION('',(0.,0.,1.0));
#36 = DIRECTION('',(1.0,0.,0.));
#37 = AXIS2_PLACEMENT_3D('',#34,#35,#36);
#38 = CYLINDRICAL_SURFACE('',#37,6.0);
#39 = DIRECTION('',(0.,0.,1.0));
#40 = VECTOR('',#39,785.398163397);
#41 = CARTESIAN_POINT('',(6.0,0.,0.));
#42 = LINE('',#41,#40);
#43 = EDGE_CURVE('',#17,#27,#42,.T.);
#44 = DIRECTION('',(0.,0.,1.0));
#45 = VECTOR('',#44,785.398163397);
#46 = CARTESIAN_POINT('',(-6.0,0.,0.));
#47 = LINE('',#46,#45);
#48 = EDGE_CURVE('',#15,#25,#47,.T.);
#49 = ORIENTED_EDGE('',*,*,#23,.T.);
#50 = ORIENTED_EDGE('',*,*,#43,.T.);
#51 = ORIENTED_EDGE('',*,*,#33,.F.);
#52 = ORIENTED_EDGE('',*,*,#48,.F.);
#53 = EDGE_LOOP('',(#49,#50,#51,#52));
#54 = FACE_OUTER_BOUND('',#53,.T.);
#55 = ADVANCED_FACE('',(#54),#38,.T.);
#56 = CARTESIAN_POINT('',(0.,-0.0,0.));
#57 = DIRECTION('',(0.,0.,1.0));
#58 = DIRECTION('',(1.0,0.,0.));
#59 = AXIS2_PLACEMENT_3D('',#56,#57,#58);
#60 = CIRCLE('',#59,6.0);
#61 = EDGE_CURVE('',#17,#15,#60,.T.);
#62 = CARTESIAN_POINT('',(0.,-0.0,785.398163397));
#63 = DIRECTION('',(0.,0.,1.0));
#64 = DIRECTION('',(1.0,0.,0.));
#65 = AXIS2_PLACEMENT_3D('',#62,#63,#64);
#66 = CIRCLE('',#65,6.0);
#67 = EDGE_CURVE('',#27,#25,#66,.T.);
#68 = CARTESIAN_POINT('',(0.,-0.0,0.));
#69 = DIRECTION('',(0.,0.,1.0));
#70 = DIRECTION('',(1.0,0.,0.));
#71 = AXIS2_PLACEMENT_3D('',#68,#69,#70);
#72 = CYLINDRICAL_SURFACE('',#71,6.0);
#73 = ORIENTED_EDGE('',*,*,#61,.T.);
#74 = ORIENTED_EDGE('',*,*,#48,.T.);
#75 = ORIENTED_EDGE('',*,*,#67,.F.);
#76 = ORIENTED_EDGE('',*,*,#43,.F.);
#77 = EDGE_LOOP('',(#73,#74,#75,#76));
#78 = FACE_OUTER_BOUND('',#77,.T.);
#79 = ADVANCED_FACE('',(#78),#72,.T.);
#80 = CARTESIAN_POINT('',(-4.5,0.0,0.));
#81 = VERTEX_POINT('',#80);
#82 = CARTESIAN_POINT('',(4.5,-0.0,0.));
#83 = VERTEX_POINT('',#82);
#84 = CARTESIAN_POINT('',(0.,-0.0,0.));
#85 = DIRECTION('',(0.,0.,1.0));
#86 = DIRECTION('',(1.0,0.,0.));
#87 = AXIS2_PLACEMENT_3D('',#84,#85,#86);
#88 = CIRCLE('',#87,4.5);
#89 = EDGE_CURVE('',#81,#83,#88,.F.);
#90 = CARTESIAN_POINT('',(-4.5,0.0,785.398163397));
#91 = VERTEX_POINT('',#90);
#92 = CARTESIAN_POINT('',(4.5,-0.0,785.398163397));
#93 = VERTEX_POINT('',#92);
#94 = CARTESIAN_POINT('',(0.,-0.0,785.398163397));
#95 = DIRECTION('',(0.,0.,1.0));
#96 = DIRECTION('',(1.0,0.,0.));
#97 = AXIS2_PLACEMENT_3D('',#94,#95,#96);
#98 = CIRCLE('',#97,4.5);
#99 = EDGE_CURVE('',#91,#93,#98,.F.);
#100 = CARTESIAN_POINT('',(0.,-0.0,0.));
#101 = DIRECTION('',(0.,0.,1.0));
#102 = DIRECTION('',(1.0,0.,0.));
#103 = AXIS2_PLACEMENT_3D('',#100,#101,#102);
#104 = CYLINDRICAL_SURFACE('',#103,4.5);
#105 = DIRECTION('',(0.,0.,1.0));
#106 = VECTOR('',#105,785.398163397);
#107 = CARTESIAN_POINT('',(4.5,0.,0.));
#108 = LINE('',#107,#106);
#109 = EDGE_CURVE('',#83,#93,#108,.T.);
#110 = DIRECTION('',(0.,0.,1.0));
#111 = VECTOR('',#110,785.398163397);
#112 = CARTESIAN_POINT('',(-4.5,0.,0.));
#113 = LINE('',#112,#111);
#114 = EDGE_CURVE('',#81,#91,#113,.T.);
#115 = ORIENTED_EDGE('',*,*,#89,.T.);
#116 = ORIENTED_EDGE('',*,*,#109,.T.);
#117 = ORIENTED_EDGE('',*,*,#99,.F.);
#118 = ORIENTED_EDGE('',*,*,#114,.F.);
#119 = EDGE_LOOP('',(#115,#116,#117,#118));
#120 = FACE_OUTER_BOUND('',#119,.T.);
#121 = ADVANCED_FACE('',(#120),#104,.F.);
#122 = CARTESIAN_POINT('',(0.,0.0,0.));
#123 = DIRECTION('',(0.,0.,1.0));
#124 = DIRECTION('',(1.0,0.,0.));
#125 = AXIS2_PLACEMENT_3D('',#122,#123,#124);
#126 = CIRCLE('',#125,4.5);
#127 = EDGE_CURVE('',#83,#81,#126,.F.);
#128 = CARTESIAN_POINT('',(0.,0.0,785.398163397));
#129 = DIRECTION('',(0.,0.,1.0));
#130 = DIRECTION('',(1.0,0.,0.));
#131 = AXIS2_PLACEMENT_3D('',#128,#129,#130);
#132 = CIRCLE('',#131,4.5);
#133 = EDGE_CURVE('',#93,#91,#132,.F.);
#134 = CARTESIAN_POINT('',(0.,0.0,0.));
#135 = DIRECTION('',(0.,0.,1.0));
#136 = DIRECTION('',(1.0,0.,0.));
#137 = AXIS2_PLACEMENT_3D('',#134,#135,#136);
#138 = CYLINDRICAL_SURFACE('',#137,4.5);
#139 = ORIENTED_EDGE('',*,*,#127,.T.);
#140 = ORIENTED_EDGE('',*,*,#114,.T.);
#141 = ORIENTED_EDGE('',*,*,#133,.F.);
#142 = ORIENTED_EDGE('',*,*,#109,.F.);
#143 = EDGE_LOOP('',(#139,#140,#141,#142));
#144 = FACE_OUTER_BOUND('',#143,.T.);
#145 = ADVANCED_FACE('',(#144),#138,.F.);
#146 = CARTESIAN_POINT('',(0.,0.,785.398163397));
#147 = DIRECTION('',(0.,0.,1.0));
#148 = DIRECTION('',(1.0,0.,0.));
#149 = AXIS2_PLACEMENT_3D('',#146,#147,#148);
#150 = PLANE('',#149);
#151 = ORIENTED_EDGE('',*,*,#33,.T.);
#152 = ORIENTED_EDGE('',*,*,#67,.T.);
#153 = EDGE_LOOP('',(#151,#152));
#154 = FACE_OUTER_BOUND('',#153,.T.);
#155 = ORIENTED_EDGE('',*,*,#99,.T.);
#156 = ORIENTED_EDGE('',*,*,#133,.T.);
#157 = EDGE_LOOP('',(#155,#156));
#158 = FACE_BOUND('',#157,.T.);
#159 = ADVANCED_FACE('',(#154,#158),#150,.T.);
#160 = CARTESIAN_POINT('',(0.,0.,0.));
#161 = DIRECTION('',(0.,0.,-1.0));
#162 = DIRECTION('',(1.0,0.,0.));
#163 = AXIS2_PLACEMENT_3D('',#160,#161,#162);
#164 = PLANE('',#163);
#165 = ORIENTED_EDGE('',*,*,#61,.F.);
#166 = ORIENTED_EDGE('',*,*,#23,.F.);
#167 = EDGE_LOOP('',(#165,#166));
#168 = FACE_OUTER_BOUND('',#167,.T.);
#169 = ORIENTED_EDGE('',*,*,#127,.F.);
#170 = ORIENTED_EDGE('',*,*,#89,.F.);
#171 = EDGE_LOOP('',(#169,#170));
#172 = FACE_BOUND('',#171,.T.);
#173 = ADVANCED_FACE('',(#168,#172),#164,.T.);
#174 = CLOSED_SHELL('',(#55,#79,#121,#145,#159,#173));
#175 = CARTESIAN_POINT('',(0.,0.,0.));
#176 = DIRECTION('',(0.,0.,1.0));
#177 = DIRECTION('',(1.0,0.,0.));
#178 = AXIS2_PLACEMENT_3D('',#175,#176,#177);
#179 = MANIFOLD_SOLID_BREP('F-01',#174);
#180 = ADVANCED_BREP_SHAPE_REPRESENTATION('F-01',(#179,#178),#5);
#181 = SHAPE_DEFINITION_REPRESENTATION(#13,#180);
ENDSEC;
END-ISO-10303-21;
