ISO-10303-21;
HEADER;
FILE_DESCRIPTION(('A-08'),'2;1');
FILE_NAME('A-08','2026-09-10T00:00:00',('Dynamic Industry'),('Dynamic Industry'),'mp50_cad','MP-50','');
FILE_SCHEMA(('AUTOMOTIVE_DESIGN { 1 0 10303 214 1 1 1 1 }'));
ENDSEC;
DATA;
#1 = ( LENGTH_UNIT() NAMED_UNIT(*) SI_UNIT(.MILLI.,.METRE.) );
#2 = ( NAMED_UNIT(*) PLANE_ANGLE_UNIT() SI_UNIT($,.RADIAN.) );
#3 = ( NAMED_UNIT(*) SI_UNIT($,.STERADIAN.) SOLID_ANGLE_UNIT() );
#4 = UNCERTAINTY_MEASURE_WITH_UNIT(LENGTH_MEASURE(1.E-06),#1,'distance_accuracy_value','confusion accuracy');
#5 = ( GEOMETRIC_REPRESENTATION_CONTEXT(3) GLOBAL_UNCERTAINTY_ASSIGNED_CONTEXT((#4)) GLOBAL_UNIT_ASSIGNED_CONTEXT((#1,#2,#3)) REPRESENTATION_CONTEXT('','3D') );
#6 = APPLICATION_CONTEXT('automotive design');
#7 = APPLICATION_PROTOCOL_DEFINITION('international standard','automotive_design',2000,#6);
#8 = PRODUCT_CONTEXT('',#6,'mechanical');
#9 = PRODUCT_DEFINITION_CONTEXT('part definition',#6,'design');
#10 = PRODUCT('A-08','A-08','',(#8));
#11 = PRODUCT_DEFINITION_FORMATION('','',#10);
#12 = PRODUCT_DEFINITION('design','',#11,#9);
#13 = PRODUCT_DEFINITION_SHAPE('','',#12);
#14 = CARTESIAN_POINT('',(0.,2.0,0.));
#15 = VERTEX_POINT('',#14);
#16 = CARTESIAN_POINT('',(2.0,0.,0.));
#17 = VERTEX_POINT('',#16);
#18 = CARTESIAN_POINT('',(2.0,2.0,0.));
#19 = DIRECTION('',(0.,0.,1.0));
#20 = DIRECTION('',(1.0,0.,0.));
#21 = AXIS2_PLACEMENT_3D('',#18,#19,#20);
#22 = CIRCLE('',#21,2.0);
#23 = EDGE_CURVE('',#15,#17,#22,.T.);
#24 = CARTESIAN_POINT('',(0.,2.0,6.0));
#25 = VERTEX_POINT('',#24);
#26 = CARTESIAN_POINT('',(2.0,0.,6.0));
#27 = VERTEX_POINT('',#26);
#28 = CARTESIAN_POINT('',(2.0,2.0,6.0));
#29 = DIRECTION('',(0.,0.,1.0));
#30 = DIRECTION('',(1.0,0.,0.));
#31 = AXIS2_PLACEMENT_3D('',#28,#29,#30);
#32 = CIRCLE('',#31,2.0);
#33 = EDGE_CURVE('',#25,#27,#32,.T.);
#34 = CARTESIAN_POINT('',(2.0,2.0,0.));
#35 = DIRECTION('',(0.,0.,1.0));
#36 = DIRECTION('',(1.0,0.,0.));
#37 = AXIS2_PLACEMENT_3D('',#34,#35,#36);
#38 = CYLINDRICAL_SURFACE('',#37,2.0);
#39 = DIRECTION('',(0.,0.,1.0));
#40 = VECTOR('',#39,6.0);
#41 = CARTESIAN_POINT('',(2.0,0.,0.));
#42 = LINE('',#41,#40);
#43 = EDGE_CURVE('',#17,#27,#42,.T.);
#44 = DIRECTION('',(0.,0.,1.0));
#45 = VECTOR('',#44,6.0);
#46 = CARTESIAN_POINT('',(0.,2.0,0.));
#47 = LINE('',#46,#45);
#48 = EDGE_CURVE('',#15,#25,#47,.T.);
#49 = ORIENTED_EDGE('',*,*,#23,.T.);
#50 = ORIENTED_EDGE('',*,*,#43,.T.);
#51 = ORIENTED_EDGE('',*,*,#33,.F.);
#52 = ORIENTED_EDGE('',*,*,#48,.F.);
#53 = EDGE_LOOP('',(#49,#50,#51,#52));
#54 = FACE_OUTER_BOUND('',#53,.T.);
#55 = ADVANCED_FACE('',(#54),#38,.T.);
#56 = CARTESIAN_POINT('',(68.0,0.,0.));
#57 = VERTEX_POINT('',#56);
#58 = DIRECTION('',(1.0,0.,0.));
#59 = VECTOR('',#58,66.0);
#60 = CARTESIAN_POINT('',(2.0,0.,0.));
#61 = LINE('',#60,#59);
#62 = EDGE_CURVE('',#17,#57,#61,.T.);
#63 = CARTESIAN_POINT('',(68.0,0.,6.0));
#64 = VERTEX_POINT('',#63);
#65 = DIRECTION('',(1.0,0.,0.));
#66 = VECTOR('',#65,66.0);
#67 = CARTESIAN_POINT('',(2.0,0.,6.0));
#68 = LINE('',#67,#66);
#69 = EDGE_CURVE('',#27,#64,#68,.T.);
#70 = CARTESIAN_POINT('',(2.0,0.,0.));
#71 = DIRECTION('',(0.,-1.0,0.));
#72 = DIRECTION('',(1.0,0.,0.));
#73 = AXIS2_PLACEMENT_3D('',#70,#71,#72);
#74 = PLANE('',#73);
#75 = DIRECTION('',(0.,0.,1.0));
#76 = VECTOR('',#75,6.0);
#77 = CARTESIAN_POINT('',(68.0,0.,0.));
#78 = LINE('',#77,#76);
#79 = EDGE_CURVE('',#57,#64,#78,.T.);
#80 = ORIENTED_EDGE('',*,*,#62,.T.);
#81 = ORIENTED_EDGE('',*,*,#79,.T.);
#82 = ORIENTED_EDGE('',*,*,#69,.F.);
#83 = ORIENTED_EDGE('',*,*,#43,.F.);
#84 = EDGE_LOOP('',(#80,#81,#82,#83));
#85 = FACE_OUTER_BOUND('',#84,.T.);
#86 = ADVANCED_FACE('',(#85),#74,.T.);
#87 = CARTESIAN_POINT('',(70.0,2.0,0.));
#88 = VERTEX_POINT('',#87);
#89 = CARTESIAN_POINT('',(68.0,2.0,0.));
#90 = DIRECTION('',(0.,0.,1.0));
#91 = DIRECTION('',(1.0,0.,0.));
#92 = AXIS2_PLACEMENT_3D('',#89,#90,#91);
#93 = CIRCLE('',#92,2.0);
#94 = EDGE_CURVE('',#57,#88,#93,.T.);
#95 = CARTESIAN_POINT('',(70.0,2.0,6.0));
#96 = VERTEX_POINT('',#95);
#97 = CARTESIAN_POINT('',(68.0,2.0,6.0));
#98 = DIRECTION('',(0.,0.,1.0));
#99 = DIRECTION('',(1.0,0.,0.));
#100 = AXIS2_PLACEMENT_3D('',#97,#98,#99);
#101 = CIRCLE('',#100,2.0);
#102 = EDGE_CURVE('',#64,#96,#101,.T.);
#103 = CARTESIAN_POINT('',(68.0,2.0,0.));
#104 = DIRECTION('',(0.,0.,1.0));
#105 = DIRECTION('',(1.0,0.,0.));
#106 = AXIS2_PLACEMENT_3D('',#103,#104,#105);
#107 = CYLINDRICAL_SURFACE('',#106,2.0);
#108 = DIRECTION('',(0.,0.,1.0));
#109 = VECTOR('',#108,6.0);
#110 = CARTESIAN_POINT('',(70.0,2.0,0.));
#111 = LINE('',#110,#109);
#112 = EDGE_CURVE('',#88,#96,#111,.T.);
#113 = ORIENTED_EDGE('',*,*,#94,.T.);
#114 = ORIENTED_EDGE('',*,*,#112,.T.);
#115 = ORIENTED_EDGE('',*,*,#102,.F.);
#116 = ORIENTED_EDGE('',*,*,#79,.F.);
#117 = EDGE_LOOP('',(#113,#114,#115,#116));
#118 = FACE_OUTER_BOUND('',#117,.T.);
#119 = ADVANCED_FACE('',(#118),#107,.T.);
#120 = CARTESIAN_POINT('',(70.0,31.171572875,0.));
#121 = VERTEX_POINT('',#120);
#122 = DIRECTION('',(0.,1.0,0.));
#123 = VECTOR('',#122,29.171572875);
#124 = CARTESIAN_POINT('',(70.0,2.0,0.));
#125 = LINE('',#124,#123);
#126 = EDGE_CURVE('',#88,#121,#125,.T.);
#127 = CARTESIAN_POINT('',(70.0,31.171572875,6.0));
#128 = VERTEX_POINT('',#127);
#129 = DIRECTION('',(0.,1.0,0.));
#130 = VECTOR('',#129,29.171572875);
#131 = CARTESIAN_POINT('',(70.0,2.0,6.0));
#132 = LINE('',#131,#130);
#133 = EDGE_CURVE('',#96,#128,#132,.T.);
#134 = CARTESIAN_POINT('',(70.0,2.0,0.));
#135 = DIRECTION('',(1.0,0.,0.));
#136 = DIRECTION('',(0.,1.0,0.));
#137 = AXIS2_PLACEMENT_3D('',#134,#135,#136);
#138 = PLANE('',#137);
#139 = DIRECTION('',(0.,0.,1.0));
#140 = VECTOR('',#139,6.0);
#141 = CARTESIAN_POINT('',(70.0,31.171572875,0.));
#142 = LINE('',#141,#140);
#143 = EDGE_CURVE('',#121,#128,#142,.T.);
#144 = ORIENTED_EDGE('',*,*,#126,.T.);
#145 = ORIENTED_EDGE('',*,*,#143,.T.);
#146 = ORIENTED_EDGE('',*,*,#133,.F.);
#147 = ORIENTED_EDGE('',*,*,#112,.F.);
#148 = EDGE_LOOP('',(#144,#145,#146,#147));
#149 = FACE_OUTER_BOUND('',#148,.T.);
#150 = ADVANCED_FACE('',(#149),#138,.T.);
#151 = CARTESIAN_POINT('',(69.414213562,32.585786438,0.));
#152 = VERTEX_POINT('',#151);
#153 = CARTESIAN_POINT('',(68.0,31.171572875,0.));
#154 = DIRECTION('',(0.,0.,1.0));
#155 = DIRECTION('',(1.0,0.,0.));
#156 = AXIS2_PLACEMENT_3D('',#153,#154,#155);
#157 = CIRCLE('',#156,2.0);
#158 = EDGE_CURVE('',#121,#152,#157,.T.);
#159 = CARTESIAN_POINT('',(69.414213562,32.585786438,6.0));
#160 = VERTEX_POINT('',#159);
#161 = CARTESIAN_POINT('',(68.0,31.171572875,6.0));
#162 = DIRECTION('',(0.,0.,1.0));
#163 = DIRECTION('',(1.0,0.,0.));
#164 = AXIS2_PLACEMENT_3D('',#161,#162,#163);
#165 = CIRCLE('',#164,2.0);
#166 = EDGE_CURVE('',#128,#160,#165,.T.);
#167 = CARTESIAN_POINT('',(68.0,31.171572875,0.));
#168 = DIRECTION('',(0.,0.,1.0));
#169 = DIRECTION('',(1.0,0.,0.));
#170 = AXIS2_PLACEMENT_3D('',#167,#168,#169);
#171 = CYLINDRICAL_SURFACE('',#170,2.0);
#172 = DIRECTION('',(0.,0.,1.0));
#173 = VECTOR('',#172,6.0);
#174 = CARTESIAN_POINT('',(69.414213562,32.585786438,0.));
#175 = LINE('',#174,#173);
#176 = EDGE_CURVE('',#152,#160,#175,.T.);
#177 = ORIENTED_EDGE('',*,*,#158,.T.);
#178 = ORIENTED_EDGE('',*,*,#176,.T.);
#179 = ORIENTED_EDGE('',*,*,#166,.F.);
#180 = ORIENTED_EDGE('',*,*,#143,.F.);
#181 = EDGE_LOOP('',(#177,#178,#179,#180));
#182 = FACE_OUTER_BOUND('',#181,.T.);
#183 = ADVANCED_FACE('',(#182),#171,.T.);
#184 = CARTESIAN_POINT('',(52.585786438,49.414213562,0.));
#185 = VERTEX_POINT('',#184);
#186 = DIRECTION('',(-0.707106781,0.707106781,0.));
#187 = VECTOR('',#186,23.798989873);
#188 = CARTESIAN_POINT('',(69.414213562,32.585786438,0.));
#189 = LINE('',#188,#187);
#190 = EDGE_CURVE('',#152,#185,#189,.T.);
#191 = CARTESIAN_POINT('',(52.585786438,49.414213562,6.0));
#192 = VERTEX_POINT('',#191);
#193 = DIRECTION('',(-0.707106781,0.707106781,0.));
#194 = VECTOR('',#193,23.798989873);
#195 = CARTESIAN_POINT('',(69.414213562,32.585786438,6.0));
#196 = LINE('',#195,#194);
#197 = EDGE_CURVE('',#160,#192,#196,.T.);
#198 = CARTESIAN_POINT('',(69.414213562,32.585786438,0.));
#199 = DIRECTION('',(0.707106781,0.707106781,0.));
#200 = DIRECTION('',(-0.707106781,0.707106781,0.));
#201 = AXIS2_PLACEMENT_3D('',#198,#199,#200);
#202 = PLANE('',#201);
#203 = DIRECTION('',(0.,0.,1.0));
#204 = VECTOR('',#203,6.0);
#205 = CARTESIAN_POINT('',(52.585786438,49.414213562,0.));
#206 = LINE('',#205,#204);
#207 = EDGE_CURVE('',#185,#192,#206,.T.);
#208 = ORIENTED_EDGE('',*,*,#190,.T.);
#209 = ORIENTED_EDGE('',*,*,#207,.T.);
#210 = ORIENTED_EDGE('',*,*,#197,.F.);
#211 = ORIENTED_EDGE('',*,*,#176,.F.);
#212 = EDGE_LOOP('',(#208,#209,#210,#211));
#213 = FACE_OUTER_BOUND('',#212,.T.);
#214 = ADVANCED_FACE('',(#213),#202,.T.);
#215 = CARTESIAN_POINT('',(51.171572875,50.0,0.));
#216 = VERTEX_POINT('',#215);
#217 = CARTESIAN_POINT('',(51.171572875,48.0,0.));
#218 = DIRECTION('',(0.,0.,1.0));
#219 = DIRECTION('',(1.0,0.,0.));
#220 = AXIS2_PLACEMENT_3D('',#217,#218,#219);
#221 = CIRCLE('',#220,2.0);
#222 = EDGE_CURVE('',#185,#216,#221,.T.);
#223 = CARTESIAN_POINT('',(51.171572875,50.0,6.0));
#224 = VERTEX_POINT('',#223);
#225 = CARTESIAN_POINT('',(51.171572875,48.0,6.0));
#226 = DIRECTION('',(0.,0.,1.0));
#227 = DIRECTION('',(1.0,0.,0.));
#228 = AXIS2_PLACEMENT_3D('',#225,#226,#227);
#229 = CIRCLE('',#228,2.0);
#230 = EDGE_CURVE('',#192,#224,#229,.T.);
#231 = CARTESIAN_POINT('',(51.171572875,48.0,0.));
#232 = DIRECTION('',(0.,0.,1.0));
#233 = DIRECTION('',(1.0,0.,0.));
#234 = AXIS2_PLACEMENT_3D('',#231,#232,#233);
#235 = CYLINDRICAL_SURFACE('',#234,2.0);
#236 = DIRECTION('',(0.,0.,1.0));
#237 = VECTOR('',#236,6.0);
#238 = CARTESIAN_POINT('',(51.171572875,50.0,0.));
#239 = LINE('',#238,#237);
#240 = EDGE_CURVE('',#216,#224,#239,.T.);
#241 = ORIENTED_EDGE('',*,*,#222,.T.);
#242 = ORIENTED_EDGE('',*,*,#240,.T.);
#243 = ORIENTED_EDGE('',*,*,#230,.F.);
#244 = ORIENTED_EDGE('',*,*,#207,.F.);
#245 = EDGE_LOOP('',(#241,#242,#243,#244));
#246 = FACE_OUTER_BOUND('',#245,.T.);
#247 = ADVANCED_FACE('',(#246),#235,.T.);
#248 = CARTESIAN_POINT('',(2.0,50.0,0.));
#249 = VERTEX_POINT('',#248);
#250 = DIRECTION('',(-1.0,0.,0.));
#251 = VECTOR('',#250,49.171572875);
#252 = CARTESIAN_POINT('',(51.171572875,50.0,0.));
#253 = LINE('',#252,#251);
#254 = EDGE_CURVE('',#216,#249,#253,.T.);
#255 = CARTESIAN_POINT('',(2.0,50.0,6.0));
#256 = VERTEX_POINT('',#255);
#257 = DIRECTION('',(-1.0,0.,0.));
#258 = VECTOR('',#257,49.171572875);
#259 = CARTESIAN_POINT('',(51.171572875,50.0,6.0));
#260 = LINE('',#259,#258);
#261 = EDGE_CURVE('',#224,#256,#260,.T.);
#262 = CARTESIAN_POINT('',(51.171572875,50.0,0.));
#263 = DIRECTION('',(0.,1.0,0.));
#264 = DIRECTION('',(-1.0,0.,0.));
#265 = AXIS2_PLACEMENT_3D('',#262,#263,#264);
#266 = PLANE('',#265);
#267 = DIRECTION('',(0.,0.,1.0));
#268 = VECTOR('',#267,6.0);
#269 = CARTESIAN_POINT('',(2.0,50.0,0.));
#270 = LINE('',#269,#268);
#271 = EDGE_CURVE('',#249,#256,#270,.T.);
#272 = ORIENTED_EDGE('',*,*,#254,.T.);
#273 = ORIENTED_EDGE('',*,*,#271,.T.);
#274 = ORIENTED_EDGE('',*,*,#261,.F.);
#275 = ORIENTED_EDGE('',*,*,#240,.F.);
#276 = EDGE_LOOP('',(#272,#273,#274,#275));
#277 = FACE_OUTER_BOUND('',#276,.T.);
#278 = ADVANCED_FACE('',(#277),#266,.T.);
#279 = CARTESIAN_POINT('',(0.,48.0,0.));
#280 = VERTEX_POINT('',#279);
#281 = CARTESIAN_POINT('',(2.0,48.0,0.));
#282 = DIRECTION('',(0.,0.,1.0));
#283 = DIRECTION('',(1.0,0.,0.));
#284 = AXIS2_PLACEMENT_3D('',#281,#282,#283);
#285 = CIRCLE('',#284,2.0);
#286 = EDGE_CURVE('',#249,#280,#285,.T.);
#287 = CARTESIAN_POINT('',(0.,48.0,6.0));
#288 = VERTEX_POINT('',#287);
#289 = CARTESIAN_POINT('',(2.0,48.0,6.0));
#290 = DIRECTION('',(0.,0.,1.0));
#291 = DIRECTION('',(1.0,0.,0.));
#292 = AXIS2_PLACEMENT_3D('',#289,#290,#291);
#293 = CIRCLE('',#292,2.0);
#294 = EDGE_CURVE('',#256,#288,#293,.T.);
#295 = CARTESIAN_POINT('',(2.0,48.0,0.));
#296 = DIRECTION('',(0.,0.,1.0));
#297 = DIRECTION('',(1.0,0.,0.));
#298 = AXIS2_PLACEMENT_3D('',#295,#296,#297);
#299 = CYLINDRICAL_SURFACE('',#298,2.0);
#300 = DIRECTION('',(0.,0.,1.0));
#301 = VECTOR('',#300,6.0);
#302 = CARTESIAN_POINT('',(0.,48.0,0.));
#303 = LINE('',#302,#301);
#304 = EDGE_CURVE('',#280,#288,#303,.T.);
#305 = ORIENTED_EDGE('',*,*,#286,.T.);
#306 = ORIENTED_EDGE('',*,*,#304,.T.);
#307 = ORIENTED_EDGE('',*,*,#294,.F.);
#308 = ORIENTED_EDGE('',*,*,#271,.F.);
#309 = EDGE_LOOP('',(#305,#306,#307,#308));
#310 = FACE_OUTER_BOUND('',#309,.T.);
#311 = ADVANCED_FACE('',(#310),#299,.T.);
#312 = DIRECTION('',(0.,-1.0,0.));
#313 = VECTOR('',#312,46.0);
#314 = CARTESIAN_POINT('',(0.,48.0,0.));
#315 = LINE('',#314,#313);
#316 = EDGE_CURVE('',#280,#15,#315,.T.);
#317 = DIRECTION('',(0.,-1.0,0.));
#318 = VECTOR('',#317,46.0);
#319 = CARTESIAN_POINT('',(0.,48.0,6.0));
#320 = LINE('',#319,#318);
#321 = EDGE_CURVE('',#288,#25,#320,.T.);
#322 = CARTESIAN_POINT('',(0.,48.0,0.));
#323 = DIRECTION('',(-1.0,0.,0.));
#324 = DIRECTION('',(0.,-1.0,0.));
#325 = AXIS2_PLACEMENT_3D('',#322,#323,#324);
#326 = PLANE('',#325);
#327 = ORIENTED_EDGE('',*,*,#316,.T.);
#328 = ORIENTED_EDGE('',*,*,#48,.T.);
#329 = ORIENTED_EDGE('',*,*,#321,.F.);
#330 = ORIENTED_EDGE('',*,*,#304,.F.);
#331 = EDGE_LOOP('',(#327,#328,#329,#330));
#332 = FACE_OUTER_BOUND('',#331,.T.);
#333 = ADVANCED_FACE('',(#332),#326,.T.);
#334 = CARTESIAN_POINT('',(34.0,26.0,0.));
#335 = VERTEX_POINT('',#334);
#336 = CARTESIAN_POINT('',(54.0,26.0,0.));
#337 = VERTEX_POINT('',#336);
#338 = CARTESIAN_POINT('',(44.0,26.0,0.));
#339 = DIRECTION('',(0.,0.,1.0));
#340 = DIRECTION('',(1.0,0.,0.));
#341 = AXIS2_PLACEMENT_3D('',#338,#339,#340);
#342 = CIRCLE('',#341,10.0);
#343 = EDGE_CURVE('',#335,#337,#342,.F.);
#344 = CARTESIAN_POINT('',(34.0,26.0,6.0));
#345 = VERTEX_POINT('',#344);
#346 = CARTESIAN_POINT('',(54.0,26.0,6.0));
#347 = VERTEX_POINT('',#346);
#348 = CARTESIAN_POINT('',(44.0,26.0,6.0));
#349 = DIRECTION('',(0.,0.,1.0));
#350 = DIRECTION('',(1.0,0.,0.));
#351 = AXIS2_PLACEMENT_3D('',#348,#349,#350);
#352 = CIRCLE('',#351,10.0);
#353 = EDGE_CURVE('',#345,#347,#352,.F.);
#354 = CARTESIAN_POINT('',(44.0,26.0,0.));
#355 = DIRECTION('',(0.,0.,1.0));
#356 = DIRECTION('',(1.0,0.,0.));
#357 = AXIS2_PLACEMENT_3D('',#354,#355,#356);
#358 = CYLINDRICAL_SURFACE('',#357,10.0);
#359 = DIRECTION('',(0.,0.,1.0));
#360 = VECTOR('',#359,6.0);
#361 = CARTESIAN_POINT('',(54.0,26.0,0.));
#362 = LINE('',#361,#360);
#363 = EDGE_CURVE('',#337,#347,#362,.T.);
#364 = DIRECTION('',(0.,0.,1.0));
#365 = VECTOR('',#364,6.0);
#366 = CARTESIAN_POINT('',(34.0,26.0,0.));
#367 = LINE('',#366,#365);
#368 = EDGE_CURVE('',#335,#345,#367,.T.);
#369 = ORIENTED_EDGE('',*,*,#343,.T.);
#370 = ORIENTED_EDGE('',*,*,#363,.T.);
#371 = ORIENTED_EDGE('',*,*,#353,.F.);
#372 = ORIENTED_EDGE('',*,*,#368,.F.);
#373 = EDGE_LOOP('',(#369,#370,#371,#372));
#374 = FACE_OUTER_BOUND('',#373,.T.);
#375 = ADVANCED_FACE('',(#374),#358,.F.);
#376 = CARTESIAN_POINT('',(44.0,26.0,0.));
#377 = DIRECTION('',(0.,0.,1.0));
#378 = DIRECTION('',(1.0,0.,0.));
#379 = AXIS2_PLACEMENT_3D('',#376,#377,#378);
#380 = CIRCLE('',#379,10.0);
#381 = EDGE_CURVE('',#337,#335,#380,.F.);
#382 = CARTESIAN_POINT('',(44.0,26.0,6.0));
#383 = DIRECTION('',(0.,0.,1.0));
#384 = DIRECTION('',(1.0,0.,0.));
#385 = AXIS2_PLACEMENT_3D('',#382,#383,#384);
#386 = CIRCLE('',#385,10.0);
#387 = EDGE_CURVE('',#347,#345,#386,.F.);
#388 = CARTESIAN_POINT('',(44.0,26.0,0.));
#389 = DIRECTION('',(0.,0.,1.0));
#390 = DIRECTION('',(1.0,0.,0.));
#391 = AXIS2_PLACEMENT_3D('',#388,#389,#390);
#392 = CYLINDRICAL_SURFACE('',#391,10.0);
#393 = ORIENTED_EDGE('',*,*,#381,.T.);
#394 = ORIENTED_EDGE('',*,*,#368,.T.);
#395 = ORIENTED_EDGE('',*,*,#387,.F.);
#396 = ORIENTED_EDGE('',*,*,#363,.F.);
#397 = EDGE_LOOP('',(#393,#394,#395,#396));
#398 = FACE_OUTER_BOUND('',#397,.T.);
#399 = ADVANCED_FACE('',(#398),#392,.F.);
#400 = CARTESIAN_POINT('',(0.,0.,6.0));
#401 = DIRECTION('',(0.,0.,1.0));
#402 = DIRECTION('',(1.0,0.,0.));
#403 = AXIS2_PLACEMENT_3D('',#400,#401,#402);
#404 = PLANE('',#403);
#405 = ORIENTED_EDGE('',*,*,#33,.T.);
#406 = ORIENTED_EDGE('',*,*,#69,.T.);
#407 = ORIENTED_EDGE('',*,*,#102,.T.);
#408 = ORIENTED_EDGE('',*,*,#133,.T.);
#409 = ORIENTED_EDGE('',*,*,#166,.T.);
#410 = ORIENTED_EDGE('',*,*,#197,.T.);
#411 = ORIENTED_EDGE('',*,*,#230,.T.);
#412 = ORIENTED_EDGE('',*,*,#261,.T.);
#413 = ORIENTED_EDGE('',*,*,#294,.T.);
#414 = ORIENTED_EDGE('',*,*,#321,.T.);
#415 = EDGE_LOOP('',(#405,#406,#407,#408,#409,#410,#411,#412,#413,#414));
#416 = FACE_OUTER_BOUND('',#415,.T.);
#417 = ORIENTED_EDGE('',*,*,#353,.T.);
#418 = ORIENTED_EDGE('',*,*,#387,.T.);
#419 = EDGE_LOOP('',(#417,#418));
#420 = FACE_BOUND('',#419,.T.);
#421 = ADVANCED_FACE('',(#416,#420),#404,.T.);
#422 = CARTESIAN_POINT('',(0.,0.,0.));
#423 = DIRECTION('',(0.,0.,-1.0));
#424 = DIRECTION('',(1.0,0.,0.));
#425 = AXIS2_PLACEMENT_3D('',#422,#423,#424);
#426 = PLANE('',#425);
#427 = ORIENTED_EDGE('',*,*,#316,.F.);
#428 = ORIENTED_EDGE('',*,*,#286,.F.);
#429 = ORIENTED_EDGE('',*,*,#254,.F.);
#430 = ORIENTED_EDGE('',*,*,#222,.F.);
#431 = ORIENTED_EDGE('',*,*,#190,.F.);
#432 = ORIENTED_EDGE('',*,*,#158,.F.);
#433 = ORIENTED_EDGE('',*,*,#126,.F.);
#434 = ORIENTED_EDGE('',*,*,#94,.F.);
#435 = ORIENTED_EDGE('',*,*,#62,.F.);
#436 = ORIENTED_EDGE('',*,*,#23,.F.);
#437 = EDGE_LOOP('',(#427,#428,#429,#430,#431,#432,#433,#434,#435,#436));
#438 = FACE_OUTER_BOUND('',#437,.T.);
#439 = ORIENTED_EDGE('',*,*,#381,.F.);
#440 = ORIENTED_EDGE('',*,*,#343,.F.);
#441 = EDGE_LOOP('',(#439,#440));
#442 = FACE_BOUND('',#441,.T.);
#443 = ADVANCED_FACE('',(#438,#442),#426,.T.);
#444 = CLOSED_SHELL('',(#55,#86,#119,#150,#183,#214,#247,#278,#311,#333,#375,#399,#421,#443));
#445 = CARTESIAN_POINT('',(0.,0.,0.));
#446 = DIRECTION('',(0.,0.,1.0));
#447 = DIRECTION('',(1.0,0.,0.));
#448 = AXIS2_PLACEMENT_3D('',#445,#446,#447);
#449 = MANIFOLD_SOLID_BREP('A-08',#444);
#450 = ADVANCED_BREP_SHAPE_REPRESENTATION('A-08',(#449,#448),#5);
#451 = SHAPE_DEFINITION_REPRESENTATION(#13,#450);
ENDSEC;
END-ISO-10303-21;
