ISO-10303-21;
HEADER;
FILE_DESCRIPTION(('A-02'),'2;1');
FILE_NAME('A-02','2026-09-10T00:00:00',('Dynamic Industry'),('Dynamic Industry'),'mp50_cad','MP-50','');
FILE_SCHEMA(('AUTOMOTIVE_DESIGN { 1 0 10303 214 1 1 1 1 }'));
ENDSEC;
DATA;
#1 = ( LENGTH_UNIT() NAMED_UNIT(*) SI_UNIT(.MILLI.,.METRE.) );
#2 = ( NAMED_UNIT(*) PLANE_ANGLE_UNIT() SI_UNIT($,.RADIAN.) );
#3 = ( NAMED_UNIT(*) SI_UNIT($,.STERADIAN.) SOLID_ANGLE_UNIT() );
#4 = UNCERTAINTY_MEASURE_WITH_UNIT(LENGTH_MEASURE(1.E-06),#1,'distance_accuracy_value','confusion accuracy');
#5 = ( GEOMETRIC_REPRESENTATION_CONTEXT(3) GLOBAL_UNCERTAINTY_ASSIGNED_CONTEXT((#4)) GLOBAL_UNIT_ASSIGNED_CONTEXT((#1,#2,#3)) REPRESENTATION_CONTEXT('','3D') );
#6 = APPLICATION_CONTEXT('automotive design');
#7 = APPLICATION_PROTOCOL_DEFINITION('international standard','automotive_design',2000,#6);
#8 = PRODUCT_CONTEXT('',#6,'mechanical');
#9 = PRODUCT_DEFINITION_CONTEXT('part definition',#6,'design');
#10 = PRODUCT('A-02','A-02','',(#8));
#11 = PRODUCT_DEFINITION_FORMATION('','',#10);
#12 = PRODUCT_DEFINITION('design','',#11,#9);
#13 = PRODUCT_DEFINITION_SHAPE('','',#12);
#14 = CARTESIAN_POINT('',(0.,0.,0.));
#15 = DIRECTION('',(0.,0.,1.0));
#16 = DIRECTION('',(1.0,0.,0.));
#17 = AXIS2_PLACEMENT_3D('',#14,#15,#16);
#18 = CIRCLE('',#17,203.0);
#19 = CARTESIAN_POINT('',(203.0,0.,0.));
#20 = VERTEX_POINT('',#19);
#21 = CARTESIAN_POINT('',(-203.0,0.0,0.));
#22 = VERTEX_POINT('',#21);
#23 = EDGE_CURVE('',#20,#22,#18,.T.);
#24 = CARTESIAN_POINT('',(0.,0.,0.));
#25 = DIRECTION('',(0.,0.,1.0));
#26 = DIRECTION('',(1.0,0.,0.));
#27 = AXIS2_PLACEMENT_3D('',#24,#25,#26);
#28 = CIRCLE('',#27,203.0);
#29 = EDGE_CURVE('',#22,#20,#28,.T.);
#30 = CARTESIAN_POINT('',(0.,0.,294.881649989));
#31 = DIRECTION('',(0.,0.,1.0));
#32 = DIRECTION('',(1.0,0.,0.));
#33 = AXIS2_PLACEMENT_3D('',#30,#31,#32);
#34 = CIRCLE('',#33,32.75);
#35 = CARTESIAN_POINT('',(32.75,0.,294.881649989));
#36 = VERTEX_POINT('',#35);
#37 = CARTESIAN_POINT('',(-32.75,0.0,294.881649989));
#38 = VERTEX_POINT('',#37);
#39 = EDGE_CURVE('',#36,#38,#34,.T.);
#40 = CARTESIAN_POINT('',(0.,0.,294.881649989));
#41 = DIRECTION('',(0.,0.,1.0));
#42 = DIRECTION('',(1.0,0.,0.));
#43 = AXIS2_PLACEMENT_3D('',#40,#41,#42);
#44 = CIRCLE('',#43,32.75);
#45 = EDGE_CURVE('',#38,#36,#44,.T.);
#46 = DIRECTION('',(-0.5,0.,0.866025404));
#47 = VECTOR('',#46,340.5);
#48 = CARTESIAN_POINT('',(203.0,0.,0.));
#49 = LINE('',#48,#47);
#50 = EDGE_CURVE('',#20,#36,#49,.T.);
#51 = DIRECTION('',(0.5,-0.0,0.866025404));
#52 = VECTOR('',#51,340.5);
#53 = CARTESIAN_POINT('',(-203.0,0.0,0.));
#54 = LINE('',#53,#52);
#55 = EDGE_CURVE('',#22,#38,#54,.T.);
#56 = CARTESIAN_POINT('',(0.,0.,0.));
#57 = DIRECTION('',(0.,0.,-1.0));
#58 = DIRECTION('',(1.0,0.,0.));
#59 = AXIS2_PLACEMENT_3D('',#56,#57,#58);
#60 = CONICAL_SURFACE('',#59,203.0,0.523598776);
#61 = ORIENTED_EDGE('',*,*,#23,.T.);
#62 = ORIENTED_EDGE('',*,*,#55,.T.);
#63 = ORIENTED_EDGE('',*,*,#39,.F.);
#64 = ORIENTED_EDGE('',*,*,#50,.F.);
#65 = EDGE_LOOP('',(#61,#62,#63,#64));
#66 = FACE_OUTER_BOUND('',#65,.T.);
#67 = ADVANCED_FACE('',(#66),#60,.T.);
#68 = ORIENTED_EDGE('',*,*,#29,.T.);
#69 = ORIENTED_EDGE('',*,*,#50,.T.);
#70 = ORIENTED_EDGE('',*,*,#45,.F.);
#71 = ORIENTED_EDGE('',*,*,#55,.F.);
#72 = EDGE_LOOP('',(#68,#69,#70,#71));
#73 = FACE_OUTER_BOUND('',#72,.T.);
#74 = ADVANCED_FACE('',(#73),#60,.T.);
#75 = CARTESIAN_POINT('',(0.,0.,0.));
#76 = DIRECTION('',(0.,0.,1.0));
#77 = DIRECTION('',(1.0,0.,0.));
#78 = AXIS2_PLACEMENT_3D('',#75,#76,#77);
#79 = CIRCLE('',#78,199.535898385);
#80 = CARTESIAN_POINT('',(199.535898385,0.,0.));
#81 = VERTEX_POINT('',#80);
#82 = CARTESIAN_POINT('',(-199.535898385,0.0,0.));
#83 = VERTEX_POINT('',#82);
#84 = EDGE_CURVE('',#81,#83,#79,.T.);
#85 = CARTESIAN_POINT('',(0.,0.,0.));
#86 = DIRECTION('',(0.,0.,1.0));
#87 = DIRECTION('',(1.0,0.,0.));
#88 = AXIS2_PLACEMENT_3D('',#85,#86,#87);
#89 = CIRCLE('',#88,199.535898385);
#90 = EDGE_CURVE('',#83,#81,#89,.T.);
#91 = CARTESIAN_POINT('',(0.,0.,294.881649989));
#92 = DIRECTION('',(0.,0.,1.0));
#93 = DIRECTION('',(1.0,0.,0.));
#94 = AXIS2_PLACEMENT_3D('',#91,#92,#93);
#95 = CIRCLE('',#94,29.285898385);
#96 = CARTESIAN_POINT('',(29.285898385,0.,294.881649989));
#97 = VERTEX_POINT('',#96);
#98 = CARTESIAN_POINT('',(-29.285898385,0.0,294.881649989));
#99 = VERTEX_POINT('',#98);
#100 = EDGE_CURVE('',#97,#99,#95,.T.);
#101 = CARTESIAN_POINT('',(0.,0.,294.881649989));
#102 = DIRECTION('',(0.,0.,1.0));
#103 = DIRECTION('',(1.0,0.,0.));
#104 = AXIS2_PLACEMENT_3D('',#101,#102,#103);
#105 = CIRCLE('',#104,29.285898385);
#106 = EDGE_CURVE('',#99,#97,#105,.T.);
#107 = DIRECTION('',(-0.5,0.,0.866025404));
#108 = VECTOR('',#107,340.5);
#109 = CARTESIAN_POINT('',(199.535898385,0.,0.));
#110 = LINE('',#109,#108);
#111 = EDGE_CURVE('',#81,#97,#110,.T.);
#112 = DIRECTION('',(0.5,-0.0,0.866025404));
#113 = VECTOR('',#112,340.5);
#114 = CARTESIAN_POINT('',(-199.535898385,0.0,0.));
#115 = LINE('',#114,#113);
#116 = EDGE_CURVE('',#83,#99,#115,.T.);
#117 = CARTESIAN_POINT('',(0.,0.,0.));
#118 = DIRECTION('',(0.,0.,-1.0));
#119 = DIRECTION('',(1.0,0.,0.));
#120 = AXIS2_PLACEMENT_3D('',#117,#118,#119);
#121 = CONICAL_SURFACE('',#120,199.535898385,0.523598776);
#122 = ORIENTED_EDGE('',*,*,#84,.T.);
#123 = ORIENTED_EDGE('',*,*,#116,.T.);
#124 = ORIENTED_EDGE('',*,*,#100,.F.);
#125 = ORIENTED_EDGE('',*,*,#111,.F.);
#126 = EDGE_LOOP('',(#125,#124,#123,#122));
#127 = FACE_OUTER_BOUND('',#126,.T.);
#128 = ADVANCED_FACE('',(#127),#121,.F.);
#129 = ORIENTED_EDGE('',*,*,#90,.T.);
#130 = ORIENTED_EDGE('',*,*,#111,.T.);
#131 = ORIENTED_EDGE('',*,*,#106,.F.);
#132 = ORIENTED_EDGE('',*,*,#116,.F.);
#133 = EDGE_LOOP('',(#132,#131,#130,#129));
#134 = FACE_OUTER_BOUND('',#133,.T.);
#135 = ADVANCED_FACE('',(#134),#121,.F.);
#136 = CARTESIAN_POINT('',(0.,0.,294.881649989));
#137 = DIRECTION('',(0.,0.,1.0));
#138 = DIRECTION('',(1.0,0.,0.));
#139 = AXIS2_PLACEMENT_3D('',#136,#137,#138);
#140 = PLANE('',#139);
#141 = ORIENTED_EDGE('',*,*,#39,.T.);
#142 = ORIENTED_EDGE('',*,*,#45,.T.);
#143 = EDGE_LOOP('',(#141,#142));
#144 = FACE_OUTER_BOUND('',#143,.T.);
#145 = ORIENTED_EDGE('',*,*,#106,.F.);
#146 = ORIENTED_EDGE('',*,*,#100,.F.);
#147 = EDGE_LOOP('',(#145,#146));
#148 = FACE_BOUND('',#147,.T.);
#149 = ADVANCED_FACE('',(#144,#148),#140,.T.);
#150 = CARTESIAN_POINT('',(0.,0.,0.));
#151 = DIRECTION('',(0.,0.,-1.0));
#152 = DIRECTION('',(1.0,0.,0.));
#153 = AXIS2_PLACEMENT_3D('',#150,#151,#152);
#154 = PLANE('',#153);
#155 = ORIENTED_EDGE('',*,*,#29,.F.);
#156 = ORIENTED_EDGE('',*,*,#23,.F.);
#157 = EDGE_LOOP('',(#155,#156));
#158 = FACE_OUTER_BOUND('',#157,.T.);
#159 = ORIENTED_EDGE('',*,*,#84,.T.);
#160 = ORIENTED_EDGE('',*,*,#90,.T.);
#161 = EDGE_LOOP('',(#159,#160));
#162 = FACE_BOUND('',#161,.T.);
#163 = ADVANCED_FACE('',(#158,#162),#154,.T.);
#164 = CLOSED_SHELL('',(#67,#74,#128,#135,#149,#163));
#165 = CARTESIAN_POINT('',(0.,0.,0.));
#166 = DIRECTION('',(0.,0.,1.0));
#167 = DIRECTION('',(1.0,0.,0.));
#168 = AXIS2_PLACEMENT_3D('',#165,#166,#167);
#169 = MANIFOLD_SOLID_BREP('A-02',#164);
#170 = ADVANCED_BREP_SHAPE_REPRESENTATION('A-02',(#169,#168),#5);
#171 = SHAPE_DEFINITION_REPRESENTATION(#13,#170);
ENDSEC;
END-ISO-10303-21;
