ISO-10303-21;
HEADER;
FILE_DESCRIPTION(('A-06'),'2;1');
FILE_NAME('A-06','2026-09-10T00:00:00',('Dynamic Industry'),('Dynamic Industry'),'mp50_cad','MP-50','');
FILE_SCHEMA(('AUTOMOTIVE_DESIGN { 1 0 10303 214 1 1 1 1 }'));
ENDSEC;
DATA;
#1 = ( LENGTH_UNIT() NAMED_UNIT(*) SI_UNIT(.MILLI.,.METRE.) );
#2 = ( NAMED_UNIT(*) PLANE_ANGLE_UNIT() SI_UNIT($,.RADIAN.) );
#3 = ( NAMED_UNIT(*) SI_UNIT($,.STERADIAN.) SOLID_ANGLE_UNIT() );
#4 = UNCERTAINTY_MEASURE_WITH_UNIT(LENGTH_MEASURE(1.E-06),#1,'distance_accuracy_value','confusion accuracy');
#5 = ( GEOMETRIC_REPRESENTATION_CONTEXT(3) GLOBAL_UNCERTAINTY_ASSIGNED_CONTEXT((#4)) GLOBAL_UNIT_ASSIGNED_CONTEXT((#1,#2,#3)) REPRESENTATION_CONTEXT('','3D') );
#6 = APPLICATION_CONTEXT('automotive design');
#7 = APPLICATION_PROTOCOL_DEFINITION('international standard','automotive_design',2000,#6);
#8 = PRODUCT_CONTEXT('',#6,'mechanical');
#9 = PRODUCT_DEFINITION_CONTEXT('part definition',#6,'design');
#10 = PRODUCT('A-06','A-06','',(#8));
#11 = PRODUCT_DEFINITION_FORMATION('','',#10);
#12 = PRODUCT_DEFINITION('design','',#11,#9);
#13 = PRODUCT_DEFINITION_SHAPE('','',#12);
#14 = CARTESIAN_POINT('',(-240.0,-0.0,0.));
#15 = VERTEX_POINT('',#14);
#16 = CARTESIAN_POINT('',(240.0,0.0,0.));
#17 = VERTEX_POINT('',#16);
#18 = CARTESIAN_POINT('',(0.,0.0,0.));
#19 = DIRECTION('',(0.,0.,1.0));
#20 = DIRECTION('',(1.0,0.,0.));
#21 = AXIS2_PLACEMENT_3D('',#18,#19,#20);
#22 = CIRCLE('',#21,240.0);
#23 = EDGE_CURVE('',#15,#17,#22,.T.);
#24 = CARTESIAN_POINT('',(-240.0,-0.0,8.0));
#25 = VERTEX_POINT('',#24);
#26 = CARTESIAN_POINT('',(240.0,0.0,8.0));
#27 = VERTEX_POINT('',#26);
#28 = CARTESIAN_POINT('',(0.,0.0,8.0));
#29 = DIRECTION('',(0.,0.,1.0));
#30 = DIRECTION('',(1.0,0.,0.));
#31 = AXIS2_PLACEMENT_3D('',#28,#29,#30);
#32 = CIRCLE('',#31,240.0);
#33 = EDGE_CURVE('',#25,#27,#32,.T.);
#34 = CARTESIAN_POINT('',(0.,0.0,0.));
#35 = DIRECTION('',(0.,0.,1.0));
#36 = DIRECTION('',(1.0,0.,0.));
#37 = AXIS2_PLACEMENT_3D('',#34,#35,#36);
#38 = CYLINDRICAL_SURFACE('',#37,240.0);
#39 = DIRECTION('',(0.,0.,1.0));
#40 = VECTOR('',#39,8.0);
#41 = CARTESIAN_POINT('',(240.0,0.,0.));
#42 = LINE('',#41,#40);
#43 = EDGE_CURVE('',#17,#27,#42,.T.);
#44 = DIRECTION('',(0.,0.,1.0));
#45 = VECTOR('',#44,8.0);
#46 = CARTESIAN_POINT('',(-240.0,0.,0.));
#47 = LINE('',#46,#45);
#48 = EDGE_CURVE('',#15,#25,#47,.T.);
#49 = ORIENTED_EDGE('',*,*,#23,.T.);
#50 = ORIENTED_EDGE('',*,*,#43,.T.);
#51 = ORIENTED_EDGE('',*,*,#33,.F.);
#52 = ORIENTED_EDGE('',*,*,#48,.F.);
#53 = EDGE_LOOP('',(#49,#50,#51,#52));
#54 = FACE_OUTER_BOUND('',#53,.T.);
#55 = ADVANCED_FACE('',(#54),#38,.T.);
#56 = CARTESIAN_POINT('',(0.,-0.0,0.));
#57 = DIRECTION('',(0.,0.,1.0));
#58 = DIRECTION('',(1.0,0.,0.));
#59 = AXIS2_PLACEMENT_3D('',#56,#57,#58);
#60 = CIRCLE('',#59,240.0);
#61 = EDGE_CURVE('',#17,#15,#60,.T.);
#62 = CARTESIAN_POINT('',(0.,-0.0,8.0));
#63 = DIRECTION('',(0.,0.,1.0));
#64 = DIRECTION('',(1.0,0.,0.));
#65 = AXIS2_PLACEMENT_3D('',#62,#63,#64);
#66 = CIRCLE('',#65,240.0);
#67 = EDGE_CURVE('',#27,#25,#66,.T.);
#68 = CARTESIAN_POINT('',(0.,-0.0,0.));
#69 = DIRECTION('',(0.,0.,1.0));
#70 = DIRECTION('',(1.0,0.,0.));
#71 = AXIS2_PLACEMENT_3D('',#68,#69,#70);
#72 = CYLINDRICAL_SURFACE('',#71,240.0);
#73 = ORIENTED_EDGE('',*,*,#61,.T.);
#74 = ORIENTED_EDGE('',*,*,#48,.T.);
#75 = ORIENTED_EDGE('',*,*,#67,.F.);
#76 = ORIENTED_EDGE('',*,*,#43,.F.);
#77 = EDGE_LOOP('',(#73,#74,#75,#76));
#78 = FACE_OUTER_BOUND('',#77,.T.);
#79 = ADVANCED_FACE('',(#78),#72,.T.);
#80 = CARTESIAN_POINT('',(-203.0,0.0,0.));
#81 = VERTEX_POINT('',#80);
#82 = CARTESIAN_POINT('',(203.0,-0.0,0.));
#83 = VERTEX_POINT('',#82);
#84 = CARTESIAN_POINT('',(0.,-0.0,0.));
#85 = DIRECTION('',(0.,0.,1.0));
#86 = DIRECTION('',(1.0,0.,0.));
#87 = AXIS2_PLACEMENT_3D('',#84,#85,#86);
#88 = CIRCLE('',#87,203.0);
#89 = EDGE_CURVE('',#81,#83,#88,.F.);
#90 = CARTESIAN_POINT('',(-203.0,0.0,8.0));
#91 = VERTEX_POINT('',#90);
#92 = CARTESIAN_POINT('',(203.0,-0.0,8.0));
#93 = VERTEX_POINT('',#92);
#94 = CARTESIAN_POINT('',(0.,-0.0,8.0));
#95 = DIRECTION('',(0.,0.,1.0));
#96 = DIRECTION('',(1.0,0.,0.));
#97 = AXIS2_PLACEMENT_3D('',#94,#95,#96);
#98 = CIRCLE('',#97,203.0);
#99 = EDGE_CURVE('',#91,#93,#98,.F.);
#100 = CARTESIAN_POINT('',(0.,-0.0,0.));
#101 = DIRECTION('',(0.,0.,1.0));
#102 = DIRECTION('',(1.0,0.,0.));
#103 = AXIS2_PLACEMENT_3D('',#100,#101,#102);
#104 = CYLINDRICAL_SURFACE('',#103,203.0);
#105 = DIRECTION('',(0.,0.,1.0));
#106 = VECTOR('',#105,8.0);
#107 = CARTESIAN_POINT('',(203.0,0.,0.));
#108 = LINE('',#107,#106);
#109 = EDGE_CURVE('',#83,#93,#108,.T.);
#110 = DIRECTION('',(0.,0.,1.0));
#111 = VECTOR('',#110,8.0);
#112 = CARTESIAN_POINT('',(-203.0,0.,0.));
#113 = LINE('',#112,#111);
#114 = EDGE_CURVE('',#81,#91,#113,.T.);
#115 = ORIENTED_EDGE('',*,*,#89,.T.);
#116 = ORIENTED_EDGE('',*,*,#109,.T.);
#117 = ORIENTED_EDGE('',*,*,#99,.F.);
#118 = ORIENTED_EDGE('',*,*,#114,.F.);
#119 = EDGE_LOOP('',(#115,#116,#117,#118));
#120 = FACE_OUTER_BOUND('',#119,.T.);
#121 = ADVANCED_FACE('',(#120),#104,.F.);
#122 = CARTESIAN_POINT('',(0.,0.0,0.));
#123 = DIRECTION('',(0.,0.,1.0));
#124 = DIRECTION('',(1.0,0.,0.));
#125 = AXIS2_PLACEMENT_3D('',#122,#123,#124);
#126 = CIRCLE('',#125,203.0);
#127 = EDGE_CURVE('',#83,#81,#126,.F.);
#128 = CARTESIAN_POINT('',(0.,0.0,8.0));
#129 = DIRECTION('',(0.,0.,1.0));
#130 = DIRECTION('',(1.0,0.,0.));
#131 = AXIS2_PLACEMENT_3D('',#128,#129,#130);
#132 = CIRCLE('',#131,203.0);
#133 = EDGE_CURVE('',#93,#91,#132,.F.);
#134 = CARTESIAN_POINT('',(0.,0.0,0.));
#135 = DIRECTION('',(0.,0.,1.0));
#136 = DIRECTION('',(1.0,0.,0.));
#137 = AXIS2_PLACEMENT_3D('',#134,#135,#136);
#138 = CYLINDRICAL_SURFACE('',#137,203.0);
#139 = ORIENTED_EDGE('',*,*,#127,.T.);
#140 = ORIENTED_EDGE('',*,*,#114,.T.);
#141 = ORIENTED_EDGE('',*,*,#133,.F.);
#142 = ORIENTED_EDGE('',*,*,#109,.F.);
#143 = EDGE_LOOP('',(#139,#140,#141,#142));
#144 = FACE_OUTER_BOUND('',#143,.T.);
#145 = ADVANCED_FACE('',(#144),#138,.F.);
#146 = CARTESIAN_POINT('',(152.099025767,159.099025767,0.));
#147 = VERTEX_POINT('',#146);
#148 = CARTESIAN_POINT('',(166.099025767,159.099025767,0.));
#149 = VERTEX_POINT('',#148);
#150 = CARTESIAN_POINT('',(159.099025767,159.099025767,0.));
#151 = DIRECTION('',(0.,0.,1.0));
#152 = DIRECTION('',(1.0,0.,0.));
#153 = AXIS2_PLACEMENT_3D('',#150,#151,#152);
#154 = CIRCLE('',#153,7.0);
#155 = EDGE_CURVE('',#147,#149,#154,.F.);
#156 = CARTESIAN_POINT('',(152.099025767,159.099025767,8.0));
#157 = VERTEX_POINT('',#156);
#158 = CARTESIAN_POINT('',(166.099025767,159.099025767,8.0));
#159 = VERTEX_POINT('',#158);
#160 = CARTESIAN_POINT('',(159.099025767,159.099025767,8.0));
#161 = DIRECTION('',(0.,0.,1.0));
#162 = DIRECTION('',(1.0,0.,0.));
#163 = AXIS2_PLACEMENT_3D('',#160,#161,#162);
#164 = CIRCLE('',#163,7.0);
#165 = EDGE_CURVE('',#157,#159,#164,.F.);
#166 = CARTESIAN_POINT('',(159.099025767,159.099025767,0.));
#167 = DIRECTION('',(0.,0.,1.0));
#168 = DIRECTION('',(1.0,0.,0.));
#169 = AXIS2_PLACEMENT_3D('',#166,#167,#168);
#170 = CYLINDRICAL_SURFACE('',#169,7.0);
#171 = DIRECTION('',(0.,0.,1.0));
#172 = VECTOR('',#171,8.0);
#173 = CARTESIAN_POINT('',(166.099025767,159.099025767,0.));
#174 = LINE('',#173,#172);
#175 = EDGE_CURVE('',#149,#159,#174,.T.);
#176 = DIRECTION('',(0.,0.,1.0));
#177 = VECTOR('',#176,8.0);
#178 = CARTESIAN_POINT('',(152.099025767,159.099025767,0.));
#179 = LINE('',#178,#177);
#180 = EDGE_CURVE('',#147,#157,#179,.T.);
#181 = ORIENTED_EDGE('',*,*,#155,.T.);
#182 = ORIENTED_EDGE('',*,*,#175,.T.);
#183 = ORIENTED_EDGE('',*,*,#165,.F.);
#184 = ORIENTED_EDGE('',*,*,#180,.F.);
#185 = EDGE_LOOP('',(#181,#182,#183,#184));
#186 = FACE_OUTER_BOUND('',#185,.T.);
#187 = ADVANCED_FACE('',(#186),#170,.F.);
#188 = CARTESIAN_POINT('',(159.099025767,159.099025767,0.));
#189 = DIRECTION('',(0.,0.,1.0));
#190 = DIRECTION('',(1.0,0.,0.));
#191 = AXIS2_PLACEMENT_3D('',#188,#189,#190);
#192 = CIRCLE('',#191,7.0);
#193 = EDGE_CURVE('',#149,#147,#192,.F.);
#194 = CARTESIAN_POINT('',(159.099025767,159.099025767,8.0));
#195 = DIRECTION('',(0.,0.,1.0));
#196 = DIRECTION('',(1.0,0.,0.));
#197 = AXIS2_PLACEMENT_3D('',#194,#195,#196);
#198 = CIRCLE('',#197,7.0);
#199 = EDGE_CURVE('',#159,#157,#198,.F.);
#200 = CARTESIAN_POINT('',(159.099025767,159.099025767,0.));
#201 = DIRECTION('',(0.,0.,1.0));
#202 = DIRECTION('',(1.0,0.,0.));
#203 = AXIS2_PLACEMENT_3D('',#200,#201,#202);
#204 = CYLINDRICAL_SURFACE('',#203,7.0);
#205 = ORIENTED_EDGE('',*,*,#193,.T.);
#206 = ORIENTED_EDGE('',*,*,#180,.T.);
#207 = ORIENTED_EDGE('',*,*,#199,.F.);
#208 = ORIENTED_EDGE('',*,*,#175,.F.);
#209 = EDGE_LOOP('',(#205,#206,#207,#208));
#210 = FACE_OUTER_BOUND('',#209,.T.);
#211 = ADVANCED_FACE('',(#210),#204,.F.);
#212 = CARTESIAN_POINT('',(-166.099025767,159.099025767,0.));
#213 = VERTEX_POINT('',#212);
#214 = CARTESIAN_POINT('',(-152.099025767,159.099025767,0.));
#215 = VERTEX_POINT('',#214);
#216 = CARTESIAN_POINT('',(-159.099025767,159.099025767,0.));
#217 = DIRECTION('',(0.,0.,1.0));
#218 = DIRECTION('',(1.0,0.,0.));
#219 = AXIS2_PLACEMENT_3D('',#216,#217,#218);
#220 = CIRCLE('',#219,7.0);
#221 = EDGE_CURVE('',#213,#215,#220,.F.);
#222 = CARTESIAN_POINT('',(-166.099025767,159.099025767,8.0));
#223 = VERTEX_POINT('',#222);
#224 = CARTESIAN_POINT('',(-152.099025767,159.099025767,8.0));
#225 = VERTEX_POINT('',#224);
#226 = CARTESIAN_POINT('',(-159.099025767,159.099025767,8.0));
#227 = DIRECTION('',(0.,0.,1.0));
#228 = DIRECTION('',(1.0,0.,0.));
#229 = AXIS2_PLACEMENT_3D('',#226,#227,#228);
#230 = CIRCLE('',#229,7.0);
#231 = EDGE_CURVE('',#223,#225,#230,.F.);
#232 = CARTESIAN_POINT('',(-159.099025767,159.099025767,0.));
#233 = DIRECTION('',(0.,0.,1.0));
#234 = DIRECTION('',(1.0,0.,0.));
#235 = AXIS2_PLACEMENT_3D('',#232,#233,#234);
#236 = CYLINDRICAL_SURFACE('',#235,7.0);
#237 = DIRECTION('',(0.,0.,1.0));
#238 = VECTOR('',#237,8.0);
#239 = CARTESIAN_POINT('',(-152.099025767,159.099025767,0.));
#240 = LINE('',#239,#238);
#241 = EDGE_CURVE('',#215,#225,#240,.T.);
#242 = DIRECTION('',(0.,0.,1.0));
#243 = VECTOR('',#242,8.0);
#244 = CARTESIAN_POINT('',(-166.099025767,159.099025767,0.));
#245 = LINE('',#244,#243);
#246 = EDGE_CURVE('',#213,#223,#245,.T.);
#247 = ORIENTED_EDGE('',*,*,#221,.T.);
#248 = ORIENTED_EDGE('',*,*,#241,.T.);
#249 = ORIENTED_EDGE('',*,*,#231,.F.);
#250 = ORIENTED_EDGE('',*,*,#246,.F.);
#251 = EDGE_LOOP('',(#247,#248,#249,#250));
#252 = FACE_OUTER_BOUND('',#251,.T.);
#253 = ADVANCED_FACE('',(#252),#236,.F.);
#254 = CARTESIAN_POINT('',(-159.099025767,159.099025767,0.));
#255 = DIRECTION('',(0.,0.,1.0));
#256 = DIRECTION('',(1.0,0.,0.));
#257 = AXIS2_PLACEMENT_3D('',#254,#255,#256);
#258 = CIRCLE('',#257,7.0);
#259 = EDGE_CURVE('',#215,#213,#258,.F.);
#260 = CARTESIAN_POINT('',(-159.099025767,159.099025767,8.0));
#261 = DIRECTION('',(0.,0.,1.0));
#262 = DIRECTION('',(1.0,0.,0.));
#263 = AXIS2_PLACEMENT_3D('',#260,#261,#262);
#264 = CIRCLE('',#263,7.0);
#265 = EDGE_CURVE('',#225,#223,#264,.F.);
#266 = CARTESIAN_POINT('',(-159.099025767,159.099025767,0.));
#267 = DIRECTION('',(0.,0.,1.0));
#268 = DIRECTION('',(1.0,0.,0.));
#269 = AXIS2_PLACEMENT_3D('',#266,#267,#268);
#270 = CYLINDRICAL_SURFACE('',#269,7.0);
#271 = ORIENTED_EDGE('',*,*,#259,.T.);
#272 = ORIENTED_EDGE('',*,*,#246,.T.);
#273 = ORIENTED_EDGE('',*,*,#265,.F.);
#274 = ORIENTED_EDGE('',*,*,#241,.F.);
#275 = EDGE_LOOP('',(#271,#272,#273,#274));
#276 = FACE_OUTER_BOUND('',#275,.T.);
#277 = ADVANCED_FACE('',(#276),#270,.F.);
#278 = CARTESIAN_POINT('',(-166.099025767,-159.099025767,0.));
#279 = VERTEX_POINT('',#278);
#280 = CARTESIAN_POINT('',(-152.099025767,-159.099025767,0.));
#281 = VERTEX_POINT('',#280);
#282 = CARTESIAN_POINT('',(-159.099025767,-159.099025767,0.));
#283 = DIRECTION('',(0.,0.,1.0));
#284 = DIRECTION('',(1.0,0.,0.));
#285 = AXIS2_PLACEMENT_3D('',#282,#283,#284);
#286 = CIRCLE('',#285,7.0);
#287 = EDGE_CURVE('',#279,#281,#286,.F.);
#288 = CARTESIAN_POINT('',(-166.099025767,-159.099025767,8.0));
#289 = VERTEX_POINT('',#288);
#290 = CARTESIAN_POINT('',(-152.099025767,-159.099025767,8.0));
#291 = VERTEX_POINT('',#290);
#292 = CARTESIAN_POINT('',(-159.099025767,-159.099025767,8.0));
#293 = DIRECTION('',(0.,0.,1.0));
#294 = DIRECTION('',(1.0,0.,0.));
#295 = AXIS2_PLACEMENT_3D('',#292,#293,#294);
#296 = CIRCLE('',#295,7.0);
#297 = EDGE_CURVE('',#289,#291,#296,.F.);
#298 = CARTESIAN_POINT('',(-159.099025767,-159.099025767,0.));
#299 = DIRECTION('',(0.,0.,1.0));
#300 = DIRECTION('',(1.0,0.,0.));
#301 = AXIS2_PLACEMENT_3D('',#298,#299,#300);
#302 = CYLINDRICAL_SURFACE('',#301,7.0);
#303 = DIRECTION('',(0.,0.,1.0));
#304 = VECTOR('',#303,8.0);
#305 = CARTESIAN_POINT('',(-152.099025767,-159.099025767,0.));
#306 = LINE('',#305,#304);
#307 = EDGE_CURVE('',#281,#291,#306,.T.);
#308 = DIRECTION('',(0.,0.,1.0));
#309 = VECTOR('',#308,8.0);
#310 = CARTESIAN_POINT('',(-166.099025767,-159.099025767,0.));
#311 = LINE('',#310,#309);
#312 = EDGE_CURVE('',#279,#289,#311,.T.);
#313 = ORIENTED_EDGE('',*,*,#287,.T.);
#314 = ORIENTED_EDGE('',*,*,#307,.T.);
#315 = ORIENTED_EDGE('',*,*,#297,.F.);
#316 = ORIENTED_EDGE('',*,*,#312,.F.);
#317 = EDGE_LOOP('',(#313,#314,#315,#316));
#318 = FACE_OUTER_BOUND('',#317,.T.);
#319 = ADVANCED_FACE('',(#318),#302,.F.);
#320 = CARTESIAN_POINT('',(-159.099025767,-159.099025767,0.));
#321 = DIRECTION('',(0.,0.,1.0));
#322 = DIRECTION('',(1.0,0.,0.));
#323 = AXIS2_PLACEMENT_3D('',#320,#321,#322);
#324 = CIRCLE('',#323,7.0);
#325 = EDGE_CURVE('',#281,#279,#324,.F.);
#326 = CARTESIAN_POINT('',(-159.099025767,-159.099025767,8.0));
#327 = DIRECTION('',(0.,0.,1.0));
#328 = DIRECTION('',(1.0,0.,0.));
#329 = AXIS2_PLACEMENT_3D('',#326,#327,#328);
#330 = CIRCLE('',#329,7.0);
#331 = EDGE_CURVE('',#291,#289,#330,.F.);
#332 = CARTESIAN_POINT('',(-159.099025767,-159.099025767,0.));
#333 = DIRECTION('',(0.,0.,1.0));
#334 = DIRECTION('',(1.0,0.,0.));
#335 = AXIS2_PLACEMENT_3D('',#332,#333,#334);
#336 = CYLINDRICAL_SURFACE('',#335,7.0);
#337 = ORIENTED_EDGE('',*,*,#325,.T.);
#338 = ORIENTED_EDGE('',*,*,#312,.T.);
#339 = ORIENTED_EDGE('',*,*,#331,.F.);
#340 = ORIENTED_EDGE('',*,*,#307,.F.);
#341 = EDGE_LOOP('',(#337,#338,#339,#340));
#342 = FACE_OUTER_BOUND('',#341,.T.);
#343 = ADVANCED_FACE('',(#342),#336,.F.);
#344 = CARTESIAN_POINT('',(152.099025767,-159.099025767,0.));
#345 = VERTEX_POINT('',#344);
#346 = CARTESIAN_POINT('',(166.099025767,-159.099025767,0.));
#347 = VERTEX_POINT('',#346);
#348 = CARTESIAN_POINT('',(159.099025767,-159.099025767,0.));
#349 = DIRECTION('',(0.,0.,1.0));
#350 = DIRECTION('',(1.0,0.,0.));
#351 = AXIS2_PLACEMENT_3D('',#348,#349,#350);
#352 = CIRCLE('',#351,7.0);
#353 = EDGE_CURVE('',#345,#347,#352,.F.);
#354 = CARTESIAN_POINT('',(152.099025767,-159.099025767,8.0));
#355 = VERTEX_POINT('',#354);
#356 = CARTESIAN_POINT('',(166.099025767,-159.099025767,8.0));
#357 = VERTEX_POINT('',#356);
#358 = CARTESIAN_POINT('',(159.099025767,-159.099025767,8.0));
#359 = DIRECTION('',(0.,0.,1.0));
#360 = DIRECTION('',(1.0,0.,0.));
#361 = AXIS2_PLACEMENT_3D('',#358,#359,#360);
#362 = CIRCLE('',#361,7.0);
#363 = EDGE_CURVE('',#355,#357,#362,.F.);
#364 = CARTESIAN_POINT('',(159.099025767,-159.099025767,0.));
#365 = DIRECTION('',(0.,0.,1.0));
#366 = DIRECTION('',(1.0,0.,0.));
#367 = AXIS2_PLACEMENT_3D('',#364,#365,#366);
#368 = CYLINDRICAL_SURFACE('',#367,7.0);
#369 = DIRECTION('',(0.,0.,1.0));
#370 = VECTOR('',#369,8.0);
#371 = CARTESIAN_POINT('',(166.099025767,-159.099025767,0.));
#372 = LINE('',#371,#370);
#373 = EDGE_CURVE('',#347,#357,#372,.T.);
#374 = DIRECTION('',(0.,0.,1.0));
#375 = VECTOR('',#374,8.0);
#376 = CARTESIAN_POINT('',(152.099025767,-159.099025767,0.));
#377 = LINE('',#376,#375);
#378 = EDGE_CURVE('',#345,#355,#377,.T.);
#379 = ORIENTED_EDGE('',*,*,#353,.T.);
#380 = ORIENTED_EDGE('',*,*,#373,.T.);
#381 = ORIENTED_EDGE('',*,*,#363,.F.);
#382 = ORIENTED_EDGE('',*,*,#378,.F.);
#383 = EDGE_LOOP('',(#379,#380,#381,#382));
#384 = FACE_OUTER_BOUND('',#383,.T.);
#385 = ADVANCED_FACE('',(#384),#368,.F.);
#386 = CARTESIAN_POINT('',(159.099025767,-159.099025767,0.));
#387 = DIRECTION('',(0.,0.,1.0));
#388 = DIRECTION('',(1.0,0.,0.));
#389 = AXIS2_PLACEMENT_3D('',#386,#387,#388);
#390 = CIRCLE('',#389,7.0);
#391 = EDGE_CURVE('',#347,#345,#390,.F.);
#392 = CARTESIAN_POINT('',(159.099025767,-159.099025767,8.0));
#393 = DIRECTION('',(0.,0.,1.0));
#394 = DIRECTION('',(1.0,0.,0.));
#395 = AXIS2_PLACEMENT_3D('',#392,#393,#394);
#396 = CIRCLE('',#395,7.0);
#397 = EDGE_CURVE('',#357,#355,#396,.F.);
#398 = CARTESIAN_POINT('',(159.099025767,-159.099025767,0.));
#399 = DIRECTION('',(0.,0.,1.0));
#400 = DIRECTION('',(1.0,0.,0.));
#401 = AXIS2_PLACEMENT_3D('',#398,#399,#400);
#402 = CYLINDRICAL_SURFACE('',#401,7.0);
#403 = ORIENTED_EDGE('',*,*,#391,.T.);
#404 = ORIENTED_EDGE('',*,*,#378,.T.);
#405 = ORIENTED_EDGE('',*,*,#397,.F.);
#406 = ORIENTED_EDGE('',*,*,#373,.F.);
#407 = EDGE_LOOP('',(#403,#404,#405,#406));
#408 = FACE_OUTER_BOUND('',#407,.T.);
#409 = ADVANCED_FACE('',(#408),#402,.F.);
#410 = CARTESIAN_POINT('',(0.,0.,8.0));
#411 = DIRECTION('',(0.,0.,1.0));
#412 = DIRECTION('',(1.0,0.,0.));
#413 = AXIS2_PLACEMENT_3D('',#410,#411,#412);
#414 = PLANE('',#413);
#415 = ORIENTED_EDGE('',*,*,#33,.T.);
#416 = ORIENTED_EDGE('',*,*,#67,.T.);
#417 = EDGE_LOOP('',(#415,#416));
#418 = FACE_OUTER_BOUND('',#417,.T.);
#419 = ORIENTED_EDGE('',*,*,#99,.T.);
#420 = ORIENTED_EDGE('',*,*,#133,.T.);
#421 = EDGE_LOOP('',(#419,#420));
#422 = FACE_BOUND('',#421,.T.);
#423 = ORIENTED_EDGE('',*,*,#165,.T.);
#424 = ORIENTED_EDGE('',*,*,#199,.T.);
#425 = EDGE_LOOP('',(#423,#424));
#426 = FACE_BOUND('',#425,.T.);
#427 = ORIENTED_EDGE('',*,*,#231,.T.);
#428 = ORIENTED_EDGE('',*,*,#265,.T.);
#429 = EDGE_LOOP('',(#427,#428));
#430 = FACE_BOUND('',#429,.T.);
#431 = ORIENTED_EDGE('',*,*,#297,.T.);
#432 = ORIENTED_EDGE('',*,*,#331,.T.);
#433 = EDGE_LOOP('',(#431,#432));
#434 = FACE_BOUND('',#433,.T.);
#435 = ORIENTED_EDGE('',*,*,#363,.T.);
#436 = ORIENTED_EDGE('',*,*,#397,.T.);
#437 = EDGE_LOOP('',(#435,#436));
#438 = FACE_BOUND('',#437,.T.);
#439 = ADVANCED_FACE('',(#418,#422,#426,#430,#434,#438),#414,.T.);
#440 = CARTESIAN_POINT('',(0.,0.,0.));
#441 = DIRECTION('',(0.,0.,-1.0));
#442 = DIRECTION('',(1.0,0.,0.));
#443 = AXIS2_PLACEMENT_3D('',#440,#441,#442);
#444 = PLANE('',#443);
#445 = ORIENTED_EDGE('',*,*,#61,.F.);
#446 = ORIENTED_EDGE('',*,*,#23,.F.);
#447 = EDGE_LOOP('',(#445,#446));
#448 = FACE_OUTER_BOUND('',#447,.T.);
#449 = ORIENTED_EDGE('',*,*,#127,.F.);
#450 = ORIENTED_EDGE('',*,*,#89,.F.);
#451 = EDGE_LOOP('',(#449,#450));
#452 = FACE_BOUND('',#451,.T.);
#453 = ORIENTED_EDGE('',*,*,#193,.F.);
#454 = ORIENTED_EDGE('',*,*,#155,.F.);
#455 = EDGE_LOOP('',(#453,#454));
#456 = FACE_BOUND('',#455,.T.);
#457 = ORIENTED_EDGE('',*,*,#259,.F.);
#458 = ORIENTED_EDGE('',*,*,#221,.F.);
#459 = EDGE_LOOP('',(#457,#458));
#460 = FACE_BOUND('',#459,.T.);
#461 = ORIENTED_EDGE('',*,*,#325,.F.);
#462 = ORIENTED_EDGE('',*,*,#287,.F.);
#463 = EDGE_LOOP('',(#461,#462));
#464 = FACE_BOUND('',#463,.T.);
#465 = ORIENTED_EDGE('',*,*,#391,.F.);
#466 = ORIENTED_EDGE('',*,*,#353,.F.);
#467 = EDGE_LOOP('',(#465,#466));
#468 = FACE_BOUND('',#467,.T.);
#469 = ADVANCED_FACE('',(#448,#452,#456,#460,#464,#468),#444,.T.);
#470 = CLOSED_SHELL('',(#55,#79,#121,#145,#187,#211,#253,#277,#319,#343,#385,#409,#439,#469));
#471 = CARTESIAN_POINT('',(0.,0.,0.));
#472 = DIRECTION('',(0.,0.,1.0));
#473 = DIRECTION('',(1.0,0.,0.));
#474 = AXIS2_PLACEMENT_3D('',#471,#472,#473);
#475 = MANIFOLD_SOLID_BREP('A-06',#470);
#476 = ADVANCED_BREP_SHAPE_REPRESENTATION('A-06',(#475,#474),#5);
#477 = SHAPE_DEFINITION_REPRESENTATION(#13,#476);
ENDSEC;
END-ISO-10303-21;
