ISO-10303-21;
HEADER;
FILE_DESCRIPTION(('B-03'),'2;1');
FILE_NAME('B-03','2026-09-10T00:00:00',('Dynamic Industry'),('Dynamic Industry'),'mp50_cad','MP-50','');
FILE_SCHEMA(('AUTOMOTIVE_DESIGN { 1 0 10303 214 1 1 1 1 }'));
ENDSEC;
DATA;
#1 = ( LENGTH_UNIT() NAMED_UNIT(*) SI_UNIT(.MILLI.,.METRE.) );
#2 = ( NAMED_UNIT(*) PLANE_ANGLE_UNIT() SI_UNIT($,.RADIAN.) );
#3 = ( NAMED_UNIT(*) SI_UNIT($,.STERADIAN.) SOLID_ANGLE_UNIT() );
#4 = UNCERTAINTY_MEASURE_WITH_UNIT(LENGTH_MEASURE(1.E-06),#1,'distance_accuracy_value','confusion accuracy');
#5 = ( GEOMETRIC_REPRESENTATION_CONTEXT(3) GLOBAL_UNCERTAINTY_ASSIGNED_CONTEXT((#4)) GLOBAL_UNIT_ASSIGNED_CONTEXT((#1,#2,#3)) REPRESENTATION_CONTEXT('','3D') );
#6 = APPLICATION_CONTEXT('automotive design');
#7 = APPLICATION_PROTOCOL_DEFINITION('international standard','automotive_design',2000,#6);
#8 = PRODUCT_CONTEXT('',#6,'mechanical');
#9 = PRODUCT_DEFINITION_CONTEXT('part definition',#6,'design');
#10 = PRODUCT('B-03','B-03','',(#8));
#11 = PRODUCT_DEFINITION_FORMATION('','',#10);
#12 = PRODUCT_DEFINITION('design','',#11,#9);
#13 = PRODUCT_DEFINITION_SHAPE('','',#12);
#14 = CARTESIAN_POINT('',(0.,2.0,0.));
#15 = VERTEX_POINT('',#14);
#16 = CARTESIAN_POINT('',(2.0,0.,0.));
#17 = VERTEX_POINT('',#16);
#18 = CARTESIAN_POINT('',(2.0,2.0,0.));
#19 = DIRECTION('',(0.,0.,1.0));
#20 = DIRECTION('',(1.0,0.,0.));
#21 = AXIS2_PLACEMENT_3D('',#18,#19,#20);
#22 = CIRCLE('',#21,2.0);
#23 = EDGE_CURVE('',#15,#17,#22,.T.);
#24 = CARTESIAN_POINT('',(0.,2.0,5.0));
#25 = VERTEX_POINT('',#24);
#26 = CARTESIAN_POINT('',(2.0,0.,5.0));
#27 = VERTEX_POINT('',#26);
#28 = CARTESIAN_POINT('',(2.0,2.0,5.0));
#29 = DIRECTION('',(0.,0.,1.0));
#30 = DIRECTION('',(1.0,0.,0.));
#31 = AXIS2_PLACEMENT_3D('',#28,#29,#30);
#32 = CIRCLE('',#31,2.0);
#33 = EDGE_CURVE('',#25,#27,#32,.T.);
#34 = CARTESIAN_POINT('',(2.0,2.0,0.));
#35 = DIRECTION('',(0.,0.,1.0));
#36 = DIRECTION('',(1.0,0.,0.));
#37 = AXIS2_PLACEMENT_3D('',#34,#35,#36);
#38 = CYLINDRICAL_SURFACE('',#37,2.0);
#39 = DIRECTION('',(0.,0.,1.0));
#40 = VECTOR('',#39,5.0);
#41 = CARTESIAN_POINT('',(2.0,0.,0.));
#42 = LINE('',#41,#40);
#43 = EDGE_CURVE('',#17,#27,#42,.T.);
#44 = DIRECTION('',(0.,0.,1.0));
#45 = VECTOR('',#44,5.0);
#46 = CARTESIAN_POINT('',(0.,2.0,0.));
#47 = LINE('',#46,#45);
#48 = EDGE_CURVE('',#15,#25,#47,.T.);
#49 = ORIENTED_EDGE('',*,*,#23,.T.);
#50 = ORIENTED_EDGE('',*,*,#43,.T.);
#51 = ORIENTED_EDGE('',*,*,#33,.F.);
#52 = ORIENTED_EDGE('',*,*,#48,.F.);
#53 = EDGE_LOOP('',(#49,#50,#51,#52));
#54 = FACE_OUTER_BOUND('',#53,.T.);
#55 = ADVANCED_FACE('',(#54),#38,.T.);
#56 = CARTESIAN_POINT('',(74.0,0.,0.));
#57 = VERTEX_POINT('',#56);
#58 = DIRECTION('',(1.0,0.,0.));
#59 = VECTOR('',#58,72.0);
#60 = CARTESIAN_POINT('',(2.0,0.,0.));
#61 = LINE('',#60,#59);
#62 = EDGE_CURVE('',#17,#57,#61,.T.);
#63 = CARTESIAN_POINT('',(74.0,0.,5.0));
#64 = VERTEX_POINT('',#63);
#65 = DIRECTION('',(1.0,0.,0.));
#66 = VECTOR('',#65,72.0);
#67 = CARTESIAN_POINT('',(2.0,0.,5.0));
#68 = LINE('',#67,#66);
#69 = EDGE_CURVE('',#27,#64,#68,.T.);
#70 = CARTESIAN_POINT('',(2.0,0.,0.));
#71 = DIRECTION('',(0.,-1.0,0.));
#72 = DIRECTION('',(1.0,0.,0.));
#73 = AXIS2_PLACEMENT_3D('',#70,#71,#72);
#74 = PLANE('',#73);
#75 = DIRECTION('',(0.,0.,1.0));
#76 = VECTOR('',#75,5.0);
#77 = CARTESIAN_POINT('',(74.0,0.,0.));
#78 = LINE('',#77,#76);
#79 = EDGE_CURVE('',#57,#64,#78,.T.);
#80 = ORIENTED_EDGE('',*,*,#62,.T.);
#81 = ORIENTED_EDGE('',*,*,#79,.T.);
#82 = ORIENTED_EDGE('',*,*,#69,.F.);
#83 = ORIENTED_EDGE('',*,*,#43,.F.);
#84 = EDGE_LOOP('',(#80,#81,#82,#83));
#85 = FACE_OUTER_BOUND('',#84,.T.);
#86 = ADVANCED_FACE('',(#85),#74,.T.);
#87 = CARTESIAN_POINT('',(75.2,3.6,0.));
#88 = VERTEX_POINT('',#87);
#89 = CARTESIAN_POINT('',(74.0,2.0,0.));
#90 = DIRECTION('',(0.,0.,1.0));
#91 = DIRECTION('',(1.0,0.,0.));
#92 = AXIS2_PLACEMENT_3D('',#89,#90,#91);
#93 = CIRCLE('',#92,2.0);
#94 = EDGE_CURVE('',#57,#88,#93,.T.);
#95 = CARTESIAN_POINT('',(75.2,3.6,5.0));
#96 = VERTEX_POINT('',#95);
#97 = CARTESIAN_POINT('',(74.0,2.0,5.0));
#98 = DIRECTION('',(0.,0.,1.0));
#99 = DIRECTION('',(1.0,0.,0.));
#100 = AXIS2_PLACEMENT_3D('',#97,#98,#99);
#101 = CIRCLE('',#100,2.0);
#102 = EDGE_CURVE('',#64,#96,#101,.T.);
#103 = CARTESIAN_POINT('',(74.0,2.0,0.));
#104 = DIRECTION('',(0.,0.,1.0));
#105 = DIRECTION('',(1.0,0.,0.));
#106 = AXIS2_PLACEMENT_3D('',#103,#104,#105);
#107 = CYLINDRICAL_SURFACE('',#106,2.0);
#108 = DIRECTION('',(0.,0.,1.0));
#109 = VECTOR('',#108,5.0);
#110 = CARTESIAN_POINT('',(75.2,3.6,0.));
#111 = LINE('',#110,#109);
#112 = EDGE_CURVE('',#88,#96,#111,.T.);
#113 = ORIENTED_EDGE('',*,*,#94,.T.);
#114 = ORIENTED_EDGE('',*,*,#112,.T.);
#115 = ORIENTED_EDGE('',*,*,#102,.F.);
#116 = ORIENTED_EDGE('',*,*,#79,.F.);
#117 = EDGE_LOOP('',(#113,#114,#115,#116));
#118 = FACE_OUTER_BOUND('',#117,.T.);
#119 = ADVANCED_FACE('',(#118),#107,.T.);
#120 = CARTESIAN_POINT('',(3.2,57.6,0.));
#121 = VERTEX_POINT('',#120);
#122 = DIRECTION('',(-0.8,0.6,0.));
#123 = VECTOR('',#122,90.0);
#124 = CARTESIAN_POINT('',(75.2,3.6,0.));
#125 = LINE('',#124,#123);
#126 = EDGE_CURVE('',#88,#121,#125,.T.);
#127 = CARTESIAN_POINT('',(3.2,57.6,5.0));
#128 = VERTEX_POINT('',#127);
#129 = DIRECTION('',(-0.8,0.6,0.));
#130 = VECTOR('',#129,90.0);
#131 = CARTESIAN_POINT('',(75.2,3.6,5.0));
#132 = LINE('',#131,#130);
#133 = EDGE_CURVE('',#96,#128,#132,.T.);
#134 = CARTESIAN_POINT('',(75.2,3.6,0.));
#135 = DIRECTION('',(0.6,0.8,0.));
#136 = DIRECTION('',(-0.8,0.6,0.));
#137 = AXIS2_PLACEMENT_3D('',#134,#135,#136);
#138 = PLANE('',#137);
#139 = DIRECTION('',(0.,0.,1.0));
#140 = VECTOR('',#139,5.0);
#141 = CARTESIAN_POINT('',(3.2,57.6,0.));
#142 = LINE('',#141,#140);
#143 = EDGE_CURVE('',#121,#128,#142,.T.);
#144 = ORIENTED_EDGE('',*,*,#126,.T.);
#145 = ORIENTED_EDGE('',*,*,#143,.T.);
#146 = ORIENTED_EDGE('',*,*,#133,.F.);
#147 = ORIENTED_EDGE('',*,*,#112,.F.);
#148 = EDGE_LOOP('',(#144,#145,#146,#147));
#149 = FACE_OUTER_BOUND('',#148,.T.);
#150 = ADVANCED_FACE('',(#149),#138,.T.);
#151 = CARTESIAN_POINT('',(0.,56.0,0.));
#152 = VERTEX_POINT('',#151);
#153 = CARTESIAN_POINT('',(2.0,56.0,0.));
#154 = DIRECTION('',(0.,0.,1.0));
#155 = DIRECTION('',(1.0,0.,0.));
#156 = AXIS2_PLACEMENT_3D('',#153,#154,#155);
#157 = CIRCLE('',#156,2.0);
#158 = EDGE_CURVE('',#121,#152,#157,.T.);
#159 = CARTESIAN_POINT('',(0.,56.0,5.0));
#160 = VERTEX_POINT('',#159);
#161 = CARTESIAN_POINT('',(2.0,56.0,5.0));
#162 = DIRECTION('',(0.,0.,1.0));
#163 = DIRECTION('',(1.0,0.,0.));
#164 = AXIS2_PLACEMENT_3D('',#161,#162,#163);
#165 = CIRCLE('',#164,2.0);
#166 = EDGE_CURVE('',#128,#160,#165,.T.);
#167 = CARTESIAN_POINT('',(2.0,56.0,0.));
#168 = DIRECTION('',(0.,0.,1.0));
#169 = DIRECTION('',(1.0,0.,0.));
#170 = AXIS2_PLACEMENT_3D('',#167,#168,#169);
#171 = CYLINDRICAL_SURFACE('',#170,2.0);
#172 = DIRECTION('',(0.,0.,1.0));
#173 = VECTOR('',#172,5.0);
#174 = CARTESIAN_POINT('',(0.,56.0,0.));
#175 = LINE('',#174,#173);
#176 = EDGE_CURVE('',#152,#160,#175,.T.);
#177 = ORIENTED_EDGE('',*,*,#158,.T.);
#178 = ORIENTED_EDGE('',*,*,#176,.T.);
#179 = ORIENTED_EDGE('',*,*,#166,.F.);
#180 = ORIENTED_EDGE('',*,*,#143,.F.);
#181 = EDGE_LOOP('',(#177,#178,#179,#180));
#182 = FACE_OUTER_BOUND('',#181,.T.);
#183 = ADVANCED_FACE('',(#182),#171,.T.);
#184 = DIRECTION('',(0.,-1.0,0.));
#185 = VECTOR('',#184,54.0);
#186 = CARTESIAN_POINT('',(0.,56.0,0.));
#187 = LINE('',#186,#185);
#188 = EDGE_CURVE('',#152,#15,#187,.T.);
#189 = DIRECTION('',(0.,-1.0,0.));
#190 = VECTOR('',#189,54.0);
#191 = CARTESIAN_POINT('',(0.,56.0,5.0));
#192 = LINE('',#191,#190);
#193 = EDGE_CURVE('',#160,#25,#192,.T.);
#194 = CARTESIAN_POINT('',(0.,56.0,0.));
#195 = DIRECTION('',(-1.0,0.,0.));
#196 = DIRECTION('',(0.,-1.0,0.));
#197 = AXIS2_PLACEMENT_3D('',#194,#195,#196);
#198 = PLANE('',#197);
#199 = ORIENTED_EDGE('',*,*,#188,.T.);
#200 = ORIENTED_EDGE('',*,*,#48,.T.);
#201 = ORIENTED_EDGE('',*,*,#193,.F.);
#202 = ORIENTED_EDGE('',*,*,#176,.F.);
#203 = EDGE_LOOP('',(#199,#200,#201,#202));
#204 = FACE_OUTER_BOUND('',#203,.T.);
#205 = ADVANCED_FACE('',(#204),#198,.T.);
#206 = CARTESIAN_POINT('',(0.,0.,5.0));
#207 = DIRECTION('',(0.,0.,1.0));
#208 = DIRECTION('',(1.0,0.,0.));
#209 = AXIS2_PLACEMENT_3D('',#206,#207,#208);
#210 = PLANE('',#209);
#211 = ORIENTED_EDGE('',*,*,#33,.T.);
#212 = ORIENTED_EDGE('',*,*,#69,.T.);
#213 = ORIENTED_EDGE('',*,*,#102,.T.);
#214 = ORIENTED_EDGE('',*,*,#133,.T.);
#215 = ORIENTED_EDGE('',*,*,#166,.T.);
#216 = ORIENTED_EDGE('',*,*,#193,.T.);
#217 = EDGE_LOOP('',(#211,#212,#213,#214,#215,#216));
#218 = FACE_OUTER_BOUND('',#217,.T.);
#219 = ADVANCED_FACE('',(#218),#210,.T.);
#220 = CARTESIAN_POINT('',(0.,0.,0.));
#221 = DIRECTION('',(0.,0.,-1.0));
#222 = DIRECTION('',(1.0,0.,0.));
#223 = AXIS2_PLACEMENT_3D('',#220,#221,#222);
#224 = PLANE('',#223);
#225 = ORIENTED_EDGE('',*,*,#188,.F.);
#226 = ORIENTED_EDGE('',*,*,#158,.F.);
#227 = ORIENTED_EDGE('',*,*,#126,.F.);
#228 = ORIENTED_EDGE('',*,*,#94,.F.);
#229 = ORIENTED_EDGE('',*,*,#62,.F.);
#230 = ORIENTED_EDGE('',*,*,#23,.F.);
#231 = EDGE_LOOP('',(#225,#226,#227,#228,#229,#230));
#232 = FACE_OUTER_BOUND('',#231,.T.);
#233 = ADVANCED_FACE('',(#232),#224,.T.);
#234 = CLOSED_SHELL('',(#55,#86,#119,#150,#183,#205,#219,#233));
#235 = CARTESIAN_POINT('',(0.,0.,0.));
#236 = DIRECTION('',(0.,0.,1.0));
#237 = DIRECTION('',(1.0,0.,0.));
#238 = AXIS2_PLACEMENT_3D('',#235,#236,#237);
#239 = MANIFOLD_SOLID_BREP('B-03',#234);
#240 = ADVANCED_BREP_SHAPE_REPRESENTATION('B-03',(#239,#238),#5);
#241 = SHAPE_DEFINITION_REPRESENTATION(#13,#240);
ENDSEC;
END-ISO-10303-21;
