ISO-10303-21;
HEADER;
FILE_DESCRIPTION(('H-06'),'2;1');
FILE_NAME('H-06','2026-09-10T00:00:00',('Dynamic Industry'),('Dynamic Industry'),'mp50_cad','MP-50','');
FILE_SCHEMA(('AUTOMOTIVE_DESIGN { 1 0 10303 214 1 1 1 1 }'));
ENDSEC;
DATA;
#1 = ( LENGTH_UNIT() NAMED_UNIT(*) SI_UNIT(.MILLI.,.METRE.) );
#2 = ( NAMED_UNIT(*) PLANE_ANGLE_UNIT() SI_UNIT($,.RADIAN.) );
#3 = ( NAMED_UNIT(*) SI_UNIT($,.STERADIAN.) SOLID_ANGLE_UNIT() );
#4 = UNCERTAINTY_MEASURE_WITH_UNIT(LENGTH_MEASURE(1.E-06),#1,'distance_accuracy_value','confusion accuracy');
#5 = ( GEOMETRIC_REPRESENTATION_CONTEXT(3) GLOBAL_UNCERTAINTY_ASSIGNED_CONTEXT((#4)) GLOBAL_UNIT_ASSIGNED_CONTEXT((#1,#2,#3)) REPRESENTATION_CONTEXT('','3D') );
#6 = APPLICATION_CONTEXT('automotive design');
#7 = APPLICATION_PROTOCOL_DEFINITION('international standard','automotive_design',2000,#6);
#8 = PRODUCT_CONTEXT('',#6,'mechanical');
#9 = PRODUCT_DEFINITION_CONTEXT('part definition',#6,'design');
#10 = PRODUCT('H-06','H-06','',(#8));
#11 = PRODUCT_DEFINITION_FORMATION('','',#10);
#12 = PRODUCT_DEFINITION('design','',#11,#9);
#13 = PRODUCT_DEFINITION_SHAPE('','',#12);
#14 = CARTESIAN_POINT('',(2.0,0.,0.));
#15 = VERTEX_POINT('',#14);
#16 = CARTESIAN_POINT('',(98.0,0.,0.));
#17 = VERTEX_POINT('',#16);
#18 = DIRECTION('',(1.0,0.,0.));
#19 = VECTOR('',#18,96.0);
#20 = CARTESIAN_POINT('',(2.0,0.,0.));
#21 = LINE('',#20,#19);
#22 = EDGE_CURVE('',#15,#17,#21,.T.);
#23 = CARTESIAN_POINT('',(2.0,0.,6.0));
#24 = VERTEX_POINT('',#23);
#25 = CARTESIAN_POINT('',(98.0,0.,6.0));
#26 = VERTEX_POINT('',#25);
#27 = DIRECTION('',(1.0,0.,0.));
#28 = VECTOR('',#27,96.0);
#29 = CARTESIAN_POINT('',(2.0,0.,6.0));
#30 = LINE('',#29,#28);
#31 = EDGE_CURVE('',#24,#26,#30,.T.);
#32 = CARTESIAN_POINT('',(2.0,0.,0.));
#33 = DIRECTION('',(0.,-1.0,0.));
#34 = DIRECTION('',(1.0,0.,0.));
#35 = AXIS2_PLACEMENT_3D('',#32,#33,#34);
#36 = PLANE('',#35);
#37 = DIRECTION('',(0.,0.,1.0));
#38 = VECTOR('',#37,6.0);
#39 = CARTESIAN_POINT('',(98.0,0.,0.));
#40 = LINE('',#39,#38);
#41 = EDGE_CURVE('',#17,#26,#40,.T.);
#42 = DIRECTION('',(0.,0.,1.0));
#43 = VECTOR('',#42,6.0);
#44 = CARTESIAN_POINT('',(2.0,0.,0.));
#45 = LINE('',#44,#43);
#46 = EDGE_CURVE('',#15,#24,#45,.T.);
#47 = ORIENTED_EDGE('',*,*,#22,.T.);
#48 = ORIENTED_EDGE('',*,*,#41,.T.);
#49 = ORIENTED_EDGE('',*,*,#31,.F.);
#50 = ORIENTED_EDGE('',*,*,#46,.F.);
#51 = EDGE_LOOP('',(#47,#48,#49,#50));
#52 = FACE_OUTER_BOUND('',#51,.T.);
#53 = ADVANCED_FACE('',(#52),#36,.T.);
#54 = CARTESIAN_POINT('',(100.0,2.0,0.));
#55 = VERTEX_POINT('',#54);
#56 = CARTESIAN_POINT('',(98.0,2.0,0.));
#57 = DIRECTION('',(0.,0.,1.0));
#58 = DIRECTION('',(1.0,0.,0.));
#59 = AXIS2_PLACEMENT_3D('',#56,#57,#58);
#60 = CIRCLE('',#59,2.0);
#61 = EDGE_CURVE('',#17,#55,#60,.T.);
#62 = CARTESIAN_POINT('',(100.0,2.0,6.0));
#63 = VERTEX_POINT('',#62);
#64 = CARTESIAN_POINT('',(98.0,2.0,6.0));
#65 = DIRECTION('',(0.,0.,1.0));
#66 = DIRECTION('',(1.0,0.,0.));
#67 = AXIS2_PLACEMENT_3D('',#64,#65,#66);
#68 = CIRCLE('',#67,2.0);
#69 = EDGE_CURVE('',#26,#63,#68,.T.);
#70 = CARTESIAN_POINT('',(98.0,2.0,0.));
#71 = DIRECTION('',(0.,0.,1.0));
#72 = DIRECTION('',(1.0,0.,0.));
#73 = AXIS2_PLACEMENT_3D('',#70,#71,#72);
#74 = CYLINDRICAL_SURFACE('',#73,2.0);
#75 = DIRECTION('',(0.,0.,1.0));
#76 = VECTOR('',#75,6.0);
#77 = CARTESIAN_POINT('',(100.0,2.0,0.));
#78 = LINE('',#77,#76);
#79 = EDGE_CURVE('',#55,#63,#78,.T.);
#80 = ORIENTED_EDGE('',*,*,#61,.T.);
#81 = ORIENTED_EDGE('',*,*,#79,.T.);
#82 = ORIENTED_EDGE('',*,*,#69,.F.);
#83 = ORIENTED_EDGE('',*,*,#41,.F.);
#84 = EDGE_LOOP('',(#80,#81,#82,#83));
#85 = FACE_OUTER_BOUND('',#84,.T.);
#86 = ADVANCED_FACE('',(#85),#74,.T.);
#87 = CARTESIAN_POINT('',(100.0,98.0,0.));
#88 = VERTEX_POINT('',#87);
#89 = DIRECTION('',(0.,1.0,0.));
#90 = VECTOR('',#89,96.0);
#91 = CARTESIAN_POINT('',(100.0,2.0,0.));
#92 = LINE('',#91,#90);
#93 = EDGE_CURVE('',#55,#88,#92,.T.);
#94 = CARTESIAN_POINT('',(100.0,98.0,6.0));
#95 = VERTEX_POINT('',#94);
#96 = DIRECTION('',(0.,1.0,0.));
#97 = VECTOR('',#96,96.0);
#98 = CARTESIAN_POINT('',(100.0,2.0,6.0));
#99 = LINE('',#98,#97);
#100 = EDGE_CURVE('',#63,#95,#99,.T.);
#101 = CARTESIAN_POINT('',(100.0,2.0,0.));
#102 = DIRECTION('',(1.0,0.,0.));
#103 = DIRECTION('',(0.,1.0,0.));
#104 = AXIS2_PLACEMENT_3D('',#101,#102,#103);
#105 = PLANE('',#104);
#106 = DIRECTION('',(0.,0.,1.0));
#107 = VECTOR('',#106,6.0);
#108 = CARTESIAN_POINT('',(100.0,98.0,0.));
#109 = LINE('',#108,#107);
#110 = EDGE_CURVE('',#88,#95,#109,.T.);
#111 = ORIENTED_EDGE('',*,*,#93,.T.);
#112 = ORIENTED_EDGE('',*,*,#110,.T.);
#113 = ORIENTED_EDGE('',*,*,#100,.F.);
#114 = ORIENTED_EDGE('',*,*,#79,.F.);
#115 = EDGE_LOOP('',(#111,#112,#113,#114));
#116 = FACE_OUTER_BOUND('',#115,.T.);
#117 = ADVANCED_FACE('',(#116),#105,.T.);
#118 = CARTESIAN_POINT('',(98.0,100.0,0.));
#119 = VERTEX_POINT('',#118);
#120 = CARTESIAN_POINT('',(98.0,98.0,0.));
#121 = DIRECTION('',(0.,0.,1.0));
#122 = DIRECTION('',(1.0,0.,0.));
#123 = AXIS2_PLACEMENT_3D('',#120,#121,#122);
#124 = CIRCLE('',#123,2.0);
#125 = EDGE_CURVE('',#88,#119,#124,.T.);
#126 = CARTESIAN_POINT('',(98.0,100.0,6.0));
#127 = VERTEX_POINT('',#126);
#128 = CARTESIAN_POINT('',(98.0,98.0,6.0));
#129 = DIRECTION('',(0.,0.,1.0));
#130 = DIRECTION('',(1.0,0.,0.));
#131 = AXIS2_PLACEMENT_3D('',#128,#129,#130);
#132 = CIRCLE('',#131,2.0);
#133 = EDGE_CURVE('',#95,#127,#132,.T.);
#134 = CARTESIAN_POINT('',(98.0,98.0,0.));
#135 = DIRECTION('',(0.,0.,1.0));
#136 = DIRECTION('',(1.0,0.,0.));
#137 = AXIS2_PLACEMENT_3D('',#134,#135,#136);
#138 = CYLINDRICAL_SURFACE('',#137,2.0);
#139 = DIRECTION('',(0.,0.,1.0));
#140 = VECTOR('',#139,6.0);
#141 = CARTESIAN_POINT('',(98.0,100.0,0.));
#142 = LINE('',#141,#140);
#143 = EDGE_CURVE('',#119,#127,#142,.T.);
#144 = ORIENTED_EDGE('',*,*,#125,.T.);
#145 = ORIENTED_EDGE('',*,*,#143,.T.);
#146 = ORIENTED_EDGE('',*,*,#133,.F.);
#147 = ORIENTED_EDGE('',*,*,#110,.F.);
#148 = EDGE_LOOP('',(#144,#145,#146,#147));
#149 = FACE_OUTER_BOUND('',#148,.T.);
#150 = ADVANCED_FACE('',(#149),#138,.T.);
#151 = CARTESIAN_POINT('',(2.0,100.0,0.));
#152 = VERTEX_POINT('',#151);
#153 = DIRECTION('',(-1.0,0.,0.));
#154 = VECTOR('',#153,96.0);
#155 = CARTESIAN_POINT('',(98.0,100.0,0.));
#156 = LINE('',#155,#154);
#157 = EDGE_CURVE('',#119,#152,#156,.T.);
#158 = CARTESIAN_POINT('',(2.0,100.0,6.0));
#159 = VERTEX_POINT('',#158);
#160 = DIRECTION('',(-1.0,0.,0.));
#161 = VECTOR('',#160,96.0);
#162 = CARTESIAN_POINT('',(98.0,100.0,6.0));
#163 = LINE('',#162,#161);
#164 = EDGE_CURVE('',#127,#159,#163,.T.);
#165 = CARTESIAN_POINT('',(98.0,100.0,0.));
#166 = DIRECTION('',(0.,1.0,0.));
#167 = DIRECTION('',(-1.0,0.,0.));
#168 = AXIS2_PLACEMENT_3D('',#165,#166,#167);
#169 = PLANE('',#168);
#170 = DIRECTION('',(0.,0.,1.0));
#171 = VECTOR('',#170,6.0);
#172 = CARTESIAN_POINT('',(2.0,100.0,0.));
#173 = LINE('',#172,#171);
#174 = EDGE_CURVE('',#152,#159,#173,.T.);
#175 = ORIENTED_EDGE('',*,*,#157,.T.);
#176 = ORIENTED_EDGE('',*,*,#174,.T.);
#177 = ORIENTED_EDGE('',*,*,#164,.F.);
#178 = ORIENTED_EDGE('',*,*,#143,.F.);
#179 = EDGE_LOOP('',(#175,#176,#177,#178));
#180 = FACE_OUTER_BOUND('',#179,.T.);
#181 = ADVANCED_FACE('',(#180),#169,.T.);
#182 = CARTESIAN_POINT('',(-0.0,98.0,0.));
#183 = VERTEX_POINT('',#182);
#184 = CARTESIAN_POINT('',(2.0,98.0,0.));
#185 = DIRECTION('',(0.,0.,1.0));
#186 = DIRECTION('',(1.0,0.,0.));
#187 = AXIS2_PLACEMENT_3D('',#184,#185,#186);
#188 = CIRCLE('',#187,2.0);
#189 = EDGE_CURVE('',#152,#183,#188,.T.);
#190 = CARTESIAN_POINT('',(-0.0,98.0,6.0));
#191 = VERTEX_POINT('',#190);
#192 = CARTESIAN_POINT('',(2.0,98.0,6.0));
#193 = DIRECTION('',(0.,0.,1.0));
#194 = DIRECTION('',(1.0,0.,0.));
#195 = AXIS2_PLACEMENT_3D('',#192,#193,#194);
#196 = CIRCLE('',#195,2.0);
#197 = EDGE_CURVE('',#159,#191,#196,.T.);
#198 = CARTESIAN_POINT('',(2.0,98.0,0.));
#199 = DIRECTION('',(0.,0.,1.0));
#200 = DIRECTION('',(1.0,0.,0.));
#201 = AXIS2_PLACEMENT_3D('',#198,#199,#200);
#202 = CYLINDRICAL_SURFACE('',#201,2.0);
#203 = DIRECTION('',(0.,0.,1.0));
#204 = VECTOR('',#203,6.0);
#205 = CARTESIAN_POINT('',(0.,98.0,0.));
#206 = LINE('',#205,#204);
#207 = EDGE_CURVE('',#183,#191,#206,.T.);
#208 = ORIENTED_EDGE('',*,*,#189,.T.);
#209 = ORIENTED_EDGE('',*,*,#207,.T.);
#210 = ORIENTED_EDGE('',*,*,#197,.F.);
#211 = ORIENTED_EDGE('',*,*,#174,.F.);
#212 = EDGE_LOOP('',(#208,#209,#210,#211));
#213 = FACE_OUTER_BOUND('',#212,.T.);
#214 = ADVANCED_FACE('',(#213),#202,.T.);
#215 = CARTESIAN_POINT('',(0.,2.0,0.));
#216 = VERTEX_POINT('',#215);
#217 = DIRECTION('',(0.,-1.0,0.));
#218 = VECTOR('',#217,96.0);
#219 = CARTESIAN_POINT('',(0.,98.0,0.));
#220 = LINE('',#219,#218);
#221 = EDGE_CURVE('',#183,#216,#220,.T.);
#222 = CARTESIAN_POINT('',(0.,2.0,6.0));
#223 = VERTEX_POINT('',#222);
#224 = DIRECTION('',(0.,-1.0,0.));
#225 = VECTOR('',#224,96.0);
#226 = CARTESIAN_POINT('',(0.,98.0,6.0));
#227 = LINE('',#226,#225);
#228 = EDGE_CURVE('',#191,#223,#227,.T.);
#229 = CARTESIAN_POINT('',(0.,98.0,0.));
#230 = DIRECTION('',(-1.0,0.,0.));
#231 = DIRECTION('',(0.,-1.0,0.));
#232 = AXIS2_PLACEMENT_3D('',#229,#230,#231);
#233 = PLANE('',#232);
#234 = DIRECTION('',(0.,0.,1.0));
#235 = VECTOR('',#234,6.0);
#236 = CARTESIAN_POINT('',(0.,2.0,0.));
#237 = LINE('',#236,#235);
#238 = EDGE_CURVE('',#216,#223,#237,.T.);
#239 = ORIENTED_EDGE('',*,*,#221,.T.);
#240 = ORIENTED_EDGE('',*,*,#238,.T.);
#241 = ORIENTED_EDGE('',*,*,#228,.F.);
#242 = ORIENTED_EDGE('',*,*,#207,.F.);
#243 = EDGE_LOOP('',(#239,#240,#241,#242));
#244 = FACE_OUTER_BOUND('',#243,.T.);
#245 = ADVANCED_FACE('',(#244),#233,.T.);
#246 = CARTESIAN_POINT('',(2.0,2.0,0.));
#247 = DIRECTION('',(0.,0.,1.0));
#248 = DIRECTION('',(1.0,0.,0.));
#249 = AXIS2_PLACEMENT_3D('',#246,#247,#248);
#250 = CIRCLE('',#249,2.0);
#251 = EDGE_CURVE('',#216,#15,#250,.T.);
#252 = CARTESIAN_POINT('',(2.0,2.0,6.0));
#253 = DIRECTION('',(0.,0.,1.0));
#254 = DIRECTION('',(1.0,0.,0.));
#255 = AXIS2_PLACEMENT_3D('',#252,#253,#254);
#256 = CIRCLE('',#255,2.0);
#257 = EDGE_CURVE('',#223,#24,#256,.T.);
#258 = CARTESIAN_POINT('',(2.0,2.0,0.));
#259 = DIRECTION('',(0.,0.,1.0));
#260 = DIRECTION('',(1.0,0.,0.));
#261 = AXIS2_PLACEMENT_3D('',#258,#259,#260);
#262 = CYLINDRICAL_SURFACE('',#261,2.0);
#263 = ORIENTED_EDGE('',*,*,#251,.T.);
#264 = ORIENTED_EDGE('',*,*,#46,.T.);
#265 = ORIENTED_EDGE('',*,*,#257,.F.);
#266 = ORIENTED_EDGE('',*,*,#238,.F.);
#267 = EDGE_LOOP('',(#263,#264,#265,#266));
#268 = FACE_OUTER_BOUND('',#267,.T.);
#269 = ADVANCED_FACE('',(#268),#262,.T.);
#270 = CARTESIAN_POINT('',(11.0,18.0,0.));
#271 = VERTEX_POINT('',#270);
#272 = CARTESIAN_POINT('',(25.0,18.0,0.));
#273 = VERTEX_POINT('',#272);
#274 = CARTESIAN_POINT('',(18.0,18.0,0.));
#275 = DIRECTION('',(0.,0.,1.0));
#276 = DIRECTION('',(1.0,0.,0.));
#277 = AXIS2_PLACEMENT_3D('',#274,#275,#276);
#278 = CIRCLE('',#277,7.0);
#279 = EDGE_CURVE('',#271,#273,#278,.F.);
#280 = CARTESIAN_POINT('',(11.0,18.0,6.0));
#281 = VERTEX_POINT('',#280);
#282 = CARTESIAN_POINT('',(25.0,18.0,6.0));
#283 = VERTEX_POINT('',#282);
#284 = CARTESIAN_POINT('',(18.0,18.0,6.0));
#285 = DIRECTION('',(0.,0.,1.0));
#286 = DIRECTION('',(1.0,0.,0.));
#287 = AXIS2_PLACEMENT_3D('',#284,#285,#286);
#288 = CIRCLE('',#287,7.0);
#289 = EDGE_CURVE('',#281,#283,#288,.F.);
#290 = CARTESIAN_POINT('',(18.0,18.0,0.));
#291 = DIRECTION('',(0.,0.,1.0));
#292 = DIRECTION('',(1.0,0.,0.));
#293 = AXIS2_PLACEMENT_3D('',#290,#291,#292);
#294 = CYLINDRICAL_SURFACE('',#293,7.0);
#295 = DIRECTION('',(0.,0.,1.0));
#296 = VECTOR('',#295,6.0);
#297 = CARTESIAN_POINT('',(25.0,18.0,0.));
#298 = LINE('',#297,#296);
#299 = EDGE_CURVE('',#273,#283,#298,.T.);
#300 = DIRECTION('',(0.,0.,1.0));
#301 = VECTOR('',#300,6.0);
#302 = CARTESIAN_POINT('',(11.0,18.0,0.));
#303 = LINE('',#302,#301);
#304 = EDGE_CURVE('',#271,#281,#303,.T.);
#305 = ORIENTED_EDGE('',*,*,#279,.T.);
#306 = ORIENTED_EDGE('',*,*,#299,.T.);
#307 = ORIENTED_EDGE('',*,*,#289,.F.);
#308 = ORIENTED_EDGE('',*,*,#304,.F.);
#309 = EDGE_LOOP('',(#305,#306,#307,#308));
#310 = FACE_OUTER_BOUND('',#309,.T.);
#311 = ADVANCED_FACE('',(#310),#294,.F.);
#312 = CARTESIAN_POINT('',(18.0,18.0,0.));
#313 = DIRECTION('',(0.,0.,1.0));
#314 = DIRECTION('',(1.0,0.,0.));
#315 = AXIS2_PLACEMENT_3D('',#312,#313,#314);
#316 = CIRCLE('',#315,7.0);
#317 = EDGE_CURVE('',#273,#271,#316,.F.);
#318 = CARTESIAN_POINT('',(18.0,18.0,6.0));
#319 = DIRECTION('',(0.,0.,1.0));
#320 = DIRECTION('',(1.0,0.,0.));
#321 = AXIS2_PLACEMENT_3D('',#318,#319,#320);
#322 = CIRCLE('',#321,7.0);
#323 = EDGE_CURVE('',#283,#281,#322,.F.);
#324 = CARTESIAN_POINT('',(18.0,18.0,0.));
#325 = DIRECTION('',(0.,0.,1.0));
#326 = DIRECTION('',(1.0,0.,0.));
#327 = AXIS2_PLACEMENT_3D('',#324,#325,#326);
#328 = CYLINDRICAL_SURFACE('',#327,7.0);
#329 = ORIENTED_EDGE('',*,*,#317,.T.);
#330 = ORIENTED_EDGE('',*,*,#304,.T.);
#331 = ORIENTED_EDGE('',*,*,#323,.F.);
#332 = ORIENTED_EDGE('',*,*,#299,.F.);
#333 = EDGE_LOOP('',(#329,#330,#331,#332));
#334 = FACE_OUTER_BOUND('',#333,.T.);
#335 = ADVANCED_FACE('',(#334),#328,.F.);
#336 = CARTESIAN_POINT('',(75.0,18.0,0.));
#337 = VERTEX_POINT('',#336);
#338 = CARTESIAN_POINT('',(89.0,18.0,0.));
#339 = VERTEX_POINT('',#338);
#340 = CARTESIAN_POINT('',(82.0,18.0,0.));
#341 = DIRECTION('',(0.,0.,1.0));
#342 = DIRECTION('',(1.0,0.,0.));
#343 = AXIS2_PLACEMENT_3D('',#340,#341,#342);
#344 = CIRCLE('',#343,7.0);
#345 = EDGE_CURVE('',#337,#339,#344,.F.);
#346 = CARTESIAN_POINT('',(75.0,18.0,6.0));
#347 = VERTEX_POINT('',#346);
#348 = CARTESIAN_POINT('',(89.0,18.0,6.0));
#349 = VERTEX_POINT('',#348);
#350 = CARTESIAN_POINT('',(82.0,18.0,6.0));
#351 = DIRECTION('',(0.,0.,1.0));
#352 = DIRECTION('',(1.0,0.,0.));
#353 = AXIS2_PLACEMENT_3D('',#350,#351,#352);
#354 = CIRCLE('',#353,7.0);
#355 = EDGE_CURVE('',#347,#349,#354,.F.);
#356 = CARTESIAN_POINT('',(82.0,18.0,0.));
#357 = DIRECTION('',(0.,0.,1.0));
#358 = DIRECTION('',(1.0,0.,0.));
#359 = AXIS2_PLACEMENT_3D('',#356,#357,#358);
#360 = CYLINDRICAL_SURFACE('',#359,7.0);
#361 = DIRECTION('',(0.,0.,1.0));
#362 = VECTOR('',#361,6.0);
#363 = CARTESIAN_POINT('',(89.0,18.0,0.));
#364 = LINE('',#363,#362);
#365 = EDGE_CURVE('',#339,#349,#364,.T.);
#366 = DIRECTION('',(0.,0.,1.0));
#367 = VECTOR('',#366,6.0);
#368 = CARTESIAN_POINT('',(75.0,18.0,0.));
#369 = LINE('',#368,#367);
#370 = EDGE_CURVE('',#337,#347,#369,.T.);
#371 = ORIENTED_EDGE('',*,*,#345,.T.);
#372 = ORIENTED_EDGE('',*,*,#365,.T.);
#373 = ORIENTED_EDGE('',*,*,#355,.F.);
#374 = ORIENTED_EDGE('',*,*,#370,.F.);
#375 = EDGE_LOOP('',(#371,#372,#373,#374));
#376 = FACE_OUTER_BOUND('',#375,.T.);
#377 = ADVANCED_FACE('',(#376),#360,.F.);
#378 = CARTESIAN_POINT('',(82.0,18.0,0.));
#379 = DIRECTION('',(0.,0.,1.0));
#380 = DIRECTION('',(1.0,0.,0.));
#381 = AXIS2_PLACEMENT_3D('',#378,#379,#380);
#382 = CIRCLE('',#381,7.0);
#383 = EDGE_CURVE('',#339,#337,#382,.F.);
#384 = CARTESIAN_POINT('',(82.0,18.0,6.0));
#385 = DIRECTION('',(0.,0.,1.0));
#386 = DIRECTION('',(1.0,0.,0.));
#387 = AXIS2_PLACEMENT_3D('',#384,#385,#386);
#388 = CIRCLE('',#387,7.0);
#389 = EDGE_CURVE('',#349,#347,#388,.F.);
#390 = CARTESIAN_POINT('',(82.0,18.0,0.));
#391 = DIRECTION('',(0.,0.,1.0));
#392 = DIRECTION('',(1.0,0.,0.));
#393 = AXIS2_PLACEMENT_3D('',#390,#391,#392);
#394 = CYLINDRICAL_SURFACE('',#393,7.0);
#395 = ORIENTED_EDGE('',*,*,#383,.T.);
#396 = ORIENTED_EDGE('',*,*,#370,.T.);
#397 = ORIENTED_EDGE('',*,*,#389,.F.);
#398 = ORIENTED_EDGE('',*,*,#365,.F.);
#399 = EDGE_LOOP('',(#395,#396,#397,#398));
#400 = FACE_OUTER_BOUND('',#399,.T.);
#401 = ADVANCED_FACE('',(#400),#394,.F.);
#402 = CARTESIAN_POINT('',(75.0,82.0,0.));
#403 = VERTEX_POINT('',#402);
#404 = CARTESIAN_POINT('',(89.0,82.0,0.));
#405 = VERTEX_POINT('',#404);
#406 = CARTESIAN_POINT('',(82.0,82.0,0.));
#407 = DIRECTION('',(0.,0.,1.0));
#408 = DIRECTION('',(1.0,0.,0.));
#409 = AXIS2_PLACEMENT_3D('',#406,#407,#408);
#410 = CIRCLE('',#409,7.0);
#411 = EDGE_CURVE('',#403,#405,#410,.F.);
#412 = CARTESIAN_POINT('',(75.0,82.0,6.0));
#413 = VERTEX_POINT('',#412);
#414 = CARTESIAN_POINT('',(89.0,82.0,6.0));
#415 = VERTEX_POINT('',#414);
#416 = CARTESIAN_POINT('',(82.0,82.0,6.0));
#417 = DIRECTION('',(0.,0.,1.0));
#418 = DIRECTION('',(1.0,0.,0.));
#419 = AXIS2_PLACEMENT_3D('',#416,#417,#418);
#420 = CIRCLE('',#419,7.0);
#421 = EDGE_CURVE('',#413,#415,#420,.F.);
#422 = CARTESIAN_POINT('',(82.0,82.0,0.));
#423 = DIRECTION('',(0.,0.,1.0));
#424 = DIRECTION('',(1.0,0.,0.));
#425 = AXIS2_PLACEMENT_3D('',#422,#423,#424);
#426 = CYLINDRICAL_SURFACE('',#425,7.0);
#427 = DIRECTION('',(0.,0.,1.0));
#428 = VECTOR('',#427,6.0);
#429 = CARTESIAN_POINT('',(89.0,82.0,0.));
#430 = LINE('',#429,#428);
#431 = EDGE_CURVE('',#405,#415,#430,.T.);
#432 = DIRECTION('',(0.,0.,1.0));
#433 = VECTOR('',#432,6.0);
#434 = CARTESIAN_POINT('',(75.0,82.0,0.));
#435 = LINE('',#434,#433);
#436 = EDGE_CURVE('',#403,#413,#435,.T.);
#437 = ORIENTED_EDGE('',*,*,#411,.T.);
#438 = ORIENTED_EDGE('',*,*,#431,.T.);
#439 = ORIENTED_EDGE('',*,*,#421,.F.);
#440 = ORIENTED_EDGE('',*,*,#436,.F.);
#441 = EDGE_LOOP('',(#437,#438,#439,#440));
#442 = FACE_OUTER_BOUND('',#441,.T.);
#443 = ADVANCED_FACE('',(#442),#426,.F.);
#444 = CARTESIAN_POINT('',(82.0,82.0,0.));
#445 = DIRECTION('',(0.,0.,1.0));
#446 = DIRECTION('',(1.0,0.,0.));
#447 = AXIS2_PLACEMENT_3D('',#444,#445,#446);
#448 = CIRCLE('',#447,7.0);
#449 = EDGE_CURVE('',#405,#403,#448,.F.);
#450 = CARTESIAN_POINT('',(82.0,82.0,6.0));
#451 = DIRECTION('',(0.,0.,1.0));
#452 = DIRECTION('',(1.0,0.,0.));
#453 = AXIS2_PLACEMENT_3D('',#450,#451,#452);
#454 = CIRCLE('',#453,7.0);
#455 = EDGE_CURVE('',#415,#413,#454,.F.);
#456 = CARTESIAN_POINT('',(82.0,82.0,0.));
#457 = DIRECTION('',(0.,0.,1.0));
#458 = DIRECTION('',(1.0,0.,0.));
#459 = AXIS2_PLACEMENT_3D('',#456,#457,#458);
#460 = CYLINDRICAL_SURFACE('',#459,7.0);
#461 = ORIENTED_EDGE('',*,*,#449,.T.);
#462 = ORIENTED_EDGE('',*,*,#436,.T.);
#463 = ORIENTED_EDGE('',*,*,#455,.F.);
#464 = ORIENTED_EDGE('',*,*,#431,.F.);
#465 = EDGE_LOOP('',(#461,#462,#463,#464));
#466 = FACE_OUTER_BOUND('',#465,.T.);
#467 = ADVANCED_FACE('',(#466),#460,.F.);
#468 = CARTESIAN_POINT('',(11.0,82.0,0.));
#469 = VERTEX_POINT('',#468);
#470 = CARTESIAN_POINT('',(25.0,82.0,0.));
#471 = VERTEX_POINT('',#470);
#472 = CARTESIAN_POINT('',(18.0,82.0,0.));
#473 = DIRECTION('',(0.,0.,1.0));
#474 = DIRECTION('',(1.0,0.,0.));
#475 = AXIS2_PLACEMENT_3D('',#472,#473,#474);
#476 = CIRCLE('',#475,7.0);
#477 = EDGE_CURVE('',#469,#471,#476,.F.);
#478 = CARTESIAN_POINT('',(11.0,82.0,6.0));
#479 = VERTEX_POINT('',#478);
#480 = CARTESIAN_POINT('',(25.0,82.0,6.0));
#481 = VERTEX_POINT('',#480);
#482 = CARTESIAN_POINT('',(18.0,82.0,6.0));
#483 = DIRECTION('',(0.,0.,1.0));
#484 = DIRECTION('',(1.0,0.,0.));
#485 = AXIS2_PLACEMENT_3D('',#482,#483,#484);
#486 = CIRCLE('',#485,7.0);
#487 = EDGE_CURVE('',#479,#481,#486,.F.);
#488 = CARTESIAN_POINT('',(18.0,82.0,0.));
#489 = DIRECTION('',(0.,0.,1.0));
#490 = DIRECTION('',(1.0,0.,0.));
#491 = AXIS2_PLACEMENT_3D('',#488,#489,#490);
#492 = CYLINDRICAL_SURFACE('',#491,7.0);
#493 = DIRECTION('',(0.,0.,1.0));
#494 = VECTOR('',#493,6.0);
#495 = CARTESIAN_POINT('',(25.0,82.0,0.));
#496 = LINE('',#495,#494);
#497 = EDGE_CURVE('',#471,#481,#496,.T.);
#498 = DIRECTION('',(0.,0.,1.0));
#499 = VECTOR('',#498,6.0);
#500 = CARTESIAN_POINT('',(11.0,82.0,0.));
#501 = LINE('',#500,#499);
#502 = EDGE_CURVE('',#469,#479,#501,.T.);
#503 = ORIENTED_EDGE('',*,*,#477,.T.);
#504 = ORIENTED_EDGE('',*,*,#497,.T.);
#505 = ORIENTED_EDGE('',*,*,#487,.F.);
#506 = ORIENTED_EDGE('',*,*,#502,.F.);
#507 = EDGE_LOOP('',(#503,#504,#505,#506));
#508 = FACE_OUTER_BOUND('',#507,.T.);
#509 = ADVANCED_FACE('',(#508),#492,.F.);
#510 = CARTESIAN_POINT('',(18.0,82.0,0.));
#511 = DIRECTION('',(0.,0.,1.0));
#512 = DIRECTION('',(1.0,0.,0.));
#513 = AXIS2_PLACEMENT_3D('',#510,#511,#512);
#514 = CIRCLE('',#513,7.0);
#515 = EDGE_CURVE('',#471,#469,#514,.F.);
#516 = CARTESIAN_POINT('',(18.0,82.0,6.0));
#517 = DIRECTION('',(0.,0.,1.0));
#518 = DIRECTION('',(1.0,0.,0.));
#519 = AXIS2_PLACEMENT_3D('',#516,#517,#518);
#520 = CIRCLE('',#519,7.0);
#521 = EDGE_CURVE('',#481,#479,#520,.F.);
#522 = CARTESIAN_POINT('',(18.0,82.0,0.));
#523 = DIRECTION('',(0.,0.,1.0));
#524 = DIRECTION('',(1.0,0.,0.));
#525 = AXIS2_PLACEMENT_3D('',#522,#523,#524);
#526 = CYLINDRICAL_SURFACE('',#525,7.0);
#527 = ORIENTED_EDGE('',*,*,#515,.T.);
#528 = ORIENTED_EDGE('',*,*,#502,.T.);
#529 = ORIENTED_EDGE('',*,*,#521,.F.);
#530 = ORIENTED_EDGE('',*,*,#497,.F.);
#531 = EDGE_LOOP('',(#527,#528,#529,#530));
#532 = FACE_OUTER_BOUND('',#531,.T.);
#533 = ADVANCED_FACE('',(#532),#526,.F.);
#534 = CARTESIAN_POINT('',(0.,0.,6.0));
#535 = DIRECTION('',(0.,0.,1.0));
#536 = DIRECTION('',(1.0,0.,0.));
#537 = AXIS2_PLACEMENT_3D('',#534,#535,#536);
#538 = PLANE('',#537);
#539 = ORIENTED_EDGE('',*,*,#31,.T.);
#540 = ORIENTED_EDGE('',*,*,#69,.T.);
#541 = ORIENTED_EDGE('',*,*,#100,.T.);
#542 = ORIENTED_EDGE('',*,*,#133,.T.);
#543 = ORIENTED_EDGE('',*,*,#164,.T.);
#544 = ORIENTED_EDGE('',*,*,#197,.T.);
#545 = ORIENTED_EDGE('',*,*,#228,.T.);
#546 = ORIENTED_EDGE('',*,*,#257,.T.);
#547 = EDGE_LOOP('',(#539,#540,#541,#542,#543,#544,#545,#546));
#548 = FACE_OUTER_BOUND('',#547,.T.);
#549 = ORIENTED_EDGE('',*,*,#289,.T.);
#550 = ORIENTED_EDGE('',*,*,#323,.T.);
#551 = EDGE_LOOP('',(#549,#550));
#552 = FACE_BOUND('',#551,.T.);
#553 = ORIENTED_EDGE('',*,*,#355,.T.);
#554 = ORIENTED_EDGE('',*,*,#389,.T.);
#555 = EDGE_LOOP('',(#553,#554));
#556 = FACE_BOUND('',#555,.T.);
#557 = ORIENTED_EDGE('',*,*,#421,.T.);
#558 = ORIENTED_EDGE('',*,*,#455,.T.);
#559 = EDGE_LOOP('',(#557,#558));
#560 = FACE_BOUND('',#559,.T.);
#561 = ORIENTED_EDGE('',*,*,#487,.T.);
#562 = ORIENTED_EDGE('',*,*,#521,.T.);
#563 = EDGE_LOOP('',(#561,#562));
#564 = FACE_BOUND('',#563,.T.);
#565 = ADVANCED_FACE('',(#548,#552,#556,#560,#564),#538,.T.);
#566 = CARTESIAN_POINT('',(0.,0.,0.));
#567 = DIRECTION('',(0.,0.,-1.0));
#568 = DIRECTION('',(1.0,0.,0.));
#569 = AXIS2_PLACEMENT_3D('',#566,#567,#568);
#570 = PLANE('',#569);
#571 = ORIENTED_EDGE('',*,*,#251,.F.);
#572 = ORIENTED_EDGE('',*,*,#221,.F.);
#573 = ORIENTED_EDGE('',*,*,#189,.F.);
#574 = ORIENTED_EDGE('',*,*,#157,.F.);
#575 = ORIENTED_EDGE('',*,*,#125,.F.);
#576 = ORIENTED_EDGE('',*,*,#93,.F.);
#577 = ORIENTED_EDGE('',*,*,#61,.F.);
#578 = ORIENTED_EDGE('',*,*,#22,.F.);
#579 = EDGE_LOOP('',(#571,#572,#573,#574,#575,#576,#577,#578));
#580 = FACE_OUTER_BOUND('',#579,.T.);
#581 = ORIENTED_EDGE('',*,*,#317,.F.);
#582 = ORIENTED_EDGE('',*,*,#279,.F.);
#583 = EDGE_LOOP('',(#581,#582));
#584 = FACE_BOUND('',#583,.T.);
#585 = ORIENTED_EDGE('',*,*,#383,.F.);
#586 = ORIENTED_EDGE('',*,*,#345,.F.);
#587 = EDGE_LOOP('',(#585,#586));
#588 = FACE_BOUND('',#587,.T.);
#589 = ORIENTED_EDGE('',*,*,#449,.F.);
#590 = ORIENTED_EDGE('',*,*,#411,.F.);
#591 = EDGE_LOOP('',(#589,#590));
#592 = FACE_BOUND('',#591,.T.);
#593 = ORIENTED_EDGE('',*,*,#515,.F.);
#594 = ORIENTED_EDGE('',*,*,#477,.F.);
#595 = EDGE_LOOP('',(#593,#594));
#596 = FACE_BOUND('',#595,.T.);
#597 = ADVANCED_FACE('',(#580,#584,#588,#592,#596),#570,.T.);
#598 = CLOSED_SHELL('',(#53,#86,#117,#150,#181,#214,#245,#269,#311,#335,#377,#401,#443,#467,#509,#533,#565,#597));
#599 = CARTESIAN_POINT('',(0.,0.,0.));
#600 = DIRECTION('',(0.,0.,1.0));
#601 = DIRECTION('',(1.0,0.,0.));
#602 = AXIS2_PLACEMENT_3D('',#599,#600,#601);
#603 = MANIFOLD_SOLID_BREP('H-06',#598);
#604 = ADVANCED_BREP_SHAPE_REPRESENTATION('H-06',(#603,#602),#5);
#605 = SHAPE_DEFINITION_REPRESENTATION(#13,#604);
ENDSEC;
END-ISO-10303-21;
