ISO-10303-21;
HEADER;
FILE_DESCRIPTION(('D-03'),'2;1');
FILE_NAME('D-03','2026-09-10T00:00:00',('Dynamic Industry'),('Dynamic Industry'),'mp50_cad','MP-50','');
FILE_SCHEMA(('AUTOMOTIVE_DESIGN { 1 0 10303 214 1 1 1 1 }'));
ENDSEC;
DATA;
#1 = ( LENGTH_UNIT() NAMED_UNIT(*) SI_UNIT(.MILLI.,.METRE.) );
#2 = ( NAMED_UNIT(*) PLANE_ANGLE_UNIT() SI_UNIT($,.RADIAN.) );
#3 = ( NAMED_UNIT(*) SI_UNIT($,.STERADIAN.) SOLID_ANGLE_UNIT() );
#4 = UNCERTAINTY_MEASURE_WITH_UNIT(LENGTH_MEASURE(1.E-06),#1,'distance_accuracy_value','confusion accuracy');
#5 = ( GEOMETRIC_REPRESENTATION_CONTEXT(3) GLOBAL_UNCERTAINTY_ASSIGNED_CONTEXT((#4)) GLOBAL_UNIT_ASSIGNED_CONTEXT((#1,#2,#3)) REPRESENTATION_CONTEXT('','3D') );
#6 = APPLICATION_CONTEXT('automotive design');
#7 = APPLICATION_PROTOCOL_DEFINITION('international standard','automotive_design',2000,#6);
#8 = PRODUCT_CONTEXT('',#6,'mechanical');
#9 = PRODUCT_DEFINITION_CONTEXT('part definition',#6,'design');
#10 = PRODUCT('D-03','D-03','',(#8));
#11 = PRODUCT_DEFINITION_FORMATION('','',#10);
#12 = PRODUCT_DEFINITION('design','',#11,#9);
#13 = PRODUCT_DEFINITION_SHAPE('','',#12);
#14 = CARTESIAN_POINT('',(-30.0,-0.0,0.));
#15 = VERTEX_POINT('',#14);
#16 = CARTESIAN_POINT('',(30.0,0.0,0.));
#17 = VERTEX_POINT('',#16);
#18 = CARTESIAN_POINT('',(0.,0.0,0.));
#19 = DIRECTION('',(0.,0.,1.0));
#20 = DIRECTION('',(1.0,0.,0.));
#21 = AXIS2_PLACEMENT_3D('',#18,#19,#20);
#22 = CIRCLE('',#21,30.0);
#23 = EDGE_CURVE('',#15,#17,#22,.T.);
#24 = CARTESIAN_POINT('',(-30.0,-0.0,60.0));
#25 = VERTEX_POINT('',#24);
#26 = CARTESIAN_POINT('',(30.0,0.0,60.0));
#27 = VERTEX_POINT('',#26);
#28 = CARTESIAN_POINT('',(0.,0.0,60.0));
#29 = DIRECTION('',(0.,0.,1.0));
#30 = DIRECTION('',(1.0,0.,0.));
#31 = AXIS2_PLACEMENT_3D('',#28,#29,#30);
#32 = CIRCLE('',#31,30.0);
#33 = EDGE_CURVE('',#25,#27,#32,.T.);
#34 = CARTESIAN_POINT('',(0.,0.0,0.));
#35 = DIRECTION('',(0.,0.,1.0));
#36 = DIRECTION('',(1.0,0.,0.));
#37 = AXIS2_PLACEMENT_3D('',#34,#35,#36);
#38 = CYLINDRICAL_SURFACE('',#37,30.0);
#39 = DIRECTION('',(0.,0.,1.0));
#40 = VECTOR('',#39,60.0);
#41 = CARTESIAN_POINT('',(30.0,0.,0.));
#42 = LINE('',#41,#40);
#43 = EDGE_CURVE('',#17,#27,#42,.T.);
#44 = DIRECTION('',(0.,0.,1.0));
#45 = VECTOR('',#44,60.0);
#46 = CARTESIAN_POINT('',(-30.0,0.,0.));
#47 = LINE('',#46,#45);
#48 = EDGE_CURVE('',#15,#25,#47,.T.);
#49 = ORIENTED_EDGE('',*,*,#23,.T.);
#50 = ORIENTED_EDGE('',*,*,#43,.T.);
#51 = ORIENTED_EDGE('',*,*,#33,.F.);
#52 = ORIENTED_EDGE('',*,*,#48,.F.);
#53 = EDGE_LOOP('',(#49,#50,#51,#52));
#54 = FACE_OUTER_BOUND('',#53,.T.);
#55 = ADVANCED_FACE('',(#54),#38,.T.);
#56 = CARTESIAN_POINT('',(0.,-0.0,0.));
#57 = DIRECTION('',(0.,0.,1.0));
#58 = DIRECTION('',(1.0,0.,0.));
#59 = AXIS2_PLACEMENT_3D('',#56,#57,#58);
#60 = CIRCLE('',#59,30.0);
#61 = EDGE_CURVE('',#17,#15,#60,.T.);
#62 = CARTESIAN_POINT('',(0.,-0.0,60.0));
#63 = DIRECTION('',(0.,0.,1.0));
#64 = DIRECTION('',(1.0,0.,0.));
#65 = AXIS2_PLACEMENT_3D('',#62,#63,#64);
#66 = CIRCLE('',#65,30.0);
#67 = EDGE_CURVE('',#27,#25,#66,.T.);
#68 = CARTESIAN_POINT('',(0.,-0.0,0.));
#69 = DIRECTION('',(0.,0.,1.0));
#70 = DIRECTION('',(1.0,0.,0.));
#71 = AXIS2_PLACEMENT_3D('',#68,#69,#70);
#72 = CYLINDRICAL_SURFACE('',#71,30.0);
#73 = ORIENTED_EDGE('',*,*,#61,.T.);
#74 = ORIENTED_EDGE('',*,*,#48,.T.);
#75 = ORIENTED_EDGE('',*,*,#67,.F.);
#76 = ORIENTED_EDGE('',*,*,#43,.F.);
#77 = EDGE_LOOP('',(#73,#74,#75,#76));
#78 = FACE_OUTER_BOUND('',#77,.T.);
#79 = ADVANCED_FACE('',(#78),#72,.T.);
#80 = CARTESIAN_POINT('',(-12.5,0.0,0.));
#81 = VERTEX_POINT('',#80);
#82 = CARTESIAN_POINT('',(12.5,-0.0,0.));
#83 = VERTEX_POINT('',#82);
#84 = CARTESIAN_POINT('',(0.,-0.0,0.));
#85 = DIRECTION('',(0.,0.,1.0));
#86 = DIRECTION('',(1.0,0.,0.));
#87 = AXIS2_PLACEMENT_3D('',#84,#85,#86);
#88 = CIRCLE('',#87,12.5);
#89 = EDGE_CURVE('',#81,#83,#88,.F.);
#90 = CARTESIAN_POINT('',(-12.5,0.0,60.0));
#91 = VERTEX_POINT('',#90);
#92 = CARTESIAN_POINT('',(12.5,-0.0,60.0));
#93 = VERTEX_POINT('',#92);
#94 = CARTESIAN_POINT('',(0.,-0.0,60.0));
#95 = DIRECTION('',(0.,0.,1.0));
#96 = DIRECTION('',(1.0,0.,0.));
#97 = AXIS2_PLACEMENT_3D('',#94,#95,#96);
#98 = CIRCLE('',#97,12.5);
#99 = EDGE_CURVE('',#91,#93,#98,.F.);
#100 = CARTESIAN_POINT('',(0.,-0.0,0.));
#101 = DIRECTION('',(0.,0.,1.0));
#102 = DIRECTION('',(1.0,0.,0.));
#103 = AXIS2_PLACEMENT_3D('',#100,#101,#102);
#104 = CYLINDRICAL_SURFACE('',#103,12.5);
#105 = DIRECTION('',(0.,0.,1.0));
#106 = VECTOR('',#105,60.0);
#107 = CARTESIAN_POINT('',(12.5,0.,0.));
#108 = LINE('',#107,#106);
#109 = EDGE_CURVE('',#83,#93,#108,.T.);
#110 = DIRECTION('',(0.,0.,1.0));
#111 = VECTOR('',#110,60.0);
#112 = CARTESIAN_POINT('',(-12.5,0.,0.));
#113 = LINE('',#112,#111);
#114 = EDGE_CURVE('',#81,#91,#113,.T.);
#115 = ORIENTED_EDGE('',*,*,#89,.T.);
#116 = ORIENTED_EDGE('',*,*,#109,.T.);
#117 = ORIENTED_EDGE('',*,*,#99,.F.);
#118 = ORIENTED_EDGE('',*,*,#114,.F.);
#119 = EDGE_LOOP('',(#115,#116,#117,#118));
#120 = FACE_OUTER_BOUND('',#119,.T.);
#121 = ADVANCED_FACE('',(#120),#104,.F.);
#122 = CARTESIAN_POINT('',(0.,0.0,0.));
#123 = DIRECTION('',(0.,0.,1.0));
#124 = DIRECTION('',(1.0,0.,0.));
#125 = AXIS2_PLACEMENT_3D('',#122,#123,#124);
#126 = CIRCLE('',#125,12.5);
#127 = EDGE_CURVE('',#83,#81,#126,.F.);
#128 = CARTESIAN_POINT('',(0.,0.0,60.0));
#129 = DIRECTION('',(0.,0.,1.0));
#130 = DIRECTION('',(1.0,0.,0.));
#131 = AXIS2_PLACEMENT_3D('',#128,#129,#130);
#132 = CIRCLE('',#131,12.5);
#133 = EDGE_CURVE('',#93,#91,#132,.F.);
#134 = CARTESIAN_POINT('',(0.,0.0,0.));
#135 = DIRECTION('',(0.,0.,1.0));
#136 = DIRECTION('',(1.0,0.,0.));
#137 = AXIS2_PLACEMENT_3D('',#134,#135,#136);
#138 = CYLINDRICAL_SURFACE('',#137,12.5);
#139 = ORIENTED_EDGE('',*,*,#127,.T.);
#140 = ORIENTED_EDGE('',*,*,#114,.T.);
#141 = ORIENTED_EDGE('',*,*,#133,.F.);
#142 = ORIENTED_EDGE('',*,*,#109,.F.);
#143 = EDGE_LOOP('',(#139,#140,#141,#142));
#144 = FACE_OUTER_BOUND('',#143,.T.);
#145 = ADVANCED_FACE('',(#144),#138,.F.);
#146 = CARTESIAN_POINT('',(-1.6,15.3,0.));
#147 = VERTEX_POINT('',#146);
#148 = CARTESIAN_POINT('',(1.6,15.3,0.));
#149 = VERTEX_POINT('',#148);
#150 = DIRECTION('',(1.0,0.,0.));
#151 = VECTOR('',#150,3.2);
#152 = CARTESIAN_POINT('',(-1.6,15.3,0.));
#153 = LINE('',#152,#151);
#154 = EDGE_CURVE('',#147,#149,#153,.T.);
#155 = CARTESIAN_POINT('',(-1.6,15.3,60.0));
#156 = VERTEX_POINT('',#155);
#157 = CARTESIAN_POINT('',(1.6,15.3,60.0));
#158 = VERTEX_POINT('',#157);
#159 = DIRECTION('',(1.0,0.,0.));
#160 = VECTOR('',#159,3.2);
#161 = CARTESIAN_POINT('',(-1.6,15.3,60.0));
#162 = LINE('',#161,#160);
#163 = EDGE_CURVE('',#156,#158,#162,.T.);
#164 = CARTESIAN_POINT('',(-1.6,15.3,0.));
#165 = DIRECTION('',(0.,-1.0,0.));
#166 = DIRECTION('',(1.0,0.,0.));
#167 = AXIS2_PLACEMENT_3D('',#164,#165,#166);
#168 = PLANE('',#167);
#169 = DIRECTION('',(0.,0.,1.0));
#170 = VECTOR('',#169,60.0);
#171 = CARTESIAN_POINT('',(1.6,15.3,0.));
#172 = LINE('',#171,#170);
#173 = EDGE_CURVE('',#149,#158,#172,.T.);
#174 = DIRECTION('',(0.,0.,1.0));
#175 = VECTOR('',#174,60.0);
#176 = CARTESIAN_POINT('',(-1.6,15.3,0.));
#177 = LINE('',#176,#175);
#178 = EDGE_CURVE('',#147,#156,#177,.T.);
#179 = ORIENTED_EDGE('',*,*,#154,.T.);
#180 = ORIENTED_EDGE('',*,*,#173,.T.);
#181 = ORIENTED_EDGE('',*,*,#163,.F.);
#182 = ORIENTED_EDGE('',*,*,#178,.F.);
#183 = EDGE_LOOP('',(#179,#180,#181,#182));
#184 = FACE_OUTER_BOUND('',#183,.T.);
#185 = ADVANCED_FACE('',(#184),#168,.T.);
#186 = CARTESIAN_POINT('',(1.6,12.5,0.));
#187 = VERTEX_POINT('',#186);
#188 = CARTESIAN_POINT('',(1.6,13.9,0.));
#189 = DIRECTION('',(0.,0.,1.0));
#190 = DIRECTION('',(1.0,0.,0.));
#191 = AXIS2_PLACEMENT_3D('',#188,#189,#190);
#192 = CIRCLE('',#191,1.4);
#193 = EDGE_CURVE('',#149,#187,#192,.F.);
#194 = CARTESIAN_POINT('',(1.6,12.5,60.0));
#195 = VERTEX_POINT('',#194);
#196 = CARTESIAN_POINT('',(1.6,13.9,60.0));
#197 = DIRECTION('',(0.,0.,1.0));
#198 = DIRECTION('',(1.0,0.,0.));
#199 = AXIS2_PLACEMENT_3D('',#196,#197,#198);
#200 = CIRCLE('',#199,1.4);
#201 = EDGE_CURVE('',#158,#195,#200,.F.);
#202 = CARTESIAN_POINT('',(1.6,13.9,0.));
#203 = DIRECTION('',(0.,0.,1.0));
#204 = DIRECTION('',(1.0,0.,0.));
#205 = AXIS2_PLACEMENT_3D('',#202,#203,#204);
#206 = CYLINDRICAL_SURFACE('',#205,1.4);
#207 = DIRECTION('',(0.,0.,1.0));
#208 = VECTOR('',#207,60.0);
#209 = CARTESIAN_POINT('',(1.6,12.5,0.));
#210 = LINE('',#209,#208);
#211 = EDGE_CURVE('',#187,#195,#210,.T.);
#212 = ORIENTED_EDGE('',*,*,#193,.T.);
#213 = ORIENTED_EDGE('',*,*,#211,.T.);
#214 = ORIENTED_EDGE('',*,*,#201,.F.);
#215 = ORIENTED_EDGE('',*,*,#173,.F.);
#216 = EDGE_LOOP('',(#212,#213,#214,#215));
#217 = FACE_OUTER_BOUND('',#216,.T.);
#218 = ADVANCED_FACE('',(#217),#206,.F.);
#219 = CARTESIAN_POINT('',(-1.6,12.5,0.));
#220 = VERTEX_POINT('',#219);
#221 = DIRECTION('',(-1.0,0.,0.));
#222 = VECTOR('',#221,3.2);
#223 = CARTESIAN_POINT('',(1.6,12.5,0.));
#224 = LINE('',#223,#222);
#225 = EDGE_CURVE('',#187,#220,#224,.T.);
#226 = CARTESIAN_POINT('',(-1.6,12.5,60.0));
#227 = VERTEX_POINT('',#226);
#228 = DIRECTION('',(-1.0,0.,0.));
#229 = VECTOR('',#228,3.2);
#230 = CARTESIAN_POINT('',(1.6,12.5,60.0));
#231 = LINE('',#230,#229);
#232 = EDGE_CURVE('',#195,#227,#231,.T.);
#233 = CARTESIAN_POINT('',(1.6,12.5,0.));
#234 = DIRECTION('',(0.,1.0,0.));
#235 = DIRECTION('',(-1.0,0.,0.));
#236 = AXIS2_PLACEMENT_3D('',#233,#234,#235);
#237 = PLANE('',#236);
#238 = DIRECTION('',(0.,0.,1.0));
#239 = VECTOR('',#238,60.0);
#240 = CARTESIAN_POINT('',(-1.6,12.5,0.));
#241 = LINE('',#240,#239);
#242 = EDGE_CURVE('',#220,#227,#241,.T.);
#243 = ORIENTED_EDGE('',*,*,#225,.T.);
#244 = ORIENTED_EDGE('',*,*,#242,.T.);
#245 = ORIENTED_EDGE('',*,*,#232,.F.);
#246 = ORIENTED_EDGE('',*,*,#211,.F.);
#247 = EDGE_LOOP('',(#243,#244,#245,#246));
#248 = FACE_OUTER_BOUND('',#247,.T.);
#249 = ADVANCED_FACE('',(#248),#237,.T.);
#250 = CARTESIAN_POINT('',(-1.6,13.9,0.));
#251 = DIRECTION('',(0.,0.,1.0));
#252 = DIRECTION('',(1.0,0.,0.));
#253 = AXIS2_PLACEMENT_3D('',#250,#251,#252);
#254 = CIRCLE('',#253,1.4);
#255 = EDGE_CURVE('',#220,#147,#254,.F.);
#256 = CARTESIAN_POINT('',(-1.6,13.9,60.0));
#257 = DIRECTION('',(0.,0.,1.0));
#258 = DIRECTION('',(1.0,0.,0.));
#259 = AXIS2_PLACEMENT_3D('',#256,#257,#258);
#260 = CIRCLE('',#259,1.4);
#261 = EDGE_CURVE('',#227,#156,#260,.F.);
#262 = CARTESIAN_POINT('',(-1.6,13.9,0.));
#263 = DIRECTION('',(0.,0.,1.0));
#264 = DIRECTION('',(1.0,0.,0.));
#265 = AXIS2_PLACEMENT_3D('',#262,#263,#264);
#266 = CYLINDRICAL_SURFACE('',#265,1.4);
#267 = ORIENTED_EDGE('',*,*,#255,.T.);
#268 = ORIENTED_EDGE('',*,*,#178,.T.);
#269 = ORIENTED_EDGE('',*,*,#261,.F.);
#270 = ORIENTED_EDGE('',*,*,#242,.F.);
#271 = EDGE_LOOP('',(#267,#268,#269,#270));
#272 = FACE_OUTER_BOUND('',#271,.T.);
#273 = ADVANCED_FACE('',(#272),#266,.F.);
#274 = CARTESIAN_POINT('',(0.,0.,60.0));
#275 = DIRECTION('',(0.,0.,1.0));
#276 = DIRECTION('',(1.0,0.,0.));
#277 = AXIS2_PLACEMENT_3D('',#274,#275,#276);
#278 = PLANE('',#277);
#279 = ORIENTED_EDGE('',*,*,#33,.T.);
#280 = ORIENTED_EDGE('',*,*,#67,.T.);
#281 = EDGE_LOOP('',(#279,#280));
#282 = FACE_OUTER_BOUND('',#281,.T.);
#283 = ORIENTED_EDGE('',*,*,#99,.T.);
#284 = ORIENTED_EDGE('',*,*,#133,.T.);
#285 = EDGE_LOOP('',(#283,#284));
#286 = FACE_BOUND('',#285,.T.);
#287 = ORIENTED_EDGE('',*,*,#163,.T.);
#288 = ORIENTED_EDGE('',*,*,#201,.T.);
#289 = ORIENTED_EDGE('',*,*,#232,.T.);
#290 = ORIENTED_EDGE('',*,*,#261,.T.);
#291 = EDGE_LOOP('',(#287,#288,#289,#290));
#292 = FACE_BOUND('',#291,.T.);
#293 = ADVANCED_FACE('',(#282,#286,#292),#278,.T.);
#294 = CARTESIAN_POINT('',(0.,0.,0.));
#295 = DIRECTION('',(0.,0.,-1.0));
#296 = DIRECTION('',(1.0,0.,0.));
#297 = AXIS2_PLACEMENT_3D('',#294,#295,#296);
#298 = PLANE('',#297);
#299 = ORIENTED_EDGE('',*,*,#61,.F.);
#300 = ORIENTED_EDGE('',*,*,#23,.F.);
#301 = EDGE_LOOP('',(#299,#300));
#302 = FACE_OUTER_BOUND('',#301,.T.);
#303 = ORIENTED_EDGE('',*,*,#127,.F.);
#304 = ORIENTED_EDGE('',*,*,#89,.F.);
#305 = EDGE_LOOP('',(#303,#304));
#306 = FACE_BOUND('',#305,.T.);
#307 = ORIENTED_EDGE('',*,*,#255,.F.);
#308 = ORIENTED_EDGE('',*,*,#225,.F.);
#309 = ORIENTED_EDGE('',*,*,#193,.F.);
#310 = ORIENTED_EDGE('',*,*,#154,.F.);
#311 = EDGE_LOOP('',(#307,#308,#309,#310));
#312 = FACE_BOUND('',#311,.T.);
#313 = ADVANCED_FACE('',(#302,#306,#312),#298,.T.);
#314 = CLOSED_SHELL('',(#55,#79,#121,#145,#185,#218,#249,#273,#293,#313));
#315 = CARTESIAN_POINT('',(32.0,-30.0,0.));
#316 = VERTEX_POINT('',#315);
#317 = CARTESIAN_POINT('',(148.0,-30.0,0.));
#318 = VERTEX_POINT('',#317);
#319 = DIRECTION('',(1.0,0.,0.));
#320 = VECTOR('',#319,116.0);
#321 = CARTESIAN_POINT('',(32.0,-30.0,0.));
#322 = LINE('',#321,#320);
#323 = EDGE_CURVE('',#316,#318,#322,.T.);
#324 = CARTESIAN_POINT('',(32.0,-30.0,3.0));
#325 = VERTEX_POINT('',#324);
#326 = CARTESIAN_POINT('',(148.0,-30.0,3.0));
#327 = VERTEX_POINT('',#326);
#328 = DIRECTION('',(1.0,0.,0.));
#329 = VECTOR('',#328,116.0);
#330 = CARTESIAN_POINT('',(32.0,-30.0,3.0));
#331 = LINE('',#330,#329);
#332 = EDGE_CURVE('',#325,#327,#331,.T.);
#333 = CARTESIAN_POINT('',(32.0,-30.0,0.));
#334 = DIRECTION('',(0.,-1.0,0.));
#335 = DIRECTION('',(1.0,0.,0.));
#336 = AXIS2_PLACEMENT_3D('',#333,#334,#335);
#337 = PLANE('',#336);
#338 = DIRECTION('',(0.,0.,1.0));
#339 = VECTOR('',#338,3.0);
#340 = CARTESIAN_POINT('',(148.0,-30.0,0.));
#341 = LINE('',#340,#339);
#342 = EDGE_CURVE('',#318,#327,#341,.T.);
#343 = DIRECTION('',(0.,0.,1.0));
#344 = VECTOR('',#343,3.0);
#345 = CARTESIAN_POINT('',(32.0,-30.0,0.));
#346 = LINE('',#345,#344);
#347 = EDGE_CURVE('',#316,#325,#346,.T.);
#348 = ORIENTED_EDGE('',*,*,#323,.T.);
#349 = ORIENTED_EDGE('',*,*,#342,.T.);
#350 = ORIENTED_EDGE('',*,*,#332,.F.);
#351 = ORIENTED_EDGE('',*,*,#347,.F.);
#352 = EDGE_LOOP('',(#348,#349,#350,#351));
#353 = FACE_OUTER_BOUND('',#352,.T.);
#354 = ADVANCED_FACE('',(#353),#337,.T.);
#355 = CARTESIAN_POINT('',(150.0,-28.0,0.));
#356 = VERTEX_POINT('',#355);
#357 = CARTESIAN_POINT('',(148.0,-28.0,0.));
#358 = DIRECTION('',(0.,0.,1.0));
#359 = DIRECTION('',(1.0,0.,0.));
#360 = AXIS2_PLACEMENT_3D('',#357,#358,#359);
#361 = CIRCLE('',#360,2.0);
#362 = EDGE_CURVE('',#318,#356,#361,.T.);
#363 = CARTESIAN_POINT('',(150.0,-28.0,3.0));
#364 = VERTEX_POINT('',#363);
#365 = CARTESIAN_POINT('',(148.0,-28.0,3.0));
#366 = DIRECTION('',(0.,0.,1.0));
#367 = DIRECTION('',(1.0,0.,0.));
#368 = AXIS2_PLACEMENT_3D('',#365,#366,#367);
#369 = CIRCLE('',#368,2.0);
#370 = EDGE_CURVE('',#327,#364,#369,.T.);
#371 = CARTESIAN_POINT('',(148.0,-28.0,0.));
#372 = DIRECTION('',(0.,0.,1.0));
#373 = DIRECTION('',(1.0,0.,0.));
#374 = AXIS2_PLACEMENT_3D('',#371,#372,#373);
#375 = CYLINDRICAL_SURFACE('',#374,2.0);
#376 = DIRECTION('',(0.,0.,1.0));
#377 = VECTOR('',#376,3.0);
#378 = CARTESIAN_POINT('',(150.0,-28.0,0.));
#379 = LINE('',#378,#377);
#380 = EDGE_CURVE('',#356,#364,#379,.T.);
#381 = ORIENTED_EDGE('',*,*,#362,.T.);
#382 = ORIENTED_EDGE('',*,*,#380,.T.);
#383 = ORIENTED_EDGE('',*,*,#370,.F.);
#384 = ORIENTED_EDGE('',*,*,#342,.F.);
#385 = EDGE_LOOP('',(#381,#382,#383,#384));
#386 = FACE_OUTER_BOUND('',#385,.T.);
#387 = ADVANCED_FACE('',(#386),#375,.T.);
#388 = CARTESIAN_POINT('',(150.0,28.0,0.));
#389 = VERTEX_POINT('',#388);
#390 = DIRECTION('',(0.,1.0,0.));
#391 = VECTOR('',#390,56.0);
#392 = CARTESIAN_POINT('',(150.0,-28.0,0.));
#393 = LINE('',#392,#391);
#394 = EDGE_CURVE('',#356,#389,#393,.T.);
#395 = CARTESIAN_POINT('',(150.0,28.0,3.0));
#396 = VERTEX_POINT('',#395);
#397 = DIRECTION('',(0.,1.0,0.));
#398 = VECTOR('',#397,56.0);
#399 = CARTESIAN_POINT('',(150.0,-28.0,3.0));
#400 = LINE('',#399,#398);
#401 = EDGE_CURVE('',#364,#396,#400,.T.);
#402 = CARTESIAN_POINT('',(150.0,-28.0,0.));
#403 = DIRECTION('',(1.0,0.,0.));
#404 = DIRECTION('',(0.,1.0,0.));
#405 = AXIS2_PLACEMENT_3D('',#402,#403,#404);
#406 = PLANE('',#405);
#407 = DIRECTION('',(0.,0.,1.0));
#408 = VECTOR('',#407,3.0);
#409 = CARTESIAN_POINT('',(150.0,28.0,0.));
#410 = LINE('',#409,#408);
#411 = EDGE_CURVE('',#389,#396,#410,.T.);
#412 = ORIENTED_EDGE('',*,*,#394,.T.);
#413 = ORIENTED_EDGE('',*,*,#411,.T.);
#414 = ORIENTED_EDGE('',*,*,#401,.F.);
#415 = ORIENTED_EDGE('',*,*,#380,.F.);
#416 = EDGE_LOOP('',(#412,#413,#414,#415));
#417 = FACE_OUTER_BOUND('',#416,.T.);
#418 = ADVANCED_FACE('',(#417),#406,.T.);
#419 = CARTESIAN_POINT('',(148.0,30.0,0.));
#420 = VERTEX_POINT('',#419);
#421 = CARTESIAN_POINT('',(148.0,28.0,0.));
#422 = DIRECTION('',(0.,0.,1.0));
#423 = DIRECTION('',(1.0,0.,0.));
#424 = AXIS2_PLACEMENT_3D('',#421,#422,#423);
#425 = CIRCLE('',#424,2.0);
#426 = EDGE_CURVE('',#389,#420,#425,.T.);
#427 = CARTESIAN_POINT('',(148.0,30.0,3.0));
#428 = VERTEX_POINT('',#427);
#429 = CARTESIAN_POINT('',(148.0,28.0,3.0));
#430 = DIRECTION('',(0.,0.,1.0));
#431 = DIRECTION('',(1.0,0.,0.));
#432 = AXIS2_PLACEMENT_3D('',#429,#430,#431);
#433 = CIRCLE('',#432,2.0);
#434 = EDGE_CURVE('',#396,#428,#433,.T.);
#435 = CARTESIAN_POINT('',(148.0,28.0,0.));
#436 = DIRECTION('',(0.,0.,1.0));
#437 = DIRECTION('',(1.0,0.,0.));
#438 = AXIS2_PLACEMENT_3D('',#435,#436,#437);
#439 = CYLINDRICAL_SURFACE('',#438,2.0);
#440 = DIRECTION('',(0.,0.,1.0));
#441 = VECTOR('',#440,3.0);
#442 = CARTESIAN_POINT('',(148.0,30.0,0.));
#443 = LINE('',#442,#441);
#444 = EDGE_CURVE('',#420,#428,#443,.T.);
#445 = ORIENTED_EDGE('',*,*,#426,.T.);
#446 = ORIENTED_EDGE('',*,*,#444,.T.);
#447 = ORIENTED_EDGE('',*,*,#434,.F.);
#448 = ORIENTED_EDGE('',*,*,#411,.F.);
#449 = EDGE_LOOP('',(#445,#446,#447,#448));
#450 = FACE_OUTER_BOUND('',#449,.T.);
#451 = ADVANCED_FACE('',(#450),#439,.T.);
#452 = CARTESIAN_POINT('',(32.0,30.0,0.));
#453 = VERTEX_POINT('',#452);
#454 = DIRECTION('',(-1.0,0.,0.));
#455 = VECTOR('',#454,116.0);
#456 = CARTESIAN_POINT('',(148.0,30.0,0.));
#457 = LINE('',#456,#455);
#458 = EDGE_CURVE('',#420,#453,#457,.T.);
#459 = CARTESIAN_POINT('',(32.0,30.0,3.0));
#460 = VERTEX_POINT('',#459);
#461 = DIRECTION('',(-1.0,0.,0.));
#462 = VECTOR('',#461,116.0);
#463 = CARTESIAN_POINT('',(148.0,30.0,3.0));
#464 = LINE('',#463,#462);
#465 = EDGE_CURVE('',#428,#460,#464,.T.);
#466 = CARTESIAN_POINT('',(148.0,30.0,0.));
#467 = DIRECTION('',(0.,1.0,0.));
#468 = DIRECTION('',(-1.0,0.,0.));
#469 = AXIS2_PLACEMENT_3D('',#466,#467,#468);
#470 = PLANE('',#469);
#471 = DIRECTION('',(0.,0.,1.0));
#472 = VECTOR('',#471,3.0);
#473 = CARTESIAN_POINT('',(32.0,30.0,0.));
#474 = LINE('',#473,#472);
#475 = EDGE_CURVE('',#453,#460,#474,.T.);
#476 = ORIENTED_EDGE('',*,*,#458,.T.);
#477 = ORIENTED_EDGE('',*,*,#475,.T.);
#478 = ORIENTED_EDGE('',*,*,#465,.F.);
#479 = ORIENTED_EDGE('',*,*,#444,.F.);
#480 = EDGE_LOOP('',(#476,#477,#478,#479));
#481 = FACE_OUTER_BOUND('',#480,.T.);
#482 = ADVANCED_FACE('',(#481),#470,.T.);
#483 = CARTESIAN_POINT('',(30.0,28.0,0.));
#484 = VERTEX_POINT('',#483);
#485 = CARTESIAN_POINT('',(32.0,28.0,0.));
#486 = DIRECTION('',(0.,0.,1.0));
#487 = DIRECTION('',(1.0,0.,0.));
#488 = AXIS2_PLACEMENT_3D('',#485,#486,#487);
#489 = CIRCLE('',#488,2.0);
#490 = EDGE_CURVE('',#453,#484,#489,.T.);
#491 = CARTESIAN_POINT('',(30.0,28.0,3.0));
#492 = VERTEX_POINT('',#491);
#493 = CARTESIAN_POINT('',(32.0,28.0,3.0));
#494 = DIRECTION('',(0.,0.,1.0));
#495 = DIRECTION('',(1.0,0.,0.));
#496 = AXIS2_PLACEMENT_3D('',#493,#494,#495);
#497 = CIRCLE('',#496,2.0);
#498 = EDGE_CURVE('',#460,#492,#497,.T.);
#499 = CARTESIAN_POINT('',(32.0,28.0,0.));
#500 = DIRECTION('',(0.,0.,1.0));
#501 = DIRECTION('',(1.0,0.,0.));
#502 = AXIS2_PLACEMENT_3D('',#499,#500,#501);
#503 = CYLINDRICAL_SURFACE('',#502,2.0);
#504 = DIRECTION('',(0.,0.,1.0));
#505 = VECTOR('',#504,3.0);
#506 = CARTESIAN_POINT('',(30.0,28.0,0.));
#507 = LINE('',#506,#505);
#508 = EDGE_CURVE('',#484,#492,#507,.T.);
#509 = ORIENTED_EDGE('',*,*,#490,.T.);
#510 = ORIENTED_EDGE('',*,*,#508,.T.);
#511 = ORIENTED_EDGE('',*,*,#498,.F.);
#512 = ORIENTED_EDGE('',*,*,#475,.F.);
#513 = EDGE_LOOP('',(#509,#510,#511,#512));
#514 = FACE_OUTER_BOUND('',#513,.T.);
#515 = ADVANCED_FACE('',(#514),#503,.T.);
#516 = CARTESIAN_POINT('',(30.0,-28.0,0.));
#517 = VERTEX_POINT('',#516);
#518 = DIRECTION('',(0.,-1.0,0.));
#519 = VECTOR('',#518,56.0);
#520 = CARTESIAN_POINT('',(30.0,28.0,0.));
#521 = LINE('',#520,#519);
#522 = EDGE_CURVE('',#484,#517,#521,.T.);
#523 = CARTESIAN_POINT('',(30.0,-28.0,3.0));
#524 = VERTEX_POINT('',#523);
#525 = DIRECTION('',(0.,-1.0,0.));
#526 = VECTOR('',#525,56.0);
#527 = CARTESIAN_POINT('',(30.0,28.0,3.0));
#528 = LINE('',#527,#526);
#529 = EDGE_CURVE('',#492,#524,#528,.T.);
#530 = CARTESIAN_POINT('',(30.0,28.0,0.));
#531 = DIRECTION('',(-1.0,0.,0.));
#532 = DIRECTION('',(0.,-1.0,0.));
#533 = AXIS2_PLACEMENT_3D('',#530,#531,#532);
#534 = PLANE('',#533);
#535 = DIRECTION('',(0.,0.,1.0));
#536 = VECTOR('',#535,3.0);
#537 = CARTESIAN_POINT('',(30.0,-28.0,0.));
#538 = LINE('',#537,#536);
#539 = EDGE_CURVE('',#517,#524,#538,.T.);
#540 = ORIENTED_EDGE('',*,*,#522,.T.);
#541 = ORIENTED_EDGE('',*,*,#539,.T.);
#542 = ORIENTED_EDGE('',*,*,#529,.F.);
#543 = ORIENTED_EDGE('',*,*,#508,.F.);
#544 = EDGE_LOOP('',(#540,#541,#542,#543));
#545 = FACE_OUTER_BOUND('',#544,.T.);
#546 = ADVANCED_FACE('',(#545),#534,.T.);
#547 = CARTESIAN_POINT('',(32.0,-28.0,0.));
#548 = DIRECTION('',(0.,0.,1.0));
#549 = DIRECTION('',(1.0,0.,0.));
#550 = AXIS2_PLACEMENT_3D('',#547,#548,#549);
#551 = CIRCLE('',#550,2.0);
#552 = EDGE_CURVE('',#517,#316,#551,.T.);
#553 = CARTESIAN_POINT('',(32.0,-28.0,3.0));
#554 = DIRECTION('',(0.,0.,1.0));
#555 = DIRECTION('',(1.0,0.,0.));
#556 = AXIS2_PLACEMENT_3D('',#553,#554,#555);
#557 = CIRCLE('',#556,2.0);
#558 = EDGE_CURVE('',#524,#325,#557,.T.);
#559 = CARTESIAN_POINT('',(32.0,-28.0,0.));
#560 = DIRECTION('',(0.,0.,1.0));
#561 = DIRECTION('',(1.0,0.,0.));
#562 = AXIS2_PLACEMENT_3D('',#559,#560,#561);
#563 = CYLINDRICAL_SURFACE('',#562,2.0);
#564 = ORIENTED_EDGE('',*,*,#552,.T.);
#565 = ORIENTED_EDGE('',*,*,#347,.T.);
#566 = ORIENTED_EDGE('',*,*,#558,.F.);
#567 = ORIENTED_EDGE('',*,*,#539,.F.);
#568 = EDGE_LOOP('',(#564,#565,#566,#567));
#569 = FACE_OUTER_BOUND('',#568,.T.);
#570 = ADVANCED_FACE('',(#569),#563,.T.);
#571 = CARTESIAN_POINT('',(0.,0.,3.0));
#572 = DIRECTION('',(0.,0.,1.0));
#573 = DIRECTION('',(1.0,0.,0.));
#574 = AXIS2_PLACEMENT_3D('',#571,#572,#573);
#575 = PLANE('',#574);
#576 = ORIENTED_EDGE('',*,*,#332,.T.);
#577 = ORIENTED_EDGE('',*,*,#370,.T.);
#578 = ORIENTED_EDGE('',*,*,#401,.T.);
#579 = ORIENTED_EDGE('',*,*,#434,.T.);
#580 = ORIENTED_EDGE('',*,*,#465,.T.);
#581 = ORIENTED_EDGE('',*,*,#498,.T.);
#582 = ORIENTED_EDGE('',*,*,#529,.T.);
#583 = ORIENTED_EDGE('',*,*,#558,.T.);
#584 = EDGE_LOOP('',(#576,#577,#578,#579,#580,#581,#582,#583));
#585 = FACE_OUTER_BOUND('',#584,.T.);
#586 = ADVANCED_FACE('',(#585),#575,.T.);
#587 = CARTESIAN_POINT('',(0.,0.,0.));
#588 = DIRECTION('',(0.,0.,-1.0));
#589 = DIRECTION('',(1.0,0.,0.));
#590 = AXIS2_PLACEMENT_3D('',#587,#588,#589);
#591 = PLANE('',#590);
#592 = ORIENTED_EDGE('',*,*,#552,.F.);
#593 = ORIENTED_EDGE('',*,*,#522,.F.);
#594 = ORIENTED_EDGE('',*,*,#490,.F.);
#595 = ORIENTED_EDGE('',*,*,#458,.F.);
#596 = ORIENTED_EDGE('',*,*,#426,.F.);
#597 = ORIENTED_EDGE('',*,*,#394,.F.);
#598 = ORIENTED_EDGE('',*,*,#362,.F.);
#599 = ORIENTED_EDGE('',*,*,#323,.F.);
#600 = EDGE_LOOP('',(#592,#593,#594,#595,#596,#597,#598,#599));
#601 = FACE_OUTER_BOUND('',#600,.T.);
#602 = ADVANCED_FACE('',(#601),#591,.T.);
#603 = CLOSED_SHELL('',(#354,#387,#418,#451,#482,#515,#546,#570,#586,#602));
#604 = CARTESIAN_POINT('',(32.0,-30.0,0.));
#605 = VERTEX_POINT('',#604);
#606 = CARTESIAN_POINT('',(148.0,-30.0,0.));
#607 = VERTEX_POINT('',#606);
#608 = DIRECTION('',(1.0,0.,0.));
#609 = VECTOR('',#608,116.0);
#610 = CARTESIAN_POINT('',(32.0,-30.0,0.));
#611 = LINE('',#610,#609);
#612 = EDGE_CURVE('',#605,#607,#611,.T.);
#613 = CARTESIAN_POINT('',(32.0,-30.0,3.0));
#614 = VERTEX_POINT('',#613);
#615 = CARTESIAN_POINT('',(148.0,-30.0,3.0));
#616 = VERTEX_POINT('',#615);
#617 = DIRECTION('',(1.0,0.,0.));
#618 = VECTOR('',#617,116.0);
#619 = CARTESIAN_POINT('',(32.0,-30.0,3.0));
#620 = LINE('',#619,#618);
#621 = EDGE_CURVE('',#614,#616,#620,.T.);
#622 = CARTESIAN_POINT('',(32.0,-30.0,0.));
#623 = DIRECTION('',(0.,-1.0,0.));
#624 = DIRECTION('',(1.0,0.,0.));
#625 = AXIS2_PLACEMENT_3D('',#622,#623,#624);
#626 = PLANE('',#625);
#627 = DIRECTION('',(0.,0.,1.0));
#628 = VECTOR('',#627,3.0);
#629 = CARTESIAN_POINT('',(148.0,-30.0,0.));
#630 = LINE('',#629,#628);
#631 = EDGE_CURVE('',#607,#616,#630,.T.);
#632 = DIRECTION('',(0.,0.,1.0));
#633 = VECTOR('',#632,3.0);
#634 = CARTESIAN_POINT('',(32.0,-30.0,0.));
#635 = LINE('',#634,#633);
#636 = EDGE_CURVE('',#605,#614,#635,.T.);
#637 = ORIENTED_EDGE('',*,*,#612,.T.);
#638 = ORIENTED_EDGE('',*,*,#631,.T.);
#639 = ORIENTED_EDGE('',*,*,#621,.F.);
#640 = ORIENTED_EDGE('',*,*,#636,.F.);
#641 = EDGE_LOOP('',(#637,#638,#639,#640));
#642 = FACE_OUTER_BOUND('',#641,.T.);
#643 = ADVANCED_FACE('',(#642),#626,.T.);
#644 = CARTESIAN_POINT('',(150.0,-28.0,0.));
#645 = VERTEX_POINT('',#644);
#646 = CARTESIAN_POINT('',(148.0,-28.0,0.));
#647 = DIRECTION('',(0.,0.,1.0));
#648 = DIRECTION('',(1.0,0.,0.));
#649 = AXIS2_PLACEMENT_3D('',#646,#647,#648);
#650 = CIRCLE('',#649,2.0);
#651 = EDGE_CURVE('',#607,#645,#650,.T.);
#652 = CARTESIAN_POINT('',(150.0,-28.0,3.0));
#653 = VERTEX_POINT('',#652);
#654 = CARTESIAN_POINT('',(148.0,-28.0,3.0));
#655 = DIRECTION('',(0.,0.,1.0));
#656 = DIRECTION('',(1.0,0.,0.));
#657 = AXIS2_PLACEMENT_3D('',#654,#655,#656);
#658 = CIRCLE('',#657,2.0);
#659 = EDGE_CURVE('',#616,#653,#658,.T.);
#660 = CARTESIAN_POINT('',(148.0,-28.0,0.));
#661 = DIRECTION('',(0.,0.,1.0));
#662 = DIRECTION('',(1.0,0.,0.));
#663 = AXIS2_PLACEMENT_3D('',#660,#661,#662);
#664 = CYLINDRICAL_SURFACE('',#663,2.0);
#665 = DIRECTION('',(0.,0.,1.0));
#666 = VECTOR('',#665,3.0);
#667 = CARTESIAN_POINT('',(150.0,-28.0,0.));
#668 = LINE('',#667,#666);
#669 = EDGE_CURVE('',#645,#653,#668,.T.);
#670 = ORIENTED_EDGE('',*,*,#651,.T.);
#671 = ORIENTED_EDGE('',*,*,#669,.T.);
#672 = ORIENTED_EDGE('',*,*,#659,.F.);
#673 = ORIENTED_EDGE('',*,*,#631,.F.);
#674 = EDGE_LOOP('',(#670,#671,#672,#673));
#675 = FACE_OUTER_BOUND('',#674,.T.);
#676 = ADVANCED_FACE('',(#675),#664,.T.);
#677 = CARTESIAN_POINT('',(150.0,28.0,0.));
#678 = VERTEX_POINT('',#677);
#679 = DIRECTION('',(0.,1.0,0.));
#680 = VECTOR('',#679,56.0);
#681 = CARTESIAN_POINT('',(150.0,-28.0,0.));
#682 = LINE('',#681,#680);
#683 = EDGE_CURVE('',#645,#678,#682,.T.);
#684 = CARTESIAN_POINT('',(150.0,28.0,3.0));
#685 = VERTEX_POINT('',#684);
#686 = DIRECTION('',(0.,1.0,0.));
#687 = VECTOR('',#686,56.0);
#688 = CARTESIAN_POINT('',(150.0,-28.0,3.0));
#689 = LINE('',#688,#687);
#690 = EDGE_CURVE('',#653,#685,#689,.T.);
#691 = CARTESIAN_POINT('',(150.0,-28.0,0.));
#692 = DIRECTION('',(1.0,0.,0.));
#693 = DIRECTION('',(0.,1.0,0.));
#694 = AXIS2_PLACEMENT_3D('',#691,#692,#693);
#695 = PLANE('',#694);
#696 = DIRECTION('',(0.,0.,1.0));
#697 = VECTOR('',#696,3.0);
#698 = CARTESIAN_POINT('',(150.0,28.0,0.));
#699 = LINE('',#698,#697);
#700 = EDGE_CURVE('',#678,#685,#699,.T.);
#701 = ORIENTED_EDGE('',*,*,#683,.T.);
#702 = ORIENTED_EDGE('',*,*,#700,.T.);
#703 = ORIENTED_EDGE('',*,*,#690,.F.);
#704 = ORIENTED_EDGE('',*,*,#669,.F.);
#705 = EDGE_LOOP('',(#701,#702,#703,#704));
#706 = FACE_OUTER_BOUND('',#705,.T.);
#707 = ADVANCED_FACE('',(#706),#695,.T.);
#708 = CARTESIAN_POINT('',(148.0,30.0,0.));
#709 = VERTEX_POINT('',#708);
#710 = CARTESIAN_POINT('',(148.0,28.0,0.));
#711 = DIRECTION('',(0.,0.,1.0));
#712 = DIRECTION('',(1.0,0.,0.));
#713 = AXIS2_PLACEMENT_3D('',#710,#711,#712);
#714 = CIRCLE('',#713,2.0);
#715 = EDGE_CURVE('',#678,#709,#714,.T.);
#716 = CARTESIAN_POINT('',(148.0,30.0,3.0));
#717 = VERTEX_POINT('',#716);
#718 = CARTESIAN_POINT('',(148.0,28.0,3.0));
#719 = DIRECTION('',(0.,0.,1.0));
#720 = DIRECTION('',(1.0,0.,0.));
#721 = AXIS2_PLACEMENT_3D('',#718,#719,#720);
#722 = CIRCLE('',#721,2.0);
#723 = EDGE_CURVE('',#685,#717,#722,.T.);
#724 = CARTESIAN_POINT('',(148.0,28.0,0.));
#725 = DIRECTION('',(0.,0.,1.0));
#726 = DIRECTION('',(1.0,0.,0.));
#727 = AXIS2_PLACEMENT_3D('',#724,#725,#726);
#728 = CYLINDRICAL_SURFACE('',#727,2.0);
#729 = DIRECTION('',(0.,0.,1.0));
#730 = VECTOR('',#729,3.0);
#731 = CARTESIAN_POINT('',(148.0,30.0,0.));
#732 = LINE('',#731,#730);
#733 = EDGE_CURVE('',#709,#717,#732,.T.);
#734 = ORIENTED_EDGE('',*,*,#715,.T.);
#735 = ORIENTED_EDGE('',*,*,#733,.T.);
#736 = ORIENTED_EDGE('',*,*,#723,.F.);
#737 = ORIENTED_EDGE('',*,*,#700,.F.);
#738 = EDGE_LOOP('',(#734,#735,#736,#737));
#739 = FACE_OUTER_BOUND('',#738,.T.);
#740 = ADVANCED_FACE('',(#739),#728,.T.);
#741 = CARTESIAN_POINT('',(32.0,30.0,0.));
#742 = VERTEX_POINT('',#741);
#743 = DIRECTION('',(-1.0,0.,0.));
#744 = VECTOR('',#743,116.0);
#745 = CARTESIAN_POINT('',(148.0,30.0,0.));
#746 = LINE('',#745,#744);
#747 = EDGE_CURVE('',#709,#742,#746,.T.);
#748 = CARTESIAN_POINT('',(32.0,30.0,3.0));
#749 = VERTEX_POINT('',#748);
#750 = DIRECTION('',(-1.0,0.,0.));
#751 = VECTOR('',#750,116.0);
#752 = CARTESIAN_POINT('',(148.0,30.0,3.0));
#753 = LINE('',#752,#751);
#754 = EDGE_CURVE('',#717,#749,#753,.T.);
#755 = CARTESIAN_POINT('',(148.0,30.0,0.));
#756 = DIRECTION('',(0.,1.0,0.));
#757 = DIRECTION('',(-1.0,0.,0.));
#758 = AXIS2_PLACEMENT_3D('',#755,#756,#757);
#759 = PLANE('',#758);
#760 = DIRECTION('',(0.,0.,1.0));
#761 = VECTOR('',#760,3.0);
#762 = CARTESIAN_POINT('',(32.0,30.0,0.));
#763 = LINE('',#762,#761);
#764 = EDGE_CURVE('',#742,#749,#763,.T.);
#765 = ORIENTED_EDGE('',*,*,#747,.T.);
#766 = ORIENTED_EDGE('',*,*,#764,.T.);
#767 = ORIENTED_EDGE('',*,*,#754,.F.);
#768 = ORIENTED_EDGE('',*,*,#733,.F.);
#769 = EDGE_LOOP('',(#765,#766,#767,#768));
#770 = FACE_OUTER_BOUND('',#769,.T.);
#771 = ADVANCED_FACE('',(#770),#759,.T.);
#772 = CARTESIAN_POINT('',(30.0,28.0,0.));
#773 = VERTEX_POINT('',#772);
#774 = CARTESIAN_POINT('',(32.0,28.0,0.));
#775 = DIRECTION('',(0.,0.,1.0));
#776 = DIRECTION('',(1.0,0.,0.));
#777 = AXIS2_PLACEMENT_3D('',#774,#775,#776);
#778 = CIRCLE('',#777,2.0);
#779 = EDGE_CURVE('',#742,#773,#778,.T.);
#780 = CARTESIAN_POINT('',(30.0,28.0,3.0));
#781 = VERTEX_POINT('',#780);
#782 = CARTESIAN_POINT('',(32.0,28.0,3.0));
#783 = DIRECTION('',(0.,0.,1.0));
#784 = DIRECTION('',(1.0,0.,0.));
#785 = AXIS2_PLACEMENT_3D('',#782,#783,#784);
#786 = CIRCLE('',#785,2.0);
#787 = EDGE_CURVE('',#749,#781,#786,.T.);
#788 = CARTESIAN_POINT('',(32.0,28.0,0.));
#789 = DIRECTION('',(0.,0.,1.0));
#790 = DIRECTION('',(1.0,0.,0.));
#791 = AXIS2_PLACEMENT_3D('',#788,#789,#790);
#792 = CYLINDRICAL_SURFACE('',#791,2.0);
#793 = DIRECTION('',(0.,0.,1.0));
#794 = VECTOR('',#793,3.0);
#795 = CARTESIAN_POINT('',(30.0,28.0,0.));
#796 = LINE('',#795,#794);
#797 = EDGE_CURVE('',#773,#781,#796,.T.);
#798 = ORIENTED_EDGE('',*,*,#779,.T.);
#799 = ORIENTED_EDGE('',*,*,#797,.T.);
#800 = ORIENTED_EDGE('',*,*,#787,.F.);
#801 = ORIENTED_EDGE('',*,*,#764,.F.);
#802 = EDGE_LOOP('',(#798,#799,#800,#801));
#803 = FACE_OUTER_BOUND('',#802,.T.);
#804 = ADVANCED_FACE('',(#803),#792,.T.);
#805 = CARTESIAN_POINT('',(30.0,-28.0,0.));
#806 = VERTEX_POINT('',#805);
#807 = DIRECTION('',(0.,-1.0,0.));
#808 = VECTOR('',#807,56.0);
#809 = CARTESIAN_POINT('',(30.0,28.0,0.));
#810 = LINE('',#809,#808);
#811 = EDGE_CURVE('',#773,#806,#810,.T.);
#812 = CARTESIAN_POINT('',(30.0,-28.0,3.0));
#813 = VERTEX_POINT('',#812);
#814 = DIRECTION('',(0.,-1.0,0.));
#815 = VECTOR('',#814,56.0);
#816 = CARTESIAN_POINT('',(30.0,28.0,3.0));
#817 = LINE('',#816,#815);
#818 = EDGE_CURVE('',#781,#813,#817,.T.);
#819 = CARTESIAN_POINT('',(30.0,28.0,0.));
#820 = DIRECTION('',(-1.0,0.,0.));
#821 = DIRECTION('',(0.,-1.0,0.));
#822 = AXIS2_PLACEMENT_3D('',#819,#820,#821);
#823 = PLANE('',#822);
#824 = DIRECTION('',(0.,0.,1.0));
#825 = VECTOR('',#824,3.0);
#826 = CARTESIAN_POINT('',(30.0,-28.0,0.));
#827 = LINE('',#826,#825);
#828 = EDGE_CURVE('',#806,#813,#827,.T.);
#829 = ORIENTED_EDGE('',*,*,#811,.T.);
#830 = ORIENTED_EDGE('',*,*,#828,.T.);
#831 = ORIENTED_EDGE('',*,*,#818,.F.);
#832 = ORIENTED_EDGE('',*,*,#797,.F.);
#833 = EDGE_LOOP('',(#829,#830,#831,#832));
#834 = FACE_OUTER_BOUND('',#833,.T.);
#835 = ADVANCED_FACE('',(#834),#823,.T.);
#836 = CARTESIAN_POINT('',(32.0,-28.0,0.));
#837 = DIRECTION('',(0.,0.,1.0));
#838 = DIRECTION('',(1.0,0.,0.));
#839 = AXIS2_PLACEMENT_3D('',#836,#837,#838);
#840 = CIRCLE('',#839,2.0);
#841 = EDGE_CURVE('',#806,#605,#840,.T.);
#842 = CARTESIAN_POINT('',(32.0,-28.0,3.0));
#843 = DIRECTION('',(0.,0.,1.0));
#844 = DIRECTION('',(1.0,0.,0.));
#845 = AXIS2_PLACEMENT_3D('',#842,#843,#844);
#846 = CIRCLE('',#845,2.0);
#847 = EDGE_CURVE('',#813,#614,#846,.T.);
#848 = CARTESIAN_POINT('',(32.0,-28.0,0.));
#849 = DIRECTION('',(0.,0.,1.0));
#850 = DIRECTION('',(1.0,0.,0.));
#851 = AXIS2_PLACEMENT_3D('',#848,#849,#850);
#852 = CYLINDRICAL_SURFACE('',#851,2.0);
#853 = ORIENTED_EDGE('',*,*,#841,.T.);
#854 = ORIENTED_EDGE('',*,*,#636,.T.);
#855 = ORIENTED_EDGE('',*,*,#847,.F.);
#856 = ORIENTED_EDGE('',*,*,#828,.F.);
#857 = EDGE_LOOP('',(#853,#854,#855,#856));
#858 = FACE_OUTER_BOUND('',#857,.T.);
#859 = ADVANCED_FACE('',(#858),#852,.T.);
#860 = CARTESIAN_POINT('',(0.,0.,3.0));
#861 = DIRECTION('',(0.,0.,1.0));
#862 = DIRECTION('',(1.0,0.,0.));
#863 = AXIS2_PLACEMENT_3D('',#860,#861,#862);
#864 = PLANE('',#863);
#865 = ORIENTED_EDGE('',*,*,#621,.T.);
#866 = ORIENTED_EDGE('',*,*,#659,.T.);
#867 = ORIENTED_EDGE('',*,*,#690,.T.);
#868 = ORIENTED_EDGE('',*,*,#723,.T.);
#869 = ORIENTED_EDGE('',*,*,#754,.T.);
#870 = ORIENTED_EDGE('',*,*,#787,.T.);
#871 = ORIENTED_EDGE('',*,*,#818,.T.);
#872 = ORIENTED_EDGE('',*,*,#847,.T.);
#873 = EDGE_LOOP('',(#865,#866,#867,#868,#869,#870,#871,#872));
#874 = FACE_OUTER_BOUND('',#873,.T.);
#875 = ADVANCED_FACE('',(#874),#864,.T.);
#876 = CARTESIAN_POINT('',(0.,0.,0.));
#877 = DIRECTION('',(0.,0.,-1.0));
#878 = DIRECTION('',(1.0,0.,0.));
#879 = AXIS2_PLACEMENT_3D('',#876,#877,#878);
#880 = PLANE('',#879);
#881 = ORIENTED_EDGE('',*,*,#841,.F.);
#882 = ORIENTED_EDGE('',*,*,#811,.F.);
#883 = ORIENTED_EDGE('',*,*,#779,.F.);
#884 = ORIENTED_EDGE('',*,*,#747,.F.);
#885 = ORIENTED_EDGE('',*,*,#715,.F.);
#886 = ORIENTED_EDGE('',*,*,#683,.F.);
#887 = ORIENTED_EDGE('',*,*,#651,.F.);
#888 = ORIENTED_EDGE('',*,*,#612,.F.);
#889 = EDGE_LOOP('',(#881,#882,#883,#884,#885,#886,#887,#888));
#890 = FACE_OUTER_BOUND('',#889,.T.);
#891 = ADVANCED_FACE('',(#890),#880,.T.);
#892 = CLOSED_SHELL('',(#643,#676,#707,#740,#771,#804,#835,#859,#875,#891));
#893 = CARTESIAN_POINT('',(32.0,-30.0,0.));
#894 = VERTEX_POINT('',#893);
#895 = CARTESIAN_POINT('',(148.0,-30.0,0.));
#896 = VERTEX_POINT('',#895);
#897 = DIRECTION('',(1.0,0.,0.));
#898 = VECTOR('',#897,116.0);
#899 = CARTESIAN_POINT('',(32.0,-30.0,0.));
#900 = LINE('',#899,#898);
#901 = EDGE_CURVE('',#894,#896,#900,.T.);
#902 = CARTESIAN_POINT('',(32.0,-30.0,3.0));
#903 = VERTEX_POINT('',#902);
#904 = CARTESIAN_POINT('',(148.0,-30.0,3.0));
#905 = VERTEX_POINT('',#904);
#906 = DIRECTION('',(1.0,0.,0.));
#907 = VECTOR('',#906,116.0);
#908 = CARTESIAN_POINT('',(32.0,-30.0,3.0));
#909 = LINE('',#908,#907);
#910 = EDGE_CURVE('',#903,#905,#909,.T.);
#911 = CARTESIAN_POINT('',(32.0,-30.0,0.));
#912 = DIRECTION('',(0.,-1.0,0.));
#913 = DIRECTION('',(1.0,0.,0.));
#914 = AXIS2_PLACEMENT_3D('',#911,#912,#913);
#915 = PLANE('',#914);
#916 = DIRECTION('',(0.,0.,1.0));
#917 = VECTOR('',#916,3.0);
#918 = CARTESIAN_POINT('',(148.0,-30.0,0.));
#919 = LINE('',#918,#917);
#920 = EDGE_CURVE('',#896,#905,#919,.T.);
#921 = DIRECTION('',(0.,0.,1.0));
#922 = VECTOR('',#921,3.0);
#923 = CARTESIAN_POINT('',(32.0,-30.0,0.));
#924 = LINE('',#923,#922);
#925 = EDGE_CURVE('',#894,#903,#924,.T.);
#926 = ORIENTED_EDGE('',*,*,#901,.T.);
#927 = ORIENTED_EDGE('',*,*,#920,.T.);
#928 = ORIENTED_EDGE('',*,*,#910,.F.);
#929 = ORIENTED_EDGE('',*,*,#925,.F.);
#930 = EDGE_LOOP('',(#926,#927,#928,#929));
#931 = FACE_OUTER_BOUND('',#930,.T.);
#932 = ADVANCED_FACE('',(#931),#915,.T.);
#933 = CARTESIAN_POINT('',(150.0,-28.0,0.));
#934 = VERTEX_POINT('',#933);
#935 = CARTESIAN_POINT('',(148.0,-28.0,0.));
#936 = DIRECTION('',(0.,0.,1.0));
#937 = DIRECTION('',(1.0,0.,0.));
#938 = AXIS2_PLACEMENT_3D('',#935,#936,#937);
#939 = CIRCLE('',#938,2.0);
#940 = EDGE_CURVE('',#896,#934,#939,.T.);
#941 = CARTESIAN_POINT('',(150.0,-28.0,3.0));
#942 = VERTEX_POINT('',#941);
#943 = CARTESIAN_POINT('',(148.0,-28.0,3.0));
#944 = DIRECTION('',(0.,0.,1.0));
#945 = DIRECTION('',(1.0,0.,0.));
#946 = AXIS2_PLACEMENT_3D('',#943,#944,#945);
#947 = CIRCLE('',#946,2.0);
#948 = EDGE_CURVE('',#905,#942,#947,.T.);
#949 = CARTESIAN_POINT('',(148.0,-28.0,0.));
#950 = DIRECTION('',(0.,0.,1.0));
#951 = DIRECTION('',(1.0,0.,0.));
#952 = AXIS2_PLACEMENT_3D('',#949,#950,#951);
#953 = CYLINDRICAL_SURFACE('',#952,2.0);
#954 = DIRECTION('',(0.,0.,1.0));
#955 = VECTOR('',#954,3.0);
#956 = CARTESIAN_POINT('',(150.0,-28.0,0.));
#957 = LINE('',#956,#955);
#958 = EDGE_CURVE('',#934,#942,#957,.T.);
#959 = ORIENTED_EDGE('',*,*,#940,.T.);
#960 = ORIENTED_EDGE('',*,*,#958,.T.);
#961 = ORIENTED_EDGE('',*,*,#948,.F.);
#962 = ORIENTED_EDGE('',*,*,#920,.F.);
#963 = EDGE_LOOP('',(#959,#960,#961,#962));
#964 = FACE_OUTER_BOUND('',#963,.T.);
#965 = ADVANCED_FACE('',(#964),#953,.T.);
#966 = CARTESIAN_POINT('',(150.0,28.0,0.));
#967 = VERTEX_POINT('',#966);
#968 = DIRECTION('',(0.,1.0,0.));
#969 = VECTOR('',#968,56.0);
#970 = CARTESIAN_POINT('',(150.0,-28.0,0.));
#971 = LINE('',#970,#969);
#972 = EDGE_CURVE('',#934,#967,#971,.T.);
#973 = CARTESIAN_POINT('',(150.0,28.0,3.0));
#974 = VERTEX_POINT('',#973);
#975 = DIRECTION('',(0.,1.0,0.));
#976 = VECTOR('',#975,56.0);
#977 = CARTESIAN_POINT('',(150.0,-28.0,3.0));
#978 = LINE('',#977,#976);
#979 = EDGE_CURVE('',#942,#974,#978,.T.);
#980 = CARTESIAN_POINT('',(150.0,-28.0,0.));
#981 = DIRECTION('',(1.0,0.,0.));
#982 = DIRECTION('',(0.,1.0,0.));
#983 = AXIS2_PLACEMENT_3D('',#980,#981,#982);
#984 = PLANE('',#983);
#985 = DIRECTION('',(0.,0.,1.0));
#986 = VECTOR('',#985,3.0);
#987 = CARTESIAN_POINT('',(150.0,28.0,0.));
#988 = LINE('',#987,#986);
#989 = EDGE_CURVE('',#967,#974,#988,.T.);
#990 = ORIENTED_EDGE('',*,*,#972,.T.);
#991 = ORIENTED_EDGE('',*,*,#989,.T.);
#992 = ORIENTED_EDGE('',*,*,#979,.F.);
#993 = ORIENTED_EDGE('',*,*,#958,.F.);
#994 = EDGE_LOOP('',(#990,#991,#992,#993));
#995 = FACE_OUTER_BOUND('',#994,.T.);
#996 = ADVANCED_FACE('',(#995),#984,.T.);
#997 = CARTESIAN_POINT('',(148.0,30.0,0.));
#998 = VERTEX_POINT('',#997);
#999 = CARTESIAN_POINT('',(148.0,28.0,0.));
#1000 = DIRECTION('',(0.,0.,1.0));
#1001 = DIRECTION('',(1.0,0.,0.));
#1002 = AXIS2_PLACEMENT_3D('',#999,#1000,#1001);
#1003 = CIRCLE('',#1002,2.0);
#1004 = EDGE_CURVE('',#967,#998,#1003,.T.);
#1005 = CARTESIAN_POINT('',(148.0,30.0,3.0));
#1006 = VERTEX_POINT('',#1005);
#1007 = CARTESIAN_POINT('',(148.0,28.0,3.0));
#1008 = DIRECTION('',(0.,0.,1.0));
#1009 = DIRECTION('',(1.0,0.,0.));
#1010 = AXIS2_PLACEMENT_3D('',#1007,#1008,#1009);
#1011 = CIRCLE('',#1010,2.0);
#1012 = EDGE_CURVE('',#974,#1006,#1011,.T.);
#1013 = CARTESIAN_POINT('',(148.0,28.0,0.));
#1014 = DIRECTION('',(0.,0.,1.0));
#1015 = DIRECTION('',(1.0,0.,0.));
#1016 = AXIS2_PLACEMENT_3D('',#1013,#1014,#1015);
#1017 = CYLINDRICAL_SURFACE('',#1016,2.0);
#1018 = DIRECTION('',(0.,0.,1.0));
#1019 = VECTOR('',#1018,3.0);
#1020 = CARTESIAN_POINT('',(148.0,30.0,0.));
#1021 = LINE('',#1020,#1019);
#1022 = EDGE_CURVE('',#998,#1006,#1021,.T.);
#1023 = ORIENTED_EDGE('',*,*,#1004,.T.);
#1024 = ORIENTED_EDGE('',*,*,#1022,.T.);
#1025 = ORIENTED_EDGE('',*,*,#1012,.F.);
#1026 = ORIENTED_EDGE('',*,*,#989,.F.);
#1027 = EDGE_LOOP('',(#1023,#1024,#1025,#1026));
#1028 = FACE_OUTER_BOUND('',#1027,.T.);
#1029 = ADVANCED_FACE('',(#1028),#1017,.T.);
#1030 = CARTESIAN_POINT('',(32.0,30.0,0.));
#1031 = VERTEX_POINT('',#1030);
#1032 = DIRECTION('',(-1.0,0.,0.));
#1033 = VECTOR('',#1032,116.0);
#1034 = CARTESIAN_POINT('',(148.0,30.0,0.));
#1035 = LINE('',#1034,#1033);
#1036 = EDGE_CURVE('',#998,#1031,#1035,.T.);
#1037 = CARTESIAN_POINT('',(32.0,30.0,3.0));
#1038 = VERTEX_POINT('',#1037);
#1039 = DIRECTION('',(-1.0,0.,0.));
#1040 = VECTOR('',#1039,116.0);
#1041 = CARTESIAN_POINT('',(148.0,30.0,3.0));
#1042 = LINE('',#1041,#1040);
#1043 = EDGE_CURVE('',#1006,#1038,#1042,.T.);
#1044 = CARTESIAN_POINT('',(148.0,30.0,0.));
#1045 = DIRECTION('',(0.,1.0,0.));
#1046 = DIRECTION('',(-1.0,0.,0.));
#1047 = AXIS2_PLACEMENT_3D('',#1044,#1045,#1046);
#1048 = PLANE('',#1047);
#1049 = DIRECTION('',(0.,0.,1.0));
#1050 = VECTOR('',#1049,3.0);
#1051 = CARTESIAN_POINT('',(32.0,30.0,0.));
#1052 = LINE('',#1051,#1050);
#1053 = EDGE_CURVE('',#1031,#1038,#1052,.T.);
#1054 = ORIENTED_EDGE('',*,*,#1036,.T.);
#1055 = ORIENTED_EDGE('',*,*,#1053,.T.);
#1056 = ORIENTED_EDGE('',*,*,#1043,.F.);
#1057 = ORIENTED_EDGE('',*,*,#1022,.F.);
#1058 = EDGE_LOOP('',(#1054,#1055,#1056,#1057));
#1059 = FACE_OUTER_BOUND('',#1058,.T.);
#1060 = ADVANCED_FACE('',(#1059),#1048,.T.);
#1061 = CARTESIAN_POINT('',(30.0,28.0,0.));
#1062 = VERTEX_POINT('',#1061);
#1063 = CARTESIAN_POINT('',(32.0,28.0,0.));
#1064 = DIRECTION('',(0.,0.,1.0));
#1065 = DIRECTION('',(1.0,0.,0.));
#1066 = AXIS2_PLACEMENT_3D('',#1063,#1064,#1065);
#1067 = CIRCLE('',#1066,2.0);
#1068 = EDGE_CURVE('',#1031,#1062,#1067,.T.);
#1069 = CARTESIAN_POINT('',(30.0,28.0,3.0));
#1070 = VERTEX_POINT('',#1069);
#1071 = CARTESIAN_POINT('',(32.0,28.0,3.0));
#1072 = DIRECTION('',(0.,0.,1.0));
#1073 = DIRECTION('',(1.0,0.,0.));
#1074 = AXIS2_PLACEMENT_3D('',#1071,#1072,#1073);
#1075 = CIRCLE('',#1074,2.0);
#1076 = EDGE_CURVE('',#1038,#1070,#1075,.T.);
#1077 = CARTESIAN_POINT('',(32.0,28.0,0.));
#1078 = DIRECTION('',(0.,0.,1.0));
#1079 = DIRECTION('',(1.0,0.,0.));
#1080 = AXIS2_PLACEMENT_3D('',#1077,#1078,#1079);
#1081 = CYLINDRICAL_SURFACE('',#1080,2.0);
#1082 = DIRECTION('',(0.,0.,1.0));
#1083 = VECTOR('',#1082,3.0);
#1084 = CARTESIAN_POINT('',(30.0,28.0,0.));
#1085 = LINE('',#1084,#1083);
#1086 = EDGE_CURVE('',#1062,#1070,#1085,.T.);
#1087 = ORIENTED_EDGE('',*,*,#1068,.T.);
#1088 = ORIENTED_EDGE('',*,*,#1086,.T.);
#1089 = ORIENTED_EDGE('',*,*,#1076,.F.);
#1090 = ORIENTED_EDGE('',*,*,#1053,.F.);
#1091 = EDGE_LOOP('',(#1087,#1088,#1089,#1090));
#1092 = FACE_OUTER_BOUND('',#1091,.T.);
#1093 = ADVANCED_FACE('',(#1092),#1081,.T.);
#1094 = CARTESIAN_POINT('',(30.0,-28.0,0.));
#1095 = VERTEX_POINT('',#1094);
#1096 = DIRECTION('',(0.,-1.0,0.));
#1097 = VECTOR('',#1096,56.0);
#1098 = CARTESIAN_POINT('',(30.0,28.0,0.));
#1099 = LINE('',#1098,#1097);
#1100 = EDGE_CURVE('',#1062,#1095,#1099,.T.);
#1101 = CARTESIAN_POINT('',(30.0,-28.0,3.0));
#1102 = VERTEX_POINT('',#1101);
#1103 = DIRECTION('',(0.,-1.0,0.));
#1104 = VECTOR('',#1103,56.0);
#1105 = CARTESIAN_POINT('',(30.0,28.0,3.0));
#1106 = LINE('',#1105,#1104);
#1107 = EDGE_CURVE('',#1070,#1102,#1106,.T.);
#1108 = CARTESIAN_POINT('',(30.0,28.0,0.));
#1109 = DIRECTION('',(-1.0,0.,0.));
#1110 = DIRECTION('',(0.,-1.0,0.));
#1111 = AXIS2_PLACEMENT_3D('',#1108,#1109,#1110);
#1112 = PLANE('',#1111);
#1113 = DIRECTION('',(0.,0.,1.0));
#1114 = VECTOR('',#1113,3.0);
#1115 = CARTESIAN_POINT('',(30.0,-28.0,0.));
#1116 = LINE('',#1115,#1114);
#1117 = EDGE_CURVE('',#1095,#1102,#1116,.T.);
#1118 = ORIENTED_EDGE('',*,*,#1100,.T.);
#1119 = ORIENTED_EDGE('',*,*,#1117,.T.);
#1120 = ORIENTED_EDGE('',*,*,#1107,.F.);
#1121 = ORIENTED_EDGE('',*,*,#1086,.F.);
#1122 = EDGE_LOOP('',(#1118,#1119,#1120,#1121));
#1123 = FACE_OUTER_BOUND('',#1122,.T.);
#1124 = ADVANCED_FACE('',(#1123),#1112,.T.);
#1125 = CARTESIAN_POINT('',(32.0,-28.0,0.));
#1126 = DIRECTION('',(0.,0.,1.0));
#1127 = DIRECTION('',(1.0,0.,0.));
#1128 = AXIS2_PLACEMENT_3D('',#1125,#1126,#1127);
#1129 = CIRCLE('',#1128,2.0);
#1130 = EDGE_CURVE('',#1095,#894,#1129,.T.);
#1131 = CARTESIAN_POINT('',(32.0,-28.0,3.0));
#1132 = DIRECTION('',(0.,0.,1.0));
#1133 = DIRECTION('',(1.0,0.,0.));
#1134 = AXIS2_PLACEMENT_3D('',#1131,#1132,#1133);
#1135 = CIRCLE('',#1134,2.0);
#1136 = EDGE_CURVE('',#1102,#903,#1135,.T.);
#1137 = CARTESIAN_POINT('',(32.0,-28.0,0.));
#1138 = DIRECTION('',(0.,0.,1.0));
#1139 = DIRECTION('',(1.0,0.,0.));
#1140 = AXIS2_PLACEMENT_3D('',#1137,#1138,#1139);
#1141 = CYLINDRICAL_SURFACE('',#1140,2.0);
#1142 = ORIENTED_EDGE('',*,*,#1130,.T.);
#1143 = ORIENTED_EDGE('',*,*,#925,.T.);
#1144 = ORIENTED_EDGE('',*,*,#1136,.F.);
#1145 = ORIENTED_EDGE('',*,*,#1117,.F.);
#1146 = EDGE_LOOP('',(#1142,#1143,#1144,#1145));
#1147 = FACE_OUTER_BOUND('',#1146,.T.);
#1148 = ADVANCED_FACE('',(#1147),#1141,.T.);
#1149 = CARTESIAN_POINT('',(0.,0.,3.0));
#1150 = DIRECTION('',(0.,0.,1.0));
#1151 = DIRECTION('',(1.0,0.,0.));
#1152 = AXIS2_PLACEMENT_3D('',#1149,#1150,#1151);
#1153 = PLANE('',#1152);
#1154 = ORIENTED_EDGE('',*,*,#910,.T.);
#1155 = ORIENTED_EDGE('',*,*,#948,.T.);
#1156 = ORIENTED_EDGE('',*,*,#979,.T.);
#1157 = ORIENTED_EDGE('',*,*,#1012,.T.);
#1158 = ORIENTED_EDGE('',*,*,#1043,.T.);
#1159 = ORIENTED_EDGE('',*,*,#1076,.T.);
#1160 = ORIENTED_EDGE('',*,*,#1107,.T.);
#1161 = ORIENTED_EDGE('',*,*,#1136,.T.);
#1162 = EDGE_LOOP('',(#1154,#1155,#1156,#1157,#1158,#1159,#1160,#1161));
#1163 = FACE_OUTER_BOUND('',#1162,.T.);
#1164 = ADVANCED_FACE('',(#1163),#1153,.T.);
#1165 = CARTESIAN_POINT('',(0.,0.,0.));
#1166 = DIRECTION('',(0.,0.,-1.0));
#1167 = DIRECTION('',(1.0,0.,0.));
#1168 = AXIS2_PLACEMENT_3D('',#1165,#1166,#1167);
#1169 = PLANE('',#1168);
#1170 = ORIENTED_EDGE('',*,*,#1130,.F.);
#1171 = ORIENTED_EDGE('',*,*,#1100,.F.);
#1172 = ORIENTED_EDGE('',*,*,#1068,.F.);
#1173 = ORIENTED_EDGE('',*,*,#1036,.F.);
#1174 = ORIENTED_EDGE('',*,*,#1004,.F.);
#1175 = ORIENTED_EDGE('',*,*,#972,.F.);
#1176 = ORIENTED_EDGE('',*,*,#940,.F.);
#1177 = ORIENTED_EDGE('',*,*,#901,.F.);
#1178 = EDGE_LOOP('',(#1170,#1171,#1172,#1173,#1174,#1175,#1176,#1177));
#1179 = FACE_OUTER_BOUND('',#1178,.T.);
#1180 = ADVANCED_FACE('',(#1179),#1169,.T.);
#1181 = CLOSED_SHELL('',(#932,#965,#996,#1029,#1060,#1093,#1124,#1148,#1164,#1180));
#1182 = CARTESIAN_POINT('',(32.0,-30.0,0.));
#1183 = VERTEX_POINT('',#1182);
#1184 = CARTESIAN_POINT('',(148.0,-30.0,0.));
#1185 = VERTEX_POINT('',#1184);
#1186 = DIRECTION('',(1.0,0.,0.));
#1187 = VECTOR('',#1186,116.0);
#1188 = CARTESIAN_POINT('',(32.0,-30.0,0.));
#1189 = LINE('',#1188,#1187);
#1190 = EDGE_CURVE('',#1183,#1185,#1189,.T.);
#1191 = CARTESIAN_POINT('',(32.0,-30.0,3.0));
#1192 = VERTEX_POINT('',#1191);
#1193 = CARTESIAN_POINT('',(148.0,-30.0,3.0));
#1194 = VERTEX_POINT('',#1193);
#1195 = DIRECTION('',(1.0,0.,0.));
#1196 = VECTOR('',#1195,116.0);
#1197 = CARTESIAN_POINT('',(32.0,-30.0,3.0));
#1198 = LINE('',#1197,#1196);
#1199 = EDGE_CURVE('',#1192,#1194,#1198,.T.);
#1200 = CARTESIAN_POINT('',(32.0,-30.0,0.));
#1201 = DIRECTION('',(0.,-1.0,0.));
#1202 = DIRECTION('',(1.0,0.,0.));
#1203 = AXIS2_PLACEMENT_3D('',#1200,#1201,#1202);
#1204 = PLANE('',#1203);
#1205 = DIRECTION('',(0.,0.,1.0));
#1206 = VECTOR('',#1205,3.0);
#1207 = CARTESIAN_POINT('',(148.0,-30.0,0.));
#1208 = LINE('',#1207,#1206);
#1209 = EDGE_CURVE('',#1185,#1194,#1208,.T.);
#1210 = DIRECTION('',(0.,0.,1.0));
#1211 = VECTOR('',#1210,3.0);
#1212 = CARTESIAN_POINT('',(32.0,-30.0,0.));
#1213 = LINE('',#1212,#1211);
#1214 = EDGE_CURVE('',#1183,#1192,#1213,.T.);
#1215 = ORIENTED_EDGE('',*,*,#1190,.T.);
#1216 = ORIENTED_EDGE('',*,*,#1209,.T.);
#1217 = ORIENTED_EDGE('',*,*,#1199,.F.);
#1218 = ORIENTED_EDGE('',*,*,#1214,.F.);
#1219 = EDGE_LOOP('',(#1215,#1216,#1217,#1218));
#1220 = FACE_OUTER_BOUND('',#1219,.T.);
#1221 = ADVANCED_FACE('',(#1220),#1204,.T.);
#1222 = CARTESIAN_POINT('',(150.0,-28.0,0.));
#1223 = VERTEX_POINT('',#1222);
#1224 = CARTESIAN_POINT('',(148.0,-28.0,0.));
#1225 = DIRECTION('',(0.,0.,1.0));
#1226 = DIRECTION('',(1.0,0.,0.));
#1227 = AXIS2_PLACEMENT_3D('',#1224,#1225,#1226);
#1228 = CIRCLE('',#1227,2.0);
#1229 = EDGE_CURVE('',#1185,#1223,#1228,.T.);
#1230 = CARTESIAN_POINT('',(150.0,-28.0,3.0));
#1231 = VERTEX_POINT('',#1230);
#1232 = CARTESIAN_POINT('',(148.0,-28.0,3.0));
#1233 = DIRECTION('',(0.,0.,1.0));
#1234 = DIRECTION('',(1.0,0.,0.));
#1235 = AXIS2_PLACEMENT_3D('',#1232,#1233,#1234);
#1236 = CIRCLE('',#1235,2.0);
#1237 = EDGE_CURVE('',#1194,#1231,#1236,.T.);
#1238 = CARTESIAN_POINT('',(148.0,-28.0,0.));
#1239 = DIRECTION('',(0.,0.,1.0));
#1240 = DIRECTION('',(1.0,0.,0.));
#1241 = AXIS2_PLACEMENT_3D('',#1238,#1239,#1240);
#1242 = CYLINDRICAL_SURFACE('',#1241,2.0);
#1243 = DIRECTION('',(0.,0.,1.0));
#1244 = VECTOR('',#1243,3.0);
#1245 = CARTESIAN_POINT('',(150.0,-28.0,0.));
#1246 = LINE('',#1245,#1244);
#1247 = EDGE_CURVE('',#1223,#1231,#1246,.T.);
#1248 = ORIENTED_EDGE('',*,*,#1229,.T.);
#1249 = ORIENTED_EDGE('',*,*,#1247,.T.);
#1250 = ORIENTED_EDGE('',*,*,#1237,.F.);
#1251 = ORIENTED_EDGE('',*,*,#1209,.F.);
#1252 = EDGE_LOOP('',(#1248,#1249,#1250,#1251));
#1253 = FACE_OUTER_BOUND('',#1252,.T.);
#1254 = ADVANCED_FACE('',(#1253),#1242,.T.);
#1255 = CARTESIAN_POINT('',(150.0,28.0,0.));
#1256 = VERTEX_POINT('',#1255);
#1257 = DIRECTION('',(0.,1.0,0.));
#1258 = VECTOR('',#1257,56.0);
#1259 = CARTESIAN_POINT('',(150.0,-28.0,0.));
#1260 = LINE('',#1259,#1258);
#1261 = EDGE_CURVE('',#1223,#1256,#1260,.T.);
#1262 = CARTESIAN_POINT('',(150.0,28.0,3.0));
#1263 = VERTEX_POINT('',#1262);
#1264 = DIRECTION('',(0.,1.0,0.));
#1265 = VECTOR('',#1264,56.0);
#1266 = CARTESIAN_POINT('',(150.0,-28.0,3.0));
#1267 = LINE('',#1266,#1265);
#1268 = EDGE_CURVE('',#1231,#1263,#1267,.T.);
#1269 = CARTESIAN_POINT('',(150.0,-28.0,0.));
#1270 = DIRECTION('',(1.0,0.,0.));
#1271 = DIRECTION('',(0.,1.0,0.));
#1272 = AXIS2_PLACEMENT_3D('',#1269,#1270,#1271);
#1273 = PLANE('',#1272);
#1274 = DIRECTION('',(0.,0.,1.0));
#1275 = VECTOR('',#1274,3.0);
#1276 = CARTESIAN_POINT('',(150.0,28.0,0.));
#1277 = LINE('',#1276,#1275);
#1278 = EDGE_CURVE('',#1256,#1263,#1277,.T.);
#1279 = ORIENTED_EDGE('',*,*,#1261,.T.);
#1280 = ORIENTED_EDGE('',*,*,#1278,.T.);
#1281 = ORIENTED_EDGE('',*,*,#1268,.F.);
#1282 = ORIENTED_EDGE('',*,*,#1247,.F.);
#1283 = EDGE_LOOP('',(#1279,#1280,#1281,#1282));
#1284 = FACE_OUTER_BOUND('',#1283,.T.);
#1285 = ADVANCED_FACE('',(#1284),#1273,.T.);
#1286 = CARTESIAN_POINT('',(148.0,30.0,0.));
#1287 = VERTEX_POINT('',#1286);
#1288 = CARTESIAN_POINT('',(148.0,28.0,0.));
#1289 = DIRECTION('',(0.,0.,1.0));
#1290 = DIRECTION('',(1.0,0.,0.));
#1291 = AXIS2_PLACEMENT_3D('',#1288,#1289,#1290);
#1292 = CIRCLE('',#1291,2.0);
#1293 = EDGE_CURVE('',#1256,#1287,#1292,.T.);
#1294 = CARTESIAN_POINT('',(148.0,30.0,3.0));
#1295 = VERTEX_POINT('',#1294);
#1296 = CARTESIAN_POINT('',(148.0,28.0,3.0));
#1297 = DIRECTION('',(0.,0.,1.0));
#1298 = DIRECTION('',(1.0,0.,0.));
#1299 = AXIS2_PLACEMENT_3D('',#1296,#1297,#1298);
#1300 = CIRCLE('',#1299,2.0);
#1301 = EDGE_CURVE('',#1263,#1295,#1300,.T.);
#1302 = CARTESIAN_POINT('',(148.0,28.0,0.));
#1303 = DIRECTION('',(0.,0.,1.0));
#1304 = DIRECTION('',(1.0,0.,0.));
#1305 = AXIS2_PLACEMENT_3D('',#1302,#1303,#1304);
#1306 = CYLINDRICAL_SURFACE('',#1305,2.0);
#1307 = DIRECTION('',(0.,0.,1.0));
#1308 = VECTOR('',#1307,3.0);
#1309 = CARTESIAN_POINT('',(148.0,30.0,0.));
#1310 = LINE('',#1309,#1308);
#1311 = EDGE_CURVE('',#1287,#1295,#1310,.T.);
#1312 = ORIENTED_EDGE('',*,*,#1293,.T.);
#1313 = ORIENTED_EDGE('',*,*,#1311,.T.);
#1314 = ORIENTED_EDGE('',*,*,#1301,.F.);
#1315 = ORIENTED_EDGE('',*,*,#1278,.F.);
#1316 = EDGE_LOOP('',(#1312,#1313,#1314,#1315));
#1317 = FACE_OUTER_BOUND('',#1316,.T.);
#1318 = ADVANCED_FACE('',(#1317),#1306,.T.);
#1319 = CARTESIAN_POINT('',(32.0,30.0,0.));
#1320 = VERTEX_POINT('',#1319);
#1321 = DIRECTION('',(-1.0,0.,0.));
#1322 = VECTOR('',#1321,116.0);
#1323 = CARTESIAN_POINT('',(148.0,30.0,0.));
#1324 = LINE('',#1323,#1322);
#1325 = EDGE_CURVE('',#1287,#1320,#1324,.T.);
#1326 = CARTESIAN_POINT('',(32.0,30.0,3.0));
#1327 = VERTEX_POINT('',#1326);
#1328 = DIRECTION('',(-1.0,0.,0.));
#1329 = VECTOR('',#1328,116.0);
#1330 = CARTESIAN_POINT('',(148.0,30.0,3.0));
#1331 = LINE('',#1330,#1329);
#1332 = EDGE_CURVE('',#1295,#1327,#1331,.T.);
#1333 = CARTESIAN_POINT('',(148.0,30.0,0.));
#1334 = DIRECTION('',(0.,1.0,0.));
#1335 = DIRECTION('',(-1.0,0.,0.));
#1336 = AXIS2_PLACEMENT_3D('',#1333,#1334,#1335);
#1337 = PLANE('',#1336);
#1338 = DIRECTION('',(0.,0.,1.0));
#1339 = VECTOR('',#1338,3.0);
#1340 = CARTESIAN_POINT('',(32.0,30.0,0.));
#1341 = LINE('',#1340,#1339);
#1342 = EDGE_CURVE('',#1320,#1327,#1341,.T.);
#1343 = ORIENTED_EDGE('',*,*,#1325,.T.);
#1344 = ORIENTED_EDGE('',*,*,#1342,.T.);
#1345 = ORIENTED_EDGE('',*,*,#1332,.F.);
#1346 = ORIENTED_EDGE('',*,*,#1311,.F.);
#1347 = EDGE_LOOP('',(#1343,#1344,#1345,#1346));
#1348 = FACE_OUTER_BOUND('',#1347,.T.);
#1349 = ADVANCED_FACE('',(#1348),#1337,.T.);
#1350 = CARTESIAN_POINT('',(30.0,28.0,0.));
#1351 = VERTEX_POINT('',#1350);
#1352 = CARTESIAN_POINT('',(32.0,28.0,0.));
#1353 = DIRECTION('',(0.,0.,1.0));
#1354 = DIRECTION('',(1.0,0.,0.));
#1355 = AXIS2_PLACEMENT_3D('',#1352,#1353,#1354);
#1356 = CIRCLE('',#1355,2.0);
#1357 = EDGE_CURVE('',#1320,#1351,#1356,.T.);
#1358 = CARTESIAN_POINT('',(30.0,28.0,3.0));
#1359 = VERTEX_POINT('',#1358);
#1360 = CARTESIAN_POINT('',(32.0,28.0,3.0));
#1361 = DIRECTION('',(0.,0.,1.0));
#1362 = DIRECTION('',(1.0,0.,0.));
#1363 = AXIS2_PLACEMENT_3D('',#1360,#1361,#1362);
#1364 = CIRCLE('',#1363,2.0);
#1365 = EDGE_CURVE('',#1327,#1359,#1364,.T.);
#1366 = CARTESIAN_POINT('',(32.0,28.0,0.));
#1367 = DIRECTION('',(0.,0.,1.0));
#1368 = DIRECTION('',(1.0,0.,0.));
#1369 = AXIS2_PLACEMENT_3D('',#1366,#1367,#1368);
#1370 = CYLINDRICAL_SURFACE('',#1369,2.0);
#1371 = DIRECTION('',(0.,0.,1.0));
#1372 = VECTOR('',#1371,3.0);
#1373 = CARTESIAN_POINT('',(30.0,28.0,0.));
#1374 = LINE('',#1373,#1372);
#1375 = EDGE_CURVE('',#1351,#1359,#1374,.T.);
#1376 = ORIENTED_EDGE('',*,*,#1357,.T.);
#1377 = ORIENTED_EDGE('',*,*,#1375,.T.);
#1378 = ORIENTED_EDGE('',*,*,#1365,.F.);
#1379 = ORIENTED_EDGE('',*,*,#1342,.F.);
#1380 = EDGE_LOOP('',(#1376,#1377,#1378,#1379));
#1381 = FACE_OUTER_BOUND('',#1380,.T.);
#1382 = ADVANCED_FACE('',(#1381),#1370,.T.);
#1383 = CARTESIAN_POINT('',(30.0,-28.0,0.));
#1384 = VERTEX_POINT('',#1383);
#1385 = DIRECTION('',(0.,-1.0,0.));
#1386 = VECTOR('',#1385,56.0);
#1387 = CARTESIAN_POINT('',(30.0,28.0,0.));
#1388 = LINE('',#1387,#1386);
#1389 = EDGE_CURVE('',#1351,#1384,#1388,.T.);
#1390 = CARTESIAN_POINT('',(30.0,-28.0,3.0));
#1391 = VERTEX_POINT('',#1390);
#1392 = DIRECTION('',(0.,-1.0,0.));
#1393 = VECTOR('',#1392,56.0);
#1394 = CARTESIAN_POINT('',(30.0,28.0,3.0));
#1395 = LINE('',#1394,#1393);
#1396 = EDGE_CURVE('',#1359,#1391,#1395,.T.);
#1397 = CARTESIAN_POINT('',(30.0,28.0,0.));
#1398 = DIRECTION('',(-1.0,0.,0.));
#1399 = DIRECTION('',(0.,-1.0,0.));
#1400 = AXIS2_PLACEMENT_3D('',#1397,#1398,#1399);
#1401 = PLANE('',#1400);
#1402 = DIRECTION('',(0.,0.,1.0));
#1403 = VECTOR('',#1402,3.0);
#1404 = CARTESIAN_POINT('',(30.0,-28.0,0.));
#1405 = LINE('',#1404,#1403);
#1406 = EDGE_CURVE('',#1384,#1391,#1405,.T.);
#1407 = ORIENTED_EDGE('',*,*,#1389,.T.);
#1408 = ORIENTED_EDGE('',*,*,#1406,.T.);
#1409 = ORIENTED_EDGE('',*,*,#1396,.F.);
#1410 = ORIENTED_EDGE('',*,*,#1375,.F.);
#1411 = EDGE_LOOP('',(#1407,#1408,#1409,#1410));
#1412 = FACE_OUTER_BOUND('',#1411,.T.);
#1413 = ADVANCED_FACE('',(#1412),#1401,.T.);
#1414 = CARTESIAN_POINT('',(32.0,-28.0,0.));
#1415 = DIRECTION('',(0.,0.,1.0));
#1416 = DIRECTION('',(1.0,0.,0.));
#1417 = AXIS2_PLACEMENT_3D('',#1414,#1415,#1416);
#1418 = CIRCLE('',#1417,2.0);
#1419 = EDGE_CURVE('',#1384,#1183,#1418,.T.);
#1420 = CARTESIAN_POINT('',(32.0,-28.0,3.0));
#1421 = DIRECTION('',(0.,0.,1.0));
#1422 = DIRECTION('',(1.0,0.,0.));
#1423 = AXIS2_PLACEMENT_3D('',#1420,#1421,#1422);
#1424 = CIRCLE('',#1423,2.0);
#1425 = EDGE_CURVE('',#1391,#1192,#1424,.T.);
#1426 = CARTESIAN_POINT('',(32.0,-28.0,0.));
#1427 = DIRECTION('',(0.,0.,1.0));
#1428 = DIRECTION('',(1.0,0.,0.));
#1429 = AXIS2_PLACEMENT_3D('',#1426,#1427,#1428);
#1430 = CYLINDRICAL_SURFACE('',#1429,2.0);
#1431 = ORIENTED_EDGE('',*,*,#1419,.T.);
#1432 = ORIENTED_EDGE('',*,*,#1214,.T.);
#1433 = ORIENTED_EDGE('',*,*,#1425,.F.);
#1434 = ORIENTED_EDGE('',*,*,#1406,.F.);
#1435 = EDGE_LOOP('',(#1431,#1432,#1433,#1434));
#1436 = FACE_OUTER_BOUND('',#1435,.T.);
#1437 = ADVANCED_FACE('',(#1436),#1430,.T.);
#1438 = CARTESIAN_POINT('',(0.,0.,3.0));
#1439 = DIRECTION('',(0.,0.,1.0));
#1440 = DIRECTION('',(1.0,0.,0.));
#1441 = AXIS2_PLACEMENT_3D('',#1438,#1439,#1440);
#1442 = PLANE('',#1441);
#1443 = ORIENTED_EDGE('',*,*,#1199,.T.);
#1444 = ORIENTED_EDGE('',*,*,#1237,.T.);
#1445 = ORIENTED_EDGE('',*,*,#1268,.T.);
#1446 = ORIENTED_EDGE('',*,*,#1301,.T.);
#1447 = ORIENTED_EDGE('',*,*,#1332,.T.);
#1448 = ORIENTED_EDGE('',*,*,#1365,.T.);
#1449 = ORIENTED_EDGE('',*,*,#1396,.T.);
#1450 = ORIENTED_EDGE('',*,*,#1425,.T.);
#1451 = EDGE_LOOP('',(#1443,#1444,#1445,#1446,#1447,#1448,#1449,#1450));
#1452 = FACE_OUTER_BOUND('',#1451,.T.);
#1453 = ADVANCED_FACE('',(#1452),#1442,.T.);
#1454 = CARTESIAN_POINT('',(0.,0.,0.));
#1455 = DIRECTION('',(0.,0.,-1.0));
#1456 = DIRECTION('',(1.0,0.,0.));
#1457 = AXIS2_PLACEMENT_3D('',#1454,#1455,#1456);
#1458 = PLANE('',#1457);
#1459 = ORIENTED_EDGE('',*,*,#1419,.F.);
#1460 = ORIENTED_EDGE('',*,*,#1389,.F.);
#1461 = ORIENTED_EDGE('',*,*,#1357,.F.);
#1462 = ORIENTED_EDGE('',*,*,#1325,.F.);
#1463 = ORIENTED_EDGE('',*,*,#1293,.F.);
#1464 = ORIENTED_EDGE('',*,*,#1261,.F.);
#1465 = ORIENTED_EDGE('',*,*,#1229,.F.);
#1466 = ORIENTED_EDGE('',*,*,#1190,.F.);
#1467 = EDGE_LOOP('',(#1459,#1460,#1461,#1462,#1463,#1464,#1465,#1466));
#1468 = FACE_OUTER_BOUND('',#1467,.T.);
#1469 = ADVANCED_FACE('',(#1468),#1458,.T.);
#1470 = CLOSED_SHELL('',(#1221,#1254,#1285,#1318,#1349,#1382,#1413,#1437,#1453,#1469));
#1471 = CARTESIAN_POINT('',(0.,0.,0.));
#1472 = DIRECTION('',(0.,0.,1.0));
#1473 = DIRECTION('',(1.0,0.,0.));
#1474 = AXIS2_PLACEMENT_3D('',#1471,#1472,#1473);
#1475 = MANIFOLD_SOLID_BREP('D-02 \X2\D5C8BE0C\X0\',#314);
#1476 = MANIFOLD_SOLID_BREP('D-02 \X2\B0A0AC1C\X0\ 1',#603);
#1477 = MANIFOLD_SOLID_BREP('D-02 \X2\B0A0AC1C\X0\ 2',#892);
#1478 = MANIFOLD_SOLID_BREP('D-02 \X2\B0A0AC1C\X0\ 3',#1181);
#1479 = MANIFOLD_SOLID_BREP('D-02 \X2\B0A0AC1C\X0\ 4',#1470);
#1480 = ADVANCED_BREP_SHAPE_REPRESENTATION('D-03',(#1475,#1476,#1477,#1478,#1479,#1474),#5);
#1481 = SHAPE_DEFINITION_REPRESENTATION(#13,#1480);
ENDSEC;
END-ISO-10303-21;
