ISO-10303-21;
HEADER;
FILE_DESCRIPTION(('A-05'),'2;1');
FILE_NAME('A-05','2026-09-10T00:00:00',('Dynamic Industry'),('Dynamic Industry'),'mp50_cad','MP-50','');
FILE_SCHEMA(('AUTOMOTIVE_DESIGN { 1 0 10303 214 1 1 1 1 }'));
ENDSEC;
DATA;
#1 = ( LENGTH_UNIT() NAMED_UNIT(*) SI_UNIT(.MILLI.,.METRE.) );
#2 = ( NAMED_UNIT(*) PLANE_ANGLE_UNIT() SI_UNIT($,.RADIAN.) );
#3 = ( NAMED_UNIT(*) SI_UNIT($,.STERADIAN.) SOLID_ANGLE_UNIT() );
#4 = UNCERTAINTY_MEASURE_WITH_UNIT(LENGTH_MEASURE(1.E-06),#1,'distance_accuracy_value','confusion accuracy');
#5 = ( GEOMETRIC_REPRESENTATION_CONTEXT(3) GLOBAL_UNCERTAINTY_ASSIGNED_CONTEXT((#4)) GLOBAL_UNIT_ASSIGNED_CONTEXT((#1,#2,#3)) REPRESENTATION_CONTEXT('','3D') );
#6 = APPLICATION_CONTEXT('automotive design');
#7 = APPLICATION_PROTOCOL_DEFINITION('international standard','automotive_design',2000,#6);
#8 = PRODUCT_CONTEXT('',#6,'mechanical');
#9 = PRODUCT_DEFINITION_CONTEXT('part definition',#6,'design');
#10 = PRODUCT('A-05','A-05','',(#8));
#11 = PRODUCT_DEFINITION_FORMATION('','',#10);
#12 = PRODUCT_DEFINITION('design','',#11,#9);
#13 = PRODUCT_DEFINITION_SHAPE('','',#12);
#14 = CARTESIAN_POINT('',(-240.0,-0.0,0.));
#15 = VERTEX_POINT('',#14);
#16 = CARTESIAN_POINT('',(240.0,0.0,0.));
#17 = VERTEX_POINT('',#16);
#18 = CARTESIAN_POINT('',(0.,0.0,0.));
#19 = DIRECTION('',(0.,0.,1.0));
#20 = DIRECTION('',(1.0,0.,0.));
#21 = AXIS2_PLACEMENT_3D('',#18,#19,#20);
#22 = CIRCLE('',#21,240.0);
#23 = EDGE_CURVE('',#15,#17,#22,.T.);
#24 = CARTESIAN_POINT('',(-240.0,-0.0,10.0));
#25 = VERTEX_POINT('',#24);
#26 = CARTESIAN_POINT('',(240.0,0.0,10.0));
#27 = VERTEX_POINT('',#26);
#28 = CARTESIAN_POINT('',(0.,0.0,10.0));
#29 = DIRECTION('',(0.,0.,1.0));
#30 = DIRECTION('',(1.0,0.,0.));
#31 = AXIS2_PLACEMENT_3D('',#28,#29,#30);
#32 = CIRCLE('',#31,240.0);
#33 = EDGE_CURVE('',#25,#27,#32,.T.);
#34 = CARTESIAN_POINT('',(0.,0.0,0.));
#35 = DIRECTION('',(0.,0.,1.0));
#36 = DIRECTION('',(1.0,0.,0.));
#37 = AXIS2_PLACEMENT_3D('',#34,#35,#36);
#38 = CYLINDRICAL_SURFACE('',#37,240.0);
#39 = DIRECTION('',(0.,0.,1.0));
#40 = VECTOR('',#39,10.0);
#41 = CARTESIAN_POINT('',(240.0,0.,0.));
#42 = LINE('',#41,#40);
#43 = EDGE_CURVE('',#17,#27,#42,.T.);
#44 = DIRECTION('',(0.,0.,1.0));
#45 = VECTOR('',#44,10.0);
#46 = CARTESIAN_POINT('',(-240.0,0.,0.));
#47 = LINE('',#46,#45);
#48 = EDGE_CURVE('',#15,#25,#47,.T.);
#49 = ORIENTED_EDGE('',*,*,#23,.T.);
#50 = ORIENTED_EDGE('',*,*,#43,.T.);
#51 = ORIENTED_EDGE('',*,*,#33,.F.);
#52 = ORIENTED_EDGE('',*,*,#48,.F.);
#53 = EDGE_LOOP('',(#49,#50,#51,#52));
#54 = FACE_OUTER_BOUND('',#53,.T.);
#55 = ADVANCED_FACE('',(#54),#38,.T.);
#56 = CARTESIAN_POINT('',(0.,-0.0,0.));
#57 = DIRECTION('',(0.,0.,1.0));
#58 = DIRECTION('',(1.0,0.,0.));
#59 = AXIS2_PLACEMENT_3D('',#56,#57,#58);
#60 = CIRCLE('',#59,240.0);
#61 = EDGE_CURVE('',#17,#15,#60,.T.);
#62 = CARTESIAN_POINT('',(0.,-0.0,10.0));
#63 = DIRECTION('',(0.,0.,1.0));
#64 = DIRECTION('',(1.0,0.,0.));
#65 = AXIS2_PLACEMENT_3D('',#62,#63,#64);
#66 = CIRCLE('',#65,240.0);
#67 = EDGE_CURVE('',#27,#25,#66,.T.);
#68 = CARTESIAN_POINT('',(0.,-0.0,0.));
#69 = DIRECTION('',(0.,0.,1.0));
#70 = DIRECTION('',(1.0,0.,0.));
#71 = AXIS2_PLACEMENT_3D('',#68,#69,#70);
#72 = CYLINDRICAL_SURFACE('',#71,240.0);
#73 = ORIENTED_EDGE('',*,*,#61,.T.);
#74 = ORIENTED_EDGE('',*,*,#48,.T.);
#75 = ORIENTED_EDGE('',*,*,#67,.F.);
#76 = ORIENTED_EDGE('',*,*,#43,.F.);
#77 = EDGE_LOOP('',(#73,#74,#75,#76));
#78 = FACE_OUTER_BOUND('',#77,.T.);
#79 = ADVANCED_FACE('',(#78),#72,.T.);
#80 = CARTESIAN_POINT('',(-203.0,0.0,0.));
#81 = VERTEX_POINT('',#80);
#82 = CARTESIAN_POINT('',(203.0,-0.0,0.));
#83 = VERTEX_POINT('',#82);
#84 = CARTESIAN_POINT('',(0.,-0.0,0.));
#85 = DIRECTION('',(0.,0.,1.0));
#86 = DIRECTION('',(1.0,0.,0.));
#87 = AXIS2_PLACEMENT_3D('',#84,#85,#86);
#88 = CIRCLE('',#87,203.0);
#89 = EDGE_CURVE('',#81,#83,#88,.F.);
#90 = CARTESIAN_POINT('',(-203.0,0.0,10.0));
#91 = VERTEX_POINT('',#90);
#92 = CARTESIAN_POINT('',(203.0,-0.0,10.0));
#93 = VERTEX_POINT('',#92);
#94 = CARTESIAN_POINT('',(0.,-0.0,10.0));
#95 = DIRECTION('',(0.,0.,1.0));
#96 = DIRECTION('',(1.0,0.,0.));
#97 = AXIS2_PLACEMENT_3D('',#94,#95,#96);
#98 = CIRCLE('',#97,203.0);
#99 = EDGE_CURVE('',#91,#93,#98,.F.);
#100 = CARTESIAN_POINT('',(0.,-0.0,0.));
#101 = DIRECTION('',(0.,0.,1.0));
#102 = DIRECTION('',(1.0,0.,0.));
#103 = AXIS2_PLACEMENT_3D('',#100,#101,#102);
#104 = CYLINDRICAL_SURFACE('',#103,203.0);
#105 = DIRECTION('',(0.,0.,1.0));
#106 = VECTOR('',#105,10.0);
#107 = CARTESIAN_POINT('',(203.0,0.,0.));
#108 = LINE('',#107,#106);
#109 = EDGE_CURVE('',#83,#93,#108,.T.);
#110 = DIRECTION('',(0.,0.,1.0));
#111 = VECTOR('',#110,10.0);
#112 = CARTESIAN_POINT('',(-203.0,0.,0.));
#113 = LINE('',#112,#111);
#114 = EDGE_CURVE('',#81,#91,#113,.T.);
#115 = ORIENTED_EDGE('',*,*,#89,.T.);
#116 = ORIENTED_EDGE('',*,*,#109,.T.);
#117 = ORIENTED_EDGE('',*,*,#99,.F.);
#118 = ORIENTED_EDGE('',*,*,#114,.F.);
#119 = EDGE_LOOP('',(#115,#116,#117,#118));
#120 = FACE_OUTER_BOUND('',#119,.T.);
#121 = ADVANCED_FACE('',(#120),#104,.F.);
#122 = CARTESIAN_POINT('',(0.,0.0,0.));
#123 = DIRECTION('',(0.,0.,1.0));
#124 = DIRECTION('',(1.0,0.,0.));
#125 = AXIS2_PLACEMENT_3D('',#122,#123,#124);
#126 = CIRCLE('',#125,203.0);
#127 = EDGE_CURVE('',#83,#81,#126,.F.);
#128 = CARTESIAN_POINT('',(0.,0.0,10.0));
#129 = DIRECTION('',(0.,0.,1.0));
#130 = DIRECTION('',(1.0,0.,0.));
#131 = AXIS2_PLACEMENT_3D('',#128,#129,#130);
#132 = CIRCLE('',#131,203.0);
#133 = EDGE_CURVE('',#93,#91,#132,.F.);
#134 = CARTESIAN_POINT('',(0.,0.0,0.));
#135 = DIRECTION('',(0.,0.,1.0));
#136 = DIRECTION('',(1.0,0.,0.));
#137 = AXIS2_PLACEMENT_3D('',#134,#135,#136);
#138 = CYLINDRICAL_SURFACE('',#137,203.0);
#139 = ORIENTED_EDGE('',*,*,#127,.T.);
#140 = ORIENTED_EDGE('',*,*,#114,.T.);
#141 = ORIENTED_EDGE('',*,*,#133,.F.);
#142 = ORIENTED_EDGE('',*,*,#109,.F.);
#143 = EDGE_LOOP('',(#139,#140,#141,#142));
#144 = FACE_OUTER_BOUND('',#143,.T.);
#145 = ADVANCED_FACE('',(#144),#138,.F.);
#146 = CARTESIAN_POINT('',(210.333310915,58.234285148,0.));
#147 = VERTEX_POINT('',#146);
#148 = CARTESIAN_POINT('',(224.333310915,58.234285148,0.));
#149 = VERTEX_POINT('',#148);
#150 = CARTESIAN_POINT('',(217.333310915,58.234285148,0.));
#151 = DIRECTION('',(0.,0.,1.0));
#152 = DIRECTION('',(1.0,0.,0.));
#153 = AXIS2_PLACEMENT_3D('',#150,#151,#152);
#154 = CIRCLE('',#153,7.0);
#155 = EDGE_CURVE('',#147,#149,#154,.F.);
#156 = CARTESIAN_POINT('',(210.333310915,58.234285148,10.0));
#157 = VERTEX_POINT('',#156);
#158 = CARTESIAN_POINT('',(224.333310915,58.234285148,10.0));
#159 = VERTEX_POINT('',#158);
#160 = CARTESIAN_POINT('',(217.333310915,58.234285148,10.0));
#161 = DIRECTION('',(0.,0.,1.0));
#162 = DIRECTION('',(1.0,0.,0.));
#163 = AXIS2_PLACEMENT_3D('',#160,#161,#162);
#164 = CIRCLE('',#163,7.0);
#165 = EDGE_CURVE('',#157,#159,#164,.F.);
#166 = CARTESIAN_POINT('',(217.333310915,58.234285148,0.));
#167 = DIRECTION('',(0.,0.,1.0));
#168 = DIRECTION('',(1.0,0.,0.));
#169 = AXIS2_PLACEMENT_3D('',#166,#167,#168);
#170 = CYLINDRICAL_SURFACE('',#169,7.0);
#171 = DIRECTION('',(0.,0.,1.0));
#172 = VECTOR('',#171,10.0);
#173 = CARTESIAN_POINT('',(224.333310915,58.234285148,0.));
#174 = LINE('',#173,#172);
#175 = EDGE_CURVE('',#149,#159,#174,.T.);
#176 = DIRECTION('',(0.,0.,1.0));
#177 = VECTOR('',#176,10.0);
#178 = CARTESIAN_POINT('',(210.333310915,58.234285148,0.));
#179 = LINE('',#178,#177);
#180 = EDGE_CURVE('',#147,#157,#179,.T.);
#181 = ORIENTED_EDGE('',*,*,#155,.T.);
#182 = ORIENTED_EDGE('',*,*,#175,.T.);
#183 = ORIENTED_EDGE('',*,*,#165,.F.);
#184 = ORIENTED_EDGE('',*,*,#180,.F.);
#185 = EDGE_LOOP('',(#181,#182,#183,#184));
#186 = FACE_OUTER_BOUND('',#185,.T.);
#187 = ADVANCED_FACE('',(#186),#170,.F.);
#188 = CARTESIAN_POINT('',(217.333310915,58.234285148,0.));
#189 = DIRECTION('',(0.,0.,1.0));
#190 = DIRECTION('',(1.0,0.,0.));
#191 = AXIS2_PLACEMENT_3D('',#188,#189,#190);
#192 = CIRCLE('',#191,7.0);
#193 = EDGE_CURVE('',#149,#147,#192,.F.);
#194 = CARTESIAN_POINT('',(217.333310915,58.234285148,10.0));
#195 = DIRECTION('',(0.,0.,1.0));
#196 = DIRECTION('',(1.0,0.,0.));
#197 = AXIS2_PLACEMENT_3D('',#194,#195,#196);
#198 = CIRCLE('',#197,7.0);
#199 = EDGE_CURVE('',#159,#157,#198,.F.);
#200 = CARTESIAN_POINT('',(217.333310915,58.234285148,0.));
#201 = DIRECTION('',(0.,0.,1.0));
#202 = DIRECTION('',(1.0,0.,0.));
#203 = AXIS2_PLACEMENT_3D('',#200,#201,#202);
#204 = CYLINDRICAL_SURFACE('',#203,7.0);
#205 = ORIENTED_EDGE('',*,*,#193,.T.);
#206 = ORIENTED_EDGE('',*,*,#180,.T.);
#207 = ORIENTED_EDGE('',*,*,#199,.F.);
#208 = ORIENTED_EDGE('',*,*,#175,.F.);
#209 = EDGE_LOOP('',(#205,#206,#207,#208));
#210 = FACE_OUTER_BOUND('',#209,.T.);
#211 = ADVANCED_FACE('',(#210),#204,.F.);
#212 = CARTESIAN_POINT('',(152.099025767,159.099025767,0.));
#213 = VERTEX_POINT('',#212);
#214 = CARTESIAN_POINT('',(166.099025767,159.099025767,0.));
#215 = VERTEX_POINT('',#214);
#216 = CARTESIAN_POINT('',(159.099025767,159.099025767,0.));
#217 = DIRECTION('',(0.,0.,1.0));
#218 = DIRECTION('',(1.0,0.,0.));
#219 = AXIS2_PLACEMENT_3D('',#216,#217,#218);
#220 = CIRCLE('',#219,7.0);
#221 = EDGE_CURVE('',#213,#215,#220,.F.);
#222 = CARTESIAN_POINT('',(152.099025767,159.099025767,10.0));
#223 = VERTEX_POINT('',#222);
#224 = CARTESIAN_POINT('',(166.099025767,159.099025767,10.0));
#225 = VERTEX_POINT('',#224);
#226 = CARTESIAN_POINT('',(159.099025767,159.099025767,10.0));
#227 = DIRECTION('',(0.,0.,1.0));
#228 = DIRECTION('',(1.0,0.,0.));
#229 = AXIS2_PLACEMENT_3D('',#226,#227,#228);
#230 = CIRCLE('',#229,7.0);
#231 = EDGE_CURVE('',#223,#225,#230,.F.);
#232 = CARTESIAN_POINT('',(159.099025767,159.099025767,0.));
#233 = DIRECTION('',(0.,0.,1.0));
#234 = DIRECTION('',(1.0,0.,0.));
#235 = AXIS2_PLACEMENT_3D('',#232,#233,#234);
#236 = CYLINDRICAL_SURFACE('',#235,7.0);
#237 = DIRECTION('',(0.,0.,1.0));
#238 = VECTOR('',#237,10.0);
#239 = CARTESIAN_POINT('',(166.099025767,159.099025767,0.));
#240 = LINE('',#239,#238);
#241 = EDGE_CURVE('',#215,#225,#240,.T.);
#242 = DIRECTION('',(0.,0.,1.0));
#243 = VECTOR('',#242,10.0);
#244 = CARTESIAN_POINT('',(152.099025767,159.099025767,0.));
#245 = LINE('',#244,#243);
#246 = EDGE_CURVE('',#213,#223,#245,.T.);
#247 = ORIENTED_EDGE('',*,*,#221,.T.);
#248 = ORIENTED_EDGE('',*,*,#241,.T.);
#249 = ORIENTED_EDGE('',*,*,#231,.F.);
#250 = ORIENTED_EDGE('',*,*,#246,.F.);
#251 = EDGE_LOOP('',(#247,#248,#249,#250));
#252 = FACE_OUTER_BOUND('',#251,.T.);
#253 = ADVANCED_FACE('',(#252),#236,.F.);
#254 = CARTESIAN_POINT('',(159.099025767,159.099025767,0.));
#255 = DIRECTION('',(0.,0.,1.0));
#256 = DIRECTION('',(1.0,0.,0.));
#257 = AXIS2_PLACEMENT_3D('',#254,#255,#256);
#258 = CIRCLE('',#257,7.0);
#259 = EDGE_CURVE('',#215,#213,#258,.F.);
#260 = CARTESIAN_POINT('',(159.099025767,159.099025767,10.0));
#261 = DIRECTION('',(0.,0.,1.0));
#262 = DIRECTION('',(1.0,0.,0.));
#263 = AXIS2_PLACEMENT_3D('',#260,#261,#262);
#264 = CIRCLE('',#263,7.0);
#265 = EDGE_CURVE('',#225,#223,#264,.F.);
#266 = CARTESIAN_POINT('',(159.099025767,159.099025767,0.));
#267 = DIRECTION('',(0.,0.,1.0));
#268 = DIRECTION('',(1.0,0.,0.));
#269 = AXIS2_PLACEMENT_3D('',#266,#267,#268);
#270 = CYLINDRICAL_SURFACE('',#269,7.0);
#271 = ORIENTED_EDGE('',*,*,#259,.T.);
#272 = ORIENTED_EDGE('',*,*,#246,.T.);
#273 = ORIENTED_EDGE('',*,*,#265,.F.);
#274 = ORIENTED_EDGE('',*,*,#241,.F.);
#275 = EDGE_LOOP('',(#271,#272,#273,#274));
#276 = FACE_OUTER_BOUND('',#275,.T.);
#277 = ADVANCED_FACE('',(#276),#270,.F.);
#278 = CARTESIAN_POINT('',(51.234285148,217.333310915,0.));
#279 = VERTEX_POINT('',#278);
#280 = CARTESIAN_POINT('',(65.234285148,217.333310915,0.));
#281 = VERTEX_POINT('',#280);
#282 = CARTESIAN_POINT('',(58.234285148,217.333310915,0.));
#283 = DIRECTION('',(0.,0.,1.0));
#284 = DIRECTION('',(1.0,0.,0.));
#285 = AXIS2_PLACEMENT_3D('',#282,#283,#284);
#286 = CIRCLE('',#285,7.0);
#287 = EDGE_CURVE('',#279,#281,#286,.F.);
#288 = CARTESIAN_POINT('',(51.234285148,217.333310915,10.0));
#289 = VERTEX_POINT('',#288);
#290 = CARTESIAN_POINT('',(65.234285148,217.333310915,10.0));
#291 = VERTEX_POINT('',#290);
#292 = CARTESIAN_POINT('',(58.234285148,217.333310915,10.0));
#293 = DIRECTION('',(0.,0.,1.0));
#294 = DIRECTION('',(1.0,0.,0.));
#295 = AXIS2_PLACEMENT_3D('',#292,#293,#294);
#296 = CIRCLE('',#295,7.0);
#297 = EDGE_CURVE('',#289,#291,#296,.F.);
#298 = CARTESIAN_POINT('',(58.234285148,217.333310915,0.));
#299 = DIRECTION('',(0.,0.,1.0));
#300 = DIRECTION('',(1.0,0.,0.));
#301 = AXIS2_PLACEMENT_3D('',#298,#299,#300);
#302 = CYLINDRICAL_SURFACE('',#301,7.0);
#303 = DIRECTION('',(0.,0.,1.0));
#304 = VECTOR('',#303,10.0);
#305 = CARTESIAN_POINT('',(65.234285148,217.333310915,0.));
#306 = LINE('',#305,#304);
#307 = EDGE_CURVE('',#281,#291,#306,.T.);
#308 = DIRECTION('',(0.,0.,1.0));
#309 = VECTOR('',#308,10.0);
#310 = CARTESIAN_POINT('',(51.234285148,217.333310915,0.));
#311 = LINE('',#310,#309);
#312 = EDGE_CURVE('',#279,#289,#311,.T.);
#313 = ORIENTED_EDGE('',*,*,#287,.T.);
#314 = ORIENTED_EDGE('',*,*,#307,.T.);
#315 = ORIENTED_EDGE('',*,*,#297,.F.);
#316 = ORIENTED_EDGE('',*,*,#312,.F.);
#317 = EDGE_LOOP('',(#313,#314,#315,#316));
#318 = FACE_OUTER_BOUND('',#317,.T.);
#319 = ADVANCED_FACE('',(#318),#302,.F.);
#320 = CARTESIAN_POINT('',(58.234285148,217.333310915,0.));
#321 = DIRECTION('',(0.,0.,1.0));
#322 = DIRECTION('',(1.0,0.,0.));
#323 = AXIS2_PLACEMENT_3D('',#320,#321,#322);
#324 = CIRCLE('',#323,7.0);
#325 = EDGE_CURVE('',#281,#279,#324,.F.);
#326 = CARTESIAN_POINT('',(58.234285148,217.333310915,10.0));
#327 = DIRECTION('',(0.,0.,1.0));
#328 = DIRECTION('',(1.0,0.,0.));
#329 = AXIS2_PLACEMENT_3D('',#326,#327,#328);
#330 = CIRCLE('',#329,7.0);
#331 = EDGE_CURVE('',#291,#289,#330,.F.);
#332 = CARTESIAN_POINT('',(58.234285148,217.333310915,0.));
#333 = DIRECTION('',(0.,0.,1.0));
#334 = DIRECTION('',(1.0,0.,0.));
#335 = AXIS2_PLACEMENT_3D('',#332,#333,#334);
#336 = CYLINDRICAL_SURFACE('',#335,7.0);
#337 = ORIENTED_EDGE('',*,*,#325,.T.);
#338 = ORIENTED_EDGE('',*,*,#312,.T.);
#339 = ORIENTED_EDGE('',*,*,#331,.F.);
#340 = ORIENTED_EDGE('',*,*,#307,.F.);
#341 = EDGE_LOOP('',(#337,#338,#339,#340));
#342 = FACE_OUTER_BOUND('',#341,.T.);
#343 = ADVANCED_FACE('',(#342),#336,.F.);
#344 = CARTESIAN_POINT('',(-65.234285148,217.333310915,0.));
#345 = VERTEX_POINT('',#344);
#346 = CARTESIAN_POINT('',(-51.234285148,217.333310915,0.));
#347 = VERTEX_POINT('',#346);
#348 = CARTESIAN_POINT('',(-58.234285148,217.333310915,0.));
#349 = DIRECTION('',(0.,0.,1.0));
#350 = DIRECTION('',(1.0,0.,0.));
#351 = AXIS2_PLACEMENT_3D('',#348,#349,#350);
#352 = CIRCLE('',#351,7.0);
#353 = EDGE_CURVE('',#345,#347,#352,.F.);
#354 = CARTESIAN_POINT('',(-65.234285148,217.333310915,10.0));
#355 = VERTEX_POINT('',#354);
#356 = CARTESIAN_POINT('',(-51.234285148,217.333310915,10.0));
#357 = VERTEX_POINT('',#356);
#358 = CARTESIAN_POINT('',(-58.234285148,217.333310915,10.0));
#359 = DIRECTION('',(0.,0.,1.0));
#360 = DIRECTION('',(1.0,0.,0.));
#361 = AXIS2_PLACEMENT_3D('',#358,#359,#360);
#362 = CIRCLE('',#361,7.0);
#363 = EDGE_CURVE('',#355,#357,#362,.F.);
#364 = CARTESIAN_POINT('',(-58.234285148,217.333310915,0.));
#365 = DIRECTION('',(0.,0.,1.0));
#366 = DIRECTION('',(1.0,0.,0.));
#367 = AXIS2_PLACEMENT_3D('',#364,#365,#366);
#368 = CYLINDRICAL_SURFACE('',#367,7.0);
#369 = DIRECTION('',(0.,0.,1.0));
#370 = VECTOR('',#369,10.0);
#371 = CARTESIAN_POINT('',(-51.234285148,217.333310915,0.));
#372 = LINE('',#371,#370);
#373 = EDGE_CURVE('',#347,#357,#372,.T.);
#374 = DIRECTION('',(0.,0.,1.0));
#375 = VECTOR('',#374,10.0);
#376 = CARTESIAN_POINT('',(-65.234285148,217.333310915,0.));
#377 = LINE('',#376,#375);
#378 = EDGE_CURVE('',#345,#355,#377,.T.);
#379 = ORIENTED_EDGE('',*,*,#353,.T.);
#380 = ORIENTED_EDGE('',*,*,#373,.T.);
#381 = ORIENTED_EDGE('',*,*,#363,.F.);
#382 = ORIENTED_EDGE('',*,*,#378,.F.);
#383 = EDGE_LOOP('',(#379,#380,#381,#382));
#384 = FACE_OUTER_BOUND('',#383,.T.);
#385 = ADVANCED_FACE('',(#384),#368,.F.);
#386 = CARTESIAN_POINT('',(-58.234285148,217.333310915,0.));
#387 = DIRECTION('',(0.,0.,1.0));
#388 = DIRECTION('',(1.0,0.,0.));
#389 = AXIS2_PLACEMENT_3D('',#386,#387,#388);
#390 = CIRCLE('',#389,7.0);
#391 = EDGE_CURVE('',#347,#345,#390,.F.);
#392 = CARTESIAN_POINT('',(-58.234285148,217.333310915,10.0));
#393 = DIRECTION('',(0.,0.,1.0));
#394 = DIRECTION('',(1.0,0.,0.));
#395 = AXIS2_PLACEMENT_3D('',#392,#393,#394);
#396 = CIRCLE('',#395,7.0);
#397 = EDGE_CURVE('',#357,#355,#396,.F.);
#398 = CARTESIAN_POINT('',(-58.234285148,217.333310915,0.));
#399 = DIRECTION('',(0.,0.,1.0));
#400 = DIRECTION('',(1.0,0.,0.));
#401 = AXIS2_PLACEMENT_3D('',#398,#399,#400);
#402 = CYLINDRICAL_SURFACE('',#401,7.0);
#403 = ORIENTED_EDGE('',*,*,#391,.T.);
#404 = ORIENTED_EDGE('',*,*,#378,.T.);
#405 = ORIENTED_EDGE('',*,*,#397,.F.);
#406 = ORIENTED_EDGE('',*,*,#373,.F.);
#407 = EDGE_LOOP('',(#403,#404,#405,#406));
#408 = FACE_OUTER_BOUND('',#407,.T.);
#409 = ADVANCED_FACE('',(#408),#402,.F.);
#410 = CARTESIAN_POINT('',(-166.099025767,159.099025767,0.));
#411 = VERTEX_POINT('',#410);
#412 = CARTESIAN_POINT('',(-152.099025767,159.099025767,0.));
#413 = VERTEX_POINT('',#412);
#414 = CARTESIAN_POINT('',(-159.099025767,159.099025767,0.));
#415 = DIRECTION('',(0.,0.,1.0));
#416 = DIRECTION('',(1.0,0.,0.));
#417 = AXIS2_PLACEMENT_3D('',#414,#415,#416);
#418 = CIRCLE('',#417,7.0);
#419 = EDGE_CURVE('',#411,#413,#418,.F.);
#420 = CARTESIAN_POINT('',(-166.099025767,159.099025767,10.0));
#421 = VERTEX_POINT('',#420);
#422 = CARTESIAN_POINT('',(-152.099025767,159.099025767,10.0));
#423 = VERTEX_POINT('',#422);
#424 = CARTESIAN_POINT('',(-159.099025767,159.099025767,10.0));
#425 = DIRECTION('',(0.,0.,1.0));
#426 = DIRECTION('',(1.0,0.,0.));
#427 = AXIS2_PLACEMENT_3D('',#424,#425,#426);
#428 = CIRCLE('',#427,7.0);
#429 = EDGE_CURVE('',#421,#423,#428,.F.);
#430 = CARTESIAN_POINT('',(-159.099025767,159.099025767,0.));
#431 = DIRECTION('',(0.,0.,1.0));
#432 = DIRECTION('',(1.0,0.,0.));
#433 = AXIS2_PLACEMENT_3D('',#430,#431,#432);
#434 = CYLINDRICAL_SURFACE('',#433,7.0);
#435 = DIRECTION('',(0.,0.,1.0));
#436 = VECTOR('',#435,10.0);
#437 = CARTESIAN_POINT('',(-152.099025767,159.099025767,0.));
#438 = LINE('',#437,#436);
#439 = EDGE_CURVE('',#413,#423,#438,.T.);
#440 = DIRECTION('',(0.,0.,1.0));
#441 = VECTOR('',#440,10.0);
#442 = CARTESIAN_POINT('',(-166.099025767,159.099025767,0.));
#443 = LINE('',#442,#441);
#444 = EDGE_CURVE('',#411,#421,#443,.T.);
#445 = ORIENTED_EDGE('',*,*,#419,.T.);
#446 = ORIENTED_EDGE('',*,*,#439,.T.);
#447 = ORIENTED_EDGE('',*,*,#429,.F.);
#448 = ORIENTED_EDGE('',*,*,#444,.F.);
#449 = EDGE_LOOP('',(#445,#446,#447,#448));
#450 = FACE_OUTER_BOUND('',#449,.T.);
#451 = ADVANCED_FACE('',(#450),#434,.F.);
#452 = CARTESIAN_POINT('',(-159.099025767,159.099025767,0.));
#453 = DIRECTION('',(0.,0.,1.0));
#454 = DIRECTION('',(1.0,0.,0.));
#455 = AXIS2_PLACEMENT_3D('',#452,#453,#454);
#456 = CIRCLE('',#455,7.0);
#457 = EDGE_CURVE('',#413,#411,#456,.F.);
#458 = CARTESIAN_POINT('',(-159.099025767,159.099025767,10.0));
#459 = DIRECTION('',(0.,0.,1.0));
#460 = DIRECTION('',(1.0,0.,0.));
#461 = AXIS2_PLACEMENT_3D('',#458,#459,#460);
#462 = CIRCLE('',#461,7.0);
#463 = EDGE_CURVE('',#423,#421,#462,.F.);
#464 = CARTESIAN_POINT('',(-159.099025767,159.099025767,0.));
#465 = DIRECTION('',(0.,0.,1.0));
#466 = DIRECTION('',(1.0,0.,0.));
#467 = AXIS2_PLACEMENT_3D('',#464,#465,#466);
#468 = CYLINDRICAL_SURFACE('',#467,7.0);
#469 = ORIENTED_EDGE('',*,*,#457,.T.);
#470 = ORIENTED_EDGE('',*,*,#444,.T.);
#471 = ORIENTED_EDGE('',*,*,#463,.F.);
#472 = ORIENTED_EDGE('',*,*,#439,.F.);
#473 = EDGE_LOOP('',(#469,#470,#471,#472));
#474 = FACE_OUTER_BOUND('',#473,.T.);
#475 = ADVANCED_FACE('',(#474),#468,.F.);
#476 = CARTESIAN_POINT('',(-224.333310915,58.234285148,0.));
#477 = VERTEX_POINT('',#476);
#478 = CARTESIAN_POINT('',(-210.333310915,58.234285148,0.));
#479 = VERTEX_POINT('',#478);
#480 = CARTESIAN_POINT('',(-217.333310915,58.234285148,0.));
#481 = DIRECTION('',(0.,0.,1.0));
#482 = DIRECTION('',(1.0,0.,0.));
#483 = AXIS2_PLACEMENT_3D('',#480,#481,#482);
#484 = CIRCLE('',#483,7.0);
#485 = EDGE_CURVE('',#477,#479,#484,.F.);
#486 = CARTESIAN_POINT('',(-224.333310915,58.234285148,10.0));
#487 = VERTEX_POINT('',#486);
#488 = CARTESIAN_POINT('',(-210.333310915,58.234285148,10.0));
#489 = VERTEX_POINT('',#488);
#490 = CARTESIAN_POINT('',(-217.333310915,58.234285148,10.0));
#491 = DIRECTION('',(0.,0.,1.0));
#492 = DIRECTION('',(1.0,0.,0.));
#493 = AXIS2_PLACEMENT_3D('',#490,#491,#492);
#494 = CIRCLE('',#493,7.0);
#495 = EDGE_CURVE('',#487,#489,#494,.F.);
#496 = CARTESIAN_POINT('',(-217.333310915,58.234285148,0.));
#497 = DIRECTION('',(0.,0.,1.0));
#498 = DIRECTION('',(1.0,0.,0.));
#499 = AXIS2_PLACEMENT_3D('',#496,#497,#498);
#500 = CYLINDRICAL_SURFACE('',#499,7.0);
#501 = DIRECTION('',(0.,0.,1.0));
#502 = VECTOR('',#501,10.0);
#503 = CARTESIAN_POINT('',(-210.333310915,58.234285148,0.));
#504 = LINE('',#503,#502);
#505 = EDGE_CURVE('',#479,#489,#504,.T.);
#506 = DIRECTION('',(0.,0.,1.0));
#507 = VECTOR('',#506,10.0);
#508 = CARTESIAN_POINT('',(-224.333310915,58.234285148,0.));
#509 = LINE('',#508,#507);
#510 = EDGE_CURVE('',#477,#487,#509,.T.);
#511 = ORIENTED_EDGE('',*,*,#485,.T.);
#512 = ORIENTED_EDGE('',*,*,#505,.T.);
#513 = ORIENTED_EDGE('',*,*,#495,.F.);
#514 = ORIENTED_EDGE('',*,*,#510,.F.);
#515 = EDGE_LOOP('',(#511,#512,#513,#514));
#516 = FACE_OUTER_BOUND('',#515,.T.);
#517 = ADVANCED_FACE('',(#516),#500,.F.);
#518 = CARTESIAN_POINT('',(-217.333310915,58.234285148,0.));
#519 = DIRECTION('',(0.,0.,1.0));
#520 = DIRECTION('',(1.0,0.,0.));
#521 = AXIS2_PLACEMENT_3D('',#518,#519,#520);
#522 = CIRCLE('',#521,7.0);
#523 = EDGE_CURVE('',#479,#477,#522,.F.);
#524 = CARTESIAN_POINT('',(-217.333310915,58.234285148,10.0));
#525 = DIRECTION('',(0.,0.,1.0));
#526 = DIRECTION('',(1.0,0.,0.));
#527 = AXIS2_PLACEMENT_3D('',#524,#525,#526);
#528 = CIRCLE('',#527,7.0);
#529 = EDGE_CURVE('',#489,#487,#528,.F.);
#530 = CARTESIAN_POINT('',(-217.333310915,58.234285148,0.));
#531 = DIRECTION('',(0.,0.,1.0));
#532 = DIRECTION('',(1.0,0.,0.));
#533 = AXIS2_PLACEMENT_3D('',#530,#531,#532);
#534 = CYLINDRICAL_SURFACE('',#533,7.0);
#535 = ORIENTED_EDGE('',*,*,#523,.T.);
#536 = ORIENTED_EDGE('',*,*,#510,.T.);
#537 = ORIENTED_EDGE('',*,*,#529,.F.);
#538 = ORIENTED_EDGE('',*,*,#505,.F.);
#539 = EDGE_LOOP('',(#535,#536,#537,#538));
#540 = FACE_OUTER_BOUND('',#539,.T.);
#541 = ADVANCED_FACE('',(#540),#534,.F.);
#542 = CARTESIAN_POINT('',(-224.333310915,-58.234285148,0.));
#543 = VERTEX_POINT('',#542);
#544 = CARTESIAN_POINT('',(-210.333310915,-58.234285148,0.));
#545 = VERTEX_POINT('',#544);
#546 = CARTESIAN_POINT('',(-217.333310915,-58.234285148,0.));
#547 = DIRECTION('',(0.,0.,1.0));
#548 = DIRECTION('',(1.0,0.,0.));
#549 = AXIS2_PLACEMENT_3D('',#546,#547,#548);
#550 = CIRCLE('',#549,7.0);
#551 = EDGE_CURVE('',#543,#545,#550,.F.);
#552 = CARTESIAN_POINT('',(-224.333310915,-58.234285148,10.0));
#553 = VERTEX_POINT('',#552);
#554 = CARTESIAN_POINT('',(-210.333310915,-58.234285148,10.0));
#555 = VERTEX_POINT('',#554);
#556 = CARTESIAN_POINT('',(-217.333310915,-58.234285148,10.0));
#557 = DIRECTION('',(0.,0.,1.0));
#558 = DIRECTION('',(1.0,0.,0.));
#559 = AXIS2_PLACEMENT_3D('',#556,#557,#558);
#560 = CIRCLE('',#559,7.0);
#561 = EDGE_CURVE('',#553,#555,#560,.F.);
#562 = CARTESIAN_POINT('',(-217.333310915,-58.234285148,0.));
#563 = DIRECTION('',(0.,0.,1.0));
#564 = DIRECTION('',(1.0,0.,0.));
#565 = AXIS2_PLACEMENT_3D('',#562,#563,#564);
#566 = CYLINDRICAL_SURFACE('',#565,7.0);
#567 = DIRECTION('',(0.,0.,1.0));
#568 = VECTOR('',#567,10.0);
#569 = CARTESIAN_POINT('',(-210.333310915,-58.234285148,0.));
#570 = LINE('',#569,#568);
#571 = EDGE_CURVE('',#545,#555,#570,.T.);
#572 = DIRECTION('',(0.,0.,1.0));
#573 = VECTOR('',#572,10.0);
#574 = CARTESIAN_POINT('',(-224.333310915,-58.234285148,0.));
#575 = LINE('',#574,#573);
#576 = EDGE_CURVE('',#543,#553,#575,.T.);
#577 = ORIENTED_EDGE('',*,*,#551,.T.);
#578 = ORIENTED_EDGE('',*,*,#571,.T.);
#579 = ORIENTED_EDGE('',*,*,#561,.F.);
#580 = ORIENTED_EDGE('',*,*,#576,.F.);
#581 = EDGE_LOOP('',(#577,#578,#579,#580));
#582 = FACE_OUTER_BOUND('',#581,.T.);
#583 = ADVANCED_FACE('',(#582),#566,.F.);
#584 = CARTESIAN_POINT('',(-217.333310915,-58.234285148,0.));
#585 = DIRECTION('',(0.,0.,1.0));
#586 = DIRECTION('',(1.0,0.,0.));
#587 = AXIS2_PLACEMENT_3D('',#584,#585,#586);
#588 = CIRCLE('',#587,7.0);
#589 = EDGE_CURVE('',#545,#543,#588,.F.);
#590 = CARTESIAN_POINT('',(-217.333310915,-58.234285148,10.0));
#591 = DIRECTION('',(0.,0.,1.0));
#592 = DIRECTION('',(1.0,0.,0.));
#593 = AXIS2_PLACEMENT_3D('',#590,#591,#592);
#594 = CIRCLE('',#593,7.0);
#595 = EDGE_CURVE('',#555,#553,#594,.F.);
#596 = CARTESIAN_POINT('',(-217.333310915,-58.234285148,0.));
#597 = DIRECTION('',(0.,0.,1.0));
#598 = DIRECTION('',(1.0,0.,0.));
#599 = AXIS2_PLACEMENT_3D('',#596,#597,#598);
#600 = CYLINDRICAL_SURFACE('',#599,7.0);
#601 = ORIENTED_EDGE('',*,*,#589,.T.);
#602 = ORIENTED_EDGE('',*,*,#576,.T.);
#603 = ORIENTED_EDGE('',*,*,#595,.F.);
#604 = ORIENTED_EDGE('',*,*,#571,.F.);
#605 = EDGE_LOOP('',(#601,#602,#603,#604));
#606 = FACE_OUTER_BOUND('',#605,.T.);
#607 = ADVANCED_FACE('',(#606),#600,.F.);
#608 = CARTESIAN_POINT('',(-166.099025767,-159.099025767,0.));
#609 = VERTEX_POINT('',#608);
#610 = CARTESIAN_POINT('',(-152.099025767,-159.099025767,0.));
#611 = VERTEX_POINT('',#610);
#612 = CARTESIAN_POINT('',(-159.099025767,-159.099025767,0.));
#613 = DIRECTION('',(0.,0.,1.0));
#614 = DIRECTION('',(1.0,0.,0.));
#615 = AXIS2_PLACEMENT_3D('',#612,#613,#614);
#616 = CIRCLE('',#615,7.0);
#617 = EDGE_CURVE('',#609,#611,#616,.F.);
#618 = CARTESIAN_POINT('',(-166.099025767,-159.099025767,10.0));
#619 = VERTEX_POINT('',#618);
#620 = CARTESIAN_POINT('',(-152.099025767,-159.099025767,10.0));
#621 = VERTEX_POINT('',#620);
#622 = CARTESIAN_POINT('',(-159.099025767,-159.099025767,10.0));
#623 = DIRECTION('',(0.,0.,1.0));
#624 = DIRECTION('',(1.0,0.,0.));
#625 = AXIS2_PLACEMENT_3D('',#622,#623,#624);
#626 = CIRCLE('',#625,7.0);
#627 = EDGE_CURVE('',#619,#621,#626,.F.);
#628 = CARTESIAN_POINT('',(-159.099025767,-159.099025767,0.));
#629 = DIRECTION('',(0.,0.,1.0));
#630 = DIRECTION('',(1.0,0.,0.));
#631 = AXIS2_PLACEMENT_3D('',#628,#629,#630);
#632 = CYLINDRICAL_SURFACE('',#631,7.0);
#633 = DIRECTION('',(0.,0.,1.0));
#634 = VECTOR('',#633,10.0);
#635 = CARTESIAN_POINT('',(-152.099025767,-159.099025767,0.));
#636 = LINE('',#635,#634);
#637 = EDGE_CURVE('',#611,#621,#636,.T.);
#638 = DIRECTION('',(0.,0.,1.0));
#639 = VECTOR('',#638,10.0);
#640 = CARTESIAN_POINT('',(-166.099025767,-159.099025767,0.));
#641 = LINE('',#640,#639);
#642 = EDGE_CURVE('',#609,#619,#641,.T.);
#643 = ORIENTED_EDGE('',*,*,#617,.T.);
#644 = ORIENTED_EDGE('',*,*,#637,.T.);
#645 = ORIENTED_EDGE('',*,*,#627,.F.);
#646 = ORIENTED_EDGE('',*,*,#642,.F.);
#647 = EDGE_LOOP('',(#643,#644,#645,#646));
#648 = FACE_OUTER_BOUND('',#647,.T.);
#649 = ADVANCED_FACE('',(#648),#632,.F.);
#650 = CARTESIAN_POINT('',(-159.099025767,-159.099025767,0.));
#651 = DIRECTION('',(0.,0.,1.0));
#652 = DIRECTION('',(1.0,0.,0.));
#653 = AXIS2_PLACEMENT_3D('',#650,#651,#652);
#654 = CIRCLE('',#653,7.0);
#655 = EDGE_CURVE('',#611,#609,#654,.F.);
#656 = CARTESIAN_POINT('',(-159.099025767,-159.099025767,10.0));
#657 = DIRECTION('',(0.,0.,1.0));
#658 = DIRECTION('',(1.0,0.,0.));
#659 = AXIS2_PLACEMENT_3D('',#656,#657,#658);
#660 = CIRCLE('',#659,7.0);
#661 = EDGE_CURVE('',#621,#619,#660,.F.);
#662 = CARTESIAN_POINT('',(-159.099025767,-159.099025767,0.));
#663 = DIRECTION('',(0.,0.,1.0));
#664 = DIRECTION('',(1.0,0.,0.));
#665 = AXIS2_PLACEMENT_3D('',#662,#663,#664);
#666 = CYLINDRICAL_SURFACE('',#665,7.0);
#667 = ORIENTED_EDGE('',*,*,#655,.T.);
#668 = ORIENTED_EDGE('',*,*,#642,.T.);
#669 = ORIENTED_EDGE('',*,*,#661,.F.);
#670 = ORIENTED_EDGE('',*,*,#637,.F.);
#671 = EDGE_LOOP('',(#667,#668,#669,#670));
#672 = FACE_OUTER_BOUND('',#671,.T.);
#673 = ADVANCED_FACE('',(#672),#666,.F.);
#674 = CARTESIAN_POINT('',(-65.234285148,-217.333310915,0.));
#675 = VERTEX_POINT('',#674);
#676 = CARTESIAN_POINT('',(-51.234285148,-217.333310915,0.));
#677 = VERTEX_POINT('',#676);
#678 = CARTESIAN_POINT('',(-58.234285148,-217.333310915,0.));
#679 = DIRECTION('',(0.,0.,1.0));
#680 = DIRECTION('',(1.0,0.,0.));
#681 = AXIS2_PLACEMENT_3D('',#678,#679,#680);
#682 = CIRCLE('',#681,7.0);
#683 = EDGE_CURVE('',#675,#677,#682,.F.);
#684 = CARTESIAN_POINT('',(-65.234285148,-217.333310915,10.0));
#685 = VERTEX_POINT('',#684);
#686 = CARTESIAN_POINT('',(-51.234285148,-217.333310915,10.0));
#687 = VERTEX_POINT('',#686);
#688 = CARTESIAN_POINT('',(-58.234285148,-217.333310915,10.0));
#689 = DIRECTION('',(0.,0.,1.0));
#690 = DIRECTION('',(1.0,0.,0.));
#691 = AXIS2_PLACEMENT_3D('',#688,#689,#690);
#692 = CIRCLE('',#691,7.0);
#693 = EDGE_CURVE('',#685,#687,#692,.F.);
#694 = CARTESIAN_POINT('',(-58.234285148,-217.333310915,0.));
#695 = DIRECTION('',(0.,0.,1.0));
#696 = DIRECTION('',(1.0,0.,0.));
#697 = AXIS2_PLACEMENT_3D('',#694,#695,#696);
#698 = CYLINDRICAL_SURFACE('',#697,7.0);
#699 = DIRECTION('',(0.,0.,1.0));
#700 = VECTOR('',#699,10.0);
#701 = CARTESIAN_POINT('',(-51.234285148,-217.333310915,0.));
#702 = LINE('',#701,#700);
#703 = EDGE_CURVE('',#677,#687,#702,.T.);
#704 = DIRECTION('',(0.,0.,1.0));
#705 = VECTOR('',#704,10.0);
#706 = CARTESIAN_POINT('',(-65.234285148,-217.333310915,0.));
#707 = LINE('',#706,#705);
#708 = EDGE_CURVE('',#675,#685,#707,.T.);
#709 = ORIENTED_EDGE('',*,*,#683,.T.);
#710 = ORIENTED_EDGE('',*,*,#703,.T.);
#711 = ORIENTED_EDGE('',*,*,#693,.F.);
#712 = ORIENTED_EDGE('',*,*,#708,.F.);
#713 = EDGE_LOOP('',(#709,#710,#711,#712));
#714 = FACE_OUTER_BOUND('',#713,.T.);
#715 = ADVANCED_FACE('',(#714),#698,.F.);
#716 = CARTESIAN_POINT('',(-58.234285148,-217.333310915,0.));
#717 = DIRECTION('',(0.,0.,1.0));
#718 = DIRECTION('',(1.0,0.,0.));
#719 = AXIS2_PLACEMENT_3D('',#716,#717,#718);
#720 = CIRCLE('',#719,7.0);
#721 = EDGE_CURVE('',#677,#675,#720,.F.);
#722 = CARTESIAN_POINT('',(-58.234285148,-217.333310915,10.0));
#723 = DIRECTION('',(0.,0.,1.0));
#724 = DIRECTION('',(1.0,0.,0.));
#725 = AXIS2_PLACEMENT_3D('',#722,#723,#724);
#726 = CIRCLE('',#725,7.0);
#727 = EDGE_CURVE('',#687,#685,#726,.F.);
#728 = CARTESIAN_POINT('',(-58.234285148,-217.333310915,0.));
#729 = DIRECTION('',(0.,0.,1.0));
#730 = DIRECTION('',(1.0,0.,0.));
#731 = AXIS2_PLACEMENT_3D('',#728,#729,#730);
#732 = CYLINDRICAL_SURFACE('',#731,7.0);
#733 = ORIENTED_EDGE('',*,*,#721,.T.);
#734 = ORIENTED_EDGE('',*,*,#708,.T.);
#735 = ORIENTED_EDGE('',*,*,#727,.F.);
#736 = ORIENTED_EDGE('',*,*,#703,.F.);
#737 = EDGE_LOOP('',(#733,#734,#735,#736));
#738 = FACE_OUTER_BOUND('',#737,.T.);
#739 = ADVANCED_FACE('',(#738),#732,.F.);
#740 = CARTESIAN_POINT('',(51.234285148,-217.333310915,0.));
#741 = VERTEX_POINT('',#740);
#742 = CARTESIAN_POINT('',(65.234285148,-217.333310915,0.));
#743 = VERTEX_POINT('',#742);
#744 = CARTESIAN_POINT('',(58.234285148,-217.333310915,0.));
#745 = DIRECTION('',(0.,0.,1.0));
#746 = DIRECTION('',(1.0,0.,0.));
#747 = AXIS2_PLACEMENT_3D('',#744,#745,#746);
#748 = CIRCLE('',#747,7.0);
#749 = EDGE_CURVE('',#741,#743,#748,.F.);
#750 = CARTESIAN_POINT('',(51.234285148,-217.333310915,10.0));
#751 = VERTEX_POINT('',#750);
#752 = CARTESIAN_POINT('',(65.234285148,-217.333310915,10.0));
#753 = VERTEX_POINT('',#752);
#754 = CARTESIAN_POINT('',(58.234285148,-217.333310915,10.0));
#755 = DIRECTION('',(0.,0.,1.0));
#756 = DIRECTION('',(1.0,0.,0.));
#757 = AXIS2_PLACEMENT_3D('',#754,#755,#756);
#758 = CIRCLE('',#757,7.0);
#759 = EDGE_CURVE('',#751,#753,#758,.F.);
#760 = CARTESIAN_POINT('',(58.234285148,-217.333310915,0.));
#761 = DIRECTION('',(0.,0.,1.0));
#762 = DIRECTION('',(1.0,0.,0.));
#763 = AXIS2_PLACEMENT_3D('',#760,#761,#762);
#764 = CYLINDRICAL_SURFACE('',#763,7.0);
#765 = DIRECTION('',(0.,0.,1.0));
#766 = VECTOR('',#765,10.0);
#767 = CARTESIAN_POINT('',(65.234285148,-217.333310915,0.));
#768 = LINE('',#767,#766);
#769 = EDGE_CURVE('',#743,#753,#768,.T.);
#770 = DIRECTION('',(0.,0.,1.0));
#771 = VECTOR('',#770,10.0);
#772 = CARTESIAN_POINT('',(51.234285148,-217.333310915,0.));
#773 = LINE('',#772,#771);
#774 = EDGE_CURVE('',#741,#751,#773,.T.);
#775 = ORIENTED_EDGE('',*,*,#749,.T.);
#776 = ORIENTED_EDGE('',*,*,#769,.T.);
#777 = ORIENTED_EDGE('',*,*,#759,.F.);
#778 = ORIENTED_EDGE('',*,*,#774,.F.);
#779 = EDGE_LOOP('',(#775,#776,#777,#778));
#780 = FACE_OUTER_BOUND('',#779,.T.);
#781 = ADVANCED_FACE('',(#780),#764,.F.);
#782 = CARTESIAN_POINT('',(58.234285148,-217.333310915,0.));
#783 = DIRECTION('',(0.,0.,1.0));
#784 = DIRECTION('',(1.0,0.,0.));
#785 = AXIS2_PLACEMENT_3D('',#782,#783,#784);
#786 = CIRCLE('',#785,7.0);
#787 = EDGE_CURVE('',#743,#741,#786,.F.);
#788 = CARTESIAN_POINT('',(58.234285148,-217.333310915,10.0));
#789 = DIRECTION('',(0.,0.,1.0));
#790 = DIRECTION('',(1.0,0.,0.));
#791 = AXIS2_PLACEMENT_3D('',#788,#789,#790);
#792 = CIRCLE('',#791,7.0);
#793 = EDGE_CURVE('',#753,#751,#792,.F.);
#794 = CARTESIAN_POINT('',(58.234285148,-217.333310915,0.));
#795 = DIRECTION('',(0.,0.,1.0));
#796 = DIRECTION('',(1.0,0.,0.));
#797 = AXIS2_PLACEMENT_3D('',#794,#795,#796);
#798 = CYLINDRICAL_SURFACE('',#797,7.0);
#799 = ORIENTED_EDGE('',*,*,#787,.T.);
#800 = ORIENTED_EDGE('',*,*,#774,.T.);
#801 = ORIENTED_EDGE('',*,*,#793,.F.);
#802 = ORIENTED_EDGE('',*,*,#769,.F.);
#803 = EDGE_LOOP('',(#799,#800,#801,#802));
#804 = FACE_OUTER_BOUND('',#803,.T.);
#805 = ADVANCED_FACE('',(#804),#798,.F.);
#806 = CARTESIAN_POINT('',(152.099025767,-159.099025767,0.));
#807 = VERTEX_POINT('',#806);
#808 = CARTESIAN_POINT('',(166.099025767,-159.099025767,0.));
#809 = VERTEX_POINT('',#808);
#810 = CARTESIAN_POINT('',(159.099025767,-159.099025767,0.));
#811 = DIRECTION('',(0.,0.,1.0));
#812 = DIRECTION('',(1.0,0.,0.));
#813 = AXIS2_PLACEMENT_3D('',#810,#811,#812);
#814 = CIRCLE('',#813,7.0);
#815 = EDGE_CURVE('',#807,#809,#814,.F.);
#816 = CARTESIAN_POINT('',(152.099025767,-159.099025767,10.0));
#817 = VERTEX_POINT('',#816);
#818 = CARTESIAN_POINT('',(166.099025767,-159.099025767,10.0));
#819 = VERTEX_POINT('',#818);
#820 = CARTESIAN_POINT('',(159.099025767,-159.099025767,10.0));
#821 = DIRECTION('',(0.,0.,1.0));
#822 = DIRECTION('',(1.0,0.,0.));
#823 = AXIS2_PLACEMENT_3D('',#820,#821,#822);
#824 = CIRCLE('',#823,7.0);
#825 = EDGE_CURVE('',#817,#819,#824,.F.);
#826 = CARTESIAN_POINT('',(159.099025767,-159.099025767,0.));
#827 = DIRECTION('',(0.,0.,1.0));
#828 = DIRECTION('',(1.0,0.,0.));
#829 = AXIS2_PLACEMENT_3D('',#826,#827,#828);
#830 = CYLINDRICAL_SURFACE('',#829,7.0);
#831 = DIRECTION('',(0.,0.,1.0));
#832 = VECTOR('',#831,10.0);
#833 = CARTESIAN_POINT('',(166.099025767,-159.099025767,0.));
#834 = LINE('',#833,#832);
#835 = EDGE_CURVE('',#809,#819,#834,.T.);
#836 = DIRECTION('',(0.,0.,1.0));
#837 = VECTOR('',#836,10.0);
#838 = CARTESIAN_POINT('',(152.099025767,-159.099025767,0.));
#839 = LINE('',#838,#837);
#840 = EDGE_CURVE('',#807,#817,#839,.T.);
#841 = ORIENTED_EDGE('',*,*,#815,.T.);
#842 = ORIENTED_EDGE('',*,*,#835,.T.);
#843 = ORIENTED_EDGE('',*,*,#825,.F.);
#844 = ORIENTED_EDGE('',*,*,#840,.F.);
#845 = EDGE_LOOP('',(#841,#842,#843,#844));
#846 = FACE_OUTER_BOUND('',#845,.T.);
#847 = ADVANCED_FACE('',(#846),#830,.F.);
#848 = CARTESIAN_POINT('',(159.099025767,-159.099025767,0.));
#849 = DIRECTION('',(0.,0.,1.0));
#850 = DIRECTION('',(1.0,0.,0.));
#851 = AXIS2_PLACEMENT_3D('',#848,#849,#850);
#852 = CIRCLE('',#851,7.0);
#853 = EDGE_CURVE('',#809,#807,#852,.F.);
#854 = CARTESIAN_POINT('',(159.099025767,-159.099025767,10.0));
#855 = DIRECTION('',(0.,0.,1.0));
#856 = DIRECTION('',(1.0,0.,0.));
#857 = AXIS2_PLACEMENT_3D('',#854,#855,#856);
#858 = CIRCLE('',#857,7.0);
#859 = EDGE_CURVE('',#819,#817,#858,.F.);
#860 = CARTESIAN_POINT('',(159.099025767,-159.099025767,0.));
#861 = DIRECTION('',(0.,0.,1.0));
#862 = DIRECTION('',(1.0,0.,0.));
#863 = AXIS2_PLACEMENT_3D('',#860,#861,#862);
#864 = CYLINDRICAL_SURFACE('',#863,7.0);
#865 = ORIENTED_EDGE('',*,*,#853,.T.);
#866 = ORIENTED_EDGE('',*,*,#840,.T.);
#867 = ORIENTED_EDGE('',*,*,#859,.F.);
#868 = ORIENTED_EDGE('',*,*,#835,.F.);
#869 = EDGE_LOOP('',(#865,#866,#867,#868));
#870 = FACE_OUTER_BOUND('',#869,.T.);
#871 = ADVANCED_FACE('',(#870),#864,.F.);
#872 = CARTESIAN_POINT('',(210.333310915,-58.234285148,0.));
#873 = VERTEX_POINT('',#872);
#874 = CARTESIAN_POINT('',(224.333310915,-58.234285148,0.));
#875 = VERTEX_POINT('',#874);
#876 = CARTESIAN_POINT('',(217.333310915,-58.234285148,0.));
#877 = DIRECTION('',(0.,0.,1.0));
#878 = DIRECTION('',(1.0,0.,0.));
#879 = AXIS2_PLACEMENT_3D('',#876,#877,#878);
#880 = CIRCLE('',#879,7.0);
#881 = EDGE_CURVE('',#873,#875,#880,.F.);
#882 = CARTESIAN_POINT('',(210.333310915,-58.234285148,10.0));
#883 = VERTEX_POINT('',#882);
#884 = CARTESIAN_POINT('',(224.333310915,-58.234285148,10.0));
#885 = VERTEX_POINT('',#884);
#886 = CARTESIAN_POINT('',(217.333310915,-58.234285148,10.0));
#887 = DIRECTION('',(0.,0.,1.0));
#888 = DIRECTION('',(1.0,0.,0.));
#889 = AXIS2_PLACEMENT_3D('',#886,#887,#888);
#890 = CIRCLE('',#889,7.0);
#891 = EDGE_CURVE('',#883,#885,#890,.F.);
#892 = CARTESIAN_POINT('',(217.333310915,-58.234285148,0.));
#893 = DIRECTION('',(0.,0.,1.0));
#894 = DIRECTION('',(1.0,0.,0.));
#895 = AXIS2_PLACEMENT_3D('',#892,#893,#894);
#896 = CYLINDRICAL_SURFACE('',#895,7.0);
#897 = DIRECTION('',(0.,0.,1.0));
#898 = VECTOR('',#897,10.0);
#899 = CARTESIAN_POINT('',(224.333310915,-58.234285148,0.));
#900 = LINE('',#899,#898);
#901 = EDGE_CURVE('',#875,#885,#900,.T.);
#902 = DIRECTION('',(0.,0.,1.0));
#903 = VECTOR('',#902,10.0);
#904 = CARTESIAN_POINT('',(210.333310915,-58.234285148,0.));
#905 = LINE('',#904,#903);
#906 = EDGE_CURVE('',#873,#883,#905,.T.);
#907 = ORIENTED_EDGE('',*,*,#881,.T.);
#908 = ORIENTED_EDGE('',*,*,#901,.T.);
#909 = ORIENTED_EDGE('',*,*,#891,.F.);
#910 = ORIENTED_EDGE('',*,*,#906,.F.);
#911 = EDGE_LOOP('',(#907,#908,#909,#910));
#912 = FACE_OUTER_BOUND('',#911,.T.);
#913 = ADVANCED_FACE('',(#912),#896,.F.);
#914 = CARTESIAN_POINT('',(217.333310915,-58.234285148,0.));
#915 = DIRECTION('',(0.,0.,1.0));
#916 = DIRECTION('',(1.0,0.,0.));
#917 = AXIS2_PLACEMENT_3D('',#914,#915,#916);
#918 = CIRCLE('',#917,7.0);
#919 = EDGE_CURVE('',#875,#873,#918,.F.);
#920 = CARTESIAN_POINT('',(217.333310915,-58.234285148,10.0));
#921 = DIRECTION('',(0.,0.,1.0));
#922 = DIRECTION('',(1.0,0.,0.));
#923 = AXIS2_PLACEMENT_3D('',#920,#921,#922);
#924 = CIRCLE('',#923,7.0);
#925 = EDGE_CURVE('',#885,#883,#924,.F.);
#926 = CARTESIAN_POINT('',(217.333310915,-58.234285148,0.));
#927 = DIRECTION('',(0.,0.,1.0));
#928 = DIRECTION('',(1.0,0.,0.));
#929 = AXIS2_PLACEMENT_3D('',#926,#927,#928);
#930 = CYLINDRICAL_SURFACE('',#929,7.0);
#931 = ORIENTED_EDGE('',*,*,#919,.T.);
#932 = ORIENTED_EDGE('',*,*,#906,.T.);
#933 = ORIENTED_EDGE('',*,*,#925,.F.);
#934 = ORIENTED_EDGE('',*,*,#901,.F.);
#935 = EDGE_LOOP('',(#931,#932,#933,#934));
#936 = FACE_OUTER_BOUND('',#935,.T.);
#937 = ADVANCED_FACE('',(#936),#930,.F.);
#938 = CARTESIAN_POINT('',(0.,0.,10.0));
#939 = DIRECTION('',(0.,0.,1.0));
#940 = DIRECTION('',(1.0,0.,0.));
#941 = AXIS2_PLACEMENT_3D('',#938,#939,#940);
#942 = PLANE('',#941);
#943 = ORIENTED_EDGE('',*,*,#33,.T.);
#944 = ORIENTED_EDGE('',*,*,#67,.T.);
#945 = EDGE_LOOP('',(#943,#944));
#946 = FACE_OUTER_BOUND('',#945,.T.);
#947 = ORIENTED_EDGE('',*,*,#99,.T.);
#948 = ORIENTED_EDGE('',*,*,#133,.T.);
#949 = EDGE_LOOP('',(#947,#948));
#950 = FACE_BOUND('',#949,.T.);
#951 = ORIENTED_EDGE('',*,*,#165,.T.);
#952 = ORIENTED_EDGE('',*,*,#199,.T.);
#953 = EDGE_LOOP('',(#951,#952));
#954 = FACE_BOUND('',#953,.T.);
#955 = ORIENTED_EDGE('',*,*,#231,.T.);
#956 = ORIENTED_EDGE('',*,*,#265,.T.);
#957 = EDGE_LOOP('',(#955,#956));
#958 = FACE_BOUND('',#957,.T.);
#959 = ORIENTED_EDGE('',*,*,#297,.T.);
#960 = ORIENTED_EDGE('',*,*,#331,.T.);
#961 = EDGE_LOOP('',(#959,#960));
#962 = FACE_BOUND('',#961,.T.);
#963 = ORIENTED_EDGE('',*,*,#363,.T.);
#964 = ORIENTED_EDGE('',*,*,#397,.T.);
#965 = EDGE_LOOP('',(#963,#964));
#966 = FACE_BOUND('',#965,.T.);
#967 = ORIENTED_EDGE('',*,*,#429,.T.);
#968 = ORIENTED_EDGE('',*,*,#463,.T.);
#969 = EDGE_LOOP('',(#967,#968));
#970 = FACE_BOUND('',#969,.T.);
#971 = ORIENTED_EDGE('',*,*,#495,.T.);
#972 = ORIENTED_EDGE('',*,*,#529,.T.);
#973 = EDGE_LOOP('',(#971,#972));
#974 = FACE_BOUND('',#973,.T.);
#975 = ORIENTED_EDGE('',*,*,#561,.T.);
#976 = ORIENTED_EDGE('',*,*,#595,.T.);
#977 = EDGE_LOOP('',(#975,#976));
#978 = FACE_BOUND('',#977,.T.);
#979 = ORIENTED_EDGE('',*,*,#627,.T.);
#980 = ORIENTED_EDGE('',*,*,#661,.T.);
#981 = EDGE_LOOP('',(#979,#980));
#982 = FACE_BOUND('',#981,.T.);
#983 = ORIENTED_EDGE('',*,*,#693,.T.);
#984 = ORIENTED_EDGE('',*,*,#727,.T.);
#985 = EDGE_LOOP('',(#983,#984));
#986 = FACE_BOUND('',#985,.T.);
#987 = ORIENTED_EDGE('',*,*,#759,.T.);
#988 = ORIENTED_EDGE('',*,*,#793,.T.);
#989 = EDGE_LOOP('',(#987,#988));
#990 = FACE_BOUND('',#989,.T.);
#991 = ORIENTED_EDGE('',*,*,#825,.T.);
#992 = ORIENTED_EDGE('',*,*,#859,.T.);
#993 = EDGE_LOOP('',(#991,#992));
#994 = FACE_BOUND('',#993,.T.);
#995 = ORIENTED_EDGE('',*,*,#891,.T.);
#996 = ORIENTED_EDGE('',*,*,#925,.T.);
#997 = EDGE_LOOP('',(#995,#996));
#998 = FACE_BOUND('',#997,.T.);
#999 = ADVANCED_FACE('',(#946,#950,#954,#958,#962,#966,#970,#974,#978,#982,#986,#990,#994,#998),#942,.T.);
#1000 = CARTESIAN_POINT('',(0.,0.,0.));
#1001 = DIRECTION('',(0.,0.,-1.0));
#1002 = DIRECTION('',(1.0,0.,0.));
#1003 = AXIS2_PLACEMENT_3D('',#1000,#1001,#1002);
#1004 = PLANE('',#1003);
#1005 = ORIENTED_EDGE('',*,*,#61,.F.);
#1006 = ORIENTED_EDGE('',*,*,#23,.F.);
#1007 = EDGE_LOOP('',(#1005,#1006));
#1008 = FACE_OUTER_BOUND('',#1007,.T.);
#1009 = ORIENTED_EDGE('',*,*,#127,.F.);
#1010 = ORIENTED_EDGE('',*,*,#89,.F.);
#1011 = EDGE_LOOP('',(#1009,#1010));
#1012 = FACE_BOUND('',#1011,.T.);
#1013 = ORIENTED_EDGE('',*,*,#193,.F.);
#1014 = ORIENTED_EDGE('',*,*,#155,.F.);
#1015 = EDGE_LOOP('',(#1013,#1014));
#1016 = FACE_BOUND('',#1015,.T.);
#1017 = ORIENTED_EDGE('',*,*,#259,.F.);
#1018 = ORIENTED_EDGE('',*,*,#221,.F.);
#1019 = EDGE_LOOP('',(#1017,#1018));
#1020 = FACE_BOUND('',#1019,.T.);
#1021 = ORIENTED_EDGE('',*,*,#325,.F.);
#1022 = ORIENTED_EDGE('',*,*,#287,.F.);
#1023 = EDGE_LOOP('',(#1021,#1022));
#1024 = FACE_BOUND('',#1023,.T.);
#1025 = ORIENTED_EDGE('',*,*,#391,.F.);
#1026 = ORIENTED_EDGE('',*,*,#353,.F.);
#1027 = EDGE_LOOP('',(#1025,#1026));
#1028 = FACE_BOUND('',#1027,.T.);
#1029 = ORIENTED_EDGE('',*,*,#457,.F.);
#1030 = ORIENTED_EDGE('',*,*,#419,.F.);
#1031 = EDGE_LOOP('',(#1029,#1030));
#1032 = FACE_BOUND('',#1031,.T.);
#1033 = ORIENTED_EDGE('',*,*,#523,.F.);
#1034 = ORIENTED_EDGE('',*,*,#485,.F.);
#1035 = EDGE_LOOP('',(#1033,#1034));
#1036 = FACE_BOUND('',#1035,.T.);
#1037 = ORIENTED_EDGE('',*,*,#589,.F.);
#1038 = ORIENTED_EDGE('',*,*,#551,.F.);
#1039 = EDGE_LOOP('',(#1037,#1038));
#1040 = FACE_BOUND('',#1039,.T.);
#1041 = ORIENTED_EDGE('',*,*,#655,.F.);
#1042 = ORIENTED_EDGE('',*,*,#617,.F.);
#1043 = EDGE_LOOP('',(#1041,#1042));
#1044 = FACE_BOUND('',#1043,.T.);
#1045 = ORIENTED_EDGE('',*,*,#721,.F.);
#1046 = ORIENTED_EDGE('',*,*,#683,.F.);
#1047 = EDGE_LOOP('',(#1045,#1046));
#1048 = FACE_BOUND('',#1047,.T.);
#1049 = ORIENTED_EDGE('',*,*,#787,.F.);
#1050 = ORIENTED_EDGE('',*,*,#749,.F.);
#1051 = EDGE_LOOP('',(#1049,#1050));
#1052 = FACE_BOUND('',#1051,.T.);
#1053 = ORIENTED_EDGE('',*,*,#853,.F.);
#1054 = ORIENTED_EDGE('',*,*,#815,.F.);
#1055 = EDGE_LOOP('',(#1053,#1054));
#1056 = FACE_BOUND('',#1055,.T.);
#1057 = ORIENTED_EDGE('',*,*,#919,.F.);
#1058 = ORIENTED_EDGE('',*,*,#881,.F.);
#1059 = EDGE_LOOP('',(#1057,#1058));
#1060 = FACE_BOUND('',#1059,.T.);
#1061 = ADVANCED_FACE('',(#1008,#1012,#1016,#1020,#1024,#1028,#1032,#1036,#1040,#1044,#1048,#1052,#1056,#1060),#1004,.T.);
#1062 = CLOSED_SHELL('',(#55,#79,#121,#145,#187,#211,#253,#277,#319,#343,#385,#409,#451,#475,#517,#541,#583,#607,#649,#673,#715,#739,#781,#805,#847,#871,#913,#937,#999,#1061));
#1063 = CARTESIAN_POINT('',(0.,0.,0.));
#1064 = DIRECTION('',(0.,0.,1.0));
#1065 = DIRECTION('',(1.0,0.,0.));
#1066 = AXIS2_PLACEMENT_3D('',#1063,#1064,#1065);
#1067 = MANIFOLD_SOLID_BREP('A-05',#1062);
#1068 = ADVANCED_BREP_SHAPE_REPRESENTATION('A-05',(#1067,#1066),#5);
#1069 = SHAPE_DEFINITION_REPRESENTATION(#13,#1068);
ENDSEC;
END-ISO-10303-21;
