ISO-10303-21;
HEADER;
FILE_DESCRIPTION(('F-04'),'2;1');
FILE_NAME('F-04','2026-09-10T00:00:00',('Dynamic Industry'),('Dynamic Industry'),'mp50_cad','MP-50','');
FILE_SCHEMA(('AUTOMOTIVE_DESIGN { 1 0 10303 214 1 1 1 1 }'));
ENDSEC;
DATA;
#1 = ( LENGTH_UNIT() NAMED_UNIT(*) SI_UNIT(.MILLI.,.METRE.) );
#2 = ( NAMED_UNIT(*) PLANE_ANGLE_UNIT() SI_UNIT($,.RADIAN.) );
#3 = ( NAMED_UNIT(*) SI_UNIT($,.STERADIAN.) SOLID_ANGLE_UNIT() );
#4 = UNCERTAINTY_MEASURE_WITH_UNIT(LENGTH_MEASURE(1.E-06),#1,'distance_accuracy_value','confusion accuracy');
#5 = ( GEOMETRIC_REPRESENTATION_CONTEXT(3) GLOBAL_UNCERTAINTY_ASSIGNED_CONTEXT((#4)) GLOBAL_UNIT_ASSIGNED_CONTEXT((#1,#2,#3)) REPRESENTATION_CONTEXT('','3D') );
#6 = APPLICATION_CONTEXT('automotive design');
#7 = APPLICATION_PROTOCOL_DEFINITION('international standard','automotive_design',2000,#6);
#8 = PRODUCT_CONTEXT('',#6,'mechanical');
#9 = PRODUCT_DEFINITION_CONTEXT('part definition',#6,'design');
#10 = PRODUCT('F-04','F-04','',(#8));
#11 = PRODUCT_DEFINITION_FORMATION('','',#10);
#12 = PRODUCT_DEFINITION('design','',#11,#9);
#13 = PRODUCT_DEFINITION_SHAPE('','',#12);
#14 = CARTESIAN_POINT('',(2.0,0.,0.));
#15 = VERTEX_POINT('',#14);
#16 = CARTESIAN_POINT('',(58.0,0.,0.));
#17 = VERTEX_POINT('',#16);
#18 = DIRECTION('',(1.0,0.,0.));
#19 = VECTOR('',#18,56.0);
#20 = CARTESIAN_POINT('',(2.0,0.,0.));
#21 = LINE('',#20,#19);
#22 = EDGE_CURVE('',#15,#17,#21,.T.);
#23 = CARTESIAN_POINT('',(2.0,0.,3.0));
#24 = VERTEX_POINT('',#23);
#25 = CARTESIAN_POINT('',(58.0,0.,3.0));
#26 = VERTEX_POINT('',#25);
#27 = DIRECTION('',(1.0,0.,0.));
#28 = VECTOR('',#27,56.0);
#29 = CARTESIAN_POINT('',(2.0,0.,3.0));
#30 = LINE('',#29,#28);
#31 = EDGE_CURVE('',#24,#26,#30,.T.);
#32 = CARTESIAN_POINT('',(2.0,0.,0.));
#33 = DIRECTION('',(0.,-1.0,0.));
#34 = DIRECTION('',(1.0,0.,0.));
#35 = AXIS2_PLACEMENT_3D('',#32,#33,#34);
#36 = PLANE('',#35);
#37 = DIRECTION('',(0.,0.,1.0));
#38 = VECTOR('',#37,3.0);
#39 = CARTESIAN_POINT('',(58.0,0.,0.));
#40 = LINE('',#39,#38);
#41 = EDGE_CURVE('',#17,#26,#40,.T.);
#42 = DIRECTION('',(0.,0.,1.0));
#43 = VECTOR('',#42,3.0);
#44 = CARTESIAN_POINT('',(2.0,0.,0.));
#45 = LINE('',#44,#43);
#46 = EDGE_CURVE('',#15,#24,#45,.T.);
#47 = ORIENTED_EDGE('',*,*,#22,.T.);
#48 = ORIENTED_EDGE('',*,*,#41,.T.);
#49 = ORIENTED_EDGE('',*,*,#31,.F.);
#50 = ORIENTED_EDGE('',*,*,#46,.F.);
#51 = EDGE_LOOP('',(#47,#48,#49,#50));
#52 = FACE_OUTER_BOUND('',#51,.T.);
#53 = ADVANCED_FACE('',(#52),#36,.T.);
#54 = CARTESIAN_POINT('',(60.0,2.0,0.));
#55 = VERTEX_POINT('',#54);
#56 = CARTESIAN_POINT('',(58.0,2.0,0.));
#57 = DIRECTION('',(0.,0.,1.0));
#58 = DIRECTION('',(1.0,0.,0.));
#59 = AXIS2_PLACEMENT_3D('',#56,#57,#58);
#60 = CIRCLE('',#59,2.0);
#61 = EDGE_CURVE('',#17,#55,#60,.T.);
#62 = CARTESIAN_POINT('',(60.0,2.0,3.0));
#63 = VERTEX_POINT('',#62);
#64 = CARTESIAN_POINT('',(58.0,2.0,3.0));
#65 = DIRECTION('',(0.,0.,1.0));
#66 = DIRECTION('',(1.0,0.,0.));
#67 = AXIS2_PLACEMENT_3D('',#64,#65,#66);
#68 = CIRCLE('',#67,2.0);
#69 = EDGE_CURVE('',#26,#63,#68,.T.);
#70 = CARTESIAN_POINT('',(58.0,2.0,0.));
#71 = DIRECTION('',(0.,0.,1.0));
#72 = DIRECTION('',(1.0,0.,0.));
#73 = AXIS2_PLACEMENT_3D('',#70,#71,#72);
#74 = CYLINDRICAL_SURFACE('',#73,2.0);
#75 = DIRECTION('',(0.,0.,1.0));
#76 = VECTOR('',#75,3.0);
#77 = CARTESIAN_POINT('',(60.0,2.0,0.));
#78 = LINE('',#77,#76);
#79 = EDGE_CURVE('',#55,#63,#78,.T.);
#80 = ORIENTED_EDGE('',*,*,#61,.T.);
#81 = ORIENTED_EDGE('',*,*,#79,.T.);
#82 = ORIENTED_EDGE('',*,*,#69,.F.);
#83 = ORIENTED_EDGE('',*,*,#41,.F.);
#84 = EDGE_LOOP('',(#80,#81,#82,#83));
#85 = FACE_OUTER_BOUND('',#84,.T.);
#86 = ADVANCED_FACE('',(#85),#74,.T.);
#87 = CARTESIAN_POINT('',(60.0,28.0,0.));
#88 = VERTEX_POINT('',#87);
#89 = DIRECTION('',(0.,1.0,0.));
#90 = VECTOR('',#89,26.0);
#91 = CARTESIAN_POINT('',(60.0,2.0,0.));
#92 = LINE('',#91,#90);
#93 = EDGE_CURVE('',#55,#88,#92,.T.);
#94 = CARTESIAN_POINT('',(60.0,28.0,3.0));
#95 = VERTEX_POINT('',#94);
#96 = DIRECTION('',(0.,1.0,0.));
#97 = VECTOR('',#96,26.0);
#98 = CARTESIAN_POINT('',(60.0,2.0,3.0));
#99 = LINE('',#98,#97);
#100 = EDGE_CURVE('',#63,#95,#99,.T.);
#101 = CARTESIAN_POINT('',(60.0,2.0,0.));
#102 = DIRECTION('',(1.0,0.,0.));
#103 = DIRECTION('',(0.,1.0,0.));
#104 = AXIS2_PLACEMENT_3D('',#101,#102,#103);
#105 = PLANE('',#104);
#106 = DIRECTION('',(0.,0.,1.0));
#107 = VECTOR('',#106,3.0);
#108 = CARTESIAN_POINT('',(60.0,28.0,0.));
#109 = LINE('',#108,#107);
#110 = EDGE_CURVE('',#88,#95,#109,.T.);
#111 = ORIENTED_EDGE('',*,*,#93,.T.);
#112 = ORIENTED_EDGE('',*,*,#110,.T.);
#113 = ORIENTED_EDGE('',*,*,#100,.F.);
#114 = ORIENTED_EDGE('',*,*,#79,.F.);
#115 = EDGE_LOOP('',(#111,#112,#113,#114));
#116 = FACE_OUTER_BOUND('',#115,.T.);
#117 = ADVANCED_FACE('',(#116),#105,.T.);
#118 = CARTESIAN_POINT('',(58.0,30.0,0.));
#119 = VERTEX_POINT('',#118);
#120 = CARTESIAN_POINT('',(58.0,28.0,0.));
#121 = DIRECTION('',(0.,0.,1.0));
#122 = DIRECTION('',(1.0,0.,0.));
#123 = AXIS2_PLACEMENT_3D('',#120,#121,#122);
#124 = CIRCLE('',#123,2.0);
#125 = EDGE_CURVE('',#88,#119,#124,.T.);
#126 = CARTESIAN_POINT('',(58.0,30.0,3.0));
#127 = VERTEX_POINT('',#126);
#128 = CARTESIAN_POINT('',(58.0,28.0,3.0));
#129 = DIRECTION('',(0.,0.,1.0));
#130 = DIRECTION('',(1.0,0.,0.));
#131 = AXIS2_PLACEMENT_3D('',#128,#129,#130);
#132 = CIRCLE('',#131,2.0);
#133 = EDGE_CURVE('',#95,#127,#132,.T.);
#134 = CARTESIAN_POINT('',(58.0,28.0,0.));
#135 = DIRECTION('',(0.,0.,1.0));
#136 = DIRECTION('',(1.0,0.,0.));
#137 = AXIS2_PLACEMENT_3D('',#134,#135,#136);
#138 = CYLINDRICAL_SURFACE('',#137,2.0);
#139 = DIRECTION('',(0.,0.,1.0));
#140 = VECTOR('',#139,3.0);
#141 = CARTESIAN_POINT('',(58.0,30.0,0.));
#142 = LINE('',#141,#140);
#143 = EDGE_CURVE('',#119,#127,#142,.T.);
#144 = ORIENTED_EDGE('',*,*,#125,.T.);
#145 = ORIENTED_EDGE('',*,*,#143,.T.);
#146 = ORIENTED_EDGE('',*,*,#133,.F.);
#147 = ORIENTED_EDGE('',*,*,#110,.F.);
#148 = EDGE_LOOP('',(#144,#145,#146,#147));
#149 = FACE_OUTER_BOUND('',#148,.T.);
#150 = ADVANCED_FACE('',(#149),#138,.T.);
#151 = CARTESIAN_POINT('',(2.0,30.0,0.));
#152 = VERTEX_POINT('',#151);
#153 = DIRECTION('',(-1.0,0.,0.));
#154 = VECTOR('',#153,56.0);
#155 = CARTESIAN_POINT('',(58.0,30.0,0.));
#156 = LINE('',#155,#154);
#157 = EDGE_CURVE('',#119,#152,#156,.T.);
#158 = CARTESIAN_POINT('',(2.0,30.0,3.0));
#159 = VERTEX_POINT('',#158);
#160 = DIRECTION('',(-1.0,0.,0.));
#161 = VECTOR('',#160,56.0);
#162 = CARTESIAN_POINT('',(58.0,30.0,3.0));
#163 = LINE('',#162,#161);
#164 = EDGE_CURVE('',#127,#159,#163,.T.);
#165 = CARTESIAN_POINT('',(58.0,30.0,0.));
#166 = DIRECTION('',(0.,1.0,0.));
#167 = DIRECTION('',(-1.0,0.,0.));
#168 = AXIS2_PLACEMENT_3D('',#165,#166,#167);
#169 = PLANE('',#168);
#170 = DIRECTION('',(0.,0.,1.0));
#171 = VECTOR('',#170,3.0);
#172 = CARTESIAN_POINT('',(2.0,30.0,0.));
#173 = LINE('',#172,#171);
#174 = EDGE_CURVE('',#152,#159,#173,.T.);
#175 = ORIENTED_EDGE('',*,*,#157,.T.);
#176 = ORIENTED_EDGE('',*,*,#174,.T.);
#177 = ORIENTED_EDGE('',*,*,#164,.F.);
#178 = ORIENTED_EDGE('',*,*,#143,.F.);
#179 = EDGE_LOOP('',(#175,#176,#177,#178));
#180 = FACE_OUTER_BOUND('',#179,.T.);
#181 = ADVANCED_FACE('',(#180),#169,.T.);
#182 = CARTESIAN_POINT('',(-0.0,28.0,0.));
#183 = VERTEX_POINT('',#182);
#184 = CARTESIAN_POINT('',(2.0,28.0,0.));
#185 = DIRECTION('',(0.,0.,1.0));
#186 = DIRECTION('',(1.0,0.,0.));
#187 = AXIS2_PLACEMENT_3D('',#184,#185,#186);
#188 = CIRCLE('',#187,2.0);
#189 = EDGE_CURVE('',#152,#183,#188,.T.);
#190 = CARTESIAN_POINT('',(-0.0,28.0,3.0));
#191 = VERTEX_POINT('',#190);
#192 = CARTESIAN_POINT('',(2.0,28.0,3.0));
#193 = DIRECTION('',(0.,0.,1.0));
#194 = DIRECTION('',(1.0,0.,0.));
#195 = AXIS2_PLACEMENT_3D('',#192,#193,#194);
#196 = CIRCLE('',#195,2.0);
#197 = EDGE_CURVE('',#159,#191,#196,.T.);
#198 = CARTESIAN_POINT('',(2.0,28.0,0.));
#199 = DIRECTION('',(0.,0.,1.0));
#200 = DIRECTION('',(1.0,0.,0.));
#201 = AXIS2_PLACEMENT_3D('',#198,#199,#200);
#202 = CYLINDRICAL_SURFACE('',#201,2.0);
#203 = DIRECTION('',(0.,0.,1.0));
#204 = VECTOR('',#203,3.0);
#205 = CARTESIAN_POINT('',(0.,28.0,0.));
#206 = LINE('',#205,#204);
#207 = EDGE_CURVE('',#183,#191,#206,.T.);
#208 = ORIENTED_EDGE('',*,*,#189,.T.);
#209 = ORIENTED_EDGE('',*,*,#207,.T.);
#210 = ORIENTED_EDGE('',*,*,#197,.F.);
#211 = ORIENTED_EDGE('',*,*,#174,.F.);
#212 = EDGE_LOOP('',(#208,#209,#210,#211));
#213 = FACE_OUTER_BOUND('',#212,.T.);
#214 = ADVANCED_FACE('',(#213),#202,.T.);
#215 = CARTESIAN_POINT('',(0.,2.0,0.));
#216 = VERTEX_POINT('',#215);
#217 = DIRECTION('',(0.,-1.0,0.));
#218 = VECTOR('',#217,26.0);
#219 = CARTESIAN_POINT('',(0.,28.0,0.));
#220 = LINE('',#219,#218);
#221 = EDGE_CURVE('',#183,#216,#220,.T.);
#222 = CARTESIAN_POINT('',(0.,2.0,3.0));
#223 = VERTEX_POINT('',#222);
#224 = DIRECTION('',(0.,-1.0,0.));
#225 = VECTOR('',#224,26.0);
#226 = CARTESIAN_POINT('',(0.,28.0,3.0));
#227 = LINE('',#226,#225);
#228 = EDGE_CURVE('',#191,#223,#227,.T.);
#229 = CARTESIAN_POINT('',(0.,28.0,0.));
#230 = DIRECTION('',(-1.0,0.,0.));
#231 = DIRECTION('',(0.,-1.0,0.));
#232 = AXIS2_PLACEMENT_3D('',#229,#230,#231);
#233 = PLANE('',#232);
#234 = DIRECTION('',(0.,0.,1.0));
#235 = VECTOR('',#234,3.0);
#236 = CARTESIAN_POINT('',(0.,2.0,0.));
#237 = LINE('',#236,#235);
#238 = EDGE_CURVE('',#216,#223,#237,.T.);
#239 = ORIENTED_EDGE('',*,*,#221,.T.);
#240 = ORIENTED_EDGE('',*,*,#238,.T.);
#241 = ORIENTED_EDGE('',*,*,#228,.F.);
#242 = ORIENTED_EDGE('',*,*,#207,.F.);
#243 = EDGE_LOOP('',(#239,#240,#241,#242));
#244 = FACE_OUTER_BOUND('',#243,.T.);
#245 = ADVANCED_FACE('',(#244),#233,.T.);
#246 = CARTESIAN_POINT('',(2.0,2.0,0.));
#247 = DIRECTION('',(0.,0.,1.0));
#248 = DIRECTION('',(1.0,0.,0.));
#249 = AXIS2_PLACEMENT_3D('',#246,#247,#248);
#250 = CIRCLE('',#249,2.0);
#251 = EDGE_CURVE('',#216,#15,#250,.T.);
#252 = CARTESIAN_POINT('',(2.0,2.0,3.0));
#253 = DIRECTION('',(0.,0.,1.0));
#254 = DIRECTION('',(1.0,0.,0.));
#255 = AXIS2_PLACEMENT_3D('',#252,#253,#254);
#256 = CIRCLE('',#255,2.0);
#257 = EDGE_CURVE('',#223,#24,#256,.T.);
#258 = CARTESIAN_POINT('',(2.0,2.0,0.));
#259 = DIRECTION('',(0.,0.,1.0));
#260 = DIRECTION('',(1.0,0.,0.));
#261 = AXIS2_PLACEMENT_3D('',#258,#259,#260);
#262 = CYLINDRICAL_SURFACE('',#261,2.0);
#263 = ORIENTED_EDGE('',*,*,#251,.T.);
#264 = ORIENTED_EDGE('',*,*,#46,.T.);
#265 = ORIENTED_EDGE('',*,*,#257,.F.);
#266 = ORIENTED_EDGE('',*,*,#238,.F.);
#267 = EDGE_LOOP('',(#263,#264,#265,#266));
#268 = FACE_OUTER_BOUND('',#267,.T.);
#269 = ADVANCED_FACE('',(#268),#262,.T.);
#270 = CARTESIAN_POINT('',(36.5,15.0,0.));
#271 = VERTEX_POINT('',#270);
#272 = CARTESIAN_POINT('',(49.5,15.0,0.));
#273 = VERTEX_POINT('',#272);
#274 = CARTESIAN_POINT('',(43.0,15.0,0.));
#275 = DIRECTION('',(0.,0.,1.0));
#276 = DIRECTION('',(1.0,0.,0.));
#277 = AXIS2_PLACEMENT_3D('',#274,#275,#276);
#278 = CIRCLE('',#277,6.5);
#279 = EDGE_CURVE('',#271,#273,#278,.F.);
#280 = CARTESIAN_POINT('',(36.5,15.0,3.0));
#281 = VERTEX_POINT('',#280);
#282 = CARTESIAN_POINT('',(49.5,15.0,3.0));
#283 = VERTEX_POINT('',#282);
#284 = CARTESIAN_POINT('',(43.0,15.0,3.0));
#285 = DIRECTION('',(0.,0.,1.0));
#286 = DIRECTION('',(1.0,0.,0.));
#287 = AXIS2_PLACEMENT_3D('',#284,#285,#286);
#288 = CIRCLE('',#287,6.5);
#289 = EDGE_CURVE('',#281,#283,#288,.F.);
#290 = CARTESIAN_POINT('',(43.0,15.0,0.));
#291 = DIRECTION('',(0.,0.,1.0));
#292 = DIRECTION('',(1.0,0.,0.));
#293 = AXIS2_PLACEMENT_3D('',#290,#291,#292);
#294 = CYLINDRICAL_SURFACE('',#293,6.5);
#295 = DIRECTION('',(0.,0.,1.0));
#296 = VECTOR('',#295,3.0);
#297 = CARTESIAN_POINT('',(49.5,15.0,0.));
#298 = LINE('',#297,#296);
#299 = EDGE_CURVE('',#273,#283,#298,.T.);
#300 = DIRECTION('',(0.,0.,1.0));
#301 = VECTOR('',#300,3.0);
#302 = CARTESIAN_POINT('',(36.5,15.0,0.));
#303 = LINE('',#302,#301);
#304 = EDGE_CURVE('',#271,#281,#303,.T.);
#305 = ORIENTED_EDGE('',*,*,#279,.T.);
#306 = ORIENTED_EDGE('',*,*,#299,.T.);
#307 = ORIENTED_EDGE('',*,*,#289,.F.);
#308 = ORIENTED_EDGE('',*,*,#304,.F.);
#309 = EDGE_LOOP('',(#305,#306,#307,#308));
#310 = FACE_OUTER_BOUND('',#309,.T.);
#311 = ADVANCED_FACE('',(#310),#294,.F.);
#312 = CARTESIAN_POINT('',(43.0,15.0,0.));
#313 = DIRECTION('',(0.,0.,1.0));
#314 = DIRECTION('',(1.0,0.,0.));
#315 = AXIS2_PLACEMENT_3D('',#312,#313,#314);
#316 = CIRCLE('',#315,6.5);
#317 = EDGE_CURVE('',#273,#271,#316,.F.);
#318 = CARTESIAN_POINT('',(43.0,15.0,3.0));
#319 = DIRECTION('',(0.,0.,1.0));
#320 = DIRECTION('',(1.0,0.,0.));
#321 = AXIS2_PLACEMENT_3D('',#318,#319,#320);
#322 = CIRCLE('',#321,6.5);
#323 = EDGE_CURVE('',#283,#281,#322,.F.);
#324 = CARTESIAN_POINT('',(43.0,15.0,0.));
#325 = DIRECTION('',(0.,0.,1.0));
#326 = DIRECTION('',(1.0,0.,0.));
#327 = AXIS2_PLACEMENT_3D('',#324,#325,#326);
#328 = CYLINDRICAL_SURFACE('',#327,6.5);
#329 = ORIENTED_EDGE('',*,*,#317,.T.);
#330 = ORIENTED_EDGE('',*,*,#304,.T.);
#331 = ORIENTED_EDGE('',*,*,#323,.F.);
#332 = ORIENTED_EDGE('',*,*,#299,.F.);
#333 = EDGE_LOOP('',(#329,#330,#331,#332));
#334 = FACE_OUTER_BOUND('',#333,.T.);
#335 = ADVANCED_FACE('',(#334),#328,.F.);
#336 = CARTESIAN_POINT('',(0.,0.,3.0));
#337 = DIRECTION('',(0.,0.,1.0));
#338 = DIRECTION('',(1.0,0.,0.));
#339 = AXIS2_PLACEMENT_3D('',#336,#337,#338);
#340 = PLANE('',#339);
#341 = ORIENTED_EDGE('',*,*,#31,.T.);
#342 = ORIENTED_EDGE('',*,*,#69,.T.);
#343 = ORIENTED_EDGE('',*,*,#100,.T.);
#344 = ORIENTED_EDGE('',*,*,#133,.T.);
#345 = ORIENTED_EDGE('',*,*,#164,.T.);
#346 = ORIENTED_EDGE('',*,*,#197,.T.);
#347 = ORIENTED_EDGE('',*,*,#228,.T.);
#348 = ORIENTED_EDGE('',*,*,#257,.T.);
#349 = EDGE_LOOP('',(#341,#342,#343,#344,#345,#346,#347,#348));
#350 = FACE_OUTER_BOUND('',#349,.T.);
#351 = ORIENTED_EDGE('',*,*,#289,.T.);
#352 = ORIENTED_EDGE('',*,*,#323,.T.);
#353 = EDGE_LOOP('',(#351,#352));
#354 = FACE_BOUND('',#353,.T.);
#355 = ADVANCED_FACE('',(#350,#354),#340,.T.);
#356 = CARTESIAN_POINT('',(0.,0.,0.));
#357 = DIRECTION('',(0.,0.,-1.0));
#358 = DIRECTION('',(1.0,0.,0.));
#359 = AXIS2_PLACEMENT_3D('',#356,#357,#358);
#360 = PLANE('',#359);
#361 = ORIENTED_EDGE('',*,*,#251,.F.);
#362 = ORIENTED_EDGE('',*,*,#221,.F.);
#363 = ORIENTED_EDGE('',*,*,#189,.F.);
#364 = ORIENTED_EDGE('',*,*,#157,.F.);
#365 = ORIENTED_EDGE('',*,*,#125,.F.);
#366 = ORIENTED_EDGE('',*,*,#93,.F.);
#367 = ORIENTED_EDGE('',*,*,#61,.F.);
#368 = ORIENTED_EDGE('',*,*,#22,.F.);
#369 = EDGE_LOOP('',(#361,#362,#363,#364,#365,#366,#367,#368));
#370 = FACE_OUTER_BOUND('',#369,.T.);
#371 = ORIENTED_EDGE('',*,*,#317,.F.);
#372 = ORIENTED_EDGE('',*,*,#279,.F.);
#373 = EDGE_LOOP('',(#371,#372));
#374 = FACE_BOUND('',#373,.T.);
#375 = ADVANCED_FACE('',(#370,#374),#360,.T.);
#376 = CLOSED_SHELL('',(#53,#86,#117,#150,#181,#214,#245,#269,#311,#335,#355,#375));
#377 = CARTESIAN_POINT('',(0.,0.,0.));
#378 = DIRECTION('',(0.,0.,1.0));
#379 = DIRECTION('',(1.0,0.,0.));
#380 = AXIS2_PLACEMENT_3D('',#377,#378,#379);
#381 = MANIFOLD_SOLID_BREP('F-04',#376);
#382 = ADVANCED_BREP_SHAPE_REPRESENTATION('F-04',(#381,#380),#5);
#383 = SHAPE_DEFINITION_REPRESENTATION(#13,#382);
ENDSEC;
END-ISO-10303-21;
