ISO-10303-21;
HEADER;
FILE_DESCRIPTION(('H-03'),'2;1');
FILE_NAME('H-03','2026-09-10T00:00:00',('Dynamic Industry'),('Dynamic Industry'),'mp50_cad','MP-50','');
FILE_SCHEMA(('AUTOMOTIVE_DESIGN { 1 0 10303 214 1 1 1 1 }'));
ENDSEC;
DATA;
#1 = ( LENGTH_UNIT() NAMED_UNIT(*) SI_UNIT(.MILLI.,.METRE.) );
#2 = ( NAMED_UNIT(*) PLANE_ANGLE_UNIT() SI_UNIT($,.RADIAN.) );
#3 = ( NAMED_UNIT(*) SI_UNIT($,.STERADIAN.) SOLID_ANGLE_UNIT() );
#4 = UNCERTAINTY_MEASURE_WITH_UNIT(LENGTH_MEASURE(1.E-06),#1,'distance_accuracy_value','confusion accuracy');
#5 = ( GEOMETRIC_REPRESENTATION_CONTEXT(3) GLOBAL_UNCERTAINTY_ASSIGNED_CONTEXT((#4)) GLOBAL_UNIT_ASSIGNED_CONTEXT((#1,#2,#3)) REPRESENTATION_CONTEXT('','3D') );
#6 = APPLICATION_CONTEXT('automotive design');
#7 = APPLICATION_PROTOCOL_DEFINITION('international standard','automotive_design',2000,#6);
#8 = PRODUCT_CONTEXT('',#6,'mechanical');
#9 = PRODUCT_DEFINITION_CONTEXT('part definition',#6,'design');
#10 = PRODUCT('H-03','H-03','',(#8));
#11 = PRODUCT_DEFINITION_FORMATION('','',#10);
#12 = PRODUCT_DEFINITION('design','',#11,#9);
#13 = PRODUCT_DEFINITION_SHAPE('','',#12);
#14 = CARTESIAN_POINT('',(3.0,0.,0.));
#15 = VERTEX_POINT('',#14);
#16 = CARTESIAN_POINT('',(37.0,0.,0.));
#17 = VERTEX_POINT('',#16);
#18 = DIRECTION('',(1.0,0.,0.));
#19 = VECTOR('',#18,34.0);
#20 = CARTESIAN_POINT('',(3.0,0.,0.));
#21 = LINE('',#20,#19);
#22 = EDGE_CURVE('',#15,#17,#21,.T.);
#23 = CARTESIAN_POINT('',(3.0,0.,470.0));
#24 = VERTEX_POINT('',#23);
#25 = CARTESIAN_POINT('',(37.0,0.,470.0));
#26 = VERTEX_POINT('',#25);
#27 = DIRECTION('',(1.0,0.,0.));
#28 = VECTOR('',#27,34.0);
#29 = CARTESIAN_POINT('',(3.0,0.,470.0));
#30 = LINE('',#29,#28);
#31 = EDGE_CURVE('',#24,#26,#30,.T.);
#32 = CARTESIAN_POINT('',(3.0,0.,0.));
#33 = DIRECTION('',(0.,-1.0,0.));
#34 = DIRECTION('',(1.0,0.,0.));
#35 = AXIS2_PLACEMENT_3D('',#32,#33,#34);
#36 = PLANE('',#35);
#37 = DIRECTION('',(0.,0.,1.0));
#38 = VECTOR('',#37,470.0);
#39 = CARTESIAN_POINT('',(37.0,0.,0.));
#40 = LINE('',#39,#38);
#41 = EDGE_CURVE('',#17,#26,#40,.T.);
#42 = DIRECTION('',(0.,0.,1.0));
#43 = VECTOR('',#42,470.0);
#44 = CARTESIAN_POINT('',(3.0,0.,0.));
#45 = LINE('',#44,#43);
#46 = EDGE_CURVE('',#15,#24,#45,.T.);
#47 = ORIENTED_EDGE('',*,*,#22,.T.);
#48 = ORIENTED_EDGE('',*,*,#41,.T.);
#49 = ORIENTED_EDGE('',*,*,#31,.F.);
#50 = ORIENTED_EDGE('',*,*,#46,.F.);
#51 = EDGE_LOOP('',(#47,#48,#49,#50));
#52 = FACE_OUTER_BOUND('',#51,.T.);
#53 = ADVANCED_FACE('',(#52),#36,.T.);
#54 = CARTESIAN_POINT('',(40.0,3.0,0.));
#55 = VERTEX_POINT('',#54);
#56 = CARTESIAN_POINT('',(37.0,3.0,0.));
#57 = DIRECTION('',(0.,0.,1.0));
#58 = DIRECTION('',(1.0,0.,0.));
#59 = AXIS2_PLACEMENT_3D('',#56,#57,#58);
#60 = CIRCLE('',#59,3.0);
#61 = EDGE_CURVE('',#17,#55,#60,.T.);
#62 = CARTESIAN_POINT('',(40.0,3.0,470.0));
#63 = VERTEX_POINT('',#62);
#64 = CARTESIAN_POINT('',(37.0,3.0,470.0));
#65 = DIRECTION('',(0.,0.,1.0));
#66 = DIRECTION('',(1.0,0.,0.));
#67 = AXIS2_PLACEMENT_3D('',#64,#65,#66);
#68 = CIRCLE('',#67,3.0);
#69 = EDGE_CURVE('',#26,#63,#68,.T.);
#70 = CARTESIAN_POINT('',(37.0,3.0,0.));
#71 = DIRECTION('',(0.,0.,1.0));
#72 = DIRECTION('',(1.0,0.,0.));
#73 = AXIS2_PLACEMENT_3D('',#70,#71,#72);
#74 = CYLINDRICAL_SURFACE('',#73,3.0);
#75 = DIRECTION('',(0.,0.,1.0));
#76 = VECTOR('',#75,470.0);
#77 = CARTESIAN_POINT('',(40.0,3.0,0.));
#78 = LINE('',#77,#76);
#79 = EDGE_CURVE('',#55,#63,#78,.T.);
#80 = ORIENTED_EDGE('',*,*,#61,.T.);
#81 = ORIENTED_EDGE('',*,*,#79,.T.);
#82 = ORIENTED_EDGE('',*,*,#69,.F.);
#83 = ORIENTED_EDGE('',*,*,#41,.F.);
#84 = EDGE_LOOP('',(#80,#81,#82,#83));
#85 = FACE_OUTER_BOUND('',#84,.T.);
#86 = ADVANCED_FACE('',(#85),#74,.T.);
#87 = CARTESIAN_POINT('',(40.0,37.0,0.));
#88 = VERTEX_POINT('',#87);
#89 = DIRECTION('',(0.,1.0,0.));
#90 = VECTOR('',#89,34.0);
#91 = CARTESIAN_POINT('',(40.0,3.0,0.));
#92 = LINE('',#91,#90);
#93 = EDGE_CURVE('',#55,#88,#92,.T.);
#94 = CARTESIAN_POINT('',(40.0,37.0,470.0));
#95 = VERTEX_POINT('',#94);
#96 = DIRECTION('',(0.,1.0,0.));
#97 = VECTOR('',#96,34.0);
#98 = CARTESIAN_POINT('',(40.0,3.0,470.0));
#99 = LINE('',#98,#97);
#100 = EDGE_CURVE('',#63,#95,#99,.T.);
#101 = CARTESIAN_POINT('',(40.0,3.0,0.));
#102 = DIRECTION('',(1.0,0.,0.));
#103 = DIRECTION('',(0.,1.0,0.));
#104 = AXIS2_PLACEMENT_3D('',#101,#102,#103);
#105 = PLANE('',#104);
#106 = DIRECTION('',(0.,0.,1.0));
#107 = VECTOR('',#106,470.0);
#108 = CARTESIAN_POINT('',(40.0,37.0,0.));
#109 = LINE('',#108,#107);
#110 = EDGE_CURVE('',#88,#95,#109,.T.);
#111 = ORIENTED_EDGE('',*,*,#93,.T.);
#112 = ORIENTED_EDGE('',*,*,#110,.T.);
#113 = ORIENTED_EDGE('',*,*,#100,.F.);
#114 = ORIENTED_EDGE('',*,*,#79,.F.);
#115 = EDGE_LOOP('',(#111,#112,#113,#114));
#116 = FACE_OUTER_BOUND('',#115,.T.);
#117 = ADVANCED_FACE('',(#116),#105,.T.);
#118 = CARTESIAN_POINT('',(37.0,40.0,0.));
#119 = VERTEX_POINT('',#118);
#120 = CARTESIAN_POINT('',(37.0,37.0,0.));
#121 = DIRECTION('',(0.,0.,1.0));
#122 = DIRECTION('',(1.0,0.,0.));
#123 = AXIS2_PLACEMENT_3D('',#120,#121,#122);
#124 = CIRCLE('',#123,3.0);
#125 = EDGE_CURVE('',#88,#119,#124,.T.);
#126 = CARTESIAN_POINT('',(37.0,40.0,470.0));
#127 = VERTEX_POINT('',#126);
#128 = CARTESIAN_POINT('',(37.0,37.0,470.0));
#129 = DIRECTION('',(0.,0.,1.0));
#130 = DIRECTION('',(1.0,0.,0.));
#131 = AXIS2_PLACEMENT_3D('',#128,#129,#130);
#132 = CIRCLE('',#131,3.0);
#133 = EDGE_CURVE('',#95,#127,#132,.T.);
#134 = CARTESIAN_POINT('',(37.0,37.0,0.));
#135 = DIRECTION('',(0.,0.,1.0));
#136 = DIRECTION('',(1.0,0.,0.));
#137 = AXIS2_PLACEMENT_3D('',#134,#135,#136);
#138 = CYLINDRICAL_SURFACE('',#137,3.0);
#139 = DIRECTION('',(0.,0.,1.0));
#140 = VECTOR('',#139,470.0);
#141 = CARTESIAN_POINT('',(37.0,40.0,0.));
#142 = LINE('',#141,#140);
#143 = EDGE_CURVE('',#119,#127,#142,.T.);
#144 = ORIENTED_EDGE('',*,*,#125,.T.);
#145 = ORIENTED_EDGE('',*,*,#143,.T.);
#146 = ORIENTED_EDGE('',*,*,#133,.F.);
#147 = ORIENTED_EDGE('',*,*,#110,.F.);
#148 = EDGE_LOOP('',(#144,#145,#146,#147));
#149 = FACE_OUTER_BOUND('',#148,.T.);
#150 = ADVANCED_FACE('',(#149),#138,.T.);
#151 = CARTESIAN_POINT('',(3.0,40.0,0.));
#152 = VERTEX_POINT('',#151);
#153 = DIRECTION('',(-1.0,0.,0.));
#154 = VECTOR('',#153,34.0);
#155 = CARTESIAN_POINT('',(37.0,40.0,0.));
#156 = LINE('',#155,#154);
#157 = EDGE_CURVE('',#119,#152,#156,.T.);
#158 = CARTESIAN_POINT('',(3.0,40.0,470.0));
#159 = VERTEX_POINT('',#158);
#160 = DIRECTION('',(-1.0,0.,0.));
#161 = VECTOR('',#160,34.0);
#162 = CARTESIAN_POINT('',(37.0,40.0,470.0));
#163 = LINE('',#162,#161);
#164 = EDGE_CURVE('',#127,#159,#163,.T.);
#165 = CARTESIAN_POINT('',(37.0,40.0,0.));
#166 = DIRECTION('',(0.,1.0,0.));
#167 = DIRECTION('',(-1.0,0.,0.));
#168 = AXIS2_PLACEMENT_3D('',#165,#166,#167);
#169 = PLANE('',#168);
#170 = DIRECTION('',(0.,0.,1.0));
#171 = VECTOR('',#170,470.0);
#172 = CARTESIAN_POINT('',(3.0,40.0,0.));
#173 = LINE('',#172,#171);
#174 = EDGE_CURVE('',#152,#159,#173,.T.);
#175 = ORIENTED_EDGE('',*,*,#157,.T.);
#176 = ORIENTED_EDGE('',*,*,#174,.T.);
#177 = ORIENTED_EDGE('',*,*,#164,.F.);
#178 = ORIENTED_EDGE('',*,*,#143,.F.);
#179 = EDGE_LOOP('',(#175,#176,#177,#178));
#180 = FACE_OUTER_BOUND('',#179,.T.);
#181 = ADVANCED_FACE('',(#180),#169,.T.);
#182 = CARTESIAN_POINT('',(0.,37.0,0.));
#183 = VERTEX_POINT('',#182);
#184 = CARTESIAN_POINT('',(3.0,37.0,0.));
#185 = DIRECTION('',(0.,0.,1.0));
#186 = DIRECTION('',(1.0,0.,0.));
#187 = AXIS2_PLACEMENT_3D('',#184,#185,#186);
#188 = CIRCLE('',#187,3.0);
#189 = EDGE_CURVE('',#152,#183,#188,.T.);
#190 = CARTESIAN_POINT('',(0.,37.0,470.0));
#191 = VERTEX_POINT('',#190);
#192 = CARTESIAN_POINT('',(3.0,37.0,470.0));
#193 = DIRECTION('',(0.,0.,1.0));
#194 = DIRECTION('',(1.0,0.,0.));
#195 = AXIS2_PLACEMENT_3D('',#192,#193,#194);
#196 = CIRCLE('',#195,3.0);
#197 = EDGE_CURVE('',#159,#191,#196,.T.);
#198 = CARTESIAN_POINT('',(3.0,37.0,0.));
#199 = DIRECTION('',(0.,0.,1.0));
#200 = DIRECTION('',(1.0,0.,0.));
#201 = AXIS2_PLACEMENT_3D('',#198,#199,#200);
#202 = CYLINDRICAL_SURFACE('',#201,3.0);
#203 = DIRECTION('',(0.,0.,1.0));
#204 = VECTOR('',#203,470.0);
#205 = CARTESIAN_POINT('',(0.,37.0,0.));
#206 = LINE('',#205,#204);
#207 = EDGE_CURVE('',#183,#191,#206,.T.);
#208 = ORIENTED_EDGE('',*,*,#189,.T.);
#209 = ORIENTED_EDGE('',*,*,#207,.T.);
#210 = ORIENTED_EDGE('',*,*,#197,.F.);
#211 = ORIENTED_EDGE('',*,*,#174,.F.);
#212 = EDGE_LOOP('',(#208,#209,#210,#211));
#213 = FACE_OUTER_BOUND('',#212,.T.);
#214 = ADVANCED_FACE('',(#213),#202,.T.);
#215 = CARTESIAN_POINT('',(0.,3.0,0.));
#216 = VERTEX_POINT('',#215);
#217 = DIRECTION('',(0.,-1.0,0.));
#218 = VECTOR('',#217,34.0);
#219 = CARTESIAN_POINT('',(0.,37.0,0.));
#220 = LINE('',#219,#218);
#221 = EDGE_CURVE('',#183,#216,#220,.T.);
#222 = CARTESIAN_POINT('',(0.,3.0,470.0));
#223 = VERTEX_POINT('',#222);
#224 = DIRECTION('',(0.,-1.0,0.));
#225 = VECTOR('',#224,34.0);
#226 = CARTESIAN_POINT('',(0.,37.0,470.0));
#227 = LINE('',#226,#225);
#228 = EDGE_CURVE('',#191,#223,#227,.T.);
#229 = CARTESIAN_POINT('',(0.,37.0,0.));
#230 = DIRECTION('',(-1.0,0.,0.));
#231 = DIRECTION('',(0.,-1.0,0.));
#232 = AXIS2_PLACEMENT_3D('',#229,#230,#231);
#233 = PLANE('',#232);
#234 = DIRECTION('',(0.,0.,1.0));
#235 = VECTOR('',#234,470.0);
#236 = CARTESIAN_POINT('',(0.,3.0,0.));
#237 = LINE('',#236,#235);
#238 = EDGE_CURVE('',#216,#223,#237,.T.);
#239 = ORIENTED_EDGE('',*,*,#221,.T.);
#240 = ORIENTED_EDGE('',*,*,#238,.T.);
#241 = ORIENTED_EDGE('',*,*,#228,.F.);
#242 = ORIENTED_EDGE('',*,*,#207,.F.);
#243 = EDGE_LOOP('',(#239,#240,#241,#242));
#244 = FACE_OUTER_BOUND('',#243,.T.);
#245 = ADVANCED_FACE('',(#244),#233,.T.);
#246 = CARTESIAN_POINT('',(3.0,3.0,0.));
#247 = DIRECTION('',(0.,0.,1.0));
#248 = DIRECTION('',(1.0,0.,0.));
#249 = AXIS2_PLACEMENT_3D('',#246,#247,#248);
#250 = CIRCLE('',#249,3.0);
#251 = EDGE_CURVE('',#216,#15,#250,.T.);
#252 = CARTESIAN_POINT('',(3.0,3.0,470.0));
#253 = DIRECTION('',(0.,0.,1.0));
#254 = DIRECTION('',(1.0,0.,0.));
#255 = AXIS2_PLACEMENT_3D('',#252,#253,#254);
#256 = CIRCLE('',#255,3.0);
#257 = EDGE_CURVE('',#223,#24,#256,.T.);
#258 = CARTESIAN_POINT('',(3.0,3.0,0.));
#259 = DIRECTION('',(0.,0.,1.0));
#260 = DIRECTION('',(1.0,0.,0.));
#261 = AXIS2_PLACEMENT_3D('',#258,#259,#260);
#262 = CYLINDRICAL_SURFACE('',#261,3.0);
#263 = ORIENTED_EDGE('',*,*,#251,.T.);
#264 = ORIENTED_EDGE('',*,*,#46,.T.);
#265 = ORIENTED_EDGE('',*,*,#257,.F.);
#266 = ORIENTED_EDGE('',*,*,#238,.F.);
#267 = EDGE_LOOP('',(#263,#264,#265,#266));
#268 = FACE_OUTER_BOUND('',#267,.T.);
#269 = ADVANCED_FACE('',(#268),#262,.T.);
#270 = CARTESIAN_POINT('',(2.0,3.0,0.));
#271 = VERTEX_POINT('',#270);
#272 = CARTESIAN_POINT('',(2.0,37.0,0.));
#273 = VERTEX_POINT('',#272);
#274 = DIRECTION('',(0.,1.0,0.));
#275 = VECTOR('',#274,34.0);
#276 = CARTESIAN_POINT('',(2.0,3.0,0.));
#277 = LINE('',#276,#275);
#278 = EDGE_CURVE('',#271,#273,#277,.T.);
#279 = CARTESIAN_POINT('',(2.0,3.0,470.0));
#280 = VERTEX_POINT('',#279);
#281 = CARTESIAN_POINT('',(2.0,37.0,470.0));
#282 = VERTEX_POINT('',#281);
#283 = DIRECTION('',(0.,1.0,0.));
#284 = VECTOR('',#283,34.0);
#285 = CARTESIAN_POINT('',(2.0,3.0,470.0));
#286 = LINE('',#285,#284);
#287 = EDGE_CURVE('',#280,#282,#286,.T.);
#288 = CARTESIAN_POINT('',(2.0,3.0,0.));
#289 = DIRECTION('',(1.0,0.,0.));
#290 = DIRECTION('',(0.,1.0,0.));
#291 = AXIS2_PLACEMENT_3D('',#288,#289,#290);
#292 = PLANE('',#291);
#293 = DIRECTION('',(0.,0.,1.0));
#294 = VECTOR('',#293,470.0);
#295 = CARTESIAN_POINT('',(2.0,37.0,0.));
#296 = LINE('',#295,#294);
#297 = EDGE_CURVE('',#273,#282,#296,.T.);
#298 = DIRECTION('',(0.,0.,1.0));
#299 = VECTOR('',#298,470.0);
#300 = CARTESIAN_POINT('',(2.0,3.0,0.));
#301 = LINE('',#300,#299);
#302 = EDGE_CURVE('',#271,#280,#301,.T.);
#303 = ORIENTED_EDGE('',*,*,#278,.T.);
#304 = ORIENTED_EDGE('',*,*,#297,.T.);
#305 = ORIENTED_EDGE('',*,*,#287,.F.);
#306 = ORIENTED_EDGE('',*,*,#302,.F.);
#307 = EDGE_LOOP('',(#303,#304,#305,#306));
#308 = FACE_OUTER_BOUND('',#307,.T.);
#309 = ADVANCED_FACE('',(#308),#292,.T.);
#310 = CARTESIAN_POINT('',(3.0,38.0,0.));
#311 = VERTEX_POINT('',#310);
#312 = CARTESIAN_POINT('',(3.0,37.0,0.));
#313 = DIRECTION('',(0.,0.,1.0));
#314 = DIRECTION('',(1.0,0.,0.));
#315 = AXIS2_PLACEMENT_3D('',#312,#313,#314);
#316 = CIRCLE('',#315,1.0);
#317 = EDGE_CURVE('',#273,#311,#316,.F.);
#318 = CARTESIAN_POINT('',(3.0,38.0,470.0));
#319 = VERTEX_POINT('',#318);
#320 = CARTESIAN_POINT('',(3.0,37.0,470.0));
#321 = DIRECTION('',(0.,0.,1.0));
#322 = DIRECTION('',(1.0,0.,0.));
#323 = AXIS2_PLACEMENT_3D('',#320,#321,#322);
#324 = CIRCLE('',#323,1.0);
#325 = EDGE_CURVE('',#282,#319,#324,.F.);
#326 = CARTESIAN_POINT('',(3.0,37.0,0.));
#327 = DIRECTION('',(0.,0.,1.0));
#328 = DIRECTION('',(1.0,0.,0.));
#329 = AXIS2_PLACEMENT_3D('',#326,#327,#328);
#330 = CYLINDRICAL_SURFACE('',#329,1.0);
#331 = DIRECTION('',(0.,0.,1.0));
#332 = VECTOR('',#331,470.0);
#333 = CARTESIAN_POINT('',(3.0,38.0,0.));
#334 = LINE('',#333,#332);
#335 = EDGE_CURVE('',#311,#319,#334,.T.);
#336 = ORIENTED_EDGE('',*,*,#317,.T.);
#337 = ORIENTED_EDGE('',*,*,#335,.T.);
#338 = ORIENTED_EDGE('',*,*,#325,.F.);
#339 = ORIENTED_EDGE('',*,*,#297,.F.);
#340 = EDGE_LOOP('',(#336,#337,#338,#339));
#341 = FACE_OUTER_BOUND('',#340,.T.);
#342 = ADVANCED_FACE('',(#341),#330,.F.);
#343 = CARTESIAN_POINT('',(37.0,38.0,0.));
#344 = VERTEX_POINT('',#343);
#345 = DIRECTION('',(1.0,0.,0.));
#346 = VECTOR('',#345,34.0);
#347 = CARTESIAN_POINT('',(3.0,38.0,0.));
#348 = LINE('',#347,#346);
#349 = EDGE_CURVE('',#311,#344,#348,.T.);
#350 = CARTESIAN_POINT('',(37.0,38.0,470.0));
#351 = VERTEX_POINT('',#350);
#352 = DIRECTION('',(1.0,0.,0.));
#353 = VECTOR('',#352,34.0);
#354 = CARTESIAN_POINT('',(3.0,38.0,470.0));
#355 = LINE('',#354,#353);
#356 = EDGE_CURVE('',#319,#351,#355,.T.);
#357 = CARTESIAN_POINT('',(3.0,38.0,0.));
#358 = DIRECTION('',(0.,-1.0,0.));
#359 = DIRECTION('',(1.0,0.,0.));
#360 = AXIS2_PLACEMENT_3D('',#357,#358,#359);
#361 = PLANE('',#360);
#362 = DIRECTION('',(0.,0.,1.0));
#363 = VECTOR('',#362,470.0);
#364 = CARTESIAN_POINT('',(37.0,38.0,0.));
#365 = LINE('',#364,#363);
#366 = EDGE_CURVE('',#344,#351,#365,.T.);
#367 = ORIENTED_EDGE('',*,*,#349,.T.);
#368 = ORIENTED_EDGE('',*,*,#366,.T.);
#369 = ORIENTED_EDGE('',*,*,#356,.F.);
#370 = ORIENTED_EDGE('',*,*,#335,.F.);
#371 = EDGE_LOOP('',(#367,#368,#369,#370));
#372 = FACE_OUTER_BOUND('',#371,.T.);
#373 = ADVANCED_FACE('',(#372),#361,.T.);
#374 = CARTESIAN_POINT('',(38.0,37.0,0.));
#375 = VERTEX_POINT('',#374);
#376 = CARTESIAN_POINT('',(37.0,37.0,0.));
#377 = DIRECTION('',(0.,0.,1.0));
#378 = DIRECTION('',(1.0,0.,0.));
#379 = AXIS2_PLACEMENT_3D('',#376,#377,#378);
#380 = CIRCLE('',#379,1.0);
#381 = EDGE_CURVE('',#344,#375,#380,.F.);
#382 = CARTESIAN_POINT('',(38.0,37.0,470.0));
#383 = VERTEX_POINT('',#382);
#384 = CARTESIAN_POINT('',(37.0,37.0,470.0));
#385 = DIRECTION('',(0.,0.,1.0));
#386 = DIRECTION('',(1.0,0.,0.));
#387 = AXIS2_PLACEMENT_3D('',#384,#385,#386);
#388 = CIRCLE('',#387,1.0);
#389 = EDGE_CURVE('',#351,#383,#388,.F.);
#390 = CARTESIAN_POINT('',(37.0,37.0,0.));
#391 = DIRECTION('',(0.,0.,1.0));
#392 = DIRECTION('',(1.0,0.,0.));
#393 = AXIS2_PLACEMENT_3D('',#390,#391,#392);
#394 = CYLINDRICAL_SURFACE('',#393,1.0);
#395 = DIRECTION('',(0.,0.,1.0));
#396 = VECTOR('',#395,470.0);
#397 = CARTESIAN_POINT('',(38.0,37.0,0.));
#398 = LINE('',#397,#396);
#399 = EDGE_CURVE('',#375,#383,#398,.T.);
#400 = ORIENTED_EDGE('',*,*,#381,.T.);
#401 = ORIENTED_EDGE('',*,*,#399,.T.);
#402 = ORIENTED_EDGE('',*,*,#389,.F.);
#403 = ORIENTED_EDGE('',*,*,#366,.F.);
#404 = EDGE_LOOP('',(#400,#401,#402,#403));
#405 = FACE_OUTER_BOUND('',#404,.T.);
#406 = ADVANCED_FACE('',(#405),#394,.F.);
#407 = CARTESIAN_POINT('',(38.0,3.0,0.));
#408 = VERTEX_POINT('',#407);
#409 = DIRECTION('',(0.,-1.0,0.));
#410 = VECTOR('',#409,34.0);
#411 = CARTESIAN_POINT('',(38.0,37.0,0.));
#412 = LINE('',#411,#410);
#413 = EDGE_CURVE('',#375,#408,#412,.T.);
#414 = CARTESIAN_POINT('',(38.0,3.0,470.0));
#415 = VERTEX_POINT('',#414);
#416 = DIRECTION('',(0.,-1.0,0.));
#417 = VECTOR('',#416,34.0);
#418 = CARTESIAN_POINT('',(38.0,37.0,470.0));
#419 = LINE('',#418,#417);
#420 = EDGE_CURVE('',#383,#415,#419,.T.);
#421 = CARTESIAN_POINT('',(38.0,37.0,0.));
#422 = DIRECTION('',(-1.0,0.,0.));
#423 = DIRECTION('',(0.,-1.0,0.));
#424 = AXIS2_PLACEMENT_3D('',#421,#422,#423);
#425 = PLANE('',#424);
#426 = DIRECTION('',(0.,0.,1.0));
#427 = VECTOR('',#426,470.0);
#428 = CARTESIAN_POINT('',(38.0,3.0,0.));
#429 = LINE('',#428,#427);
#430 = EDGE_CURVE('',#408,#415,#429,.T.);
#431 = ORIENTED_EDGE('',*,*,#413,.T.);
#432 = ORIENTED_EDGE('',*,*,#430,.T.);
#433 = ORIENTED_EDGE('',*,*,#420,.F.);
#434 = ORIENTED_EDGE('',*,*,#399,.F.);
#435 = EDGE_LOOP('',(#431,#432,#433,#434));
#436 = FACE_OUTER_BOUND('',#435,.T.);
#437 = ADVANCED_FACE('',(#436),#425,.T.);
#438 = CARTESIAN_POINT('',(37.0,2.0,0.));
#439 = VERTEX_POINT('',#438);
#440 = CARTESIAN_POINT('',(37.0,3.0,0.));
#441 = DIRECTION('',(0.,0.,1.0));
#442 = DIRECTION('',(1.0,0.,0.));
#443 = AXIS2_PLACEMENT_3D('',#440,#441,#442);
#444 = CIRCLE('',#443,1.0);
#445 = EDGE_CURVE('',#408,#439,#444,.F.);
#446 = CARTESIAN_POINT('',(37.0,2.0,470.0));
#447 = VERTEX_POINT('',#446);
#448 = CARTESIAN_POINT('',(37.0,3.0,470.0));
#449 = DIRECTION('',(0.,0.,1.0));
#450 = DIRECTION('',(1.0,0.,0.));
#451 = AXIS2_PLACEMENT_3D('',#448,#449,#450);
#452 = CIRCLE('',#451,1.0);
#453 = EDGE_CURVE('',#415,#447,#452,.F.);
#454 = CARTESIAN_POINT('',(37.0,3.0,0.));
#455 = DIRECTION('',(0.,0.,1.0));
#456 = DIRECTION('',(1.0,0.,0.));
#457 = AXIS2_PLACEMENT_3D('',#454,#455,#456);
#458 = CYLINDRICAL_SURFACE('',#457,1.0);
#459 = DIRECTION('',(0.,0.,1.0));
#460 = VECTOR('',#459,470.0);
#461 = CARTESIAN_POINT('',(37.0,2.0,0.));
#462 = LINE('',#461,#460);
#463 = EDGE_CURVE('',#439,#447,#462,.T.);
#464 = ORIENTED_EDGE('',*,*,#445,.T.);
#465 = ORIENTED_EDGE('',*,*,#463,.T.);
#466 = ORIENTED_EDGE('',*,*,#453,.F.);
#467 = ORIENTED_EDGE('',*,*,#430,.F.);
#468 = EDGE_LOOP('',(#464,#465,#466,#467));
#469 = FACE_OUTER_BOUND('',#468,.T.);
#470 = ADVANCED_FACE('',(#469),#458,.F.);
#471 = CARTESIAN_POINT('',(3.0,2.0,0.));
#472 = VERTEX_POINT('',#471);
#473 = DIRECTION('',(-1.0,0.,0.));
#474 = VECTOR('',#473,34.0);
#475 = CARTESIAN_POINT('',(37.0,2.0,0.));
#476 = LINE('',#475,#474);
#477 = EDGE_CURVE('',#439,#472,#476,.T.);
#478 = CARTESIAN_POINT('',(3.0,2.0,470.0));
#479 = VERTEX_POINT('',#478);
#480 = DIRECTION('',(-1.0,0.,0.));
#481 = VECTOR('',#480,34.0);
#482 = CARTESIAN_POINT('',(37.0,2.0,470.0));
#483 = LINE('',#482,#481);
#484 = EDGE_CURVE('',#447,#479,#483,.T.);
#485 = CARTESIAN_POINT('',(37.0,2.0,0.));
#486 = DIRECTION('',(0.,1.0,0.));
#487 = DIRECTION('',(-1.0,0.,0.));
#488 = AXIS2_PLACEMENT_3D('',#485,#486,#487);
#489 = PLANE('',#488);
#490 = DIRECTION('',(0.,0.,1.0));
#491 = VECTOR('',#490,470.0);
#492 = CARTESIAN_POINT('',(3.0,2.0,0.));
#493 = LINE('',#492,#491);
#494 = EDGE_CURVE('',#472,#479,#493,.T.);
#495 = ORIENTED_EDGE('',*,*,#477,.T.);
#496 = ORIENTED_EDGE('',*,*,#494,.T.);
#497 = ORIENTED_EDGE('',*,*,#484,.F.);
#498 = ORIENTED_EDGE('',*,*,#463,.F.);
#499 = EDGE_LOOP('',(#495,#496,#497,#498));
#500 = FACE_OUTER_BOUND('',#499,.T.);
#501 = ADVANCED_FACE('',(#500),#489,.T.);
#502 = CARTESIAN_POINT('',(3.0,3.0,0.));
#503 = DIRECTION('',(0.,0.,1.0));
#504 = DIRECTION('',(1.0,0.,0.));
#505 = AXIS2_PLACEMENT_3D('',#502,#503,#504);
#506 = CIRCLE('',#505,1.0);
#507 = EDGE_CURVE('',#472,#271,#506,.F.);
#508 = CARTESIAN_POINT('',(3.0,3.0,470.0));
#509 = DIRECTION('',(0.,0.,1.0));
#510 = DIRECTION('',(1.0,0.,0.));
#511 = AXIS2_PLACEMENT_3D('',#508,#509,#510);
#512 = CIRCLE('',#511,1.0);
#513 = EDGE_CURVE('',#479,#280,#512,.F.);
#514 = CARTESIAN_POINT('',(3.0,3.0,0.));
#515 = DIRECTION('',(0.,0.,1.0));
#516 = DIRECTION('',(1.0,0.,0.));
#517 = AXIS2_PLACEMENT_3D('',#514,#515,#516);
#518 = CYLINDRICAL_SURFACE('',#517,1.0);
#519 = ORIENTED_EDGE('',*,*,#507,.T.);
#520 = ORIENTED_EDGE('',*,*,#302,.T.);
#521 = ORIENTED_EDGE('',*,*,#513,.F.);
#522 = ORIENTED_EDGE('',*,*,#494,.F.);
#523 = EDGE_LOOP('',(#519,#520,#521,#522));
#524 = FACE_OUTER_BOUND('',#523,.T.);
#525 = ADVANCED_FACE('',(#524),#518,.F.);
#526 = CARTESIAN_POINT('',(0.,0.,470.0));
#527 = DIRECTION('',(0.,0.,1.0));
#528 = DIRECTION('',(1.0,0.,0.));
#529 = AXIS2_PLACEMENT_3D('',#526,#527,#528);
#530 = PLANE('',#529);
#531 = ORIENTED_EDGE('',*,*,#31,.T.);
#532 = ORIENTED_EDGE('',*,*,#69,.T.);
#533 = ORIENTED_EDGE('',*,*,#100,.T.);
#534 = ORIENTED_EDGE('',*,*,#133,.T.);
#535 = ORIENTED_EDGE('',*,*,#164,.T.);
#536 = ORIENTED_EDGE('',*,*,#197,.T.);
#537 = ORIENTED_EDGE('',*,*,#228,.T.);
#538 = ORIENTED_EDGE('',*,*,#257,.T.);
#539 = EDGE_LOOP('',(#531,#532,#533,#534,#535,#536,#537,#538));
#540 = FACE_OUTER_BOUND('',#539,.T.);
#541 = ORIENTED_EDGE('',*,*,#287,.T.);
#542 = ORIENTED_EDGE('',*,*,#325,.T.);
#543 = ORIENTED_EDGE('',*,*,#356,.T.);
#544 = ORIENTED_EDGE('',*,*,#389,.T.);
#545 = ORIENTED_EDGE('',*,*,#420,.T.);
#546 = ORIENTED_EDGE('',*,*,#453,.T.);
#547 = ORIENTED_EDGE('',*,*,#484,.T.);
#548 = ORIENTED_EDGE('',*,*,#513,.T.);
#549 = EDGE_LOOP('',(#541,#542,#543,#544,#545,#546,#547,#548));
#550 = FACE_BOUND('',#549,.T.);
#551 = ADVANCED_FACE('',(#540,#550),#530,.T.);
#552 = CARTESIAN_POINT('',(0.,0.,0.));
#553 = DIRECTION('',(0.,0.,-1.0));
#554 = DIRECTION('',(1.0,0.,0.));
#555 = AXIS2_PLACEMENT_3D('',#552,#553,#554);
#556 = PLANE('',#555);
#557 = ORIENTED_EDGE('',*,*,#251,.F.);
#558 = ORIENTED_EDGE('',*,*,#221,.F.);
#559 = ORIENTED_EDGE('',*,*,#189,.F.);
#560 = ORIENTED_EDGE('',*,*,#157,.F.);
#561 = ORIENTED_EDGE('',*,*,#125,.F.);
#562 = ORIENTED_EDGE('',*,*,#93,.F.);
#563 = ORIENTED_EDGE('',*,*,#61,.F.);
#564 = ORIENTED_EDGE('',*,*,#22,.F.);
#565 = EDGE_LOOP('',(#557,#558,#559,#560,#561,#562,#563,#564));
#566 = FACE_OUTER_BOUND('',#565,.T.);
#567 = ORIENTED_EDGE('',*,*,#507,.F.);
#568 = ORIENTED_EDGE('',*,*,#477,.F.);
#569 = ORIENTED_EDGE('',*,*,#445,.F.);
#570 = ORIENTED_EDGE('',*,*,#413,.F.);
#571 = ORIENTED_EDGE('',*,*,#381,.F.);
#572 = ORIENTED_EDGE('',*,*,#349,.F.);
#573 = ORIENTED_EDGE('',*,*,#317,.F.);
#574 = ORIENTED_EDGE('',*,*,#278,.F.);
#575 = EDGE_LOOP('',(#567,#568,#569,#570,#571,#572,#573,#574));
#576 = FACE_BOUND('',#575,.T.);
#577 = ADVANCED_FACE('',(#566,#576),#556,.T.);
#578 = CLOSED_SHELL('',(#53,#86,#117,#150,#181,#214,#245,#269,#309,#342,#373,#406,#437,#470,#501,#525,#551,#577));
#579 = CARTESIAN_POINT('',(0.,0.,0.));
#580 = DIRECTION('',(0.,0.,1.0));
#581 = DIRECTION('',(1.0,0.,0.));
#582 = AXIS2_PLACEMENT_3D('',#579,#580,#581);
#583 = MANIFOLD_SOLID_BREP('H-03',#578);
#584 = ADVANCED_BREP_SHAPE_REPRESENTATION('H-03',(#583,#582),#5);
#585 = SHAPE_DEFINITION_REPRESENTATION(#13,#584);
ENDSEC;
END-ISO-10303-21;
