ISO-10303-21;
HEADER;
FILE_DESCRIPTION(('B-01'),'2;1');
FILE_NAME('B-01','2026-09-10T00:00:00',('Dynamic Industry'),('Dynamic Industry'),'mp50_cad','MP-50','');
FILE_SCHEMA(('AUTOMOTIVE_DESIGN { 1 0 10303 214 1 1 1 1 }'));
ENDSEC;
DATA;
#1 = ( LENGTH_UNIT() NAMED_UNIT(*) SI_UNIT(.MILLI.,.METRE.) );
#2 = ( NAMED_UNIT(*) PLANE_ANGLE_UNIT() SI_UNIT($,.RADIAN.) );
#3 = ( NAMED_UNIT(*) SI_UNIT($,.STERADIAN.) SOLID_ANGLE_UNIT() );
#4 = UNCERTAINTY_MEASURE_WITH_UNIT(LENGTH_MEASURE(1.E-06),#1,'distance_accuracy_value','confusion accuracy');
#5 = ( GEOMETRIC_REPRESENTATION_CONTEXT(3) GLOBAL_UNCERTAINTY_ASSIGNED_CONTEXT((#4)) GLOBAL_UNIT_ASSIGNED_CONTEXT((#1,#2,#3)) REPRESENTATION_CONTEXT('','3D') );
#6 = APPLICATION_CONTEXT('automotive design');
#7 = APPLICATION_PROTOCOL_DEFINITION('international standard','automotive_design',2000,#6);
#8 = PRODUCT_CONTEXT('',#6,'mechanical');
#9 = PRODUCT_DEFINITION_CONTEXT('part definition',#6,'design');
#10 = PRODUCT('B-01','B-01','',(#8));
#11 = PRODUCT_DEFINITION_FORMATION('','',#10);
#12 = PRODUCT_DEFINITION('design','',#11,#9);
#13 = PRODUCT_DEFINITION_SHAPE('','',#12);
#14 = CARTESIAN_POINT('',(-240.0,-0.0,0.));
#15 = VERTEX_POINT('',#14);
#16 = CARTESIAN_POINT('',(240.0,0.0,0.));
#17 = VERTEX_POINT('',#16);
#18 = CARTESIAN_POINT('',(0.,0.0,0.));
#19 = DIRECTION('',(0.,0.,1.0));
#20 = DIRECTION('',(1.0,0.,0.));
#21 = AXIS2_PLACEMENT_3D('',#18,#19,#20);
#22 = CIRCLE('',#21,240.0);
#23 = EDGE_CURVE('',#15,#17,#22,.T.);
#24 = CARTESIAN_POINT('',(-240.0,-0.0,5.0));
#25 = VERTEX_POINT('',#24);
#26 = CARTESIAN_POINT('',(240.0,0.0,5.0));
#27 = VERTEX_POINT('',#26);
#28 = CARTESIAN_POINT('',(0.,0.0,5.0));
#29 = DIRECTION('',(0.,0.,1.0));
#30 = DIRECTION('',(1.0,0.,0.));
#31 = AXIS2_PLACEMENT_3D('',#28,#29,#30);
#32 = CIRCLE('',#31,240.0);
#33 = EDGE_CURVE('',#25,#27,#32,.T.);
#34 = CARTESIAN_POINT('',(0.,0.0,0.));
#35 = DIRECTION('',(0.,0.,1.0));
#36 = DIRECTION('',(1.0,0.,0.));
#37 = AXIS2_PLACEMENT_3D('',#34,#35,#36);
#38 = CYLINDRICAL_SURFACE('',#37,240.0);
#39 = DIRECTION('',(0.,0.,1.0));
#40 = VECTOR('',#39,5.0);
#41 = CARTESIAN_POINT('',(240.0,0.,0.));
#42 = LINE('',#41,#40);
#43 = EDGE_CURVE('',#17,#27,#42,.T.);
#44 = DIRECTION('',(0.,0.,1.0));
#45 = VECTOR('',#44,5.0);
#46 = CARTESIAN_POINT('',(-240.0,0.,0.));
#47 = LINE('',#46,#45);
#48 = EDGE_CURVE('',#15,#25,#47,.T.);
#49 = ORIENTED_EDGE('',*,*,#23,.T.);
#50 = ORIENTED_EDGE('',*,*,#43,.T.);
#51 = ORIENTED_EDGE('',*,*,#33,.F.);
#52 = ORIENTED_EDGE('',*,*,#48,.F.);
#53 = EDGE_LOOP('',(#49,#50,#51,#52));
#54 = FACE_OUTER_BOUND('',#53,.T.);
#55 = ADVANCED_FACE('',(#54),#38,.T.);
#56 = CARTESIAN_POINT('',(0.,-0.0,0.));
#57 = DIRECTION('',(0.,0.,1.0));
#58 = DIRECTION('',(1.0,0.,0.));
#59 = AXIS2_PLACEMENT_3D('',#56,#57,#58);
#60 = CIRCLE('',#59,240.0);
#61 = EDGE_CURVE('',#17,#15,#60,.T.);
#62 = CARTESIAN_POINT('',(0.,-0.0,5.0));
#63 = DIRECTION('',(0.,0.,1.0));
#64 = DIRECTION('',(1.0,0.,0.));
#65 = AXIS2_PLACEMENT_3D('',#62,#63,#64);
#66 = CIRCLE('',#65,240.0);
#67 = EDGE_CURVE('',#27,#25,#66,.T.);
#68 = CARTESIAN_POINT('',(0.,-0.0,0.));
#69 = DIRECTION('',(0.,0.,1.0));
#70 = DIRECTION('',(1.0,0.,0.));
#71 = AXIS2_PLACEMENT_3D('',#68,#69,#70);
#72 = CYLINDRICAL_SURFACE('',#71,240.0);
#73 = ORIENTED_EDGE('',*,*,#61,.T.);
#74 = ORIENTED_EDGE('',*,*,#48,.T.);
#75 = ORIENTED_EDGE('',*,*,#67,.F.);
#76 = ORIENTED_EDGE('',*,*,#43,.F.);
#77 = EDGE_LOOP('',(#73,#74,#75,#76));
#78 = FACE_OUTER_BOUND('',#77,.T.);
#79 = ADVANCED_FACE('',(#78),#72,.T.);
#80 = CARTESIAN_POINT('',(-30.0,0.0,0.));
#81 = VERTEX_POINT('',#80);
#82 = CARTESIAN_POINT('',(30.0,-0.0,0.));
#83 = VERTEX_POINT('',#82);
#84 = CARTESIAN_POINT('',(0.,-0.0,0.));
#85 = DIRECTION('',(0.,0.,1.0));
#86 = DIRECTION('',(1.0,0.,0.));
#87 = AXIS2_PLACEMENT_3D('',#84,#85,#86);
#88 = CIRCLE('',#87,30.0);
#89 = EDGE_CURVE('',#81,#83,#88,.F.);
#90 = CARTESIAN_POINT('',(-30.0,0.0,5.0));
#91 = VERTEX_POINT('',#90);
#92 = CARTESIAN_POINT('',(30.0,-0.0,5.0));
#93 = VERTEX_POINT('',#92);
#94 = CARTESIAN_POINT('',(0.,-0.0,5.0));
#95 = DIRECTION('',(0.,0.,1.0));
#96 = DIRECTION('',(1.0,0.,0.));
#97 = AXIS2_PLACEMENT_3D('',#94,#95,#96);
#98 = CIRCLE('',#97,30.0);
#99 = EDGE_CURVE('',#91,#93,#98,.F.);
#100 = CARTESIAN_POINT('',(0.,-0.0,0.));
#101 = DIRECTION('',(0.,0.,1.0));
#102 = DIRECTION('',(1.0,0.,0.));
#103 = AXIS2_PLACEMENT_3D('',#100,#101,#102);
#104 = CYLINDRICAL_SURFACE('',#103,30.0);
#105 = DIRECTION('',(0.,0.,1.0));
#106 = VECTOR('',#105,5.0);
#107 = CARTESIAN_POINT('',(30.0,0.,0.));
#108 = LINE('',#107,#106);
#109 = EDGE_CURVE('',#83,#93,#108,.T.);
#110 = DIRECTION('',(0.,0.,1.0));
#111 = VECTOR('',#110,5.0);
#112 = CARTESIAN_POINT('',(-30.0,0.,0.));
#113 = LINE('',#112,#111);
#114 = EDGE_CURVE('',#81,#91,#113,.T.);
#115 = ORIENTED_EDGE('',*,*,#89,.T.);
#116 = ORIENTED_EDGE('',*,*,#109,.T.);
#117 = ORIENTED_EDGE('',*,*,#99,.F.);
#118 = ORIENTED_EDGE('',*,*,#114,.F.);
#119 = EDGE_LOOP('',(#115,#116,#117,#118));
#120 = FACE_OUTER_BOUND('',#119,.T.);
#121 = ADVANCED_FACE('',(#120),#104,.F.);
#122 = CARTESIAN_POINT('',(0.,0.0,0.));
#123 = DIRECTION('',(0.,0.,1.0));
#124 = DIRECTION('',(1.0,0.,0.));
#125 = AXIS2_PLACEMENT_3D('',#122,#123,#124);
#126 = CIRCLE('',#125,30.0);
#127 = EDGE_CURVE('',#83,#81,#126,.F.);
#128 = CARTESIAN_POINT('',(0.,0.0,5.0));
#129 = DIRECTION('',(0.,0.,1.0));
#130 = DIRECTION('',(1.0,0.,0.));
#131 = AXIS2_PLACEMENT_3D('',#128,#129,#130);
#132 = CIRCLE('',#131,30.0);
#133 = EDGE_CURVE('',#93,#91,#132,.F.);
#134 = CARTESIAN_POINT('',(0.,0.0,0.));
#135 = DIRECTION('',(0.,0.,1.0));
#136 = DIRECTION('',(1.0,0.,0.));
#137 = AXIS2_PLACEMENT_3D('',#134,#135,#136);
#138 = CYLINDRICAL_SURFACE('',#137,30.0);
#139 = ORIENTED_EDGE('',*,*,#127,.T.);
#140 = ORIENTED_EDGE('',*,*,#114,.T.);
#141 = ORIENTED_EDGE('',*,*,#133,.F.);
#142 = ORIENTED_EDGE('',*,*,#109,.F.);
#143 = EDGE_LOOP('',(#139,#140,#141,#142));
#144 = FACE_OUTER_BOUND('',#143,.T.);
#145 = ADVANCED_FACE('',(#144),#138,.F.);
#146 = CARTESIAN_POINT('',(210.333310915,58.234285148,0.));
#147 = VERTEX_POINT('',#146);
#148 = CARTESIAN_POINT('',(224.333310915,58.234285148,0.));
#149 = VERTEX_POINT('',#148);
#150 = CARTESIAN_POINT('',(217.333310915,58.234285148,0.));
#151 = DIRECTION('',(0.,0.,1.0));
#152 = DIRECTION('',(1.0,0.,0.));
#153 = AXIS2_PLACEMENT_3D('',#150,#151,#152);
#154 = CIRCLE('',#153,7.0);
#155 = EDGE_CURVE('',#147,#149,#154,.F.);
#156 = CARTESIAN_POINT('',(210.333310915,58.234285148,5.0));
#157 = VERTEX_POINT('',#156);
#158 = CARTESIAN_POINT('',(224.333310915,58.234285148,5.0));
#159 = VERTEX_POINT('',#158);
#160 = CARTESIAN_POINT('',(217.333310915,58.234285148,5.0));
#161 = DIRECTION('',(0.,0.,1.0));
#162 = DIRECTION('',(1.0,0.,0.));
#163 = AXIS2_PLACEMENT_3D('',#160,#161,#162);
#164 = CIRCLE('',#163,7.0);
#165 = EDGE_CURVE('',#157,#159,#164,.F.);
#166 = CARTESIAN_POINT('',(217.333310915,58.234285148,0.));
#167 = DIRECTION('',(0.,0.,1.0));
#168 = DIRECTION('',(1.0,0.,0.));
#169 = AXIS2_PLACEMENT_3D('',#166,#167,#168);
#170 = CYLINDRICAL_SURFACE('',#169,7.0);
#171 = DIRECTION('',(0.,0.,1.0));
#172 = VECTOR('',#171,5.0);
#173 = CARTESIAN_POINT('',(224.333310915,58.234285148,0.));
#174 = LINE('',#173,#172);
#175 = EDGE_CURVE('',#149,#159,#174,.T.);
#176 = DIRECTION('',(0.,0.,1.0));
#177 = VECTOR('',#176,5.0);
#178 = CARTESIAN_POINT('',(210.333310915,58.234285148,0.));
#179 = LINE('',#178,#177);
#180 = EDGE_CURVE('',#147,#157,#179,.T.);
#181 = ORIENTED_EDGE('',*,*,#155,.T.);
#182 = ORIENTED_EDGE('',*,*,#175,.T.);
#183 = ORIENTED_EDGE('',*,*,#165,.F.);
#184 = ORIENTED_EDGE('',*,*,#180,.F.);
#185 = EDGE_LOOP('',(#181,#182,#183,#184));
#186 = FACE_OUTER_BOUND('',#185,.T.);
#187 = ADVANCED_FACE('',(#186),#170,.F.);
#188 = CARTESIAN_POINT('',(217.333310915,58.234285148,0.));
#189 = DIRECTION('',(0.,0.,1.0));
#190 = DIRECTION('',(1.0,0.,0.));
#191 = AXIS2_PLACEMENT_3D('',#188,#189,#190);
#192 = CIRCLE('',#191,7.0);
#193 = EDGE_CURVE('',#149,#147,#192,.F.);
#194 = CARTESIAN_POINT('',(217.333310915,58.234285148,5.0));
#195 = DIRECTION('',(0.,0.,1.0));
#196 = DIRECTION('',(1.0,0.,0.));
#197 = AXIS2_PLACEMENT_3D('',#194,#195,#196);
#198 = CIRCLE('',#197,7.0);
#199 = EDGE_CURVE('',#159,#157,#198,.F.);
#200 = CARTESIAN_POINT('',(217.333310915,58.234285148,0.));
#201 = DIRECTION('',(0.,0.,1.0));
#202 = DIRECTION('',(1.0,0.,0.));
#203 = AXIS2_PLACEMENT_3D('',#200,#201,#202);
#204 = CYLINDRICAL_SURFACE('',#203,7.0);
#205 = ORIENTED_EDGE('',*,*,#193,.T.);
#206 = ORIENTED_EDGE('',*,*,#180,.T.);
#207 = ORIENTED_EDGE('',*,*,#199,.F.);
#208 = ORIENTED_EDGE('',*,*,#175,.F.);
#209 = EDGE_LOOP('',(#205,#206,#207,#208));
#210 = FACE_OUTER_BOUND('',#209,.T.);
#211 = ADVANCED_FACE('',(#210),#204,.F.);
#212 = CARTESIAN_POINT('',(152.099025767,159.099025767,0.));
#213 = VERTEX_POINT('',#212);
#214 = CARTESIAN_POINT('',(166.099025767,159.099025767,0.));
#215 = VERTEX_POINT('',#214);
#216 = CARTESIAN_POINT('',(159.099025767,159.099025767,0.));
#217 = DIRECTION('',(0.,0.,1.0));
#218 = DIRECTION('',(1.0,0.,0.));
#219 = AXIS2_PLACEMENT_3D('',#216,#217,#218);
#220 = CIRCLE('',#219,7.0);
#221 = EDGE_CURVE('',#213,#215,#220,.F.);
#222 = CARTESIAN_POINT('',(152.099025767,159.099025767,5.0));
#223 = VERTEX_POINT('',#222);
#224 = CARTESIAN_POINT('',(166.099025767,159.099025767,5.0));
#225 = VERTEX_POINT('',#224);
#226 = CARTESIAN_POINT('',(159.099025767,159.099025767,5.0));
#227 = DIRECTION('',(0.,0.,1.0));
#228 = DIRECTION('',(1.0,0.,0.));
#229 = AXIS2_PLACEMENT_3D('',#226,#227,#228);
#230 = CIRCLE('',#229,7.0);
#231 = EDGE_CURVE('',#223,#225,#230,.F.);
#232 = CARTESIAN_POINT('',(159.099025767,159.099025767,0.));
#233 = DIRECTION('',(0.,0.,1.0));
#234 = DIRECTION('',(1.0,0.,0.));
#235 = AXIS2_PLACEMENT_3D('',#232,#233,#234);
#236 = CYLINDRICAL_SURFACE('',#235,7.0);
#237 = DIRECTION('',(0.,0.,1.0));
#238 = VECTOR('',#237,5.0);
#239 = CARTESIAN_POINT('',(166.099025767,159.099025767,0.));
#240 = LINE('',#239,#238);
#241 = EDGE_CURVE('',#215,#225,#240,.T.);
#242 = DIRECTION('',(0.,0.,1.0));
#243 = VECTOR('',#242,5.0);
#244 = CARTESIAN_POINT('',(152.099025767,159.099025767,0.));
#245 = LINE('',#244,#243);
#246 = EDGE_CURVE('',#213,#223,#245,.T.);
#247 = ORIENTED_EDGE('',*,*,#221,.T.);
#248 = ORIENTED_EDGE('',*,*,#241,.T.);
#249 = ORIENTED_EDGE('',*,*,#231,.F.);
#250 = ORIENTED_EDGE('',*,*,#246,.F.);
#251 = EDGE_LOOP('',(#247,#248,#249,#250));
#252 = FACE_OUTER_BOUND('',#251,.T.);
#253 = ADVANCED_FACE('',(#252),#236,.F.);
#254 = CARTESIAN_POINT('',(159.099025767,159.099025767,0.));
#255 = DIRECTION('',(0.,0.,1.0));
#256 = DIRECTION('',(1.0,0.,0.));
#257 = AXIS2_PLACEMENT_3D('',#254,#255,#256);
#258 = CIRCLE('',#257,7.0);
#259 = EDGE_CURVE('',#215,#213,#258,.F.);
#260 = CARTESIAN_POINT('',(159.099025767,159.099025767,5.0));
#261 = DIRECTION('',(0.,0.,1.0));
#262 = DIRECTION('',(1.0,0.,0.));
#263 = AXIS2_PLACEMENT_3D('',#260,#261,#262);
#264 = CIRCLE('',#263,7.0);
#265 = EDGE_CURVE('',#225,#223,#264,.F.);
#266 = CARTESIAN_POINT('',(159.099025767,159.099025767,0.));
#267 = DIRECTION('',(0.,0.,1.0));
#268 = DIRECTION('',(1.0,0.,0.));
#269 = AXIS2_PLACEMENT_3D('',#266,#267,#268);
#270 = CYLINDRICAL_SURFACE('',#269,7.0);
#271 = ORIENTED_EDGE('',*,*,#259,.T.);
#272 = ORIENTED_EDGE('',*,*,#246,.T.);
#273 = ORIENTED_EDGE('',*,*,#265,.F.);
#274 = ORIENTED_EDGE('',*,*,#241,.F.);
#275 = EDGE_LOOP('',(#271,#272,#273,#274));
#276 = FACE_OUTER_BOUND('',#275,.T.);
#277 = ADVANCED_FACE('',(#276),#270,.F.);
#278 = CARTESIAN_POINT('',(51.234285148,217.333310915,0.));
#279 = VERTEX_POINT('',#278);
#280 = CARTESIAN_POINT('',(65.234285148,217.333310915,0.));
#281 = VERTEX_POINT('',#280);
#282 = CARTESIAN_POINT('',(58.234285148,217.333310915,0.));
#283 = DIRECTION('',(0.,0.,1.0));
#284 = DIRECTION('',(1.0,0.,0.));
#285 = AXIS2_PLACEMENT_3D('',#282,#283,#284);
#286 = CIRCLE('',#285,7.0);
#287 = EDGE_CURVE('',#279,#281,#286,.F.);
#288 = CARTESIAN_POINT('',(51.234285148,217.333310915,5.0));
#289 = VERTEX_POINT('',#288);
#290 = CARTESIAN_POINT('',(65.234285148,217.333310915,5.0));
#291 = VERTEX_POINT('',#290);
#292 = CARTESIAN_POINT('',(58.234285148,217.333310915,5.0));
#293 = DIRECTION('',(0.,0.,1.0));
#294 = DIRECTION('',(1.0,0.,0.));
#295 = AXIS2_PLACEMENT_3D('',#292,#293,#294);
#296 = CIRCLE('',#295,7.0);
#297 = EDGE_CURVE('',#289,#291,#296,.F.);
#298 = CARTESIAN_POINT('',(58.234285148,217.333310915,0.));
#299 = DIRECTION('',(0.,0.,1.0));
#300 = DIRECTION('',(1.0,0.,0.));
#301 = AXIS2_PLACEMENT_3D('',#298,#299,#300);
#302 = CYLINDRICAL_SURFACE('',#301,7.0);
#303 = DIRECTION('',(0.,0.,1.0));
#304 = VECTOR('',#303,5.0);
#305 = CARTESIAN_POINT('',(65.234285148,217.333310915,0.));
#306 = LINE('',#305,#304);
#307 = EDGE_CURVE('',#281,#291,#306,.T.);
#308 = DIRECTION('',(0.,0.,1.0));
#309 = VECTOR('',#308,5.0);
#310 = CARTESIAN_POINT('',(51.234285148,217.333310915,0.));
#311 = LINE('',#310,#309);
#312 = EDGE_CURVE('',#279,#289,#311,.T.);
#313 = ORIENTED_EDGE('',*,*,#287,.T.);
#314 = ORIENTED_EDGE('',*,*,#307,.T.);
#315 = ORIENTED_EDGE('',*,*,#297,.F.);
#316 = ORIENTED_EDGE('',*,*,#312,.F.);
#317 = EDGE_LOOP('',(#313,#314,#315,#316));
#318 = FACE_OUTER_BOUND('',#317,.T.);
#319 = ADVANCED_FACE('',(#318),#302,.F.);
#320 = CARTESIAN_POINT('',(58.234285148,217.333310915,0.));
#321 = DIRECTION('',(0.,0.,1.0));
#322 = DIRECTION('',(1.0,0.,0.));
#323 = AXIS2_PLACEMENT_3D('',#320,#321,#322);
#324 = CIRCLE('',#323,7.0);
#325 = EDGE_CURVE('',#281,#279,#324,.F.);
#326 = CARTESIAN_POINT('',(58.234285148,217.333310915,5.0));
#327 = DIRECTION('',(0.,0.,1.0));
#328 = DIRECTION('',(1.0,0.,0.));
#329 = AXIS2_PLACEMENT_3D('',#326,#327,#328);
#330 = CIRCLE('',#329,7.0);
#331 = EDGE_CURVE('',#291,#289,#330,.F.);
#332 = CARTESIAN_POINT('',(58.234285148,217.333310915,0.));
#333 = DIRECTION('',(0.,0.,1.0));
#334 = DIRECTION('',(1.0,0.,0.));
#335 = AXIS2_PLACEMENT_3D('',#332,#333,#334);
#336 = CYLINDRICAL_SURFACE('',#335,7.0);
#337 = ORIENTED_EDGE('',*,*,#325,.T.);
#338 = ORIENTED_EDGE('',*,*,#312,.T.);
#339 = ORIENTED_EDGE('',*,*,#331,.F.);
#340 = ORIENTED_EDGE('',*,*,#307,.F.);
#341 = EDGE_LOOP('',(#337,#338,#339,#340));
#342 = FACE_OUTER_BOUND('',#341,.T.);
#343 = ADVANCED_FACE('',(#342),#336,.F.);
#344 = CARTESIAN_POINT('',(-65.234285148,217.333310915,0.));
#345 = VERTEX_POINT('',#344);
#346 = CARTESIAN_POINT('',(-51.234285148,217.333310915,0.));
#347 = VERTEX_POINT('',#346);
#348 = CARTESIAN_POINT('',(-58.234285148,217.333310915,0.));
#349 = DIRECTION('',(0.,0.,1.0));
#350 = DIRECTION('',(1.0,0.,0.));
#351 = AXIS2_PLACEMENT_3D('',#348,#349,#350);
#352 = CIRCLE('',#351,7.0);
#353 = EDGE_CURVE('',#345,#347,#352,.F.);
#354 = CARTESIAN_POINT('',(-65.234285148,217.333310915,5.0));
#355 = VERTEX_POINT('',#354);
#356 = CARTESIAN_POINT('',(-51.234285148,217.333310915,5.0));
#357 = VERTEX_POINT('',#356);
#358 = CARTESIAN_POINT('',(-58.234285148,217.333310915,5.0));
#359 = DIRECTION('',(0.,0.,1.0));
#360 = DIRECTION('',(1.0,0.,0.));
#361 = AXIS2_PLACEMENT_3D('',#358,#359,#360);
#362 = CIRCLE('',#361,7.0);
#363 = EDGE_CURVE('',#355,#357,#362,.F.);
#364 = CARTESIAN_POINT('',(-58.234285148,217.333310915,0.));
#365 = DIRECTION('',(0.,0.,1.0));
#366 = DIRECTION('',(1.0,0.,0.));
#367 = AXIS2_PLACEMENT_3D('',#364,#365,#366);
#368 = CYLINDRICAL_SURFACE('',#367,7.0);
#369 = DIRECTION('',(0.,0.,1.0));
#370 = VECTOR('',#369,5.0);
#371 = CARTESIAN_POINT('',(-51.234285148,217.333310915,0.));
#372 = LINE('',#371,#370);
#373 = EDGE_CURVE('',#347,#357,#372,.T.);
#374 = DIRECTION('',(0.,0.,1.0));
#375 = VECTOR('',#374,5.0);
#376 = CARTESIAN_POINT('',(-65.234285148,217.333310915,0.));
#377 = LINE('',#376,#375);
#378 = EDGE_CURVE('',#345,#355,#377,.T.);
#379 = ORIENTED_EDGE('',*,*,#353,.T.);
#380 = ORIENTED_EDGE('',*,*,#373,.T.);
#381 = ORIENTED_EDGE('',*,*,#363,.F.);
#382 = ORIENTED_EDGE('',*,*,#378,.F.);
#383 = EDGE_LOOP('',(#379,#380,#381,#382));
#384 = FACE_OUTER_BOUND('',#383,.T.);
#385 = ADVANCED_FACE('',(#384),#368,.F.);
#386 = CARTESIAN_POINT('',(-58.234285148,217.333310915,0.));
#387 = DIRECTION('',(0.,0.,1.0));
#388 = DIRECTION('',(1.0,0.,0.));
#389 = AXIS2_PLACEMENT_3D('',#386,#387,#388);
#390 = CIRCLE('',#389,7.0);
#391 = EDGE_CURVE('',#347,#345,#390,.F.);
#392 = CARTESIAN_POINT('',(-58.234285148,217.333310915,5.0));
#393 = DIRECTION('',(0.,0.,1.0));
#394 = DIRECTION('',(1.0,0.,0.));
#395 = AXIS2_PLACEMENT_3D('',#392,#393,#394);
#396 = CIRCLE('',#395,7.0);
#397 = EDGE_CURVE('',#357,#355,#396,.F.);
#398 = CARTESIAN_POINT('',(-58.234285148,217.333310915,0.));
#399 = DIRECTION('',(0.,0.,1.0));
#400 = DIRECTION('',(1.0,0.,0.));
#401 = AXIS2_PLACEMENT_3D('',#398,#399,#400);
#402 = CYLINDRICAL_SURFACE('',#401,7.0);
#403 = ORIENTED_EDGE('',*,*,#391,.T.);
#404 = ORIENTED_EDGE('',*,*,#378,.T.);
#405 = ORIENTED_EDGE('',*,*,#397,.F.);
#406 = ORIENTED_EDGE('',*,*,#373,.F.);
#407 = EDGE_LOOP('',(#403,#404,#405,#406));
#408 = FACE_OUTER_BOUND('',#407,.T.);
#409 = ADVANCED_FACE('',(#408),#402,.F.);
#410 = CARTESIAN_POINT('',(-166.099025767,159.099025767,0.));
#411 = VERTEX_POINT('',#410);
#412 = CARTESIAN_POINT('',(-152.099025767,159.099025767,0.));
#413 = VERTEX_POINT('',#412);
#414 = CARTESIAN_POINT('',(-159.099025767,159.099025767,0.));
#415 = DIRECTION('',(0.,0.,1.0));
#416 = DIRECTION('',(1.0,0.,0.));
#417 = AXIS2_PLACEMENT_3D('',#414,#415,#416);
#418 = CIRCLE('',#417,7.0);
#419 = EDGE_CURVE('',#411,#413,#418,.F.);
#420 = CARTESIAN_POINT('',(-166.099025767,159.099025767,5.0));
#421 = VERTEX_POINT('',#420);
#422 = CARTESIAN_POINT('',(-152.099025767,159.099025767,5.0));
#423 = VERTEX_POINT('',#422);
#424 = CARTESIAN_POINT('',(-159.099025767,159.099025767,5.0));
#425 = DIRECTION('',(0.,0.,1.0));
#426 = DIRECTION('',(1.0,0.,0.));
#427 = AXIS2_PLACEMENT_3D('',#424,#425,#426);
#428 = CIRCLE('',#427,7.0);
#429 = EDGE_CURVE('',#421,#423,#428,.F.);
#430 = CARTESIAN_POINT('',(-159.099025767,159.099025767,0.));
#431 = DIRECTION('',(0.,0.,1.0));
#432 = DIRECTION('',(1.0,0.,0.));
#433 = AXIS2_PLACEMENT_3D('',#430,#431,#432);
#434 = CYLINDRICAL_SURFACE('',#433,7.0);
#435 = DIRECTION('',(0.,0.,1.0));
#436 = VECTOR('',#435,5.0);
#437 = CARTESIAN_POINT('',(-152.099025767,159.099025767,0.));
#438 = LINE('',#437,#436);
#439 = EDGE_CURVE('',#413,#423,#438,.T.);
#440 = DIRECTION('',(0.,0.,1.0));
#441 = VECTOR('',#440,5.0);
#442 = CARTESIAN_POINT('',(-166.099025767,159.099025767,0.));
#443 = LINE('',#442,#441);
#444 = EDGE_CURVE('',#411,#421,#443,.T.);
#445 = ORIENTED_EDGE('',*,*,#419,.T.);
#446 = ORIENTED_EDGE('',*,*,#439,.T.);
#447 = ORIENTED_EDGE('',*,*,#429,.F.);
#448 = ORIENTED_EDGE('',*,*,#444,.F.);
#449 = EDGE_LOOP('',(#445,#446,#447,#448));
#450 = FACE_OUTER_BOUND('',#449,.T.);
#451 = ADVANCED_FACE('',(#450),#434,.F.);
#452 = CARTESIAN_POINT('',(-159.099025767,159.099025767,0.));
#453 = DIRECTION('',(0.,0.,1.0));
#454 = DIRECTION('',(1.0,0.,0.));
#455 = AXIS2_PLACEMENT_3D('',#452,#453,#454);
#456 = CIRCLE('',#455,7.0);
#457 = EDGE_CURVE('',#413,#411,#456,.F.);
#458 = CARTESIAN_POINT('',(-159.099025767,159.099025767,5.0));
#459 = DIRECTION('',(0.,0.,1.0));
#460 = DIRECTION('',(1.0,0.,0.));
#461 = AXIS2_PLACEMENT_3D('',#458,#459,#460);
#462 = CIRCLE('',#461,7.0);
#463 = EDGE_CURVE('',#423,#421,#462,.F.);
#464 = CARTESIAN_POINT('',(-159.099025767,159.099025767,0.));
#465 = DIRECTION('',(0.,0.,1.0));
#466 = DIRECTION('',(1.0,0.,0.));
#467 = AXIS2_PLACEMENT_3D('',#464,#465,#466);
#468 = CYLINDRICAL_SURFACE('',#467,7.0);
#469 = ORIENTED_EDGE('',*,*,#457,.T.);
#470 = ORIENTED_EDGE('',*,*,#444,.T.);
#471 = ORIENTED_EDGE('',*,*,#463,.F.);
#472 = ORIENTED_EDGE('',*,*,#439,.F.);
#473 = EDGE_LOOP('',(#469,#470,#471,#472));
#474 = FACE_OUTER_BOUND('',#473,.T.);
#475 = ADVANCED_FACE('',(#474),#468,.F.);
#476 = CARTESIAN_POINT('',(-224.333310915,58.234285148,0.));
#477 = VERTEX_POINT('',#476);
#478 = CARTESIAN_POINT('',(-210.333310915,58.234285148,0.));
#479 = VERTEX_POINT('',#478);
#480 = CARTESIAN_POINT('',(-217.333310915,58.234285148,0.));
#481 = DIRECTION('',(0.,0.,1.0));
#482 = DIRECTION('',(1.0,0.,0.));
#483 = AXIS2_PLACEMENT_3D('',#480,#481,#482);
#484 = CIRCLE('',#483,7.0);
#485 = EDGE_CURVE('',#477,#479,#484,.F.);
#486 = CARTESIAN_POINT('',(-224.333310915,58.234285148,5.0));
#487 = VERTEX_POINT('',#486);
#488 = CARTESIAN_POINT('',(-210.333310915,58.234285148,5.0));
#489 = VERTEX_POINT('',#488);
#490 = CARTESIAN_POINT('',(-217.333310915,58.234285148,5.0));
#491 = DIRECTION('',(0.,0.,1.0));
#492 = DIRECTION('',(1.0,0.,0.));
#493 = AXIS2_PLACEMENT_3D('',#490,#491,#492);
#494 = CIRCLE('',#493,7.0);
#495 = EDGE_CURVE('',#487,#489,#494,.F.);
#496 = CARTESIAN_POINT('',(-217.333310915,58.234285148,0.));
#497 = DIRECTION('',(0.,0.,1.0));
#498 = DIRECTION('',(1.0,0.,0.));
#499 = AXIS2_PLACEMENT_3D('',#496,#497,#498);
#500 = CYLINDRICAL_SURFACE('',#499,7.0);
#501 = DIRECTION('',(0.,0.,1.0));
#502 = VECTOR('',#501,5.0);
#503 = CARTESIAN_POINT('',(-210.333310915,58.234285148,0.));
#504 = LINE('',#503,#502);
#505 = EDGE_CURVE('',#479,#489,#504,.T.);
#506 = DIRECTION('',(0.,0.,1.0));
#507 = VECTOR('',#506,5.0);
#508 = CARTESIAN_POINT('',(-224.333310915,58.234285148,0.));
#509 = LINE('',#508,#507);
#510 = EDGE_CURVE('',#477,#487,#509,.T.);
#511 = ORIENTED_EDGE('',*,*,#485,.T.);
#512 = ORIENTED_EDGE('',*,*,#505,.T.);
#513 = ORIENTED_EDGE('',*,*,#495,.F.);
#514 = ORIENTED_EDGE('',*,*,#510,.F.);
#515 = EDGE_LOOP('',(#511,#512,#513,#514));
#516 = FACE_OUTER_BOUND('',#515,.T.);
#517 = ADVANCED_FACE('',(#516),#500,.F.);
#518 = CARTESIAN_POINT('',(-217.333310915,58.234285148,0.));
#519 = DIRECTION('',(0.,0.,1.0));
#520 = DIRECTION('',(1.0,0.,0.));
#521 = AXIS2_PLACEMENT_3D('',#518,#519,#520);
#522 = CIRCLE('',#521,7.0);
#523 = EDGE_CURVE('',#479,#477,#522,.F.);
#524 = CARTESIAN_POINT('',(-217.333310915,58.234285148,5.0));
#525 = DIRECTION('',(0.,0.,1.0));
#526 = DIRECTION('',(1.0,0.,0.));
#527 = AXIS2_PLACEMENT_3D('',#524,#525,#526);
#528 = CIRCLE('',#527,7.0);
#529 = EDGE_CURVE('',#489,#487,#528,.F.);
#530 = CARTESIAN_POINT('',(-217.333310915,58.234285148,0.));
#531 = DIRECTION('',(0.,0.,1.0));
#532 = DIRECTION('',(1.0,0.,0.));
#533 = AXIS2_PLACEMENT_3D('',#530,#531,#532);
#534 = CYLINDRICAL_SURFACE('',#533,7.0);
#535 = ORIENTED_EDGE('',*,*,#523,.T.);
#536 = ORIENTED_EDGE('',*,*,#510,.T.);
#537 = ORIENTED_EDGE('',*,*,#529,.F.);
#538 = ORIENTED_EDGE('',*,*,#505,.F.);
#539 = EDGE_LOOP('',(#535,#536,#537,#538));
#540 = FACE_OUTER_BOUND('',#539,.T.);
#541 = ADVANCED_FACE('',(#540),#534,.F.);
#542 = CARTESIAN_POINT('',(-224.333310915,-58.234285148,0.));
#543 = VERTEX_POINT('',#542);
#544 = CARTESIAN_POINT('',(-210.333310915,-58.234285148,0.));
#545 = VERTEX_POINT('',#544);
#546 = CARTESIAN_POINT('',(-217.333310915,-58.234285148,0.));
#547 = DIRECTION('',(0.,0.,1.0));
#548 = DIRECTION('',(1.0,0.,0.));
#549 = AXIS2_PLACEMENT_3D('',#546,#547,#548);
#550 = CIRCLE('',#549,7.0);
#551 = EDGE_CURVE('',#543,#545,#550,.F.);
#552 = CARTESIAN_POINT('',(-224.333310915,-58.234285148,5.0));
#553 = VERTEX_POINT('',#552);
#554 = CARTESIAN_POINT('',(-210.333310915,-58.234285148,5.0));
#555 = VERTEX_POINT('',#554);
#556 = CARTESIAN_POINT('',(-217.333310915,-58.234285148,5.0));
#557 = DIRECTION('',(0.,0.,1.0));
#558 = DIRECTION('',(1.0,0.,0.));
#559 = AXIS2_PLACEMENT_3D('',#556,#557,#558);
#560 = CIRCLE('',#559,7.0);
#561 = EDGE_CURVE('',#553,#555,#560,.F.);
#562 = CARTESIAN_POINT('',(-217.333310915,-58.234285148,0.));
#563 = DIRECTION('',(0.,0.,1.0));
#564 = DIRECTION('',(1.0,0.,0.));
#565 = AXIS2_PLACEMENT_3D('',#562,#563,#564);
#566 = CYLINDRICAL_SURFACE('',#565,7.0);
#567 = DIRECTION('',(0.,0.,1.0));
#568 = VECTOR('',#567,5.0);
#569 = CARTESIAN_POINT('',(-210.333310915,-58.234285148,0.));
#570 = LINE('',#569,#568);
#571 = EDGE_CURVE('',#545,#555,#570,.T.);
#572 = DIRECTION('',(0.,0.,1.0));
#573 = VECTOR('',#572,5.0);
#574 = CARTESIAN_POINT('',(-224.333310915,-58.234285148,0.));
#575 = LINE('',#574,#573);
#576 = EDGE_CURVE('',#543,#553,#575,.T.);
#577 = ORIENTED_EDGE('',*,*,#551,.T.);
#578 = ORIENTED_EDGE('',*,*,#571,.T.);
#579 = ORIENTED_EDGE('',*,*,#561,.F.);
#580 = ORIENTED_EDGE('',*,*,#576,.F.);
#581 = EDGE_LOOP('',(#577,#578,#579,#580));
#582 = FACE_OUTER_BOUND('',#581,.T.);
#583 = ADVANCED_FACE('',(#582),#566,.F.);
#584 = CARTESIAN_POINT('',(-217.333310915,-58.234285148,0.));
#585 = DIRECTION('',(0.,0.,1.0));
#586 = DIRECTION('',(1.0,0.,0.));
#587 = AXIS2_PLACEMENT_3D('',#584,#585,#586);
#588 = CIRCLE('',#587,7.0);
#589 = EDGE_CURVE('',#545,#543,#588,.F.);
#590 = CARTESIAN_POINT('',(-217.333310915,-58.234285148,5.0));
#591 = DIRECTION('',(0.,0.,1.0));
#592 = DIRECTION('',(1.0,0.,0.));
#593 = AXIS2_PLACEMENT_3D('',#590,#591,#592);
#594 = CIRCLE('',#593,7.0);
#595 = EDGE_CURVE('',#555,#553,#594,.F.);
#596 = CARTESIAN_POINT('',(-217.333310915,-58.234285148,0.));
#597 = DIRECTION('',(0.,0.,1.0));
#598 = DIRECTION('',(1.0,0.,0.));
#599 = AXIS2_PLACEMENT_3D('',#596,#597,#598);
#600 = CYLINDRICAL_SURFACE('',#599,7.0);
#601 = ORIENTED_EDGE('',*,*,#589,.T.);
#602 = ORIENTED_EDGE('',*,*,#576,.T.);
#603 = ORIENTED_EDGE('',*,*,#595,.F.);
#604 = ORIENTED_EDGE('',*,*,#571,.F.);
#605 = EDGE_LOOP('',(#601,#602,#603,#604));
#606 = FACE_OUTER_BOUND('',#605,.T.);
#607 = ADVANCED_FACE('',(#606),#600,.F.);
#608 = CARTESIAN_POINT('',(-166.099025767,-159.099025767,0.));
#609 = VERTEX_POINT('',#608);
#610 = CARTESIAN_POINT('',(-152.099025767,-159.099025767,0.));
#611 = VERTEX_POINT('',#610);
#612 = CARTESIAN_POINT('',(-159.099025767,-159.099025767,0.));
#613 = DIRECTION('',(0.,0.,1.0));
#614 = DIRECTION('',(1.0,0.,0.));
#615 = AXIS2_PLACEMENT_3D('',#612,#613,#614);
#616 = CIRCLE('',#615,7.0);
#617 = EDGE_CURVE('',#609,#611,#616,.F.);
#618 = CARTESIAN_POINT('',(-166.099025767,-159.099025767,5.0));
#619 = VERTEX_POINT('',#618);
#620 = CARTESIAN_POINT('',(-152.099025767,-159.099025767,5.0));
#621 = VERTEX_POINT('',#620);
#622 = CARTESIAN_POINT('',(-159.099025767,-159.099025767,5.0));
#623 = DIRECTION('',(0.,0.,1.0));
#624 = DIRECTION('',(1.0,0.,0.));
#625 = AXIS2_PLACEMENT_3D('',#622,#623,#624);
#626 = CIRCLE('',#625,7.0);
#627 = EDGE_CURVE('',#619,#621,#626,.F.);
#628 = CARTESIAN_POINT('',(-159.099025767,-159.099025767,0.));
#629 = DIRECTION('',(0.,0.,1.0));
#630 = DIRECTION('',(1.0,0.,0.));
#631 = AXIS2_PLACEMENT_3D('',#628,#629,#630);
#632 = CYLINDRICAL_SURFACE('',#631,7.0);
#633 = DIRECTION('',(0.,0.,1.0));
#634 = VECTOR('',#633,5.0);
#635 = CARTESIAN_POINT('',(-152.099025767,-159.099025767,0.));
#636 = LINE('',#635,#634);
#637 = EDGE_CURVE('',#611,#621,#636,.T.);
#638 = DIRECTION('',(0.,0.,1.0));
#639 = VECTOR('',#638,5.0);
#640 = CARTESIAN_POINT('',(-166.099025767,-159.099025767,0.));
#641 = LINE('',#640,#639);
#642 = EDGE_CURVE('',#609,#619,#641,.T.);
#643 = ORIENTED_EDGE('',*,*,#617,.T.);
#644 = ORIENTED_EDGE('',*,*,#637,.T.);
#645 = ORIENTED_EDGE('',*,*,#627,.F.);
#646 = ORIENTED_EDGE('',*,*,#642,.F.);
#647 = EDGE_LOOP('',(#643,#644,#645,#646));
#648 = FACE_OUTER_BOUND('',#647,.T.);
#649 = ADVANCED_FACE('',(#648),#632,.F.);
#650 = CARTESIAN_POINT('',(-159.099025767,-159.099025767,0.));
#651 = DIRECTION('',(0.,0.,1.0));
#652 = DIRECTION('',(1.0,0.,0.));
#653 = AXIS2_PLACEMENT_3D('',#650,#651,#652);
#654 = CIRCLE('',#653,7.0);
#655 = EDGE_CURVE('',#611,#609,#654,.F.);
#656 = CARTESIAN_POINT('',(-159.099025767,-159.099025767,5.0));
#657 = DIRECTION('',(0.,0.,1.0));
#658 = DIRECTION('',(1.0,0.,0.));
#659 = AXIS2_PLACEMENT_3D('',#656,#657,#658);
#660 = CIRCLE('',#659,7.0);
#661 = EDGE_CURVE('',#621,#619,#660,.F.);
#662 = CARTESIAN_POINT('',(-159.099025767,-159.099025767,0.));
#663 = DIRECTION('',(0.,0.,1.0));
#664 = DIRECTION('',(1.0,0.,0.));
#665 = AXIS2_PLACEMENT_3D('',#662,#663,#664);
#666 = CYLINDRICAL_SURFACE('',#665,7.0);
#667 = ORIENTED_EDGE('',*,*,#655,.T.);
#668 = ORIENTED_EDGE('',*,*,#642,.T.);
#669 = ORIENTED_EDGE('',*,*,#661,.F.);
#670 = ORIENTED_EDGE('',*,*,#637,.F.);
#671 = EDGE_LOOP('',(#667,#668,#669,#670));
#672 = FACE_OUTER_BOUND('',#671,.T.);
#673 = ADVANCED_FACE('',(#672),#666,.F.);
#674 = CARTESIAN_POINT('',(-65.234285148,-217.333310915,0.));
#675 = VERTEX_POINT('',#674);
#676 = CARTESIAN_POINT('',(-51.234285148,-217.333310915,0.));
#677 = VERTEX_POINT('',#676);
#678 = CARTESIAN_POINT('',(-58.234285148,-217.333310915,0.));
#679 = DIRECTION('',(0.,0.,1.0));
#680 = DIRECTION('',(1.0,0.,0.));
#681 = AXIS2_PLACEMENT_3D('',#678,#679,#680);
#682 = CIRCLE('',#681,7.0);
#683 = EDGE_CURVE('',#675,#677,#682,.F.);
#684 = CARTESIAN_POINT('',(-65.234285148,-217.333310915,5.0));
#685 = VERTEX_POINT('',#684);
#686 = CARTESIAN_POINT('',(-51.234285148,-217.333310915,5.0));
#687 = VERTEX_POINT('',#686);
#688 = CARTESIAN_POINT('',(-58.234285148,-217.333310915,5.0));
#689 = DIRECTION('',(0.,0.,1.0));
#690 = DIRECTION('',(1.0,0.,0.));
#691 = AXIS2_PLACEMENT_3D('',#688,#689,#690);
#692 = CIRCLE('',#691,7.0);
#693 = EDGE_CURVE('',#685,#687,#692,.F.);
#694 = CARTESIAN_POINT('',(-58.234285148,-217.333310915,0.));
#695 = DIRECTION('',(0.,0.,1.0));
#696 = DIRECTION('',(1.0,0.,0.));
#697 = AXIS2_PLACEMENT_3D('',#694,#695,#696);
#698 = CYLINDRICAL_SURFACE('',#697,7.0);
#699 = DIRECTION('',(0.,0.,1.0));
#700 = VECTOR('',#699,5.0);
#701 = CARTESIAN_POINT('',(-51.234285148,-217.333310915,0.));
#702 = LINE('',#701,#700);
#703 = EDGE_CURVE('',#677,#687,#702,.T.);
#704 = DIRECTION('',(0.,0.,1.0));
#705 = VECTOR('',#704,5.0);
#706 = CARTESIAN_POINT('',(-65.234285148,-217.333310915,0.));
#707 = LINE('',#706,#705);
#708 = EDGE_CURVE('',#675,#685,#707,.T.);
#709 = ORIENTED_EDGE('',*,*,#683,.T.);
#710 = ORIENTED_EDGE('',*,*,#703,.T.);
#711 = ORIENTED_EDGE('',*,*,#693,.F.);
#712 = ORIENTED_EDGE('',*,*,#708,.F.);
#713 = EDGE_LOOP('',(#709,#710,#711,#712));
#714 = FACE_OUTER_BOUND('',#713,.T.);
#715 = ADVANCED_FACE('',(#714),#698,.F.);
#716 = CARTESIAN_POINT('',(-58.234285148,-217.333310915,0.));
#717 = DIRECTION('',(0.,0.,1.0));
#718 = DIRECTION('',(1.0,0.,0.));
#719 = AXIS2_PLACEMENT_3D('',#716,#717,#718);
#720 = CIRCLE('',#719,7.0);
#721 = EDGE_CURVE('',#677,#675,#720,.F.);
#722 = CARTESIAN_POINT('',(-58.234285148,-217.333310915,5.0));
#723 = DIRECTION('',(0.,0.,1.0));
#724 = DIRECTION('',(1.0,0.,0.));
#725 = AXIS2_PLACEMENT_3D('',#722,#723,#724);
#726 = CIRCLE('',#725,7.0);
#727 = EDGE_CURVE('',#687,#685,#726,.F.);
#728 = CARTESIAN_POINT('',(-58.234285148,-217.333310915,0.));
#729 = DIRECTION('',(0.,0.,1.0));
#730 = DIRECTION('',(1.0,0.,0.));
#731 = AXIS2_PLACEMENT_3D('',#728,#729,#730);
#732 = CYLINDRICAL_SURFACE('',#731,7.0);
#733 = ORIENTED_EDGE('',*,*,#721,.T.);
#734 = ORIENTED_EDGE('',*,*,#708,.T.);
#735 = ORIENTED_EDGE('',*,*,#727,.F.);
#736 = ORIENTED_EDGE('',*,*,#703,.F.);
#737 = EDGE_LOOP('',(#733,#734,#735,#736));
#738 = FACE_OUTER_BOUND('',#737,.T.);
#739 = ADVANCED_FACE('',(#738),#732,.F.);
#740 = CARTESIAN_POINT('',(51.234285148,-217.333310915,0.));
#741 = VERTEX_POINT('',#740);
#742 = CARTESIAN_POINT('',(65.234285148,-217.333310915,0.));
#743 = VERTEX_POINT('',#742);
#744 = CARTESIAN_POINT('',(58.234285148,-217.333310915,0.));
#745 = DIRECTION('',(0.,0.,1.0));
#746 = DIRECTION('',(1.0,0.,0.));
#747 = AXIS2_PLACEMENT_3D('',#744,#745,#746);
#748 = CIRCLE('',#747,7.0);
#749 = EDGE_CURVE('',#741,#743,#748,.F.);
#750 = CARTESIAN_POINT('',(51.234285148,-217.333310915,5.0));
#751 = VERTEX_POINT('',#750);
#752 = CARTESIAN_POINT('',(65.234285148,-217.333310915,5.0));
#753 = VERTEX_POINT('',#752);
#754 = CARTESIAN_POINT('',(58.234285148,-217.333310915,5.0));
#755 = DIRECTION('',(0.,0.,1.0));
#756 = DIRECTION('',(1.0,0.,0.));
#757 = AXIS2_PLACEMENT_3D('',#754,#755,#756);
#758 = CIRCLE('',#757,7.0);
#759 = EDGE_CURVE('',#751,#753,#758,.F.);
#760 = CARTESIAN_POINT('',(58.234285148,-217.333310915,0.));
#761 = DIRECTION('',(0.,0.,1.0));
#762 = DIRECTION('',(1.0,0.,0.));
#763 = AXIS2_PLACEMENT_3D('',#760,#761,#762);
#764 = CYLINDRICAL_SURFACE('',#763,7.0);
#765 = DIRECTION('',(0.,0.,1.0));
#766 = VECTOR('',#765,5.0);
#767 = CARTESIAN_POINT('',(65.234285148,-217.333310915,0.));
#768 = LINE('',#767,#766);
#769 = EDGE_CURVE('',#743,#753,#768,.T.);
#770 = DIRECTION('',(0.,0.,1.0));
#771 = VECTOR('',#770,5.0);
#772 = CARTESIAN_POINT('',(51.234285148,-217.333310915,0.));
#773 = LINE('',#772,#771);
#774 = EDGE_CURVE('',#741,#751,#773,.T.);
#775 = ORIENTED_EDGE('',*,*,#749,.T.);
#776 = ORIENTED_EDGE('',*,*,#769,.T.);
#777 = ORIENTED_EDGE('',*,*,#759,.F.);
#778 = ORIENTED_EDGE('',*,*,#774,.F.);
#779 = EDGE_LOOP('',(#775,#776,#777,#778));
#780 = FACE_OUTER_BOUND('',#779,.T.);
#781 = ADVANCED_FACE('',(#780),#764,.F.);
#782 = CARTESIAN_POINT('',(58.234285148,-217.333310915,0.));
#783 = DIRECTION('',(0.,0.,1.0));
#784 = DIRECTION('',(1.0,0.,0.));
#785 = AXIS2_PLACEMENT_3D('',#782,#783,#784);
#786 = CIRCLE('',#785,7.0);
#787 = EDGE_CURVE('',#743,#741,#786,.F.);
#788 = CARTESIAN_POINT('',(58.234285148,-217.333310915,5.0));
#789 = DIRECTION('',(0.,0.,1.0));
#790 = DIRECTION('',(1.0,0.,0.));
#791 = AXIS2_PLACEMENT_3D('',#788,#789,#790);
#792 = CIRCLE('',#791,7.0);
#793 = EDGE_CURVE('',#753,#751,#792,.F.);
#794 = CARTESIAN_POINT('',(58.234285148,-217.333310915,0.));
#795 = DIRECTION('',(0.,0.,1.0));
#796 = DIRECTION('',(1.0,0.,0.));
#797 = AXIS2_PLACEMENT_3D('',#794,#795,#796);
#798 = CYLINDRICAL_SURFACE('',#797,7.0);
#799 = ORIENTED_EDGE('',*,*,#787,.T.);
#800 = ORIENTED_EDGE('',*,*,#774,.T.);
#801 = ORIENTED_EDGE('',*,*,#793,.F.);
#802 = ORIENTED_EDGE('',*,*,#769,.F.);
#803 = EDGE_LOOP('',(#799,#800,#801,#802));
#804 = FACE_OUTER_BOUND('',#803,.T.);
#805 = ADVANCED_FACE('',(#804),#798,.F.);
#806 = CARTESIAN_POINT('',(152.099025767,-159.099025767,0.));
#807 = VERTEX_POINT('',#806);
#808 = CARTESIAN_POINT('',(166.099025767,-159.099025767,0.));
#809 = VERTEX_POINT('',#808);
#810 = CARTESIAN_POINT('',(159.099025767,-159.099025767,0.));
#811 = DIRECTION('',(0.,0.,1.0));
#812 = DIRECTION('',(1.0,0.,0.));
#813 = AXIS2_PLACEMENT_3D('',#810,#811,#812);
#814 = CIRCLE('',#813,7.0);
#815 = EDGE_CURVE('',#807,#809,#814,.F.);
#816 = CARTESIAN_POINT('',(152.099025767,-159.099025767,5.0));
#817 = VERTEX_POINT('',#816);
#818 = CARTESIAN_POINT('',(166.099025767,-159.099025767,5.0));
#819 = VERTEX_POINT('',#818);
#820 = CARTESIAN_POINT('',(159.099025767,-159.099025767,5.0));
#821 = DIRECTION('',(0.,0.,1.0));
#822 = DIRECTION('',(1.0,0.,0.));
#823 = AXIS2_PLACEMENT_3D('',#820,#821,#822);
#824 = CIRCLE('',#823,7.0);
#825 = EDGE_CURVE('',#817,#819,#824,.F.);
#826 = CARTESIAN_POINT('',(159.099025767,-159.099025767,0.));
#827 = DIRECTION('',(0.,0.,1.0));
#828 = DIRECTION('',(1.0,0.,0.));
#829 = AXIS2_PLACEMENT_3D('',#826,#827,#828);
#830 = CYLINDRICAL_SURFACE('',#829,7.0);
#831 = DIRECTION('',(0.,0.,1.0));
#832 = VECTOR('',#831,5.0);
#833 = CARTESIAN_POINT('',(166.099025767,-159.099025767,0.));
#834 = LINE('',#833,#832);
#835 = EDGE_CURVE('',#809,#819,#834,.T.);
#836 = DIRECTION('',(0.,0.,1.0));
#837 = VECTOR('',#836,5.0);
#838 = CARTESIAN_POINT('',(152.099025767,-159.099025767,0.));
#839 = LINE('',#838,#837);
#840 = EDGE_CURVE('',#807,#817,#839,.T.);
#841 = ORIENTED_EDGE('',*,*,#815,.T.);
#842 = ORIENTED_EDGE('',*,*,#835,.T.);
#843 = ORIENTED_EDGE('',*,*,#825,.F.);
#844 = ORIENTED_EDGE('',*,*,#840,.F.);
#845 = EDGE_LOOP('',(#841,#842,#843,#844));
#846 = FACE_OUTER_BOUND('',#845,.T.);
#847 = ADVANCED_FACE('',(#846),#830,.F.);
#848 = CARTESIAN_POINT('',(159.099025767,-159.099025767,0.));
#849 = DIRECTION('',(0.,0.,1.0));
#850 = DIRECTION('',(1.0,0.,0.));
#851 = AXIS2_PLACEMENT_3D('',#848,#849,#850);
#852 = CIRCLE('',#851,7.0);
#853 = EDGE_CURVE('',#809,#807,#852,.F.);
#854 = CARTESIAN_POINT('',(159.099025767,-159.099025767,5.0));
#855 = DIRECTION('',(0.,0.,1.0));
#856 = DIRECTION('',(1.0,0.,0.));
#857 = AXIS2_PLACEMENT_3D('',#854,#855,#856);
#858 = CIRCLE('',#857,7.0);
#859 = EDGE_CURVE('',#819,#817,#858,.F.);
#860 = CARTESIAN_POINT('',(159.099025767,-159.099025767,0.));
#861 = DIRECTION('',(0.,0.,1.0));
#862 = DIRECTION('',(1.0,0.,0.));
#863 = AXIS2_PLACEMENT_3D('',#860,#861,#862);
#864 = CYLINDRICAL_SURFACE('',#863,7.0);
#865 = ORIENTED_EDGE('',*,*,#853,.T.);
#866 = ORIENTED_EDGE('',*,*,#840,.T.);
#867 = ORIENTED_EDGE('',*,*,#859,.F.);
#868 = ORIENTED_EDGE('',*,*,#835,.F.);
#869 = EDGE_LOOP('',(#865,#866,#867,#868));
#870 = FACE_OUTER_BOUND('',#869,.T.);
#871 = ADVANCED_FACE('',(#870),#864,.F.);
#872 = CARTESIAN_POINT('',(210.333310915,-58.234285148,0.));
#873 = VERTEX_POINT('',#872);
#874 = CARTESIAN_POINT('',(224.333310915,-58.234285148,0.));
#875 = VERTEX_POINT('',#874);
#876 = CARTESIAN_POINT('',(217.333310915,-58.234285148,0.));
#877 = DIRECTION('',(0.,0.,1.0));
#878 = DIRECTION('',(1.0,0.,0.));
#879 = AXIS2_PLACEMENT_3D('',#876,#877,#878);
#880 = CIRCLE('',#879,7.0);
#881 = EDGE_CURVE('',#873,#875,#880,.F.);
#882 = CARTESIAN_POINT('',(210.333310915,-58.234285148,5.0));
#883 = VERTEX_POINT('',#882);
#884 = CARTESIAN_POINT('',(224.333310915,-58.234285148,5.0));
#885 = VERTEX_POINT('',#884);
#886 = CARTESIAN_POINT('',(217.333310915,-58.234285148,5.0));
#887 = DIRECTION('',(0.,0.,1.0));
#888 = DIRECTION('',(1.0,0.,0.));
#889 = AXIS2_PLACEMENT_3D('',#886,#887,#888);
#890 = CIRCLE('',#889,7.0);
#891 = EDGE_CURVE('',#883,#885,#890,.F.);
#892 = CARTESIAN_POINT('',(217.333310915,-58.234285148,0.));
#893 = DIRECTION('',(0.,0.,1.0));
#894 = DIRECTION('',(1.0,0.,0.));
#895 = AXIS2_PLACEMENT_3D('',#892,#893,#894);
#896 = CYLINDRICAL_SURFACE('',#895,7.0);
#897 = DIRECTION('',(0.,0.,1.0));
#898 = VECTOR('',#897,5.0);
#899 = CARTESIAN_POINT('',(224.333310915,-58.234285148,0.));
#900 = LINE('',#899,#898);
#901 = EDGE_CURVE('',#875,#885,#900,.T.);
#902 = DIRECTION('',(0.,0.,1.0));
#903 = VECTOR('',#902,5.0);
#904 = CARTESIAN_POINT('',(210.333310915,-58.234285148,0.));
#905 = LINE('',#904,#903);
#906 = EDGE_CURVE('',#873,#883,#905,.T.);
#907 = ORIENTED_EDGE('',*,*,#881,.T.);
#908 = ORIENTED_EDGE('',*,*,#901,.T.);
#909 = ORIENTED_EDGE('',*,*,#891,.F.);
#910 = ORIENTED_EDGE('',*,*,#906,.F.);
#911 = EDGE_LOOP('',(#907,#908,#909,#910));
#912 = FACE_OUTER_BOUND('',#911,.T.);
#913 = ADVANCED_FACE('',(#912),#896,.F.);
#914 = CARTESIAN_POINT('',(217.333310915,-58.234285148,0.));
#915 = DIRECTION('',(0.,0.,1.0));
#916 = DIRECTION('',(1.0,0.,0.));
#917 = AXIS2_PLACEMENT_3D('',#914,#915,#916);
#918 = CIRCLE('',#917,7.0);
#919 = EDGE_CURVE('',#875,#873,#918,.F.);
#920 = CARTESIAN_POINT('',(217.333310915,-58.234285148,5.0));
#921 = DIRECTION('',(0.,0.,1.0));
#922 = DIRECTION('',(1.0,0.,0.));
#923 = AXIS2_PLACEMENT_3D('',#920,#921,#922);
#924 = CIRCLE('',#923,7.0);
#925 = EDGE_CURVE('',#885,#883,#924,.F.);
#926 = CARTESIAN_POINT('',(217.333310915,-58.234285148,0.));
#927 = DIRECTION('',(0.,0.,1.0));
#928 = DIRECTION('',(1.0,0.,0.));
#929 = AXIS2_PLACEMENT_3D('',#926,#927,#928);
#930 = CYLINDRICAL_SURFACE('',#929,7.0);
#931 = ORIENTED_EDGE('',*,*,#919,.T.);
#932 = ORIENTED_EDGE('',*,*,#906,.T.);
#933 = ORIENTED_EDGE('',*,*,#925,.F.);
#934 = ORIENTED_EDGE('',*,*,#901,.F.);
#935 = EDGE_LOOP('',(#931,#932,#933,#934));
#936 = FACE_OUTER_BOUND('',#935,.T.);
#937 = ADVANCED_FACE('',(#936),#930,.F.);
#938 = CARTESIAN_POINT('',(74.15,142.894191624,0.));
#939 = VERTEX_POINT('',#938);
#940 = CARTESIAN_POINT('',(90.85,142.894191624,0.));
#941 = VERTEX_POINT('',#940);
#942 = CARTESIAN_POINT('',(82.5,142.894191624,0.));
#943 = DIRECTION('',(0.,0.,1.0));
#944 = DIRECTION('',(1.0,0.,0.));
#945 = AXIS2_PLACEMENT_3D('',#942,#943,#944);
#946 = CIRCLE('',#945,8.35);
#947 = EDGE_CURVE('',#939,#941,#946,.F.);
#948 = CARTESIAN_POINT('',(74.15,142.894191624,5.0));
#949 = VERTEX_POINT('',#948);
#950 = CARTESIAN_POINT('',(90.85,142.894191624,5.0));
#951 = VERTEX_POINT('',#950);
#952 = CARTESIAN_POINT('',(82.5,142.894191624,5.0));
#953 = DIRECTION('',(0.,0.,1.0));
#954 = DIRECTION('',(1.0,0.,0.));
#955 = AXIS2_PLACEMENT_3D('',#952,#953,#954);
#956 = CIRCLE('',#955,8.35);
#957 = EDGE_CURVE('',#949,#951,#956,.F.);
#958 = CARTESIAN_POINT('',(82.5,142.894191624,0.));
#959 = DIRECTION('',(0.,0.,1.0));
#960 = DIRECTION('',(1.0,0.,0.));
#961 = AXIS2_PLACEMENT_3D('',#958,#959,#960);
#962 = CYLINDRICAL_SURFACE('',#961,8.35);
#963 = DIRECTION('',(0.,0.,1.0));
#964 = VECTOR('',#963,5.0);
#965 = CARTESIAN_POINT('',(90.85,142.894191624,0.));
#966 = LINE('',#965,#964);
#967 = EDGE_CURVE('',#941,#951,#966,.T.);
#968 = DIRECTION('',(0.,0.,1.0));
#969 = VECTOR('',#968,5.0);
#970 = CARTESIAN_POINT('',(74.15,142.894191624,0.));
#971 = LINE('',#970,#969);
#972 = EDGE_CURVE('',#939,#949,#971,.T.);
#973 = ORIENTED_EDGE('',*,*,#947,.T.);
#974 = ORIENTED_EDGE('',*,*,#967,.T.);
#975 = ORIENTED_EDGE('',*,*,#957,.F.);
#976 = ORIENTED_EDGE('',*,*,#972,.F.);
#977 = EDGE_LOOP('',(#973,#974,#975,#976));
#978 = FACE_OUTER_BOUND('',#977,.T.);
#979 = ADVANCED_FACE('',(#978),#962,.F.);
#980 = CARTESIAN_POINT('',(82.5,142.894191624,0.));
#981 = DIRECTION('',(0.,0.,1.0));
#982 = DIRECTION('',(1.0,0.,0.));
#983 = AXIS2_PLACEMENT_3D('',#980,#981,#982);
#984 = CIRCLE('',#983,8.35);
#985 = EDGE_CURVE('',#941,#939,#984,.F.);
#986 = CARTESIAN_POINT('',(82.5,142.894191624,5.0));
#987 = DIRECTION('',(0.,0.,1.0));
#988 = DIRECTION('',(1.0,0.,0.));
#989 = AXIS2_PLACEMENT_3D('',#986,#987,#988);
#990 = CIRCLE('',#989,8.35);
#991 = EDGE_CURVE('',#951,#949,#990,.F.);
#992 = CARTESIAN_POINT('',(82.5,142.894191624,0.));
#993 = DIRECTION('',(0.,0.,1.0));
#994 = DIRECTION('',(1.0,0.,0.));
#995 = AXIS2_PLACEMENT_3D('',#992,#993,#994);
#996 = CYLINDRICAL_SURFACE('',#995,8.35);
#997 = ORIENTED_EDGE('',*,*,#985,.T.);
#998 = ORIENTED_EDGE('',*,*,#972,.T.);
#999 = ORIENTED_EDGE('',*,*,#991,.F.);
#1000 = ORIENTED_EDGE('',*,*,#967,.F.);
#1001 = EDGE_LOOP('',(#997,#998,#999,#1000));
#1002 = FACE_OUTER_BOUND('',#1001,.T.);
#1003 = ADVANCED_FACE('',(#1002),#996,.F.);
#1004 = CARTESIAN_POINT('',(-173.35,0.0,0.));
#1005 = VERTEX_POINT('',#1004);
#1006 = CARTESIAN_POINT('',(-156.65,0.0,0.));
#1007 = VERTEX_POINT('',#1006);
#1008 = CARTESIAN_POINT('',(-165.0,0.0,0.));
#1009 = DIRECTION('',(0.,0.,1.0));
#1010 = DIRECTION('',(1.0,0.,0.));
#1011 = AXIS2_PLACEMENT_3D('',#1008,#1009,#1010);
#1012 = CIRCLE('',#1011,8.35);
#1013 = EDGE_CURVE('',#1005,#1007,#1012,.F.);
#1014 = CARTESIAN_POINT('',(-173.35,0.0,5.0));
#1015 = VERTEX_POINT('',#1014);
#1016 = CARTESIAN_POINT('',(-156.65,0.0,5.0));
#1017 = VERTEX_POINT('',#1016);
#1018 = CARTESIAN_POINT('',(-165.0,0.0,5.0));
#1019 = DIRECTION('',(0.,0.,1.0));
#1020 = DIRECTION('',(1.0,0.,0.));
#1021 = AXIS2_PLACEMENT_3D('',#1018,#1019,#1020);
#1022 = CIRCLE('',#1021,8.35);
#1023 = EDGE_CURVE('',#1015,#1017,#1022,.F.);
#1024 = CARTESIAN_POINT('',(-165.0,0.0,0.));
#1025 = DIRECTION('',(0.,0.,1.0));
#1026 = DIRECTION('',(1.0,0.,0.));
#1027 = AXIS2_PLACEMENT_3D('',#1024,#1025,#1026);
#1028 = CYLINDRICAL_SURFACE('',#1027,8.35);
#1029 = DIRECTION('',(0.,0.,1.0));
#1030 = VECTOR('',#1029,5.0);
#1031 = CARTESIAN_POINT('',(-156.65,0.0,0.));
#1032 = LINE('',#1031,#1030);
#1033 = EDGE_CURVE('',#1007,#1017,#1032,.T.);
#1034 = DIRECTION('',(0.,0.,1.0));
#1035 = VECTOR('',#1034,5.0);
#1036 = CARTESIAN_POINT('',(-173.35,0.0,0.));
#1037 = LINE('',#1036,#1035);
#1038 = EDGE_CURVE('',#1005,#1015,#1037,.T.);
#1039 = ORIENTED_EDGE('',*,*,#1013,.T.);
#1040 = ORIENTED_EDGE('',*,*,#1033,.T.);
#1041 = ORIENTED_EDGE('',*,*,#1023,.F.);
#1042 = ORIENTED_EDGE('',*,*,#1038,.F.);
#1043 = EDGE_LOOP('',(#1039,#1040,#1041,#1042));
#1044 = FACE_OUTER_BOUND('',#1043,.T.);
#1045 = ADVANCED_FACE('',(#1044),#1028,.F.);
#1046 = CARTESIAN_POINT('',(-165.0,0.0,0.));
#1047 = DIRECTION('',(0.,0.,1.0));
#1048 = DIRECTION('',(1.0,0.,0.));
#1049 = AXIS2_PLACEMENT_3D('',#1046,#1047,#1048);
#1050 = CIRCLE('',#1049,8.35);
#1051 = EDGE_CURVE('',#1007,#1005,#1050,.F.);
#1052 = CARTESIAN_POINT('',(-165.0,0.0,5.0));
#1053 = DIRECTION('',(0.,0.,1.0));
#1054 = DIRECTION('',(1.0,0.,0.));
#1055 = AXIS2_PLACEMENT_3D('',#1052,#1053,#1054);
#1056 = CIRCLE('',#1055,8.35);
#1057 = EDGE_CURVE('',#1017,#1015,#1056,.F.);
#1058 = CARTESIAN_POINT('',(-165.0,0.0,0.));
#1059 = DIRECTION('',(0.,0.,1.0));
#1060 = DIRECTION('',(1.0,0.,0.));
#1061 = AXIS2_PLACEMENT_3D('',#1058,#1059,#1060);
#1062 = CYLINDRICAL_SURFACE('',#1061,8.35);
#1063 = ORIENTED_EDGE('',*,*,#1051,.T.);
#1064 = ORIENTED_EDGE('',*,*,#1038,.T.);
#1065 = ORIENTED_EDGE('',*,*,#1057,.F.);
#1066 = ORIENTED_EDGE('',*,*,#1033,.F.);
#1067 = EDGE_LOOP('',(#1063,#1064,#1065,#1066));
#1068 = FACE_OUTER_BOUND('',#1067,.T.);
#1069 = ADVANCED_FACE('',(#1068),#1062,.F.);
#1070 = CARTESIAN_POINT('',(74.15,-142.894191624,0.));
#1071 = VERTEX_POINT('',#1070);
#1072 = CARTESIAN_POINT('',(90.85,-142.894191624,0.));
#1073 = VERTEX_POINT('',#1072);
#1074 = CARTESIAN_POINT('',(82.5,-142.894191624,0.));
#1075 = DIRECTION('',(0.,0.,1.0));
#1076 = DIRECTION('',(1.0,0.,0.));
#1077 = AXIS2_PLACEMENT_3D('',#1074,#1075,#1076);
#1078 = CIRCLE('',#1077,8.35);
#1079 = EDGE_CURVE('',#1071,#1073,#1078,.F.);
#1080 = CARTESIAN_POINT('',(74.15,-142.894191624,5.0));
#1081 = VERTEX_POINT('',#1080);
#1082 = CARTESIAN_POINT('',(90.85,-142.894191624,5.0));
#1083 = VERTEX_POINT('',#1082);
#1084 = CARTESIAN_POINT('',(82.5,-142.894191624,5.0));
#1085 = DIRECTION('',(0.,0.,1.0));
#1086 = DIRECTION('',(1.0,0.,0.));
#1087 = AXIS2_PLACEMENT_3D('',#1084,#1085,#1086);
#1088 = CIRCLE('',#1087,8.35);
#1089 = EDGE_CURVE('',#1081,#1083,#1088,.F.);
#1090 = CARTESIAN_POINT('',(82.5,-142.894191624,0.));
#1091 = DIRECTION('',(0.,0.,1.0));
#1092 = DIRECTION('',(1.0,0.,0.));
#1093 = AXIS2_PLACEMENT_3D('',#1090,#1091,#1092);
#1094 = CYLINDRICAL_SURFACE('',#1093,8.35);
#1095 = DIRECTION('',(0.,0.,1.0));
#1096 = VECTOR('',#1095,5.0);
#1097 = CARTESIAN_POINT('',(90.85,-142.894191624,0.));
#1098 = LINE('',#1097,#1096);
#1099 = EDGE_CURVE('',#1073,#1083,#1098,.T.);
#1100 = DIRECTION('',(0.,0.,1.0));
#1101 = VECTOR('',#1100,5.0);
#1102 = CARTESIAN_POINT('',(74.15,-142.894191624,0.));
#1103 = LINE('',#1102,#1101);
#1104 = EDGE_CURVE('',#1071,#1081,#1103,.T.);
#1105 = ORIENTED_EDGE('',*,*,#1079,.T.);
#1106 = ORIENTED_EDGE('',*,*,#1099,.T.);
#1107 = ORIENTED_EDGE('',*,*,#1089,.F.);
#1108 = ORIENTED_EDGE('',*,*,#1104,.F.);
#1109 = EDGE_LOOP('',(#1105,#1106,#1107,#1108));
#1110 = FACE_OUTER_BOUND('',#1109,.T.);
#1111 = ADVANCED_FACE('',(#1110),#1094,.F.);
#1112 = CARTESIAN_POINT('',(82.5,-142.894191624,0.));
#1113 = DIRECTION('',(0.,0.,1.0));
#1114 = DIRECTION('',(1.0,0.,0.));
#1115 = AXIS2_PLACEMENT_3D('',#1112,#1113,#1114);
#1116 = CIRCLE('',#1115,8.35);
#1117 = EDGE_CURVE('',#1073,#1071,#1116,.F.);
#1118 = CARTESIAN_POINT('',(82.5,-142.894191624,5.0));
#1119 = DIRECTION('',(0.,0.,1.0));
#1120 = DIRECTION('',(1.0,0.,0.));
#1121 = AXIS2_PLACEMENT_3D('',#1118,#1119,#1120);
#1122 = CIRCLE('',#1121,8.35);
#1123 = EDGE_CURVE('',#1083,#1081,#1122,.F.);
#1124 = CARTESIAN_POINT('',(82.5,-142.894191624,0.));
#1125 = DIRECTION('',(0.,0.,1.0));
#1126 = DIRECTION('',(1.0,0.,0.));
#1127 = AXIS2_PLACEMENT_3D('',#1124,#1125,#1126);
#1128 = CYLINDRICAL_SURFACE('',#1127,8.35);
#1129 = ORIENTED_EDGE('',*,*,#1117,.T.);
#1130 = ORIENTED_EDGE('',*,*,#1104,.T.);
#1131 = ORIENTED_EDGE('',*,*,#1123,.F.);
#1132 = ORIENTED_EDGE('',*,*,#1099,.F.);
#1133 = EDGE_LOOP('',(#1129,#1130,#1131,#1132));
#1134 = FACE_OUTER_BOUND('',#1133,.T.);
#1135 = ADVANCED_FACE('',(#1134),#1128,.F.);
#1136 = CARTESIAN_POINT('',(155.0,0.0,0.));
#1137 = VERTEX_POINT('',#1136);
#1138 = CARTESIAN_POINT('',(175.0,-0.0,0.));
#1139 = VERTEX_POINT('',#1138);
#1140 = CARTESIAN_POINT('',(165.0,-0.0,0.));
#1141 = DIRECTION('',(0.,0.,1.0));
#1142 = DIRECTION('',(1.0,0.,0.));
#1143 = AXIS2_PLACEMENT_3D('',#1140,#1141,#1142);
#1144 = CIRCLE('',#1143,10.0);
#1145 = EDGE_CURVE('',#1137,#1139,#1144,.F.);
#1146 = CARTESIAN_POINT('',(155.0,0.0,5.0));
#1147 = VERTEX_POINT('',#1146);
#1148 = CARTESIAN_POINT('',(175.0,-0.0,5.0));
#1149 = VERTEX_POINT('',#1148);
#1150 = CARTESIAN_POINT('',(165.0,-0.0,5.0));
#1151 = DIRECTION('',(0.,0.,1.0));
#1152 = DIRECTION('',(1.0,0.,0.));
#1153 = AXIS2_PLACEMENT_3D('',#1150,#1151,#1152);
#1154 = CIRCLE('',#1153,10.0);
#1155 = EDGE_CURVE('',#1147,#1149,#1154,.F.);
#1156 = CARTESIAN_POINT('',(165.0,-0.0,0.));
#1157 = DIRECTION('',(0.,0.,1.0));
#1158 = DIRECTION('',(1.0,0.,0.));
#1159 = AXIS2_PLACEMENT_3D('',#1156,#1157,#1158);
#1160 = CYLINDRICAL_SURFACE('',#1159,10.0);
#1161 = DIRECTION('',(0.,0.,1.0));
#1162 = VECTOR('',#1161,5.0);
#1163 = CARTESIAN_POINT('',(175.0,0.,0.));
#1164 = LINE('',#1163,#1162);
#1165 = EDGE_CURVE('',#1139,#1149,#1164,.T.);
#1166 = DIRECTION('',(0.,0.,1.0));
#1167 = VECTOR('',#1166,5.0);
#1168 = CARTESIAN_POINT('',(155.0,0.,0.));
#1169 = LINE('',#1168,#1167);
#1170 = EDGE_CURVE('',#1137,#1147,#1169,.T.);
#1171 = ORIENTED_EDGE('',*,*,#1145,.T.);
#1172 = ORIENTED_EDGE('',*,*,#1165,.T.);
#1173 = ORIENTED_EDGE('',*,*,#1155,.F.);
#1174 = ORIENTED_EDGE('',*,*,#1170,.F.);
#1175 = EDGE_LOOP('',(#1171,#1172,#1173,#1174));
#1176 = FACE_OUTER_BOUND('',#1175,.T.);
#1177 = ADVANCED_FACE('',(#1176),#1160,.F.);
#1178 = CARTESIAN_POINT('',(165.0,0.0,0.));
#1179 = DIRECTION('',(0.,0.,1.0));
#1180 = DIRECTION('',(1.0,0.,0.));
#1181 = AXIS2_PLACEMENT_3D('',#1178,#1179,#1180);
#1182 = CIRCLE('',#1181,10.0);
#1183 = EDGE_CURVE('',#1139,#1137,#1182,.F.);
#1184 = CARTESIAN_POINT('',(165.0,0.0,5.0));
#1185 = DIRECTION('',(0.,0.,1.0));
#1186 = DIRECTION('',(1.0,0.,0.));
#1187 = AXIS2_PLACEMENT_3D('',#1184,#1185,#1186);
#1188 = CIRCLE('',#1187,10.0);
#1189 = EDGE_CURVE('',#1149,#1147,#1188,.F.);
#1190 = CARTESIAN_POINT('',(165.0,0.0,0.));
#1191 = DIRECTION('',(0.,0.,1.0));
#1192 = DIRECTION('',(1.0,0.,0.));
#1193 = AXIS2_PLACEMENT_3D('',#1190,#1191,#1192);
#1194 = CYLINDRICAL_SURFACE('',#1193,10.0);
#1195 = ORIENTED_EDGE('',*,*,#1183,.T.);
#1196 = ORIENTED_EDGE('',*,*,#1170,.T.);
#1197 = ORIENTED_EDGE('',*,*,#1189,.F.);
#1198 = ORIENTED_EDGE('',*,*,#1165,.F.);
#1199 = EDGE_LOOP('',(#1195,#1196,#1197,#1198));
#1200 = FACE_OUTER_BOUND('',#1199,.T.);
#1201 = ADVANCED_FACE('',(#1200),#1194,.F.);
#1202 = CARTESIAN_POINT('',(-92.5,142.894191624,0.));
#1203 = VERTEX_POINT('',#1202);
#1204 = CARTESIAN_POINT('',(-72.5,142.894191624,0.));
#1205 = VERTEX_POINT('',#1204);
#1206 = CARTESIAN_POINT('',(-82.5,142.894191624,0.));
#1207 = DIRECTION('',(0.,0.,1.0));
#1208 = DIRECTION('',(1.0,0.,0.));
#1209 = AXIS2_PLACEMENT_3D('',#1206,#1207,#1208);
#1210 = CIRCLE('',#1209,10.0);
#1211 = EDGE_CURVE('',#1203,#1205,#1210,.F.);
#1212 = CARTESIAN_POINT('',(-92.5,142.894191624,5.0));
#1213 = VERTEX_POINT('',#1212);
#1214 = CARTESIAN_POINT('',(-72.5,142.894191624,5.0));
#1215 = VERTEX_POINT('',#1214);
#1216 = CARTESIAN_POINT('',(-82.5,142.894191624,5.0));
#1217 = DIRECTION('',(0.,0.,1.0));
#1218 = DIRECTION('',(1.0,0.,0.));
#1219 = AXIS2_PLACEMENT_3D('',#1216,#1217,#1218);
#1220 = CIRCLE('',#1219,10.0);
#1221 = EDGE_CURVE('',#1213,#1215,#1220,.F.);
#1222 = CARTESIAN_POINT('',(-82.5,142.894191624,0.));
#1223 = DIRECTION('',(0.,0.,1.0));
#1224 = DIRECTION('',(1.0,0.,0.));
#1225 = AXIS2_PLACEMENT_3D('',#1222,#1223,#1224);
#1226 = CYLINDRICAL_SURFACE('',#1225,10.0);
#1227 = DIRECTION('',(0.,0.,1.0));
#1228 = VECTOR('',#1227,5.0);
#1229 = CARTESIAN_POINT('',(-72.5,142.894191624,0.));
#1230 = LINE('',#1229,#1228);
#1231 = EDGE_CURVE('',#1205,#1215,#1230,.T.);
#1232 = DIRECTION('',(0.,0.,1.0));
#1233 = VECTOR('',#1232,5.0);
#1234 = CARTESIAN_POINT('',(-92.5,142.894191624,0.));
#1235 = LINE('',#1234,#1233);
#1236 = EDGE_CURVE('',#1203,#1213,#1235,.T.);
#1237 = ORIENTED_EDGE('',*,*,#1211,.T.);
#1238 = ORIENTED_EDGE('',*,*,#1231,.T.);
#1239 = ORIENTED_EDGE('',*,*,#1221,.F.);
#1240 = ORIENTED_EDGE('',*,*,#1236,.F.);
#1241 = EDGE_LOOP('',(#1237,#1238,#1239,#1240));
#1242 = FACE_OUTER_BOUND('',#1241,.T.);
#1243 = ADVANCED_FACE('',(#1242),#1226,.F.);
#1244 = CARTESIAN_POINT('',(-82.5,142.894191624,0.));
#1245 = DIRECTION('',(0.,0.,1.0));
#1246 = DIRECTION('',(1.0,0.,0.));
#1247 = AXIS2_PLACEMENT_3D('',#1244,#1245,#1246);
#1248 = CIRCLE('',#1247,10.0);
#1249 = EDGE_CURVE('',#1205,#1203,#1248,.F.);
#1250 = CARTESIAN_POINT('',(-82.5,142.894191624,5.0));
#1251 = DIRECTION('',(0.,0.,1.0));
#1252 = DIRECTION('',(1.0,0.,0.));
#1253 = AXIS2_PLACEMENT_3D('',#1250,#1251,#1252);
#1254 = CIRCLE('',#1253,10.0);
#1255 = EDGE_CURVE('',#1215,#1213,#1254,.F.);
#1256 = CARTESIAN_POINT('',(-82.5,142.894191624,0.));
#1257 = DIRECTION('',(0.,0.,1.0));
#1258 = DIRECTION('',(1.0,0.,0.));
#1259 = AXIS2_PLACEMENT_3D('',#1256,#1257,#1258);
#1260 = CYLINDRICAL_SURFACE('',#1259,10.0);
#1261 = ORIENTED_EDGE('',*,*,#1249,.T.);
#1262 = ORIENTED_EDGE('',*,*,#1236,.T.);
#1263 = ORIENTED_EDGE('',*,*,#1255,.F.);
#1264 = ORIENTED_EDGE('',*,*,#1231,.F.);
#1265 = EDGE_LOOP('',(#1261,#1262,#1263,#1264));
#1266 = FACE_OUTER_BOUND('',#1265,.T.);
#1267 = ADVANCED_FACE('',(#1266),#1260,.F.);
#1268 = CARTESIAN_POINT('',(-92.5,-142.894191624,0.));
#1269 = VERTEX_POINT('',#1268);
#1270 = CARTESIAN_POINT('',(-72.5,-142.894191624,0.));
#1271 = VERTEX_POINT('',#1270);
#1272 = CARTESIAN_POINT('',(-82.5,-142.894191624,0.));
#1273 = DIRECTION('',(0.,0.,1.0));
#1274 = DIRECTION('',(1.0,0.,0.));
#1275 = AXIS2_PLACEMENT_3D('',#1272,#1273,#1274);
#1276 = CIRCLE('',#1275,10.0);
#1277 = EDGE_CURVE('',#1269,#1271,#1276,.F.);
#1278 = CARTESIAN_POINT('',(-92.5,-142.894191624,5.0));
#1279 = VERTEX_POINT('',#1278);
#1280 = CARTESIAN_POINT('',(-72.5,-142.894191624,5.0));
#1281 = VERTEX_POINT('',#1280);
#1282 = CARTESIAN_POINT('',(-82.5,-142.894191624,5.0));
#1283 = DIRECTION('',(0.,0.,1.0));
#1284 = DIRECTION('',(1.0,0.,0.));
#1285 = AXIS2_PLACEMENT_3D('',#1282,#1283,#1284);
#1286 = CIRCLE('',#1285,10.0);
#1287 = EDGE_CURVE('',#1279,#1281,#1286,.F.);
#1288 = CARTESIAN_POINT('',(-82.5,-142.894191624,0.));
#1289 = DIRECTION('',(0.,0.,1.0));
#1290 = DIRECTION('',(1.0,0.,0.));
#1291 = AXIS2_PLACEMENT_3D('',#1288,#1289,#1290);
#1292 = CYLINDRICAL_SURFACE('',#1291,10.0);
#1293 = DIRECTION('',(0.,0.,1.0));
#1294 = VECTOR('',#1293,5.0);
#1295 = CARTESIAN_POINT('',(-72.5,-142.894191624,0.));
#1296 = LINE('',#1295,#1294);
#1297 = EDGE_CURVE('',#1271,#1281,#1296,.T.);
#1298 = DIRECTION('',(0.,0.,1.0));
#1299 = VECTOR('',#1298,5.0);
#1300 = CARTESIAN_POINT('',(-92.5,-142.894191624,0.));
#1301 = LINE('',#1300,#1299);
#1302 = EDGE_CURVE('',#1269,#1279,#1301,.T.);
#1303 = ORIENTED_EDGE('',*,*,#1277,.T.);
#1304 = ORIENTED_EDGE('',*,*,#1297,.T.);
#1305 = ORIENTED_EDGE('',*,*,#1287,.F.);
#1306 = ORIENTED_EDGE('',*,*,#1302,.F.);
#1307 = EDGE_LOOP('',(#1303,#1304,#1305,#1306));
#1308 = FACE_OUTER_BOUND('',#1307,.T.);
#1309 = ADVANCED_FACE('',(#1308),#1292,.F.);
#1310 = CARTESIAN_POINT('',(-82.5,-142.894191624,0.));
#1311 = DIRECTION('',(0.,0.,1.0));
#1312 = DIRECTION('',(1.0,0.,0.));
#1313 = AXIS2_PLACEMENT_3D('',#1310,#1311,#1312);
#1314 = CIRCLE('',#1313,10.0);
#1315 = EDGE_CURVE('',#1271,#1269,#1314,.F.);
#1316 = CARTESIAN_POINT('',(-82.5,-142.894191624,5.0));
#1317 = DIRECTION('',(0.,0.,1.0));
#1318 = DIRECTION('',(1.0,0.,0.));
#1319 = AXIS2_PLACEMENT_3D('',#1316,#1317,#1318);
#1320 = CIRCLE('',#1319,10.0);
#1321 = EDGE_CURVE('',#1281,#1279,#1320,.F.);
#1322 = CARTESIAN_POINT('',(-82.5,-142.894191624,0.));
#1323 = DIRECTION('',(0.,0.,1.0));
#1324 = DIRECTION('',(1.0,0.,0.));
#1325 = AXIS2_PLACEMENT_3D('',#1322,#1323,#1324);
#1326 = CYLINDRICAL_SURFACE('',#1325,10.0);
#1327 = ORIENTED_EDGE('',*,*,#1315,.T.);
#1328 = ORIENTED_EDGE('',*,*,#1302,.T.);
#1329 = ORIENTED_EDGE('',*,*,#1321,.F.);
#1330 = ORIENTED_EDGE('',*,*,#1297,.F.);
#1331 = EDGE_LOOP('',(#1327,#1328,#1329,#1330));
#1332 = FACE_OUTER_BOUND('',#1331,.T.);
#1333 = ADVANCED_FACE('',(#1332),#1326,.F.);
#1334 = CARTESIAN_POINT('',(0.,0.,5.0));
#1335 = DIRECTION('',(0.,0.,1.0));
#1336 = DIRECTION('',(1.0,0.,0.));
#1337 = AXIS2_PLACEMENT_3D('',#1334,#1335,#1336);
#1338 = PLANE('',#1337);
#1339 = ORIENTED_EDGE('',*,*,#33,.T.);
#1340 = ORIENTED_EDGE('',*,*,#67,.T.);
#1341 = EDGE_LOOP('',(#1339,#1340));
#1342 = FACE_OUTER_BOUND('',#1341,.T.);
#1343 = ORIENTED_EDGE('',*,*,#99,.T.);
#1344 = ORIENTED_EDGE('',*,*,#133,.T.);
#1345 = EDGE_LOOP('',(#1343,#1344));
#1346 = FACE_BOUND('',#1345,.T.);
#1347 = ORIENTED_EDGE('',*,*,#165,.T.);
#1348 = ORIENTED_EDGE('',*,*,#199,.T.);
#1349 = EDGE_LOOP('',(#1347,#1348));
#1350 = FACE_BOUND('',#1349,.T.);
#1351 = ORIENTED_EDGE('',*,*,#231,.T.);
#1352 = ORIENTED_EDGE('',*,*,#265,.T.);
#1353 = EDGE_LOOP('',(#1351,#1352));
#1354 = FACE_BOUND('',#1353,.T.);
#1355 = ORIENTED_EDGE('',*,*,#297,.T.);
#1356 = ORIENTED_EDGE('',*,*,#331,.T.);
#1357 = EDGE_LOOP('',(#1355,#1356));
#1358 = FACE_BOUND('',#1357,.T.);
#1359 = ORIENTED_EDGE('',*,*,#363,.T.);
#1360 = ORIENTED_EDGE('',*,*,#397,.T.);
#1361 = EDGE_LOOP('',(#1359,#1360));
#1362 = FACE_BOUND('',#1361,.T.);
#1363 = ORIENTED_EDGE('',*,*,#429,.T.);
#1364 = ORIENTED_EDGE('',*,*,#463,.T.);
#1365 = EDGE_LOOP('',(#1363,#1364));
#1366 = FACE_BOUND('',#1365,.T.);
#1367 = ORIENTED_EDGE('',*,*,#495,.T.);
#1368 = ORIENTED_EDGE('',*,*,#529,.T.);
#1369 = EDGE_LOOP('',(#1367,#1368));
#1370 = FACE_BOUND('',#1369,.T.);
#1371 = ORIENTED_EDGE('',*,*,#561,.T.);
#1372 = ORIENTED_EDGE('',*,*,#595,.T.);
#1373 = EDGE_LOOP('',(#1371,#1372));
#1374 = FACE_BOUND('',#1373,.T.);
#1375 = ORIENTED_EDGE('',*,*,#627,.T.);
#1376 = ORIENTED_EDGE('',*,*,#661,.T.);
#1377 = EDGE_LOOP('',(#1375,#1376));
#1378 = FACE_BOUND('',#1377,.T.);
#1379 = ORIENTED_EDGE('',*,*,#693,.T.);
#1380 = ORIENTED_EDGE('',*,*,#727,.T.);
#1381 = EDGE_LOOP('',(#1379,#1380));
#1382 = FACE_BOUND('',#1381,.T.);
#1383 = ORIENTED_EDGE('',*,*,#759,.T.);
#1384 = ORIENTED_EDGE('',*,*,#793,.T.);
#1385 = EDGE_LOOP('',(#1383,#1384));
#1386 = FACE_BOUND('',#1385,.T.);
#1387 = ORIENTED_EDGE('',*,*,#825,.T.);
#1388 = ORIENTED_EDGE('',*,*,#859,.T.);
#1389 = EDGE_LOOP('',(#1387,#1388));
#1390 = FACE_BOUND('',#1389,.T.);
#1391 = ORIENTED_EDGE('',*,*,#891,.T.);
#1392 = ORIENTED_EDGE('',*,*,#925,.T.);
#1393 = EDGE_LOOP('',(#1391,#1392));
#1394 = FACE_BOUND('',#1393,.T.);
#1395 = ORIENTED_EDGE('',*,*,#957,.T.);
#1396 = ORIENTED_EDGE('',*,*,#991,.T.);
#1397 = EDGE_LOOP('',(#1395,#1396));
#1398 = FACE_BOUND('',#1397,.T.);
#1399 = ORIENTED_EDGE('',*,*,#1023,.T.);
#1400 = ORIENTED_EDGE('',*,*,#1057,.T.);
#1401 = EDGE_LOOP('',(#1399,#1400));
#1402 = FACE_BOUND('',#1401,.T.);
#1403 = ORIENTED_EDGE('',*,*,#1089,.T.);
#1404 = ORIENTED_EDGE('',*,*,#1123,.T.);
#1405 = EDGE_LOOP('',(#1403,#1404));
#1406 = FACE_BOUND('',#1405,.T.);
#1407 = ORIENTED_EDGE('',*,*,#1155,.T.);
#1408 = ORIENTED_EDGE('',*,*,#1189,.T.);
#1409 = EDGE_LOOP('',(#1407,#1408));
#1410 = FACE_BOUND('',#1409,.T.);
#1411 = ORIENTED_EDGE('',*,*,#1221,.T.);
#1412 = ORIENTED_EDGE('',*,*,#1255,.T.);
#1413 = EDGE_LOOP('',(#1411,#1412));
#1414 = FACE_BOUND('',#1413,.T.);
#1415 = ORIENTED_EDGE('',*,*,#1287,.T.);
#1416 = ORIENTED_EDGE('',*,*,#1321,.T.);
#1417 = EDGE_LOOP('',(#1415,#1416));
#1418 = FACE_BOUND('',#1417,.T.);
#1419 = ADVANCED_FACE('',(#1342,#1346,#1350,#1354,#1358,#1362,#1366,#1370,#1374,#1378,#1382,#1386,#1390,#1394,#1398,#1402,#1406,#1410,#1414,#1418),#1338,.T.);
#1420 = CARTESIAN_POINT('',(0.,0.,0.));
#1421 = DIRECTION('',(0.,0.,-1.0));
#1422 = DIRECTION('',(1.0,0.,0.));
#1423 = AXIS2_PLACEMENT_3D('',#1420,#1421,#1422);
#1424 = PLANE('',#1423);
#1425 = ORIENTED_EDGE('',*,*,#61,.F.);
#1426 = ORIENTED_EDGE('',*,*,#23,.F.);
#1427 = EDGE_LOOP('',(#1425,#1426));
#1428 = FACE_OUTER_BOUND('',#1427,.T.);
#1429 = ORIENTED_EDGE('',*,*,#127,.F.);
#1430 = ORIENTED_EDGE('',*,*,#89,.F.);
#1431 = EDGE_LOOP('',(#1429,#1430));
#1432 = FACE_BOUND('',#1431,.T.);
#1433 = ORIENTED_EDGE('',*,*,#193,.F.);
#1434 = ORIENTED_EDGE('',*,*,#155,.F.);
#1435 = EDGE_LOOP('',(#1433,#1434));
#1436 = FACE_BOUND('',#1435,.T.);
#1437 = ORIENTED_EDGE('',*,*,#259,.F.);
#1438 = ORIENTED_EDGE('',*,*,#221,.F.);
#1439 = EDGE_LOOP('',(#1437,#1438));
#1440 = FACE_BOUND('',#1439,.T.);
#1441 = ORIENTED_EDGE('',*,*,#325,.F.);
#1442 = ORIENTED_EDGE('',*,*,#287,.F.);
#1443 = EDGE_LOOP('',(#1441,#1442));
#1444 = FACE_BOUND('',#1443,.T.);
#1445 = ORIENTED_EDGE('',*,*,#391,.F.);
#1446 = ORIENTED_EDGE('',*,*,#353,.F.);
#1447 = EDGE_LOOP('',(#1445,#1446));
#1448 = FACE_BOUND('',#1447,.T.);
#1449 = ORIENTED_EDGE('',*,*,#457,.F.);
#1450 = ORIENTED_EDGE('',*,*,#419,.F.);
#1451 = EDGE_LOOP('',(#1449,#1450));
#1452 = FACE_BOUND('',#1451,.T.);
#1453 = ORIENTED_EDGE('',*,*,#523,.F.);
#1454 = ORIENTED_EDGE('',*,*,#485,.F.);
#1455 = EDGE_LOOP('',(#1453,#1454));
#1456 = FACE_BOUND('',#1455,.T.);
#1457 = ORIENTED_EDGE('',*,*,#589,.F.);
#1458 = ORIENTED_EDGE('',*,*,#551,.F.);
#1459 = EDGE_LOOP('',(#1457,#1458));
#1460 = FACE_BOUND('',#1459,.T.);
#1461 = ORIENTED_EDGE('',*,*,#655,.F.);
#1462 = ORIENTED_EDGE('',*,*,#617,.F.);
#1463 = EDGE_LOOP('',(#1461,#1462));
#1464 = FACE_BOUND('',#1463,.T.);
#1465 = ORIENTED_EDGE('',*,*,#721,.F.);
#1466 = ORIENTED_EDGE('',*,*,#683,.F.);
#1467 = EDGE_LOOP('',(#1465,#1466));
#1468 = FACE_BOUND('',#1467,.T.);
#1469 = ORIENTED_EDGE('',*,*,#787,.F.);
#1470 = ORIENTED_EDGE('',*,*,#749,.F.);
#1471 = EDGE_LOOP('',(#1469,#1470));
#1472 = FACE_BOUND('',#1471,.T.);
#1473 = ORIENTED_EDGE('',*,*,#853,.F.);
#1474 = ORIENTED_EDGE('',*,*,#815,.F.);
#1475 = EDGE_LOOP('',(#1473,#1474));
#1476 = FACE_BOUND('',#1475,.T.);
#1477 = ORIENTED_EDGE('',*,*,#919,.F.);
#1478 = ORIENTED_EDGE('',*,*,#881,.F.);
#1479 = EDGE_LOOP('',(#1477,#1478));
#1480 = FACE_BOUND('',#1479,.T.);
#1481 = ORIENTED_EDGE('',*,*,#985,.F.);
#1482 = ORIENTED_EDGE('',*,*,#947,.F.);
#1483 = EDGE_LOOP('',(#1481,#1482));
#1484 = FACE_BOUND('',#1483,.T.);
#1485 = ORIENTED_EDGE('',*,*,#1051,.F.);
#1486 = ORIENTED_EDGE('',*,*,#1013,.F.);
#1487 = EDGE_LOOP('',(#1485,#1486));
#1488 = FACE_BOUND('',#1487,.T.);
#1489 = ORIENTED_EDGE('',*,*,#1117,.F.);
#1490 = ORIENTED_EDGE('',*,*,#1079,.F.);
#1491 = EDGE_LOOP('',(#1489,#1490));
#1492 = FACE_BOUND('',#1491,.T.);
#1493 = ORIENTED_EDGE('',*,*,#1183,.F.);
#1494 = ORIENTED_EDGE('',*,*,#1145,.F.);
#1495 = EDGE_LOOP('',(#1493,#1494));
#1496 = FACE_BOUND('',#1495,.T.);
#1497 = ORIENTED_EDGE('',*,*,#1249,.F.);
#1498 = ORIENTED_EDGE('',*,*,#1211,.F.);
#1499 = EDGE_LOOP('',(#1497,#1498));
#1500 = FACE_BOUND('',#1499,.T.);
#1501 = ORIENTED_EDGE('',*,*,#1315,.F.);
#1502 = ORIENTED_EDGE('',*,*,#1277,.F.);
#1503 = EDGE_LOOP('',(#1501,#1502));
#1504 = FACE_BOUND('',#1503,.T.);
#1505 = ADVANCED_FACE('',(#1428,#1432,#1436,#1440,#1444,#1448,#1452,#1456,#1460,#1464,#1468,#1472,#1476,#1480,#1484,#1488,#1492,#1496,#1500,#1504),#1424,.T.);
#1506 = CLOSED_SHELL('',(#55,#79,#121,#145,#187,#211,#253,#277,#319,#343,#385,#409,#451,#475,#517,#541,#583,#607,#649,#673,#715,#739,#781,#805,#847,#871,#913,#937,#979,#1003,#1045,#1069,#1111,#1135,#1177,#1201,#1243,#1267,#1309,#1333,#1419,#1505));
#1507 = CARTESIAN_POINT('',(0.,0.,0.));
#1508 = DIRECTION('',(0.,0.,1.0));
#1509 = DIRECTION('',(1.0,0.,0.));
#1510 = AXIS2_PLACEMENT_3D('',#1507,#1508,#1509);
#1511 = MANIFOLD_SOLID_BREP('B-01',#1506);
#1512 = ADVANCED_BREP_SHAPE_REPRESENTATION('B-01',(#1511,#1510),#5);
#1513 = SHAPE_DEFINITION_REPRESENTATION(#13,#1512);
ENDSEC;
END-ISO-10303-21;
